<svg width="1500" height="51" viewBox="0 0 1500 51" fill="none" xmlns="http://www.w3.org/2000/svg">
<g clip-path="url(#clip0_720_4648)">
<path d="M9.07301 24.65C6.39228 27.59 2.6272 29.66 -1.42902 29.67C-3.62782 29.69 -5.81656 29.14 -7.75431 28.04C-9.72218 26.97 -11.4792 25.47 -13.3065 24.03C-14.8326 22.83 -16.4089 21.67 -18.1559 20.83C-19.8929 19.97 -21.8306 19.55 -23.7383 19.56C-27.5435 19.62 -31.2985 21.23 -33.939 24.19C-34.2402 24.53 -34.0897 24.79 -33.8085 24.57C-31.419 22.6 -28.2764 20.92 -24.7021 20.59C-22.935 20.44 -21.1278 20.63 -19.4812 21.27C-17.8246 21.89 -16.3386 22.88 -15.0334 23.87C-13.2162 25.27 -11.4893 26.86 -9.52139 28.18C-7.5736 29.52 -5.28444 30.48 -2.89488 30.71C-0.515358 30.97 1.93444 30.61 4.10312 29.62C6.27179 28.64 8.14931 27.08 9.47461 25.17C9.92642 24.5 9.63526 24.01 9.07301 24.65Z" fill="#FF8000"/>
<path d="M95.9606 25.07C93.31 28.06 89.3541 29.83 85.3582 29.61C83.3602 29.52 81.4124 28.98 79.6554 28C77.8783 27.04 76.2718 25.69 74.6353 24.34C72.8481 22.87 71.0008 21.32 68.7819 20.27C66.573 19.18 64.0027 18.81 61.5831 19.16C59.1534 19.49 56.824 20.46 54.9264 22.01C52.9987 23.64 51.9646 25.75 50.2176 27.11C47.4064 29.54 43.5208 30.52 39.8863 29.92C38.059 29.64 36.3321 28.93 34.7658 27.94C33.1895 26.97 31.7537 25.76 30.2979 24.57C28.8521 23.38 27.3662 22.2 25.7196 21.28C24.073 20.36 22.2156 19.75 20.308 19.67C16.5128 19.47 12.567 20.94 9.90636 23.88C9.32403 24.57 9.40435 24.92 9.89631 24.43C12.0449 22.27 15.1574 20.77 18.5309 20.57C20.2076 20.45 21.9345 20.7 23.5309 21.31C25.1373 21.95 26.6534 22.94 28.1092 24.08C31.0108 26.32 33.9224 29.16 37.6875 30.35C41.3923 31.52 45.3481 31.06 48.3803 29.46C49.4445 28.91 50.4184 28.22 51.302 27.42C52.2056 26.63 52.9285 25.68 53.6513 24.79C54.3742 23.9 55.1172 23.05 56.0409 22.42C56.9546 21.76 57.9586 21.23 59.0228 20.84C61.1413 20.07 63.4907 19.87 65.6995 20.33C67.9184 20.78 69.9064 22.02 71.7236 23.41C73.5509 24.81 75.2477 26.41 77.1754 27.77C79.073 29.15 81.2819 30.22 83.6413 30.56C85.9807 30.93 88.4104 30.69 90.6092 29.84C92.808 28.99 94.7558 27.57 96.2116 25.77C96.7237 25.14 96.9144 24.6 96.8642 24.42C96.7939 24.25 96.5229 24.43 95.9606 25.07Z" fill="#FF8000"/>
<path d="M183.22 25.07C180.569 28.06 176.603 29.83 172.607 29.61C170.609 29.52 168.651 28.98 166.904 27.99C165.127 27.02 163.521 25.68 161.884 24.33C160.097 22.86 158.25 21.31 156.021 20.26C153.802 19.2 151.262 18.79 148.822 19.11C146.392 19.43 144.043 20.42 142.165 22C141.694 22.4 141.262 22.83 140.86 23.29C140.469 23.76 140.087 24.27 139.786 24.72C139.133 25.62 138.37 26.43 137.517 27.13C134.665 29.51 130.8 30.53 127.155 29.92C125.328 29.64 123.591 28.94 122.025 27.94C120.439 26.97 119.013 25.76 117.557 24.57C116.111 23.38 114.625 22.2 112.969 21.28C111.322 20.36 109.465 19.74 107.557 19.66C103.762 19.45 99.806 20.93 97.1454 23.87C96.563 24.56 96.6434 24.91 97.1353 24.42C99.2839 22.25 102.406 20.76 105.77 20.56C107.447 20.44 109.173 20.69 110.77 21.31C112.386 21.95 113.892 22.95 115.358 24.08C118.26 26.33 121.171 29.17 124.947 30.35C128.661 31.52 132.607 31.03 135.639 29.46C137.758 28.38 139.615 26.75 140.92 24.77C142.226 22.96 144.113 21.57 146.232 20.79C148.35 20.01 150.7 19.85 152.908 20.33C155.137 20.78 157.125 22.01 158.943 23.41C160.77 24.81 162.477 26.41 164.394 27.78C166.292 29.16 168.501 30.23 170.86 30.58C173.2 30.95 175.639 30.71 177.828 29.86C180.027 29.01 181.975 27.59 183.441 25.79C183.953 25.16 184.143 24.62 184.093 24.44C184.043 24.25 183.772 24.43 183.22 25.07Z" fill="#FF8000"/>
<path d="M270.469 25.07C267.818 28.06 263.852 29.83 259.866 29.61C257.868 29.52 255.921 28.98 254.163 27.99C252.386 27.02 250.78 25.68 249.143 24.33C247.356 22.86 245.509 21.31 243.29 20.26C241.081 19.18 238.521 18.79 236.101 19.11C233.661 19.42 231.322 20.4 229.445 21.99C227.557 23.66 226.533 25.76 224.766 27.1C221.935 29.51 218.069 30.52 214.425 29.91C212.597 29.63 210.86 28.93 209.304 27.93C207.718 26.96 206.292 25.75 204.836 24.56C203.39 23.37 201.904 22.19 200.248 21.27C198.601 20.35 196.744 19.74 194.836 19.65C191.041 19.45 187.085 20.92 184.435 23.86C183.852 24.55 183.933 24.9 184.425 24.41C186.573 22.24 189.696 20.75 193.059 20.55C194.736 20.43 196.463 20.68 198.059 21.3C199.676 21.94 201.182 22.94 202.647 24.07C205.549 26.31 208.461 29.15 212.226 30.34C215.931 31.5 219.886 31.04 222.919 29.44C223.973 28.89 224.967 28.21 225.85 27.42C226.754 26.63 227.497 25.69 228.21 24.79C228.933 23.89 229.655 23.03 230.559 22.38C231.463 21.71 232.467 21.17 233.521 20.78C235.639 20.01 237.989 19.84 240.198 20.32C242.416 20.78 244.404 22.01 246.222 23.4C248.049 24.8 249.756 26.4 251.673 27.77C253.571 29.15 255.78 30.22 258.139 30.56C260.479 30.93 262.918 30.69 265.107 29.84C267.306 28.99 269.254 27.57 270.72 25.77C271.232 25.14 271.422 24.6 271.372 24.42C271.292 24.25 271.031 24.43 270.469 25.07Z" fill="#FF8000"/>
<path d="M314.414 24.65C311.734 27.59 307.969 29.66 303.912 29.67C301.714 29.69 299.525 29.14 297.587 28.04C295.619 26.97 293.862 25.47 292.035 24.03C290.509 22.83 288.932 21.67 287.185 20.83C285.449 19.97 283.511 19.55 281.603 19.56C277.798 19.62 274.043 21.23 271.402 24.19C271.101 24.53 271.252 24.79 271.533 24.57C273.922 22.6 277.065 20.92 280.639 20.59C282.406 20.44 284.214 20.63 285.86 21.27C287.517 21.89 289.003 22.88 290.308 23.87C292.125 25.27 293.852 26.86 295.82 28.18C297.768 29.52 300.057 30.48 302.447 30.71C304.826 30.97 307.276 30.61 309.445 29.62C311.613 28.64 313.491 27.08 314.816 25.17C315.258 24.5 314.977 24.01 314.414 24.65Z" fill="#FF8000"/>
<path d="M401.342 25.07C398.692 28.06 394.726 29.83 390.74 29.61C388.742 29.52 386.794 28.98 385.037 27.99C383.26 27.03 381.653 25.68 380.017 24.33C378.23 22.86 376.382 21.31 374.163 20.26C371.955 19.19 369.404 18.79 366.975 19.11C364.545 19.42 362.196 20.4 360.318 21.98C358.41 23.62 357.366 25.72 355.619 27.08C354.194 28.26 352.537 29.17 350.77 29.64C348.993 30.11 347.115 30.2 345.298 29.91C343.471 29.63 341.744 28.93 340.177 27.93C338.591 26.96 337.165 25.75 335.71 24.56C334.264 23.37 332.778 22.19 331.121 21.27C329.475 20.35 327.617 19.74 325.71 19.65C321.914 19.45 317.959 20.92 315.308 23.86C314.726 24.55 314.806 24.9 315.298 24.41C317.447 22.24 320.569 20.75 323.932 20.55C325.609 20.43 327.336 20.68 328.932 21.29C330.539 21.93 332.055 22.92 333.521 24.06C336.422 26.3 339.334 29.14 343.099 30.33C346.804 31.49 350.76 31.04 353.792 29.42C354.846 28.87 355.83 28.18 356.714 27.39C357.617 26.59 358.34 25.65 359.073 24.76C360.449 22.92 362.266 21.54 364.414 20.77C366.533 20 368.882 19.83 371.091 20.31C373.31 20.77 375.298 22 377.115 23.4C378.943 24.8 380.649 26.4 382.567 27.77C384.465 29.15 386.673 30.22 389.033 30.56C391.372 30.93 393.802 30.69 396.001 29.84C398.2 28.99 400.147 27.57 401.613 25.77C402.125 25.14 402.316 24.6 402.266 24.42C402.175 24.25 401.904 24.43 401.342 25.07Z" fill="#FF8000"/>
<path d="M445.288 24.65C442.607 27.59 438.842 29.66 434.786 29.67C432.587 29.69 430.398 29.14 428.461 28.04C426.493 26.97 424.736 25.47 422.908 24.03C421.382 22.83 419.806 21.67 418.059 20.83C416.322 19.97 414.384 19.55 412.477 19.56C408.671 19.62 404.916 21.23 402.276 24.19C401.975 24.53 402.125 24.79 402.406 24.57C404.796 22.6 407.938 20.92 411.513 20.59C413.28 20.44 415.087 20.63 416.734 21.27C418.39 21.89 419.876 22.88 421.181 23.87C422.999 25.27 424.726 26.86 426.693 28.18C428.641 29.52 430.93 30.48 433.32 30.71C435.7 30.97 438.149 30.61 440.318 29.62C442.487 28.64 444.364 27.08 445.689 25.17C446.141 24.5 445.85 24.01 445.288 24.65Z" fill="#FF8000"/>
<path d="M531.914 25.07C529.264 28.06 525.308 29.83 521.312 29.61C519.314 29.52 517.366 28.98 515.609 28C513.832 27.04 512.226 25.69 510.589 24.34C508.802 22.87 506.955 21.32 504.736 20.27C502.527 19.18 499.957 18.81 497.537 19.16C495.107 19.49 492.778 20.46 490.88 22.01C488.953 23.64 487.918 25.75 486.171 27.11C483.36 29.54 479.475 30.52 475.84 29.92C474.013 29.64 472.286 28.93 470.72 27.94C469.143 26.97 467.708 25.76 466.252 24.57C464.806 23.38 463.32 22.2 461.674 21.28C460.027 20.36 458.17 19.75 456.262 19.67C452.467 19.47 448.521 20.94 445.86 23.88C445.278 24.57 445.358 24.92 445.85 24.43C447.999 22.27 451.111 20.77 454.485 20.57C456.161 20.45 457.888 20.7 459.485 21.31C461.091 21.95 462.607 22.94 464.063 24.08C466.965 26.32 469.876 29.16 473.641 30.35C477.346 31.52 481.302 31.06 484.334 29.46C485.388 28.91 486.372 28.22 487.256 27.42C488.159 26.63 488.882 25.68 489.605 24.79C490.328 23.9 491.071 23.05 491.995 22.42C492.908 21.76 493.912 21.23 494.977 20.84C497.095 20.07 499.445 19.87 501.653 20.33C503.872 20.78 505.86 22.02 507.678 23.41C509.505 24.81 511.202 26.41 513.129 27.77C515.027 29.15 517.236 30.22 519.595 30.56C521.935 30.93 524.364 30.69 526.563 29.84C528.762 28.99 530.71 27.57 532.165 25.77C532.678 25.14 532.868 24.6 532.818 24.42C532.748 24.25 532.477 24.43 531.914 25.07Z" fill="#FF8000"/>
<path d="M619.163 25.07C616.513 28.06 612.547 29.83 608.551 29.61C606.553 29.52 604.595 28.98 602.848 27.99C601.071 27.02 599.465 25.68 597.828 24.33C596.041 22.86 594.194 21.31 591.965 20.26C589.746 19.2 587.206 18.79 584.766 19.11C582.336 19.43 579.987 20.42 578.109 22C577.637 22.4 577.206 22.83 576.804 23.29C576.412 23.76 576.031 24.27 575.73 24.72C575.077 25.62 574.314 26.43 573.461 27.13C570.609 29.51 566.744 30.53 563.099 29.92C561.272 29.64 559.535 28.94 557.969 27.94C556.382 26.97 554.957 25.76 553.501 24.57C552.055 23.38 550.569 22.2 548.912 21.28C547.266 20.36 545.408 19.74 543.501 19.66C539.706 19.45 535.75 20.93 533.089 23.87C532.507 24.56 532.587 24.91 533.079 24.42C535.228 22.25 538.35 20.76 541.714 20.56C543.39 20.44 545.117 20.69 546.714 21.31C548.33 21.95 549.836 22.95 551.302 24.08C554.204 26.33 557.115 29.17 560.89 30.35C564.605 31.52 568.551 31.03 571.583 29.46C573.702 28.38 575.559 26.75 576.864 24.77C578.169 22.96 580.057 21.57 582.175 20.79C584.294 20.01 586.643 19.85 588.852 20.33C591.081 20.78 593.069 22.01 594.886 23.41C596.714 24.81 598.42 26.41 600.338 27.78C602.236 29.16 604.445 30.23 606.804 30.58C609.143 30.95 611.583 30.71 613.772 29.86C615.971 29.01 617.918 27.59 619.384 25.79C619.896 25.16 620.087 24.62 620.037 24.44C619.997 24.25 619.726 24.43 619.163 25.07Z" fill="#FF8000"/>
<path d="M706.422 25.07C703.772 28.06 699.806 29.83 695.82 29.61C693.822 29.52 691.874 28.98 690.117 27.99C688.34 27.02 686.734 25.68 685.097 24.33C683.31 22.86 681.463 21.31 679.244 20.26C677.035 19.18 674.475 18.79 672.055 19.11C669.615 19.42 667.276 20.4 665.398 21.99C663.511 23.66 662.487 25.76 660.72 27.1C657.888 29.51 654.023 30.52 650.378 29.91C648.551 29.63 646.814 28.93 645.258 27.93C643.671 26.96 642.246 25.75 640.79 24.56C639.344 23.37 637.858 22.19 636.202 21.27C634.555 20.35 632.698 19.74 630.79 19.65C626.995 19.45 623.039 20.92 620.388 23.86C619.806 24.55 619.886 24.9 620.378 24.41C622.527 22.24 625.649 20.75 629.013 20.55C630.689 20.43 632.416 20.68 634.013 21.3C635.629 21.94 637.135 22.94 638.601 24.07C641.503 26.31 644.414 29.15 648.179 30.34C651.884 31.5 655.84 31.04 658.872 29.44C659.926 28.89 660.92 28.21 661.804 27.42C662.708 26.63 663.451 25.69 664.163 24.79C664.886 23.89 665.609 23.03 666.513 22.38C667.416 21.71 668.42 21.17 669.475 20.78C671.593 20.01 673.942 19.84 676.151 20.31C678.37 20.77 680.358 22 682.175 23.39C684.003 24.79 685.71 26.39 687.627 27.76C689.525 29.14 691.734 30.21 694.093 30.55C696.432 30.92 698.872 30.68 701.061 29.83C703.26 28.98 705.208 27.56 706.673 25.76C707.185 25.13 707.376 24.59 707.326 24.41C707.246 24.25 706.975 24.43 706.422 25.07Z" fill="#FF8000"/>
<path d="M750.358 24.65C747.677 27.59 743.912 29.66 739.856 29.67C737.657 29.69 735.469 29.14 733.531 28.04C731.563 26.97 729.806 25.47 727.979 24.03C726.453 22.83 724.876 21.67 723.129 20.83C721.392 19.97 719.455 19.55 717.547 19.56C713.742 19.62 709.987 21.23 707.346 24.19C707.045 24.53 707.196 24.79 707.477 24.57C709.866 22.6 713.009 20.92 716.583 20.59C718.35 20.44 720.157 20.63 721.804 21.28C723.461 21.9 724.947 22.88 726.252 23.88C728.069 25.28 729.796 26.87 731.764 28.19C733.712 29.53 736.001 30.49 738.39 30.72C740.77 30.98 743.22 30.62 745.388 29.63C747.557 28.65 749.435 27.09 750.76 25.18C751.212 24.5 750.92 24.01 750.358 24.65Z" fill="#FF8000"/>
<path d="M836.282 26.07C833.631 29.06 829.675 30.83 825.679 30.61C823.681 30.52 821.734 29.98 819.977 29C818.199 28.04 816.593 26.69 814.956 25.34C813.169 23.87 811.322 22.32 809.103 21.27C806.894 20.18 804.324 19.81 801.904 20.16C799.475 20.49 797.145 21.46 795.248 23.01C793.32 24.64 792.286 26.75 790.539 28.11C787.728 30.54 783.842 31.52 780.207 30.92C778.38 30.64 776.653 29.93 775.087 28.94C773.511 27.97 772.075 26.76 770.619 25.57C769.173 24.38 767.687 23.2 766.031 22.28C764.384 21.36 762.527 20.75 760.619 20.67C756.824 20.47 752.878 21.94 750.218 24.88C749.635 25.57 749.716 25.92 750.207 25.43C752.356 23.27 755.469 21.77 758.842 21.57C760.519 21.45 762.246 21.7 763.842 22.31C765.449 22.95 766.965 23.94 768.42 25.08C771.322 27.32 774.234 30.16 777.999 31.35C781.704 32.52 785.659 32.06 788.691 30.46C789.746 29.91 790.73 29.22 791.613 28.42C792.517 27.63 793.24 26.68 793.963 25.79C794.685 24.9 795.428 24.05 796.352 23.42C797.266 22.76 798.27 22.23 799.334 21.84C801.452 21.07 803.802 20.87 806.011 21.33C808.23 21.78 810.218 23.02 812.035 24.41C813.862 25.81 815.559 27.41 817.487 28.77C819.384 30.15 821.593 31.22 823.953 31.56C826.292 31.93 828.722 31.69 830.92 30.84C833.119 29.99 835.067 28.57 836.523 26.77C837.035 26.14 837.226 25.6 837.175 25.42C837.105 25.25 836.834 25.43 836.282 26.07Z" fill="#FF8000"/>
<path d="M923.531 26.07C920.88 29.06 916.914 30.83 912.918 30.61C910.92 30.52 908.963 29.98 907.216 28.99C905.438 28.02 903.832 26.68 902.195 25.33C900.408 23.86 898.561 22.31 896.332 21.26C894.113 20.2 891.573 19.79 889.133 20.11C886.703 20.43 884.354 21.42 882.477 23C882.005 23.4 881.573 23.83 881.171 24.29C880.78 24.76 880.398 25.27 880.097 25.72C879.444 26.62 878.681 27.43 877.828 28.13C874.977 30.51 871.111 31.53 867.467 30.92C865.639 30.64 863.902 29.94 862.336 28.94C860.75 27.97 859.324 26.76 857.868 25.57C856.422 24.38 854.936 23.2 853.28 22.28C851.633 21.36 849.776 20.74 847.868 20.66C844.073 20.45 840.117 21.93 837.457 24.87C836.874 25.56 836.955 25.91 837.446 25.42C839.595 23.25 842.718 21.76 846.081 21.56C847.758 21.44 849.485 21.69 851.081 22.31C852.698 22.95 854.204 23.95 855.669 25.08C858.571 27.33 861.483 30.17 865.258 31.35C868.973 32.52 872.918 32.03 875.95 30.46C878.069 29.38 879.926 27.75 881.232 25.77C882.537 23.96 884.424 22.57 886.543 21.79C888.661 21.01 891.011 20.85 893.22 21.33C895.449 21.78 897.426 23.01 899.254 24.41C901.081 25.81 902.788 27.41 904.706 28.78C906.603 30.16 908.812 31.23 911.171 31.58C913.511 31.95 915.95 31.71 918.139 30.86C920.338 30.01 922.286 28.59 923.752 26.79C924.264 26.16 924.454 25.62 924.404 25.44C924.364 25.25 924.093 25.43 923.531 26.07Z" fill="#FF8000"/>
<path d="M1010.78 26.07C1008.13 29.06 1004.16 30.83 1000.18 30.61C998.179 30.52 996.232 29.98 994.475 28.99C992.698 28.02 991.091 26.68 989.455 25.33C987.667 23.86 985.82 22.31 983.601 21.26C981.392 20.18 978.832 19.79 976.412 20.11C973.973 20.42 971.633 21.4 969.756 22.99C967.868 24.66 966.844 26.76 965.077 28.1C962.246 30.51 958.38 31.52 954.736 30.91C952.908 30.63 951.171 29.93 949.615 28.93C948.029 27.96 946.603 26.75 945.147 25.56C943.702 24.37 942.216 23.19 940.559 22.27C938.912 21.35 937.055 20.74 935.147 20.65C931.352 20.45 927.396 21.92 924.746 24.86C924.163 25.55 924.244 25.9 924.736 25.41C926.884 23.24 930.007 21.75 933.37 21.55C935.047 21.43 936.774 21.68 938.37 22.3C939.987 22.94 941.493 23.94 942.958 25.07C945.86 27.31 948.772 30.15 952.537 31.34C956.242 32.5 960.198 32.04 963.23 30.44C964.284 29.89 965.278 29.21 966.161 28.42C967.065 27.63 967.808 26.69 968.521 25.79C969.244 24.89 969.967 24.03 970.87 23.38C971.774 22.71 972.778 22.17 973.832 21.78C975.95 21.01 978.3 20.84 980.509 21.32C982.728 21.78 984.716 23.01 986.533 24.4C988.36 25.8 990.067 27.4 991.985 28.77C993.882 30.15 996.091 31.22 998.45 31.56C1000.79 31.93 1003.23 31.69 1005.42 30.84C1007.62 29.99 1009.56 28.57 1011.03 26.77C1011.54 26.14 1011.73 25.6 1011.68 25.42C1011.61 25.25 1011.34 25.43 1010.78 26.07Z" fill="#FF8000"/>
<path d="M1054.73 25.65C1052.04 28.59 1048.28 30.66 1044.22 30.67C1042.02 30.69 1039.84 30.14 1037.9 29.04C1035.93 27.97 1034.17 26.47 1032.35 25.03C1030.82 23.83 1029.24 22.67 1027.5 21.83C1025.76 20.97 1023.82 20.55 1021.91 20.56C1018.11 20.62 1014.35 22.23 1011.71 25.19C1011.41 25.53 1011.56 25.79 1011.84 25.57C1014.23 23.6 1017.38 21.92 1020.95 21.59C1022.72 21.44 1024.52 21.63 1026.17 22.27C1027.83 22.89 1029.31 23.88 1030.62 24.87C1032.44 26.27 1034.16 27.86 1036.13 29.18C1038.08 30.52 1040.37 31.48 1042.76 31.71C1045.14 31.97 1047.59 31.61 1049.76 30.62C1051.92 29.64 1053.8 28.08 1055.13 26.17C1055.58 25.5 1055.29 25.01 1054.73 25.65Z" fill="#FF8000"/>
<path d="M1141.66 26.07C1139.01 29.06 1135.05 30.83 1131.06 30.61C1129.06 30.52 1127.12 29.98 1125.36 28.99C1123.58 28.03 1121.97 26.68 1120.34 25.33C1118.55 23.86 1116.7 22.31 1114.48 21.26C1112.28 20.19 1109.73 19.79 1107.3 20.11C1104.87 20.42 1102.52 21.4 1100.64 22.98C1098.73 24.62 1097.69 26.72 1095.94 28.08C1094.51 29.26 1092.86 30.17 1091.09 30.64C1089.31 31.11 1087.44 31.2 1085.62 30.91C1083.79 30.63 1082.07 29.93 1080.5 28.93C1078.92 27.96 1077.49 26.75 1076.03 25.56C1074.59 24.37 1073.1 23.19 1071.44 22.27C1069.8 21.35 1067.94 20.74 1066.03 20.65C1062.24 20.45 1058.28 21.92 1055.63 24.86C1055.05 25.55 1055.13 25.9 1055.62 25.41C1057.77 23.24 1060.89 21.75 1064.25 21.55C1065.93 21.43 1067.66 21.68 1069.25 22.29C1070.86 22.93 1072.38 23.92 1073.84 25.06C1076.74 27.3 1079.66 30.14 1083.42 31.33C1087.13 32.49 1091.08 32.04 1094.11 30.42C1095.17 29.87 1096.15 29.18 1097.03 28.39C1097.94 27.59 1098.66 26.65 1099.39 25.76C1100.77 23.92 1102.59 22.54 1104.74 21.77C1106.85 21 1109.2 20.83 1111.41 21.31C1113.63 21.77 1115.62 23 1117.44 24.4C1119.26 25.8 1120.97 27.4 1122.89 28.77C1124.79 30.15 1126.99 31.22 1129.35 31.56C1131.69 31.93 1134.12 31.69 1136.32 30.84C1138.52 29.99 1140.47 28.57 1141.93 26.77C1142.45 26.14 1142.64 25.6 1142.59 25.42C1142.49 25.25 1142.22 25.43 1141.66 26.07Z" fill="#FF8000"/>
<path d="M1185.6 25.65C1182.92 28.59 1179.15 30.66 1175.1 30.67C1172.9 30.69 1170.71 30.14 1168.77 29.04C1166.8 27.97 1165.05 26.47 1163.22 25.03C1161.69 23.83 1160.12 22.67 1158.37 21.83C1156.63 20.97 1154.7 20.55 1152.79 20.56C1148.98 20.62 1145.23 22.23 1142.59 25.19C1142.29 25.53 1142.44 25.79 1142.72 25.57C1145.11 23.6 1148.25 21.92 1151.82 21.59C1153.59 21.44 1155.4 21.63 1157.04 22.27C1158.7 22.89 1160.19 23.88 1161.49 24.87C1163.31 26.27 1165.04 27.86 1167 29.18C1168.95 30.52 1171.24 31.48 1173.63 31.71C1176.01 31.97 1178.46 31.61 1180.63 30.62C1182.8 29.64 1184.68 28.08 1186 26.17C1186.45 25.5 1186.16 25.01 1185.6 25.65Z" fill="#FF8000"/>
<path d="M1272.49 26.07C1269.84 29.06 1265.88 30.83 1261.88 30.61C1259.89 30.52 1257.94 29.98 1256.18 29C1254.4 28.04 1252.8 26.69 1251.16 25.34C1249.37 23.87 1247.53 22.32 1245.31 21.27C1243.1 20.18 1240.53 19.81 1238.11 20.16C1235.68 20.49 1233.35 21.46 1231.45 23.01C1229.52 24.64 1228.49 26.75 1226.74 28.11C1223.93 30.54 1220.05 31.52 1216.41 30.92C1214.59 30.64 1212.86 29.93 1211.29 28.94C1209.72 27.97 1208.28 26.76 1206.82 25.57C1205.38 24.38 1203.89 23.2 1202.25 22.28C1200.6 21.36 1198.74 20.75 1196.83 20.67C1193.04 20.47 1189.09 21.94 1186.43 24.88C1185.85 25.57 1185.93 25.92 1186.42 25.43C1188.57 23.27 1191.68 21.77 1195.06 21.57C1196.73 21.45 1198.46 21.7 1200.06 22.31C1201.66 22.95 1203.18 23.94 1204.64 25.08C1207.54 27.32 1210.45 30.16 1214.21 31.35C1217.92 32.52 1221.87 32.06 1224.91 30.46C1225.97 29.91 1226.94 29.22 1227.83 28.42C1228.73 27.63 1229.45 26.68 1230.18 25.79C1230.9 24.9 1231.64 24.05 1232.57 23.42C1233.48 22.76 1234.48 22.23 1235.55 21.84C1237.67 21.07 1240.02 20.87 1242.23 21.33C1244.44 21.78 1246.43 23.02 1248.25 24.41C1250.08 25.81 1251.77 27.41 1253.7 28.77C1255.6 30.15 1257.81 31.22 1260.17 31.56C1262.51 31.93 1264.94 31.69 1267.14 30.84C1269.33 29.99 1271.28 28.57 1272.74 26.77C1273.25 26.14 1273.44 25.6 1273.39 25.42C1273.32 25.25 1273.05 25.43 1272.49 26.07Z" fill="#FF8000"/>
<path d="M1359.75 26.07C1357.1 29.06 1353.13 30.83 1349.13 30.61C1347.14 30.52 1345.18 29.98 1343.43 28.99C1341.65 28.02 1340.05 26.68 1338.41 25.33C1336.62 23.86 1334.78 22.31 1332.55 21.26C1330.33 20.2 1327.79 19.79 1325.35 20.11C1322.92 20.43 1320.57 21.42 1318.69 23C1318.22 23.4 1317.79 23.83 1317.39 24.29C1316.99 24.76 1316.61 25.27 1316.31 25.72C1315.66 26.62 1314.9 27.43 1314.04 28.13C1311.19 30.51 1307.33 31.53 1303.68 30.92C1301.85 30.64 1300.12 29.94 1298.55 28.94C1296.96 27.97 1295.54 26.76 1294.08 25.57C1292.64 24.38 1291.15 23.2 1289.49 22.28C1287.85 21.36 1285.99 20.74 1284.08 20.66C1280.29 20.45 1276.33 21.93 1273.67 24.87C1273.09 25.56 1273.17 25.91 1273.66 25.42C1275.81 23.25 1278.93 21.76 1282.3 21.56C1283.97 21.44 1285.7 21.69 1287.3 22.31C1288.91 22.95 1290.42 23.95 1291.88 25.08C1294.79 27.33 1297.7 30.17 1301.47 31.35C1305.19 32.52 1309.13 32.03 1312.17 30.46C1314.28 29.38 1316.14 27.75 1317.45 25.77C1318.75 23.96 1320.64 22.57 1322.76 21.79C1324.88 21.01 1327.23 20.85 1329.43 21.33C1331.66 21.78 1333.65 23.01 1335.47 24.41C1337.3 25.81 1339 27.41 1340.92 28.78C1342.82 30.16 1345.03 31.23 1347.39 31.58C1349.73 31.95 1352.17 31.71 1354.35 30.86C1356.55 30.01 1358.5 28.59 1359.97 26.79C1360.48 26.16 1360.67 25.62 1360.62 25.44C1360.57 25.25 1360.3 25.43 1359.75 26.07Z" fill="#FF8000"/>
<path d="M1446.99 26.07C1444.34 29.06 1440.38 30.83 1436.39 30.61C1434.39 30.52 1432.45 29.98 1430.69 28.99C1428.91 28.02 1427.31 26.68 1425.67 25.33C1423.88 23.86 1422.03 22.31 1419.82 21.26C1417.61 20.18 1415.05 19.79 1412.63 20.11C1410.19 20.42 1407.85 21.4 1405.97 22.99C1404.08 24.66 1403.06 26.76 1401.29 28.1C1398.46 30.51 1394.6 31.52 1390.95 30.91C1389.12 30.63 1387.39 29.93 1385.83 28.93C1384.24 27.96 1382.82 26.75 1381.36 25.56C1379.92 24.37 1378.43 23.19 1376.77 22.27C1375.13 21.35 1373.27 20.74 1371.36 20.65C1367.57 20.45 1363.61 21.92 1360.96 24.86C1360.38 25.55 1360.46 25.9 1360.95 25.41C1363.1 23.24 1366.22 21.75 1369.59 21.55C1371.26 21.43 1372.99 21.68 1374.59 22.3C1376.19 22.94 1377.71 23.94 1379.17 25.07C1382.08 27.31 1384.99 30.15 1388.75 31.34C1392.46 32.5 1396.41 32.04 1399.44 30.44C1400.5 29.89 1401.49 29.21 1402.38 28.42C1403.28 27.63 1404.02 26.69 1404.74 25.79C1405.46 24.89 1406.18 24.03 1407.08 23.38C1407.99 22.71 1408.99 22.17 1410.05 21.78C1412.17 21.01 1414.51 20.84 1416.72 21.32C1418.94 21.78 1420.93 23.01 1422.75 24.4C1424.58 25.8 1426.28 27.4 1428.2 28.77C1430.1 30.15 1432.31 31.22 1434.67 31.56C1437 31.93 1439.44 31.69 1441.63 30.84C1443.83 29.99 1445.78 28.57 1447.25 26.77C1447.76 26.14 1447.95 25.6 1447.9 25.42C1447.82 25.25 1447.55 25.43 1446.99 26.07Z" fill="#FF8000"/>
<path d="M1490.94 25.65C1488.26 28.59 1484.49 30.66 1480.44 30.67C1478.24 30.69 1476.05 30.14 1474.11 29.04C1472.15 27.97 1470.39 26.47 1468.56 25.03C1467.03 23.83 1465.46 22.67 1463.71 21.83C1461.97 20.97 1460.04 20.55 1458.13 20.56C1454.32 20.62 1450.57 22.23 1447.93 25.19C1447.63 25.53 1447.78 25.79 1448.06 25.57C1450.45 23.6 1453.59 21.92 1457.17 21.59C1458.93 21.44 1460.74 21.63 1462.39 22.27C1464.04 22.89 1465.53 23.88 1466.83 24.87C1468.65 26.27 1470.38 27.86 1472.35 29.18C1474.29 30.52 1476.58 31.48 1478.97 31.71C1481.35 31.97 1483.8 31.61 1485.97 30.62C1488.14 29.64 1490.02 28.08 1491.34 26.17C1491.78 25.5 1491.5 25.01 1490.94 25.65Z" fill="#FF8000"/>
<path d="M1577.87 26.07C1575.22 29.06 1571.25 30.83 1567.27 30.61C1565.27 30.52 1563.32 29.98 1561.56 28.99C1559.79 28.03 1558.18 26.68 1556.54 25.33C1554.76 23.86 1552.91 22.31 1550.69 21.26C1548.48 20.19 1545.93 19.79 1543.5 20.11C1541.07 20.42 1538.72 21.4 1536.84 22.98C1534.94 24.62 1533.89 26.72 1532.15 28.08C1530.72 29.26 1529.06 30.17 1527.3 30.64C1525.52 31.11 1523.64 31.2 1521.82 30.91C1520 30.63 1518.27 29.93 1516.7 28.93C1515.12 27.96 1513.69 26.75 1512.24 25.56C1510.79 24.37 1509.3 23.19 1507.65 22.27C1506 21.35 1504.14 20.74 1502.24 20.65C1498.44 20.45 1494.48 21.92 1491.83 24.86C1491.25 25.55 1491.33 25.9 1491.82 25.41C1493.97 23.24 1497.1 21.75 1500.46 21.55C1502.14 21.43 1503.86 21.68 1505.46 22.29C1507.06 22.93 1508.58 23.92 1510.05 25.06C1512.95 27.3 1515.86 30.14 1519.63 31.33C1523.33 32.49 1527.29 32.04 1530.32 30.42C1531.37 29.87 1532.36 29.18 1533.24 28.39C1534.14 27.59 1534.87 26.65 1535.6 25.76C1536.97 23.92 1538.79 22.54 1540.94 21.77C1543.06 21 1545.41 20.83 1547.62 21.31C1549.84 21.77 1551.82 23 1553.64 24.4C1555.47 25.8 1557.18 27.4 1559.09 28.77C1560.99 30.15 1563.2 31.22 1565.56 31.56C1567.9 31.93 1570.33 31.69 1572.53 30.84C1574.73 29.99 1576.67 28.57 1578.14 26.77C1578.65 26.14 1578.84 25.6 1578.79 25.42C1578.7 25.25 1578.43 25.43 1577.87 26.07Z" fill="#FF8000"/>
</g>
<defs>
<clipPath id="clip0_720_4648">
<rect width="1500" height="51" fill="white"/>
</clipPath>
</defs>
</svg>
