<svg width="56" height="56" viewBox="0 0 56 56" fill="none" xmlns="http://www.w3.org/2000/svg">
<path d="M16.552 0.851807H39.8479C48.5188 0.851807 55.5481 7.88113 55.5481 16.552V55.5481H16.552C7.88113 55.5481 0.851807 48.5188 0.851807 39.8479V16.552C0.851807 7.88113 7.88113 0.851808 16.552 0.851807Z" stroke="#FF8000" stroke-width="0.6"/>
<path d="M10.3247 36.2L16.2197 19.91H17.5472L23.4309 36.2H22.1934L16.9172 21.4175H16.8272L11.5622 36.2H10.3247ZM20.8322 30.035V31.0925H12.9234V30.035H20.8322ZM28.3737 36.2H27.2487V19.91H28.3737V36.2ZM34.6215 36.2H33.4965V19.91H34.6215V36.2Z" fill="#FF8000"/>
<path d="M42.1608 32.808L46.7688 28.2L42.1608 23.592" stroke="#FF8000" stroke-width="0.6912" stroke-linecap="round" stroke-linejoin="round"/>
</svg>
