<svg width="92" height="89" viewBox="0 0 92 89" fill="none" xmlns="http://www.w3.org/2000/svg">
<g clip-path="url(#clip0_1621_28)">
<path d="M45.4999 24.66C52.3096 24.66 57.8299 19.1397 57.8299 12.33C57.8299 5.52033 52.3096 0 45.4999 0C38.6903 0 33.1699 5.52033 33.1699 12.33C33.1699 19.1397 38.6903 24.66 45.4999 24.66Z" fill="#FFA195"/>
<path d="M47.2001 88.45C54.0098 88.45 59.5301 82.9297 59.5301 76.12C59.5301 69.3103 54.0098 63.79 47.2001 63.79C40.3904 63.79 34.8701 69.3103 34.8701 76.12C34.8701 82.9297 40.3904 88.45 47.2001 88.45Z" fill="#FFA195"/>
<path d="M67.61 34.87C74.4197 34.87 79.94 29.3497 79.94 22.54C79.94 15.7304 74.4197 10.21 67.61 10.21C60.8004 10.21 55.28 15.7304 55.28 22.54C55.28 29.3497 60.8004 34.87 67.61 34.87Z" fill="#FFA195"/>
<path d="M70.1701 79.09C76.9798 79.09 82.5001 73.5697 82.5001 66.76C82.5001 59.9503 76.9798 54.43 70.1701 54.43C63.3604 54.43 57.8401 59.9503 57.8401 66.76C57.8401 73.5697 63.3604 79.09 70.1701 79.09Z" fill="#FFA195"/>
<path d="M23.3901 35.72C30.1997 35.72 35.7201 30.1997 35.7201 23.39C35.7201 16.5803 30.1997 11.06 23.3901 11.06C16.5804 11.06 11.0601 16.5803 11.0601 23.39C11.0601 30.1997 16.5804 35.72 23.3901 35.72Z" fill="#FFA195"/>
<path d="M24.2399 79.09C31.0496 79.09 36.5699 73.5697 36.5699 66.76C36.5699 59.9503 31.0496 54.43 24.2399 54.43C17.4302 54.43 11.9099 59.9503 11.9099 66.76C11.9099 73.5697 17.4302 79.09 24.2399 79.09Z" fill="#FFA195"/>
<path d="M12.33 57.83C19.1397 57.83 24.66 52.3097 24.66 45.5C24.66 38.6903 19.1397 33.17 12.33 33.17C5.52033 33.17 0 38.6903 0 45.5C0 52.3097 5.52033 57.83 12.33 57.83Z" fill="#FFA195"/>
<path d="M79.5199 56.13C86.3296 56.13 91.8499 50.6096 91.8499 43.8C91.8499 36.9903 86.3296 31.47 79.5199 31.47C72.7103 31.47 67.1899 36.9903 67.1899 43.8C67.1899 50.6096 72.7103 56.13 79.5199 56.13Z" fill="#FFA195"/>
<path d="M45.9299 72.72C61.6645 72.72 74.4199 59.9646 74.4199 44.23C74.4199 28.4954 61.6645 15.74 45.9299 15.74C30.1953 15.74 17.4399 28.4954 17.4399 44.23C17.4399 59.9646 30.1953 72.72 45.9299 72.72Z" fill="#FFFCE3" stroke="#FFD68B" stroke-width="1.5"/>
<path d="M33.5 44C35.433 44 37 42.433 37 40.5C37 38.567 35.433 37 33.5 37C31.567 37 30 38.567 30 40.5C30 42.433 31.567 44 33.5 44Z" fill="#FFA195"/>
<path d="M57.5 44C59.433 44 61 42.433 61 40.5C61 38.567 59.433 37 57.5 37C55.567 37 54 38.567 54 40.5C54 42.433 55.567 44 57.5 44Z" fill="#FFA195"/>
<path d="M41 54C41 55.5 42.92 58 46 58C48.31 58 50.62 57 51 54" stroke="#FFA195" stroke-linecap="round"/>
<path d="M47.06 83.22C46.71 83.22 46.35 83.22 46 83.2C26.44 82.62 10.75 65.84 10.75 45.23C10.76 24.25 27.01 7.23999 47.06 7.23999C67.11 7.23999 83.36 24.25 83.36 45.23" stroke="#FF6E6E" stroke-miterlimit="10"/>
<path d="M46.16 87.61C50.2579 87.61 53.58 85.452 53.58 82.79C53.58 80.128 50.2579 77.97 46.16 77.97C42.062 77.97 38.74 80.128 38.74 82.79C38.74 85.452 42.062 87.61 46.16 87.61Z" fill="#FF6E6E"/>
<path d="M14.03 58.52C8.06997 58.52 3.21997 53.67 3.21997 47.71V41.82C3.21997 36.37 7.64997 31.94 13.1 31.94H16.54C17.51 31.94 18.31 32.73 18.31 33.71V56.75C18.31 57.72 17.52 58.52 16.54 58.52H14.04H14.03Z" fill="#FFD68B"/>
<path d="M16.53 32.44C17.23 32.44 17.8 33.01 17.8 33.71V56.75C17.8 57.45 17.23 58.02 16.53 58.02H14.03C8.33996 58.02 3.71996 53.4 3.71996 47.71V41.82C3.71996 36.64 7.91996 32.44 13.1 32.44H16.54M16.53 31.44H13.09C7.36996 31.44 2.70996 36.09 2.70996 41.82V47.71C2.70996 53.95 7.77996 59.02 14.02 59.02H16.52C17.77 59.02 18.79 58 18.79 56.75V33.71C18.79 32.46 17.77 31.44 16.52 31.44H16.53Z" fill="#FF6E6E"/>
<path d="M75.32 58.52C74.35 58.52 73.55 57.73 73.55 56.75V33.71C73.55 32.74 74.34 31.94 75.32 31.94H77.82C83.78 31.94 88.63 36.79 88.63 42.75V48.64C88.63 54.09 84.2 58.52 78.75 58.52H75.31H75.32Z" fill="#FFD68B"/>
<path d="M77.82 32.44C83.51 32.44 88.13 37.06 88.13 42.75V48.64C88.13 53.82 83.93 58.02 78.75 58.02H75.31C74.61 58.02 74.04 57.45 74.04 56.75V33.71C74.04 33.01 74.61 32.44 75.31 32.44H77.81M77.82 31.44H75.32C74.07 31.44 73.05 32.46 73.05 33.71V56.75C73.05 58 74.07 59.02 75.32 59.02H78.76C84.48 59.02 89.14 54.37 89.14 48.64V42.75C89.14 36.51 84.07 31.44 77.83 31.44H77.82Z" fill="#FF6E6E"/>
</g>
<defs>
<clipPath id="clip0_1621_28">
<rect width="91.85" height="88.45" fill="white"/>
</clipPath>
</defs>
</svg>
