<svg width="112" height="113" viewBox="0 0 112 113" fill="none" xmlns="http://www.w3.org/2000/svg">
<path d="M52.7854 2.13477H59.2219C87.4855 2.13477 110.398 25.047 110.398 53.3105V110.923H52.7854C24.5218 110.923 1.60962 88.0107 1.60962 59.7471V53.3105C1.60962 25.047 24.5218 2.13477 52.7854 2.13477Z" fill="white" fill-opacity="0.34" style="mix-blend-mode:plus-lighter"/>
<path d="M52.7854 2.13477H59.2219C87.4855 2.13477 110.398 25.047 110.398 53.3105V110.923H52.7854C24.5218 110.923 1.60962 88.0107 1.60962 59.7471V53.3105C1.60962 25.047 24.5218 2.13477 52.7854 2.13477Z" stroke="white" stroke-width="0.64372"/>
<path d="M83.0981 109.129L108.847 83.0382L108.847 109.372L83.0981 109.129Z" fill="#CDE74A"/>
<g clip-path="url(#clip0_1570_5917)">
<path d="M36.516 29.1874C37.4557 29.1874 38.3283 28.9241 39.0751 28.4728C40.17 29.0286 41.5377 29.3629 43.0186 29.3629C44.4995 29.3629 45.8672 29.0328 46.9621 28.4728C47.7089 28.9241 48.5857 29.1874 49.5212 29.1874C52.2565 29.1874 54.4758 27.8501 54.4758 25.1253C54.4758 22.4005 52.2565 21.4979 49.5212 21.4979C49.4918 21.4979 49.4625 21.4979 49.4331 21.502C48.9255 18.4262 46.2447 16.9468 43.0144 16.9468C39.7841 16.9468 37.1033 18.4221 36.5957 21.502C36.5663 21.502 36.5369 21.4979 36.5076 21.4979C33.7723 21.4979 31.553 22.4005 31.553 25.1253C31.553 27.8501 33.7723 29.1874 36.5076 29.1874H36.516Z" fill="#CDE74A"/>
<path d="M58.6375 21.034C59.4472 21.034 60.2023 20.8041 60.8484 20.4155C61.7923 20.8961 62.9712 21.1802 64.2507 21.1802C65.5303 21.1802 66.7092 20.8961 67.6531 20.4155C68.2992 20.8041 69.0543 21.034 69.864 21.034C72.2259 21.034 74.1389 19.8805 74.1389 17.5277C74.1389 15.1749 72.2259 14.3976 69.864 14.3976C69.8388 14.3976 69.8136 14.3976 69.7885 14.3976C69.3522 11.7439 67.0406 10.4692 64.2507 10.4692C61.4609 10.4692 59.1493 11.7439 58.713 14.3976C58.6878 14.3976 58.6627 14.3976 58.6375 14.3976C56.2756 14.3976 54.3625 15.1749 54.3625 17.5277C54.3625 19.8805 56.2756 21.034 58.6375 21.034Z" fill="#CDE74A"/>
<path d="M37.779 67.7435C38.3327 67.6516 38.9327 67.894 40.2248 67.7477H44.634C44.634 67.6349 44.634 67.5262 44.634 67.4134C44.634 63.226 43.3796 59.8367 43.3796 59.8367C43.3796 59.8367 43.0524 60.7269 42.7294 62.1561C42.6119 62.1854 42.486 62.2146 42.3602 62.2522C42.2091 61.2869 42.0329 60.4385 41.8735 59.749C41.8903 59.7364 41.9029 59.7239 41.9197 59.7072C43.753 57.8809 43.925 55.0935 43.925 55.0935C43.925 55.0935 41.1226 55.2648 39.2934 57.0911C38.5886 57.7931 38.1314 58.6373 37.8335 59.4105C37.8335 59.4105 37.9468 57.02 37.9677 54.4541C38.0055 54.5251 38.0475 54.6003 38.0894 54.6588C39.1172 56.0672 39.843 54.7173 41.2275 53.6767V53.6851C41.2484 53.6726 41.2652 53.66 41.282 53.6475C42.7335 52.5985 44.3487 52.352 43.2957 50.9102C42.6203 49.9824 40.422 49.2218 38.9243 48.7956C38.9494 48.712 38.9704 48.6284 38.983 48.5406C40.4429 49.0756 42.7294 49.7777 43.8411 49.4141C45.5444 48.8624 44.3823 47.7174 43.8285 46.0207C43.8243 46.0039 43.8201 45.9872 43.8159 45.9705L43.7614 45.9872C43.2412 44.3198 43.4719 42.7651 41.7896 43.3084C40.6569 43.6762 39.1928 45.6445 38.3285 46.9275C38.2866 46.8941 38.2446 46.8648 38.1985 46.8356C39.1592 45.6153 40.5436 43.6637 40.5436 42.4935C40.5436 40.709 39.0921 41.4571 37.2965 41.4571C37.2671 41.4571 37.242 41.4571 37.2168 41.4571C35.459 41.4362 34.0494 40.7383 34.0494 42.4977C34.0494 43.6637 35.4296 45.6153 36.3903 46.8356C36.3358 46.869 36.2896 46.9066 36.2393 46.9442C35.3835 45.6613 33.89 43.6386 32.7405 43.2666C31.0372 42.715 31.3015 44.3239 30.7477 46.0207C30.7393 46.0457 30.7309 46.0708 30.7226 46.0959C30.1604 47.7508 29.057 48.875 30.7351 49.4183C31.8469 49.7777 34.1375 49.0756 35.5974 48.5406C35.61 48.6117 35.6226 48.6827 35.6436 48.7538C34.1459 49.1842 31.956 49.9406 31.2805 50.8684C30.2275 52.3144 31.8427 52.5568 33.2942 53.6099C33.3152 53.6266 33.3362 53.6391 33.353 53.6559L33.3152 53.7102C34.7206 54.7549 35.4464 56.1424 36.4826 54.7173C36.5623 54.6087 36.6295 54.4749 36.6924 54.3329C36.7134 57.0618 36.8434 59.6821 36.8434 59.6821C36.5498 58.8421 36.0715 57.8809 35.287 57.0994C33.4579 55.2732 30.6554 55.106 30.6554 55.106C30.6554 55.106 30.8274 57.8934 32.6566 59.7197C32.8244 59.8869 33.0048 60.0415 33.1852 60.1836C33.0425 60.8313 32.8957 61.5919 32.7656 62.4403C32.472 62.3358 32.1909 62.2522 31.935 62.1895C31.6959 61.1615 31.4609 60.5221 31.4609 60.5221C31.4609 60.5221 31.2512 61.0904 31.0288 62.014C30.7939 61.9806 30.6512 61.9722 30.6512 61.9722C30.6512 61.9722 30.6764 62.3943 30.8149 63.0086C30.6512 63.9071 30.517 64.9895 30.517 66.1555C30.517 66.7155 30.5296 67.2546 30.5547 67.7644H32.3587C32.3713 67.5388 32.3797 67.3006 32.3839 67.0624C32.3839 67.1376 32.3839 67.217 32.3839 67.2922C32.3839 67.451 32.3839 67.6056 32.3839 67.7603H34.3431C35.7401 67.9567 36.2435 67.685 36.7847 67.7644M35.2366 61.2534C35.1192 61.5794 34.9765 62.0015 34.8423 62.4988C34.7626 61.9597 34.6745 61.4582 34.5822 60.9943C34.8045 61.0946 35.0227 61.1782 35.2366 61.2534ZM32.3965 66.2892C32.3965 66.3645 32.3965 66.4439 32.3923 66.5233C32.3923 66.4439 32.3923 66.3645 32.3923 66.285L32.3965 66.2892ZM36.8392 66.5316C36.8266 66.494 36.8099 66.4522 36.7973 66.4146C36.7889 64.3334 36.2813 62.5113 35.9163 61.4582C36.2813 61.5543 36.6043 61.6128 36.8392 61.6504V66.5316ZM40.6275 60.6684C40.4765 61.4081 40.3255 62.2689 40.2038 63.2134C39.885 63.4224 39.5745 63.6648 39.2851 63.9489C39.1424 64.091 39.0208 64.2415 38.8949 64.3919C38.5803 63.0128 38.1901 62.1143 38.1901 62.1143C38.1901 62.1143 38.0265 62.4946 37.8251 63.1382V61.6337C38.4586 61.5292 39.5619 61.2701 40.6233 60.6684H40.6275Z" fill="#CDE74A"/>
<path d="M82.4707 59.8368C82.4707 59.8368 82.026 61.4415 81.8037 63.7233C81.4093 61.8386 80.5996 60.5054 80.5996 60.5054C80.5996 60.5054 80.5787 60.5389 80.5409 60.6015C80.3983 59.6111 80.285 59.0302 80.285 59.0302C80.285 59.0302 80.0417 60.263 79.8235 62.2063C79.7899 62.2983 79.7606 62.386 79.727 62.4821C79.4711 61.2744 79.1858 60.5054 79.1858 60.5054C79.1858 60.5054 78.2461 63.0296 78.2461 66.1388C78.2461 66.6988 78.2587 67.2379 78.2838 67.7478H83.2258C83.2426 67.2338 83.251 66.6947 83.251 66.1388C83.251 62.6577 82.4665 59.8326 82.4665 59.8326L82.4707 59.8368Z" fill="#CDE74A"/>
<path d="M88.4363 61.312C88.4363 61.312 87.8868 62.4905 87.5637 64.2039C87.312 62.0475 86.7415 60.5054 86.7415 60.5054C86.7415 60.5054 86.2045 61.9389 85.9402 63.9741C85.8772 64.2666 85.8017 64.6469 85.7304 65.0982C85.5584 61.6171 84.992 59.0302 84.992 59.0302C84.992 59.0302 84.4131 61.6714 84.2495 65.2111C84.0733 64.0577 83.8677 63.3221 83.8677 63.3221C83.8677 63.3221 83.3307 65.2529 83.2468 67.7478H89.4977C89.5145 67.3591 89.5271 66.9579 89.5271 66.54C89.5271 63.6523 88.428 61.3078 88.428 61.3078L88.4363 61.312Z" fill="#CDE74A"/>
<path d="M63.8986 62.2606C63.4665 59.6654 62.5436 57.8224 62.5436 57.8224C62.5436 57.8224 61.3143 60.2755 61.0333 63.5143C60.8109 62.6451 60.6054 62.1143 60.6054 62.1143C60.6054 62.1143 60.1732 63.226 59.8838 64.8809C59.7369 63.5645 59.502 62.4152 59.2839 61.546C59.5901 61.3412 59.8922 61.1114 60.169 60.8355C62.0485 58.9675 62.2247 56.1048 62.2247 56.1048C62.2247 56.1048 59.3552 56.2803 57.4757 58.1526C56.7541 58.8714 56.2842 59.7364 55.978 60.5305V55.783C56.9051 55.6326 58.7972 55.1729 60.169 53.8063C62.0485 51.9341 62.2247 49.0756 62.2247 49.0756C62.2247 49.0756 59.3552 49.2511 57.4757 51.1233C56.7541 51.8421 56.2842 52.7072 55.978 53.5012C55.978 53.5012 56.0955 51.0481 56.1164 48.4195C56.1584 48.4947 56.1961 48.5699 56.2423 48.6326C57.2953 50.0786 58.0421 48.6911 59.4601 47.6254V47.6338C59.481 47.6213 59.4978 47.6087 59.5146 47.5962C60.9997 46.5222 62.661 46.2672 61.5786 44.7878C60.8864 43.8392 58.6336 43.0577 57.0981 42.6189C57.1233 42.5353 57.1443 42.4476 57.1611 42.3556C58.6588 42.9031 61.0039 43.6219 62.1408 43.2541C63.886 42.6899 62.6946 41.5156 62.1282 39.7729C62.124 39.7562 62.1198 39.7395 62.1156 39.7228L62.0569 39.7395C61.5241 38.0303 61.759 36.438 60.039 36.9938C58.8769 37.37 57.375 39.3885 56.494 40.7049C56.4521 40.6714 56.4059 40.638 56.3598 40.6088C57.3456 39.3592 58.7636 37.3574 58.7636 36.158C58.7636 34.3276 57.2743 35.0924 55.4368 35.0924C55.4074 35.0924 55.3823 35.0924 55.3529 35.0924C53.5531 35.0715 52.1058 34.3527 52.1058 36.158C52.1058 37.3533 53.5196 39.355 54.5055 40.6046C54.4509 40.638 54.4006 40.6756 54.3502 40.7132C53.4734 39.3968 51.9422 37.324 50.7633 36.9437C49.0139 36.3795 49.2866 38.0261 48.7202 39.7688C48.7118 39.7938 48.7034 39.8189 48.6909 39.844C48.1161 41.5407 46.9834 42.6899 48.7034 43.2499C49.8445 43.6177 52.1897 42.8989 53.6874 42.3514C53.7 42.4267 53.7126 42.4977 53.7335 42.5688C52.1981 43.0076 49.9494 43.789 49.2614 44.7335C48.179 46.2129 49.8404 46.4678 51.3255 47.5419C51.3464 47.5586 51.3674 47.5711 51.3884 47.5878L51.3506 47.6422C52.7896 48.712 53.5364 50.1329 54.602 48.6786C54.6817 48.5699 54.753 48.432 54.8159 48.2857C54.8369 51.0815 54.9711 53.7687 54.9711 53.7687C54.6733 52.9078 54.1824 51.9215 53.3727 51.1233C51.4975 49.2511 48.6237 49.0756 48.6237 49.0756C48.6237 49.0756 48.7999 51.9341 50.6794 53.8063C52.1016 55.223 54.0859 55.666 54.9711 55.7997V57.8976C54.8872 58.0732 54.6355 58.6248 54.3586 59.4481C54.0985 58.9967 53.7755 58.5538 53.3769 58.1567C51.5017 56.2845 48.6279 56.109 48.6279 56.109C48.6279 56.109 48.8041 58.9173 50.6374 60.7896C50.5326 61.1615 50.4067 61.6296 50.285 62.177C50.113 61.6296 49.983 61.312 49.983 61.312C49.983 61.312 48.8167 64.1579 48.7328 67.7519H53.4483C53.3895 65.2737 52.819 63.1508 52.4666 62.0725C52.8609 62.2606 53.2553 62.4069 53.6161 62.5197C53.507 63.2343 53.4399 64.0033 53.4399 64.8015C53.4399 65.8546 53.4902 66.8576 53.5867 67.7519H65.0733C65.0733 64.6427 63.9741 62.1185 63.9741 62.1185C63.9741 62.1185 63.949 62.1728 63.9154 62.2648L63.8986 62.2606ZM51.703 62.7621C51.6065 62.2731 51.5059 61.8343 51.4052 61.454C51.5982 61.5919 51.7953 61.7173 51.9925 61.8302C51.9128 62.0684 51.8079 62.3818 51.703 62.7621ZM56.4185 62.7287C56.6241 62.6869 56.8548 62.6242 57.1023 62.5531C56.9261 63.1508 56.7247 63.9406 56.5653 64.8558C56.5653 64.8349 56.5653 64.814 56.5653 64.7931C56.5653 64.0743 56.5108 63.3764 56.4227 62.7245L56.4185 62.7287ZM57.8617 62.2982C57.9456 62.2648 58.0337 62.223 58.1218 62.1854C58.0798 62.3693 58.0421 62.5615 58.0001 62.7579C57.954 62.5908 57.9078 62.4361 57.8617 62.294V62.2982Z" fill="#CDE74A"/>
<path d="M47.1592 57.8224C47.1592 57.8224 46.2363 59.6654 45.8042 62.2648C45.7664 62.1687 45.7412 62.1144 45.7412 62.1144C45.7412 62.1144 44.6421 64.6344 44.6421 67.7478H48.5772C48.6695 66.8493 48.7241 65.8505 48.7241 64.7973C48.7241 60.9442 47.155 57.8224 47.155 57.8224H47.1592Z" fill="#CDE74A"/>
<path d="M29.875 62.2063C29.6611 60.2672 29.4136 59.0302 29.4136 59.0302C29.4136 59.0302 29.3003 59.6153 29.1576 60.6015C29.1241 60.5389 29.0989 60.5054 29.0989 60.5054C29.0989 60.5054 28.1424 62.0768 27.8026 64.2206C27.4502 62.9377 27.0432 62.1144 27.0432 62.1144C27.0432 62.1144 25.7847 64.6344 25.7847 67.7478H30.391C30.4666 67.1126 30.5085 66.4105 30.5085 65.6666C30.5085 64.3335 30.1981 63.1215 29.8708 62.2021L29.875 62.2063Z" fill="#CDE74A"/>
<path d="M24.2237 62.0767C24.0517 61.592 23.9217 61.312 23.9217 61.312C23.9217 61.312 22.8225 63.6523 22.8225 66.5442C22.8225 66.9579 22.8309 67.3633 22.8519 67.7519H25.4907C25.4907 67.5096 25.4907 67.263 25.4907 67.0164C25.4907 62.6075 24.7062 59.0344 24.7062 59.0344C24.7062 59.0344 24.4461 60.2296 24.2237 62.0809V62.0767Z" fill="#CDE74A"/>
<path d="M77.1427 26.0113C77.2895 25.4763 77.3525 24.9247 77.3147 24.5736C77.2308 23.7086 76.4589 23.0775 75.5947 23.1611C74.7262 23.2447 74.0928 24.0137 74.1767 24.8787C74.206 25.1963 74.3487 25.656 74.5542 26.1116C74.4242 26.0321 74.2522 26.053 74.1515 26.1742C74.0466 26.2996 74.0634 26.4793 74.1767 26.588C73.6858 26.471 73.195 26.4208 72.8761 26.4501C72.0077 26.5336 71.3742 27.3026 71.4581 28.1635C71.542 29.0286 72.314 29.6596 73.1782 29.576C73.5306 29.5426 74.0592 29.3754 74.5626 29.1289C74.55 29.2709 74.5458 29.4005 74.5584 29.5008C74.6214 30.1277 75.1751 30.5832 75.8044 30.5247C76.4337 30.4662 76.891 29.9103 76.8323 29.2835C76.8071 29.0453 76.698 28.69 76.5386 28.3474C76.6938 28.41 76.8239 28.4435 76.8658 28.3933C76.9036 28.3474 76.8532 28.2262 76.7651 28.0924C77.1301 28.1844 77.4951 28.222 77.73 28.1969C78.3593 28.1384 78.8166 27.5826 78.7579 26.9557C78.6949 26.333 78.1412 25.8733 77.5119 25.9319C77.407 25.9402 77.2811 25.9695 77.1469 26.0071L77.1427 26.0113Z" fill="#CDE74A"/>
<path d="M27.3157 37.9384C27.2276 38.0805 27.1772 38.2058 27.2192 38.256C27.2611 38.3019 27.387 38.2685 27.5338 38.2058C27.387 38.5485 27.2905 38.9037 27.2779 39.1378C27.2402 39.7646 27.7184 40.3037 28.3477 40.3413C28.977 40.379 29.5182 39.9025 29.5559 39.2757C29.5601 39.1712 29.5559 39.0416 29.5392 38.9037C30.0468 39.1294 30.5838 39.2799 30.9362 39.3008C31.8046 39.3551 32.5555 38.6948 32.6101 37.8297C32.6646 36.9646 32.0018 36.2166 31.1334 36.1623C30.8145 36.1414 30.3363 36.2082 29.8538 36.342C29.9545 36.2249 29.9587 36.0536 29.8538 35.9366C29.7447 35.8154 29.5685 35.8029 29.4385 35.8948C29.6357 35.4309 29.7615 34.9545 29.7783 34.6369C29.8328 33.7718 29.17 33.0238 28.3016 32.9694C27.4331 32.9151 26.6822 33.5754 26.6277 34.4405C26.6067 34.7915 26.6864 35.339 26.85 35.8739C26.7116 35.8405 26.5857 35.8154 26.4808 35.8112C25.8515 35.7736 25.3104 36.25 25.2726 36.8769C25.2348 37.5037 25.7131 38.0428 26.3424 38.0805C26.5857 38.0972 26.9507 38.0428 27.3199 37.9384H27.3157Z" fill="#CDE74A"/>
<path d="M73.0691 67.7478H76.3623C76.3623 66.4857 76.1568 65.3239 75.9093 64.3878C76.2113 64.2207 76.5092 64.0284 76.7944 63.7986C76.7147 64.7807 76.6644 65.8672 76.6644 67.0123C76.6644 67.2588 76.6644 67.5054 76.6644 67.7478H78.225C78.225 67.5054 78.2292 67.2588 78.2292 67.0123C78.2292 65.3448 78.116 63.7944 77.9775 62.5156C79.1857 60.7395 79.32 58.6499 79.32 58.6499C79.32 58.6499 78.4977 58.7043 77.4447 59.0344C76.5301 59.3228 75.4394 59.8243 74.5668 60.6977C74.4871 60.7771 74.4199 60.8648 74.3486 60.9484C74.2395 60.6684 74.164 60.5096 74.164 60.5096C74.164 60.5096 73.9375 60.9986 73.6732 61.8135C73.3963 61.124 73.1404 60.6643 73.0691 60.5431V58.324C73.9962 58.1735 75.8925 57.7138 77.2643 56.3473C79.1438 54.475 79.32 51.6124 79.32 51.6124C79.32 51.6124 76.4462 51.7879 74.5668 53.6601C73.8452 54.3789 73.3753 55.244 73.0691 56.038C73.0691 56.038 73.1865 53.5849 73.2075 50.9521C73.2495 51.0273 73.2872 51.1025 73.3334 51.1652C74.3906 52.6112 75.1331 51.2237 76.5553 50.1539V50.1622C76.5763 50.1497 76.5931 50.1371 76.6099 50.1246C78.0992 49.0464 79.7563 48.7956 78.6781 47.3121C77.9859 46.3634 75.7289 45.5819 74.1934 45.1431C74.2186 45.0595 74.2395 44.9718 74.2563 44.8798C75.754 45.4273 78.1034 46.1461 79.2445 45.7784C80.9939 45.2142 79.7982 44.0357 79.2319 42.293C79.2277 42.2763 79.2235 42.2596 79.2151 42.2428L79.1564 42.2596C78.6236 40.5461 78.8585 38.9539 77.1343 39.5139C75.9722 39.89 74.4661 41.9085 73.5851 43.2291C73.5431 43.1957 73.497 43.1622 73.4508 43.133C74.4367 41.8834 75.8547 39.8775 75.8547 38.6781C75.8547 36.8435 74.3612 37.6124 72.5237 37.6124C72.4943 37.6124 72.4691 37.6124 72.4398 37.6124C70.6358 37.5915 69.1885 36.8727 69.1885 38.6781C69.1885 39.8733 70.6065 41.8751 71.5881 43.1288C71.5336 43.1622 71.4833 43.1999 71.4329 43.2375C70.5561 41.9211 69.0207 39.844 67.8418 39.4638C66.0924 38.8954 66.3651 40.5461 65.7945 42.2888C65.7861 42.3139 65.7777 42.339 65.7651 42.364C65.1862 44.0649 64.0535 45.2142 65.7777 45.7742C66.9188 46.1419 69.2682 45.4231 70.7659 44.8757C70.7785 44.9509 70.7911 45.0219 70.812 45.093C69.2766 45.5318 67.0237 46.3133 66.3357 47.2619C65.2533 48.7455 66.9146 48.9962 68.404 50.0745C68.4249 50.0912 68.4459 50.1037 68.4669 50.1204L68.4249 50.1747C69.8639 51.2488 70.6149 52.6697 71.6762 51.2112C71.756 51.0983 71.8273 50.9646 71.8902 50.8183C71.9112 53.6183 72.0454 56.3055 72.0454 56.3055C71.7476 55.4446 71.2567 54.4583 70.447 53.6559C68.5676 51.7837 65.6938 51.6082 65.6938 51.6082C65.6938 51.6082 65.87 54.4708 67.7495 56.3431C69.1717 57.7598 71.1602 58.2028 72.0454 58.3365V62.8875C72.0203 62.9711 71.9951 63.0589 71.9741 63.1466C71.6679 62.3317 71.198 61.4332 70.447 60.6935C69.9478 60.1962 69.3814 59.8243 68.8151 59.5359C68.555 58.4577 68.3452 57.8225 68.3452 57.8225C68.3452 57.8225 68.1816 58.3114 67.9677 59.164C66.7343 58.7084 65.6938 58.6416 65.6938 58.6416C65.6938 58.6416 65.7693 59.8368 66.3273 61.1825C65.9581 62.1813 65.3498 64.1705 65.3498 66.469C65.3498 66.9078 65.3582 67.3341 65.3792 67.7436H69.759C69.759 67.589 69.759 67.4302 69.759 67.2756C69.759 66.3687 69.7171 65.4911 69.6458 64.6595C69.7297 64.6971 69.8094 64.7347 69.8933 64.7681C69.8136 65.3198 69.759 65.9132 69.759 66.5359C69.759 66.9496 69.7716 67.355 69.7884 67.7436H72.0454" fill="#CDE74A"/>
</g>
<path d="M28.9653 73.6161C30.1662 73.61 31.2147 73.738 32.1108 74.0001C33.0068 74.2623 33.6957 74.6402 34.1772 75.134C34.6588 75.6277 34.8996 76.2129 34.8996 76.8896C34.8996 77.5601 34.6588 78.1423 34.1772 78.636C33.6957 79.1237 33.0068 79.4986 32.1108 79.7607C31.2147 80.0228 30.1662 80.1539 28.9653 80.1539C27.7583 80.1539 26.7068 80.0228 25.8107 79.7607C24.9146 79.4986 24.2197 79.1237 23.7259 78.636C23.2383 78.1423 22.9944 77.5601 22.9944 76.8896C22.9944 76.2129 23.2383 75.6277 23.7259 75.134C24.2197 74.6402 24.9146 74.2623 25.8107 74.0001C26.7068 73.738 27.7583 73.61 28.9653 73.6161ZM28.9653 75.2254C28.1546 75.2254 27.4596 75.2894 26.8805 75.4174C26.3014 75.5454 25.8595 75.7344 25.5547 75.9843C25.256 76.2343 25.1066 76.536 25.1066 76.8896C25.1066 77.237 25.256 77.5388 25.5547 77.7948C25.8595 78.0447 26.3014 78.2368 26.8805 78.3709C27.4657 78.4989 28.1607 78.5659 28.9653 78.572C29.7578 78.5659 30.4435 78.4989 31.0226 78.3709C31.6017 78.2368 32.0437 78.0447 32.3485 77.7948C32.6594 77.5388 32.8148 77.237 32.8148 76.8896C32.8148 76.536 32.6624 76.2343 32.3576 75.9843C32.0528 75.7344 31.6109 75.5454 31.0318 75.4174C30.4588 75.2894 29.77 75.2254 28.9653 75.2254ZM36.4906 83.089H21.44V81.4797H36.4906V83.089ZM29.962 81.9644H27.9229V79.4498H29.962V81.9644ZM34.6527 89.7731H32.6137V86.0059H23.1042V84.3966H34.6527V89.7731ZM43.9976 85.1098H41.9586V81.5072H43.9976V85.1098ZM42.9827 74.2745C43.8544 74.2745 44.6316 74.4451 45.3143 74.7865C46.0032 75.1218 46.5426 75.5942 46.9328 76.2038C47.3229 76.8073 47.518 77.4961 47.518 78.2703C47.518 79.0445 47.3229 79.7333 46.9328 80.3368C46.5426 80.9342 46.0032 81.4035 45.3143 81.7449C44.6316 82.0863 43.8544 82.257 42.9827 82.257C42.1293 82.257 41.3551 82.0863 40.6602 81.7449C39.9652 81.4035 39.4197 80.9342 39.0234 80.3368C38.6333 79.7333 38.4382 79.0445 38.4382 78.2703C38.4382 77.4961 38.6333 76.8073 39.0234 76.2038C39.4197 75.5942 39.9652 75.1218 40.6602 74.7865C41.3551 74.4451 42.1293 74.2745 42.9827 74.2745ZM42.9827 76.0301C42.5011 76.0301 42.0683 76.1215 41.6843 76.3044C41.3002 76.4812 40.9985 76.7402 40.779 77.0816C40.5596 77.423 40.4499 77.8192 40.4499 78.2703C40.4499 78.7214 40.5596 79.1176 40.779 79.459C40.9985 79.7942 41.3002 80.0533 41.6843 80.2362C42.0683 80.4191 42.5011 80.5105 42.9827 80.5105C43.4764 80.5105 43.9153 80.4191 44.2994 80.2362C44.6834 80.0533 44.9821 79.7942 45.1955 79.459C45.4149 79.1176 45.5246 78.7214 45.5246 78.2703C45.5246 77.8192 45.4149 77.423 45.1955 77.0816C44.9821 76.7402 44.6834 76.4812 44.2994 76.3044C43.9153 76.1215 43.4764 76.0301 42.9827 76.0301ZM51.3766 89.8188H49.365V73.2595H51.3766V89.8188ZM37.6884 84.7166C39.0051 84.7166 40.2182 84.7044 41.3277 84.68C42.4432 84.6557 43.6197 84.6069 44.8571 84.5337C46.0946 84.4545 47.265 84.3326 48.3683 84.168L48.5238 85.6401C47.3839 85.8535 46.2013 86.015 44.976 86.1248C43.7568 86.2284 42.6108 86.2954 41.538 86.3259C40.4712 86.3564 39.2734 86.3747 37.9445 86.3808L37.6884 84.7166ZM70.6242 79.0384H67.2593V77.3833H70.6242V79.0384ZM72.1055 83.089H70.0756V73.2595H72.1055V83.089ZM66.5187 83.5005C67.6891 83.5005 68.6949 83.6255 69.5361 83.8754C70.3834 84.1192 71.0326 84.4789 71.4837 84.9544C71.9348 85.4237 72.1604 85.9876 72.1604 86.646C72.1604 87.3043 71.9348 87.8682 71.4837 88.3375C71.0326 88.8069 70.3834 89.1635 69.5361 89.4074C68.6949 89.6573 67.6891 89.7884 66.5187 89.8005C65.3605 89.7884 64.3577 89.6573 63.5104 89.4074C62.6692 89.1635 62.02 88.8069 61.5628 88.3375C61.1117 87.8682 60.8861 87.3043 60.8861 86.646C60.8861 85.9876 61.1117 85.4237 61.5628 84.9544C62.02 84.4789 62.6692 84.1192 63.5104 83.8754C64.3577 83.6255 65.3605 83.5005 66.5187 83.5005ZM66.5187 85.0549C65.7567 85.0549 65.1045 85.1159 64.5619 85.2378C64.0194 85.3536 63.6079 85.5304 63.3275 85.7682C63.0471 86.0059 62.9069 86.2985 62.9069 86.646C62.9069 86.9751 63.0471 87.2586 63.3275 87.4963C63.6079 87.7341 64.0194 87.9169 64.5619 88.0449C65.1045 88.1669 65.7567 88.2278 66.5187 88.2278C67.2929 88.2278 67.9482 88.1669 68.4846 88.0449C69.0271 87.9169 69.4355 87.7341 69.7099 87.4963C69.9903 87.2586 70.1305 86.9751 70.1305 86.646C70.1305 86.2985 69.9903 86.0059 69.7099 85.7682C69.4355 85.5304 69.0271 85.3536 68.4846 85.2378C67.9482 85.1159 67.2929 85.0549 66.5187 85.0549ZM63.931 76.1032C63.931 77.1456 63.7481 78.1301 63.3824 79.0566C63.0227 79.9771 62.4924 80.7848 61.7914 81.4797C61.0964 82.1747 60.2583 82.6959 59.2768 83.0433L58.2162 81.4249C59.0818 81.1262 59.8194 80.7025 60.4289 80.1539C61.0385 79.5992 61.4957 78.9713 61.8005 78.2703C62.1114 77.5693 62.2668 76.8469 62.2668 76.1032V74.9237H63.931V76.1032ZM64.3333 76.0849C64.3333 76.7738 64.4796 77.4382 64.7722 78.0783C65.0709 78.7183 65.5129 79.2944 66.0981 79.8064C66.6894 80.3124 67.3965 80.7086 68.2194 80.9951L67.2045 82.6044C66.2413 82.2752 65.4214 81.7845 64.7448 81.1323C64.0682 80.4739 63.5531 79.7119 63.1995 78.8463C62.852 77.9746 62.6783 77.0542 62.6783 76.0849V74.9237H64.3333V76.0849ZM67.7622 75.9843H58.8196V74.3293H67.7622V75.9843ZM80.975 85.3201H78.9359V81.6626H80.975V85.3201ZM88.3082 85.7773H86.2783V73.2778H88.3082V85.7773ZM88.6923 89.4805H76.5677V87.8164H88.6923V89.4805ZM78.6067 88.2644H76.5677V84.5703H78.6067V88.2644ZM74.3732 80.7117C76.6347 80.6934 78.5915 80.6568 80.2435 80.6019C81.9015 80.541 83.4986 80.413 85.0348 80.2179L85.1445 81.6809C83.5413 81.943 81.8588 82.1198 80.0972 82.2112C78.3355 82.2966 76.5098 82.3362 74.62 82.3301L74.3732 80.7117ZM86.7538 84.3326H83.0232V82.9244H86.7538V84.3326ZM79.7588 73.8813C80.5574 73.8752 81.2676 73.9941 81.8893 74.2379C82.5111 74.4817 82.9957 74.8292 83.3432 75.2803C83.6967 75.7253 83.8735 76.2343 83.8735 76.8073C83.8735 77.3925 83.6967 77.9015 83.3432 78.3343C82.9957 78.7671 82.5111 79.1054 81.8893 79.3492C81.2736 79.587 80.5635 79.7058 79.7588 79.7058C78.9542 79.7058 78.2379 79.587 77.6101 79.3492C76.9883 79.1054 76.5037 78.7671 76.1562 78.3343C75.8087 77.9015 75.635 77.3925 75.635 76.8073C75.635 76.2343 75.8087 75.7253 76.1562 75.2803C76.5037 74.8292 76.9883 74.4817 77.6101 74.2379C78.2379 73.9941 78.9542 73.8752 79.7588 73.8813ZM79.7588 75.3809C79.326 75.3748 78.942 75.4296 78.6067 75.5454C78.2715 75.6552 78.0124 75.8198 77.8295 76.0392C77.6527 76.2587 77.5643 76.5147 77.5643 76.8073C77.5643 77.0938 77.6527 77.3468 77.8295 77.5662C78.0124 77.7857 78.2715 77.9533 78.6067 78.0691C78.942 78.1788 79.326 78.2337 79.7588 78.2337C80.1855 78.2337 80.5635 78.1788 80.8927 78.0691C81.2218 77.9533 81.4779 77.7857 81.6607 77.5662C81.8436 77.3468 81.935 77.0938 81.935 76.8073C81.935 76.5147 81.8406 76.2587 81.6516 76.0392C81.4687 75.8198 81.2127 75.6552 80.8835 75.5454C80.5604 75.4296 80.1855 75.3748 79.7588 75.3809Z" fill="#CDE74A"/>
<defs>
<clipPath id="clip0_1570_5917">
<rect width="66.7128" height="57.3496" fill="white" transform="translate(22.8225 10.4734)"/>
</clipPath>
</defs>
</svg>
