<svg width="102" height="102" viewBox="0 0 102 102" fill="none" xmlns="http://www.w3.org/2000/svg">
<path d="M48.1279 2.04907H53.9219C79.3589 2.0492 99.9794 22.6696 99.9795 48.1067V99.9583H48.1279C22.6909 99.9582 2.07047 79.3377 2.07031 53.9006V48.1067C2.07039 22.6696 22.6908 2.04918 48.1279 2.04907Z" fill="white" fill-opacity="0.34" style="mix-blend-mode:plus-lighter"/>
<path d="M48.1279 2.04907H53.9219C79.3589 2.0492 99.9794 22.6696 99.9795 48.1067V99.9583H48.1279C22.6909 99.9582 2.07047 79.3377 2.07031 53.9006V48.1067C2.07039 22.6696 22.6908 2.04918 48.1279 2.04907Z" stroke="white" stroke-width="0.579348"/>
<path d="M75.4099 98.3435L98.5838 74.8622L98.5838 98.5628L75.4099 98.3435Z" fill="#CDE74A"/>
<g clip-path="url(#clip0_1570_5917)">
<path d="M33.486 26.3964C34.3317 26.3964 35.1171 26.1595 35.7892 25.7533C36.7746 26.2535 38.0055 26.5544 39.3383 26.5544C40.6712 26.5544 41.902 26.2573 42.8875 25.7533C43.5596 26.1595 44.3487 26.3964 45.1907 26.3964C47.6525 26.3964 49.6498 25.1929 49.6498 22.7406C49.6498 20.2883 47.6525 19.4759 45.1907 19.4759C45.1643 19.4759 45.1378 19.4759 45.1114 19.4796C44.6545 16.7114 42.2419 15.3799 39.3346 15.3799C36.4273 15.3799 34.0146 16.7076 33.5577 19.4796C33.5313 19.4796 33.5048 19.4759 33.4784 19.4759C31.0166 19.4759 29.0193 20.2883 29.0193 22.7406C29.0193 25.1929 31.0166 26.3964 33.4784 26.3964H33.486Z" fill="#CDE74A"/>
<path d="M53.3953 19.0584C54.124 19.0584 54.8037 18.8515 55.3851 18.5017C56.2347 18.9342 57.2956 19.19 58.4472 19.19C59.5988 19.19 60.6598 18.9342 61.5093 18.5017C62.0908 18.8515 62.7704 19.0584 63.4991 19.0584C65.6249 19.0584 67.3466 18.0203 67.3466 15.9027C67.3466 13.7852 65.6249 13.0856 63.4991 13.0856C63.4765 13.0856 63.4538 13.0856 63.4312 13.0856C63.0385 10.6973 60.9581 9.55011 58.4472 9.55011C55.9364 9.55011 53.856 10.6973 53.4633 13.0856C53.4406 13.0856 53.418 13.0856 53.3953 13.0856C51.2696 13.0856 49.5479 13.7852 49.5479 15.9027C49.5479 18.0203 51.2696 19.0584 53.3953 19.0584Z" fill="#CDE74A"/>
<path d="M34.6226 61.097C35.121 61.0142 35.661 61.2324 36.8239 61.1007H40.7922C40.7922 60.9992 40.7922 60.9014 40.7922 60.7998C40.7922 57.0311 39.6632 53.9808 39.6632 53.9808C39.6632 53.9808 39.3687 54.7819 39.078 56.0683C38.9723 56.0946 38.859 56.1209 38.7457 56.1548C38.6098 55.2859 38.4512 54.5224 38.3078 53.9018C38.3229 53.8906 38.3342 53.8793 38.3493 53.8642C39.9993 52.2206 40.1541 49.7119 40.1541 49.7119C40.1541 49.7119 37.6319 49.8661 35.9857 51.5097C35.3514 52.1416 34.9398 52.9014 34.6717 53.5972C34.6717 53.5972 34.7737 51.4458 34.7926 49.1364C34.8265 49.2004 34.8643 49.2681 34.9021 49.3207C35.8271 50.5882 36.4803 49.3734 37.7263 48.4368V48.4444C37.7452 48.4331 37.7603 48.4218 37.7754 48.4105C39.0818 47.4665 40.5354 47.2445 39.5877 45.9469C38.9798 45.112 37.0014 44.4274 35.6534 44.0438C35.6761 43.9686 35.695 43.8933 35.7063 43.8144C37.0202 44.2958 39.078 44.9277 40.0786 44.6004C41.6115 44.104 40.5656 43.0734 40.0672 41.5464C40.0635 41.5313 40.0597 41.5163 40.0559 41.5012L40.0068 41.5163C39.5386 40.0156 39.7463 38.6164 38.2322 39.1054C37.2128 39.4363 35.8951 41.2079 35.1173 42.3625C35.0795 42.3325 35.0418 42.3061 35.0002 42.2798C35.8649 41.1815 37.1108 39.4251 37.1108 38.3719C37.1108 36.7659 35.8044 37.4392 34.1884 37.4392C34.162 37.4392 34.1394 37.4392 34.1167 37.4392C32.5347 37.4204 31.266 36.7922 31.266 38.3757C31.266 39.4251 32.5082 41.1815 33.3729 42.2798C33.3238 42.3099 33.2823 42.3437 33.237 42.3776C32.4667 41.2229 31.1226 39.4025 30.088 39.0677C28.5551 38.5713 28.7929 40.0193 28.2945 41.5464C28.287 41.5689 28.2794 41.5915 28.2719 41.6141C27.7659 43.1035 26.7729 44.1152 28.2832 44.6042C29.2838 44.9277 31.3453 44.2958 32.6593 43.8144C32.6706 43.8783 32.6819 43.9422 32.7008 44.0062C31.3529 44.3936 29.3819 45.0744 28.7741 45.9093C27.8263 47.2107 29.28 47.4288 30.5864 48.3767C30.6053 48.3917 30.6242 48.403 30.6393 48.418L30.6053 48.4669C31.8701 49.4072 32.5233 50.6559 33.456 49.3734C33.5277 49.2756 33.5881 49.1552 33.6447 49.0273C33.6636 51.4834 33.7807 53.8417 33.7807 53.8417C33.5164 53.0857 33.0859 52.2206 32.3799 51.5172C30.7337 49.8736 28.2115 49.7232 28.2115 49.7232C28.2115 49.7232 28.3663 52.2319 30.0125 53.8755C30.1635 54.026 30.3259 54.1651 30.4882 54.293C30.3599 54.876 30.2277 55.5605 30.1107 56.324C29.8464 56.23 29.5934 56.1548 29.3631 56.0984C29.1479 55.1731 28.9364 54.5977 28.9364 54.5977C28.9364 54.5977 28.7476 55.1092 28.5475 55.9404C28.3361 55.9103 28.2077 55.9028 28.2077 55.9028C28.2077 55.9028 28.2304 56.2827 28.355 56.8356C28.2077 57.6442 28.0869 58.6184 28.0869 59.6677C28.0869 60.1717 28.0982 60.6569 28.1209 61.1158H29.7444C29.7557 60.9127 29.7633 60.6983 29.7671 60.4839C29.7671 60.5516 29.7671 60.6231 29.7671 60.6908C29.7671 60.8337 29.7671 60.9728 29.7671 61.112H31.5303C32.7876 61.2888 33.2407 61.0443 33.7278 61.1158M32.3346 55.2559C32.2288 55.5492 32.1005 55.9291 31.9796 56.3767C31.9079 55.8915 31.8286 55.4402 31.7455 55.0227C31.9457 55.1129 32.142 55.1882 32.3346 55.2559ZM29.7784 59.7881C29.7784 59.8558 29.7784 59.9272 29.7746 59.9987C29.7746 59.9272 29.7746 59.8558 29.7746 59.7843L29.7784 59.7881ZM33.7769 60.0062C33.7656 59.9724 33.7505 59.9348 33.7391 59.9009C33.7316 58.0278 33.2747 56.388 32.9462 55.4402C33.2747 55.5267 33.5654 55.5793 33.7769 55.6132V60.0062ZM37.1864 54.7293C37.0504 55.395 36.9145 56.1698 36.805 57.0198C36.5181 57.2079 36.2387 57.4261 35.9781 57.6818C35.8498 57.8097 35.7403 57.9451 35.627 58.0805C35.3438 56.8393 34.9927 56.0307 34.9927 56.0307C34.9927 56.0307 34.8454 56.3729 34.6642 56.9521V55.5981C35.2343 55.5041 36.2273 55.2709 37.1826 54.7293H37.1864Z" fill="#CDE74A"/>
<path d="M74.8454 53.9809C74.8454 53.9809 74.4451 55.4252 74.245 57.4788C73.8901 55.7825 73.1614 54.5827 73.1614 54.5827C73.1614 54.5827 73.1425 54.6128 73.1085 54.6692C72.9802 53.7778 72.8782 53.255 72.8782 53.255C72.8782 53.255 72.6592 54.3646 72.4629 56.1135C72.4327 56.1962 72.4062 56.2752 72.376 56.3617C72.1457 55.2748 71.889 54.5827 71.889 54.5827C71.889 54.5827 71.0432 56.8544 71.0432 59.6528C71.0432 60.1568 71.0545 60.642 71.0772 61.1008H75.525C75.5401 60.6382 75.5476 60.153 75.5476 59.6528C75.5476 56.5197 74.8416 53.9772 74.8416 53.9772L74.8454 53.9809Z" fill="#CDE74A"/>
<path d="M80.2143 55.3086C80.2143 55.3086 79.7197 56.3693 79.4289 57.9113C79.2024 55.9706 78.6889 54.5827 78.6889 54.5827C78.6889 54.5827 78.2056 55.8728 77.9677 57.7045C77.9111 57.9678 77.8431 58.31 77.7789 58.7162C77.6241 55.5832 77.1144 53.255 77.1144 53.255C77.1144 53.255 76.5934 55.6321 76.4461 58.8178C76.2875 57.7797 76.1025 57.1177 76.1025 57.1177C76.1025 57.1177 75.6192 58.8554 75.5437 61.1008H81.1695C81.1846 60.751 81.196 60.39 81.196 60.0138C81.196 57.4149 80.2067 55.3048 80.2067 55.3048L80.2143 55.3086Z" fill="#CDE74A"/>
<path d="M58.1303 56.1623C57.7414 53.8266 56.9108 52.1679 56.9108 52.1679C56.9108 52.1679 55.8045 54.3758 55.5515 57.2907C55.3514 56.5083 55.1664 56.0307 55.1664 56.0307C55.1664 56.0307 54.7775 57.0312 54.5169 58.5206C54.3848 57.3358 54.1734 56.3015 53.977 55.5192C54.2527 55.3349 54.5245 55.128 54.7737 54.8798C56.4652 53.1985 56.6238 50.6221 56.6238 50.6221C56.6238 50.6221 54.0412 50.7801 52.3497 52.4651C51.7003 53.112 51.2774 53.8906 51.0018 54.6052V50.3325C51.8362 50.1971 53.539 49.7834 54.7737 48.5535C56.4652 46.8685 56.6238 44.2958 56.6238 44.2958C56.6238 44.2958 54.0412 44.4538 52.3497 46.1388C51.7003 46.7857 51.2774 47.5643 51.0018 48.2789C51.0018 48.2789 51.1075 46.0711 51.1264 43.7053C51.1641 43.773 51.1981 43.8407 51.2396 43.8971C52.1873 45.1985 52.8594 43.9498 54.1356 42.9907V42.9982C54.1545 42.9869 54.1696 42.9756 54.1847 42.9643C55.5213 41.9977 57.0165 41.7683 56.0423 40.4368C55.4193 39.583 53.3918 38.8797 52.0099 38.4848C52.0325 38.4096 52.0514 38.3306 52.0665 38.2478C53.4144 38.7405 55.5251 39.3875 56.5483 39.0565C58.119 38.5487 57.0467 37.4918 56.537 35.9234C56.5332 35.9084 56.5294 35.8933 56.5256 35.8783L56.4728 35.8933C55.9933 34.355 56.2047 32.922 54.6567 33.4222C53.6108 33.7607 52.2591 35.5774 51.4662 36.7622C51.4284 36.7321 51.3869 36.702 51.3453 36.6757C52.2326 35.5511 53.5088 33.7495 53.5088 32.67C53.5088 31.0226 52.1685 31.7109 50.5147 31.7109C50.4883 31.7109 50.4656 31.7109 50.4392 31.7109C48.8194 31.6921 47.5168 31.0452 47.5168 32.67C47.5168 33.7457 48.7892 35.5473 49.6765 36.6719C49.6274 36.702 49.5821 36.7358 49.5368 36.7697C48.7476 35.5849 47.3695 33.7194 46.3085 33.3771C44.7341 32.8693 44.9795 34.3513 44.4698 35.9197C44.4622 35.9422 44.4547 35.9648 44.4433 35.9874C43.9261 37.5144 42.9066 38.5487 44.4547 39.0527C45.4816 39.3837 47.5923 38.7368 48.9402 38.2441C48.9515 38.3118 48.9629 38.3757 48.9817 38.4397C47.5998 38.8346 45.576 39.5379 44.9568 40.3879C43.9827 41.7194 45.4779 41.9488 46.8145 42.9155C46.8334 42.9305 46.8522 42.9418 46.8711 42.9568L46.8371 43.0057C48.1322 43.9686 48.8043 45.2474 49.7633 43.9385C49.8351 43.8407 49.8992 43.7166 49.9559 43.5849C49.9748 46.1012 50.0956 48.5196 50.0956 48.5196C49.8275 47.7448 49.3857 46.8572 48.657 46.1388C46.9693 44.4538 44.3829 44.2958 44.3829 44.2958C44.3829 44.2958 44.5415 46.8685 46.233 48.5535C47.513 49.8285 49.2989 50.2272 50.0956 50.3475V52.2357C50.0201 52.3936 49.7935 52.8901 49.5443 53.631C49.3102 53.2248 49.0195 52.8262 48.6608 52.4688C46.9731 50.7838 44.3867 50.6259 44.3867 50.6259C44.3867 50.6259 44.5453 53.1534 46.1953 54.8384C46.1009 55.1731 45.9876 55.5944 45.8781 56.0871C45.7233 55.5944 45.6062 55.3085 45.6062 55.3085C45.6062 55.3085 44.5566 57.8699 44.4811 61.1045H48.725C48.6721 58.8741 48.1586 56.9635 47.8415 55.9931C48.1964 56.1623 48.5513 56.294 48.876 56.3955C48.7779 57.0387 48.7174 57.7307 48.7174 58.4491C48.7174 59.3969 48.7628 60.2996 48.8496 61.1045H59.1875C59.1875 58.3062 58.1983 56.0344 58.1983 56.0344C58.1983 56.0344 58.1756 56.0833 58.1454 56.1661L58.1303 56.1623ZM47.1543 56.6137C47.0675 56.1736 46.9768 55.7787 46.8862 55.4364C47.0599 55.5605 47.2374 55.6734 47.4148 55.7749C47.3431 55.9893 47.2487 56.2714 47.1543 56.6137ZM51.3982 56.5836C51.5832 56.546 51.7909 56.4895 52.0136 56.4256C51.8551 56.9635 51.6738 57.6743 51.5304 58.498C51.5304 58.4792 51.5304 58.4604 51.5304 58.4416C51.5304 57.7947 51.4813 57.1666 51.402 56.5798L51.3982 56.5836ZM52.6971 56.1962C52.7726 56.1661 52.8519 56.1285 52.9311 56.0946C52.8934 56.2601 52.8594 56.4331 52.8217 56.6099C52.7801 56.4595 52.7386 56.3203 52.6971 56.1924V56.1962Z" fill="#CDE74A"/>
<path d="M43.065 52.168C43.065 52.168 42.2343 53.8266 41.8454 56.1661C41.8115 56.0796 41.7888 56.0307 41.7888 56.0307C41.7888 56.0307 40.7996 58.2987 40.7996 61.1008H44.3412C44.4243 60.2921 44.4733 59.3932 44.4733 58.4454C44.4733 54.9776 43.0612 52.168 43.0612 52.168H43.065Z" fill="#CDE74A"/>
<path d="M27.5092 56.1135C27.3166 54.3683 27.0939 53.255 27.0939 53.255C27.0939 53.255 26.9919 53.7816 26.8636 54.6692C26.8334 54.6128 26.8107 54.5827 26.8107 54.5827C26.8107 54.5827 25.9498 55.9969 25.644 57.9264C25.3268 56.7717 24.9606 56.0308 24.9606 56.0308C24.9606 56.0308 23.8279 58.2987 23.8279 61.1008H27.9736C28.0416 60.5291 28.0793 59.8972 28.0793 59.2278C28.0793 58.0279 27.7999 56.9372 27.5054 56.1097L27.5092 56.1135Z" fill="#CDE74A"/>
<path d="M22.423 55.9969C22.2682 55.5606 22.1511 55.3086 22.1511 55.3086C22.1511 55.3086 21.1619 57.4148 21.1619 60.0176C21.1619 60.3899 21.1694 60.7548 21.1883 61.1045H23.5632C23.5632 60.8864 23.5632 60.6645 23.5632 60.4426C23.5632 56.4745 22.8572 53.2587 22.8572 53.2587C22.8572 53.2587 22.6231 54.3344 22.423 56.0006V55.9969Z" fill="#CDE74A"/>
<path d="M70.0501 23.5379C70.1822 23.0565 70.2388 22.56 70.2049 22.2441C70.1294 21.4655 69.4346 20.8976 68.6568 20.9728C67.8752 21.048 67.3051 21.7401 67.3806 22.5187C67.4071 22.8045 67.5354 23.2182 67.7204 23.6282C67.6034 23.5567 67.4486 23.5755 67.358 23.6846C67.2636 23.7975 67.2787 23.9592 67.3806 24.057C66.9389 23.9517 66.4971 23.9065 66.2102 23.9329C65.4286 24.0081 64.8584 24.7001 64.934 25.4749C65.0095 26.2535 65.7042 26.8214 66.482 26.7462C66.7992 26.7161 67.2749 26.5657 67.728 26.3438C67.7167 26.4717 67.7129 26.5883 67.7242 26.6785C67.7809 27.2427 68.2792 27.6527 68.8456 27.6C69.412 27.5474 69.8235 27.0471 69.7707 26.4829C69.748 26.2686 69.6498 25.9489 69.5064 25.6404C69.6461 25.6969 69.7631 25.7269 69.8009 25.6818C69.8348 25.6404 69.7895 25.5314 69.7102 25.411C70.0387 25.4937 70.3672 25.5276 70.5787 25.505C71.145 25.4524 71.5566 24.9521 71.5037 24.388C71.4471 23.8275 70.9487 23.4138 70.3823 23.4665C70.2879 23.474 70.1747 23.5003 70.0538 23.5342L70.0501 23.5379Z" fill="#CDE74A"/>
<path d="M25.2056 34.2723C25.1264 34.4002 25.081 34.5131 25.1188 34.5582C25.1566 34.5996 25.2698 34.5695 25.402 34.5131C25.2698 34.8215 25.183 35.1412 25.1717 35.3518C25.1377 35.916 25.5681 36.4012 26.1345 36.435C26.7008 36.4689 27.1879 36.0401 27.2219 35.4759C27.2257 35.3819 27.2219 35.2653 27.2068 35.1412C27.6636 35.3443 28.1469 35.4797 28.4641 35.4985C29.2457 35.5474 29.9215 34.9531 29.9706 34.1745C30.0197 33.396 29.4231 32.7227 28.6416 32.6738C28.3546 32.655 27.9242 32.7152 27.49 32.8356C27.5806 32.7303 27.5844 32.576 27.49 32.4707C27.3918 32.3617 27.2332 32.3504 27.1162 32.4331C27.2936 32.0156 27.4069 31.5869 27.422 31.301C27.4711 30.5224 26.8745 29.8492 26.0929 29.8003C25.3114 29.7514 24.6355 30.3457 24.5864 31.1242C24.5676 31.4402 24.6393 31.9329 24.7865 32.4143C24.6619 32.3842 24.5487 32.3617 24.4543 32.3579C23.8879 32.324 23.4009 32.7528 23.3669 33.317C23.3329 33.8812 23.7633 34.3664 24.3297 34.4002C24.5487 34.4153 24.8772 34.3664 25.2094 34.2723H25.2056Z" fill="#CDE74A"/>
<path d="M66.3838 61.1008H69.3478C69.3478 59.9649 69.1628 58.9193 68.94 58.0768C69.2118 57.9263 69.4799 57.7533 69.7367 57.5465C69.6649 58.4303 69.6196 59.4083 69.6196 60.4388C69.6196 60.6607 69.6196 60.8826 69.6196 61.1008H71.0242C71.0242 60.8826 71.028 60.6607 71.028 60.4388C71.028 58.9381 70.926 57.5427 70.8014 56.3918C71.8888 54.7933 72.0096 52.9127 72.0096 52.9127C72.0096 52.9127 71.2696 52.9616 70.3219 53.2587C69.4988 53.5182 68.5171 53.9696 67.7317 54.7557C67.66 54.8271 67.5996 54.9061 67.5354 54.9813C67.4372 54.7293 67.3693 54.5864 67.3693 54.5864C67.3693 54.5864 67.1654 55.0265 66.9275 55.7599C66.6783 55.1393 66.448 54.7256 66.3838 54.6165V52.6193C67.2183 52.4839 68.9249 52.0702 70.1595 50.8403C71.8511 49.1553 72.0096 46.5789 72.0096 46.5789C72.0096 46.5789 69.4233 46.7368 67.7317 48.4219C67.0823 49.0688 66.6594 49.8473 66.3838 50.562C66.3838 50.562 66.4895 48.3542 66.5084 45.9846C66.5462 46.0523 66.5802 46.12 66.6217 46.1764C67.5732 47.4778 68.2415 46.2291 69.5214 45.2662V45.2737C69.5403 45.2625 69.5554 45.2512 69.5705 45.2399C70.9109 44.2695 72.4023 44.0438 71.432 42.7086C70.809 41.8548 68.7776 41.1515 67.3957 40.7566C67.4184 40.6814 67.4372 40.6024 67.4523 40.5196C68.8003 41.0123 70.9147 41.6593 71.9417 41.3283C73.5162 40.8205 72.4401 39.7599 71.9304 38.1915C71.9266 38.1764 71.9228 38.1614 71.9152 38.1463L71.8624 38.1614C71.3829 36.6193 71.5943 35.1863 70.0425 35.6903C68.9966 36.0288 67.6411 37.8454 66.8482 39.034C66.8105 39.0039 66.7689 38.9738 66.7274 38.9474C67.6147 37.8229 68.8909 36.0175 68.8909 34.938C68.8909 33.2869 67.5467 33.9789 65.893 33.9789C65.8665 33.9789 65.8439 33.9789 65.8175 33.9789C64.1939 33.9601 62.8913 33.3132 62.8913 34.938C62.8913 36.0137 64.1675 37.8153 65.051 38.9437C65.0019 38.9738 64.9566 39.0076 64.9113 39.0415C64.1222 37.8567 62.7402 35.9874 61.6793 35.6451C60.1048 35.1336 60.3502 36.6193 59.8367 38.1877C59.8292 38.2103 59.8216 38.2328 59.8103 38.2554C59.2892 39.7862 58.2698 40.8205 59.8216 41.3245C60.8486 41.6555 62.963 41.0086 64.3109 40.5159C64.3223 40.5836 64.3336 40.6475 64.3525 40.7114C62.9706 41.1064 60.943 41.8097 60.3238 42.6635C59.3497 43.9987 60.8448 44.2244 62.1852 45.1948C62.2041 45.2098 62.223 45.2211 62.2419 45.2361L62.2041 45.285C63.4992 46.2517 64.175 47.5305 65.1303 46.2178C65.202 46.1163 65.2662 45.9959 65.3228 45.8643C65.3417 48.3842 65.4625 50.8027 65.4625 50.8027C65.1945 50.0279 64.7527 49.1402 64.024 48.4181C62.3325 46.7331 59.7461 46.5751 59.7461 46.5751C59.7461 46.5751 59.9047 49.1515 61.5962 50.8365C62.8762 52.1116 64.6659 52.5103 65.4625 52.6306V56.7265C65.4399 56.8018 65.4172 56.8807 65.3984 56.9597C65.1227 56.2263 64.6998 55.4176 64.024 54.7519C63.5747 54.3043 63.065 53.9696 62.5552 53.7101C62.3211 52.7397 62.1324 52.168 62.1324 52.168C62.1324 52.168 61.9851 52.608 61.7925 53.3753C60.6825 52.9654 59.7461 52.9052 59.7461 52.9052C59.7461 52.9052 59.8141 53.9809 60.3162 55.192C59.984 56.0909 59.4365 57.8812 59.4365 59.9499C59.4365 60.3448 59.444 60.7284 59.4629 61.097H63.4048C63.4048 60.9579 63.4048 60.8149 63.4048 60.6758C63.4048 59.8596 63.367 59.0697 63.3028 58.3213C63.3783 58.3551 63.4501 58.389 63.5256 58.4191C63.4539 58.9155 63.4048 59.4496 63.4048 60.01C63.4048 60.3824 63.4161 60.7472 63.4312 61.097H65.4625" fill="#CDE74A"/>
</g>
<path d="M26.6905 66.1823C27.7713 66.1768 28.7149 66.292 29.5214 66.5279C30.3279 66.7638 30.9478 67.104 31.3812 67.5483C31.8146 67.9927 32.0313 68.5194 32.0313 69.1284C32.0313 69.7319 31.8146 70.2558 31.3812 70.7002C30.9478 71.1391 30.3279 71.4765 29.5214 71.7124C28.7149 71.9483 27.7713 72.0663 26.6905 72.0663C25.6042 72.0663 24.6578 71.9483 23.8513 71.7124C23.0449 71.4765 22.4194 71.1391 21.975 70.7002C21.5361 70.2558 21.3167 69.7319 21.3167 69.1284C21.3167 68.5194 21.5361 67.9927 21.975 67.5483C22.4194 67.104 23.0449 66.7638 23.8513 66.5279C24.6578 66.292 25.6042 66.1768 26.6905 66.1823ZM26.6905 67.6306C25.9608 67.6306 25.3354 67.6882 24.8142 67.8035C24.293 67.9187 23.8952 68.0887 23.6209 68.3137C23.3521 68.5386 23.2177 68.8102 23.2177 69.1284C23.2177 69.4411 23.3521 69.7127 23.6209 69.9431C23.8952 70.168 24.293 70.3408 24.8142 70.4615C25.3409 70.5768 25.9663 70.6371 26.6905 70.6426C27.4037 70.6371 28.0209 70.5768 28.5421 70.4615C29.0633 70.3408 29.461 70.168 29.7353 69.9431C30.0151 69.7127 30.155 69.4411 30.155 69.1284C30.155 68.8102 30.0179 68.5386 29.7436 68.3137C29.4693 68.0887 29.0715 67.9187 28.5503 67.8035C28.0346 67.6882 27.4147 67.6306 26.6905 67.6306ZM33.4632 74.7079H19.9177V73.2595H33.4632V74.7079ZM27.5875 73.6957H25.7523V71.4326H27.5875V73.6957ZM31.8091 80.7236H29.974V77.3331H21.4154V75.8847H31.8091V80.7236ZM40.2196 76.5266H38.3844V73.2842H40.2196V76.5266ZM39.3061 66.7748C40.0906 66.7748 40.7901 66.9284 41.4046 67.2356C42.0245 67.5374 42.5101 67.9626 42.8612 68.5112C43.2123 69.0543 43.3879 69.6743 43.3879 70.371C43.3879 71.0678 43.2123 71.6877 42.8612 72.2309C42.5101 72.7685 42.0245 73.191 41.4046 73.4982C40.7901 73.8054 40.0906 73.959 39.3061 73.959C38.538 73.959 37.8413 73.8054 37.2158 73.4982C36.5904 73.191 36.0994 72.7685 35.7428 72.2309C35.3917 71.6877 35.2161 71.0678 35.2161 70.371C35.2161 69.6743 35.3917 69.0543 35.7428 68.5112C36.0994 67.9626 36.5904 67.5374 37.2158 67.2356C37.8413 66.9284 38.538 66.7748 39.3061 66.7748ZM39.3061 68.3548C38.8727 68.3548 38.4832 68.4371 38.1375 68.6017C37.7919 68.7608 37.5203 68.994 37.3228 69.3012C37.1253 69.6084 37.0266 69.965 37.0266 70.371C37.0266 70.777 37.1253 71.1336 37.3228 71.4408C37.5203 71.7426 37.7919 71.9758 38.1375 72.1403C38.4832 72.3049 38.8727 72.3872 39.3061 72.3872C39.7505 72.3872 40.1455 72.3049 40.4911 72.1403C40.8368 71.9758 41.1056 71.7426 41.2976 71.4408C41.4951 71.1336 41.5939 70.777 41.5939 70.371C41.5939 69.965 41.4951 69.6084 41.2976 69.3012C41.1056 68.994 40.8368 68.7608 40.4911 68.6017C40.1455 68.4371 39.7505 68.3548 39.3061 68.3548ZM46.8607 80.7647H45.0502V65.8613H46.8607V80.7647ZM34.5413 76.1727C35.7263 76.1727 36.8181 76.1618 37.8166 76.1398C38.8206 76.1179 39.8794 76.074 40.9931 76.0081C42.1068 75.9368 43.1602 75.8271 44.1532 75.679L44.2931 77.0039C43.2672 77.1959 42.2028 77.3413 41.1001 77.4401C40.0029 77.5333 38.9714 77.5937 38.0059 77.6211C37.0458 77.6485 35.9677 77.665 34.7717 77.6705L34.5413 76.1727ZM64.1835 71.0623H61.1551V69.5728H64.1835V71.0623ZM65.5167 74.7079H63.6897V65.8613H65.5167V74.7079ZM60.4885 75.0782C61.5419 75.0782 62.4471 75.1907 63.2042 75.4156C63.9668 75.6351 64.5511 75.9588 64.9571 76.3867C65.3631 76.8091 65.566 77.3166 65.566 77.9091C65.566 78.5016 65.3631 79.0091 64.9571 79.4316C64.5511 79.854 63.9668 80.175 63.2042 80.3944C62.4471 80.6193 61.5419 80.7373 60.4885 80.7483C59.4461 80.7373 58.5436 80.6193 57.7811 80.3944C57.024 80.175 56.4397 79.854 56.0282 79.4316C55.6222 79.0091 55.4192 78.5016 55.4192 77.9091C55.4192 77.3166 55.6222 76.8091 56.0282 76.3867C56.4397 75.9588 57.024 75.6351 57.7811 75.4156C58.5436 75.1907 59.4461 75.0782 60.4885 75.0782ZM60.4885 76.4772C59.8027 76.4772 59.2157 76.5321 58.7274 76.6418C58.2392 76.746 57.8688 76.9051 57.6165 77.1191C57.3641 77.3331 57.2379 77.5964 57.2379 77.9091C57.2379 78.2054 57.3641 78.4605 57.6165 78.6745C57.8688 78.8884 58.2392 79.053 58.7274 79.1682C59.2157 79.278 59.8027 79.3328 60.4885 79.3328C61.1853 79.3328 61.775 79.278 62.2578 79.1682C62.7461 79.053 63.1137 78.8884 63.3606 78.6745C63.6129 78.4605 63.7391 78.2054 63.7391 77.9091C63.7391 77.5964 63.6129 77.3331 63.3606 77.1191C63.1137 76.9051 62.7461 76.746 62.2578 76.6418C61.775 76.5321 61.1853 76.4772 60.4885 76.4772ZM58.1596 68.4207C58.1596 69.3588 57.995 70.2448 57.6658 71.0788C57.3422 71.9072 56.8648 72.6341 56.2339 73.2595C55.6085 73.885 54.8541 74.354 53.9709 74.6668L53.0162 73.2102C53.7953 72.9413 54.4591 72.56 55.0078 72.0663C55.5564 71.567 55.9678 71.0019 56.2422 70.371C56.522 69.7401 56.6619 69.09 56.6619 68.4207V67.3591H58.1596V68.4207ZM58.5217 68.4042C58.5217 69.0241 58.6534 69.6222 58.9167 70.1982C59.1855 70.7743 59.5833 71.2927 60.11 71.7536C60.6421 72.2089 61.2785 72.5655 62.0192 72.8234L61.1057 74.2717C60.2389 73.9755 59.501 73.5338 58.892 72.9468C58.283 72.3543 57.8195 71.6685 57.5013 70.8895C57.1885 70.1049 57.0322 69.2765 57.0322 68.4042V67.3591H58.5217V68.4042ZM61.6077 68.3137H53.5594V66.8242H61.6077V68.3137ZM73.4992 76.7159H71.664V73.4241H73.4992V76.7159ZM80.0991 77.1273H78.2722V65.8778H80.0991V77.1273ZM80.4448 80.4602H69.5326V78.9625H80.4448V80.4602ZM71.3678 79.3657H69.5326V76.0411H71.3678V79.3657ZM67.5576 72.5683C69.5929 72.5518 71.354 72.5189 72.8408 72.4695C74.3331 72.4147 75.7705 72.2994 77.153 72.1239L77.2518 73.4406C75.8089 73.6765 74.2947 73.8356 72.7091 73.9179C71.1236 73.9947 69.4805 74.0304 67.7797 74.0249L67.5576 72.5683ZM78.7001 75.8271H75.3425V74.5598H78.7001V75.8271ZM72.4047 66.4209C73.1234 66.4154 73.7625 66.5224 74.3221 66.7419C74.8817 66.9613 75.3179 67.274 75.6306 67.68C75.9488 68.0805 76.1079 68.5386 76.1079 69.0543C76.1079 69.581 75.9488 70.0391 75.6306 70.4286C75.3179 70.8182 74.8817 71.1226 74.3221 71.3421C73.768 71.5561 73.1288 71.663 72.4047 71.663C71.6805 71.663 71.0358 71.5561 70.4707 71.3421C69.9112 71.1226 69.475 70.8182 69.1623 70.4286C68.8496 70.0391 68.6932 69.581 68.6932 69.0543C68.6932 68.5386 68.8496 68.0805 69.1623 67.68C69.475 67.274 69.9112 66.9613 70.4707 66.7419C71.0358 66.5224 71.6805 66.4154 72.4047 66.4209ZM72.4047 67.7705C72.0151 67.7651 71.6695 67.8144 71.3678 67.9187C71.066 68.0174 70.8328 68.1656 70.6683 68.3631C70.5092 68.5606 70.4296 68.791 70.4296 69.0543C70.4296 69.3122 70.5092 69.5399 70.6683 69.7374C70.8328 69.9349 71.066 70.0857 71.3678 70.19C71.6695 70.2887 72.0151 70.3381 72.4047 70.3381C72.7887 70.3381 73.1288 70.2887 73.4251 70.19C73.7214 70.0857 73.9518 69.9349 74.1164 69.7374C74.281 69.5399 74.3632 69.3122 74.3632 69.0543C74.3632 68.791 74.2782 68.5606 74.1081 68.3631C73.9435 68.1656 73.7131 68.0174 73.4169 67.9187C73.1261 67.8144 72.7887 67.7651 72.4047 67.7705Z" fill="#CDE74A"/>
<defs>
<clipPath id="clip0_1570_5917">
<rect width="60.0415" height="51.6146" fill="white" transform="translate(21.1619 9.55389)"/>
</clipPath>
</defs>
</svg>
