<svg width="110" height="110" viewBox="0 0 110 110" fill="none" xmlns="http://www.w3.org/2000/svg">
<path d="M57.9346 0.322266C86.1982 0.322266 109.11 23.2345 109.11 51.498V57.9346C109.11 86.1982 86.1982 109.11 57.9346 109.11H51.498C23.2345 109.11 0.322266 86.1982 0.322266 57.9346V0.322266H57.9346Z" fill="white" fill-opacity="0.34" style="mix-blend-mode:plus-lighter"/>
<path d="M57.9346 0.322266C86.1982 0.322266 109.11 23.2345 109.11 51.498V57.9346C109.11 86.1982 86.1982 109.11 57.9346 109.11H51.498C23.2345 109.11 0.322266 86.1982 0.322266 57.9346V0.322266H57.9346Z" stroke="white" stroke-width="0.64372"/>
<path d="M30.8694 4.63263L5.12059 30.723L5.12059 4.38898L30.8694 4.63263Z" fill="#FF8A7B" fill-opacity="0.8"/>
<path d="M38.1 84.4476H23.0494V82.8108H38.1V84.4476ZM31.5713 83.5972H29.5323V80.4426H31.5713V83.5972ZM36.3992 90.4184H24.9056V88.7543H36.3992V90.4184ZM26.9446 89.3212H24.9056V85.5814H26.9446V89.3212ZM30.5747 74.6455C31.7634 74.6455 32.8058 74.7826 33.7018 75.0569C34.5979 75.3252 35.2898 75.7122 35.7775 76.2182C36.2651 76.7181 36.509 77.3094 36.509 77.9921C36.509 78.6931 36.2651 79.2996 35.7775 79.8117C35.2898 80.3176 34.601 80.7078 33.711 80.9821C32.821 81.2564 31.7756 81.3936 30.5747 81.3936C29.3677 81.3936 28.3162 81.2564 27.4201 80.9821C26.524 80.7078 25.8291 80.3176 25.3353 79.8117C24.8476 79.2996 24.6038 78.6931 24.6038 77.9921C24.6038 77.3094 24.8476 76.7181 25.3353 76.2182C25.8291 75.7122 26.524 75.3252 27.4201 75.0569C28.3223 74.7826 29.3738 74.6455 30.5747 74.6455ZM30.5747 76.2731C29.77 76.2731 29.0781 76.3401 28.499 76.4742C27.9199 76.6083 27.478 76.8064 27.1732 77.0686C26.8684 77.3246 26.716 77.6324 26.716 77.9921C26.716 78.3639 26.8654 78.684 27.1641 78.9522C27.4688 79.2143 27.9108 79.4124 28.4899 79.5465C29.069 79.6745 29.7639 79.7385 30.5747 79.7385C31.3793 79.7385 32.0682 79.6745 32.6412 79.5465C33.2142 79.4124 33.6531 79.2143 33.9579 78.9522C34.2688 78.684 34.4242 78.3639 34.4242 77.9921C34.4242 77.6324 34.2688 77.3246 33.9579 77.0686C33.6531 76.8064 33.2111 76.6083 32.632 76.4742C32.059 76.3401 31.3732 76.2731 30.5747 76.2731ZM52.9677 82.628H50.947V74.1974H52.9677V82.628ZM52.986 87.6845H44.0434V89.5864H42.0592V86.1666H50.9561V84.9688H42.0227V83.3869H52.986V87.6845ZM53.4798 90.583H42.0592V88.9646H53.4798V90.583ZM44.9944 75.8616C44.9944 76.8979 44.8054 77.8671 44.4275 78.7693C44.0495 79.6715 43.5039 80.4579 42.7907 81.1284C42.0836 81.7928 41.2302 82.2866 40.2305 82.6097L39.2064 81.0095C40.0781 80.723 40.8218 80.3176 41.4375 79.7934C42.0531 79.2692 42.5164 78.6687 42.8273 77.9921C43.1382 77.3094 43.2936 76.5992 43.2936 75.8616V74.6089H44.9944V75.8616ZM45.3967 75.8616C45.3967 76.5809 45.5491 77.2636 45.8539 77.9098C46.1587 78.556 46.6098 79.1259 47.2072 79.6197C47.8106 80.1073 48.5421 80.4792 49.4017 80.7352L48.405 82.3079C47.4114 81.9971 46.561 81.5277 45.8539 80.8998C45.1529 80.2658 44.6164 79.5191 44.2446 78.6596C43.8788 77.794 43.696 76.8613 43.696 75.8616V74.6089H45.3967V75.8616ZM72.2336 79.9763H68.8687V78.3213H72.2336V79.9763ZM73.7149 84.027H71.685V74.1974H73.7149V84.027ZM68.1281 84.4384C69.2985 84.4384 70.3043 84.5634 71.1455 84.8133C71.9928 85.0572 72.642 85.4168 73.0931 85.8923C73.5442 86.3617 73.7698 86.9255 73.7698 87.5839C73.7698 88.2422 73.5442 88.8061 73.0931 89.2755C72.642 89.7449 71.9928 90.1015 71.1455 90.3453C70.3043 90.5952 69.2985 90.7263 68.1281 90.7385C66.9699 90.7263 65.9671 90.5952 65.1198 90.3453C64.2785 90.1015 63.6293 89.7449 63.1721 89.2755C62.7211 88.8061 62.4955 88.2422 62.4955 87.5839C62.4955 86.9255 62.7211 86.3617 63.1721 85.8923C63.6293 85.4168 64.2785 85.0572 65.1198 84.8133C65.9671 84.5634 66.9699 84.4384 68.1281 84.4384ZM68.1281 85.9929C67.3661 85.9929 66.7138 86.0538 66.1713 86.1757C65.6288 86.2916 65.2173 86.4683 64.9369 86.7061C64.6565 86.9438 64.5163 87.2364 64.5163 87.5839C64.5163 87.9131 64.6565 88.1965 64.9369 88.4343C65.2173 88.672 65.6288 88.8549 66.1713 88.9829C66.7138 89.1048 67.3661 89.1658 68.1281 89.1658C68.9022 89.1658 69.5575 89.1048 70.094 88.9829C70.6365 88.8549 71.0449 88.672 71.3192 88.4343C71.5996 88.1965 71.7398 87.9131 71.7398 87.5839C71.7398 87.2364 71.5996 86.9438 71.3192 86.7061C71.0449 86.4683 70.6365 86.2916 70.094 86.1757C69.5575 86.0538 68.9022 85.9929 68.1281 85.9929ZM65.5404 77.0411C65.5404 78.0835 65.3575 79.068 64.9918 79.9946C64.6321 80.915 64.1018 81.7227 63.4007 82.4177C62.7058 83.1126 61.8676 83.6338 60.8862 83.9812L59.8255 82.3628C60.6911 82.0641 61.4287 81.6404 62.0383 81.0918C62.6479 80.5371 63.1051 79.9092 63.4099 79.2082C63.7208 78.5072 63.8762 77.7848 63.8762 77.0411V75.8616H65.5404V77.0411ZM65.9427 77.0229C65.9427 77.7117 66.089 78.3761 66.3816 79.0162C66.6803 79.6563 67.1222 80.2323 67.7074 80.7444C68.2987 81.2503 69.0059 81.6465 69.8288 81.933L68.8138 83.5423C67.8507 83.2132 67.0308 82.7225 66.3542 82.0702C65.6775 81.4119 65.1624 80.6499 64.8089 79.7843C64.4614 78.9126 64.2877 77.9921 64.2877 77.0229V75.8616H65.9427V77.0229ZM69.3716 76.9223H60.429V75.2673H69.3716V76.9223ZM82.5843 86.258H80.5453V82.6005H82.5843V86.258ZM89.9176 86.7152H87.8877V74.2157H89.9176V86.7152ZM90.3017 90.4184H78.177V88.7543H90.3017V90.4184ZM80.2161 89.2023H78.177V85.5083H80.2161V89.2023ZM75.9825 81.6496C78.2441 81.6313 80.2009 81.5947 81.8528 81.5399C83.5109 81.4789 85.108 81.3509 86.6442 81.1558L86.7539 82.6188C85.1507 82.8809 83.4682 83.0577 81.7065 83.1492C79.9448 83.2345 78.1191 83.2741 76.2294 83.268L75.9825 81.6496ZM88.3632 85.2705H84.6325V83.8624H88.3632V85.2705ZM81.3682 74.8192C82.1668 74.8131 82.8769 74.932 83.4987 75.1758C84.1205 75.4196 84.6051 75.7671 84.9526 76.2182C85.3061 76.6632 85.4829 77.1722 85.4829 77.7452C85.4829 78.3304 85.3061 78.8394 84.9526 79.2722C84.6051 79.705 84.1205 80.0433 83.4987 80.2872C82.883 80.5249 82.1729 80.6438 81.3682 80.6438C80.5636 80.6438 79.8473 80.5249 79.2194 80.2872C78.5977 80.0433 78.113 79.705 77.7656 79.2722C77.4181 78.8394 77.2444 78.3304 77.2444 77.7452C77.2444 77.1722 77.4181 76.6632 77.7656 76.2182C78.113 75.7671 78.5977 75.4196 79.2194 75.1758C79.8473 74.932 80.5636 74.8131 81.3682 74.8192ZM81.3682 76.3188C80.9354 76.3127 80.5514 76.3675 80.2161 76.4834C79.8808 76.5931 79.6218 76.7577 79.4389 76.9771C79.2621 77.1966 79.1737 77.4526 79.1737 77.7452C79.1737 78.0317 79.2621 78.2847 79.4389 78.5041C79.6218 78.7236 79.8808 78.8912 80.2161 79.007C80.5514 79.1168 80.9354 79.1716 81.3682 79.1716C81.7949 79.1716 82.1729 79.1168 82.502 79.007C82.8312 78.8912 83.0872 78.7236 83.2701 78.5041C83.453 78.2847 83.5444 78.0317 83.5444 77.7452C83.5444 77.4526 83.4499 77.1966 83.261 76.9771C83.0781 76.7577 82.8221 76.5931 82.4929 76.4834C82.1698 76.3675 81.7949 76.3127 81.3682 76.3188Z" fill="#FF8A7B"/>
<g clip-path="url(#clip0_1570_5914)">
<path d="M85.8771 32.5458C85.8771 32.5227 85.8737 32.4995 85.8702 32.4787C85.8691 32.4695 85.8668 32.4614 85.8633 32.4487C85.8576 32.4267 85.8518 32.4047 85.8426 32.3839C85.8403 32.3758 85.8368 32.3677 85.8334 32.3596C85.808 32.3018 85.7735 32.251 85.732 32.2082L85.7113 32.1885C85.701 32.1781 85.6894 32.1677 85.6779 32.1596L81.1385 28.6275C81.0475 28.5569 80.9346 28.5176 80.8206 28.5176H68.8502V28.3338C68.8502 21.9077 63.6428 16.6782 57.2413 16.6782H55.9953C49.5949 16.6782 44.3864 21.9065 44.3864 28.3338V28.5176H32.4159C32.3008 28.5176 32.1891 28.5569 32.0981 28.6263L27.5587 32.1585C27.5471 32.1677 27.5368 32.177 27.5218 32.192L27.5068 32.2059C27.4631 32.251 27.4285 32.3018 27.4032 32.3596C27.3997 32.3666 27.3974 32.3747 27.394 32.3839C27.3859 32.4059 27.379 32.4279 27.3744 32.4487C27.3721 32.4579 27.3698 32.4683 27.3687 32.4776C27.3641 32.503 27.3617 32.5284 27.3606 32.5539V32.5631V64.6671C27.3606 64.6752 27.3606 64.6833 27.3617 64.6902C27.3617 64.6983 27.3606 64.7064 27.3606 64.7145C27.3606 65.0059 27.5667 65.2348 27.8293 65.2348H46.4915C46.5341 65.2452 46.5732 65.251 46.6124 65.251H66.6288C66.668 65.251 66.7071 65.2464 66.7497 65.2348H85.2392C85.3129 65.2348 85.3866 65.2151 85.4522 65.1781C85.6998 65.1354 85.8806 64.9226 85.8806 64.6671V32.5458H85.8771ZM33.6032 51.1015V64.1457H28.3947V51.1015H33.6032ZM33.6032 35.0628V50.0609H28.3947V35.0628H33.6032ZM33.6032 33.0892V34.0222H28.3947V33.0892H33.6032ZM37.1466 29.557L33.9441 32.0486H29.3908L32.5933 29.557H37.1466ZM43.3903 29.557L40.1878 32.0486H35.6357L38.8382 29.557H43.3903ZM39.847 33.0892V34.0222H34.6385V33.0892H39.847ZM39.847 35.0628V50.0609H34.6385V35.0628H39.847ZM39.847 51.1015V64.1457H34.6385V51.1015H39.847ZM62.6156 42.563H61.8418C61.7554 41.6832 61.4502 40.8415 60.9516 40.1119L61.5447 39.6124C62.1573 40.4865 62.5258 41.4993 62.6156 42.563ZM52.285 40.1119C51.7863 40.8415 51.4812 41.6832 51.3948 42.563H50.621C50.7119 41.4993 51.0793 40.4865 51.6919 39.6124L52.285 40.1119ZM56.1001 29.557V32.0486H48.1244L51.3269 29.557H56.1001ZM53.4285 18.0356C51.6585 19.8473 50.697 23.4443 50.6359 28.5165H45.4228V28.3326C45.4228 23.4362 48.752 19.2057 53.4273 18.0344L53.4285 18.0356ZM56.1001 28.5165H51.67C51.6919 26.2156 51.9165 24.2016 52.3356 22.5297C53.068 19.6149 54.3336 18.0102 56.1001 17.7546V28.5153V28.5165ZM47.1283 34.0222V33.0892H56.1001V34.0222H47.1283ZM56.1001 35.0628V36.0167C52.4209 36.2849 49.5615 39.3569 49.5615 43.0833V50.0609H47.1283V35.0628H56.1001ZM60.2849 39.3153C59.8277 38.8667 59.3026 38.5106 58.7199 38.2539L58.9583 37.5151C59.6699 37.818 60.3275 38.2643 60.8768 38.8158L60.2849 39.3141V39.3153ZM54.838 39.2494L55.5715 41.5225L53.7498 39.987C54.0745 39.6841 54.4384 39.4367 54.838 39.2494ZM52.3598 38.817C52.9091 38.2655 53.5667 37.8192 54.2783 37.5163L54.5167 38.2551C53.934 38.5117 53.4077 38.8678 52.9517 39.3164L52.3598 38.8181V38.817ZM55.8237 38.9291C56.3488 38.8274 56.8855 38.8274 57.4117 38.9291L56.6183 41.3895L55.8249 38.9291H55.8237ZM57.7342 37.9325C57.368 37.8527 56.9937 37.8122 56.6183 37.8122C56.2429 37.8122 55.8698 37.8527 55.5024 37.9325L55.2641 37.1937C56.1508 36.9879 57.0858 36.9879 57.9714 37.1937L57.733 37.9325H57.7342ZM56.198 43.0752C56.2026 42.8463 56.3891 42.6613 56.6183 42.6613C56.8475 42.6613 57.0386 42.8509 57.0386 43.0833V64.1931H56.1968V43.0752H56.198ZM59.4868 39.9882L57.6651 41.5236L58.3986 39.2505C58.7982 39.4378 59.1632 39.6853 59.4868 39.9894V39.9882ZM55.1938 42.563H52.437C52.5153 41.9294 52.7364 41.3213 53.083 40.7848L55.1938 42.563ZM60.1524 40.7848C60.4991 41.3213 60.7202 41.9294 60.7985 42.563H58.0416L60.1524 40.7848ZM57.1365 36.0178V35.064H66.1083V50.0621H63.6751V43.0845C63.6751 39.3592 60.8157 36.2872 57.1365 36.019V36.0178ZM49.6352 29.557L46.4327 32.0486H41.8795L45.082 29.557H49.6341H49.6352ZM46.0919 33.0892V34.0222H40.8834V33.0892H46.0919ZM46.0919 35.0628V50.0609H40.8834V35.0628H46.0919ZM46.0919 51.1015V64.1457H40.8834V51.1015H46.0919ZM49.5615 51.1015V64.1931H47.1283V51.1015H49.5615ZM51.3683 43.6036V47.9705H50.5979V43.6036H51.3683ZM51.3683 49.0123V53.3792H50.5979V49.0123H51.3683ZM51.3683 54.4198V58.7867H50.5979V54.4198H51.3683ZM51.3683 59.8273V64.1931H50.5979V59.8273H51.3683ZM55.1616 43.6036V47.9705H52.4047V43.6036H55.1616ZM55.1616 49.0123V53.3792H52.4047V49.0123H55.1616ZM55.1616 54.4198V58.7867H52.4047V54.4198H55.1616ZM55.1616 59.8273V64.1931H52.4047V59.8273H55.1616ZM60.8319 43.6036V47.9705H58.075V43.6036H60.8319ZM60.8319 49.0123V53.3792H58.075V49.0123H60.8319ZM60.8319 54.4198V58.7867H58.075V54.4198H60.8319ZM60.8319 59.8273V64.1931H58.075V59.8273H60.8319ZM62.6387 43.6036V47.9705H61.8683V43.6036H62.6387ZM62.6387 49.0123V53.3792H61.8683V49.0123H62.6387ZM62.6387 54.4198V58.7867H61.8683V54.4198H62.6387ZM62.6387 59.8273V64.1931H61.8683V59.8273H62.6387ZM66.1083 51.1015V64.1931H63.6751V51.1015H66.1083ZM71.356 32.0486H66.8038L63.6014 29.557H68.1535L71.356 32.0486ZM57.1365 32.0486V29.557H61.9097L65.1122 32.0486H57.1365ZM57.1365 28.5165V17.7558C58.903 18.0113 60.1686 19.6161 60.9009 22.5309C61.3213 24.2027 61.5447 26.2156 61.5665 28.5176H57.1365V28.5165ZM59.8081 18.0356C64.4835 19.2068 67.8126 23.4373 67.8126 28.3338V28.5176H62.5995C62.5385 23.4454 61.5769 19.8473 59.807 18.0367L59.8081 18.0356ZM66.1083 33.0892V34.0222H57.1365V33.0892H66.1083ZM72.3532 33.0892V34.0222H67.1447V33.0892H72.3532ZM72.3532 35.0628V50.0609H67.1447V35.0628H72.3532ZM72.3532 51.1015V64.1457H67.1447V51.1015H72.3532ZM77.6009 32.0486H73.0488L69.8463 29.557H74.3984L77.6009 32.0486ZM78.597 33.0892V34.0222H73.3885V33.0892H78.597ZM78.597 35.0628V50.0609H73.3885V35.0628H78.597ZM78.597 51.1015V64.1457H73.3885V51.1015H78.597ZM83.8458 32.0486H79.2937L76.0912 29.557H80.6433L83.8458 32.0486ZM84.8419 33.0892V34.0222H79.6334V33.0892H84.8419ZM84.8419 35.0628V50.0609H79.6334V35.0628H84.8419ZM84.8419 51.1015V64.1457H79.6334V51.1015H84.8419Z" fill="#FF8A7B"/>
</g>
<defs>
<clipPath id="clip0_1570_5914">
<rect width="58.52" height="48.5716" fill="white" transform="translate(27.3579 16.6782)"/>
</clipPath>
</defs>
</svg>
