<svg width="99" height="99" viewBox="0 0 99 99" fill="none" xmlns="http://www.w3.org/2000/svg">
<path d="M52.1416 0.290039C77.5786 0.290169 98.1991 20.9106 98.1992 46.3477V52.1416C98.1991 77.5786 77.5786 98.1991 52.1416 98.1992H46.3477C20.9106 98.1991 0.290192 77.5786 0.290039 52.1416V0.290039H52.1416Z" fill="white" fill-opacity="0.34" style="mix-blend-mode:plus-lighter"/>
<path d="M52.1416 0.290039C77.5786 0.290169 98.1991 20.9106 98.1992 46.3477V52.1416C98.1991 77.5786 77.5786 98.1991 52.1416 98.1992H46.3477C20.9106 98.1991 0.290192 77.5786 0.290039 52.1416V0.290039H52.1416Z" stroke="white" stroke-width="0.579348"/>
<path d="M27.7825 4.16936L4.60855 27.6507L4.60855 3.95007L27.7825 4.16936Z" fill="#FF8A7B" fill-opacity="0.8"/>
<path d="M34.2902 75.8028H20.7446V74.3298H34.2902V75.8028ZM28.4144 75.0375H26.5792V72.1984H28.4144V75.0375ZM32.7595 81.1766H22.4152V79.6789H32.7595V81.1766ZM24.2503 80.1891H22.4152V76.8233H24.2503V80.1891ZM27.5174 66.9809C28.5872 66.9809 29.5253 67.1044 30.3318 67.3513C31.1383 67.5927 31.761 67.941 32.1999 68.3964C32.6388 68.8463 32.8582 69.3784 32.8582 69.9929C32.8582 70.6238 32.6388 71.1697 32.1999 71.6305C31.761 72.0859 31.141 72.437 30.3401 72.6839C29.5391 72.9308 28.5982 73.0542 27.5174 73.0542C26.4311 73.0542 25.4847 72.9308 24.6782 72.6839C23.8718 72.437 23.2463 72.0859 22.8019 71.6305C22.363 71.1697 22.1436 70.6238 22.1436 69.9929C22.1436 69.3784 22.363 68.8463 22.8019 68.3964C23.2463 67.941 23.8718 67.5927 24.6782 67.3513C25.4902 67.1044 26.4366 66.9809 27.5174 66.9809ZM27.5174 68.4458C26.7932 68.4458 26.1705 68.5061 25.6493 68.6268C25.1281 68.7475 24.7304 68.9258 24.4561 69.1617C24.1817 69.3921 24.0446 69.6692 24.0446 69.9929C24.0446 70.3275 24.179 70.6156 24.4478 70.857C24.7221 71.0929 25.1199 71.2712 25.6411 71.3919C26.1623 71.5071 26.7877 71.5647 27.5174 71.5647C28.2416 71.5647 28.8615 71.5071 29.3772 71.3919C29.8929 71.2712 30.2879 71.0929 30.5622 70.857C30.842 70.6156 30.9819 70.3275 30.9819 69.9929C30.9819 69.6692 30.842 69.3921 30.5622 69.1617C30.2879 68.9258 29.8902 68.7475 29.369 68.6268C28.8533 68.5061 28.2361 68.4458 27.5174 68.4458ZM47.6711 74.1652H45.8524V66.5777H47.6711V74.1652ZM47.6876 78.716H39.6392V80.4277H37.8535V77.3499H45.8607V76.2719H37.8206V74.8482H47.6876V78.716ZM48.132 81.3247H37.8535V79.8681H48.132V81.3247ZM40.4951 68.0754C40.4951 69.0081 40.325 69.8804 39.9849 70.6924C39.6447 71.5043 39.1537 72.2121 38.5118 72.8156C37.8754 73.4136 37.1073 73.8579 36.2076 74.1487L35.2859 72.7086C36.0704 72.4507 36.7398 72.0859 37.2939 71.6141C37.848 71.1423 38.2649 70.6019 38.5447 69.9929C38.8245 69.3784 38.9644 68.7393 38.9644 68.0754V66.948H40.4951V68.0754ZM40.8572 68.0754C40.8572 68.7228 40.9944 69.3373 41.2687 69.9188C41.543 70.5004 41.949 71.0133 42.4866 71.4577C43.0298 71.8966 43.6881 72.2313 44.4617 72.4617L43.5647 73.8772C42.6704 73.5974 41.9051 73.1749 41.2687 72.6098C40.6377 72.0393 40.155 71.3672 39.8203 70.5936C39.4911 69.8146 39.3265 68.9752 39.3265 68.0754V66.948H40.8572V68.0754ZM65.0104 71.7787H61.982V70.2891H65.0104V71.7787ZM66.3436 75.4243H64.5166V66.5777H66.3436V75.4243ZM61.3154 75.7946C62.3688 75.7946 63.274 75.9071 64.0311 76.132C64.7937 76.3515 65.378 76.6751 65.784 77.1031C66.19 77.5255 66.3929 78.033 66.3929 78.6255C66.3929 79.218 66.19 79.7255 65.784 80.1479C65.378 80.5704 64.7937 80.8913 64.0311 81.1108C63.274 81.3357 62.3688 81.4537 61.3154 81.4646C60.273 81.4537 59.3705 81.3357 58.608 81.1108C57.8509 80.8913 57.2666 80.5704 56.8551 80.1479C56.4491 79.7255 56.2461 79.218 56.2461 78.6255C56.2461 78.033 56.4491 77.5255 56.8551 77.1031C57.2666 76.6751 57.8509 76.3515 58.608 76.132C59.3705 75.9071 60.273 75.7946 61.3154 75.7946ZM61.3154 77.1936C60.6296 77.1936 60.0426 77.2485 59.5543 77.3582C59.0661 77.4624 58.6957 77.6215 58.4434 77.8355C58.191 78.0494 58.0648 78.3128 58.0648 78.6255C58.0648 78.9218 58.191 79.1769 58.4434 79.3908C58.6957 79.6048 59.0661 79.7694 59.5543 79.8846C60.0426 79.9943 60.6296 80.0492 61.3154 80.0492C62.0122 80.0492 62.6019 79.9943 63.0847 79.8846C63.573 79.7694 63.9406 79.6048 64.1875 79.3908C64.4398 79.1769 64.566 78.9218 64.566 78.6255C64.566 78.3128 64.4398 78.0494 64.1875 77.8355C63.9406 77.6215 63.573 77.4624 63.0847 77.3582C62.6019 77.2485 62.0122 77.1936 61.3154 77.1936ZM58.9865 69.137C58.9865 70.0752 58.8219 70.9612 58.4927 71.7951C58.1691 72.6235 57.6918 73.3505 57.0608 73.9759C56.4354 74.6013 55.681 75.0704 54.7978 75.3831L53.8431 73.9265C54.6222 73.6577 55.286 73.2764 55.8347 72.7826C56.3833 72.2834 56.7948 71.7183 57.0691 71.0874C57.3489 70.4565 57.4888 69.8064 57.4888 69.137V68.0754H58.9865V69.137ZM59.3486 69.1206C59.3486 69.7405 59.4803 70.3385 59.7436 70.9146C60.0124 71.4906 60.4102 72.0091 60.9369 72.4699C61.469 72.9253 62.1054 73.2819 62.8461 73.5397L61.9326 74.9881C61.0658 74.6919 60.3279 74.2502 59.7189 73.6632C59.1099 73.0707 58.6464 72.3849 58.3282 71.6058C58.0154 70.8213 57.8591 69.9929 57.8591 69.1206V68.0754H59.3486V69.1206ZM62.4346 69.03H54.3863V67.5405H62.4346V69.03ZM74.3261 77.4322H72.4909V74.1405H74.3261V77.4322ZM80.926 77.8437H79.0991V66.5942H80.926V77.8437ZM81.2717 81.1766H70.3595V79.6789H81.2717V81.1766ZM72.1947 80.0821H70.3595V76.7574H72.1947V80.0821ZM68.3845 73.2846C70.4199 73.2682 72.1809 73.2353 73.6677 73.1859C75.16 73.131 76.5974 73.0158 77.9799 72.8403L78.0787 74.157C76.6358 74.3929 75.1216 74.552 73.536 74.6343C71.9505 74.7111 70.3074 74.7467 68.6066 74.7412L68.3845 73.2846ZM79.527 76.5435H76.1694V75.2761H79.527V76.5435ZM73.2316 67.1373C73.9503 67.1318 74.5894 67.2388 75.149 67.4582C75.7086 67.6777 76.1448 67.9904 76.4575 68.3964C76.7757 68.7969 76.9348 69.255 76.9348 69.7707C76.9348 70.2974 76.7757 70.7555 76.4575 71.145C76.1448 71.5345 75.7086 71.839 75.149 72.0585C74.5949 72.2724 73.9557 72.3794 73.2316 72.3794C72.5074 72.3794 71.8627 72.2724 71.2977 72.0585C70.7381 71.839 70.3019 71.5345 69.9892 71.145C69.6765 70.7555 69.5201 70.2974 69.5201 69.7707C69.5201 69.255 69.6765 68.7969 69.9892 68.3964C70.3019 67.9904 70.7381 67.6777 71.2977 67.4582C71.8627 67.2388 72.5074 67.1318 73.2316 67.1373ZM73.2316 68.4869C72.842 68.4814 72.4964 68.5308 72.1947 68.635C71.8929 68.7338 71.6597 68.8819 71.4952 69.0794C71.3361 69.2769 71.2565 69.5074 71.2565 69.7707C71.2565 70.0285 71.3361 70.2562 71.4952 70.4537C71.6597 70.6512 71.8929 70.8021 72.1947 70.9063C72.4964 71.0051 72.842 71.0545 73.2316 71.0545C73.6156 71.0545 73.9557 71.0051 74.252 70.9063C74.5483 70.8021 74.7787 70.6512 74.9433 70.4537C75.1079 70.2562 75.1901 70.0285 75.1901 69.7707C75.1901 69.5074 75.1051 69.2769 74.935 69.0794C74.7705 68.8819 74.54 68.7338 74.2438 68.635C73.953 68.5308 73.6156 68.4814 73.2316 68.4869Z" fill="#FF8A7B"/>
<g clip-path="url(#clip0_1570_5914)">
<path d="M77.2894 29.2913C77.2894 29.2704 77.2863 29.2496 77.2832 29.2309C77.2822 29.2226 77.2801 29.2153 77.277 29.2038C77.2718 29.1841 77.2666 29.1643 77.2583 29.1456C77.2562 29.1383 77.2531 29.131 77.25 29.1237C77.2272 29.0717 77.1961 29.0259 77.1588 28.9874L77.1402 28.9697C77.1308 28.9603 77.1205 28.951 77.1101 28.9437L73.0246 25.7648C72.9427 25.7013 72.8412 25.6659 72.7386 25.6659H61.9651V25.5004C61.9651 19.7169 57.2785 15.0104 51.5171 15.0104H50.3957C44.6354 15.0104 39.9478 19.7159 39.9478 25.5004V25.6659H29.1743C29.0707 25.6659 28.9702 25.7013 28.8883 25.7637L24.8028 28.9427C24.7924 28.951 24.7831 28.9593 24.7696 28.9728L24.7561 28.9853C24.7168 29.0259 24.6857 29.0717 24.6629 29.1237C24.6597 29.13 24.6577 29.1372 24.6546 29.1456C24.6473 29.1653 24.6411 29.1851 24.6369 29.2038C24.6349 29.2122 24.6328 29.2215 24.6318 29.2299C24.6276 29.2527 24.6255 29.2756 24.6245 29.2985V29.3069V58.2004C24.6245 58.2077 24.6245 58.215 24.6255 58.2212C24.6255 58.2285 24.6245 58.2358 24.6245 58.2431C24.6245 58.5053 24.81 58.7113 25.0463 58.7113H41.8423C41.8806 58.7207 41.9159 58.7259 41.9511 58.7259H59.9659C60.0011 58.7259 60.0364 58.7218 60.0747 58.7113H76.7152C76.7816 58.7113 76.8479 58.6937 76.907 58.6604C77.1298 58.6219 77.2925 58.4304 77.2925 58.2004V29.2913H77.2894ZM30.2429 45.9914V57.7311H25.5552V45.9914H30.2429ZM30.2429 31.5566V45.0549H25.5552V31.5566H30.2429ZM30.2429 29.7803V30.6201H25.5552V29.7803H30.2429ZM33.4319 26.6014L30.5496 28.8438H26.4517L29.3339 26.6014H33.4319ZM39.0513 26.6014L36.169 28.8438H32.0721L34.9544 26.6014H39.0513ZM35.8622 29.7803V30.6201H31.1746V29.7803H35.8622ZM35.8622 31.5566V45.0549H31.1746V31.5566H35.8622ZM35.8622 45.9914V57.7311H31.1746V45.9914H35.8622ZM56.354 38.3068H55.6576C55.5798 37.5149 55.3052 36.7574 54.8564 36.1008L55.3902 35.6512C55.9415 36.4379 56.2732 37.3494 56.354 38.3068ZM47.0564 36.1008C46.6077 36.7574 46.333 37.5149 46.2553 38.3068H45.5588C45.6407 37.3494 45.9713 36.4379 46.5227 35.6512L47.0564 36.1008ZM50.4901 26.6014V28.8438H43.3119L46.1942 26.6014H50.4901ZM48.0856 16.2321C46.4926 17.8626 45.6272 21.0999 45.5723 25.6649H40.8805V25.4994C40.8805 21.0926 43.8768 17.2851 48.0846 16.231L48.0856 16.2321ZM50.4901 25.6649H46.503C46.5227 23.5941 46.7248 21.7814 47.1021 20.2768C47.7612 17.6535 48.9002 16.2092 50.4901 15.9792V25.6638V25.6649ZM42.4154 30.6201V29.7803H50.4901V30.6201H42.4154ZM50.4901 31.5566V32.415C47.1787 32.6565 44.6054 35.4213 44.6054 38.775V45.0549H42.4154V31.5566H50.4901ZM54.2564 35.3838C53.8449 34.9801 53.3723 34.6596 52.8479 34.4286L53.0624 33.7636C53.7029 34.0363 54.2947 34.4379 54.7891 34.9343L54.2564 35.3828V35.3838ZM49.3542 35.3245L50.0143 37.3703L48.3748 35.9884C48.667 35.7157 48.9945 35.4931 49.3542 35.3245ZM47.1238 34.9353C47.6182 34.439 48.21 34.0373 48.8505 33.7647L49.065 34.4296C48.5406 34.6606 48.0669 34.9811 47.6565 35.3848L47.1238 34.9364V34.9353ZM50.2413 35.0362C50.7139 34.9447 51.1969 34.9447 51.6705 35.0362L50.9564 37.2506L50.2424 35.0362H50.2413ZM51.9607 34.1393C51.6311 34.0675 51.2943 34.0311 50.9564 34.0311C50.6186 34.0311 50.2828 34.0675 49.9522 34.1393L49.7376 33.4743C50.5357 33.2891 51.3772 33.2891 52.1742 33.4743L51.9597 34.1393H51.9607ZM50.5782 38.7677C50.5823 38.5617 50.7502 38.3952 50.9564 38.3952C51.1627 38.3952 51.3347 38.5659 51.3347 38.775V57.7738H50.5771V38.7677H50.5782ZM53.5381 35.9894L51.8985 37.3713L52.5587 35.3255C52.9184 35.4941 53.2469 35.7168 53.5381 35.9905V35.9894ZM49.6744 38.3068H47.1933C47.2637 37.7365 47.4627 37.1892 47.7747 36.7064L49.6744 38.3068ZM54.1372 36.7064C54.4491 37.1892 54.6481 37.7365 54.7186 38.3068H52.2374L54.1372 36.7064ZM51.4228 32.4161V31.5576H59.4974V45.0559H57.3075V38.7761C57.3075 35.4233 54.7341 32.6585 51.4228 32.4171V32.4161ZM44.6717 26.6014L41.7894 28.8438H37.6915L40.5737 26.6014H44.6706H44.6717ZM41.4827 29.7803V30.6201H36.795V29.7803H41.4827ZM41.4827 31.5566V45.0549H36.795V31.5566H41.4827ZM41.4827 45.9914V57.7311H36.795V45.9914H41.4827ZM44.6054 45.9914V57.7738H42.4154V45.9914H44.6054ZM46.2315 39.2433V43.1735H45.5381V39.2433H46.2315ZM46.2315 44.1111V48.0413H45.5381V44.1111H46.2315ZM46.2315 48.9778V52.9081H45.5381V48.9778H46.2315ZM46.2315 53.8446V57.7738H45.5381V53.8446H46.2315ZM49.6454 39.2433V43.1735H47.1642V39.2433H49.6454ZM49.6454 44.1111V48.0413H47.1642V44.1111H49.6454ZM49.6454 48.9778V52.9081H47.1642V48.9778H49.6454ZM49.6454 53.8446V57.7738H47.1642V53.8446H49.6454ZM54.7486 39.2433V43.1735H52.2675V39.2433H54.7486ZM54.7486 44.1111V48.0413H52.2675V44.1111H54.7486ZM54.7486 48.9778V52.9081H52.2675V48.9778H54.7486ZM54.7486 53.8446V57.7738H52.2675V53.8446H54.7486ZM56.3748 39.2433V43.1735H55.6814V39.2433H56.3748ZM56.3748 44.1111V48.0413H55.6814V44.1111H56.3748ZM56.3748 48.9778V52.9081H55.6814V48.9778H56.3748ZM56.3748 53.8446V57.7738H55.6814V53.8446H56.3748ZM59.4974 45.9914V57.7738H57.3075V45.9914H59.4974ZM64.2203 28.8438H60.1234L57.2412 26.6014H61.3381L64.2203 28.8438ZM51.4228 28.8438V26.6014H55.7187L58.601 28.8438H51.4228ZM51.4228 25.6649V15.9803C53.0127 16.2102 54.1517 17.6545 54.8108 20.2778C55.1891 21.7825 55.3902 23.5941 55.4099 25.6659H51.4228V25.6649ZM53.8273 16.2321C58.0351 17.2862 61.0313 21.0936 61.0313 25.5004V25.6659H56.3395C56.2846 21.1009 55.4192 17.8626 53.8262 16.2331L53.8273 16.2321ZM59.4974 29.7803V30.6201H51.4228V29.7803H59.4974ZM65.1179 29.7803V30.6201H60.4302V29.7803H65.1179ZM65.1179 31.5566V45.0549H60.4302V31.5566H65.1179ZM65.1179 45.9914V57.7311H60.4302V45.9914H65.1179ZM69.8408 28.8438H65.7439L62.8616 26.6014H66.9585L69.8408 28.8438ZM70.7373 29.7803V30.6201H66.0496V29.7803H70.7373ZM70.7373 31.5566V45.0549H66.0496V31.5566H70.7373ZM70.7373 45.9914V57.7311H66.0496V45.9914H70.7373ZM75.4612 28.8438H71.3643L68.482 26.6014H72.5789L75.4612 28.8438ZM76.3577 29.7803V30.6201H71.67V29.7803H76.3577ZM76.3577 31.5566V45.0549H71.67V31.5566H76.3577ZM76.3577 45.9914V57.7311H71.67V45.9914H76.3577Z" fill="#FF8A7B"/>
</g>
<defs>
<clipPath id="clip0_1570_5914">
<rect width="52.668" height="43.7144" fill="white" transform="translate(24.6223 15.0104)"/>
</clipPath>
</defs>
</svg>
