<svg width="71" height="81" viewBox="0 0 71 81" fill="none" xmlns="http://www.w3.org/2000/svg">
<g clip-path="url(#clip0_1758_373)">
<path d="M12.3 58.6C14.58 59.87 16.99 60.89 19.5 61.64L10.34 77.44C9.25999 79.28 6.86999 79.9 5.03999 78.82C3.19999 77.74 2.57999 75.35 3.65999 73.52L4.56999 71.97L12.3 58.61V58.6Z" stroke="#774D17" stroke-width="3" stroke-linejoin="round"/>
<path d="M58.56 58.6C56.28 59.87 53.87 60.89 51.36 61.64L60.52 77.44C61.6 79.28 63.99 79.9 65.82 78.82C67.66 77.74 68.28 75.35 67.2 73.52L66.29 71.97L58.56 58.61V58.6Z" stroke="#774D17" stroke-width="3" stroke-linejoin="round"/>
<path d="M18.75 12.41C18.75 16.44 15.48 19.71 11.45 19.71C7.41999 19.71 4.14999 16.44 4.14999 12.41C4.14999 8.38 7.41999 5.11 11.45 5.11C15.48 5.11 18.75 8.38 18.75 12.41Z" stroke="#774D17" stroke-width="3" stroke-linejoin="round"/>
<path d="M66.7 12.41C66.7 16.44 63.43 19.71 59.4 19.71C55.37 19.71 52.1 16.44 52.1 12.41C52.1 8.38 55.37 5.11 59.4 5.11C63.43 5.11 66.7 8.38 66.7 12.41Z" stroke="#774D17" stroke-width="3" stroke-linejoin="round"/>
<path fill-rule="evenodd" clip-rule="evenodd" d="M35.43 1.5C16.69 1.5 1.5 16.69 1.5 35.43C1.5 54.17 16.69 69.36 35.43 69.36C54.17 69.36 69.36 54.17 69.36 35.43C69.36 16.69 54.17 1.5 35.43 1.5Z" fill="#8F6B2D" stroke="#774D17" stroke-miterlimit="10"/>
<path d="M43.2252 68.4566C61.4632 64.1521 72.7584 45.8778 68.4539 27.6399C64.1493 9.40196 45.875 -1.89328 27.6371 2.41126C9.3992 6.7158 -1.89604 24.9901 2.4085 43.228C6.71304 61.4659 24.9873 72.7612 43.2252 68.4566Z" stroke="#774D17" stroke-width="3" stroke-linejoin="round"/>
<path d="M15.88 15.88C26.68 5.08 44.19 5.08 54.99 15.88C65.79 26.68 65.79 44.19 54.99 54.99C44.19 65.79 26.68 65.79 15.88 54.99C5.08 44.19 5.08 26.68 15.88 15.88Z" stroke="#774D17" stroke-width="3" stroke-linejoin="round"/>
<path d="M20.99 27.12L21.96 25.64L35.92 34.69L34.95 36.18L20.99 27.12Z" fill="#774D17"/>
<path d="M34.5096 34.9908L28.9268 48.5894L30.5642 49.2616L36.147 35.663L34.5096 34.9908Z" fill="#774D17"/>
<path fill-rule="evenodd" clip-rule="evenodd" d="M33.53 33.53C34.58 32.48 36.28 32.48 37.33 33.53C38.38 34.58 38.38 36.28 37.33 37.33C36.28 38.38 34.58 38.38 33.53 37.33C32.48 36.28 32.48 34.58 33.53 33.53Z" fill="#D78F68" stroke="#774D17" stroke-miterlimit="10"/>
<path d="M33.53 33.53C34.58 32.48 36.28 32.48 37.33 33.53C38.38 34.58 38.38 36.28 37.33 37.33C36.28 38.38 34.58 38.38 33.53 37.33C32.48 36.28 32.48 34.58 33.53 33.53Z" fill="#774D17"/>
<path d="M35.24 60.03C34.9 60.03 34.62 59.75 34.62 59.41V56.07C34.62 55.73 34.9 55.45 35.24 55.45C35.58 55.45 35.86 55.73 35.86 56.07V59.41C35.86 59.75 35.58 60.03 35.24 60.03Z" fill="#36393D" stroke="#774D17" stroke-miterlimit="10"/>
<path d="M14.8 35.86H11.46C11.12 35.86 10.84 35.58 10.84 35.24C10.84 34.9 11.12 34.62 11.46 34.62H14.8C15.14 34.62 15.42 34.9 15.42 35.24C15.42 35.58 15.14 35.86 14.8 35.86Z" fill="#36393D" stroke="#774D17" stroke-miterlimit="10"/>
<path d="M35.63 15.42C35.29 15.42 35.01 15.14 35.01 14.8V11.46C35.01 11.12 35.29 10.84 35.63 10.84C35.97 10.84 36.25 11.12 36.25 11.46V14.8C36.25 15.14 35.97 15.42 35.63 15.42Z" fill="#36393D" stroke="#774D17" stroke-miterlimit="10"/>
<path d="M59.41 36.25H56.07C55.73 36.25 55.45 35.97 55.45 35.63C55.45 35.29 55.73 35.01 56.07 35.01H59.41C59.75 35.01 60.03 35.29 60.03 35.63C60.03 35.97 59.75 36.25 59.41 36.25Z" fill="#36393D" stroke="#774D17" stroke-miterlimit="10"/>
<path d="M47.25 56.92C47.03 56.92 46.83 56.81 46.71 56.61L45.04 53.72C44.87 53.42 44.97 53.04 45.27 52.87C45.57 52.7 45.95 52.8 46.12 53.1L47.79 55.99C47.96 56.29 47.86 56.67 47.56 56.84C47.46 56.9 47.35 56.92 47.25 56.92Z" fill="#36393D" stroke="#774D17" stroke-miterlimit="10"/>
<path d="M14.57 47.87C14.35 47.87 14.15 47.76 14.03 47.56C13.86 47.26 13.96 46.88 14.26 46.71L17.15 45.04C17.45 44.87 17.83 44.97 18 45.27C18.17 45.57 18.07 45.95 17.77 46.12L14.88 47.79C14.78 47.85 14.67 47.87 14.57 47.87Z" fill="#36393D" stroke="#774D17" stroke-miterlimit="10"/>
<path d="M25.29 18.09C25.07 18.09 24.87 17.98 24.75 17.78L23.08 14.89C22.91 14.59 23.01 14.21 23.31 14.04C23.61 13.87 23.99 13.97 24.16 14.27L25.83 17.16C26 17.46 25.9 17.84 25.6 18.01C25.5 18.07 25.39 18.09 25.29 18.09Z" fill="#36393D" stroke="#774D17" stroke-miterlimit="10"/>
<path d="M53.4 25.91C53.18 25.91 52.98 25.8 52.86 25.6C52.69 25.3 52.79 24.92 53.09 24.75L55.98 23.08C56.28 22.91 56.66 23.01 56.83 23.31C57 23.61 56.9 23.99 56.6 24.16L53.71 25.83C53.61 25.89 53.5 25.91 53.4 25.91Z" fill="#36393D" stroke="#774D17" stroke-miterlimit="10"/>
<path d="M56.1 48.21C55.99 48.21 55.89 48.18 55.79 48.13L52.9 46.46C52.6 46.29 52.5 45.91 52.67 45.61C52.84 45.31 53.22 45.21 53.52 45.38L56.41 47.05C56.71 47.22 56.81 47.6 56.64 47.9C56.52 48.1 56.32 48.21 56.1 48.21Z" fill="#36393D" stroke="#774D17" stroke-miterlimit="10"/>
<path d="M23.27 56.72C23.16 56.72 23.06 56.69 22.96 56.64C22.66 56.47 22.56 56.09 22.73 55.79L24.4 52.9C24.57 52.6 24.95 52.5 25.25 52.67C25.55 52.84 25.65 53.22 25.48 53.52L23.81 56.41C23.69 56.61 23.49 56.72 23.27 56.72Z" fill="#36393D" stroke="#774D17" stroke-miterlimit="10"/>
<path d="M17.66 25.57C17.55 25.57 17.45 25.54 17.35 25.49L14.46 23.82C14.16 23.65 14.06 23.27 14.23 22.97C14.4 22.67 14.78 22.57 15.08 22.74L17.97 24.41C18.27 24.58 18.37 24.96 18.2 25.26C18.08 25.46 17.88 25.57 17.66 25.57Z" fill="#36393D" stroke="#774D17" stroke-miterlimit="10"/>
<path d="M45.92 18.29C45.81 18.29 45.71 18.26 45.61 18.21C45.31 18.04 45.21 17.66 45.38 17.36L47.05 14.47C47.22 14.17 47.6 14.07 47.9 14.24C48.2 14.41 48.3 14.79 48.13 15.09L46.46 17.98C46.34 18.18 46.14 18.29 45.92 18.29Z" fill="#36393D" stroke="#774D17" stroke-miterlimit="10"/>
</g>
<defs>
<clipPath id="clip0_1758_373">
<rect width="70.86" height="80.84" fill="white"/>
</clipPath>
</defs>
</svg>
