<svg width="1920" height="552" viewBox="0 0 1920 552" fill="none" xmlns="http://www.w3.org/2000/svg">
<mask id="mask0_1753_175" style="mask-type:luminance" maskUnits="userSpaceOnUse" x="0" y="0" width="1920" height="552">
<path d="M1920 0H0V552H1920V0Z" fill="white"/>
</mask>
<g mask="url(#mask0_1753_175)">
<path d="M1926.5 -7.5H-5.5V570.5H1926.5V-7.5Z" fill="#8F6B2D"/>
<path d="M569.5 182.35H242.38V197.14H569.5V182.35Z" stroke="#774D17" stroke-width="3" stroke-linejoin="round"/>
<path d="M324.79 197.14H289.71V207.2H324.79V197.14Z" stroke="#774D17" stroke-width="3" stroke-linejoin="round"/>
<path d="M525.79 197.14H490.71V207.2H525.79V197.14Z" stroke="#774D17" stroke-width="3" stroke-linejoin="round"/>
<path d="M311.68 91.1H287.71V182.36H311.68V91.1Z" stroke="#774D17" stroke-width="3" stroke-linejoin="round"/>
<path d="M311.68 109.5H287.71V119.35H311.68V109.5Z" stroke="#774D17" stroke-width="2" stroke-linejoin="round"/>
<path d="M332.5 118.5H312.71V128.35H332.5V118.5Z" stroke="#774D17" stroke-width="2" stroke-linejoin="round"/>
<path d="M332.3 103.88H311.68V182.36H332.3V103.88Z" stroke="#774D17" stroke-width="3" stroke-linejoin="round"/>
<path d="M451.5 158.38H360.24V182.35H451.5V158.38Z" stroke="#774D17" stroke-width="3" stroke-linejoin="round"/>
<path d="M429.29 164.39H382.45V176.34H429.29V164.39Z" stroke="#774D17" stroke-width="2" stroke-linejoin="round"/>
<path d="M440.52 117.98H365.21V137.76H440.52V117.98Z" stroke="#774D17" stroke-width="3" stroke-linejoin="round"/>
<path d="M382.5 117.98H375.49V137.76H382.5V117.98Z" stroke="#774D17" stroke-width="2" stroke-linejoin="round"/>
<path d="M424.45 137.77H345.97V158.39H424.45V137.77Z" stroke="#774D17" stroke-width="3" stroke-linejoin="round"/>
<path d="M364.18 137.77H355.68V158.39H364.18V137.77Z" stroke="#774D17" stroke-width="2" stroke-linejoin="round"/>
<path d="M221.36 516.5L221.01 551.5H227.04L237.5 516.5H221.36Z" stroke="#774D17" stroke-width="3" stroke-linejoin="round"/>
<path d="M364.33 516.5L364.67 551.5H358.76L348.5 516.5H364.33Z" stroke="#774D17" stroke-width="3" stroke-linejoin="round"/>
<path d="M362.46 317.5H223.22C220.983 317.5 219.17 319.313 219.17 321.55V512.2C219.17 514.437 220.983 516.25 223.22 516.25H362.46C364.697 516.25 366.51 514.437 366.51 512.2V321.55C366.51 319.313 364.697 317.5 362.46 317.5Z" stroke="#774D17" stroke-width="3" stroke-linejoin="round"/>
<path d="M366.51 442.68C366.51 442.68 335.36 437.27 292.84 437.27C250.32 437.27 219.17 442.68 219.17 442.68V479.78H366.51V442.68Z" stroke="#774D17" stroke-width="3" stroke-linejoin="round"/>
<path d="M366.51 376.11V475.67C366.51 477.94 364.67 479.78 362.4 479.78H223.27C221 479.78 219.16 477.94 219.16 475.67V376.11C219.16 373.84 217.32 372 215.05 372H200.5C198.23 372 196.39 373.84 196.39 376.11V512.14C196.39 514.41 198.23 516.25 200.5 516.25H385.15C387.42 516.25 389.26 514.41 389.26 512.14V376.11C389.26 373.84 387.42 372 385.15 372H370.6C368.33 372 366.49 373.84 366.49 376.11H366.51Z" stroke="#774D17" stroke-width="3" stroke-linejoin="round"/>
<path d="M255.09 337.66C255.09 340.63 252.68 343.04 249.71 343.04C246.74 343.04 244.33 340.63 244.33 337.66C244.33 334.69 246.74 332.28 249.71 332.28C252.68 332.28 255.09 334.69 255.09 337.66Z" stroke="#774D17" stroke-width="2" stroke-linejoin="round"/>
<path d="M275.16 357.73C275.16 360.7 272.75 363.11 269.78 363.11C266.81 363.11 264.4 360.7 264.4 357.73C264.4 354.76 266.81 352.35 269.78 352.35C272.75 352.35 275.16 354.76 275.16 357.73Z" stroke="#774D17" stroke-width="2" stroke-linejoin="round"/>
<path d="M255.09 377.8C255.09 380.77 252.68 383.18 249.71 383.18C246.74 383.18 244.33 380.77 244.33 377.8C244.33 374.83 246.74 372.42 249.71 372.42C252.68 372.42 255.09 374.83 255.09 377.8Z" stroke="#774D17" stroke-width="2" stroke-linejoin="round"/>
<path d="M295.22 337.66C295.22 340.63 292.81 343.04 289.84 343.04C286.87 343.04 284.46 340.63 284.46 337.66C284.46 334.69 286.87 332.28 289.84 332.28C292.81 332.28 295.22 334.69 295.22 337.66Z" stroke="#774D17" stroke-width="2" stroke-linejoin="round"/>
<path d="M295.22 377.8C295.22 380.77 292.81 383.18 289.84 383.18C286.87 383.18 284.46 380.77 284.46 377.8C284.46 374.83 286.87 372.42 289.84 372.42C292.81 372.42 295.22 374.83 295.22 377.8Z" stroke="#774D17" stroke-width="2" stroke-linejoin="round"/>
<path d="M275.16 397.87C275.16 400.84 272.75 403.25 269.78 403.25C266.81 403.25 264.4 400.84 264.4 397.87C264.4 394.9 266.81 392.49 269.78 392.49C272.75 392.49 275.16 394.9 275.16 397.87Z" stroke="#774D17" stroke-width="2" stroke-linejoin="round"/>
<path d="M295.22 417.94C295.22 420.91 292.81 423.32 289.84 423.32C286.87 423.32 284.46 420.91 284.46 417.94C284.46 414.97 286.87 412.56 289.84 412.56C292.81 412.56 295.22 414.97 295.22 417.94Z" stroke="#774D17" stroke-width="2" stroke-linejoin="round"/>
<path d="M255.09 417.94C255.09 420.91 252.68 423.32 249.71 423.32C246.74 423.32 244.33 420.91 244.33 417.94C244.33 414.97 246.74 412.56 249.71 412.56C252.68 412.56 255.09 414.97 255.09 417.94Z" stroke="#774D17" stroke-width="2" stroke-linejoin="round"/>
<path d="M315.29 357.73C315.29 360.7 312.88 363.11 309.91 363.11C306.94 363.11 304.53 360.7 304.53 357.73C304.53 354.76 306.94 352.35 309.91 352.35C312.88 352.35 315.29 354.76 315.29 357.73Z" stroke="#774D17" stroke-width="2" stroke-linejoin="round"/>
<path d="M335.36 337.66C335.36 340.63 332.95 343.04 329.98 343.04C327.01 343.04 324.6 340.63 324.6 337.66C324.6 334.69 327.01 332.28 329.98 332.28C332.95 332.28 335.36 334.69 335.36 337.66Z" stroke="#774D17" stroke-width="2" stroke-linejoin="round"/>
<path d="M335.36 377.8C335.36 380.77 332.95 383.18 329.98 383.18C327.01 383.18 324.6 380.77 324.6 377.8C324.6 374.83 327.01 372.42 329.98 372.42C332.95 372.42 335.36 374.83 335.36 377.8Z" stroke="#774D17" stroke-width="2" stroke-linejoin="round"/>
<path d="M315.29 397.87C315.29 400.84 312.88 403.25 309.91 403.25C306.94 403.25 304.53 400.84 304.53 397.87C304.53 394.9 306.94 392.49 309.91 392.49C312.88 392.49 315.29 394.9 315.29 397.87Z" stroke="#774D17" stroke-width="2" stroke-linejoin="round"/>
<path d="M335.36 417.94C335.36 420.91 332.95 423.32 329.98 423.32C327.01 423.32 324.6 420.91 324.6 417.94C324.6 414.97 327.01 412.56 329.98 412.56C332.95 412.56 335.36 414.97 335.36 417.94Z" stroke="#774D17" stroke-width="2" stroke-linejoin="round"/>
<path d="M586.13 435.56C586.13 435.56 599.33 384.37 570.61 347.21" stroke="#774D17" stroke-width="2" stroke-linejoin="round"/>
<path d="M576 355.47C576 355.47 579.62 359.7 582.94 357.37C588.79 353.27 586.67 336.85 569.1 332.14C551.12 327.32 548.42 323.34 548.42 323.34C548.42 323.34 551.93 347.86 561.28 358.18C570.63 368.5 577.88 362.3 576 355.47Z" stroke="#774D17" stroke-width="3" stroke-linejoin="round"/>
<path d="M548.42 323.34C548.42 323.34 552.78 332.1 562.72 339.7C572.66 347.3 576 355.47 576 355.47" fill="#8B995F"/>
<path d="M548.42 323.34C548.42 323.34 552.78 332.1 562.72 339.7C572.66 347.3 576 355.47 576 355.47" stroke="#774D17" stroke-miterlimit="10"/>
<path d="M548.42 323.34C548.42 323.34 552.78 332.1 562.72 339.7C572.66 347.3 576 355.47 576 355.47" stroke="#774D17" stroke-width="2" stroke-linejoin="round"/>
<path d="M588.33 410.43C588.33 410.43 586.15 350.43 599.33 306.77" stroke="#774D17" stroke-width="2" stroke-linejoin="round"/>
<path d="M590.82 403.31C590.82 403.31 585.91 364.3 610.65 338.1" stroke="#774D17" stroke-width="2" stroke-linejoin="round"/>
<path d="M594.53 403.62L597.65 378.3H578.38L581.5 403.62C581.67 404.98 581.53 406.36 581.08 407.66L562.72 461.62C561.76 464.45 563.86 467.38 566.85 467.38H609.17C612.16 467.38 614.26 464.45 613.3 461.62L594.94 407.66C594.5 406.36 594.36 404.98 594.52 403.62" fill="#8F6B2D"/>
<path d="M594.53 403.62L597.65 378.3H578.38L581.5 403.62C581.67 404.98 581.53 406.36 581.08 407.66L562.72 461.62C561.76 464.45 563.86 467.38 566.85 467.38H609.17C612.16 467.38 614.26 464.45 613.3 461.62L594.94 407.66C594.5 406.36 594.36 404.98 594.52 403.62" stroke="#774D17" stroke-miterlimit="10"/>
<path d="M594.53 402.34L597.65 376.5H578.38L581.5 402.34C581.67 403.73 581.53 405.13 581.08 406.46L562.72 461.51C561.76 464.39 563.86 467.39 566.85 467.39H609.17C612.16 467.39 614.26 464.4 613.3 461.51L594.94 406.46C594.5 405.14 594.36 403.73 594.52 402.34H594.53Z" stroke="#774D17" stroke-width="3" stroke-linejoin="round"/>
<path d="M599.65 373.19H576.38C574.97 373.19 573.83 374.33 573.83 375.74C573.83 377.15 574.97 378.29 576.38 378.29H599.65C601.06 378.29 602.2 377.15 602.2 375.74C602.2 374.33 601.06 373.19 599.65 373.19Z" fill="white" stroke="#774D17" stroke-miterlimit="10"/>
<path d="M599.65 373.19H576.38C574.97 373.19 573.83 374.33 573.83 375.74C573.83 377.15 574.97 378.29 576.38 378.29H599.65C601.06 378.29 602.2 377.15 602.2 375.74C602.2 374.33 601.06 373.19 599.65 373.19Z" fill="#774D17"/>
<path d="M595.94 320.36C595.94 320.36 594.23 325.04 590.71 324.13C584.52 322.52 581.15 308.09 594.41 298.63C607.98 288.95 609 284.77 609 284.77C609 284.77 613.75 306.44 609.13 318.02C604.52 329.6 596.5 326.68 595.94 320.36Z" stroke="#774D17" stroke-width="3" stroke-linejoin="round"/>
<path d="M609 284.76C609 284.76 608.09 293.47 602.14 302.97C596.19 312.46 595.95 320.36 595.95 320.36" fill="#8B995F"/>
<path d="M609 284.76C609 284.76 608.09 293.47 602.14 302.97C596.19 312.46 595.95 320.36 595.95 320.36" stroke="#774D17" stroke-miterlimit="10"/>
<path d="M609 284.76C609 284.76 608.09 293.47 602.14 302.97C596.19 312.46 595.95 320.36 595.95 320.36" stroke="#774D17" stroke-width="2" stroke-linejoin="round"/>
<path d="M605.92 344C605.92 344 602.84 346.96 600.47 344.92C596.31 341.34 599.17 328.97 612.95 326.71C627.04 324.39 629.4 321.56 629.4 321.56C629.4 321.56 625.58 340.88 617.66 348.04C609.74 355.21 603.97 349.07 605.92 344Z" stroke="#774D17" stroke-width="3" stroke-linejoin="round"/>
<path d="M629.4 321.56C629.4 321.56 625.41 327.92 617.24 332.97C609.08 338.02 605.91 344 605.91 344" fill="#8B995F"/>
<path d="M629.4 321.56C629.4 321.56 625.41 327.92 617.24 332.97C609.08 338.02 605.91 344 605.91 344" stroke="#774D17" stroke-miterlimit="10"/>
<path d="M629.4 321.56C629.4 321.56 625.41 327.92 617.24 332.97C609.08 338.02 605.91 344 605.91 344" stroke="#774D17" stroke-width="2" stroke-linejoin="round"/>
<path d="M429.19 517.5L428.68 550.5H437.56L452.98 517.5H429.19Z" stroke="#774D17" stroke-width="3" stroke-linejoin="round"/>
<path d="M633.5 517.5L634 550.5H625.4L610.49 517.5H633.5Z" stroke="#774D17" stroke-width="3" stroke-linejoin="round"/>
<path d="M652.5 467.39H409.54V517.36H652.5V467.39Z" stroke="#774D17" stroke-width="3" stroke-linejoin="round"/>
<path d="M644.19 475.84H417.86V508.9H644.19V475.84Z" stroke="#774D17" stroke-width="3" stroke-linejoin="round"/>
<path d="M548.84 488.04H513.2C511.52 488.04 510.15 486.68 510.15 484.99C510.15 483.3 511.51 481.94 513.2 481.94H548.84C550.52 481.94 551.89 483.3 551.89 484.99C551.89 486.68 550.53 488.04 548.84 488.04Z" fill="white" stroke="#774D17" stroke-miterlimit="10"/>
<path d="M548.84 488.04H513.2C511.52 488.04 510.15 486.68 510.15 484.99C510.15 483.3 511.51 481.94 513.2 481.94H548.84C550.52 481.94 551.89 483.3 551.89 484.99C551.89 486.68 550.53 488.04 548.84 488.04Z" fill="#774D17"/>
<path d="M157.43 221.76C157.43 224.56 155.16 226.82 152.37 226.82C149.58 226.82 147.31 224.55 147.31 221.76C147.31 218.97 149.58 216.7 152.37 216.7C155.16 216.7 157.43 218.97 157.43 221.76Z" fill="#D78F68" stroke="#774D17" stroke-miterlimit="10"/>
<path d="M155.485 225.757C157.687 224.037 158.079 220.857 156.359 218.655C154.639 216.452 151.46 216.06 149.257 217.78C147.054 219.5 146.663 222.679 148.382 224.882C150.102 227.085 153.282 227.477 155.485 225.757Z" fill="#774D17"/>
<path d="M192.97 295.57H111.77L122.29 221.76H182.45L192.97 295.57Z" stroke="#774D17" stroke-width="3" stroke-linejoin="round"/>
<path d="M152.37 199.89H80.42C78.49 199.89 76.92 201.43 76.92 203.34V540H55C48.92 540 44 544.92 44 551H115.5C115.5 544.92 110.58 540 104.5 540H83.92V206.79H148.87V218.48H155.87V203.34C155.87 201.43 154.3 199.89 152.37 199.89Z" stroke="#774D17" stroke-width="3" stroke-linejoin="round"/>
<path d="M1363.92 551.82H1354.93L1343.47 503.55H1359.83L1363.92 551.82Z" stroke="#774D17" stroke-width="3" stroke-linejoin="round"/>
<path d="M1244.77 551.82H1253.77L1265.22 503.55H1248.86L1244.77 551.82Z" stroke="#774D17" stroke-width="3" stroke-linejoin="round"/>
<path d="M1349.34 402.24H1259.36C1243.81 402.24 1231.2 414.848 1231.2 430.4V493.66C1231.2 509.212 1243.81 521.82 1259.36 521.82H1349.34C1364.89 521.82 1377.5 509.212 1377.5 493.66V430.4C1377.5 414.848 1364.89 402.24 1349.34 402.24Z" fill="#8F6B2D" stroke="#774D17" stroke-width="3" stroke-linejoin="round"/>
<path d="M1242.82 510H1365.88" stroke="#774D17" stroke-width="2" stroke-linejoin="round"/>
<path d="M1252.26 417.98H1291.33C1296.63 417.98 1300.93 422.28 1300.93 427.58V441.78C1300.93 447.08 1296.63 451.38 1291.33 451.38H1252.25C1246.95 451.38 1242.65 447.08 1242.65 441.78V427.58C1242.65 422.28 1246.95 417.98 1252.25 417.98H1252.26Z" fill="#8F6B2D" stroke="#774D17" stroke-width="3" stroke-linejoin="round"/>
<path d="M1272.07 431.86C1274.06 431.86 1275.67 430.248 1275.67 428.26C1275.67 426.272 1274.06 424.66 1272.07 424.66C1270.08 424.66 1268.47 426.272 1268.47 428.26C1268.47 430.248 1270.08 431.86 1272.07 431.86Z" fill="#774D17"/>
<path d="M1317.36 417.98H1356.44C1361.74 417.98 1366.04 422.28 1366.04 427.58V441.78C1366.04 447.08 1361.74 451.38 1356.44 451.38H1317.37C1312.07 451.38 1307.77 447.08 1307.77 441.78V427.58C1307.77 422.28 1312.07 417.98 1317.37 417.98H1317.36Z" fill="#8F6B2D" stroke="#774D17" stroke-width="3" stroke-linejoin="round"/>
<path d="M1340.18 429.275C1340.71 427.359 1339.59 425.375 1337.67 424.843C1335.76 424.311 1333.77 425.433 1333.24 427.348C1332.71 429.264 1333.83 431.248 1335.75 431.78C1337.66 432.312 1339.65 431.191 1340.18 429.275Z" fill="#774D17"/>
<path d="M1252.26 460.74H1291.33C1296.63 460.74 1300.93 465.04 1300.93 470.34V484.54C1300.93 489.84 1296.63 494.14 1291.33 494.14H1252.25C1246.95 494.14 1242.65 489.84 1242.65 484.54V470.34C1242.65 465.04 1246.95 460.74 1252.25 460.74H1252.26Z" fill="#8F6B2D" stroke="#774D17" stroke-width="3" stroke-linejoin="round"/>
<path d="M1275.6 472.029C1276.13 470.114 1275.01 468.129 1273.09 467.595C1271.18 467.061 1269.19 468.182 1268.66 470.097C1268.13 472.012 1269.25 473.997 1271.16 474.531C1273.08 475.065 1275.06 473.945 1275.6 472.029Z" fill="#774D17"/>
<path d="M1317.36 460.74H1356.44C1361.74 460.74 1366.04 465.04 1366.04 470.34V484.54C1366.04 489.84 1361.74 494.14 1356.44 494.14H1317.36C1312.06 494.14 1307.76 489.84 1307.76 484.54V470.34C1307.76 465.04 1312.06 460.74 1317.36 460.74Z" fill="#8F6B2D" stroke="#774D17" stroke-width="3" stroke-linejoin="round"/>
<path d="M1336.63 474.62C1338.62 474.62 1340.23 473.008 1340.23 471.02C1340.23 469.032 1338.62 467.42 1336.63 467.42C1334.64 467.42 1333.03 469.032 1333.03 471.02C1333.03 473.008 1334.64 474.62 1336.63 474.62Z" fill="#774D17"/>
<path d="M1821.93 72.5H1687.64V287.5H1821.93V72.5Z" fill="#8F6B2D" stroke="#774D17" stroke-width="3" stroke-linejoin="round"/>
<path opacity="0.5" d="M1813.39 196.83V278.97H1696.17V147.01C1727.48 148.05 1772.34 157.76 1813.39 196.83Z" fill="#774D17"/>
<path d="M1672.52 137.56H1580.96V284.15H1672.52V137.56Z" fill="#8F6B2D" stroke="#774D17" stroke-width="3" stroke-linejoin="round"/>
<path opacity="0.5" d="M1586.78 222.33V278.33H1666.7V188.36C1645.36 189.07 1614.77 195.69 1586.78 222.33Z" fill="#774D17"/>
<path d="M1819.32 358.61H1491.61C1475.64 358.61 1462.69 371.558 1462.69 387.53V456.36C1462.69 472.332 1475.64 485.28 1491.61 485.28H1819.32C1835.29 485.28 1848.24 472.332 1848.24 456.36V387.53C1848.24 371.558 1835.29 358.61 1819.32 358.61Z" stroke="#774D17" stroke-width="3" stroke-linejoin="round"/>
<path d="M1819.32 475.37H1491.61C1475.64 475.37 1462.69 488.318 1462.69 504.29V522.6C1462.69 538.572 1475.64 551.52 1491.61 551.52H1819.32C1835.29 551.52 1848.24 538.572 1848.24 522.6V504.29C1848.24 488.318 1835.29 475.37 1819.32 475.37Z" fill="#8F6B2D" stroke="#774D17" stroke-width="3" stroke-linejoin="round"/>
<path d="M1497.51 510.88H1813.42" stroke="#774D17" stroke-width="3" stroke-linejoin="round"/>
<path d="M1856.69 422.21H1845.6C1833.55 422.21 1823.79 431.975 1823.79 444.02V529.71C1823.79 541.755 1833.55 551.52 1845.6 551.52H1856.69C1868.74 551.52 1878.5 541.755 1878.5 529.71V444.02C1878.5 431.975 1868.74 422.21 1856.69 422.21Z" fill="#8F6B2D" stroke="#774D17" stroke-width="3" stroke-linejoin="round"/>
<path d="M1456.26 422.21H1445.17C1433.12 422.21 1423.36 431.975 1423.36 444.02V529.71C1423.36 541.755 1433.12 551.52 1445.17 551.52H1456.26C1468.31 551.52 1478.07 541.755 1478.07 529.71V444.02C1478.07 431.975 1468.31 422.21 1456.26 422.21Z" fill="#8F6B2D" stroke="#774D17" stroke-width="3" stroke-linejoin="round"/>
<path d="M1376.73 80.23H1371.72C1371.72 84.64 1362.68 89.09 1353.4 93.93C1349.54 95.94 1345.65 98.02 1342.34 100.2C1338.1 102.99 1334.83 105.93 1333.87 109.07C1333.49 110.33 1333.58 111.67 1333.59 112.99C1333.6 114.39 1333.63 115.89 1333.67 117.45C1333.81 122.65 1334.14 128.53 1334.82 133.67C1335.39 138.02 1336.21 141.83 1337.37 144.25C1338.19 145.97 1339.19 146.98 1340.39 146.98H1413.16C1414.36 146.98 1415.36 145.97 1416.18 144.25C1417.34 141.83 1418.16 138.02 1418.73 133.67C1419.41 128.53 1419.74 122.65 1419.88 117.45C1419.92 115.89 1419.95 114.39 1419.96 112.99C1419.97 111.67 1420.07 110.33 1419.68 109.07C1418.72 105.92 1415.46 102.99 1411.21 100.2C1405.5 96.45 1398.04 92.98 1392.06 89.65C1386.24 86.41 1381.84 83.32 1381.84 80.24H1376.7L1376.73 80.23Z" stroke="#774D17" stroke-width="3" stroke-miterlimit="10"/>
<path d="M1371.72 80.23H1374.91H1378.47H1381.84V60.05H1378.47H1374.91H1371.72V80.23Z" stroke="#774D17" stroke-width="3" stroke-miterlimit="10"/>
<path d="M348 230H349" stroke="#774D17" stroke-width="3" stroke-linejoin="round"/>
<path d="M1377 59.5V-46.5" stroke="#774D17" stroke-width="3" stroke-miterlimit="10"/>
<path d="M1477.73 145.23H1472.72C1472.72 149.64 1463.68 154.09 1454.4 158.93C1450.54 160.94 1446.65 163.02 1443.34 165.2C1439.1 167.99 1435.83 170.93 1434.87 174.07C1434.49 175.33 1434.58 176.67 1434.59 177.99C1434.6 179.39 1434.63 180.89 1434.67 182.45C1434.81 187.65 1435.14 193.53 1435.82 198.67C1436.39 203.02 1437.21 206.83 1438.37 209.25C1439.19 210.97 1440.19 211.98 1441.39 211.98H1514.16C1515.36 211.98 1516.36 210.97 1517.18 209.25C1518.34 206.83 1519.16 203.02 1519.73 198.67C1520.41 193.53 1520.74 187.65 1520.88 182.45C1520.92 180.89 1520.95 179.39 1520.96 177.99C1520.97 176.67 1521.07 175.33 1520.68 174.07C1519.72 170.92 1516.46 167.99 1512.21 165.2C1506.5 161.45 1499.04 157.98 1493.06 154.65C1487.24 151.41 1482.84 148.32 1482.84 145.24H1477.7L1477.73 145.23Z" stroke="#774D17" stroke-width="3" stroke-miterlimit="10"/>
<path d="M1472.72 145.23H1475.91H1479.47H1482.84V125.05H1479.47H1475.91H1472.72V145.23Z" stroke="#774D17" stroke-width="3" stroke-miterlimit="10"/>
<path d="M1478 124.5V-33" stroke="#774D17" stroke-width="3" stroke-miterlimit="10"/>
<path d="M1513.75 388.37L1534.87 408.25" stroke="#774D17" stroke-width="3" stroke-linecap="round" stroke-linejoin="round"/>
<path d="M1555.38 430L1576.5 449.88" stroke="#774D17" stroke-width="3" stroke-linecap="round" stroke-linejoin="round"/>
<path d="M1575.88 387.75L1556 408.87" stroke="#774D17" stroke-width="3" stroke-linecap="round" stroke-linejoin="round"/>
<path d="M1534.25 429.38L1514.37 450.5" stroke="#774D17" stroke-width="3" stroke-linecap="round" stroke-linejoin="round"/>
<path d="M1545.13 425.96C1548.9 425.96 1551.96 422.902 1551.96 419.13C1551.96 415.358 1548.9 412.3 1545.13 412.3C1541.36 412.3 1538.3 415.358 1538.3 419.13C1538.3 422.902 1541.36 425.96 1545.13 425.96Z" stroke="#774D17" stroke-width="3" stroke-linecap="round" stroke-linejoin="round"/>
<path d="M1621.25 388.37L1642.37 408.25" stroke="#774D17" stroke-width="3" stroke-linecap="round" stroke-linejoin="round"/>
<path d="M1662.88 430L1684 449.88" stroke="#774D17" stroke-width="3" stroke-linecap="round" stroke-linejoin="round"/>
<path d="M1683.38 387.75L1663.5 408.87" stroke="#774D17" stroke-width="3" stroke-linecap="round" stroke-linejoin="round"/>
<path d="M1641.75 429.38L1621.87 450.5" stroke="#774D17" stroke-width="3" stroke-linecap="round" stroke-linejoin="round"/>
<path d="M1652.63 425.96C1656.4 425.96 1659.46 422.902 1659.46 419.13C1659.46 415.358 1656.4 412.3 1652.63 412.3C1648.86 412.3 1645.8 415.358 1645.8 419.13C1645.8 422.902 1648.86 425.96 1652.63 425.96Z" stroke="#774D17" stroke-width="3" stroke-linecap="round" stroke-linejoin="round"/>
<path d="M1035.34 510.4C1028.52 510.4 1022.11 510.16 1017.28 509.73C1009.76 509.06 1008.49 508.23 1008.49 506.63C1008.49 505.03 1009.76 504.2 1017.28 503.53C1022.11 503.1 1028.53 502.86 1035.34 502.86C1042.15 502.86 1048.57 503.1 1053.4 503.53C1060.92 504.2 1062.19 505.03 1062.19 506.63C1062.19 508.23 1060.92 509.06 1053.4 509.73C1048.57 510.16 1042.15 510.4 1035.34 510.4Z" fill="#8F6B2D"/>
<path d="M1035.34 504.36C1049.34 504.36 1060.7 505.38 1060.7 506.63C1060.7 507.88 1049.35 508.9 1035.34 508.9C1021.33 508.9 1009.98 507.88 1009.98 506.63C1009.98 505.38 1021.33 504.36 1035.34 504.36ZM1035.34 501.36C1028.48 501.36 1022.02 501.6 1017.14 502.04C1011.69 502.53 1006.98 502.95 1006.98 506.63C1006.98 510.31 1011.69 510.74 1017.14 511.22C1022.02 511.66 1028.48 511.9 1035.34 511.9C1042.2 511.9 1048.66 511.66 1053.54 511.22C1058.99 510.73 1063.7 510.31 1063.7 506.63C1063.7 502.95 1058.99 502.52 1053.54 502.04C1048.66 501.6 1042.2 501.36 1035.34 501.36Z" fill="#774D17"/>
<path d="M1728.75 388.37L1749.87 408.25" stroke="#774D17" stroke-width="3" stroke-linecap="round" stroke-linejoin="round"/>
<path d="M1770.38 430L1791.5 449.88" stroke="#774D17" stroke-width="3" stroke-linecap="round" stroke-linejoin="round"/>
<path d="M1790.88 387.75L1771 408.87" stroke="#774D17" stroke-width="3" stroke-linecap="round" stroke-linejoin="round"/>
<path d="M1749.25 429.38L1729.37 450.5" stroke="#774D17" stroke-width="3" stroke-linecap="round" stroke-linejoin="round"/>
<path d="M1760.13 425.96C1763.9 425.96 1766.96 422.902 1766.96 419.13C1766.96 415.358 1763.9 412.3 1760.13 412.3C1756.36 412.3 1753.3 415.358 1753.3 419.13C1753.3 422.902 1756.36 425.96 1760.13 425.96Z" stroke="#774D17" stroke-width="3" stroke-linecap="round" stroke-linejoin="round"/>
<path d="M834.88 500.18C834.88 501.5 825.77 502.57 814.54 502.57C803.31 502.57 794.2 501.5 794.2 500.18C794.2 498.86 803.31 497.79 814.54 497.79C825.77 497.79 834.88 498.86 834.88 500.18Z" fill="white"/>
<g style="mix-blend-mode:multiply">
<path d="M834.88 500.18C834.88 501.5 825.77 502.57 814.54 502.57C803.31 502.57 794.2 501.5 794.2 500.18C794.2 498.86 803.31 497.79 814.54 497.79C825.77 497.79 834.88 498.86 834.88 500.18Z" fill="#CBD4F4"/>
</g>
<path d="M814.54 504.07C809.05 504.07 803.88 503.82 799.98 503.36C794.54 502.72 792.7 501.92 792.7 500.18C792.7 498.44 794.54 497.64 799.98 497C803.88 496.54 809.05 496.29 814.54 496.29C820.03 496.29 825.2 496.54 829.1 497C834.55 497.64 836.38 498.44 836.38 500.18C836.38 501.92 834.54 502.72 829.1 503.36C825.2 503.82 820.03 504.07 814.54 504.07Z" fill="#8F6B2D"/>
<path d="M814.54 497.79C825.77 497.79 834.88 498.86 834.88 500.18C834.88 501.5 825.77 502.57 814.54 502.57C803.31 502.57 794.2 501.5 794.2 500.18C794.2 498.86 803.31 497.79 814.54 497.79ZM814.54 494.79C808.99 494.79 803.76 495.05 799.81 495.51C796.18 495.94 791.2 496.52 791.2 500.18C791.2 503.84 796.18 504.42 799.81 504.85C803.76 505.31 809 505.57 814.54 505.57C820.08 505.57 825.32 505.31 829.27 504.85C832.9 504.42 837.88 503.84 837.88 500.18C837.88 496.52 832.9 495.94 829.27 495.51C825.32 495.04 820.08 494.79 814.54 494.79Z" fill="#774D17"/>
<g opacity="0.7">
<path d="M814 477.65C814.99 475 817.14 466.39 813.03 448.04C809.4 431.83 801.92 419.58 801.92 419.58C801.92 419.58 799.8 433.73 802.48 450.12C805.26 467.05 811.11 475.52 812.99 477.87C813.02 478.13 813.05 478.39 813.08 478.63C813.51 482.66 812.13 487.99 810.92 492.7C809.97 496.4 809.06 499.89 809.06 502.49H810.09C810.09 500.02 810.98 496.59 811.91 492.95C813.15 488.16 814.55 482.73 814.1 478.52C814.07 478.24 814.04 477.94 814 477.64V477.65Z" fill="#774D17"/>
</g>
<g opacity="0.7">
<path d="M805.02 476.93C804.97 476.64 804.92 476.32 804.86 476.01C805.76 473.15 807.56 463.91 802.18 444.71C801.44 442.06 800.6 439.52 799.72 437.11C798.48 433.74 797.16 430.65 795.87 427.91C795.69 427.52 795.5 427.14 795.32 426.76C791.86 419.61 788.83 415.19 788.83 415.19C788.83 415.19 787.37 430.3 791.13 447.5C795.02 465.28 801.69 473.91 803.81 476.3C803.86 476.57 803.9 476.84 803.94 477.1C805.02 483.82 807.5 500.73 807.84 507.21L808.93 507.15C808.59 500.63 806.1 483.66 805.02 476.93Z" fill="#774D17"/>
</g>
<g opacity="0.7">
<path d="M801.89 489.28C801.76 489.03 801.62 488.77 801.48 488.5C801.47 487.54 801.34 485.88 800.75 483.49C800.62 482.95 800.46 482.37 800.28 481.75C800.19 481.44 800.09 481.12 799.98 480.79C799.77 480.13 799.53 479.44 799.25 478.7C798.97 477.96 798.67 477.19 798.32 476.38C796.6 472.32 793.96 467.28 789.91 461.22C787.32 457.33 784.55 453.85 781.92 450.85C781.04 449.85 780.18 448.9 779.34 448.01C778.78 447.42 778.23 446.85 777.7 446.31C776.9 445.5 776.14 444.74 775.41 444.05C774.69 443.36 774.01 442.73 773.39 442.16C772.98 441.78 772.59 441.43 772.22 441.11C771.85 440.79 771.52 440.5 771.22 440.24C770.01 439.2 769.3 438.66 769.3 438.66C769.3 438.66 772.41 452.63 780.82 466.96C789.5 481.76 798.01 487.55 800.61 489.08C800.73 489.31 800.85 489.54 800.96 489.76C804.28 496.23 805.78 507.66 804.44 516.35L805.45 516.51C806.82 507.64 805.27 495.94 801.86 489.3L801.89 489.28Z" fill="#774D17"/>
</g>
<g opacity="0.7">
<path d="M833.97 406.4C833.97 406.4 825.38 420.47 821.21 439.09C816.54 459.92 818.9 469.83 820.05 472.99C819.25 478.2 817.99 487.96 816.59 504.58L817.61 504.67C818.97 488.6 820.18 478.98 820.98 473.68C822.79 471.5 829.98 461.79 833.31 441.48C836.4 422.66 833.96 406.4 833.96 406.4H833.97Z" fill="#774D17"/>
</g>
<g opacity="0.7">
<path d="M846.97 435.28C846.7 435.56 846.41 435.86 846.1 436.2C845.79 436.54 845.45 436.9 845.1 437.29C844.75 437.68 844.38 438.1 843.99 438.54C843.8 438.76 843.6 438.99 843.4 439.22C843 439.69 842.58 440.18 842.15 440.7C841.72 441.22 841.28 441.76 840.83 442.33C840.38 442.9 839.92 443.49 839.45 444.1C839.22 444.41 838.98 444.72 838.74 445.04C837.56 446.63 836.34 448.37 835.13 450.23C834.16 451.72 833.2 453.29 832.26 454.93C823.65 470.01 822.74 478.33 822.7 480.86L822.31 481.41L822.26 481.5C822.2 481.63 816.42 494.37 815.83 504.6L816.85 504.66C817.41 494.93 822.79 482.8 823.17 481.97L824 480.82C825.33 479.79 827.6 477.8 830.36 474.39C833.04 471.09 836.18 466.48 839.37 460.15C846.24 446.55 848.91 433.37 848.91 433.37C848.91 433.37 848.19 434.04 846.98 435.29L846.97 435.28Z" fill="#774D17"/>
</g>
<g opacity="0.7">
<path d="M849.48 469.5C844.11 468.27 838.55 474.3 836.87 476.31C831.01 480.67 826.72 487.52 823.92 493.22C819.85 501.5 817.94 509.2 817.92 509.28L818.92 509.52C818.99 509.25 825.02 485.22 838.71 476.27C841.83 475.69 847.08 475.93 848.38 483.61C850.9 498.47 860.69 518.12 860.69 518.12C864.11 484.97 855.9 470.96 849.48 469.5Z" fill="#774D17"/>
</g>
<g opacity="0.7">
<path d="M802.32 502.44C800.21 498.15 796.98 492.99 792.57 489.71C791.31 488.2 787.12 483.66 783.08 484.58C778.24 485.68 772.06 496.23 774.64 521.19C774.64 521.19 782.01 506.39 783.91 495.2C784.89 489.42 788.84 489.23 791.19 489.67C801.5 496.41 806.04 514.5 806.09 514.7L806.84 514.52C806.83 514.46 805.39 508.66 802.33 502.43L802.32 502.44Z" fill="#774D17"/>
</g>
<path d="M814.78 551.17C812.23 551.17 809.65 550.97 807.13 550.57L804.31 550.12C804.07 550.08 803.84 549.99 803.65 549.84C794.42 542.98 794.93 531.05 795.34 521.46C795.49 517.93 795.64 514.6 795.28 511.99C794.62 507.2 793.39 502.32 793.03 500.94C792.87 500.33 793.11 499.68 793.63 499.32C793.89 499.14 794.18 499.06 794.48 499.06C794.78 499.06 795.09 499.15 795.35 499.34C796.41 500.06 803.67 501.06 814.54 501.06C825.41 501.06 832.38 500.1 833.66 499.38C833.95 499.01 834.38 498.81 834.84 498.81C835.02 498.81 835.19 498.84 835.37 498.91C836.09 499.18 836.49 499.96 836.29 500.7C836.03 501.69 834.68 506.86 833.97 512C833.61 514.61 833.75 517.94 833.91 521.47C834.32 531.06 834.84 542.99 825.6 549.85C825.42 549.99 825.2 550.08 824.98 550.12L823.59 550.37C820.69 550.9 817.72 551.17 814.77 551.17H814.78Z" fill="#8F6B2D"/>
<path d="M834.85 500.32C834.61 501.24 833.22 506.55 832.49 511.8C831.12 521.71 836.59 539.82 824.71 548.65L823.32 548.9C820.5 549.42 817.64 549.67 814.78 549.67C812.3 549.67 809.82 549.48 807.37 549.09L804.55 548.64C792.67 539.81 798.14 521.7 796.77 511.79C796.1 506.91 794.85 501.96 794.48 500.56C796.07 501.7 804.45 502.56 814.55 502.56C825.38 502.56 834.24 501.56 834.85 500.31M834.85 497.32C834.72 497.32 834.59 497.32 834.46 497.35C833.99 497.41 833.55 497.58 833.18 497.84C833.05 497.93 832.92 498.03 832.8 498.14C831.13 498.75 824.54 499.58 814.55 499.58C804.56 499.58 797.47 498.69 796.13 498.07C795.63 497.74 795.06 497.58 794.48 497.58C793.9 497.58 793.29 497.76 792.78 498.11C791.74 498.83 791.26 500.12 791.58 501.34C791.94 502.7 793.15 507.5 793.8 512.22C794.14 514.69 794 517.96 793.85 521.42C793.42 531.36 792.89 543.73 802.76 551.07C803.15 551.36 803.6 551.55 804.08 551.63L806.9 552.08C809.5 552.49 812.15 552.7 814.78 552.7C817.82 552.7 820.87 552.42 823.86 551.88L825.25 551.63C825.7 551.55 826.13 551.36 826.5 551.09C836.37 543.76 835.84 531.39 835.41 521.44C835.26 517.98 835.12 514.71 835.46 512.24C836.13 507.39 837.39 502.48 837.71 501.25C837.8 500.97 837.85 500.66 837.85 500.35C837.85 498.77 836.63 497.48 835.08 497.36C835 497.36 834.92 497.36 834.84 497.36L834.85 497.32Z" fill="#774D17"/>
<g style="mix-blend-mode:multiply" opacity="0.5">
<path d="M1023.84 510.91C1025.93 510.91 1027.95 510.89 1029.9 510.84C1018.82 510.6 1010.6 509.7 1010.6 508.64V510.58C1014.46 510.79 1018.99 510.91 1023.85 510.91H1023.84Z" fill="#CBD4F4"/>
</g>
<path d="M1035.96 552.25C1031.48 552.25 1026.97 551.91 1022.54 551.23L1021.11 551.01C1014.47 550.95 1009.09 545.53 1009.09 538.87V508.64C1009.09 507.81 1009.76 507.14 1010.59 507.14C1011.1 507.14 1011.55 507.39 1011.82 507.78C1013.57 508.49 1022.53 509.41 1035.95 509.41C1049.37 509.41 1058.32 508.49 1060.08 507.77C1060.35 507.39 1060.8 507.13 1061.31 507.13C1062.14 507.13 1062.81 507.8 1062.81 508.63V538.86C1062.81 545.51 1057.43 550.93 1050.79 551L1049.53 551.2C1045.06 551.89 1040.49 552.25 1035.96 552.25Z" fill="#8F6B2D"/>
<path d="M1061.31 508.64V538.87C1061.31 544.75 1056.55 549.51 1050.67 549.51L1049.3 549.72C1044.88 550.41 1040.42 550.75 1035.96 550.75C1031.5 550.75 1027.14 550.41 1022.77 549.74L1021.23 549.5C1015.35 549.5 1010.59 544.74 1010.59 538.86V508.63C1010.59 509.88 1021.94 510.9 1035.95 510.9C1049.96 510.9 1061.31 509.88 1061.31 508.63M1061.31 505.64C1060.51 505.64 1059.78 505.96 1059.24 506.47C1057.06 507.09 1048.78 507.91 1035.96 507.91C1023.14 507.91 1014.86 507.09 1012.68 506.47C1012.14 505.96 1011.41 505.64 1010.61 505.64C1008.95 505.64 1007.61 506.98 1007.61 508.64V538.87C1007.61 546.31 1013.6 552.38 1021.01 552.51L1022.33 552.71C1026.83 553.4 1031.42 553.75 1035.97 553.75C1040.52 553.75 1045.22 553.39 1049.77 552.69L1050.92 552.51C1058.33 552.38 1064.31 546.31 1064.31 538.87V508.64C1064.31 506.98 1062.97 505.64 1061.31 505.64Z" fill="#774D17"/>
<path d="M1085.97 456.12C1087.08 446.96 1082.68 440.24 1082.68 440.24C1082.68 440.24 1074.56 441.63 1074.6 436.27C1074.62 433.01 1080.21 434.56 1080.21 434.56C1080.21 434.56 1075.66 424.6 1068 425.57C1061.68 426.37 1058.92 431.27 1058.15 432.97H1058.13C1057.89 432.75 1057.65 432.53 1057.4 432.32C1056.64 431.68 1055.82 431.09 1054.94 430.6C1053.2 429.61 1051.17 428.99 1049.1 429.06C1048.98 429.06 1048.86 429.08 1048.74 429.08C1047.83 429.14 1046.93 429.32 1046.08 429.61C1045.1 429.94 1044.18 430.44 1043.34 431.04C1041.67 432.25 1040.37 433.85 1039.28 435.52C1038.2 437.21 1037.33 439 1036.59 440.84C1035.84 442.67 1035.22 444.55 1034.68 446.44C1033.6 450.22 1032.81 454.07 1032.18 457.93C1030.94 465.66 1030.3 473.46 1029.94 481.25C1029.83 483.66 1029.76 486.08 1029.7 488.49C1029.56 487.96 1029.42 487.43 1029.27 486.9C1028.38 483.76 1027.38 480.64 1026.19 477.58C1024.98 474.53 1023.61 471.52 1021.75 468.75C1020.82 467.37 1019.76 466.05 1018.46 464.94C1017.17 463.84 1015.57 462.95 1013.81 462.76C1013.39 462.72 1012.96 462.71 1012.54 462.74C1012.53 462.74 1012.52 462.74 1012.51 462.74C1012.07 462.77 1011.64 462.85 1011.21 462.97C1010.36 463.2 1009.58 463.61 1008.88 464.09C1007.48 465.08 1006.4 466.38 1005.48 467.75C1005.25 468.1 1005.03 468.45 1004.81 468.81C1004.7 469 1004.59 469.2 1004.48 469.39C1003.77 468.08 1001.4 464.47 996.51 464.15C990.52 463.76 987.46 471.7 987.46 471.7C987.46 471.7 991.72 470.24 991.89 472.76C992.17 476.91 985.81 476.22 985.81 476.22C985.81 476.22 982.72 481.64 984.01 488.69C984.01 488.69 990.23 486.11 989.59 490.46C989.12 493.62 984.97 493.74 984.97 493.74C984.97 493.74 985.89 496.61 987.73 499.47C988.26 499.04 988.93 498.89 989.54 499.11C990.61 499.5 991.14 500.88 990.72 502.2C990.65 502.41 990.56 502.61 990.46 502.79C990.89 504.59 991.72 506.22 992.6 506.87C992.6 506.87 994.49 506.89 996.53 504.98C996.55 504.77 996.59 504.55 996.66 504.34C997.08 503.02 998.29 502.26 999.37 502.65C999.99 502.87 1000.42 503.43 1000.6 504.11C1003.7 503.03 1006.07 501.35 1006.07 501.35C1006.07 501.35 1002.84 498.57 1004.28 495.76C1006.26 491.89 1009.72 497.97 1009.72 497.97C1014.78 493.21 1015.43 486.91 1015.43 486.91C1015.43 486.91 1009.99 483.34 1012.59 480.23C1014.17 478.34 1016.71 482.26 1016.71 482.26C1016.71 482.26 1018.83 473.98 1013.86 470.41C1010.67 468.12 1007.55 468.45 1005.72 468.98C1005.88 468.73 1006.04 468.48 1006.21 468.24C1007.12 466.95 1008.17 465.75 1009.44 464.89C1009.58 464.8 1009.72 464.71 1009.86 464.63C1009.91 464.6 1009.96 464.58 1010 464.55C1010.1 464.5 1010.2 464.45 1010.3 464.4C1010.39 464.36 1010.48 464.31 1010.58 464.27C1010.67 464.23 1010.75 464.2 1010.84 464.16C1010.94 464.12 1011.04 464.09 1011.14 464.06C1011.17 464.05 1011.21 464.04 1011.24 464.03C1011.59 463.92 1011.95 463.85 1012.31 463.82C1012.76 463.78 1013.22 463.78 1013.68 463.86C1015.15 464.08 1016.48 464.89 1017.59 465.94C1018.71 466.99 1019.64 468.26 1020.45 469.6C1022.07 472.29 1023.27 475.26 1024.3 478.28C1024.97 480.25 1025.89 483.28 1026.88 487.52C1027.6 490.64 1028.21 493.79 1028.73 496.96C1029.13 499.4 1029.49 500.1 1029.78 502.54C1029.78 502.67 1029.78 504.56 1029.79 504.69V503.72C1029.83 504.12 1029.74 504.89 1029.78 505.29C1029.63 505.76 1029.68 506.77 1029.58 507.11C1029.58 507.11 1029.58 507.13 1029.57 507.15C1029.56 507.2 1029.54 507.24 1029.53 507.28C1029.52 507.32 1029.51 507.36 1029.5 507.39C1029.49 507.43 1029.48 507.47 1029.47 507.51C1029.47 507.54 1029.45 507.58 1029.44 507.61C1029.42 507.69 1029.4 507.76 1029.38 507.82V507.84C1029.38 507.87 1029.36 507.9 1029.36 507.92C1029.36 507.93 1029.36 507.95 1029.35 507.96C1029.35 507.98 1029.35 508 1029.34 508.01C1029.34 508.03 1029.34 508.04 1029.33 508.05C1029.33 508.05 1029.33 508.06 1029.33 508.07C1029.33 508.08 1029.41 508.05 1029.41 508.05H1033.73C1040.67 481.36 1052.11 484.05 1056.51 486.96C1054.66 486.69 1052.03 486.75 1049.36 488.3C1044.39 491.18 1046.51 497.84 1046.51 497.84C1046.51 497.84 1049.05 494.69 1050.63 496.21C1053.23 498.71 1047.79 501.59 1047.79 501.59C1047.79 501.59 1048.44 506.66 1053.5 510.5C1053.5 510.5 1056.96 505.6 1058.94 508.72C1060.38 510.98 1057.15 513.22 1057.15 513.22C1057.15 513.22 1059.52 514.57 1062.62 515.44C1062.8 514.89 1063.23 514.44 1063.85 514.26C1064.92 513.95 1066.13 514.56 1066.56 515.62C1066.63 515.79 1066.67 515.96 1066.69 516.14C1068.73 517.68 1070.62 517.66 1070.62 517.66C1071.5 517.14 1072.33 515.82 1072.76 514.37C1072.65 514.22 1072.56 514.07 1072.5 513.89C1072.08 512.83 1072.61 511.71 1073.68 511.4C1074.3 511.22 1074.96 511.35 1075.49 511.69C1077.33 509.39 1078.25 507.08 1078.25 507.08C1078.25 507.08 1074.1 506.99 1073.63 504.44C1072.99 500.93 1079.21 503.01 1079.21 503.01C1080.5 497.33 1077.41 492.97 1077.41 492.97C1077.41 492.97 1071.05 493.53 1071.33 490.19C1071.5 488.16 1075.76 489.33 1075.76 489.33C1075.76 489.33 1072.7 482.94 1066.71 483.25C1062.55 483.47 1060.22 485.6 1059.18 486.89C1045.78 477.94 1037.28 489.23 1032.91 498.46C1032.84 496.62 1032.79 494.78 1032.75 492.94C1032.67 489.08 1032.66 485.21 1032.73 481.34C1032.87 473.61 1033.29 465.89 1034.31 458.24C1034.82 454.42 1035.49 450.62 1036.44 446.91C1036.92 445.05 1037.47 443.22 1038.14 441.44C1038.81 439.66 1039.59 437.92 1040.56 436.31C1041.53 434.71 1042.7 433.21 1044.15 432.1C1044.88 431.55 1045.67 431.09 1046.52 430.78C1046.72 430.7 1046.93 430.64 1047.14 430.57C1047.32 430.52 1047.5 430.47 1047.69 430.43C1047.71 430.43 1047.74 430.42 1047.76 430.41C1048.18 430.32 1048.6 430.26 1049.03 430.22C1049.08 430.22 1049.14 430.21 1049.19 430.2C1051.01 430.08 1052.86 430.58 1054.51 431.45C1055.03 431.72 1055.53 432.04 1056.02 432.37C1053.59 431.94 1049.87 432.01 1046.24 434.96C1040.13 439.94 1043.5 450.4 1043.5 450.4C1043.5 450.4 1046.46 445.17 1048.64 447.48C1052.22 451.27 1045.51 456.28 1045.51 456.28C1045.51 456.28 1046.84 464.32 1053.71 470.04C1053.71 470.04 1057.68 461.96 1060.53 466.78C1062.6 470.28 1058.67 474.1 1058.67 474.1C1058.67 474.1 1061.85 476.07 1065.91 477.22C1066.09 476.33 1066.6 475.58 1067.38 475.25C1068.73 474.67 1070.34 475.54 1070.99 477.21C1071.09 477.48 1071.16 477.75 1071.21 478.02C1073.98 480.31 1076.41 480.14 1076.41 480.14C1077.48 479.24 1078.43 477.07 1078.84 474.73C1078.69 474.51 1078.56 474.26 1078.45 473.99C1077.81 472.33 1078.38 470.51 1079.72 469.93C1080.5 469.59 1081.36 469.75 1082.08 470.25C1084.22 466.43 1085.17 462.68 1085.17 462.68C1085.17 462.68 1079.83 462.86 1078.98 458.83C1077.81 453.29 1086.01 456.12 1086.01 456.12H1085.97Z" fill="#7C5521"/>
</g>
</svg>
