<svg width="1920" height="622" viewBox="0 0 1920 622" fill="none" xmlns="http://www.w3.org/2000/svg">
<g clip-path="url(#clip0_1759_398)">
<rect width="1920" height="622" fill="white"/>
<g clip-path="url(#clip1_1759_398)">
<path d="M1929 -4.09668H-38V623.964H1929V-4.09668Z" fill="#8F6B2D"/>
<path d="M555.562 199.336H222.516V214.391H555.562V199.336Z" stroke="#774D17" stroke-width="3" stroke-linejoin="round"/>
<path d="M306.418 214.391H270.703V224.631H306.418V214.391Z" stroke="#774D17" stroke-width="3" stroke-linejoin="round"/>
<path d="M511.06 214.391H475.344V224.631H511.06V214.391Z" stroke="#774D17" stroke-width="3" stroke-linejoin="round"/>
<path d="M293.071 106.45H268.667V199.346H293.071V106.45Z" stroke="#774D17" stroke-width="3" stroke-linejoin="round"/>
<path d="M293.071 125.18H268.667V135.207H293.071V125.18Z" stroke="#774D17" stroke-width="2" stroke-linejoin="round"/>
<path d="M314.268 134.341H294.12V144.368H314.268V134.341Z" stroke="#774D17" stroke-width="2" stroke-linejoin="round"/>
<path d="M314.064 119.459H293.071V199.346H314.064V119.459Z" stroke="#774D17" stroke-width="3" stroke-linejoin="round"/>
<path d="M435.424 174.936H342.511V199.336H435.424V174.936Z" stroke="#774D17" stroke-width="3" stroke-linejoin="round"/>
<path d="M412.812 181.054H365.123V193.218H412.812V181.054Z" stroke="#774D17" stroke-width="2" stroke-linejoin="round"/>
<path d="M424.245 133.812H347.571V153.947H424.245V133.812Z" stroke="#774D17" stroke-width="3" stroke-linejoin="round"/>
<path d="M365.174 133.812H358.037V153.947H365.174V133.812Z" stroke="#774D17" stroke-width="2" stroke-linejoin="round"/>
<path d="M407.884 153.957H327.982V174.946H407.884V153.957Z" stroke="#774D17" stroke-width="3" stroke-linejoin="round"/>
<path d="M346.522 153.957H337.868V174.946H346.522V153.957Z" stroke="#774D17" stroke-width="2" stroke-linejoin="round"/>
<path d="M171.589 587.319L171.233 622.946H177.372L188.022 587.319H171.589Z" stroke="#774D17" stroke-width="3" stroke-linejoin="round"/>
<path d="M326.312 587.319L326.659 622.946H320.642L310.196 587.319H326.312Z" stroke="#774D17" stroke-width="3" stroke-linejoin="round"/>
<path d="M322.871 384.751H173.086C170.683 384.751 168.728 386.594 168.728 388.874V582.942C168.728 585.222 170.683 587.064 173.086 587.064H322.871C325.274 587.064 327.229 585.222 327.229 582.942V388.874C327.229 386.594 325.274 384.751 322.871 384.751Z" stroke="#774D17" stroke-width="3" stroke-linejoin="round"/>
<path d="M327.229 512.175C327.229 512.175 293.723 506.668 247.979 506.668C202.235 506.668 168.728 512.175 168.728 512.175V549.941H327.229V512.175Z" stroke="#774D17" stroke-width="3" stroke-linejoin="round"/>
<path d="M327.229 444.412V545.757C327.229 548.068 325.254 549.941 322.81 549.941H173.147C170.704 549.941 168.728 548.068 168.728 545.757V444.412C168.728 442.101 166.753 440.228 164.31 440.228H148.661C146.218 440.228 144.243 442.101 144.243 444.412V582.881C144.243 585.191 146.218 587.064 148.661 587.064H347.296C349.739 587.064 351.714 585.191 351.714 582.881V444.412C351.714 442.101 349.739 440.228 347.296 440.228H331.647C329.204 440.228 327.229 442.101 327.229 444.412Z" stroke="#774D17" stroke-width="3" stroke-linejoin="round"/>
<path d="M213.057 403.237C213.057 406.26 210.604 408.713 207.58 408.713C204.556 408.713 202.102 406.26 202.102 403.237C202.102 400.214 204.556 397.76 207.58 397.76C210.604 397.76 213.057 400.214 213.057 403.237Z" stroke="#774D17" stroke-width="2" stroke-linejoin="round"/>
<path d="M233.491 423.667C233.491 426.69 231.037 429.143 228.013 429.143C224.99 429.143 222.536 426.69 222.536 423.667C222.536 420.643 224.99 418.19 228.013 418.19C231.037 418.19 233.491 420.643 233.491 423.667Z" stroke="#774D17" stroke-width="2" stroke-linejoin="round"/>
<path d="M213.057 444.096C213.057 447.12 210.604 449.573 207.58 449.573C204.556 449.573 202.102 447.12 202.102 444.096C202.102 441.073 204.556 438.62 207.58 438.62C210.604 438.62 213.057 441.073 213.057 444.096Z" stroke="#774D17" stroke-width="2" stroke-linejoin="round"/>
<path d="M253.914 403.237C253.914 406.26 251.461 408.713 248.437 408.713C245.413 408.713 242.959 406.26 242.959 403.237C242.959 400.214 245.413 397.76 248.437 397.76C251.461 397.76 253.914 400.214 253.914 403.237Z" stroke="#774D17" stroke-width="2" stroke-linejoin="round"/>
<path d="M253.914 444.096C253.914 447.12 251.461 449.573 248.437 449.573C245.413 449.573 242.959 447.12 242.959 444.096C242.959 441.073 245.413 438.62 248.437 438.62C251.461 438.62 253.914 441.073 253.914 444.096Z" stroke="#774D17" stroke-width="2" stroke-linejoin="round"/>
<path d="M233.491 464.526C233.491 467.549 231.037 470.003 228.013 470.003C224.99 470.003 222.536 467.549 222.536 464.526C222.536 461.503 224.99 459.05 228.013 459.05C231.037 459.05 233.491 461.503 233.491 464.526Z" stroke="#774D17" stroke-width="2" stroke-linejoin="round"/>
<path d="M253.914 484.956C253.914 487.979 251.461 490.432 248.437 490.432C245.413 490.432 242.959 487.979 242.959 484.956C242.959 481.933 245.413 479.479 248.437 479.479C251.461 479.479 253.914 481.933 253.914 484.956Z" stroke="#774D17" stroke-width="2" stroke-linejoin="round"/>
<path d="M213.057 484.956C213.057 487.979 210.604 490.432 207.58 490.432C204.556 490.432 202.102 487.979 202.102 484.956C202.102 481.933 204.556 479.479 207.58 479.479C210.604 479.479 213.057 481.933 213.057 484.956Z" stroke="#774D17" stroke-width="2" stroke-linejoin="round"/>
<path d="M274.348 423.667C274.348 426.69 271.894 429.143 268.87 429.143C265.847 429.143 263.393 426.69 263.393 423.667C263.393 420.643 265.847 418.19 268.87 418.19C271.894 418.19 274.348 420.643 274.348 423.667Z" stroke="#774D17" stroke-width="2" stroke-linejoin="round"/>
<path d="M294.781 403.237C294.781 406.26 292.328 408.713 289.304 408.713C286.28 408.713 283.826 406.26 283.826 403.237C283.826 400.214 286.28 397.76 289.304 397.76C292.328 397.76 294.781 400.214 294.781 403.237Z" stroke="#774D17" stroke-width="2" stroke-linejoin="round"/>
<path d="M294.781 444.096C294.781 447.12 292.328 449.573 289.304 449.573C286.28 449.573 283.826 447.12 283.826 444.096C283.826 441.073 286.28 438.62 289.304 438.62C292.328 438.62 294.781 441.073 294.781 444.096Z" stroke="#774D17" stroke-width="2" stroke-linejoin="round"/>
<path d="M274.348 464.526C274.348 467.549 271.894 470.003 268.87 470.003C265.847 470.003 263.393 467.549 263.393 464.526C263.393 461.503 265.847 459.05 268.87 459.05C271.894 459.05 274.348 461.503 274.348 464.526Z" stroke="#774D17" stroke-width="2" stroke-linejoin="round"/>
<path d="M294.781 484.956C294.781 487.979 292.328 490.432 289.304 490.432C286.28 490.432 283.826 487.979 283.826 484.956C283.826 481.933 286.28 479.479 289.304 479.479C292.328 479.479 294.781 481.933 294.781 484.956Z" stroke="#774D17" stroke-width="2" stroke-linejoin="round"/>
<path d="M564.348 505.946C564.348 505.946 577.787 453.838 548.547 416.012" stroke="#774D17" stroke-width="2" stroke-linejoin="round"/>
<path d="M554.034 424.42C554.034 424.42 557.72 428.726 561.1 426.354C567.056 422.181 564.898 405.466 547.009 400.672C528.704 395.765 525.955 391.714 525.955 391.714C525.955 391.714 529.528 416.674 539.048 427.179C548.567 437.684 555.948 431.372 554.034 424.42Z" stroke="#774D17" stroke-width="3" stroke-linejoin="round"/>
<path d="M525.955 391.714C525.955 391.714 530.394 400.631 540.514 408.367C550.634 416.104 554.034 424.42 554.034 424.42" fill="#8B995F"/>
<path d="M525.955 391.714C525.955 391.714 530.394 400.631 540.514 408.367C550.634 416.104 554.034 424.42 554.034 424.42" stroke="#774D17" stroke-miterlimit="10"/>
<path d="M525.955 391.714C525.955 391.714 530.394 400.631 540.514 408.367C550.634 416.104 554.034 424.42 554.034 424.42" stroke="#774D17" stroke-width="2" stroke-linejoin="round"/>
<path d="M566.588 480.365C566.588 480.365 564.368 419.29 577.787 374.847" stroke="#774D17" stroke-width="2" stroke-linejoin="round"/>
<path d="M569.123 473.118C569.123 473.118 564.124 433.408 589.312 406.739" stroke="#774D17" stroke-width="2" stroke-linejoin="round"/>
<path d="M572.9 473.433L576.077 447.659H556.458L559.634 473.433C559.807 474.817 559.665 476.222 559.206 477.546L540.514 532.473C539.536 535.354 541.674 538.336 544.719 538.336H587.805C590.85 538.336 592.988 535.354 592.01 532.473L573.318 477.546C572.87 476.222 572.727 474.817 572.89 473.433" fill="#8F6B2D"/>
<path d="M572.9 473.433L576.077 447.659H556.458L559.634 473.433C559.807 474.817 559.665 476.222 559.206 477.546L540.514 532.473C539.536 535.354 541.674 538.336 544.719 538.336H587.805C590.85 538.336 592.988 535.354 592.01 532.473L573.318 477.546C572.87 476.222 572.727 474.817 572.89 473.433" stroke="#774D17" stroke-miterlimit="10"/>
<path d="M572.9 472.13L576.077 445.827H556.458L559.634 472.13C559.807 473.545 559.665 474.97 559.206 476.324L540.514 532.361C539.536 535.293 541.674 538.346 544.719 538.346H587.805C590.85 538.346 592.988 535.303 592.01 532.361L573.318 476.324C572.87 474.98 572.727 473.545 572.89 472.13H572.9Z" stroke="#774D17" stroke-width="3" stroke-linejoin="round"/>
<path d="M578.113 442.458H554.421C552.986 442.458 551.825 443.618 551.825 445.053C551.825 446.489 552.986 447.649 554.421 447.649H578.113C579.548 447.649 580.709 446.489 580.709 445.053C580.709 443.618 579.548 442.458 578.113 442.458Z" fill="white" stroke="#774D17" stroke-miterlimit="10"/>
<path d="M578.113 442.458H554.421C552.986 442.458 551.825 443.618 551.825 445.053C551.825 446.489 552.986 447.649 554.421 447.649H578.113C579.548 447.649 580.709 446.489 580.709 445.053C580.709 443.618 579.548 442.458 578.113 442.458Z" fill="#774D17"/>
<path d="M574.336 388.681C574.336 388.681 572.595 393.444 569.011 392.518C562.709 390.879 559.278 376.191 572.778 366.561C586.594 356.707 587.632 352.453 587.632 352.453C587.632 352.453 592.468 374.511 587.765 386.299C583.071 398.086 574.906 395.114 574.336 388.681Z" stroke="#774D17" stroke-width="3" stroke-linejoin="round"/>
<path d="M587.632 352.442C587.632 352.442 586.706 361.309 580.648 370.979C574.59 380.639 574.346 388.681 574.346 388.681" fill="#8B995F"/>
<path d="M587.632 352.442C587.632 352.442 586.706 361.309 580.648 370.979C574.59 380.639 574.346 388.681 574.346 388.681" stroke="#774D17" stroke-miterlimit="10"/>
<path d="M587.632 352.442C587.632 352.442 586.706 361.309 580.648 370.979C574.59 380.639 574.346 388.681 574.346 388.681" stroke="#774D17" stroke-width="2" stroke-linejoin="round"/>
<path d="M584.496 412.744C584.496 412.744 581.361 415.757 578.948 413.681C574.712 410.037 577.624 397.445 591.654 395.144C605.999 392.783 608.402 389.902 608.402 389.902C608.402 389.902 604.513 409.568 596.449 416.857C588.386 424.155 582.511 417.905 584.496 412.744Z" stroke="#774D17" stroke-width="3" stroke-linejoin="round"/>
<path d="M608.402 389.902C608.402 389.902 604.339 396.376 596.021 401.517C587.714 406.657 584.486 412.744 584.486 412.744" fill="#8B995F"/>
<path d="M608.402 389.902C608.402 389.902 604.339 396.376 596.021 401.517C587.714 406.657 584.486 412.744 584.486 412.744" stroke="#774D17" stroke-miterlimit="10"/>
<path d="M608.402 389.902C608.402 389.902 604.339 396.376 596.021 401.517C587.714 406.657 584.486 412.744 584.486 412.744" stroke="#774D17" stroke-width="2" stroke-linejoin="round"/>
<path d="M526.382 559.367H490.097C488.386 559.367 486.992 557.982 486.992 556.262C486.992 554.542 488.376 553.157 490.097 553.157H526.382C528.093 553.157 529.488 554.542 529.488 556.262C529.488 557.982 528.103 559.367 526.382 559.367Z" fill="white" stroke="#774D17" stroke-miterlimit="10"/>
<path d="M404.565 589.355L404.046 622.946H413.086L428.786 589.355H404.565Z" stroke="#774D17" stroke-width="3" stroke-linejoin="round"/>
<path d="M612.576 589.355L613.085 622.946H604.329L589.149 589.355H612.576Z" stroke="#774D17" stroke-width="3" stroke-linejoin="round"/>
<path d="M631.92 538.346H384.559V589.212H631.92V538.346Z" stroke="#774D17" stroke-width="3" stroke-linejoin="round"/>
<path d="M623.46 546.948H393.03V580.6H623.46V546.948Z" stroke="#774D17" stroke-width="3" stroke-linejoin="round"/>
<path d="M526.382 559.366H490.097C488.386 559.366 486.992 557.982 486.992 556.262C486.992 554.541 488.376 553.157 490.097 553.157H526.382C528.093 553.157 529.488 554.541 529.488 556.262C529.488 557.982 528.103 559.366 526.382 559.366Z" fill="#774D17"/>
<path d="M125.901 269.987C128.144 268.237 128.542 265 126.791 262.758C125.041 260.516 121.803 260.117 119.56 261.868C117.318 263.618 116.919 266.855 118.67 269.097C120.421 271.339 123.658 271.738 125.901 269.987Z" fill="#774D17"/>
<path d="M164.065 341.052H81.3945L92.105 265.919H153.355L164.065 341.052Z" stroke="#774D17" stroke-width="3" stroke-linejoin="round"/>
<path d="M122.73 244.277H49.4765C47.5116 244.277 45.9131 245.937 45.9131 247.993V610.589H23.596C17.4059 610.589 12.3967 615.892 12.3967 622.437H85.192C85.192 615.892 80.1829 610.589 73.9928 610.589H53.0399V251.708H119.167V264.3H126.293V247.993C126.293 245.937 124.695 244.277 122.73 244.277Z" stroke="#774D17" stroke-width="3" stroke-linejoin="round"/>
<path d="M1356.23 623.272H1347.08L1335.41 574.137H1352.06L1356.23 623.272Z" stroke="#774D17" stroke-width="3" stroke-linejoin="round"/>
<path d="M1234.92 623.272H1244.08L1255.74 574.137H1239.08L1234.92 623.272Z" stroke="#774D17" stroke-width="3" stroke-linejoin="round"/>
<path d="M1341.38 471.01H1249.77C1233.94 471.01 1221.1 483.844 1221.1 499.675V564.069C1221.1 579.9 1233.94 592.734 1249.77 592.734H1341.38C1357.22 592.734 1370.05 579.9 1370.05 564.069V499.675C1370.05 483.844 1357.22 471.01 1341.38 471.01Z" fill="#8F6B2D" stroke="#774D17" stroke-width="3" stroke-linejoin="round"/>
<path d="M1232.93 580.702H1358.22" stroke="#774D17" stroke-width="2" stroke-linejoin="round"/>
<path d="M1242.55 487.033H1282.32C1287.72 487.033 1292.1 491.41 1292.1 496.805V511.259C1292.1 516.654 1287.72 521.031 1282.32 521.031H1242.54C1237.14 521.031 1232.76 516.654 1232.76 511.259V496.805C1232.76 491.41 1237.14 487.033 1242.54 487.033H1242.55Z" fill="#8F6B2D" stroke="#774D17" stroke-width="3" stroke-linejoin="round"/>
<path d="M1262.71 501.161C1264.74 501.161 1266.38 499.521 1266.38 497.497C1266.38 495.473 1264.74 493.832 1262.71 493.832C1260.69 493.832 1259.05 495.473 1259.05 497.497C1259.05 499.521 1260.69 501.161 1262.71 501.161Z" fill="#774D17"/>
<path d="M1308.82 487.033H1348.61C1354.01 487.033 1358.39 491.41 1358.39 496.805V511.259C1358.39 516.654 1354.01 521.031 1348.61 521.031H1308.84C1303.44 521.031 1299.06 516.654 1299.06 511.259V496.805C1299.06 491.41 1303.44 487.033 1308.84 487.033H1308.82Z" fill="#8F6B2D" stroke="#774D17" stroke-width="3" stroke-linejoin="round"/>
<path d="M1332.06 498.537C1332.6 496.587 1331.46 494.567 1329.51 494.026C1327.56 493.484 1325.54 494.626 1325 496.576C1324.45 498.526 1325.6 500.546 1327.55 501.087C1329.5 501.629 1331.52 500.487 1332.06 498.537Z" fill="#774D17"/>
<path d="M1242.55 530.559H1282.32C1287.72 530.559 1292.1 534.936 1292.1 540.331V554.786C1292.1 560.181 1287.72 564.558 1282.32 564.558H1242.54C1237.14 564.558 1232.76 560.181 1232.76 554.786V540.331C1232.76 534.936 1237.14 530.559 1242.54 530.559H1242.55Z" fill="#8F6B2D" stroke="#774D17" stroke-width="3" stroke-linejoin="round"/>
<path d="M1266.31 542.052C1266.85 540.102 1265.71 538.081 1263.76 537.538C1261.81 536.995 1259.79 538.135 1259.25 540.085C1258.7 542.034 1259.84 544.055 1261.79 544.598C1263.74 545.141 1265.76 544.001 1266.31 542.052Z" fill="#774D17"/>
<path d="M1308.82 530.559H1348.61C1354.01 530.559 1358.39 534.936 1358.39 540.331V554.786C1358.39 560.181 1354.01 564.558 1348.61 564.558H1308.82C1303.43 564.558 1299.05 560.181 1299.05 554.786V540.331C1299.05 534.936 1303.43 530.559 1308.82 530.559Z" fill="#8F6B2D" stroke="#774D17" stroke-width="3" stroke-linejoin="round"/>
<path d="M1328.44 544.688C1330.47 544.688 1332.11 543.047 1332.11 541.023C1332.11 539 1330.47 537.359 1328.44 537.359C1326.42 537.359 1324.78 539 1324.78 541.023C1324.78 543.047 1326.42 544.688 1328.44 544.688Z" fill="#774D17"/>
<path d="M1827.63 107.875H1690.9V326.729H1827.63V107.875Z" fill="#8F6B2D" stroke="#774D17" stroke-width="3" stroke-linejoin="round"/>
<path opacity="0.5" d="M1818.93 234.434V318.047H1699.59V183.721C1731.47 184.78 1777.14 194.664 1818.93 234.434Z" fill="#774D17"/>
<path d="M1675.51 174.102H1582.29V323.319H1675.51V174.102Z" fill="#8F6B2D" stroke="#774D17" stroke-width="3" stroke-linejoin="round"/>
<path opacity="0.5" d="M1588.22 260.391V317.395H1669.58V225.812C1647.86 226.535 1616.71 233.274 1588.22 260.391Z" fill="#774D17"/>
<path d="M1369.27 119.816H1364.17C1364.17 124.305 1354.97 128.834 1345.52 133.761C1341.59 135.807 1337.63 137.924 1334.26 140.144C1329.94 142.984 1326.61 145.976 1325.63 149.173C1325.25 150.455 1325.34 151.819 1325.35 153.163C1325.36 154.588 1325.39 156.115 1325.43 157.703C1325.57 162.996 1325.91 168.981 1326.6 174.214C1327.18 178.642 1328.02 182.52 1329.2 184.983C1330.03 186.734 1331.05 187.762 1332.27 187.762H1406.36C1407.58 187.762 1408.6 186.734 1409.44 184.983C1410.62 182.52 1411.45 178.642 1412.03 174.214C1412.72 168.981 1413.06 162.996 1413.2 157.703C1413.24 156.115 1413.27 154.588 1413.28 153.163C1413.29 151.819 1413.4 150.455 1413 149.173C1412.02 145.966 1408.7 142.984 1404.37 140.144C1398.56 136.326 1390.97 132.794 1384.88 129.404C1378.95 126.106 1374.47 122.961 1374.47 119.826H1369.24L1369.27 119.816Z" stroke="#774D17" stroke-width="3" stroke-miterlimit="10"/>
<path d="M1364.17 119.816H1367.42H1371.04H1374.47V99.2738H1371.04H1367.42H1364.17V119.816Z" stroke="#774D17" stroke-width="3" stroke-miterlimit="10"/>
<path d="M321.904 277.36H322.922" stroke="#774D17" stroke-width="3" stroke-linejoin="round"/>
<path d="M1369.55 98.714V-9.18628" stroke="#774D17" stroke-width="3" stroke-miterlimit="10"/>
<path d="M1472.1 191.07H1467C1467 195.559 1457.8 200.089 1448.35 205.016C1444.42 207.062 1440.46 209.179 1437.09 211.398C1432.77 214.238 1429.44 217.231 1428.46 220.427C1428.08 221.71 1428.17 223.074 1428.18 224.418C1428.19 225.843 1428.22 227.37 1428.26 228.958C1428.4 234.251 1428.74 240.236 1429.43 245.468C1430.01 249.896 1430.85 253.775 1432.03 256.238C1432.86 257.989 1433.88 259.017 1435.1 259.017H1509.19C1510.41 259.017 1511.43 257.989 1512.26 256.238C1513.45 253.775 1514.28 249.896 1514.86 245.468C1515.55 240.236 1515.89 234.251 1516.03 228.958C1516.07 227.37 1516.1 225.843 1516.11 224.418C1516.12 223.074 1516.23 221.71 1515.83 220.427C1514.85 217.221 1511.53 214.238 1507.2 211.398C1501.39 207.581 1493.8 204.049 1487.71 200.659C1481.78 197.361 1477.3 194.216 1477.3 191.081H1472.07L1472.1 191.07Z" stroke="#774D17" stroke-width="3" stroke-miterlimit="10"/>
<path d="M1467 191.07H1470.25H1473.87H1477.3V170.529H1473.87H1470.25H1467V191.07Z" stroke="#774D17" stroke-width="3" stroke-miterlimit="10"/>
<path d="M1472.38 169.969V-27" stroke="#774D17" stroke-width="3" stroke-miterlimit="10"/>
<path d="M1021.7 580.092C1014.75 580.092 1008.23 579.847 1003.31 579.41C995.652 578.728 994.359 577.883 994.359 576.254C994.359 574.625 995.652 573.78 1003.31 573.098C1008.23 572.661 1014.76 572.416 1021.7 572.416C1028.63 572.416 1035.17 572.661 1040.08 573.098C1047.74 573.78 1049.03 574.625 1049.03 576.254C1049.03 577.883 1047.74 578.728 1040.08 579.41C1035.17 579.847 1028.63 580.092 1021.7 580.092Z" fill="#8F6B2D"/>
<path d="M1021.7 573.943C1035.95 573.943 1047.52 574.981 1047.52 576.254C1047.52 577.526 1035.96 578.565 1021.7 578.565C1007.43 578.565 995.876 577.526 995.876 576.254C995.876 574.981 1007.43 573.943 1021.7 573.943ZM1021.7 570.889C1014.71 570.889 1008.13 571.134 1003.17 571.582C997.617 572.08 992.822 572.508 992.822 576.254C992.822 580 997.617 580.438 1003.17 580.926C1008.13 581.374 1014.71 581.618 1021.7 581.618C1028.68 581.618 1035.26 581.374 1040.23 580.926C1045.77 580.427 1050.57 580 1050.57 576.254C1050.57 572.508 1045.77 572.07 1040.23 571.582C1035.26 571.134 1028.68 570.889 1021.7 570.889Z" fill="#774D17"/>
<path d="M823.713 569.688C823.713 571.032 814.438 572.121 803.004 572.121C791.571 572.121 782.296 571.032 782.296 569.688C782.296 568.345 791.571 567.255 803.004 567.255C814.438 567.255 823.713 568.345 823.713 569.688Z" fill="white"/>
<g style="mix-blend-mode:multiply">
<path d="M823.713 569.688C823.713 571.032 814.438 572.121 803.004 572.121C791.571 572.121 782.296 571.032 782.296 569.688C782.296 568.345 791.571 567.255 803.004 567.255C814.438 567.255 823.713 568.345 823.713 569.688Z" fill="#CBD4F4"/>
</g>
<path d="M803.004 573.648C797.415 573.648 792.151 573.393 788.181 572.925C782.642 572.274 780.769 571.459 780.769 569.688C780.769 567.917 782.642 567.103 788.181 566.451C792.151 565.983 797.415 565.728 803.004 565.728C808.594 565.728 813.858 565.983 817.828 566.451C823.377 567.103 825.24 567.917 825.24 569.688C825.24 571.459 823.367 572.274 817.828 572.925C813.858 573.393 808.594 573.648 803.004 573.648Z" fill="#8F6B2D"/>
<path d="M803.004 567.255C814.438 567.255 823.713 568.345 823.713 569.688C823.713 571.032 814.438 572.121 803.004 572.121C791.571 572.121 782.296 571.032 782.296 569.688C782.296 568.345 791.571 567.255 803.004 567.255ZM803.004 564.202C797.354 564.202 792.029 564.466 788.008 564.934C784.312 565.372 779.242 565.963 779.242 569.688C779.242 573.414 784.312 574.004 788.008 574.442C792.029 574.91 797.364 575.175 803.004 575.175C808.645 575.175 813.98 574.91 818.001 574.442C821.697 574.004 826.767 573.414 826.767 569.688C826.767 565.963 821.697 565.372 818.001 564.934C813.98 564.456 808.645 564.202 803.004 564.202Z" fill="#774D17"/>
<g opacity="0.7">
<path d="M802.455 546.754C803.463 544.057 805.652 535.292 801.467 516.613C797.771 500.113 790.156 487.643 790.156 487.643C790.156 487.643 787.997 502.047 790.726 518.731C793.556 535.964 799.512 544.586 801.426 546.978C801.457 547.243 801.487 547.508 801.518 547.752C801.956 551.854 800.551 557.28 799.319 562.074C798.352 565.84 797.425 569.393 797.425 572.04H798.474C798.474 569.525 799.38 566.034 800.327 562.329C801.589 557.453 803.015 551.925 802.556 547.64C802.526 547.355 802.495 547.05 802.455 546.744V546.754Z" fill="#774D17"/>
</g>
<g opacity="0.7">
<path d="M793.312 546.021C793.261 545.726 793.21 545.401 793.149 545.085C794.065 542.174 795.898 532.768 790.421 513.224C789.667 510.526 788.812 507.941 787.916 505.488C786.653 502.057 785.31 498.912 783.996 496.123C783.813 495.726 783.62 495.339 783.436 494.952C779.914 487.674 776.829 483.175 776.829 483.175C776.829 483.175 775.342 498.556 779.17 516.064C783.131 534.163 789.922 542.947 792.08 545.38C792.131 545.655 792.172 545.93 792.212 546.194C793.312 553.035 795.837 570.248 796.183 576.844L797.293 576.783C796.947 570.146 794.412 552.872 793.312 546.021Z" fill="#774D17"/>
</g>
<g opacity="0.7">
<path d="M790.125 558.593C789.993 558.338 789.85 558.074 789.708 557.799C789.698 556.822 789.565 555.132 788.965 552.699C788.832 552.149 788.669 551.559 788.486 550.928C788.395 550.612 788.293 550.286 788.181 549.951C787.967 549.279 787.723 548.576 787.437 547.823C787.152 547.07 786.847 546.286 786.491 545.462C784.739 541.329 782.052 536.198 777.928 530.03C775.291 526.07 772.471 522.528 769.794 519.474C768.898 518.456 768.022 517.489 767.167 516.583C766.597 515.982 766.037 515.402 765.497 514.852C764.683 514.028 763.909 513.254 763.166 512.552C762.433 511.85 761.74 511.208 761.109 510.628C760.692 510.241 760.294 509.885 759.918 509.559C759.541 509.234 759.205 508.938 758.9 508.674C757.668 507.615 756.945 507.065 756.945 507.065C756.945 507.065 760.111 521.286 768.674 535.873C777.511 550.938 786.175 556.832 788.822 558.389C788.944 558.623 789.066 558.857 789.178 559.081C792.559 565.667 794.086 577.302 792.721 586.148L793.75 586.311C795.145 577.282 793.567 565.372 790.095 558.613L790.125 558.593Z" fill="#774D17"/>
</g>
<g opacity="0.7">
<path d="M822.786 474.227C822.786 474.227 814.041 488.549 809.795 507.503C805.041 528.707 807.443 538.794 808.614 542.011C807.8 547.314 806.517 557.249 805.092 574.167L806.13 574.259C807.515 557.901 808.747 548.108 809.561 542.713C811.404 540.494 818.724 530.61 822.115 509.936C825.261 490.779 822.776 474.227 822.776 474.227H822.786Z" fill="#774D17"/>
</g>
<g opacity="0.7">
<path d="M836.022 503.625C835.747 503.91 835.452 504.215 835.136 504.561C834.821 504.907 834.474 505.274 834.118 505.671C833.762 506.068 833.385 506.495 832.988 506.943C832.795 507.167 832.591 507.401 832.387 507.635C831.98 508.114 831.552 508.613 831.115 509.142C830.677 509.671 830.229 510.221 829.771 510.801C829.313 511.381 828.844 511.982 828.366 512.603C828.132 512.918 827.887 513.234 827.643 513.56C826.442 515.178 825.199 516.949 823.967 518.843C822.98 520.359 822.003 521.958 821.046 523.627C812.28 538.977 811.353 547.447 811.312 550.022L810.915 550.582L810.864 550.673C810.803 550.806 804.919 563.774 804.318 574.187L805.356 574.249C805.926 564.344 811.404 551.997 811.791 551.152L812.636 549.981C813.99 548.933 816.301 546.907 819.111 543.436C821.84 540.077 825.037 535.384 828.284 528.941C835.279 515.097 837.997 501.681 837.997 501.681C837.997 501.681 837.264 502.363 836.032 503.635L836.022 503.625Z" fill="#774D17"/>
</g>
<g opacity="0.7">
<path d="M838.577 538.458C833.11 537.206 827.449 543.344 825.739 545.39C819.773 549.828 815.405 556.801 812.554 562.603C808.411 571.032 806.466 578.87 806.446 578.951L807.464 579.196C807.535 578.921 813.674 554.46 827.612 545.35C830.789 544.759 836.134 545.004 837.458 552.821C840.023 567.948 849.991 587.95 849.991 587.95C853.472 554.206 845.114 539.944 838.577 538.458Z" fill="#774D17"/>
</g>
<g opacity="0.7">
<path d="M790.563 571.989C788.415 567.622 785.126 562.369 780.636 559.031C779.354 557.494 775.088 552.872 770.975 553.809C766.047 554.928 759.755 565.668 762.382 591.075C762.382 591.075 769.885 576.01 771.82 564.619C772.817 558.735 776.839 558.542 779.231 558.99C789.728 565.851 794.351 584.265 794.401 584.469L795.165 584.285C795.155 584.224 793.689 578.32 790.573 571.979L790.563 571.989Z" fill="#774D17"/>
</g>
<path d="M803.249 621.592C800.653 621.592 798.026 621.389 795.46 620.982L792.589 620.524C792.345 620.483 792.111 620.391 791.917 620.239C782.52 613.256 783.039 601.112 783.457 591.35C783.609 587.756 783.762 584.367 783.396 581.71C782.724 576.834 781.471 571.867 781.105 570.462C780.942 569.841 781.186 569.179 781.716 568.813C781.98 568.63 782.276 568.548 782.581 568.548C782.886 568.548 783.202 568.64 783.467 568.833C784.546 569.566 791.938 570.584 803.004 570.584C814.071 570.584 821.168 569.607 822.471 568.874C822.766 568.497 823.204 568.294 823.672 568.294C823.856 568.294 824.029 568.324 824.212 568.395C824.945 568.67 825.352 569.464 825.148 570.218C824.884 571.225 823.509 576.488 822.786 581.72C822.42 584.377 822.562 587.767 822.725 591.36C823.143 601.122 823.672 613.266 814.265 620.249C814.082 620.391 813.858 620.483 813.634 620.524L812.218 620.778C809.266 621.318 806.242 621.592 803.239 621.592H803.249Z" fill="#8F6B2D"/>
<path d="M823.682 569.831C823.438 570.767 822.023 576.172 821.28 581.517C819.885 591.604 825.454 610.039 813.359 619.027L811.944 619.282C809.072 619.811 806.161 620.065 803.249 620.065C800.724 620.065 798.199 619.872 795.705 619.475L792.833 619.017C780.738 610.029 786.307 591.594 784.913 581.506C784.23 576.539 782.958 571.5 782.581 570.075C784.2 571.235 792.732 572.111 803.015 572.111C814.041 572.111 823.061 571.093 823.682 569.821M823.682 566.777C823.55 566.777 823.418 566.777 823.285 566.807C822.807 566.869 822.359 567.042 821.982 567.306C821.85 567.398 821.717 567.5 821.595 567.612C819.895 568.233 813.186 569.078 803.015 569.078C792.844 569.078 785.625 568.172 784.261 567.54C783.752 567.205 783.172 567.042 782.581 567.042C781.991 567.042 781.37 567.225 780.85 567.581C779.791 568.314 779.303 569.627 779.629 570.869C779.995 572.253 781.227 577.139 781.889 581.944C782.235 584.458 782.092 587.787 781.94 591.309C781.502 601.427 780.962 614.019 791.011 621.491C791.408 621.786 791.866 621.979 792.355 622.061L795.226 622.519C797.873 622.936 800.571 623.15 803.249 623.15C806.344 623.15 809.449 622.865 812.493 622.315L813.908 622.061C814.367 621.979 814.804 621.786 815.181 621.511C825.23 614.05 824.69 601.458 824.253 591.329C824.1 587.807 823.957 584.479 824.303 581.964C824.986 577.027 826.268 572.029 826.594 570.777C826.686 570.492 826.737 570.177 826.737 569.861C826.737 568.253 825.495 566.94 823.917 566.818C823.835 566.818 823.754 566.818 823.672 566.818L823.682 566.777Z" fill="#774D17"/>
<g style="mix-blend-mode:multiply" opacity="0.5">
<path d="M1013.04 580.611C1015.17 580.611 1017.23 580.59 1019.21 580.539C1007.93 580.295 999.562 579.379 999.562 578.3V580.275C1003.49 580.488 1008.1 580.611 1013.05 580.611H1013.04Z" fill="#CBD4F4"/>
</g>
<path d="M1025.38 622.692C1020.82 622.692 1016.23 622.346 1011.72 621.653L1010.26 621.43C1003.5 621.368 998.025 615.851 998.025 609.072V578.3C998.025 577.455 998.707 576.773 999.552 576.773C1000.07 576.773 1000.53 577.028 1000.8 577.425C1002.59 578.147 1011.71 579.084 1025.37 579.084C1039.03 579.084 1048.15 578.147 1049.94 577.414C1050.21 577.028 1050.67 576.763 1051.19 576.763C1052.04 576.763 1052.72 577.445 1052.72 578.29V609.062C1052.72 615.831 1047.24 621.348 1040.48 621.419L1039.2 621.623C1034.65 622.325 1029.99 622.692 1025.38 622.692Z" fill="#8F6B2D"/>
<path d="M1051.19 578.3V609.072C1051.19 615.057 1046.34 619.903 1040.36 619.903L1038.96 620.116C1034.46 620.819 1029.92 621.165 1025.38 621.165C1020.84 621.165 1016.4 620.819 1011.95 620.137L1010.38 619.892C1004.4 619.892 999.552 615.047 999.552 609.062V578.29C999.552 579.562 1011.11 580.601 1025.37 580.601C1039.63 580.601 1051.19 579.562 1051.19 578.29M1051.19 575.246C1050.38 575.246 1049.63 575.572 1049.08 576.091C1046.86 576.722 1038.43 577.557 1025.38 577.557C1012.33 577.557 1003.9 576.722 1001.68 576.091C1001.13 575.572 1000.39 575.246 999.572 575.246C997.882 575.246 996.518 576.61 996.518 578.3V609.072C996.518 616.645 1002.62 622.824 1010.16 622.956L1011.5 623.16C1016.09 623.862 1020.76 624.219 1025.39 624.219C1030.02 624.219 1034.81 623.852 1039.44 623.14L1040.61 622.956C1048.16 622.824 1054.25 616.645 1054.25 609.072V578.3C1054.25 576.61 1052.88 575.246 1051.19 575.246Z" fill="#774D17"/>
<path d="M1076.3 524.838C1077.43 515.514 1072.95 508.674 1072.95 508.674C1072.95 508.674 1064.68 510.089 1064.72 504.633C1064.74 501.314 1070.43 502.892 1070.43 502.892C1070.43 502.892 1065.8 492.753 1058 493.741C1051.57 494.555 1048.76 499.543 1047.97 501.273H1047.95C1047.71 501.049 1047.46 500.826 1047.21 500.612C1046.44 499.96 1045.6 499.36 1044.71 498.861C1042.93 497.853 1040.87 497.222 1038.76 497.293C1038.64 497.293 1038.52 497.314 1038.39 497.314C1037.47 497.375 1036.55 497.558 1035.68 497.853C1034.69 498.189 1033.75 498.698 1032.9 499.309C1031.19 500.541 1029.87 502.169 1028.76 503.869C1027.66 505.589 1026.78 507.412 1026.02 509.285C1025.26 511.147 1024.63 513.061 1024.08 514.985C1022.98 518.833 1022.17 522.752 1021.53 526.681C1020.27 534.549 1019.62 542.489 1019.25 550.419C1019.14 552.872 1019.07 555.336 1019.01 557.789C1018.87 557.249 1018.72 556.71 1018.57 556.17C1017.66 552.974 1016.65 549.798 1015.43 546.683C1014.2 543.579 1012.81 540.515 1010.91 537.695C1009.97 536.29 1008.89 534.946 1007.56 533.817C1006.25 532.697 1004.62 531.791 1002.83 531.598C1002.4 531.557 1001.96 531.547 1001.54 531.577C1001.53 531.577 1001.52 531.577 1001.51 531.577C1001.06 531.608 1000.62 531.689 1000.18 531.811C999.318 532.045 998.523 532.463 997.811 532.951C996.385 533.959 995.286 535.282 994.349 536.677C994.115 537.033 993.891 537.389 993.667 537.756C993.555 537.949 993.443 538.153 993.331 538.346C992.608 537.013 990.195 533.338 985.217 533.012C979.118 532.615 976.003 540.698 976.003 540.698C976.003 540.698 980.34 539.212 980.513 541.777C980.798 546.001 974.323 545.299 974.323 545.299C974.323 545.299 971.177 550.816 972.49 557.992C972.49 557.992 978.823 555.366 978.171 559.794C977.693 563.011 973.468 563.133 973.468 563.133C973.468 563.133 974.404 566.054 976.278 568.966C976.817 568.528 977.499 568.375 978.12 568.599C979.21 568.996 979.749 570.401 979.322 571.745C979.25 571.958 979.159 572.162 979.057 572.345C979.495 574.177 980.34 575.837 981.236 576.498C981.236 576.498 983.16 576.519 985.237 574.574C985.257 574.361 985.298 574.137 985.369 573.923C985.797 572.579 987.029 571.806 988.128 572.203C988.76 572.427 989.197 572.997 989.381 573.689C992.537 572.589 994.95 570.879 994.95 570.879C994.95 570.879 991.661 568.049 993.127 565.189C995.143 561.25 998.666 567.439 998.666 567.439C1003.82 562.593 1004.48 556.18 1004.48 556.18C1004.48 556.18 998.941 552.546 1001.59 549.381C1003.2 547.457 1005.78 551.447 1005.78 551.447C1005.78 551.447 1007.94 543.019 1002.88 539.385C999.633 537.054 996.457 537.389 994.594 537.929C994.756 537.674 994.919 537.42 995.092 537.176C996.019 535.863 997.088 534.641 998.381 533.766C998.523 533.674 998.666 533.582 998.809 533.501C998.859 533.47 998.91 533.45 998.951 533.42C999.053 533.369 999.155 533.318 999.256 533.267C999.348 533.226 999.44 533.175 999.542 533.135C999.633 533.094 999.715 533.063 999.806 533.023C999.908 532.982 1000.01 532.951 1000.11 532.921C1000.14 532.911 1000.18 532.9 1000.21 532.89C1000.57 532.778 1000.94 532.707 1001.3 532.677C1001.76 532.636 1002.23 532.636 1002.7 532.717C1004.19 532.941 1005.55 533.766 1006.68 534.835C1007.82 535.903 1008.77 537.196 1009.59 538.56C1011.24 541.298 1012.46 544.322 1013.51 547.396C1014.19 549.401 1015.13 552.485 1016.14 556.801C1016.87 559.977 1017.49 563.184 1018.02 566.411C1018.43 568.894 1018.79 569.607 1019.09 572.091C1019.09 572.223 1019.09 574.147 1019.1 574.279V573.292C1019.14 573.699 1019.05 574.483 1019.09 574.89C1018.94 575.368 1018.99 576.396 1018.89 576.743C1018.89 576.743 1018.89 576.763 1018.88 576.783C1018.87 576.834 1018.85 576.875 1018.83 576.916C1018.82 576.956 1018.81 576.997 1018.8 577.028C1018.79 577.068 1018.78 577.109 1018.77 577.15C1018.77 577.18 1018.75 577.221 1018.74 577.251C1018.72 577.333 1018.7 577.404 1018.68 577.465V577.486C1018.68 577.516 1018.66 577.547 1018.66 577.567C1018.66 577.577 1018.66 577.598 1018.65 577.608C1018.65 577.628 1018.65 577.649 1018.64 577.659C1018.64 577.679 1018.64 577.689 1018.63 577.699C1018.63 577.699 1018.63 577.71 1018.63 577.72C1018.63 577.73 1018.71 577.699 1018.71 577.699H1023.11C1030.18 550.531 1041.82 553.269 1046.3 556.231C1044.42 555.956 1041.74 556.018 1039.02 557.595C1033.96 560.527 1036.12 567.306 1036.12 567.306C1036.12 567.306 1038.71 564.1 1040.32 565.647C1042.96 568.192 1037.43 571.124 1037.43 571.124C1037.43 571.124 1038.09 576.284 1043.24 580.193C1043.24 580.193 1046.76 575.205 1048.78 578.381C1050.24 580.682 1046.96 582.962 1046.96 582.962C1046.96 582.962 1049.37 584.336 1052.52 585.222C1052.71 584.662 1053.15 584.204 1053.78 584.021C1054.87 583.705 1056.1 584.326 1056.54 585.405C1056.61 585.578 1056.65 585.751 1056.67 585.934C1058.74 587.502 1060.67 587.482 1060.67 587.482C1061.57 586.952 1062.41 585.609 1062.85 584.133C1062.74 583.98 1062.64 583.827 1062.58 583.644C1062.16 582.565 1062.7 581.425 1063.78 581.109C1064.42 580.926 1065.09 581.059 1065.63 581.405C1067.5 579.063 1068.44 576.712 1068.44 576.712C1068.44 576.712 1064.21 576.62 1063.73 574.025C1063.08 570.452 1069.41 572.569 1069.41 572.569C1070.73 566.787 1067.58 562.349 1067.58 562.349C1067.58 562.349 1061.11 562.919 1061.39 559.519C1061.57 557.453 1065.9 558.644 1065.9 558.644C1065.9 558.644 1062.79 552.139 1056.69 552.455C1052.45 552.679 1050.08 554.847 1049.02 556.16C1035.38 547.05 1026.73 558.542 1022.28 567.937C1022.2 566.065 1022.15 564.192 1022.11 562.319C1022.03 558.389 1022.02 554.45 1022.09 550.511C1022.24 542.642 1022.66 534.784 1023.7 526.996C1024.22 523.108 1024.9 519.24 1025.87 515.463C1026.36 513.57 1026.92 511.707 1027.6 509.895C1028.28 508.083 1029.08 506.312 1030.06 504.673C1031.05 503.045 1032.24 501.518 1033.72 500.388C1034.46 499.828 1035.27 499.36 1036.13 499.044C1036.34 498.963 1036.55 498.902 1036.76 498.83C1036.95 498.78 1037.13 498.729 1037.32 498.688C1037.34 498.688 1037.37 498.678 1037.4 498.668C1037.82 498.576 1038.25 498.515 1038.69 498.474C1038.74 498.474 1038.8 498.464 1038.85 498.454C1040.7 498.332 1042.59 498.841 1044.27 499.726C1044.8 500.001 1045.31 500.327 1045.8 500.663C1043.33 500.225 1039.54 500.296 1035.85 503.299C1029.63 508.368 1033.06 519.016 1033.06 519.016C1033.06 519.016 1036.07 513.692 1038.29 516.044C1041.94 519.901 1035.1 525.001 1035.1 525.001C1035.1 525.001 1036.46 533.185 1043.45 539.008C1043.45 539.008 1047.49 530.783 1050.4 535.69C1052.5 539.252 1048.5 543.141 1048.5 543.141C1048.5 543.141 1051.74 545.146 1055.87 546.317C1056.06 545.411 1056.58 544.647 1057.37 544.311C1058.75 543.721 1060.38 544.607 1061.05 546.307C1061.15 546.581 1061.22 546.856 1061.27 547.131C1064.09 549.462 1066.56 549.289 1066.56 549.289C1067.65 548.373 1068.62 546.164 1069.04 543.782C1068.89 543.558 1068.75 543.304 1068.64 543.029C1067.99 541.339 1068.57 539.486 1069.93 538.896C1070.73 538.55 1071.6 538.713 1072.34 539.222C1074.52 535.333 1075.48 531.516 1075.48 531.516C1075.48 531.516 1070.05 531.699 1069.18 527.597C1067.99 521.958 1076.34 524.838 1076.34 524.838H1076.3Z" fill="#7C5521"/>
<path d="M1821.91 419.473H1488.27C1472.01 419.473 1458.82 432.653 1458.82 448.911V518.975C1458.82 535.234 1472.01 548.414 1488.27 548.414H1821.91C1838.18 548.414 1851.36 535.234 1851.36 518.975V448.911C1851.36 432.653 1838.18 419.473 1821.91 419.473Z" stroke="#774D17" stroke-width="3" stroke-linejoin="round"/>
<path d="M1821.91 538.326H1488.27C1472.01 538.326 1458.82 551.506 1458.82 567.764V586.403C1458.82 602.661 1472.01 615.841 1488.27 615.841H1821.91C1838.18 615.841 1851.36 602.661 1851.36 586.403V567.764C1851.36 551.506 1838.18 538.326 1821.91 538.326Z" fill="#8F6B2D" stroke="#774D17" stroke-width="3" stroke-linejoin="round"/>
<path d="M1494.27 574.473H1815.91" stroke="#774D17" stroke-width="3" stroke-linejoin="round"/>
<path d="M1859.96 484.213H1848.67C1836.41 484.213 1826.47 494.153 1826.47 506.414V593.64C1826.47 605.901 1836.41 615.841 1848.67 615.841H1859.96C1872.23 615.841 1882.17 605.901 1882.17 593.64V506.414C1882.17 494.153 1872.23 484.213 1859.96 484.213Z" fill="#8F6B2D" stroke="#774D17" stroke-width="3" stroke-linejoin="round"/>
<path d="M1452.28 484.213H1440.99C1428.72 484.213 1418.78 494.153 1418.78 506.414V593.64C1418.78 605.901 1428.72 615.841 1440.99 615.841H1452.28C1464.54 615.841 1474.48 605.901 1474.48 593.64V506.414C1474.48 494.153 1464.54 484.213 1452.28 484.213Z" fill="#8F6B2D" stroke="#774D17" stroke-width="3" stroke-linejoin="round"/>
<path d="M1510.81 449.766L1532.31 470.003" stroke="#774D17" stroke-width="3" stroke-linecap="round" stroke-linejoin="round"/>
<path d="M1553.19 492.143L1574.7 512.379" stroke="#774D17" stroke-width="3" stroke-linecap="round" stroke-linejoin="round"/>
<path d="M1574.06 449.135L1553.82 470.634" stroke="#774D17" stroke-width="3" stroke-linecap="round" stroke-linejoin="round"/>
<path d="M1531.68 491.512L1511.44 513.01" stroke="#774D17" stroke-width="3" stroke-linecap="round" stroke-linejoin="round"/>
<path d="M1542.76 488.03C1546.6 488.03 1549.71 484.918 1549.71 481.078C1549.71 477.238 1546.6 474.125 1542.76 474.125C1538.92 474.125 1535.8 477.238 1535.8 481.078C1535.8 484.918 1538.92 488.03 1542.76 488.03Z" stroke="#774D17" stroke-width="3" stroke-linecap="round" stroke-linejoin="round"/>
<path d="M1620.26 449.766L1641.76 470.003" stroke="#774D17" stroke-width="3" stroke-linecap="round" stroke-linejoin="round"/>
<path d="M1662.64 492.143L1684.14 512.379" stroke="#774D17" stroke-width="3" stroke-linecap="round" stroke-linejoin="round"/>
<path d="M1683.51 449.135L1663.27 470.634" stroke="#774D17" stroke-width="3" stroke-linecap="round" stroke-linejoin="round"/>
<path d="M1641.13 491.512L1620.89 513.01" stroke="#774D17" stroke-width="3" stroke-linecap="round" stroke-linejoin="round"/>
<path d="M1652.2 488.03C1656.05 488.03 1659.16 484.918 1659.16 481.078C1659.16 477.238 1656.05 474.125 1652.2 474.125C1648.36 474.125 1645.25 477.238 1645.25 481.078C1645.25 484.918 1648.36 488.03 1652.2 488.03Z" stroke="#774D17" stroke-width="3" stroke-linecap="round" stroke-linejoin="round"/>
<path d="M1729.7 449.766L1751.21 470.003" stroke="#774D17" stroke-width="3" stroke-linecap="round" stroke-linejoin="round"/>
<path d="M1772.09 492.143L1793.59 512.379" stroke="#774D17" stroke-width="3" stroke-linecap="round" stroke-linejoin="round"/>
<path d="M1792.96 449.135L1772.72 470.634" stroke="#774D17" stroke-width="3" stroke-linecap="round" stroke-linejoin="round"/>
<path d="M1750.58 491.512L1730.34 513.01" stroke="#774D17" stroke-width="3" stroke-linecap="round" stroke-linejoin="round"/>
<path d="M1761.65 488.03C1765.49 488.03 1768.61 484.918 1768.61 481.078C1768.61 477.238 1765.49 474.125 1761.65 474.125C1757.81 474.125 1754.7 477.238 1754.7 481.078C1754.7 484.918 1757.81 488.03 1761.65 488.03Z" stroke="#774D17" stroke-width="3" stroke-linecap="round" stroke-linejoin="round"/>
<path d="M1456.59 616.33H1434.7V626H1456.59V616.33Z" fill="#774D17"/>
<path d="M1866.89 616.33H1845.01V626H1866.89V616.33Z" fill="#774D17"/>
<path d="M1564.01 616.839H1503.94V626H1564.01V616.839Z" fill="#774D17"/>
<path d="M1796.64 616.839H1736.58V626H1796.64V616.839Z" fill="#774D17"/>
</g>
<rect x="1284" y="-18" width="262" height="329" fill="#8F6B2D"/>
</g>
<defs>
<clipPath id="clip0_1759_398">
<rect width="1920" height="622" fill="white"/>
</clipPath>
<clipPath id="clip1_1759_398">
<rect width="1967" height="653" fill="white" transform="translate(-38 -27)"/>
</clipPath>
</defs>
</svg>
