<svg width="90" height="275" viewBox="0 0 90 275" fill="none" xmlns="http://www.w3.org/2000/svg">
<g clip-path="url(#clip0_1760_630)">
<path d="M44.64 206.23H39.63C39.63 210.64 30.59 215.09 21.31 219.93C17.45 221.94 13.56 224.02 10.25 226.2C6.00997 228.99 2.73997 231.93 1.77997 235.07C1.39997 236.33 1.48997 237.67 1.49997 238.99C1.50997 240.39 1.53997 241.89 1.57997 243.45C1.71997 248.65 2.04997 254.53 2.72997 259.67C3.29997 264.02 4.11997 267.83 5.27997 270.25C6.09997 271.97 7.09997 272.98 8.29997 272.98H81.07C82.27 272.98 83.27 271.97 84.09 270.25C85.25 267.83 86.07 264.02 86.64 259.67C87.32 254.53 87.65 248.65 87.79 243.45C87.83 241.89 87.86 240.39 87.87 238.99C87.88 237.67 87.98 236.33 87.59 235.07C86.63 231.92 83.37 228.99 79.12 226.2C73.41 222.45 65.95 218.98 59.97 215.65C54.15 212.41 49.75 209.32 49.75 206.24H44.61L44.64 206.23Z" stroke="#774D17" stroke-width="3" stroke-miterlimit="10"/>
<path d="M39.64 206.23H42.82H46.38H49.75V186.05H46.38H42.82H39.64V206.23Z" stroke="#774D17" stroke-width="3" stroke-miterlimit="10"/>
<path d="M44.91 185.5V-48" stroke="#774D17" stroke-width="3" stroke-miterlimit="10"/>
</g>
<defs>
<clipPath id="clip0_1760_630">
<rect width="89.42" height="322.47" fill="white" transform="translate(0 -48)"/>
</clipPath>
</defs>
</svg>
