<svg width="90" height="200" viewBox="0 0 90 200" fill="none" xmlns="http://www.w3.org/2000/svg">
<g clip-path="url(#clip0_1760_624)">
<path d="M44.64 131.23H39.63C39.63 135.64 30.59 140.09 21.31 144.93C17.45 146.94 13.56 149.02 10.25 151.2C6.00997 153.99 2.73997 156.93 1.77997 160.07C1.39997 161.33 1.48997 162.67 1.49997 163.99C1.50997 165.39 1.53997 166.89 1.57997 168.45C1.71997 173.65 2.04997 179.53 2.72997 184.67C3.29997 189.02 4.11997 192.83 5.27997 195.25C6.09997 196.97 7.09997 197.98 8.29997 197.98H81.07C82.27 197.98 83.27 196.97 84.09 195.25C85.25 192.83 86.07 189.02 86.64 184.67C87.32 179.53 87.65 173.65 87.79 168.45C87.83 166.89 87.86 165.39 87.87 163.99C87.88 162.67 87.98 161.33 87.59 160.07C86.63 156.92 83.37 153.99 79.12 151.2C73.41 147.45 65.95 143.98 59.97 140.65C54.15 137.41 49.75 134.32 49.75 131.24H44.61L44.64 131.23Z" stroke="#774D17" stroke-width="3" stroke-miterlimit="10"/>
<path d="M39.64 131.23H42.82H46.38H49.75V111.05H46.38H42.82H39.64V131.23Z" stroke="#774D17" stroke-width="3" stroke-miterlimit="10"/>
<path d="M44.91 110.5V-53" stroke="#774D17" stroke-width="3" stroke-miterlimit="10"/>
</g>
<defs>
<clipPath id="clip0_1760_624">
<rect width="89.42" height="252.47" fill="white" transform="translate(0 -53)"/>
</clipPath>
</defs>
</svg>
