<?xml version="1.0" encoding="UTF-8"?>
<svg id="_레이어_2" data-name="레이어_2" xmlns="http://www.w3.org/2000/svg" viewBox="0 0 134.01 61">
  <g id="_레이어_1-2" data-name="레이어_1">
    <g>
      <g>
        <path d="M6.36,53.41l-1.15-.27c-.64-.16-1.15-.36-1.51-.6s-.54-.58-.54-1.01c0-.28.08-.54.25-.76.17-.22.41-.39.72-.52.32-.12.69-.19,1.12-.19s.82.06,1.14.19.57.31.75.55c.18.24.29.53.32.88h2.56c-.01-.75-.22-1.42-.61-2-.4-.58-.95-1.03-1.66-1.35-.71-.32-1.54-.48-2.47-.48s-1.76.16-2.49.49-1.31.78-1.73,1.36-.62,1.26-.62,2.02c0,.91.3,1.66.9,2.22.6.57,1.46.99,2.58,1.27l1.41.34c.5.12.9.26,1.22.39.32.14.56.31.72.5.17.2.25.44.25.72,0,.31-.09.59-.28.84-.19.24-.46.43-.81.57-.35.14-.75.2-1.21.2s-.89-.07-1.27-.22-.67-.37-.88-.65c-.22-.29-.35-.64-.38-1.06H.1c.03.9.25,1.66.67,2.29.42.62,1.01,1.09,1.77,1.41.76.32,1.66.48,2.69.48s1.92-.16,2.66-.47,1.31-.76,1.71-1.34c.4-.58.59-1.25.59-2.03,0-1.03-.34-1.84-1.01-2.45-.67-.6-1.61-1.04-2.83-1.31Z"/>
        <path d="M15.96,50.69c.5-.33,1.08-.5,1.75-.5.49,0,.93.09,1.34.27.4.18.73.45.98.79.25.35.41.75.47,1.23h2.7c-.12-.97-.43-1.8-.93-2.5-.5-.7-1.15-1.23-1.94-1.6s-1.69-.55-2.67-.55c-1.14,0-2.16.26-3.06.78-.9.52-1.61,1.27-2.12,2.26-.52.99-.77,2.17-.77,3.54s.26,2.53.77,3.53c.51.99,1.22,1.75,2.12,2.27s1.93.78,3.07.78c1.04,0,1.97-.21,2.77-.62.8-.42,1.44-.97,1.92-1.66.47-.69.76-1.44.86-2.24l-2.7-.03c-.08.45-.25.84-.51,1.17-.26.33-.59.58-.98.76-.39.18-.83.27-1.32.27-.65,0-1.22-.16-1.72-.49-.5-.33-.89-.81-1.16-1.43-.28-.63-.42-1.4-.42-2.3s.14-1.64.42-2.28c.28-.63.66-1.12,1.16-1.45Z"/>
        <path d="M28.54,48.01l-4.42,12.81h2.84l.96-2.95h4.65l.96,2.95h2.86l-4.43-12.81h-3.41ZM28.6,55.79l1.59-4.88h.11l1.59,4.88h-3.29Z"/>
        <polygon points="45.87 56.14 45.75 56.14 40.17 48.01 37.84 48.01 37.84 60.82 40.49 60.82 40.49 52.68 40.59 52.68 46.21 60.82 48.51 60.82 48.51 48.01 45.87 48.01 45.87 56.14"/>
        <path d="M58.57,48.78c-.93-.51-2.05-.77-3.33-.77h-4.55v12.81h4.51c1.29,0,2.41-.26,3.35-.77.94-.51,1.66-1.25,2.16-2.21.5-.96.75-2.11.75-3.43s-.25-2.46-.75-3.42c-.5-.96-1.21-1.7-2.15-2.21ZM58.39,56.74c-.28.61-.69,1.06-1.24,1.36s-1.24.44-2.06.44h-1.74v-8.24h1.76c.82,0,1.5.14,2.05.43s.96.74,1.23,1.35.41,1.39.41,2.33-.14,1.72-.42,2.33Z"/>
        <rect x="63.39" y="48.01" width="2.65" height="12.81"/>
        <polygon points="76.25 56.14 76.13 56.14 70.55 48.01 68.22 48.01 68.22 60.82 70.87 60.82 70.87 52.68 70.97 52.68 76.59 60.82 78.89 60.82 78.89 48.01 76.25 48.01 76.25 56.14"/>
        <path d="M84.78,48.01l-4.42,12.81h2.84l.96-2.95h4.65l.96,2.95h2.86l-4.43-12.81h-3.41ZM84.84,55.79l1.59-4.88h.11l1.59,4.88h-3.29Z"/>
        <polygon points="97.98 57.78 97.85 57.78 94.73 48.01 91.78 48.01 96.21 60.82 99.62 60.82 104.05 48.01 101.1 48.01 97.98 57.78"/>
        <rect x="105.5" y="48.01" width="2.65" height="12.81"/>
        <path d="M114.03,48.01l-4.42,12.81h2.84l.96-2.95h4.65l.96,2.95h2.86l-4.43-12.81h-3.41ZM114.09,55.79l1.59-4.88h.11l1.59,4.88h-3.29Z"/>
        <polygon points="131.36 48.01 131.36 56.14 131.25 56.14 125.66 48.01 123.33 48.01 123.33 60.82 125.98 60.82 125.98 52.68 126.08 52.68 131.71 60.82 134.01 60.82 134.01 48.01 131.36 48.01"/>
      </g>
      <g>
        <path d="M35.14,42.86H0V0h13.66c11.85,0,21.49,9.03,21.49,20.12v22.73ZM.35,42.53h34.45v-22.41C34.8,9.21,25.31.33,13.66.33H.35v42.2Z"/>
        <path d="M51.5,42.86c-6.81,0-12.36-5.54-12.36-12.36s5.54-12.36,12.36-12.36,12.36,5.54,12.36,12.36-5.54,12.36-12.36,12.36ZM51.5,18.47c-6.64,0-12.03,5.4-12.03,12.03s5.4,12.03,12.03,12.03,12.03-5.4,12.03-12.03-5.4-12.03-12.03-12.03Z"/>
      </g>
      <g>
        <path d="M101.05,42.02h-.32v-7.13h.32v7.13ZM100.9,42.02v-.32h1.74c.65,0,1.19-.13,1.64-.39.45-.26.79-.63,1.03-1.13.23-.49.35-1.08.35-1.76,0-.67-.11-1.25-.33-1.74-.22-.49-.54-.86-.97-1.11-.43-.26-.94-.38-1.54-.38h-1.92v-.31h1.92c.66,0,1.23.14,1.7.42.47.28.83.69,1.08,1.22.25.53.37,1.17.37,1.9s-.13,1.4-.39,1.93-.64.95-1.14,1.23-1.1.42-1.8.42h-1.75Z"/>
        <path d="M107.54,34.89h3.88v.31h-3.56v3.11h3.35v.31h-3.35v3.1h3.65v.32h-3.97v-7.13Z"/>
        <path d="M116.63,35.85c-.16-.24-.37-.43-.64-.56-.27-.13-.58-.2-.93-.2s-.67.07-.95.2c-.28.13-.5.32-.65.55-.16.23-.24.5-.24.8,0,.36.12.66.37.9s.62.43,1.11.59l.79.24c.61.18,1.07.42,1.38.71.31.29.46.66.46,1.13,0,.37-.1.7-.29,1-.19.3-.46.53-.82.69-.35.17-.76.25-1.22.25s-.83-.08-1.16-.23-.6-.37-.79-.64c-.19-.27-.3-.59-.33-.95h.33c.03.3.12.57.29.79s.39.4.68.53.61.19.98.19c.39,0,.74-.07,1.04-.21s.54-.33.7-.58c.17-.25.25-.53.25-.85,0-.25-.06-.47-.17-.65-.11-.18-.29-.35-.52-.48-.23-.14-.53-.27-.91-.38l-.82-.25c-.56-.17-.98-.4-1.27-.7s-.43-.65-.43-1.07c0-.36.09-.68.28-.96.19-.28.45-.5.78-.66.33-.16.7-.24,1.11-.24s.77.08,1.09.24c.32.16.57.39.76.67s.29.61.31.97h-.32c-.02-.31-.11-.59-.27-.83Z"/>
        <path d="M119.23,42.02h-.32v-7.13h.32v7.13Z"/>
        <path d="M125.78,36.15c-.21-.31-.49-.56-.83-.75-.34-.19-.74-.29-1.19-.29-.52,0-.98.14-1.38.41-.4.28-.72.67-.94,1.17-.23.5-.34,1.09-.34,1.76s.11,1.25.33,1.75c.22.51.54.9.95,1.17.41.28.88.42,1.41.42.49,0,.92-.11,1.3-.34.38-.23.67-.55.87-.98.21-.43.3-.93.29-1.51l.12.07h-2.49v-.31h2.69v.31c0,.63-.12,1.17-.36,1.64-.24.46-.57.82-.99,1.07-.42.25-.9.37-1.44.37-.6,0-1.12-.15-1.58-.46-.45-.3-.81-.73-1.06-1.29-.25-.55-.37-1.19-.37-1.92s.12-1.37.37-1.92c.25-.55.6-.98,1.05-1.28.45-.3.97-.46,1.55-.46.52,0,.98.11,1.37.34s.71.52.94.88c.23.36.38.73.45,1.11h-.33c-.07-.34-.2-.67-.41-.97Z"/>
        <path d="M133.61,42.02h-.32l-4.72-6.53h-.03v6.53h-.32v-7.13h.32l4.72,6.54h.04v-6.54h.32v7.13Z"/>
      </g>
    </g>
  </g>
</svg>