<svg width="141" height="142" viewBox="0 0 141 142" fill="none" xmlns="http://www.w3.org/2000/svg">
<rect x="0.8" y="1.20039" width="139.2" height="139.2" rx="23.2" stroke="white" stroke-width="1.6"/>
<g clip-path="url(#clip0_1592_5573)">
<path d="M31.2901 28.7135C35.4482 26.2193 39.5971 23.7029 43.7533 21.2031C43.757 40.5126 43.7404 59.8221 43.7607 79.1335C41.8624 80.2892 39.9513 81.4302 38.0493 82.5822C35.7636 83.9447 33.5038 85.3515 31.2052 86.6882C31.2274 67.7682 31.2071 48.8446 31.2144 29.9246C31.2421 29.524 31.1241 29.0938 31.2882 28.7153" fill="white"/>
<path d="M43.7534 21.2032C62.1328 21.1977 80.5103 21.2032 98.8879 21.1995C100.019 21.1848 101.138 21.6648 101.923 22.479C102.659 23.2488 103.101 24.303 103.092 25.3738C103.101 28.2742 103.092 31.1746 103.098 34.075C103.109 49.0884 103.109 64.1018 103.098 79.117C83.3199 79.1521 63.5404 79.117 43.7608 79.1336C43.7405 59.8241 43.7571 40.5127 43.7534 21.2032ZM70.4933 33.5913C67.9696 33.9329 65.4681 34.9077 63.6086 36.6892C61.9649 38.2604 60.9116 40.4574 60.8267 42.7393C63.3337 42.7356 65.8389 42.7503 68.3441 42.7319C68.4253 41.7811 68.7684 40.8211 69.4547 40.138C70.2036 39.3552 71.3179 39.0229 72.3786 39.0358C73.4541 39.0099 74.6366 39.2185 75.4243 40.0106C76.0036 40.5681 76.2176 41.3989 76.2213 42.1817C76.2102 43.0291 76.3098 43.9227 75.9335 44.7147C75.535 45.6434 74.5923 46.1972 73.6515 46.4465C72.172 46.8305 70.6335 46.6403 69.1245 46.6883C69.1245 48.4754 69.1134 50.2626 69.13 52.0515C70.2996 52.0774 71.4691 52.022 72.6369 52.0959C73.9079 52.2085 75.2362 52.5205 76.2213 53.3808C77.0274 54.075 77.4001 55.1679 77.365 56.2148C77.3908 57.3483 77.3853 58.5668 76.7396 59.5508C76.0571 60.6457 74.7565 61.1737 73.515 61.2826C72.1296 61.3989 70.6169 61.2383 69.4842 60.3613C68.6042 59.6967 68.0988 58.6351 67.9659 57.5551C65.4608 57.5551 62.9574 57.5551 60.4522 57.5551C60.5814 58.685 60.8507 59.8019 61.31 60.8432C62.107 62.7171 63.5606 64.2901 65.3408 65.2686C67.514 66.4963 70.0395 66.9265 72.5077 66.9966C75.4501 67.076 78.4866 66.5424 81.0361 65.0082C82.844 63.9338 84.3677 62.2777 85.0023 60.2432C85.4783 58.8179 85.3067 57.3022 85.3307 55.827C85.3528 54.3076 84.7533 52.7937 83.7036 51.6971C82.3311 50.2072 80.3904 49.3764 78.4368 48.9776C80.6007 48.4237 82.7259 47.1222 83.6981 45.0396C84.2257 43.9522 84.0855 42.7208 84.1003 41.554C84.115 40.2746 83.7756 38.9896 83.0893 37.9077C82.0083 36.1797 80.2226 35.0037 78.3335 34.3224C75.832 33.427 73.111 33.259 70.4877 33.5913" fill="#F4F4F4"/>
<path d="M103.099 34.0748C104.997 34.0693 106.898 34.0748 108.798 34.073C108.798 57.2466 108.801 80.4202 108.798 103.596C86.8117 103.596 64.8277 103.596 42.8418 103.596C42.067 103.618 41.2664 103.579 40.5524 103.243C39.0655 102.604 38.0343 101.046 38.0546 99.4232C38.0509 93.8089 38.0546 88.1964 38.0546 82.5839C39.9566 81.4301 41.8659 80.291 43.766 79.1352C63.5456 79.1205 83.3251 79.1537 103.103 79.1186C103.112 64.1052 103.112 49.0919 103.103 34.0766M55.4083 84.8363C55.4046 88.8906 55.4083 92.9449 55.4083 96.9991C56.279 97.001 57.1479 97.001 58.0187 96.9991C58.0297 94.2944 57.9965 91.5879 58.0334 88.8832C58.7326 91.5916 59.4613 94.2926 60.1641 97.001C61.1215 97.0028 62.079 97.0028 63.0346 97.001C63.6839 94.4089 64.4126 91.8371 65.0158 89.2358C65.0933 89.8894 65.0583 90.5485 65.0657 91.2039C65.0675 93.1387 65.0638 95.0735 65.0693 97.0084C66.0286 97.0047 66.9897 97.0065 67.949 97.0084C67.949 92.9541 67.9509 88.8998 67.949 84.8456C66.7186 84.84 65.4881 84.8456 64.2576 84.8419C63.3961 88.0986 62.5402 91.3571 61.6731 94.6138C60.8744 91.3516 60.0479 88.0967 59.2288 84.84C57.9541 84.8474 56.6812 84.84 55.4083 84.8419M69.5023 96.9973C70.5114 97.0028 71.5205 96.9991 72.5296 96.9991C72.7602 96.113 72.9742 95.2231 73.2103 94.3388C74.4223 94.348 75.6362 94.3443 76.8482 94.3406C77.1009 95.2249 77.3499 96.1093 77.5916 96.9973C78.621 97.0047 79.6541 96.9973 80.6853 97.0028C79.4751 92.9559 78.2613 88.9091 77.0289 84.8695C75.6933 84.792 74.3264 84.8603 72.9779 84.8363C71.8212 88.8906 70.6664 92.9449 69.5042 96.9973M81.9434 84.84C83.089 86.7508 84.2346 88.6617 85.3802 90.5725C84.1018 92.7159 82.8252 94.8649 81.5376 97.0047C82.6536 97.001 83.7697 97.0047 84.884 97.0028C85.6588 95.4834 86.4631 93.9787 87.236 92.4575C87.2988 92.5313 87.3559 92.6144 87.4057 92.7012C88.1289 94.1375 88.8723 95.561 89.5955 96.9991C90.7374 97.0047 91.8811 97.0047 93.0249 96.9991C91.7446 94.7726 90.4662 92.5442 89.1915 90.314C90.3352 88.4863 91.4956 86.6659 92.6412 84.8382C91.5712 84.8382 90.4994 84.8382 89.4295 84.8382C88.7118 86.1213 88.0588 87.4413 87.3043 88.7023C86.6291 87.4118 85.9465 86.125 85.2621 84.84C84.1571 84.84 83.0521 84.8363 81.9452 84.84" fill="#D4D4D4"/>
<path d="M74.9967 86.8477C75.4099 88.5942 75.8416 90.337 76.2585 92.0835C75.4284 92.0835 74.5982 92.0872 73.7681 92.0817C74.1702 90.3351 74.5816 88.5923 74.9967 86.8495" fill="#D4D4D4"/>
</g>
<path d="M47.9942 125.972C47.089 125.972 46.2783 125.817 45.5622 125.508C44.846 125.199 44.2846 124.763 43.8778 124.202C43.4767 123.64 43.2676 123.004 43.2504 122.294H45.8543C45.8715 122.586 45.9747 122.85 46.1637 123.085C46.3528 123.32 46.6077 123.503 46.9286 123.635C47.2494 123.766 47.6046 123.832 47.9942 123.832C48.401 123.832 48.7676 123.761 49.0942 123.617C49.4265 123.469 49.6814 123.268 49.859 123.016C50.0366 122.758 50.1226 122.466 50.1168 122.139C50.1226 121.801 50.0309 121.501 49.8418 121.237C49.6528 120.973 49.3778 120.77 49.0168 120.627C48.6616 120.478 48.2434 120.403 47.7622 120.403H46.602V118.496H47.7622C48.1689 118.496 48.5327 118.427 48.8536 118.289C49.1744 118.146 49.4208 117.948 49.5926 117.696C49.7645 117.444 49.8476 117.158 49.8418 116.837C49.8476 116.522 49.776 116.244 49.627 116.003C49.478 115.757 49.2632 115.568 48.9825 115.436C48.7017 115.304 48.3809 115.239 48.02 115.239C47.6533 115.239 47.3181 115.304 47.0145 115.436C46.7109 115.562 46.4645 115.746 46.2754 115.986C46.0921 116.221 45.9918 116.496 45.9747 116.811H43.4997C43.5226 116.107 43.7317 115.479 44.127 114.929C44.5223 114.379 45.058 113.952 45.734 113.649C46.4158 113.339 47.1778 113.185 48.02 113.185C48.8736 113.185 49.627 113.336 50.2801 113.64C50.9333 113.944 51.4403 114.362 51.8012 114.895C52.1622 115.428 52.3369 116.023 52.3254 116.682C52.3369 117.135 52.2424 117.547 52.0418 117.92C51.8471 118.292 51.5692 118.599 51.2083 118.839C50.853 119.074 50.4405 119.235 49.9708 119.321V119.415C50.578 119.49 51.0937 119.659 51.5176 119.922C51.9473 120.18 52.271 120.512 52.4887 120.919C52.7064 121.326 52.8096 121.79 52.7981 122.311C52.8096 123.004 52.609 123.632 52.1965 124.193C51.784 124.749 51.2111 125.184 50.4778 125.5C49.7445 125.815 48.9166 125.972 47.9942 125.972ZM55.5141 125.8V123.583H58.6336C59.4357 123.583 60.1031 123.44 60.6359 123.153C61.1688 122.867 61.5698 122.429 61.8391 121.839C62.1083 121.243 62.243 120.486 62.243 119.57C62.243 118.653 62.1083 117.9 61.8391 117.31C61.5755 116.714 61.1773 116.276 60.6445 115.995C60.1117 115.714 59.4471 115.574 58.6508 115.574H55.4539V113.357H58.7797C60.0286 113.357 61.1057 113.606 62.0109 114.104C62.9219 114.597 63.618 115.31 64.0992 116.244C64.5862 117.178 64.8297 118.286 64.8297 119.57C64.8297 120.859 64.5862 121.97 64.0992 122.904C63.6122 123.838 62.9104 124.554 61.9938 125.053C61.0828 125.551 60 125.8 58.7453 125.8H55.5141ZM56.9406 125.8H54.3625V113.357H56.9406V125.8ZM73.2523 113.357L76.7155 121.787H76.8616L80.3163 113.357H83.5046V125.8H80.9952V117.645H80.8921L77.6437 125.74H75.9163L72.6765 117.628H72.5733V125.8H70.0726V113.357H73.2523ZM84.562 125.8L88.8588 113.357H92.176L96.4815 125.8H93.7057L90.569 116.167H90.4659L87.3206 125.8H84.562ZM93.826 120.91V122.93H87.1831V120.91H93.826ZM102.455 117.636H102.558L105.101 113.357H108.023L104.233 119.578L108.109 125.8H105.136L102.558 121.521H102.455L99.8764 125.8H96.9115L100.813 119.578L96.9803 113.357H99.9193L102.455 117.636Z" fill="white"/>
<defs>
<clipPath id="clip0_1592_5573">
<rect width="77.6" height="82.4" fill="white" transform="translate(31.1997 21.2002)"/>
</clipPath>
</defs>
</svg>
