<svg width="141" height="142" viewBox="0 0 141 142" fill="none" xmlns="http://www.w3.org/2000/svg">
<rect x="0.8" y="1.20039" width="139.2" height="139.2" rx="23.2" stroke="white" stroke-width="1.6"/>
<g clip-path="url(#clip0_1592_5557)">
<path d="M87.3697 57.0403C85.0964 55.2534 82.0413 54.1685 78.7055 54.1646C75.3698 54.1646 72.3147 55.2534 70.0414 57.0403C67.728 58.8591 66.1924 61.4198 66.016 64.3275C65.8396 67.315 67.1306 70.091 69.3999 72.1492C71.7173 74.2432 75.0169 75.5554 78.7055 75.5554C82.3941 75.5554 85.6898 74.2392 88.0031 72.1452C90.2724 70.091 91.5674 67.311 91.391 64.3235C91.2146 61.4198 89.679 58.8591 87.3657 57.0403H87.3697Z" fill="white"/>
<path d="M108.748 63.7571C108.243 60.2112 107.008 56.8848 105.111 53.8494C103.371 51.0614 101.134 48.6244 98.4718 46.5662L98.3997 46.5383C98.3435 46.4905 98.3035 46.4346 98.2433 46.3867L70.3986 25.8534C68.7186 24.5132 66.2529 24.7805 64.9058 26.4637C63.5586 28.1389 63.8273 30.5879 65.5192 31.9281L77.2224 40.5594H39.615C36.9287 40.5594 34.7276 42.7452 34.7276 45.4215C34.7276 48.0979 36.9247 50.2836 39.615 50.2836H53.5995L24.7083 74.7816C22.6595 76.5286 22.423 79.5999 24.1791 81.634C25.1453 82.7548 26.5165 83.3332 27.8917 83.3332C29.0183 83.3332 30.149 82.9463 31.0711 82.1645L48.5718 67.2392C48.5277 68.8067 48.4956 70.2306 48.5036 70.6654C48.5036 77.5018 56.2336 95.0038 79.0667 95.0038C95.3245 95.0038 108.932 85.2796 108.932 69.2175C109.072 67.4027 109.012 65.5759 108.756 63.7611L108.748 63.7571ZM96.3469 70.0192C95.5651 72.1332 94.2941 74.1115 92.5661 75.8386C89.0299 79.3765 84.0784 81.3788 78.7139 81.3867C73.3494 81.3947 68.3939 79.4084 64.8537 75.8785C63.1256 74.1594 61.8547 72.181 61.0689 70.0711C60.3031 68.001 60.0024 65.8033 60.2028 63.5856C60.3953 61.4158 61.0488 59.3497 62.0993 57.4791C63.1337 55.6403 64.557 53.9771 66.309 52.5731C69.749 49.8249 74.1272 48.3372 78.7099 48.3292C83.2966 48.3252 87.6707 49.801 91.1107 52.5372C92.8628 53.9372 94.2861 55.5924 95.3165 57.4272C96.371 59.2939 97.0245 61.36 97.2169 63.5298C97.4134 65.7514 97.1167 67.9452 96.3469 70.0192Z" fill="white"/>
</g>
<path d="M43.1516 125V112.556H47.9125C50.6109 112.556 51.9516 113.931 51.9516 115.787C51.9516 117.3 50.9891 118.142 49.7688 118.434V118.555C51.0922 118.623 52.4328 119.723 52.4328 121.614C52.4328 123.556 51.0406 125 48.1875 125H43.1516ZM47.8438 123.127C49.4766 123.127 50.1641 122.422 50.1641 121.442C50.1641 120.325 49.2875 119.466 47.8953 119.466H45.3859V123.127H47.8438ZM47.6375 117.85C48.8234 117.85 49.7172 117.162 49.7172 116.062C49.7172 115.1 49.0297 114.412 47.6891 114.412H45.3859V117.85H47.6375ZM55.9996 112.556V125H53.7996V112.556H55.9996ZM61.8866 125.189C59.0679 125.189 57.3491 123.316 57.3491 120.394C57.3491 117.506 59.1023 115.547 61.7663 115.547C64.0523 115.547 66.0288 116.973 66.0288 120.256V120.944H59.5148C59.5405 122.534 60.4773 123.47 61.9038 123.47C62.8663 123.47 63.5194 123.058 63.7944 122.508H65.9429C65.5476 124.123 64.0523 125.189 61.8866 125.189ZM59.5319 119.448H63.9319C63.9148 118.177 63.0726 117.248 61.8007 117.248C60.4773 117.248 59.6007 118.254 59.5319 119.448ZM69.5784 119.534V125H67.3784V115.667H69.4753V117.248H69.5956C70.0253 116.2 70.9706 115.547 72.3628 115.547C74.3049 115.547 75.5768 116.819 75.5596 119.053V125H73.3768V119.397C73.3768 118.142 72.7065 117.403 71.5549 117.403C70.3862 117.403 69.5784 118.177 69.5784 119.534ZM80.7764 125.172C78.5764 125.172 76.9264 123.419 76.9264 120.342C76.9264 117.231 78.6279 115.547 80.7936 115.547C82.4436 115.547 83.1311 116.527 83.4576 117.197H83.5436V112.556H85.7264V125H83.5779V123.522H83.4576C83.1139 124.209 82.392 125.172 80.7764 125.172ZM81.3779 123.367C82.7873 123.367 83.5951 122.147 83.5951 120.325C83.5951 118.52 82.8045 117.334 81.3779 117.334C79.917 117.334 79.1608 118.589 79.1608 120.325C79.1608 122.095 79.9342 123.367 81.3779 123.367ZM91.7338 125.189C88.915 125.189 87.1963 123.316 87.1963 120.394C87.1963 117.506 88.9494 115.547 91.6134 115.547C93.8994 115.547 95.8759 116.973 95.8759 120.256V120.944H89.3619C89.3877 122.534 90.3244 123.47 91.7509 123.47C92.7134 123.47 93.3666 123.058 93.6416 122.508H95.79C95.3947 124.123 93.8994 125.189 91.7338 125.189ZM89.3791 119.448H93.7791C93.7619 118.177 92.9197 117.248 91.6478 117.248C90.3244 117.248 89.4478 118.254 89.3791 119.448ZM97.2255 125V115.667H99.3568V117.214H99.4599C99.7864 116.148 100.697 115.53 101.763 115.53C102.004 115.53 102.347 115.547 102.554 115.581V117.609C102.365 117.541 101.901 117.472 101.54 117.472C100.319 117.472 99.4255 118.314 99.4255 119.5V125H97.2255Z" fill="white"/>
<defs>
<clipPath id="clip0_1592_5557">
<rect width="86" height="70" fill="white" transform="translate(23 25)"/>
</clipPath>
</defs>
</svg>
