<svg width="141" height="142" viewBox="0 0 141 142" fill="none" xmlns="http://www.w3.org/2000/svg">
<rect x="0.8" y="1.20039" width="139.2" height="139.2" rx="23.2" stroke="white" stroke-width="1.6"/>
<g clip-path="url(#clip0_1592_5541)">
<path d="M36.5223 82.5832C38.4439 81.4293 40.3729 80.2902 42.2926 79.1345C42.2721 59.825 42.2889 40.5154 42.2851 21.2041C38.0842 23.7039 33.8925 26.2203 29.6915 28.7145C29.5238 29.093 29.645 29.5231 29.617 29.9237C29.6114 48.8437 29.63 67.7673 29.6077 86.6873C31.93 85.3506 34.2149 83.9438 36.5223 82.5813V82.5832Z" fill="white"/>
<path d="M107.998 34.0721C106.081 34.0739 104.161 34.0702 102.241 34.0739C102.243 36.9614 102.241 39.8488 102.245 42.7363C102.249 51.9747 102.249 61.215 102.245 70.4534C102.245 73.3409 102.245 76.2284 102.241 79.1159C92.2494 79.1325 82.2577 79.1325 72.2678 79.1306C67.2729 79.1306 62.2761 79.1288 57.2811 79.1269C52.2843 79.1269 47.2894 79.1269 42.2926 79.1306C40.3748 80.2864 38.4439 81.4273 36.5223 82.5793C36.5223 88.1918 36.5204 93.8043 36.5223 99.4186C36.5037 101.041 37.5437 102.6 39.0459 103.238C39.7672 103.574 40.576 103.613 41.3588 103.591C63.5714 103.591 85.7821 103.591 107.995 103.591C108 80.4174 107.997 57.2438 107.995 34.0684L107.998 34.0721ZM58.3621 92.7741C58.6715 93.4572 59.102 93.9742 59.6537 94.3249C60.2035 94.6776 60.8354 94.8529 61.5455 94.8529C62.0692 94.8529 62.5482 94.7588 62.9806 94.5705C63.413 94.3822 63.7801 94.1108 64.0765 93.7526C64.3747 93.3944 64.5741 92.9698 64.6766 92.4732L67.0511 92.4824C66.9299 93.3114 66.6261 94.0646 66.1397 94.744C65.6514 95.4234 65.0121 95.9607 64.2163 96.3539C63.4223 96.7472 62.5221 96.9447 61.5175 96.9447C60.3675 96.9447 59.3406 96.6788 58.4348 96.1453C57.529 95.6117 56.8208 94.8437 56.3101 93.8394C55.7994 92.835 55.5422 91.6535 55.5422 90.2947C55.5422 88.9358 55.8013 87.7377 56.3175 86.737C56.8357 85.7364 57.5439 84.9702 58.4423 84.4385C59.3425 83.9086 60.3657 83.6428 61.5156 83.6428C62.4792 83.6428 63.3552 83.8237 64.1473 84.1837C64.9375 84.5437 65.5861 85.0662 66.0875 85.7474C66.5907 86.4305 66.9094 87.2429 67.0492 88.1844H64.6747C64.5909 87.6786 64.4026 87.2392 64.11 86.8699C63.8174 86.5007 63.4502 86.2182 63.0085 86.0244C62.5668 85.8305 62.0804 85.7345 61.551 85.7345C60.8354 85.7345 60.2017 85.9118 59.6519 86.2662C59.102 86.6207 58.6715 87.1413 58.3603 87.8263C58.0509 88.5112 57.8962 89.3346 57.8962 90.2947C57.8962 91.2547 58.0509 92.0929 58.3603 92.776L58.3621 92.7741ZM77.6541 96.7656L76.5657 93.5551H71.649L70.5606 96.7656H68.0612L72.6648 83.82H75.563L80.1665 96.7656H77.6579H77.6541ZM91.7481 93.7526C91.2448 94.7237 90.5198 95.4696 89.5674 95.9884C88.6169 96.5072 87.4818 96.7656 86.1642 96.7656H81.7414V83.82H86.2462C87.5396 83.82 88.656 84.0785 89.5954 84.5936C90.5347 85.1087 91.2523 85.8527 91.7518 86.8238C92.2513 87.7949 92.501 88.9488 92.501 90.2836C92.501 91.6184 92.2494 92.7815 91.7481 93.7526Z" fill="#D4D4D4"/>
<path d="M88.364 86.3304C87.7657 86.0018 87.0183 85.8394 86.1219 85.8394H84.0903V94.7436H86.0492C86.9699 94.7436 87.7322 94.5775 88.3379 94.2433C88.9418 93.9091 89.3984 93.4125 89.7059 92.7553C90.0134 92.0962 90.1663 91.2727 90.1663 90.2832C90.1663 89.2936 90.0153 88.4702 89.7152 87.8111C89.4152 87.152 88.9641 86.6591 88.3658 86.3323L88.364 86.3304Z" fill="#D4D4D4"/>
<path d="M73.7089 38.3125L68.96 52.3123H78.7467L73.9996 38.3125H73.7089Z" fill="#F4F4F4"/>
<path d="M102.242 79.1151C102.244 76.2277 102.242 73.3402 102.246 70.4527C102.249 61.2143 102.249 51.974 102.246 42.7356C102.246 39.8481 102.246 36.9606 102.242 34.0732C102.236 31.1728 102.246 28.2724 102.236 25.372C102.246 24.3012 101.798 23.247 101.055 22.4771C100.262 21.6648 99.1312 21.1848 97.9868 21.1995C79.4198 21.2014 60.851 21.1977 42.284 21.2014C42.2877 40.5109 42.2709 59.8204 42.2914 79.1317C47.2882 79.1281 52.2831 79.1262 57.2799 79.128C62.2767 79.128 67.2717 79.1299 72.2666 79.1317C82.2584 79.1336 92.2501 79.1317 102.24 79.117L102.242 79.1151ZM64.3437 65.9295H57.6397L69.9816 31.2171H77.7499L90.0918 65.9295H83.3636L80.4449 57.3243H67.2605L64.3418 65.9295H64.3437Z" fill="#F4F4F4"/>
<path d="M74.0538 86.4653L73.8805 86.9767L73.6699 87.5989L72.2832 91.6864H72.7007H75.0267H75.9325L74.1619 86.4653H74.0538Z" fill="#D4D4D4"/>
</g>
<path d="M38.7608 125.8L43.0577 113.357H46.3749L50.6804 125.8H47.9046L44.7679 116.167H44.6647L41.5194 125.8H38.7608ZM48.0249 120.91V122.93H41.3819V120.91H48.0249ZM57.6674 116.467H60.194V125.8H57.762V124.116H57.6588C57.4354 124.672 57.0802 125.113 56.5932 125.439C56.1062 125.76 55.519 125.921 54.8315 125.921C54.2127 125.921 53.6656 125.78 53.1901 125.5C52.7146 125.213 52.3422 124.806 52.0729 124.279C51.8094 123.746 51.6776 123.122 51.6776 122.406V116.467H54.2213V121.967C54.2213 122.328 54.2872 122.646 54.419 122.921C54.5508 123.191 54.7398 123.4 54.9862 123.549C55.2383 123.692 55.5247 123.764 55.8456 123.764C56.1721 123.764 56.4729 123.689 56.7479 123.54C57.0286 123.391 57.2521 123.168 57.4182 122.87C57.5844 122.572 57.6674 122.222 57.6674 121.821V116.467ZM66.7428 118.375H61.1568V116.467H66.7428V118.375ZM64.9897 114.233V122.93C64.9897 123.171 65.024 123.36 65.0928 123.497C65.1673 123.629 65.2675 123.723 65.3936 123.781C65.5253 123.832 65.6857 123.861 65.8748 123.867C66.1154 123.872 66.4477 123.858 66.8717 123.824V125.835C66.4878 125.898 66.0438 125.929 65.5397 125.929C64.9094 125.929 64.3623 125.835 63.8982 125.646C63.4342 125.451 63.0732 125.156 62.8154 124.76C62.5576 124.365 62.4316 123.872 62.4373 123.282V114.233H64.9897ZM72.0884 125.981C71.1603 125.981 70.3496 125.78 69.6564 125.379C68.9632 124.978 68.4304 124.414 68.058 123.686C67.6856 122.959 67.4994 122.119 67.4994 121.168C67.4994 120.206 67.6856 119.364 68.058 118.642C68.4304 117.914 68.9632 117.35 69.6564 116.949C70.3496 116.548 71.1603 116.347 72.0884 116.347C73.0108 116.347 73.8186 116.548 74.5119 116.949C75.2108 117.35 75.7436 117.914 76.1103 118.642C76.477 119.364 76.6603 120.206 76.6603 121.168C76.6603 122.119 76.477 122.959 76.1103 123.686C75.7436 124.414 75.2108 124.978 74.5119 125.379C73.8186 125.78 73.0108 125.981 72.0884 125.981ZM72.1056 124.013C72.5296 124.013 72.8877 123.89 73.1798 123.643C73.4778 123.397 73.7012 123.059 73.8502 122.629C73.9991 122.194 74.0736 121.701 74.0736 121.151C74.0736 120.595 73.9991 120.103 73.8502 119.673C73.7012 119.243 73.4778 118.905 73.1798 118.659C72.8877 118.413 72.5296 118.289 72.1056 118.289C71.6702 118.289 71.3007 118.413 70.997 118.659C70.6934 118.905 70.4642 119.243 70.3095 119.673C70.1548 120.097 70.0775 120.59 70.0775 121.151C70.0775 121.707 70.1548 122.2 70.3095 122.629C70.4642 123.059 70.6934 123.397 70.997 123.643C71.3007 123.89 71.6702 124.013 72.1056 124.013ZM86.2857 117.696C86.2226 117.238 86.0679 116.843 85.8216 116.51C85.581 116.172 85.2659 115.915 84.8763 115.737C84.4867 115.559 84.0541 115.471 83.5786 115.471C82.9312 115.471 82.364 115.634 81.8771 115.96C81.3958 116.281 81.0205 116.751 80.7513 117.37C80.482 117.983 80.3474 118.719 80.3474 119.578C80.3474 120.461 80.482 121.208 80.7513 121.821C81.0205 122.429 81.3958 122.893 81.8771 123.214C82.364 123.529 82.9226 123.686 83.5528 123.686C84.0284 123.686 84.4552 123.6 84.8333 123.428C85.2172 123.257 85.5351 123.013 85.7872 122.698C86.0393 122.377 86.2054 121.996 86.2857 121.555L88.9067 121.581C88.8094 122.36 88.5286 123.085 88.0646 123.755C87.6062 124.425 86.9875 124.964 86.2083 125.371C85.4291 125.772 84.5325 125.972 83.5185 125.972C82.407 125.972 81.413 125.72 80.5364 125.216C79.6599 124.706 78.9724 123.97 78.4739 123.007C77.9812 122.039 77.7349 120.896 77.7349 119.578C77.7349 118.249 77.9841 117.103 78.4825 116.141C78.9867 115.178 79.6742 114.445 80.545 113.941C81.4216 113.437 82.4127 113.185 83.5185 113.185C84.4752 113.185 85.3403 113.362 86.1138 113.717C86.8872 114.073 87.5146 114.591 87.9958 115.273C88.4828 115.949 88.7864 116.757 88.9067 117.696H86.2857ZM89.4399 125.8L93.7368 113.357H97.054L101.359 125.8H98.5837L95.4469 116.167H95.3438L92.1985 125.8H89.4399ZM98.704 120.91V122.93H92.061V120.91H98.704ZM103.568 125.8V123.583H106.688C107.49 123.583 108.157 123.44 108.69 123.153C109.223 122.867 109.624 122.429 109.893 121.839C110.163 121.243 110.297 120.486 110.297 119.57C110.297 118.653 110.163 117.9 109.893 117.31C109.63 116.714 109.232 116.276 108.699 115.995C108.166 115.714 107.501 115.574 106.705 115.574H103.508V113.357H106.834C108.083 113.357 109.16 113.606 110.065 114.104C110.976 114.597 111.672 115.31 112.154 116.244C112.641 117.178 112.884 118.286 112.884 119.57C112.884 120.859 112.641 121.97 112.154 122.904C111.667 123.838 110.965 124.554 110.048 125.053C109.137 125.551 108.054 125.8 106.8 125.8H103.568ZM104.995 125.8H102.417V113.357H104.995V125.8Z" fill="white"/>
<defs>
<clipPath id="clip0_1592_5541">
<rect width="78.4" height="82.4" fill="white" transform="translate(29.6001 21.2002)"/>
</clipPath>
</defs>
</svg>
