<svg width="141" height="142" viewBox="0 0 141 142" fill="none" xmlns="http://www.w3.org/2000/svg">
<rect x="0.8" y="1.39961" width="139.2" height="139.2" rx="23.2" stroke="white" stroke-width="1.6"/>
<g clip-path="url(#clip0_1801_8185)">
<path d="M35.75 23.25L42.0945 93.4501L69.5021 99.75L97.4039 93.5489L103.25 23.25H35.75ZM93.6643 90.1696L69.4791 95.67L69.4312 87.3121L68.5323 87.5268L52.1766 83.7771L51.2109 71.8526L58.7944 73.2035L59.0926 77.1783L68.6073 79.5792L69.3874 79.4067L69.306 65.2265L58.4231 65.0287L58.4982 56.7782L69.2581 56.5888L69.1872 44.3971L48.535 44.2519L48.0157 36.0014H69.1392L69.085 26.5704L99.1183 26.0696L93.6664 90.1696H93.6643Z" fill="#EAEAEA"/>
<path d="M79.0876 65.4015L69.3059 65.2227L69.3872 79.4028L78.0469 77.4754L79.0876 65.4015Z" fill="white"/>
<path d="M80.7229 44.4745L69.1851 44.3945L69.256 56.5862L79.9053 56.3989L80.7229 44.4745Z" fill="white"/>
<path d="M69.083 26.568L69.1372 35.999H90.0167L85.8537 83.4001L69.4313 87.3118L69.4793 95.6697L93.6645 90.1693L99.1164 26.0693L69.083 26.568Z" fill="white"/>
</g>
<path d="M61.3672 119.887C61.1609 118.512 60.0953 117.67 58.6516 117.67C56.7094 117.67 55.4375 119.166 55.4375 121.778C55.4375 124.459 56.7266 125.886 58.6344 125.886C60.0609 125.886 61.1094 125.095 61.3672 123.755L63.9797 123.772C63.6875 126.075 61.7625 128.172 58.6 128.172C55.2656 128.172 52.8078 125.834 52.8078 121.778C52.8078 117.722 55.3172 115.384 58.6 115.384C61.4703 115.384 63.6359 117.034 63.9797 119.887H61.3672ZM72.1871 119.114C72.0839 118.134 71.2933 117.55 70.0386 117.55C68.7324 117.55 68.0105 118.152 67.9933 118.977C67.9761 119.87 68.9214 120.283 69.9871 120.523L71.1043 120.798C73.2355 121.28 74.8339 122.362 74.8339 124.442C74.8339 126.728 73.0464 128.172 70.0214 128.172C67.0136 128.172 65.0886 126.78 65.0199 124.116H67.5293C67.6152 125.37 68.6121 126.006 69.9871 126.006C71.3449 126.006 72.2214 125.37 72.2214 124.442C72.2214 123.6 71.448 123.205 70.0902 122.861L68.7324 122.534C66.6355 122.019 65.3464 120.97 65.3464 119.148C65.3464 116.88 67.3402 115.384 70.0558 115.384C72.8058 115.384 74.6277 116.914 74.6621 119.114H72.1871ZM82.921 119.114C82.8179 118.134 82.0273 117.55 80.7726 117.55C79.4663 117.55 78.7444 118.152 78.7273 118.977C78.7101 119.87 79.6554 120.283 80.721 120.523L81.8382 120.798C83.9694 121.28 85.5679 122.362 85.5679 124.442C85.5679 126.728 83.7804 128.172 80.7554 128.172C77.7476 128.172 75.8226 126.78 75.7538 124.116H78.2632C78.3491 125.37 79.346 126.006 80.721 126.006C82.0788 126.006 82.9554 125.37 82.9554 124.442C82.9554 123.6 82.1819 123.205 80.8241 122.861L79.4663 122.534C77.3694 122.019 76.0804 120.97 76.0804 119.148C76.0804 116.88 78.0741 115.384 80.7898 115.384C83.5398 115.384 85.3616 116.914 85.396 119.114H82.921Z" fill="white"/>
<defs>
<clipPath id="clip0_1801_8185">
<rect width="67.5" height="76.5" fill="white" transform="translate(35.75 23.25)"/>
</clipPath>
</defs>
</svg>
