<svg width="141" height="141" viewBox="0 0 141 141" fill="none" xmlns="http://www.w3.org/2000/svg">
<rect x="1" y="1" width="138.8" height="138.8" rx="23" stroke="white" stroke-width="2" stroke-dasharray="10 5"/>
<path d="M37.8436 66.8082C36.4996 66.8082 35.8276 65.5389 35.8276 63.0002C35.8276 61.6189 36.0516 59.9015 36.4996 57.8482C36.985 55.7949 37.7316 53.4615 38.7396 50.8482C37.657 50.9229 36.7236 50.9789 35.9396 51.0162C35.193 51.0535 34.6143 51.0722 34.2036 51.0722C32.3743 51.0722 31.4596 50.1949 31.4596 48.4402C31.4596 48.3282 31.5343 48.2722 31.6836 48.2722L32.7476 48.5522C36.6676 48.5522 38.9823 48.4962 39.6916 48.3842C41.745 43.5682 44.321 38.5095 47.4196 33.2082C47.681 32.9469 48.3156 32.8162 49.3236 32.8162C50.3316 32.8162 50.8356 33.0589 50.8356 33.5442L48.2036 37.8562C47.0463 39.7602 46.001 41.5895 45.0676 43.3442C44.1716 45.0615 43.3503 46.7042 42.6036 48.2722L51.8436 47.8242C53.1876 47.7869 55.129 47.5629 57.6676 47.1522C59.1983 44.1655 60.8223 41.3095 62.5396 38.5842C64.2943 35.8215 65.377 34.4402 65.7876 34.4402C66.2356 34.4402 66.7023 34.5522 67.1876 34.7762C67.7103 34.9629 67.9716 35.1682 67.9716 35.3922C67.561 35.9522 67.1316 36.5495 66.6836 37.1842C66.2356 37.8189 65.6943 38.5655 65.0596 39.4242C59.4596 46.8535 56.6596 52.4162 56.6596 56.1122C56.6596 57.7922 57.3316 58.6322 58.6756 58.6322L60.5796 58.3522C60.6916 58.3522 60.7476 58.3895 60.7476 58.4642C60.7476 58.6509 60.4116 58.8562 59.7396 59.0802C59.105 59.3415 58.5823 59.4722 58.1716 59.4722C57.313 59.4722 56.6036 59.0989 56.0436 58.3522C55.521 57.6055 55.2596 56.6722 55.2596 55.5522C55.2596 53.3495 55.8943 50.9602 57.1636 48.3842C51.1156 49.8402 45.9076 50.5682 41.5396 50.5682C38.8143 56.5042 37.4516 60.9842 37.4516 64.0082C37.4516 64.9415 37.545 65.5949 37.7316 65.9682C37.9183 66.3789 38.049 66.6215 38.1236 66.6962C38.2356 66.7709 38.1423 66.8082 37.8436 66.8082ZM63.7646 60.6482C63.018 60.6482 62.3273 60.3122 61.6926 59.6402C61.0953 58.9309 60.7966 58.0349 60.7966 56.9522C60.7966 55.8695 61.45 54.1895 62.7566 51.9122C64.0633 49.6722 65.6686 47.6562 67.5726 45.8642C69.4393 44.1095 71.0446 43.2322 72.3886 43.2322H72.9486C74.33 43.2322 75.506 43.5122 76.4766 44.0722C77.4473 44.5949 77.9326 45.3042 77.9326 46.2002C77.9326 46.6109 77.7646 46.8162 77.4286 46.8162C77.3166 46.8162 77.2606 46.7602 77.2606 46.6482C76.6633 45.2669 75.7486 44.5762 74.5166 44.5762C72.3886 44.5762 69.962 46.3309 67.2366 49.8402C64.5113 53.2749 63.1486 55.9255 63.1486 57.7922C63.1486 58.5015 63.3353 58.8562 63.7086 58.8562C65.3886 58.8562 68.9166 55.0669 74.2926 47.4882C74.2553 47.5255 74.274 47.5255 74.3486 47.4882C74.4606 47.4135 74.554 47.3762 74.6286 47.3762C74.8153 47.3762 75.2073 47.5629 75.8046 47.9362C76.402 48.2722 76.7006 48.5709 76.7006 48.8322C76.7006 48.8322 76.626 48.9629 76.4766 49.2242C76.3273 49.4482 76.1406 49.8029 75.9166 50.2882C75.3193 51.5575 74.8526 52.8082 74.5166 54.0402C74.218 55.2349 74.0686 56.2802 74.0686 57.1762C74.0686 59.1549 74.554 60.1442 75.5246 60.1442L76.0846 60.0322L76.1966 60.0882C76.1966 60.4242 75.73 60.5922 74.7966 60.5922C73.9006 60.5922 73.154 60.1815 72.5566 59.3602C71.9966 58.5015 71.7166 57.3629 71.7166 55.9442C71.7166 54.5629 71.9593 53.0322 72.4446 51.3522C72.4073 51.4642 72.2766 51.6695 72.0526 51.9682C71.8286 52.2669 71.474 52.7895 70.9886 53.5362C67.9273 58.2775 65.5193 60.6482 63.7646 60.6482ZM78.9271 60.3122C78.5537 60.3122 78.1991 60.2189 77.8631 60.0322C77.5271 59.8082 77.3404 59.5842 77.3031 59.3602C77.3031 58.7255 77.9191 56.4855 79.1511 52.6402C80.3831 48.7575 80.9991 45.8455 80.9991 43.9042C80.9991 43.3442 80.8684 43.0269 80.6071 42.9522C80.3457 42.8402 80.0844 42.8029 79.8231 42.8402C79.5617 42.8402 79.4311 42.7469 79.4311 42.5602C79.4311 42.2242 79.7111 42.0562 80.2711 42.0562C82.7724 42.0562 84.0231 43.0829 84.0231 45.1362C84.0231 45.8829 83.1271 48.9255 81.3351 54.2642C82.1564 52.9575 82.9591 51.7629 83.7431 50.6802C84.5644 49.5602 85.3484 48.5335 86.0951 47.6002C87.6257 45.7335 88.6524 44.8002 89.1751 44.8002C89.1751 44.8002 89.1751 44.8189 89.1751 44.8562C89.2124 44.8562 89.2311 44.8749 89.2311 44.9122C89.2311 44.9495 89.1937 45.0429 89.1191 45.1922C89.0817 45.3042 88.9697 45.4722 88.7831 45.6962C84.7511 50.5495 81.9511 54.7309 80.3831 58.2402L79.8791 59.6962C79.7297 60.1069 79.4124 60.3122 78.9271 60.3122ZM90.5191 60.9282C89.4364 60.9282 88.5777 60.4242 87.9431 59.4162C87.3457 58.4829 87.0471 57.0829 87.0471 55.2162C87.0471 53.4242 87.5324 51.0162 88.5031 47.9922C89.4737 44.9682 90.4071 43.4562 91.3031 43.4562H91.5831C92.8151 43.4562 93.4684 43.6989 93.5431 44.1842C93.4684 44.1095 93.3751 44.2215 93.2631 44.5202C92.7404 45.4535 92.2364 46.4989 91.7511 47.6562C91.3031 48.8135 90.8737 50.0642 90.4631 51.4082C89.6417 54.0215 89.2311 55.7762 89.2311 56.6722C89.2311 58.9495 89.6417 60.0882 90.4631 60.0882C90.6871 60.0882 91.0044 59.9202 91.4151 59.5842C91.8631 59.2482 92.0684 59.0615 92.0311 59.0242C92.1431 59.0242 92.1991 59.1735 92.1991 59.4722C92.1991 60.4429 91.6391 60.9282 90.5191 60.9282ZM105.174 62.2722C103.494 62.2722 102.654 60.9282 102.654 58.2402C102.654 56.6349 103.251 53.7789 104.446 49.6722C103.662 51.2029 102.896 52.5842 102.15 53.8162C101.44 55.0109 100.675 56.1495 99.8536 57.2322C98.1736 59.4349 96.7362 60.5362 95.5416 60.5362C94.7949 60.5362 94.0296 60.0695 93.2456 59.1362C92.4989 58.2029 92.1256 57.3629 92.1256 56.6162C92.1256 54.2642 93.3762 51.4455 95.8776 48.1602C98.4162 44.8002 100.675 43.1202 102.654 43.1202C103.214 43.1202 103.792 43.2882 104.39 43.6242C105.062 43.9229 105.398 44.2775 105.398 44.6882C105.398 44.9869 105.23 45.1362 104.894 45.1362L103.774 44.5202C102.504 44.5202 100.544 46.4055 97.8936 50.1762C95.2802 53.9095 93.9736 56.5415 93.9736 58.0722C93.9736 58.6322 94.1042 58.9122 94.3656 58.9122C94.7389 58.9122 95.4109 58.5015 96.3816 57.6802C97.3522 56.8589 98.6589 55.4962 100.302 53.5922C101.982 51.6509 103.68 49.4482 105.398 46.9842C105.846 45.9762 106.331 44.8189 106.854 43.5122C107.414 42.1682 108.086 40.5629 108.87 38.6962C108.907 38.6215 109.038 38.2855 109.262 37.6882C109.523 37.0909 109.803 36.4189 110.102 35.6722C110.438 34.9255 110.718 34.2722 110.942 33.7122C111.166 33.1522 111.278 32.8535 111.278 32.8162C111.278 32.2189 110.904 31.9202 110.158 31.9202L108.254 32.3122C107.992 32.3122 107.862 32.2002 107.862 31.9762C107.862 31.3789 108.702 31.0802 110.382 31.0802C112.958 31.0802 114.246 31.9575 114.246 33.7122C114.246 34.2722 113.088 36.9229 110.774 41.6642C109.542 44.0909 108.646 45.9015 108.086 47.0962C107.563 48.2535 107.283 48.8695 107.246 48.9442C105.267 53.3122 104.278 56.7842 104.278 59.3602C104.278 60.8909 104.651 61.6562 105.398 61.6562L107.078 61.0402L107.246 61.0962C107.246 61.3575 106.966 61.6189 106.406 61.8802C105.883 62.1415 105.472 62.2722 105.174 62.2722ZM30.9167 98.2722C29.2367 98.2722 28.3967 96.9282 28.3967 94.2402C28.3967 92.6349 28.994 89.7789 30.1887 85.6722C29.4047 87.2029 28.6394 88.5842 27.8927 89.8162C27.1834 91.0109 26.418 92.1495 25.5967 93.2322C23.9167 95.4349 22.4794 96.5362 21.2847 96.5362C20.538 96.5362 19.7727 96.0695 18.9887 95.1362C18.242 94.2029 17.8687 93.3629 17.8687 92.6162C17.8687 90.2642 19.1194 87.4455 21.6207 84.1602C24.1594 80.8002 26.418 79.1202 28.3967 79.1202C28.9567 79.1202 29.5354 79.2882 30.1327 79.6242C30.8047 79.9229 31.1407 80.2775 31.1407 80.6882C31.1407 80.9869 30.9727 81.1362 30.6367 81.1362L29.5167 80.5202C28.2474 80.5202 26.2874 82.4055 23.6367 86.1762C21.0234 89.9095 19.7167 92.5415 19.7167 94.0722C19.7167 94.6322 19.8474 94.9122 20.1087 94.9122C20.482 94.9122 21.154 94.5015 22.1247 93.6802C23.0954 92.8589 24.402 91.4962 26.0447 89.5922C27.7247 87.6509 29.4234 85.4482 31.1407 82.9842C31.5887 81.9762 32.074 80.8189 32.5967 79.5122C33.1567 78.1682 33.8287 76.5629 34.6127 74.6962C34.65 74.6215 34.7807 74.2855 35.0047 73.6882C35.266 73.0909 35.546 72.4189 35.8447 71.6722C36.1807 70.9255 36.4607 70.2722 36.6847 69.7122C36.9087 69.1522 37.0207 68.8535 37.0207 68.8162C37.0207 68.2189 36.6474 67.9202 35.9007 67.9202L33.9967 68.3122C33.7354 68.3122 33.6047 68.2002 33.6047 67.9762C33.6047 67.3789 34.4447 67.0802 36.1247 67.0802C38.7007 67.0802 39.9887 67.9575 39.9887 69.7122C39.9887 70.2722 38.8314 72.9229 36.5167 77.6642C35.2847 80.0909 34.3887 81.9015 33.8287 83.0962C33.306 84.2535 33.026 84.8695 32.9887 84.9442C31.01 89.3122 30.0207 92.7842 30.0207 95.3602C30.0207 96.8909 30.394 97.6562 31.1407 97.6562L32.8207 97.0402L32.9887 97.0962C32.9887 97.3575 32.7087 97.6189 32.1487 97.8802C31.626 98.1415 31.2154 98.2722 30.9167 98.2722ZM36.6672 96.3122C36.3312 96.3122 35.9579 96.2189 35.5472 96.0322C35.1365 95.8455 34.9312 95.6215 34.9312 95.3602C34.9312 94.7255 35.5472 92.4855 36.7792 88.6402C38.0112 84.7575 38.6272 81.8455 38.6272 79.9042C38.6272 79.3069 38.3659 78.9709 37.8432 78.8962C37.3205 78.8215 37.0592 78.7095 37.0592 78.5602C37.0592 78.2242 37.3392 78.0562 37.8992 78.0562C40.4005 78.0562 41.6512 79.0829 41.6512 81.1362C41.6512 81.7335 41.0352 83.9362 39.8032 87.7442C41.8192 84.4589 44.0592 82.2002 46.5232 80.9682C47.1579 79.6242 48.0352 78.9522 49.1552 78.9522C50.2379 78.9522 50.8352 79.0455 50.9472 79.2322C50.9099 79.1949 50.8352 79.2509 50.7232 79.4002C50.6112 79.5495 50.4805 79.7175 50.3312 79.9042C49.7339 80.7629 49.2112 81.6029 48.7632 82.4242C48.3152 83.2082 48.0725 83.8242 48.0352 84.2722C48.0352 85.2802 48.3899 85.8962 49.0992 86.1202C49.1739 86.1575 49.2485 86.1762 49.3232 86.1762C49.4352 86.1762 49.4912 86.2135 49.4912 86.2882C49.4912 86.5869 49.1179 86.7362 48.3712 86.7362C47.6619 86.7362 47.0459 86.4562 46.5232 85.8962C46.2245 85.5602 46.0192 85.2055 45.9072 84.8322C45.7952 84.4215 45.7392 84.0295 45.7392 83.6562C45.7392 83.0589 45.8325 82.5175 46.0192 82.0322C45.0859 82.7415 44.2459 83.4882 43.4992 84.2722C42.7525 85.0189 42.0619 85.7655 41.4272 86.5122C40.2325 88.0429 39.3925 89.4055 38.9072 90.6002C38.4592 91.7575 38.1419 92.7469 37.9552 93.5682C37.7312 94.4642 37.5445 95.1549 37.3952 95.6402C37.2459 96.0882 37.0032 96.3122 36.6672 96.3122ZM49.6684 96.6482C48.9217 96.6482 48.2311 96.3122 47.5964 95.6402C46.9991 94.9309 46.7004 94.0349 46.7004 92.9522C46.7004 91.8695 47.3537 90.1895 48.6604 87.9122C49.9671 85.6722 51.5724 83.6562 53.4764 81.8642C55.3431 80.1095 56.9484 79.2322 58.2924 79.2322H58.8524C60.2337 79.2322 61.4097 79.5122 62.3804 80.0722C63.3511 80.5949 63.8364 81.3042 63.8364 82.2002C63.8364 82.6109 63.6684 82.8162 63.3324 82.8162C63.2204 82.8162 63.1644 82.7602 63.1644 82.6482C62.5671 81.2669 61.6524 80.5762 60.4204 80.5762C58.2924 80.5762 55.8657 82.3309 53.1404 85.8402C50.4151 89.2749 49.0524 91.9255 49.0524 93.7922C49.0524 94.5015 49.2391 94.8562 49.6124 94.8562C51.2924 94.8562 54.8204 91.0669 60.1964 83.4882C60.1591 83.5255 60.1777 83.5255 60.2524 83.4882C60.3644 83.4135 60.4577 83.3762 60.5324 83.3762C60.7191 83.3762 61.1111 83.5629 61.7084 83.9362C62.3057 84.2722 62.6044 84.5709 62.6044 84.8322C62.6044 84.8322 62.5297 84.9629 62.3804 85.2242C62.2311 85.4482 62.0444 85.8029 61.8204 86.2882C61.2231 87.5575 60.7564 88.8082 60.4204 90.0402C60.1217 91.2349 59.9724 92.2802 59.9724 93.1762C59.9724 95.1549 60.4577 96.1442 61.4284 96.1442L61.9884 96.0322L62.1004 96.0882C62.1004 96.4242 61.6337 96.5922 60.7004 96.5922C59.8044 96.5922 59.0577 96.1815 58.4604 95.3602C57.9004 94.5015 57.6204 93.3629 57.6204 91.9442C57.6204 90.5629 57.8631 89.0322 58.3484 87.3522C58.3111 87.4642 58.1804 87.6695 57.9564 87.9682C57.7324 88.2669 57.3777 88.7895 56.8924 89.5362C53.8311 94.2775 51.4231 96.6482 49.6684 96.6482ZM64.2148 96.5922C63.5802 96.5922 63.0575 96.3309 62.6468 95.8082C62.2735 95.2855 62.0868 94.6695 62.0868 93.9602C62.0868 91.6082 64.4202 87.5949 69.0868 81.9202C69.3855 81.5469 69.6282 81.3042 69.8148 81.1922C70.0388 81.0429 70.2255 80.9682 70.3748 80.9682C70.5988 80.9682 70.7108 81.0802 70.7108 81.3042L70.5988 81.4722C70.2255 82.0322 69.7215 82.8722 69.0868 83.9922C68.4522 85.1122 67.7615 86.4562 67.0148 88.0242C66.3428 89.4802 65.8015 90.7309 65.3908 91.7762C65.0175 92.8215 64.8308 93.5309 64.8308 93.9042C64.8308 94.6135 64.9988 94.9682 65.3348 94.9682C65.8948 94.9682 67.5188 93.2509 70.2068 89.8162C71.7375 87.9495 72.8762 86.4562 73.6228 85.3362C74.3695 84.2162 74.8735 83.3762 75.1348 82.8162C75.2468 82.7042 75.8068 82.6482 76.8148 82.6482C77.7855 82.6482 78.3082 82.7975 78.3828 83.0962C78.2708 83.0962 78.2148 84.7762 78.2148 88.1362C78.2148 92.8775 78.7935 95.2482 79.9508 95.2482C80.9215 95.2482 81.9482 94.0909 83.0308 91.7762C84.0762 89.4615 84.5988 87.2589 84.5988 85.1682C84.5988 82.4802 83.7962 80.8935 82.1908 80.4082C82.3402 80.0349 82.9935 79.8482 84.1508 79.8482C86.4655 79.8482 87.6228 81.5469 87.6228 84.9442C87.6228 87.6695 86.8388 90.1895 85.2708 92.5042C83.7028 94.8189 81.8735 95.9762 79.7828 95.9762C78.3268 95.9762 77.2068 95.1175 76.4228 93.4002C75.6388 91.6455 75.2468 89.3495 75.2468 86.5122C75.2468 85.4669 75.3215 84.6642 75.4708 84.1042C73.8655 86.6802 72.4655 88.8082 71.2708 90.4882C70.1135 92.1682 69.1802 93.4189 68.4708 94.2402C67.0895 95.8082 65.6708 96.5922 64.2148 96.5922ZM94.9606 76.6562C94.1392 76.6562 93.4672 76.4322 92.9446 75.9842C93.6539 75.4989 94.4006 74.8642 95.1846 74.0802C96.0059 73.2962 96.8459 72.3629 97.7046 71.2802C97.7792 71.2802 97.8166 71.3735 97.8166 71.5602L97.5366 73.1842C97.3499 74.3415 97.0139 75.2189 96.5286 75.8162C96.0432 76.3762 95.5206 76.6562 94.9606 76.6562ZM89.5846 97.0402C88.1659 97.0402 87.4566 96.0135 87.4566 93.9602C87.4566 90.8615 88.5766 86.7735 90.8166 81.6962C90.8166 81.5469 90.9099 81.2669 91.0966 80.8562C91.3206 80.4455 91.4886 80.1842 91.6006 80.0722C91.8619 79.8109 92.2166 79.6802 92.6646 79.6802C93.9712 79.6802 94.6806 79.9415 94.7926 80.4642C94.1952 81.4349 93.6166 82.5549 93.0566 83.8242C92.5339 85.0935 92.0112 86.4935 91.4886 88.0242C90.9286 89.6669 90.5179 91.0295 90.2566 92.1122C90.0326 93.1575 89.9206 93.9975 89.9206 94.6322C89.9206 95.5655 90.1632 96.0322 90.6486 96.0322C90.9846 96.0322 91.4139 95.8269 91.9366 95.4162C92.3472 95.0802 92.6272 94.8375 92.7766 94.6882C92.9632 94.5389 93.1312 94.4082 93.2806 94.2962C93.4299 94.2962 93.5046 94.3709 93.5046 94.5202C93.5046 94.9309 92.9632 95.4535 91.8806 96.0882C90.7979 96.7229 90.0326 97.0402 89.5846 97.0402ZM95.9502 96.3122C95.5769 96.3122 95.2222 96.2189 94.8862 96.0322C94.5502 95.8082 94.3635 95.5842 94.3262 95.3602C94.3262 94.7255 94.9422 92.4855 96.1742 88.6402C97.4062 84.7575 98.0222 81.8455 98.0222 79.9042C98.0222 79.3442 97.8915 79.0269 97.6302 78.9522C97.3689 78.8402 97.1075 78.8029 96.8462 78.8402C96.5849 78.8402 96.4542 78.7469 96.4542 78.5602C96.4542 78.2242 96.7342 78.0562 97.2942 78.0562C99.7955 78.0562 101.046 79.0829 101.046 81.1362C101.046 81.8829 100.15 84.9255 98.3582 90.2642C99.1795 88.9575 99.9822 87.7629 100.766 86.6802C101.588 85.5602 102.372 84.5335 103.118 83.6002C104.649 81.7335 105.676 80.8002 106.198 80.8002C106.198 80.8002 106.198 80.8189 106.198 80.8562C106.236 80.8562 106.254 80.8749 106.254 80.9122C106.254 80.9495 106.217 81.0429 106.142 81.1922C106.105 81.3042 105.993 81.4722 105.806 81.6962C101.774 86.5495 98.9742 90.7309 97.4062 94.2402L96.9022 95.6962C96.7529 96.1069 96.4355 96.3122 95.9502 96.3122ZM107.542 96.9282C106.46 96.9282 105.601 96.4242 104.966 95.4162C104.369 94.4829 104.07 93.0829 104.07 91.2162C104.07 89.4242 104.556 87.0162 105.526 83.9922C106.497 80.9682 107.43 79.4562 108.326 79.4562H108.606C109.838 79.4562 110.492 79.6989 110.566 80.1842C110.492 80.1095 110.398 80.2215 110.286 80.5202C109.764 81.4535 109.26 82.4989 108.774 83.6562C108.326 84.8135 107.897 86.0642 107.486 87.4082C106.665 90.0215 106.254 91.7762 106.254 92.6722C106.254 94.9495 106.665 96.0882 107.486 96.0882C107.71 96.0882 108.028 95.9202 108.438 95.5842C108.886 95.2482 109.092 95.0615 109.054 95.0242C109.166 95.0242 109.222 95.1735 109.222 95.4722C109.222 96.4429 108.662 96.9282 107.542 96.9282ZM94.8687 121.792C92.2554 121.792 90.09 121.064 88.3727 119.608C86.618 118.152 85.7407 116.136 85.7407 113.56C85.7407 111.022 87.178 108.464 90.0527 105.888C92.89 103.387 96.4554 101.371 100.749 99.8402C104.893 98.3469 109.037 97.6002 113.181 97.6002C115.085 97.6002 116.709 97.7682 118.053 98.1042C118.202 97.6935 118.277 97.2829 118.277 96.8722C118.277 95.6029 118.127 94.7069 117.829 94.1842C116.373 95.5282 115.047 96.2002 113.853 96.2002C112.658 96.2002 111.613 95.6215 110.717 94.4642C109.821 93.2695 109.373 92.0375 109.373 90.7682C109.373 88.1549 110.81 85.4482 113.685 82.6482C113.685 80.4829 113.909 79.0455 114.357 78.3362C114.879 77.5895 115.757 77.2162 116.989 77.2162C118.333 77.2162 119.751 78.4482 121.245 80.9122C123.933 81.3975 125.277 82.3869 125.277 83.8802C125.277 84.4775 125.053 84.9442 124.605 85.2802C124.194 85.5789 123.989 85.5602 123.989 85.2242C124.362 84.9629 124.549 84.6642 124.549 84.3282C124.549 83.2082 123.653 82.6482 121.861 82.6482C121.898 82.7975 121.917 82.9655 121.917 83.1522C121.917 83.3389 121.917 83.5629 121.917 83.8242C121.917 87.4082 120.834 90.5629 118.669 93.2882C119.229 94.3335 119.509 95.7335 119.509 97.4882C119.509 97.6749 119.509 97.8429 119.509 97.9922C119.509 98.1789 119.49 98.3655 119.453 98.5522C120.983 99.1495 122.253 99.9709 123.261 101.016C124.306 102.024 124.829 102.976 124.829 103.872C124.829 104.806 124.605 105.272 124.157 105.272C124.045 105.272 123.951 105.16 123.877 104.936C124.175 104.526 124.325 104.134 124.325 103.76C124.325 102.976 123.821 102.192 122.813 101.408C121.805 100.624 120.703 100.046 119.509 99.6722C119.061 103.443 117.623 107.064 115.197 110.536C112.77 113.971 109.746 116.696 106.125 118.712C102.503 120.766 98.7514 121.792 94.8687 121.792ZM114.693 81.8642C115.887 81.0429 117.045 80.6322 118.165 80.6322H118.613C118.127 79.4002 117.343 78.7842 116.261 78.7842C115.215 78.7842 114.693 79.7922 114.693 81.8082V81.8642ZM118.053 91.9442C119.397 89.9655 120.069 87.8189 120.069 85.5042C120.069 84.4589 119.901 83.5255 119.565 82.7042C118.93 82.9282 118.015 83.3575 116.821 83.9922C115.663 84.5895 115.085 85.0189 115.085 85.2802C115.085 85.5415 116.074 87.7629 118.053 91.9442ZM113.797 95.5282C115.103 95.5282 116.335 94.6135 117.493 92.7842L114.581 85.8402C113.797 86.6242 113.087 87.6882 112.453 89.0322C111.855 90.3762 111.557 91.5709 111.557 92.6162C111.557 94.5575 112.303 95.5282 113.797 95.5282ZM93.8607 119.44C96.5114 119.44 99.106 118.936 101.645 117.928C104.146 116.92 106.591 115.371 108.981 113.28C113.61 109.174 116.559 104.526 117.829 99.3362C117.381 99.2615 116.839 99.1869 116.205 99.1122C115.607 99.0749 114.917 99.0562 114.133 99.0562C110.586 99.0562 107.095 99.5042 103.661 100.4C100.226 101.334 97.2954 102.51 94.8687 103.928C92.4047 105.347 90.4447 106.878 88.9887 108.52C88.242 109.342 87.682 110.2 87.3087 111.096C86.9354 111.992 86.7487 112.851 86.7487 113.672C86.7487 115.278 87.3834 116.64 88.6527 117.76C89.8847 118.88 91.6207 119.44 93.8607 119.44Z" fill="white"/>
</svg>
