<svg width="141" height="142" viewBox="0 0 141 142" fill="none" xmlns="http://www.w3.org/2000/svg">
<rect x="0.8" y="1.39961" width="139.2" height="139.2" rx="23.2" stroke="white" stroke-width="1.6"/>
<path d="M49.0484 128V115.556H51.6266V120.712H57.0234V115.556H59.6188V128H57.0234V122.844H51.6266V128H49.0484ZM60.8824 117.687V115.556H71.0746V117.687H67.2589V128H64.698V117.687H60.8824ZM72.321 115.556H75.5179L78.9726 123.995H79.1101L82.5647 115.556H85.7616V128H83.2522V119.853H83.1491L79.9007 127.948H78.1819L74.9335 119.819H74.8304V128H72.321V115.556ZM87.5065 128V115.556H90.0846V125.869H95.4471V128H87.5065Z" fill="white"/>
<g clip-path="url(#clip0_1801_8184)">
<path d="M36.75 23.25L43.0945 93.4501L70.5021 99.75L98.4039 93.5489L104.25 23.25H36.75ZM94.6643 90.1696L70.4791 95.67L70.427 86.6283L69.599 86.8134L54.4342 82.988L53.3935 71.962L62.2408 71.8863V76.2357L70.0829 78.1862L70.379 78.1147L70.3123 66.4848H52.8742L50.3464 36.1845H70.1392L70.085 26.5662L100.118 26.0654L94.6664 90.1654L94.6643 90.1696Z" fill="#EAEAEA"/>
<path d="M60.9018 57.9374H70.2622L70.1871 44.5927L59.7881 44.5127L60.9018 57.9374Z" fill="#F2F2F2"/>
<path d="M78.148 66.4883H70.3123L70.379 78.116L77.5536 76.3864L78.148 66.4883Z" fill="white"/>
<path d="M70.083 26.568L70.1393 36.1884H89.8216L89.0019 44.7377L70.1873 44.5925L70.2624 57.9373H87.9612L85.7316 83.2129L70.4271 86.628L70.4793 95.6697L94.6645 90.1693L100.116 26.0693L70.083 26.568Z" fill="white"/>
</g>
<defs>
<clipPath id="clip0_1801_8184">
<rect width="67.5" height="76.5" fill="white" transform="translate(36.75 23.25)"/>
</clipPath>
</defs>
</svg>
