<svg width="141" height="142" viewBox="0 0 141 142" fill="none" xmlns="http://www.w3.org/2000/svg">
<rect x="0.8" y="1.39961" width="139.2" height="139.2" rx="23.2" stroke="white" stroke-width="1.6"/>
<path d="M80.797 91.0891H72.9639C72.1177 91.0891 71.3782 90.5114 71.1758 89.6873L68.4716 78.6238C68.2692 77.7996 67.5334 77.222 66.6835 77.222H52.6435C51.7936 77.222 51.0541 77.8033 50.8554 78.6275L48.1806 89.6836C47.9819 90.5077 47.2424 91.0891 46.3925 91.0891H38.6403C37.4225 91.0891 36.5432 89.9301 36.8669 88.7564L53.177 30.0946C53.3978 29.2999 54.1226 28.748 54.9504 28.748H64.8623C65.6938 28.748 66.4186 29.3036 66.6393 30.1057L82.5704 88.7674C82.8905 89.9374 82.0075 91.0891 80.797 91.0891ZM63.328 66.4418C64.5201 66.4418 65.3994 65.3233 65.1161 64.1644L60.5576 45.4812C60.1823 43.9175 59.9174 42.0448 59.7628 39.8741H59.4979C59.3876 41.7026 59.1116 43.5128 58.6664 45.312L54.0453 64.1644C53.762 65.3233 54.6377 66.4418 55.8334 66.4418H63.328Z" fill="white"/>
<path d="M95.5547 39.5314C93.785 39.5314 92.3354 38.8397 91.2059 37.4636C90.0763 36.0876 89.5134 34.3988 89.5134 32.3973C89.5134 30.3406 90.0763 28.6592 91.2059 27.3568C92.3354 26.0543 93.7813 25.3994 95.5547 25.3994C97.3465 25.3994 98.8035 26.0543 99.922 27.3568C101.04 28.6592 101.6 30.3443 101.6 32.3973C101.6 34.4835 101.04 36.1943 99.922 37.5299C98.8035 38.8654 97.3465 39.5314 95.5547 39.5314ZM98.8955 91.0885H92.0815C91.0661 91.0885 90.2419 90.2644 90.2419 89.2489V48.413C90.2419 47.3976 91.0661 46.5734 92.0815 46.5734H98.8955C99.911 46.5734 100.735 47.3976 100.735 48.413V89.2526C100.735 90.2644 99.9146 91.0885 98.8955 91.0885Z" fill="white"/>
<path d="M36.1966 112.667H38.7403V122H36.1966V112.667ZM37.4685 111.438C37.2164 111.438 36.9843 111.381 36.7724 111.266C36.5604 111.152 36.3914 110.994 36.2653 110.794C36.1393 110.593 36.0763 110.378 36.0763 110.149C36.0763 109.914 36.1393 109.699 36.2653 109.505C36.3914 109.304 36.5604 109.147 36.7724 109.032C36.9843 108.917 37.2164 108.86 37.4685 108.86C37.7205 108.86 37.9526 108.917 38.1646 109.032C38.3765 109.147 38.5427 109.304 38.663 109.505C38.789 109.699 38.8521 109.914 38.8521 110.149C38.8521 110.378 38.789 110.593 38.663 110.794C38.5427 110.994 38.3765 111.152 38.1646 111.266C37.9526 111.381 37.7205 111.438 37.4685 111.438ZM42.9086 122H40.3649V109.556H42.9086V122ZM47.077 122H44.5332V109.556H47.077V122ZM54.6914 112.667H57.2179V122H54.7859V120.316H54.6828C54.4593 120.871 54.1041 121.312 53.6171 121.639C53.1302 121.96 52.5429 122.12 51.8554 122.12C51.2367 122.12 50.6895 121.98 50.214 121.699C49.7385 121.413 49.3661 121.006 49.0968 120.479C48.8333 119.946 48.7015 119.322 48.7015 118.605V112.667H51.2453V118.167C51.2453 118.528 51.3112 118.846 51.4429 119.121C51.5747 119.39 51.7638 119.599 52.0101 119.748C52.2622 119.892 52.5487 119.963 52.8695 119.963C53.1961 119.963 53.4968 119.889 53.7718 119.74C54.0526 119.591 54.276 119.367 54.4421 119.07C54.6083 118.772 54.6914 118.422 54.6914 118.021V112.667ZM64.1792 115.443C64.1219 115.099 63.9586 114.833 63.6894 114.644C63.4201 114.455 63.0735 114.36 62.6495 114.36C62.3745 114.36 62.1282 114.4 61.9105 114.48C61.6927 114.555 61.518 114.667 61.3862 114.816C61.2602 114.959 61.1972 115.122 61.1972 115.305C61.1914 115.523 61.2831 115.712 61.4722 115.873C61.667 116.033 61.9763 116.156 62.4003 116.242L64.0847 116.586C64.9899 116.769 65.6631 117.07 66.1042 117.488C66.5511 117.901 66.7745 118.442 66.7745 119.112C66.7745 119.72 66.5998 120.255 66.2503 120.72C65.9066 121.178 65.4224 121.536 64.798 121.794C64.1792 122.052 63.4573 122.18 62.6323 122.18C61.8016 122.18 61.0826 122.063 60.4753 121.828C59.8737 121.587 59.3982 121.249 59.0487 120.814C58.6993 120.373 58.4901 119.849 58.4214 119.241H60.9737C61.0482 119.597 61.2258 119.869 61.5066 120.058C61.793 120.241 62.1711 120.333 62.6409 120.333C62.9446 120.333 63.211 120.296 63.4401 120.221C63.675 120.147 63.8555 120.038 63.9816 119.895C64.1133 119.746 64.1792 119.574 64.1792 119.379C64.1792 119.127 64.0761 118.923 63.8698 118.769C63.6693 118.614 63.3513 118.494 62.9159 118.408L61.3691 118.098C60.4753 117.921 59.7993 117.609 59.3409 117.162C58.8883 116.715 58.6649 116.148 58.6706 115.46C58.6706 114.864 58.831 114.349 59.1519 113.913C59.4727 113.472 59.9282 113.134 60.5183 112.899C61.1141 112.664 61.8131 112.547 62.6151 112.547C63.3943 112.547 64.0732 112.664 64.6519 112.899C65.2305 113.134 65.6831 113.469 66.0097 113.905C66.3362 114.34 66.5196 114.853 66.5597 115.443H64.1792ZM72.9022 114.575H67.3163V112.667H72.9022V114.575ZM71.1491 110.433V119.13C71.1491 119.37 71.1835 119.559 71.2522 119.697C71.3267 119.829 71.4269 119.923 71.553 119.98C71.6848 120.032 71.8452 120.061 72.0342 120.066C72.2749 120.072 72.6072 120.058 73.0311 120.023V122.034C72.6473 122.097 72.2032 122.129 71.6991 122.129C71.0689 122.129 70.5217 122.034 70.0577 121.845C69.5936 121.651 69.2327 121.355 68.9749 120.96C68.7171 120.565 68.591 120.072 68.5967 119.482V110.433H71.1491ZM74.1486 112.667H76.6065V114.291H76.7096C76.8757 113.718 77.1593 113.283 77.5604 112.985C77.9614 112.682 78.4255 112.53 78.9526 112.53C79.2276 112.53 79.4997 112.558 79.769 112.616V114.884C79.6601 114.844 79.4968 114.813 79.2791 114.79C79.0614 114.761 78.8609 114.747 78.6776 114.747C78.2994 114.747 77.9614 114.83 77.6635 114.996C77.3656 115.157 77.1278 115.386 76.9502 115.684C76.7783 115.976 76.6924 116.314 76.6924 116.698V122H74.1486V112.667ZM85.8709 117.97C85.6417 117.975 85.2378 117.998 84.6591 118.038L83.8341 118.107C83.3815 118.141 83.0263 118.265 82.7685 118.477C82.5107 118.683 82.3818 118.964 82.3818 119.319C82.3818 119.548 82.4391 119.743 82.5537 119.903C82.674 120.064 82.8401 120.187 83.0521 120.273C83.2698 120.359 83.5133 120.402 83.7826 120.402C84.1664 120.402 84.5073 120.327 84.8052 120.178C85.1032 120.023 85.3352 119.814 85.5013 119.551C85.6675 119.282 85.7506 118.986 85.7506 118.666L85.7334 115.649C85.7334 115.386 85.6761 115.162 85.5615 114.979C85.4526 114.79 85.2836 114.649 85.0545 114.558C84.831 114.46 84.5646 114.412 84.2552 114.412C83.8256 114.412 83.4761 114.503 83.2068 114.687C82.9375 114.864 82.7685 115.116 82.6998 115.443H80.2763C80.3336 114.893 80.5256 114.4 80.8521 113.965C81.1844 113.524 81.6427 113.177 82.2271 112.925C82.8172 112.673 83.5133 112.547 84.3154 112.547C85.0373 112.547 85.6961 112.659 86.292 112.882C86.8878 113.105 87.3662 113.455 87.7271 113.93C88.0938 114.4 88.2771 114.993 88.2771 115.709V122H85.8623V120.711H85.7935C85.6388 121.003 85.4354 121.258 85.1834 121.476C84.9313 121.693 84.6276 121.865 84.2724 121.991C83.9229 122.112 83.5162 122.172 83.0521 122.172C82.4506 122.172 81.9177 122.066 81.4537 121.854C80.9896 121.642 80.6229 121.327 80.3537 120.909C80.0844 120.49 79.9498 119.986 79.9498 119.396C79.9498 118.422 80.2706 117.715 80.9123 117.273C81.5597 116.832 82.3961 116.58 83.4216 116.517C83.5935 116.5 84.1235 116.471 85.0115 116.431L85.8537 116.397L85.8709 117.97ZM94.7743 114.575H89.1884V112.667H94.7743V114.575ZM93.0212 110.433V119.13C93.0212 119.37 93.0556 119.559 93.1243 119.697C93.1988 119.829 93.2991 119.923 93.4251 119.98C93.5569 120.032 93.7173 120.061 93.9064 120.066C94.147 120.072 94.4793 120.058 94.9032 120.023V122.034C94.5194 122.097 94.0754 122.129 93.5712 122.129C92.941 122.129 92.3939 122.034 91.9298 121.845C91.4657 121.651 91.1048 121.355 90.847 120.96C90.5892 120.565 90.4631 120.072 90.4689 119.482V110.433H93.0212ZM100.12 122.18C99.1919 122.18 98.3812 121.98 97.688 121.579C96.9947 121.178 96.4619 120.614 96.0895 119.886C95.7171 119.158 95.5309 118.319 95.5309 117.368C95.5309 116.405 95.7171 115.563 96.0895 114.841C96.4619 114.114 96.9947 113.549 97.688 113.148C98.3812 112.747 99.1919 112.547 100.12 112.547C101.042 112.547 101.85 112.747 102.543 113.148C103.242 113.549 103.775 114.114 104.142 114.841C104.509 115.563 104.692 116.405 104.692 117.368C104.692 118.319 104.509 119.158 104.142 119.886C103.775 120.614 103.242 121.178 102.543 121.579C101.85 121.98 101.042 122.18 100.12 122.18ZM100.137 120.212C100.561 120.212 100.919 120.089 101.211 119.843C101.509 119.597 101.733 119.259 101.882 118.829C102.031 118.393 102.105 117.901 102.105 117.351C102.105 116.795 102.031 116.302 101.882 115.873C101.733 115.443 101.509 115.105 101.211 114.859C100.919 114.612 100.561 114.489 100.137 114.489C99.7018 114.489 99.3322 114.612 99.0286 114.859C98.7249 115.105 98.4958 115.443 98.3411 115.873C98.1864 116.297 98.1091 116.789 98.1091 117.351C98.1091 117.907 98.1864 118.399 98.3411 118.829C98.4958 119.259 98.7249 119.597 99.0286 119.843C99.3322 120.089 99.7018 120.212 100.137 120.212ZM105.947 112.667H108.405V114.291H108.508C108.674 113.718 108.958 113.283 109.359 112.985C109.76 112.682 110.224 112.53 110.751 112.53C111.026 112.53 111.298 112.558 111.567 112.616V114.884C111.458 114.844 111.295 114.813 111.077 114.79C110.86 114.761 110.659 114.747 110.476 114.747C110.098 114.747 109.76 114.83 109.462 114.996C109.164 115.157 108.926 115.386 108.748 115.684C108.577 115.976 108.491 116.314 108.491 116.698V122H105.947V112.667Z" fill="white"/>
</svg>
