<svg width="141" height="142" viewBox="0 0 141 142" fill="none" xmlns="http://www.w3.org/2000/svg">
<rect x="0.8" y="1.39961" width="139.2" height="139.2" rx="23.2" stroke="white" stroke-width="1.6"/>
<g clip-path="url(#clip0_1592_5556)">
<path d="M37.8 23.25L44.2292 93.4501L72.0022 99.75L100.276 93.5489L106.2 23.25H37.8ZM68.3755 88.2737L50.2969 84.0738L49.5932 72.7743L56.4239 74.6743L56.5253 76.0736L60.04 76.8732L59.9385 33.3733H68.3755V88.2737ZM96.4866 90.1696L71.9789 95.67L71.5774 26.5683L102.011 26.0675L96.4866 90.1675V90.1696Z" fill="#EAEAEA"/>
<path d="M71.5771 26.568L71.9787 95.6697L96.4864 90.1693L102.011 26.0693L71.5771 26.5701V26.568ZM95.4952 41.573L83.9451 41.674L83.5436 54.7747L93.9904 54.175L90.9766 83.8757L75.0073 87.5749V79.5747L82.7404 77.3737L84.3467 64.9737H75.0052L75.5082 33.373H96.0996L95.4973 41.573H95.4952Z" fill="white"/>
</g>
<path d="M67.0156 115.556H69.5766V124.236C69.5766 126.659 67.875 128.172 65.3656 128.172C63.1141 128.172 61.3438 126.986 61.3609 124.528H63.9391C63.9563 125.508 64.5578 126.092 65.4859 126.092C66.4656 126.092 67.0156 125.456 67.0156 124.236V115.556ZM78.0761 119.114C77.973 118.134 77.1824 117.55 75.9277 117.55C74.6214 117.55 73.8996 118.152 73.8824 118.977C73.8652 119.87 74.8105 120.283 75.8761 120.523L76.9933 120.798C79.1246 121.28 80.723 122.362 80.723 124.442C80.723 126.728 78.9355 128.172 75.9105 128.172C72.9027 128.172 70.9777 126.78 70.9089 124.116H73.4183C73.5042 125.37 74.5011 126.006 75.8761 126.006C77.2339 126.006 78.1105 125.37 78.1105 124.442C78.1105 123.6 77.3371 123.205 75.9792 122.861L74.6214 122.534C72.5246 122.019 71.2355 120.97 71.2355 119.148C71.2355 116.88 73.2292 115.384 75.9449 115.384C78.6949 115.384 80.5167 116.914 80.5511 119.114H78.0761Z" fill="white"/>
<defs>
<clipPath id="clip0_1592_5556">
<rect width="68.4" height="76.5" fill="white" transform="translate(37.8 23.25)"/>
</clipPath>
</defs>
</svg>
