<svg width="141" height="142" viewBox="0 0 141 142" fill="none" xmlns="http://www.w3.org/2000/svg">
<rect x="0.8" y="1.39961" width="139.2" height="139.2" rx="23.2" stroke="white" stroke-width="1.6"/>
<g clip-path="url(#clip0_1592_5534)">
<path d="M37.5996 84.5372V34.2305C37.5996 33.8883 37.7442 33.6927 38.0816 33.6927C38.9009 33.6927 39.672 33.6927 40.7806 33.6439C41.9373 33.595 43.1422 33.595 44.4435 33.5461C45.7448 33.4972 47.1424 33.4972 48.6365 33.4483C50.1306 33.3994 51.5765 33.3994 53.0224 33.3994C56.9744 33.3994 60.2518 33.8883 62.9508 34.915C65.3606 35.7461 67.5776 37.115 69.409 38.9239C70.9513 40.4883 72.1562 42.395 72.9274 44.4972C73.6503 46.5505 74.0359 48.6527 74.0359 50.8527C74.0359 55.0572 73.0719 58.5283 71.1441 61.2661C69.2163 64.0039 66.5173 66.0572 63.3845 67.2305C60.1072 68.4527 56.4925 68.8927 52.5404 68.8927C51.3837 68.8927 50.6126 68.8927 50.1306 68.8439C49.6486 68.795 48.9739 68.795 48.0582 68.795V84.4883C48.1064 84.8305 47.8654 85.1239 47.528 85.1727H38.178C37.7924 85.1727 37.5996 84.9772 37.5996 84.5372ZM48.1064 43.1283V59.555C48.7811 59.6039 49.4077 59.6527 49.986 59.6527H52.5404C54.4201 59.6527 56.2997 59.3594 58.083 58.7727C59.6252 58.3327 60.9747 57.4039 62.035 56.1816C63.0472 54.9594 63.5291 53.2972 63.5291 51.1461C63.5773 49.6305 63.1917 48.115 62.4206 46.795C61.6013 45.5239 60.4446 44.5461 59.0469 44.0083C57.2636 43.275 55.3358 42.9816 53.3597 43.0305C52.1066 43.0305 50.9981 43.0305 50.0824 43.0794C49.1185 43.0305 48.4437 43.0794 48.1064 43.1283Z" fill="white"/>
<path d="M104.11 56.5733C102.664 55.7911 101.122 55.2533 99.483 54.9111C97.6997 54.52 95.9165 54.2755 94.085 54.2755C93.1211 54.2266 92.109 54.3733 91.1932 54.6177C90.5667 54.7644 90.0365 55.1066 89.6992 55.5955C89.4582 55.9866 89.3136 56.4755 89.3136 56.9155C89.3136 57.3555 89.5064 57.7955 89.7956 58.1866C90.2293 58.7244 90.8077 59.1644 91.4342 59.5066C92.5427 60.0933 93.6994 60.6311 94.8562 61.12C97.4587 62 99.9649 63.2222 102.278 64.6889C103.869 65.7155 105.17 67.0844 106.086 68.7466C106.857 70.3111 107.243 72.0222 107.194 73.7822C107.243 76.08 106.568 78.3777 105.315 80.2844C103.965 82.24 102.086 83.7555 99.9167 84.6355C97.5551 85.6622 94.6634 86.2 91.1932 86.2C88.9762 86.2 86.8074 86.0044 84.6386 85.5644C82.9517 85.2711 81.2649 84.7333 79.7226 84C79.3852 83.8044 79.1442 83.4622 79.1924 83.0711V74.5644C79.1924 74.4177 79.2406 74.2222 79.3852 74.1244C79.5298 74.0266 79.6744 74.0755 79.819 74.1733C81.6986 75.2977 83.6747 76.08 85.7953 76.5689C87.6267 77.0577 89.5546 77.3022 91.4824 77.3022C93.4103 77.3022 94.6152 77.0577 95.4827 76.6177C96.2538 76.2755 96.784 75.4444 96.784 74.5644C96.784 73.88 96.3984 73.2444 95.6273 72.6089C94.8562 71.9733 93.2657 71.24 90.9041 70.3111C88.4461 69.4311 86.1809 68.2577 84.0602 66.7911C82.5661 65.7155 81.313 64.2977 80.3973 62.6355C79.6262 61.0711 79.2406 59.36 79.2888 57.6489C79.2888 55.5466 79.8672 53.5422 80.9275 51.7333C82.1324 49.7777 83.9156 48.2133 85.9881 47.2355C88.2533 46.0622 91.0969 45.5244 94.5188 45.5244C96.4948 45.5244 98.5191 45.6711 100.495 45.9644C101.941 46.16 103.339 46.5511 104.64 47.0889C104.833 47.1377 105.026 47.3333 105.122 47.5289C105.17 47.7244 105.218 47.92 105.218 48.1155V56.0844C105.218 56.28 105.122 56.4755 104.977 56.5733C104.544 56.6711 104.303 56.6711 104.11 56.5733Z" fill="white"/>
</g>
<path d="M29.8566 107.956H34.7207C35.6488 107.956 36.448 108.133 37.1183 108.488C37.7944 108.838 38.3071 109.331 38.6566 109.967C39.0061 110.603 39.1808 111.333 39.1808 112.158C39.1808 112.989 39.0003 113.719 38.6394 114.349C38.2842 114.974 37.7657 115.464 37.0839 115.819C36.4079 116.168 35.6001 116.343 34.6605 116.343H31.5324V114.263H34.2566C34.755 114.263 35.1733 114.178 35.5113 114.006C35.855 113.828 36.11 113.582 36.2761 113.267C36.4423 112.951 36.5253 112.582 36.5253 112.158C36.5253 111.734 36.4423 111.367 36.2761 111.058C36.11 110.743 35.855 110.502 35.5113 110.336C35.1733 110.164 34.7522 110.078 34.248 110.078H32.4347V120.399H29.8566V107.956ZM42.9538 120.399H40.4101V107.956H42.8851V112.699H42.9882C43.2116 112.144 43.5582 111.714 44.028 111.41C44.5035 111.101 45.0851 110.946 45.7726 110.946C46.4257 110.946 46.9957 111.087 47.4827 111.367C47.9697 111.648 48.345 112.052 48.6085 112.579C48.872 113.106 49.0038 113.731 49.0038 114.453V120.399H46.4601V114.891C46.4601 114.507 46.3942 114.178 46.2624 113.903C46.1306 113.628 45.9387 113.418 45.6866 113.275C45.4345 113.132 45.1309 113.06 44.7757 113.06C44.4147 113.06 44.0996 113.138 43.8304 113.292C43.5611 113.441 43.3463 113.662 43.1858 113.954C43.0312 114.246 42.9538 114.593 42.9538 114.994V120.399ZM54.8307 120.58C53.9026 120.58 53.0919 120.379 52.3987 119.978C51.7055 119.577 51.1726 119.013 50.8002 118.285C50.4279 117.558 50.2417 116.718 50.2417 115.767C50.2417 114.805 50.4279 113.963 50.8002 113.241C51.1726 112.513 51.7055 111.949 52.3987 111.548C53.0919 111.147 53.9026 110.946 54.8307 110.946C55.7531 110.946 56.5609 111.147 57.2542 111.548C57.9531 111.949 58.4859 112.513 58.8526 113.241C59.2193 113.963 59.4026 114.805 59.4026 115.767C59.4026 116.718 59.2193 117.558 58.8526 118.285C58.4859 119.013 57.9531 119.577 57.2542 119.978C56.5609 120.379 55.7531 120.58 54.8307 120.58ZM54.8479 118.612C55.2719 118.612 55.6299 118.489 55.9221 118.242C56.22 117.996 56.4435 117.658 56.5924 117.228C56.7414 116.793 56.8159 116.3 56.8159 115.75C56.8159 115.194 56.7414 114.702 56.5924 114.272C56.4435 113.842 56.22 113.504 55.9221 113.258C55.6299 113.012 55.2719 112.888 54.8479 112.888C54.4125 112.888 54.043 113.012 53.7393 113.258C53.4357 113.504 53.2065 113.842 53.0518 114.272C52.8971 114.696 52.8198 115.189 52.8198 115.75C52.8198 116.306 52.8971 116.799 53.0518 117.228C53.2065 117.658 53.4357 117.996 53.7393 118.242C54.043 118.489 54.4125 118.612 54.8479 118.612ZM65.5732 112.974H59.9873V111.067H65.5732V112.974ZM63.8201 108.832V117.529C63.8201 117.77 63.8545 117.959 63.9232 118.096C63.9977 118.228 64.098 118.323 64.224 118.38C64.3558 118.431 64.5162 118.46 64.7053 118.466C64.9459 118.472 65.2782 118.457 65.7022 118.423V120.434C65.3183 120.497 64.8743 120.528 64.3701 120.528C63.7399 120.528 63.1928 120.434 62.7287 120.245C62.2647 120.05 61.9037 119.755 61.6459 119.36C61.3881 118.964 61.262 118.472 61.2678 117.881V108.832H63.8201ZM70.9189 120.58C69.9908 120.58 69.1801 120.379 68.4869 119.978C67.7936 119.577 67.2608 119.013 66.8884 118.285C66.516 117.558 66.3298 116.718 66.3298 115.767C66.3298 114.805 66.516 113.963 66.8884 113.241C67.2608 112.513 67.7936 111.949 68.4869 111.548C69.1801 111.147 69.9908 110.946 70.9189 110.946C71.8413 110.946 72.6491 111.147 73.3423 111.548C74.0413 111.949 74.5741 112.513 74.9408 113.241C75.3074 113.963 75.4908 114.805 75.4908 115.767C75.4908 116.718 75.3074 117.558 74.9408 118.285C74.5741 119.013 74.0413 119.577 73.3423 119.978C72.6491 120.379 71.8413 120.58 70.9189 120.58ZM70.9361 118.612C71.36 118.612 71.7181 118.489 72.0103 118.242C72.3082 117.996 72.5317 117.658 72.6806 117.228C72.8296 116.793 72.9041 116.3 72.9041 115.75C72.9041 115.194 72.8296 114.702 72.6806 114.272C72.5317 113.842 72.3082 113.504 72.0103 113.258C71.7181 113.012 71.36 112.888 70.9361 112.888C70.5007 112.888 70.1311 113.012 69.8275 113.258C69.5239 113.504 69.2947 113.842 69.14 114.272C68.9853 114.696 68.908 115.189 68.908 115.75C68.908 116.306 68.9853 116.799 69.14 117.228C69.2947 117.658 69.5239 117.996 69.8275 118.242C70.1311 118.489 70.5007 118.612 70.9361 118.612ZM82.0739 113.842C82.0166 113.499 81.8534 113.232 81.5841 113.043C81.3148 112.854 80.9682 112.76 80.5442 112.76C80.2692 112.76 80.0229 112.8 79.8052 112.88C79.5875 112.954 79.4127 113.066 79.281 113.215C79.1549 113.358 79.0919 113.522 79.0919 113.705C79.0862 113.923 79.1778 114.112 79.3669 114.272C79.5617 114.432 79.8711 114.556 80.295 114.642L81.9794 114.985C82.8846 115.169 83.5578 115.469 83.9989 115.888C84.4458 116.3 84.6692 116.842 84.6692 117.512C84.6692 118.119 84.4945 118.655 84.145 119.119C83.8013 119.577 83.3172 119.935 82.6927 120.193C82.0739 120.451 81.3521 120.58 80.5271 120.58C79.6963 120.58 78.9773 120.462 78.37 120.228C77.7685 119.987 77.2929 119.649 76.9435 119.213C76.594 118.772 76.3849 118.248 76.3161 117.641H78.8685C78.9429 117.996 79.1206 118.268 79.4013 118.457C79.6877 118.641 80.0659 118.732 80.5357 118.732C80.8393 118.732 81.1057 118.695 81.3349 118.621C81.5698 118.546 81.7502 118.437 81.8763 118.294C82.0081 118.145 82.0739 117.973 82.0739 117.778C82.0739 117.526 81.9708 117.323 81.7646 117.168C81.564 117.013 81.2461 116.893 80.8107 116.807L79.2638 116.498C78.37 116.32 77.694 116.008 77.2357 115.561C76.7831 115.114 76.5596 114.547 76.5653 113.86C76.5653 113.264 76.7258 112.748 77.0466 112.313C77.3674 111.872 77.8229 111.534 78.413 111.299C79.0088 111.064 79.7078 110.946 80.5099 110.946C81.289 110.946 81.9679 111.064 82.5466 111.299C83.1252 111.534 83.5778 111.869 83.9044 112.304C84.231 112.74 84.4143 113.252 84.4544 113.842H82.0739ZM88.4251 120.399H85.8813V107.956H88.3563V112.699H88.4594C88.6829 112.144 89.0295 111.714 89.4993 111.41C89.9748 111.101 90.5563 110.946 91.2438 110.946C91.8969 110.946 92.467 111.087 92.954 111.367C93.4409 111.648 93.8162 112.052 94.0798 112.579C94.3433 113.106 94.4751 113.731 94.4751 114.453V120.399H91.9313V114.891C91.9313 114.507 91.8654 114.178 91.7337 113.903C91.6019 113.628 91.41 113.418 91.1579 113.275C90.9058 113.132 90.6021 113.06 90.2469 113.06C89.886 113.06 89.5709 113.138 89.3016 113.292C89.0324 113.441 88.8175 113.662 88.6571 113.954C88.5024 114.246 88.4251 114.593 88.4251 114.994V120.399ZM100.302 120.58C99.3738 120.58 98.5632 120.379 97.8699 119.978C97.1767 119.577 96.6439 119.013 96.2715 118.285C95.8991 117.558 95.7129 116.718 95.7129 115.767C95.7129 114.805 95.8991 113.963 96.2715 113.241C96.6439 112.513 97.1767 111.949 97.8699 111.548C98.5632 111.147 99.3738 110.946 100.302 110.946C101.224 110.946 102.032 111.147 102.725 111.548C103.424 111.949 103.957 112.513 104.324 113.241C104.691 113.963 104.874 114.805 104.874 115.767C104.874 116.718 104.691 117.558 104.324 118.285C103.957 119.013 103.424 119.577 102.725 119.978C102.032 120.379 101.224 120.58 100.302 120.58ZM100.319 118.612C100.743 118.612 101.101 118.489 101.393 118.242C101.691 117.996 101.915 117.658 102.064 117.228C102.213 116.793 102.287 116.3 102.287 115.75C102.287 115.194 102.213 114.702 102.064 114.272C101.915 113.842 101.691 113.504 101.393 113.258C101.101 113.012 100.743 112.888 100.319 112.888C99.8837 112.888 99.5142 113.012 99.2106 113.258C98.9069 113.504 98.6778 113.842 98.5231 114.272C98.3684 114.696 98.291 115.189 98.291 115.75C98.291 116.306 98.3684 116.799 98.5231 117.228C98.6778 117.658 98.9069 117.996 99.2106 118.242C99.5142 118.489 99.8837 118.612 100.319 118.612ZM106.129 111.067H108.63V112.631H108.75C108.905 112.316 109.085 112.038 109.291 111.797C109.503 111.556 109.787 111.356 110.142 111.196C110.497 111.029 110.918 110.946 111.405 110.946C112.11 110.946 112.749 111.127 113.322 111.488C113.895 111.849 114.347 112.39 114.68 113.112C115.018 113.834 115.187 114.71 115.187 115.742C115.187 116.75 115.023 117.618 114.697 118.346C114.37 119.067 113.921 119.615 113.348 119.987C112.775 120.359 112.124 120.546 111.397 120.546C110.927 120.546 110.515 120.465 110.159 120.305C109.804 120.144 109.518 119.95 109.3 119.721C109.088 119.491 108.905 119.222 108.75 118.913H108.673V123.906H106.129V111.067ZM108.604 115.724C108.604 116.28 108.684 116.77 108.844 117.194C109.005 117.618 109.234 117.944 109.532 118.174C109.83 118.403 110.191 118.517 110.615 118.517C111.033 118.517 111.391 118.4 111.689 118.165C111.993 117.93 112.219 117.604 112.368 117.185C112.523 116.761 112.6 116.274 112.6 115.724C112.6 115.174 112.523 114.693 112.368 114.281C112.219 113.868 111.996 113.55 111.698 113.327C111.4 113.098 111.039 112.983 110.615 112.983C110.191 112.983 109.83 113.095 109.532 113.318C109.234 113.536 109.005 113.851 108.844 114.263C108.684 114.676 108.604 115.163 108.604 115.724Z" fill="white"/>
<defs>
<clipPath id="clip0_1592_5534">
<rect width="69.6" height="52.8" fill="white" transform="translate(37.5996 33.3994)"/>
</clipPath>
</defs>
</svg>
