<svg width="141" height="142" viewBox="0 0 141 142" fill="none" xmlns="http://www.w3.org/2000/svg">
<rect x="0.8" y="1.39961" width="139.2" height="139.2" rx="23.2" stroke="white" stroke-width="1.6"/>
<path d="M70.4 22.2637V45.1117H58.976C52.6846 45.1117 47.552 39.979 47.552 33.6877C47.552 27.3963 52.6846 22.2637 58.976 22.2637H70.4ZM70.4 48.3757V71.2237H58.976C52.6846 71.2237 47.552 66.091 47.552 59.7997C47.552 53.5083 52.6846 48.3757 58.976 48.3757H70.4ZM70.4 74.4877V85.9117C70.4 92.203 65.2674 97.3357 58.976 97.3357C52.6846 97.3357 47.552 92.203 47.552 85.9117C47.552 79.6203 52.6846 74.4877 58.976 74.4877H70.4ZM96.512 33.6877C96.512 39.979 91.3794 45.1117 85.088 45.1117H73.664V22.2637H85.088C91.3794 22.2637 96.512 27.3963 96.512 33.6877ZM85.088 48.3757C82.0582 48.3757 79.1524 49.5793 77.01 51.7217C74.8676 53.8641 73.664 56.7698 73.664 59.7997C73.664 62.8295 74.8676 65.7352 77.01 67.8777C79.1524 70.0201 82.0582 71.2237 85.088 71.2237C88.1178 71.2237 91.0236 70.0201 93.166 67.8777C95.3084 65.7352 96.512 62.8295 96.512 59.7997C96.512 56.7698 95.3084 53.8641 93.166 51.7217C91.0236 49.5793 88.1178 48.3757 85.088 48.3757Z" fill="white"/>
<path d="M47.4567 109.556H52.3208C53.2489 109.556 54.0481 109.734 54.7184 110.089C55.3945 110.439 55.9072 110.931 56.2567 111.567C56.6062 112.203 56.7809 112.934 56.7809 113.759C56.7809 114.589 56.6004 115.32 56.2395 115.95C55.8843 116.574 55.3658 117.064 54.684 117.42C54.008 117.769 53.2002 117.944 52.2606 117.944H49.1325V115.864H51.8567C52.3551 115.864 52.7734 115.778 53.1114 115.606C53.4551 115.429 53.7101 115.182 53.8762 114.867C54.0424 114.552 54.1254 114.183 54.1254 113.759C54.1254 113.335 54.0424 112.968 53.8762 112.659C53.7101 112.343 53.4551 112.103 53.1114 111.937C52.7734 111.765 52.3523 111.679 51.8481 111.679H50.0348V122H47.4567V109.556ZM58.0102 112.667H60.5539V122H58.0102V112.667ZM59.282 111.438C59.0299 111.438 58.7979 111.381 58.5859 111.266C58.374 111.152 58.2049 110.994 58.0789 110.794C57.9529 110.593 57.8898 110.378 57.8898 110.149C57.8898 109.914 57.9529 109.699 58.0789 109.505C58.2049 109.304 58.374 109.147 58.5859 109.032C58.7979 108.917 59.0299 108.86 59.282 108.86C59.5341 108.86 59.7661 108.917 59.9781 109.032C60.1901 109.147 60.3563 109.304 60.4766 109.505C60.6026 109.699 60.6656 109.914 60.6656 110.149C60.6656 110.378 60.6026 110.593 60.4766 110.794C60.3563 110.994 60.1901 111.152 59.9781 111.266C59.7661 111.381 59.5341 111.438 59.282 111.438ZM66.3636 125.695C65.5272 125.695 64.791 125.575 64.155 125.334C63.5248 125.094 63.0293 124.753 62.6683 124.312C62.3131 123.871 62.1097 123.355 62.0582 122.765H64.5589C64.6391 123.132 64.8397 123.404 65.1605 123.581C65.4813 123.759 65.9024 123.848 66.4238 123.848C67.0483 123.848 67.5324 123.704 67.8761 123.418C68.2256 123.137 68.4003 122.688 68.4003 122.069V120.35H68.2886C68.1511 120.642 67.9707 120.9 67.7472 121.123C67.5295 121.341 67.2402 121.522 66.8793 121.665C66.5183 121.802 66.0972 121.871 65.616 121.871C64.8998 121.871 64.2553 121.699 63.6824 121.355C63.1095 121.012 62.6569 120.496 62.3246 119.809C61.9923 119.121 61.8261 118.276 61.8261 117.273C61.8261 116.254 61.9951 115.389 62.3332 114.678C62.6712 113.968 63.1238 113.435 63.691 113.08C64.2639 112.724 64.9056 112.547 65.616 112.547C66.1087 112.547 66.5326 112.63 66.8878 112.796C67.2431 112.957 67.5209 113.151 67.7214 113.38C67.922 113.61 68.1082 113.893 68.28 114.231H68.3832V112.667H70.9097V122.103C70.9097 122.871 70.7178 123.524 70.3339 124.063C69.9501 124.607 69.4173 125.014 68.7355 125.283C68.0537 125.558 67.2631 125.695 66.3636 125.695ZM66.4066 119.946C66.8248 119.946 67.1829 119.84 67.4808 119.628C67.7845 119.416 68.0136 119.112 68.1683 118.717C68.3287 118.322 68.4089 117.849 68.4089 117.299C68.4089 116.743 68.3287 116.262 68.1683 115.855C68.0136 115.443 67.7873 115.128 67.4894 114.91C67.1915 114.692 66.8306 114.584 66.4066 114.584C65.9826 114.584 65.6217 114.698 65.3238 114.927C65.0259 115.151 64.7996 115.469 64.6449 115.881C64.4959 116.288 64.4214 116.761 64.4214 117.299C64.4214 117.838 64.4959 118.305 64.6449 118.7C64.7996 119.095 65.0259 119.402 65.3238 119.62C65.6217 119.837 65.9826 119.946 66.4066 119.946ZM72.5343 112.667H74.9577V114.3H75.0608C75.2671 113.744 75.5965 113.315 76.0491 113.011C76.5017 112.702 77.0403 112.547 77.6648 112.547C78.083 112.547 78.464 112.618 78.8077 112.762C79.1572 112.899 79.4494 113.1 79.6843 113.363C79.9192 113.627 80.0911 113.939 80.1999 114.3H80.2858C80.4233 113.945 80.6267 113.635 80.896 113.372C81.1653 113.108 81.489 112.905 81.8671 112.762C82.2452 112.618 82.6577 112.547 83.1046 112.547C83.689 112.547 84.2017 112.673 84.6429 112.925C85.0898 113.171 85.4364 113.535 85.6827 114.016C85.9291 114.492 86.0523 115.065 86.0523 115.735V122H83.4999V116.216C83.4999 115.707 83.3653 115.32 83.096 115.056C82.8267 114.787 82.4744 114.652 82.039 114.652C81.7239 114.652 81.4517 114.721 81.2226 114.859C80.9991 114.99 80.8244 115.179 80.6983 115.426C80.578 115.666 80.5179 115.953 80.5179 116.285V122H78.0515V116.148C78.0515 115.85 77.9913 115.586 77.871 115.357C77.7564 115.128 77.5903 114.953 77.3726 114.833C77.1549 114.712 76.9028 114.652 76.6163 114.652C76.3299 114.652 76.0692 114.724 75.8343 114.867C75.6051 115.005 75.4218 115.205 75.2843 115.469C75.1468 115.732 75.078 116.039 75.078 116.388V122H72.5343V112.667ZM93.1253 117.97C92.8961 117.975 92.4922 117.998 91.9135 118.038L91.0885 118.107C90.6359 118.141 90.2807 118.265 90.0229 118.477C89.7651 118.683 89.6362 118.964 89.6362 119.319C89.6362 119.548 89.6935 119.743 89.8081 119.903C89.9284 120.064 90.0945 120.187 90.3065 120.273C90.5242 120.359 90.7677 120.402 91.037 120.402C91.4208 120.402 91.7617 120.327 92.0596 120.178C92.3575 120.023 92.5896 119.814 92.7557 119.551C92.9219 119.282 93.0049 118.986 93.0049 118.666L92.9878 115.649C92.9878 115.386 92.9305 115.162 92.8159 114.979C92.707 114.79 92.538 114.649 92.3088 114.558C92.0854 114.46 91.819 114.412 91.5096 114.412C91.0799 114.412 90.7305 114.503 90.4612 114.687C90.1919 114.864 90.0229 115.116 89.9542 115.443H87.5307C87.588 114.893 87.7799 114.4 88.1065 113.965C88.4388 113.524 88.8971 113.177 89.4815 112.925C90.0716 112.673 90.7677 112.547 91.5698 112.547C92.2917 112.547 92.9505 112.659 93.5463 112.882C94.1422 113.105 94.6206 113.455 94.9815 113.93C95.3482 114.4 95.5315 114.993 95.5315 115.709V122H93.1167V120.711H93.0479C92.8932 121.003 92.6898 121.258 92.4378 121.476C92.1857 121.693 91.882 121.865 91.5268 121.991C91.1773 122.112 90.7706 122.172 90.3065 122.172C89.7049 122.172 89.1721 122.066 88.7081 121.854C88.244 121.642 87.8773 121.327 87.6081 120.909C87.3388 120.49 87.2042 119.986 87.2042 119.396C87.2042 118.422 87.525 117.715 88.1667 117.273C88.8141 116.832 89.6505 116.58 90.676 116.517C90.8479 116.5 91.3779 116.471 92.2659 116.431L93.1081 116.397L93.1253 117.97Z" fill="white"/>
</svg>
