<svg width="141" height="142" viewBox="0 0 141 142" fill="none" xmlns="http://www.w3.org/2000/svg">
<rect x="0.8" y="1.5998" width="139.2" height="139.2" rx="23.2" stroke="white" stroke-width="1.6"/>
<path d="M103.716 35.833H71.9832V91.3663H103.716C104.813 91.3663 105.7 90.4798 105.7 89.383V37.8163C105.7 36.7196 104.813 35.833 103.716 35.833Z" fill="#F2F2F2"/>
<path d="M69.9995 73.5167H97.7662V77.4833H69.9995V73.5167ZM69.9995 81.45H97.7662V85.4167H69.9995V81.45ZM81.8995 45.75C75.3287 45.75 69.9995 51.0792 69.9995 57.65C69.9995 64.2208 75.3287 69.55 81.8995 69.55C88.4703 69.55 93.7995 64.2208 93.7995 57.65H81.8995V45.75Z" fill="#F5CC9D"/>
<path d="M85.866 41.7832V53.6832H97.766C97.766 47.1124 92.4367 41.7832 85.866 41.7832Z" fill="#F5CC9D"/>
<path d="M75.9496 99.3004L34.2996 91.3671V35.8337L75.9496 27.9004V99.3004Z" fill="white"/>
<path d="M55.775 49.7168H46.1995V77.4835H52.1495V67.9178H55.2276C58.51 67.9178 61.13 67.0531 63.0915 65.3316C65.0511 63.6081 66.0348 61.351 66.0308 58.5644C66.0328 52.666 62.6115 49.7168 55.775 49.7168ZM54.7159 63.1737H52.1495V54.5184H54.7159C57.9705 54.5184 59.5969 55.9464 59.5969 58.7985C59.5969 61.7179 57.9705 63.1737 54.7159 63.1737Z" fill="#C99D6A"/>
<path d="M26.6571 108.957H31.5212C32.4493 108.957 33.2485 109.134 33.9188 109.489C34.5949 109.839 35.1076 110.332 35.4571 110.968C35.8066 111.604 35.9813 112.334 35.9813 113.159C35.9813 113.99 35.8009 114.72 35.4399 115.35C35.0847 115.975 34.5662 116.465 33.8845 116.82C33.2084 117.169 32.4006 117.344 31.461 117.344H28.3329V115.264H31.0571C31.5556 115.264 31.9738 115.179 32.3118 115.007C32.6556 114.829 32.9105 114.583 33.0767 114.268C33.2428 113.952 33.3259 113.583 33.3259 113.159C33.3259 112.735 33.2428 112.368 33.0767 112.059C32.9105 111.744 32.6556 111.503 32.3118 111.337C31.9738 111.165 31.5527 111.079 31.0485 111.079H29.2353V121.4H26.6571V108.957ZM41.2583 121.581C40.3301 121.581 39.5195 121.38 38.8262 120.979C38.133 120.578 37.6002 120.014 37.2278 119.286C36.8554 118.559 36.6692 117.719 36.6692 116.768C36.6692 115.806 36.8554 114.964 37.2278 114.242C37.6002 113.514 38.133 112.95 38.8262 112.549C39.5195 112.148 40.3301 111.947 41.2583 111.947C42.1807 111.947 42.9885 112.148 43.6817 112.549C44.3807 112.95 44.9135 113.514 45.2801 114.242C45.6468 114.964 45.8301 115.806 45.8301 116.768C45.8301 117.719 45.6468 118.559 45.2801 119.286C44.9135 120.014 44.3807 120.578 43.6817 120.979C42.9885 121.38 42.1807 121.581 41.2583 121.581ZM41.2754 119.613C41.6994 119.613 42.0575 119.49 42.3497 119.243C42.6476 118.997 42.871 118.659 43.02 118.229C43.1689 117.794 43.2434 117.301 43.2434 116.751C43.2434 116.195 43.1689 115.703 43.02 115.273C42.871 114.843 42.6476 114.505 42.3497 114.259C42.0575 114.013 41.6994 113.889 41.2754 113.889C40.84 113.889 40.4705 114.013 40.1668 114.259C39.8632 114.505 39.634 114.843 39.4793 115.273C39.3247 115.697 39.2473 116.19 39.2473 116.751C39.2473 117.307 39.3247 117.8 39.4793 118.229C39.634 118.659 39.8632 118.997 40.1668 119.243C40.4705 119.49 40.84 119.613 41.2754 119.613ZM46.157 112.068H48.7352L50.1961 118.375H50.282L51.8117 112.068H54.3383L55.8938 118.332H55.9797L57.4148 112.068H59.9844L57.4406 121.4H54.7508L53.1266 115.479H53.0148L51.3906 121.4H48.7094L46.157 112.068ZM64.9261 121.581C63.9865 121.581 63.1673 121.386 62.4683 120.996C61.7751 120.607 61.2394 120.051 60.8613 119.329C60.4889 118.607 60.3027 117.76 60.3027 116.786C60.3027 115.823 60.4889 114.978 60.8613 114.25C61.2394 113.517 61.7694 112.95 62.4511 112.549C63.1329 112.148 63.9235 111.947 64.823 111.947C65.6652 111.947 66.4157 112.125 67.0746 112.48C67.7334 112.83 68.2519 113.36 68.63 114.07C69.0082 114.78 69.1972 115.648 69.1972 116.674V117.387H61.3425V115.797H66.7996C66.7996 115.419 66.7165 115.084 66.5503 114.792C66.3842 114.494 66.155 114.262 65.8628 114.096C65.5707 113.93 65.2384 113.846 64.866 113.846C64.4707 113.846 64.1183 113.938 63.8089 114.121C63.4996 114.299 63.2561 114.545 63.0785 114.861C62.9066 115.176 62.8178 115.519 62.8121 115.892V117.387C62.8121 117.851 62.9009 118.258 63.0785 118.607C63.2561 118.957 63.5053 119.223 63.8261 119.407C64.1527 119.59 64.5308 119.682 64.9605 119.682C65.247 119.682 65.5076 119.642 65.7425 119.561C65.9774 119.475 66.1751 119.367 66.3355 119.235C66.5017 119.097 66.6277 118.937 66.7136 118.754H69.1371C69.0168 119.321 68.7675 119.819 68.3894 120.249C68.017 120.673 67.5329 121.002 66.9371 121.237C66.347 121.466 65.6767 121.581 64.9261 121.581ZM70.4437 112.068H72.9015V113.692H73.0046C73.1707 113.119 73.4543 112.683 73.8554 112.386C74.2564 112.082 74.7205 111.93 75.2476 111.93C75.5226 111.93 75.7947 111.959 76.064 112.016V114.285C75.9551 114.245 75.7918 114.213 75.5741 114.19C75.3564 114.162 75.1559 114.147 74.9726 114.147C74.5944 114.147 74.2564 114.23 73.9585 114.396C73.6606 114.557 73.4228 114.786 73.2452 115.084C73.0733 115.376 72.9874 115.714 72.9874 116.098V121.4H70.4437V112.068ZM76.9495 112.068H79.4503V113.632H79.5706C79.7253 113.317 79.9057 113.039 80.112 112.798C80.324 112.557 80.6075 112.357 80.9628 112.196C81.318 112.03 81.7391 111.947 82.226 111.947C82.9307 111.947 83.5695 112.128 84.1424 112.489C84.7154 112.85 85.168 113.391 85.5003 114.113C85.8383 114.835 86.0073 115.711 86.0073 116.743C86.0073 117.751 85.844 118.619 85.5174 119.346C85.1909 120.068 84.7411 120.615 84.1682 120.988C83.5953 121.36 82.945 121.546 82.2174 121.546C81.7477 121.546 81.3352 121.466 80.9799 121.306C80.6247 121.145 80.3383 120.951 80.1206 120.721C79.9086 120.492 79.7253 120.223 79.5706 119.914H79.4932V124.907H76.9495V112.068ZM79.4245 116.725C79.4245 117.281 79.5047 117.771 79.6651 118.195C79.8255 118.619 80.0547 118.945 80.3526 119.175C80.6505 119.404 81.0115 119.518 81.4354 119.518C81.8536 119.518 82.2117 119.401 82.5096 119.166C82.8133 118.931 83.0396 118.605 83.1885 118.186C83.3432 117.762 83.4206 117.275 83.4206 116.725C83.4206 116.175 83.3432 115.694 83.1885 115.282C83.0396 114.869 82.8161 114.551 82.5182 114.328C82.2203 114.099 81.8594 113.984 81.4354 113.984C81.0115 113.984 80.6505 114.096 80.3526 114.319C80.0547 114.537 79.8255 114.852 79.6651 115.264C79.5047 115.677 79.4245 116.164 79.4245 116.725ZM91.4904 121.581C90.5623 121.581 89.7516 121.38 89.0584 120.979C88.3652 120.578 87.8324 120.014 87.46 119.286C87.0876 118.559 86.9014 117.719 86.9014 116.768C86.9014 115.806 87.0876 114.964 87.46 114.242C87.8324 113.514 88.3652 112.95 89.0584 112.549C89.7516 112.148 90.5623 111.947 91.4904 111.947C92.4128 111.947 93.2207 112.148 93.9139 112.549C94.6128 112.95 95.1457 113.514 95.5123 114.242C95.879 114.964 96.0623 115.806 96.0623 116.768C96.0623 117.719 95.879 118.559 95.5123 119.286C95.1457 120.014 94.6128 120.578 93.9139 120.979C93.2207 121.38 92.4128 121.581 91.4904 121.581ZM91.5076 119.613C91.9316 119.613 92.2897 119.49 92.5819 119.243C92.8798 118.997 93.1032 118.659 93.2522 118.229C93.4011 117.794 93.4756 117.301 93.4756 116.751C93.4756 116.195 93.4011 115.703 93.2522 115.273C93.1032 114.843 92.8798 114.505 92.5819 114.259C92.2897 114.013 91.9316 113.889 91.5076 113.889C91.0722 113.889 90.7027 114.013 90.399 114.259C90.0954 114.505 89.8662 114.843 89.7115 115.273C89.5569 115.697 89.4795 116.19 89.4795 116.751C89.4795 117.307 89.5569 117.8 89.7115 118.229C89.8662 118.659 90.0954 118.997 90.399 119.243C90.7027 119.49 91.0722 119.613 91.5076 119.613ZM97.3173 112.068H99.8611V121.4H97.3173V112.068ZM98.5892 110.839C98.3371 110.839 98.1051 110.781 97.8931 110.667C97.6811 110.552 97.5121 110.395 97.3861 110.194C97.2601 109.994 97.197 109.779 97.197 109.55C97.197 109.315 97.2601 109.1 97.3861 108.905C97.5121 108.705 97.6811 108.547 97.8931 108.432C98.1051 108.318 98.3371 108.261 98.5892 108.261C98.8413 108.261 99.0733 108.318 99.2853 108.432C99.4973 108.547 99.6634 108.705 99.7838 108.905C99.9098 109.1 99.9728 109.315 99.9728 109.55C99.9728 109.779 99.9098 109.994 99.7838 110.194C99.6634 110.395 99.4973 110.552 99.2853 110.667C99.0733 110.781 98.8413 110.839 98.5892 110.839ZM104.029 121.4H101.486V112.068H103.909V113.7H104.012C104.23 113.15 104.579 112.721 105.061 112.411C105.548 112.102 106.135 111.947 106.822 111.947C107.47 111.947 108.034 112.088 108.515 112.368C108.997 112.649 109.369 113.053 109.633 113.58C109.902 114.107 110.036 114.732 110.036 115.454V121.4H107.493V115.892C107.493 115.508 107.427 115.181 107.295 114.912C107.169 114.637 106.98 114.428 106.728 114.285C106.476 114.136 106.172 114.061 105.817 114.061C105.462 114.061 105.149 114.139 104.88 114.293C104.611 114.442 104.402 114.663 104.253 114.955C104.104 115.242 104.029 115.588 104.029 115.995V121.4ZM116.568 113.975H110.982V112.068H116.568V113.975ZM114.815 109.833V118.53C114.815 118.771 114.849 118.96 114.918 119.097C114.993 119.229 115.093 119.324 115.219 119.381C115.351 119.432 115.511 119.461 115.7 119.467C115.941 119.473 116.273 119.458 116.697 119.424V121.435C116.313 121.498 115.869 121.529 115.365 121.529C114.735 121.529 114.188 121.435 113.724 121.246C113.259 121.051 112.899 120.756 112.641 120.361C112.383 119.965 112.257 119.473 112.263 118.882V109.833H114.815Z" fill="white"/>
</svg>
