<svg width="141" height="142" viewBox="0 0 141 142" fill="none" xmlns="http://www.w3.org/2000/svg">
<rect x="0.8" y="1.20039" width="139.2" height="139.2" rx="23.2" stroke="white" stroke-width="1.6"/>
<path d="M79.8797 26.0137L34.3601 32.4447L40.2118 70.5161L50.3251 102.304L98.5549 87.8523L103.911 44.6502L79.8797 26.0137ZM50.0805 83.7774L47.6085 75.5374L62.4405 72.5697L66.3996 79.8183L50.0805 83.7774ZM65.0799 66.9691L61.1272 60.377L47.4475 63.1774L44.4799 56.418L71.1762 51.8087L80.7359 63.5057L65.0799 66.9691ZM80.6586 48.0299L71.3049 37.8522L39.2719 42.7254L38.1196 35.245L78.9591 29.477L98.3038 44.4764L80.6586 48.0299Z" fill="white"/>
<path d="M41.3946 116.115C41.3603 115.782 41.2543 115.499 41.0767 115.264C40.9048 115.029 40.6642 114.851 40.3548 114.731C40.0454 114.611 39.6759 114.55 39.2462 114.55C38.828 114.55 38.4642 114.611 38.1548 114.731C37.8511 114.851 37.6191 115.02 37.4587 115.238C37.2983 115.45 37.2181 115.693 37.2181 115.968C37.2123 116.387 37.3842 116.713 37.7337 116.948C38.0889 117.183 38.5787 117.378 39.2032 117.533L40.3204 117.799C41.5006 118.062 42.4144 118.489 43.0618 119.079C43.7149 119.664 44.0444 120.454 44.0501 121.451C44.0501 122.202 43.8582 122.858 43.4743 123.419C43.0905 123.981 42.5376 124.413 41.8157 124.717C41.0938 125.021 40.2316 125.172 39.229 125.172C38.2264 125.172 37.3527 125.018 36.6079 124.708C35.8688 124.399 35.2959 123.943 34.8892 123.342C34.4824 122.735 34.2647 121.993 34.236 121.116H36.7454C36.7798 121.523 36.903 121.867 37.1149 122.147C37.3269 122.428 37.6134 122.64 37.9743 122.783C38.3353 122.927 38.7449 122.998 39.2032 122.998C39.6501 122.998 40.0425 122.932 40.3806 122.8C40.7186 122.669 40.9793 122.485 41.1626 122.25C41.3459 122.01 41.4376 121.738 41.4376 121.434C41.4376 121.159 41.3574 120.927 41.197 120.738C41.0366 120.543 40.8017 120.38 40.4923 120.248C40.1886 120.111 39.7962 119.982 39.3149 119.861L37.9485 119.535C36.86 119.266 36.0235 118.856 35.4392 118.306C34.8605 117.75 34.5712 117.028 34.5712 116.14C34.5712 115.401 34.7717 114.748 35.1728 114.181C35.5795 113.614 36.1381 113.173 36.8485 112.858C37.5647 112.542 38.3725 112.385 39.272 112.385C40.1772 112.385 40.9764 112.542 41.6696 112.858C42.3629 113.167 42.9014 113.605 43.2853 114.172C43.6691 114.734 43.8668 115.381 43.8782 116.115H41.3946ZM47.634 119.225H48.0122L51.0458 115.668H53.9762L49.9372 120.351H49.3442L47.634 122.276V119.225ZM45.3309 112.557H47.8747V125H45.3309V112.557ZM48.3817 120.918L50.0747 119.114L54.1481 125H51.1661L48.3817 120.918ZM58.6344 125.181C57.6948 125.181 56.8755 124.986 56.1766 124.597C55.4833 124.207 54.9477 123.651 54.5695 122.929C54.1971 122.208 54.0109 121.36 54.0109 120.386C54.0109 119.423 54.1971 118.578 54.5695 117.85C54.9477 117.117 55.4776 116.55 56.1594 116.149C56.8412 115.748 57.6318 115.547 58.5313 115.547C59.3734 115.547 60.124 115.725 60.7828 116.08C61.4417 116.43 61.9602 116.96 62.3383 117.67C62.7164 118.38 62.9055 119.248 62.9055 120.274V120.987H55.0508V119.397H60.5078C60.5078 119.019 60.4247 118.684 60.2586 118.392C60.0925 118.094 59.8633 117.862 59.5711 117.696C59.2789 117.53 58.9466 117.447 58.5742 117.447C58.1789 117.447 57.8266 117.538 57.5172 117.722C57.2078 117.899 56.9643 118.146 56.7867 118.461C56.6148 118.776 56.526 119.119 56.5203 119.492V120.987C56.5203 121.451 56.6091 121.858 56.7867 122.208C56.9643 122.557 57.2135 122.823 57.5344 123.007C57.8609 123.19 58.2391 123.282 58.6688 123.282C58.9552 123.282 59.2159 123.242 59.4508 123.161C59.6857 123.075 59.8833 122.967 60.0438 122.835C60.2099 122.697 60.3359 122.537 60.4219 122.354H62.8453C62.725 122.921 62.4758 123.419 62.0977 123.849C61.7253 124.273 61.2412 124.602 60.6453 124.837C60.0552 125.066 59.3849 125.181 58.6344 125.181ZM69.0675 117.575H63.4816V115.668H69.0675V117.575ZM67.3144 113.433V122.13C67.3144 122.371 67.3488 122.56 67.4175 122.697C67.492 122.829 67.5923 122.924 67.7183 122.981C67.8501 123.033 68.0105 123.061 68.1996 123.067C68.4402 123.073 68.7725 123.058 69.1964 123.024V125.035C68.8126 125.098 68.3686 125.129 67.8644 125.129C67.2342 125.129 66.6871 125.035 66.223 124.846C65.7589 124.651 65.398 124.356 65.1402 123.961C64.8824 123.565 64.7563 123.073 64.7621 122.483V113.433H67.3144ZM74.4132 125.181C73.4736 125.181 72.6572 124.978 71.964 124.571C71.2707 124.164 70.7408 123.597 70.3741 122.869C70.0075 122.142 69.8241 121.308 69.8241 120.368C69.8241 119.417 70.0103 118.578 70.3827 117.85C70.7551 117.123 71.2851 116.559 71.9726 116.158C72.6601 115.751 73.4679 115.547 74.396 115.547C75.1981 115.547 75.9056 115.693 76.5187 115.986C77.1374 116.272 77.6215 116.685 77.971 117.223C78.3262 117.762 78.521 118.383 78.5554 119.088H76.1491C76.1033 118.779 76.0059 118.506 75.8569 118.272C75.708 118.031 75.5132 117.848 75.2726 117.722C75.0319 117.59 74.7541 117.524 74.439 117.524C74.0322 117.524 73.677 117.636 73.3733 117.859C73.0697 118.077 72.8319 118.395 72.6601 118.813C72.4882 119.231 72.4023 119.735 72.4023 120.325C72.4023 120.921 72.4853 121.431 72.6515 121.855C72.8233 122.273 73.0611 122.594 73.3648 122.818C73.6684 123.041 74.0265 123.153 74.439 123.153C74.7426 123.153 75.0148 123.096 75.2554 122.981C75.496 122.861 75.6937 122.683 75.8483 122.448C76.003 122.213 76.1033 121.933 76.1491 121.606H78.5554C78.5153 122.311 78.3205 122.932 77.971 123.471C77.6273 124.009 77.1489 124.43 76.5358 124.734C75.9286 125.032 75.221 125.181 74.4132 125.181ZM82.3198 125H79.776V112.557H82.251V117.3H82.3542C82.5776 116.745 82.9242 116.315 83.394 116.011C83.8695 115.702 84.451 115.547 85.1385 115.547C85.7917 115.547 86.3617 115.688 86.8487 115.968C87.3357 116.249 87.7109 116.653 87.9745 117.18C88.238 117.707 88.3698 118.332 88.3698 119.054V125H85.826V119.492C85.826 119.108 85.7601 118.779 85.6284 118.504C85.4966 118.229 85.3047 118.019 85.0526 117.876C84.8005 117.733 84.4969 117.661 84.1417 117.661C83.7807 117.661 83.4656 117.739 83.1963 117.893C82.9271 118.042 82.7122 118.263 82.5518 118.555C82.3971 118.847 82.3198 119.194 82.3198 119.595V125ZM99.7056 115.668H102.232V125H99.8002V123.316H99.697C99.4736 123.872 99.1184 124.313 98.6314 124.64C98.1444 124.96 97.5572 125.121 96.8697 125.121C96.2509 125.121 95.7038 124.98 95.2283 124.7C94.7528 124.413 94.3804 124.006 94.1111 123.479C93.8476 122.947 93.7158 122.322 93.7158 121.606V115.668H96.2595V121.168C96.2595 121.529 96.3254 121.847 96.4572 122.122C96.589 122.391 96.778 122.6 97.0244 122.749C97.2765 122.892 97.5629 122.964 97.8838 122.964C98.2103 122.964 98.5111 122.889 98.7861 122.74C99.0668 122.591 99.2903 122.368 99.4564 122.07C99.6226 121.772 99.7056 121.423 99.7056 121.022V115.668ZM103.865 115.668H106.366V117.232H106.486C106.641 116.917 106.822 116.639 107.028 116.398C107.24 116.158 107.523 115.957 107.879 115.797C108.234 115.63 108.655 115.547 109.142 115.547C109.847 115.547 110.485 115.728 111.058 116.089C111.631 116.45 112.084 116.991 112.416 117.713C112.754 118.435 112.923 119.311 112.923 120.343C112.923 121.351 112.76 122.219 112.433 122.947C112.107 123.668 111.657 124.216 111.084 124.588C110.511 124.96 109.861 125.147 109.133 125.147C108.664 125.147 108.251 125.066 107.896 124.906C107.541 124.746 107.254 124.551 107.036 124.322C106.824 124.092 106.641 123.823 106.486 123.514H106.409V128.507H103.865V115.668ZM106.34 120.325C106.34 120.881 106.421 121.371 106.581 121.795C106.741 122.219 106.971 122.546 107.268 122.775C107.566 123.004 107.927 123.118 108.351 123.118C108.77 123.118 109.128 123.001 109.426 122.766C109.729 122.531 109.955 122.205 110.104 121.786C110.259 121.362 110.336 120.875 110.336 120.325C110.336 119.775 110.259 119.294 110.104 118.882C109.955 118.469 109.732 118.151 109.434 117.928C109.136 117.699 108.775 117.584 108.351 117.584C107.927 117.584 107.566 117.696 107.268 117.919C106.971 118.137 106.741 118.452 106.581 118.865C106.421 119.277 106.34 119.764 106.34 120.325Z" fill="white"/>
</svg>
