<svg width="56" height="56" viewBox="0 0 56 56" fill="none" xmlns="http://www.w3.org/2000/svg">
<path d="M16 0.299805H39.2959C47.9668 0.299805 54.9961 7.32913 54.9961 16V54.9961H16C7.32913 54.9961 0.299805 47.9668 0.299805 39.2959V16C0.299805 7.32913 7.32913 0.299806 16 0.299805Z" stroke="#FF8000" stroke-width="0.6"/>
<path d="M9.77255 35.648L15.6676 19.358H16.9951L22.8788 35.648H21.6413L16.3651 20.8655H16.2751L11.0101 35.648H9.77255ZM20.2801 29.483V30.5405H12.3713V29.483H20.2801ZM27.8216 35.648H26.6966V19.358H27.8216V35.648ZM34.0694 35.648H32.9444V19.358H34.0694V35.648Z" fill="#FF8000"/>
<path d="M41.6089 32.256L46.2169 27.648L41.6089 23.04" stroke="#FF8000" stroke-width="0.6912" stroke-linecap="round" stroke-linejoin="round"/>
</svg>
