<svg width="50" height="41" viewBox="0 0 50 41" fill="none" xmlns="http://www.w3.org/2000/svg">
<path d="M22.5678 0.325529C23.1241 1.04168 21.826 2.41172 18.6733 4.43563C16.2625 5.85237 14.2225 7.93855 12.5392 10.6631C10.8559 13.3875 9.92867 15.8785 9.75749 18.1204C13.4665 17.918 16.4479 18.7743 18.6733 20.7048C20.8987 22.6353 22.0114 25.3131 22.0114 28.7693C22.0114 32.0075 20.9843 34.7009 18.9444 36.8338C16.9044 38.9667 14.2083 40.0253 10.8702 40.0253C7.14693 40.0253 4.40799 38.811 2.65335 36.3823C0.884451 33.9536 0 30.9022 0 27.2591C0 22.6041 1.85449 17.6378 5.57775 12.36C9.28673 7.09785 13.0956 3.54822 17.0043 1.71113C20.1569 0.076432 22.0114 -0.390625 22.5678 0.325529ZM49.8716 1.53988C50.428 2.25603 49.1298 3.62606 45.9772 5.64998C43.7518 7.06671 41.7974 8.95051 40.1284 11.2702C38.4593 13.6055 37.4322 16.0809 37.0613 18.7276C40.7703 18.5252 43.7946 19.3814 46.1198 21.3119C48.4451 23.2424 49.6006 26.0292 49.6006 29.6723C49.6006 33.1285 48.5735 35.853 46.5335 37.8769C44.4936 39.9008 41.9829 40.9128 39.0157 40.9128C35.4922 40.9128 32.6534 39.7451 30.5135 37.4098C28.3737 35.0745 27.3039 31.992 27.3039 28.131C27.3039 22.2461 29.1156 17.0306 32.7389 12.469C36.3623 7.90742 40.3994 4.62245 44.8645 2.58297C47.6462 1.16623 49.3153 0.808154 49.8859 1.52431L49.8716 1.53988Z" fill="white"/>
</svg>
