<svg width="50" height="41" viewBox="0 0 50 41" fill="none" xmlns="http://www.w3.org/2000/svg">
<path d="M27.4288 40.5872C26.8725 39.8711 28.1706 38.5011 31.3233 36.4772C33.7341 35.0604 35.774 32.9742 37.4574 30.2497C39.1407 27.5252 40.0679 25.0343 40.2391 22.7924C36.5301 22.9948 33.5487 22.1385 31.3233 20.208C29.0979 18.2775 27.9852 15.5997 27.9852 12.1435C27.9852 8.90524 29.0123 6.21188 31.0522 4.07898C33.0922 1.94609 35.7883 0.887433 39.1264 0.887434C42.8497 0.887434 45.5886 2.10178 47.3432 4.53047C49.1121 6.95917 49.9966 10.0106 49.9966 13.6536C49.9966 18.3086 48.1421 23.275 44.4188 28.5528C40.7098 33.8149 36.901 37.3646 32.9923 39.2016C29.8397 40.8363 27.9852 41.3034 27.4288 40.5872ZM0.124973 39.3729C-0.431375 38.6567 0.866771 37.2867 4.01941 35.2628C6.2448 33.8461 8.19916 31.9623 9.8682 29.6426C11.5372 27.3073 12.5643 24.8319 12.9352 22.1852C9.22626 22.3876 6.202 21.5313 3.87675 19.6008C1.5515 17.6703 0.396014 14.8836 0.396014 11.2405C0.396014 7.7843 1.42312 5.0598 3.46307 3.03589C5.50301 1.01198 8.01371 2.12506e-05 10.9809 2.151e-05C14.5044 2.1818e-05 17.3432 1.16766 19.483 3.50295C21.6228 5.83823 22.6927 8.92081 22.6927 12.7818C22.6927 18.6667 20.881 23.8822 17.2576 28.4438C13.6342 33.0054 9.59715 36.2903 5.1321 38.3298C2.35036 39.7465 0.68132 40.1046 0.110706 39.3885L0.124973 39.3729Z" fill="white"/>
</svg>
