<svg width="100" height="62" viewBox="0 0 100 62" fill="none" xmlns="http://www.w3.org/2000/svg">
<g clip-path="url(#clip0_1592_5296)">
<path d="M78.4573 23.0188C89.0115 22.9664 97.6103 31.5576 97.6632 42.2079C97.7162 52.8581 89.2032 61.5344 78.6491 61.5869C68.0949 61.6394 59.4961 53.0481 59.4432 42.3979C59.3902 31.7476 67.9032 23.0713 78.4573 23.0188ZM78.6373 59.218C87.8916 59.172 95.3573 51.563 95.3109 42.2245C95.2645 32.8859 87.7235 25.3515 78.4692 25.3975C69.2149 25.4435 61.7491 33.0525 61.7956 42.3911C61.842 51.7296 69.383 59.264 78.6373 59.218Z" fill="#DBDCDD"/>
<path d="M78.4573 23.0188C89.0115 22.9664 97.6103 31.5576 97.6632 42.2079C97.7162 52.8581 89.2032 61.5344 78.6491 61.5869C68.0949 61.6394 59.4961 53.0481 59.4432 42.3979C59.3902 31.7476 67.9032 23.0713 78.4573 23.0188ZM78.6443 60.6325C88.6747 60.5826 96.7629 52.3392 96.7126 42.2175C96.6623 32.0958 88.4925 23.9332 78.4621 23.983C68.4318 24.0329 60.3435 32.2764 60.3938 42.398C60.4441 52.5197 68.614 60.6824 78.6443 60.6325Z" fill="#76582F"/>
<path d="M80.0525 25.2003L80.7964 25.2686L80.6748 26.6188L79.9309 26.5505L80.0525 25.2003Z" fill="#C7C8C9"/>
<path d="M80.2285 26.1925L80.4507 26.2129L79.0051 42.2642L78.7829 42.2438L80.2285 26.1925Z" fill="#C7C8C9"/>
<path d="M77.0144 26.5689L76.2712 26.6445L76.1362 25.2956L76.8794 25.2199L77.0144 26.5689Z" fill="#C7C8C9"/>
<path d="M78.3184 42.2518L78.0964 42.2744L76.4904 26.2286L76.7124 26.206L78.3184 42.2518Z" fill="#C7C8C9"/>
<path d="M88.3329 28.2384L88.9434 28.6729L88.169 29.7807L87.5586 29.3463L88.3329 28.2384Z" fill="#C7C8C9"/>
<path d="M87.9947 29.1876L88.177 29.3174L78.9718 42.4881L78.7895 42.3583L87.9947 29.1876Z" fill="#C7C8C9"/>
<path d="M85.0263 27.8885L84.3452 27.5791L84.8967 26.3428L85.5778 26.6523L85.0263 27.8885Z" fill="#C7C8C9"/>
<path d="M78.3851 42.1344L78.1816 42.042L84.7412 27.3363L84.9447 27.4287L78.3851 42.1344Z" fill="#C7C8C9"/>
<path d="M94.0003 35.0472L94.3137 35.7314L93.0942 36.3002L92.7808 35.6159L94.0003 35.0472Z" fill="#C7C8C9"/>
<path d="M93.2379 35.6931L93.3315 35.8975L78.8333 42.6586L78.7397 42.4542L93.2379 35.6931Z" fill="#C7C8C9"/>
<path d="M91.3133 33.0726L90.8767 32.4609L91.9669 31.6686L92.4034 32.2802L91.3133 33.0726Z" fill="#C7C8C9"/>
<path d="M78.4939 42.0596L78.3635 41.877L91.3311 32.4518L91.4615 32.6345L78.4939 42.0596Z" fill="#C7C8C9"/>
<path d="M95.5317 43.7972L95.4641 44.5479L94.1261 44.425L94.1937 43.6744L95.5317 43.7972Z" fill="#C7C8C9"/>
<path d="M94.5497 43.974L94.5295 44.1982L78.623 42.7381L78.6432 42.5139L94.5497 43.974Z" fill="#C7C8C9"/>
<path d="M94.1798 40.7372L94.1047 39.9873L95.4415 39.8512L95.5165 40.6011L94.1798 40.7372Z" fill="#C7C8C9"/>
<path d="M78.6323 42.0433L78.6099 41.8193L94.5108 40.2001L94.5332 40.4241L78.6323 42.0433Z" fill="#C7C8C9"/>
<path d="M92.5264 52.1555L92.0959 52.7715L90.998 51.99L91.4285 51.3741L92.5264 52.1555Z" fill="#C7C8C9"/>
<path d="M91.5837 51.816L91.4551 52L78.4023 42.7098L78.5309 42.5259L91.5837 51.816Z" fill="#C7C8C9"/>
<path d="M92.8687 48.8191L93.1753 48.1318L94.4004 48.6884L94.0939 49.3757L92.8687 48.8191Z" fill="#C7C8C9"/>
<path d="M78.7495 42.1115L78.8411 41.9062L93.4147 48.5269L93.3231 48.7322L78.7495 42.1115Z" fill="#C7C8C9"/>
<path d="M85.7796 57.8694L85.1016 58.1855L84.5379 56.9548L85.2159 56.6386L85.7796 57.8694Z" fill="#C7C8C9"/>
<path d="M85.1354 57.1028L84.9329 57.1973L78.2314 42.5664L78.434 42.4719L85.1354 57.1028Z" fill="#C7C8C9"/>
<path d="M87.7318 55.1573L88.3379 54.7168L89.1232 55.8169L88.5171 56.2574L87.7318 55.1573Z" fill="#C7C8C9"/>
<path d="M78.8329 42.2244L79.0139 42.0928L88.3552 55.1793L88.1742 55.3109L78.8329 42.2244Z" fill="#C7C8C9"/>
<path d="M77.1023 59.4159L76.3584 59.3477L76.48 57.9975L77.2239 58.0657L77.1023 59.4159Z" fill="#C7C8C9"/>
<path d="M76.9287 58.4267L76.7065 58.4062L78.1549 42.3552L78.3771 42.3757L76.9287 58.4267Z" fill="#C7C8C9"/>
<path d="M80.1401 58.0513L80.8833 57.9756L81.0183 59.3245L80.2751 59.4002L80.1401 58.0513Z" fill="#C7C8C9"/>
<path d="M78.8405 42.3664L79.0625 42.3438L80.6685 58.3896L80.4465 58.4122L78.8405 42.3664Z" fill="#C7C8C9"/>
<path d="M68.824 56.3808L68.2136 55.9463L68.9879 54.8384L69.5984 55.2729L68.824 56.3808Z" fill="#C7C8C9"/>
<path d="M69.1655 55.4403L68.9832 55.3105L78.1883 42.1398L78.3707 42.2696L69.1655 55.4403Z" fill="#C7C8C9"/>
<path d="M72.1321 56.7316L72.8132 57.041L72.2618 58.2773L71.5807 57.9678L72.1321 56.7316Z" fill="#C7C8C9"/>
<path d="M78.7809 42.4847L78.9844 42.5771L72.4248 57.2829L72.2213 57.1904L78.7809 42.4847Z" fill="#C7C8C9"/>
<path d="M63.1593 49.5729L62.8459 48.8887L64.0655 48.3199L64.3789 49.0042L63.1593 49.5729Z" fill="#C7C8C9"/>
<path d="M63.9242 48.9261L63.8306 48.7217L78.3288 41.9606L78.4225 42.1649L63.9242 48.9261Z" fill="#C7C8C9"/>
<path d="M65.8488 51.5476L66.2854 52.1592L65.1953 52.9515L64.7587 52.3399L65.8488 51.5476Z" fill="#C7C8C9"/>
<path d="M78.665 42.5644L78.7954 42.7471L65.8278 52.1723L65.6974 51.9896L78.665 42.5644Z" fill="#C7C8C9"/>
<path d="M61.6233 40.8219L61.6909 40.0713L63.0289 40.1941L62.9613 40.9448L61.6233 40.8219Z" fill="#C7C8C9"/>
<path d="M62.6043 40.649L62.6245 40.4248L78.5311 41.8849L78.5109 42.1092L62.6043 40.649Z" fill="#C7C8C9"/>
<path d="M62.9757 43.8897L63.0508 44.6396L61.714 44.7758L61.639 44.0258L62.9757 43.8897Z" fill="#C7C8C9"/>
<path d="M78.5232 42.5709L78.5457 42.7949L62.6447 44.4141L62.6223 44.1901L78.5232 42.5709Z" fill="#C7C8C9"/>
<path d="M64.6313 32.4656L65.0618 31.8496L66.1597 32.6311L65.7292 33.247L64.6313 32.4656Z" fill="#C7C8C9"/>
<path d="M65.5631 32.81L65.6917 32.626L78.7444 41.9161L78.6158 42.1001L65.5631 32.81Z" fill="#C7C8C9"/>
<path d="M64.2922 35.8019L63.9856 36.4893L62.7604 35.9327L63.067 35.2454L64.2922 35.8019Z" fill="#C7C8C9"/>
<path d="M78.4058 42.5125L78.3142 42.7178L63.7417 36.0945L63.8333 35.8893L78.4058 42.5125Z" fill="#C7C8C9"/>
<path d="M71.3754 26.7449L72.0535 26.4287L72.6172 27.6594L71.9392 27.9756L71.3754 26.7449Z" fill="#C7C8C9"/>
<path d="M72.0238 27.5212L72.2263 27.4268L78.9277 42.0576L78.7252 42.1521L72.0238 27.5212Z" fill="#C7C8C9"/>
<path d="M69.4259 29.4599L68.8198 29.9004L68.0345 28.8003L68.6406 28.3597L69.4259 29.4599Z" fill="#C7C8C9"/>
<path d="M78.3312 42.3918L78.1501 42.5234L68.8066 29.4386L68.9876 29.307L78.3312 42.3918Z" fill="#C7C8C9"/>
<path d="M78.4663 24.8001C88.0455 24.7525 95.8546 32.5498 95.9027 42.2212C95.9508 51.8926 88.2245 59.7672 78.6403 59.8148C69.0562 59.8625 61.252 52.0651 61.2039 42.3937C61.1558 32.7223 68.8821 24.8478 78.4663 24.8001ZM78.6354 58.8213C87.6763 58.7763 94.9683 51.3444 94.9229 42.2212C94.8776 33.098 87.5121 25.739 78.4712 25.7839C69.4303 25.8288 62.1383 33.2607 62.1836 42.384C62.229 51.5072 69.5945 58.8662 78.6354 58.8213Z" fill="#C7C8C9"/>
<path d="M19.837 23.3098C30.3911 23.2574 38.9899 31.8486 39.0429 42.4989C39.0958 53.1492 30.5829 61.8255 20.0287 61.8779C9.47452 61.9304 0.875734 53.3392 0.822791 42.6889C0.769847 32.0386 9.28279 23.3623 19.837 23.3098ZM20.0169 59.509C29.2712 59.463 36.737 51.854 36.6905 42.5155C36.6441 33.1769 29.1031 25.6425 19.8488 25.6885C10.5945 25.7345 3.12878 33.3435 3.1752 42.6821C3.22162 52.0207 10.7626 59.555 20.0169 59.509Z" fill="#DBDCDD"/>
<path d="M19.837 23.3098C30.3911 23.2574 38.9899 31.8486 39.0429 42.4989C39.0958 53.1492 30.5829 61.8255 20.0287 61.8779C9.47452 61.9304 0.875734 53.3392 0.822791 42.6889C0.769847 32.0386 9.28279 23.3623 19.837 23.3098ZM20.024 60.9235C30.0543 60.8737 38.1426 52.6302 38.0923 42.5085C38.0419 32.3868 29.8721 24.2242 19.8418 24.274C9.81142 24.3239 1.72316 32.5674 1.77347 42.6891C1.82379 52.8107 9.9936 60.9734 20.024 60.9235Z" fill="#76582F"/>
<path d="M21.4382 25.4942L22.1821 25.5625L22.0605 26.9127L21.3166 26.8444L21.4382 25.4942Z" fill="#C7C8C9"/>
<path d="M21.6093 26.4806L21.8315 26.501L20.386 42.5522L20.1638 42.5318L21.6093 26.4806Z" fill="#C7C8C9"/>
<path d="M18.4026 26.8579L17.6594 26.9336L17.5244 25.5847L18.2676 25.509L18.4026 26.8579Z" fill="#C7C8C9"/>
<path d="M19.7017 42.5409L19.4797 42.5635L17.8737 26.5176L18.0957 26.495L19.7017 42.5409Z" fill="#C7C8C9"/>
<path d="M29.7133 28.5255L30.3237 28.96L29.5494 30.0679L28.939 29.6334L29.7133 28.5255Z" fill="#C7C8C9"/>
<path d="M29.375 29.4698L29.5574 29.5996L20.3522 42.7703L20.1699 42.6406L29.375 29.4698Z" fill="#C7C8C9"/>
<path d="M26.4111 28.1835L25.73 27.874L26.2814 26.6378L26.9626 26.9472L26.4111 28.1835Z" fill="#C7C8C9"/>
<path d="M19.7606 42.4225L19.5571 42.3301L26.1167 27.6244L26.3202 27.7168L19.7606 42.4225Z" fill="#C7C8C9"/>
<path d="M35.3761 35.3382L35.6895 36.0225L34.4699 36.5912L34.1565 35.907L35.3761 35.3382Z" fill="#C7C8C9"/>
<path d="M34.6234 35.9792L34.717 36.1836L20.2188 42.9447L20.1252 42.7403L34.6234 35.9792Z" fill="#C7C8C9"/>
<path d="M32.6946 33.3636L32.2581 32.752L33.3482 31.9596L33.7848 32.5712L32.6946 33.3636Z" fill="#C7C8C9"/>
<path d="M19.878 42.3546L19.7476 42.1719L32.7152 32.7467L32.8456 32.9294L19.878 42.3546Z" fill="#C7C8C9"/>
<path d="M36.917 44.0843L36.8494 44.835L35.5113 44.7121L35.5789 43.9615L36.917 44.0843Z" fill="#C7C8C9"/>
<path d="M35.935 44.266L35.9148 44.4902L20.0082 43.0301L20.0284 42.8059L35.935 44.266Z" fill="#C7C8C9"/>
<path d="M35.5651 41.0273L35.49 40.2773L36.8267 40.1412L36.9018 40.8912L35.5651 41.0273Z" fill="#C7C8C9"/>
<path d="M20.0127 42.3383L19.9902 42.1143L35.8912 40.4951L35.9136 40.7191L20.0127 42.3383Z" fill="#C7C8C9"/>
<path d="M33.9058 52.4417L33.4753 53.0576L32.3774 52.2761L32.8079 51.6602L33.9058 52.4417Z" fill="#C7C8C9"/>
<path d="M32.9682 52.1022L32.8396 52.2861L19.7869 42.996L19.9155 42.812L32.9682 52.1022Z" fill="#C7C8C9"/>
<path d="M34.2562 49.1053L34.5627 48.418L35.7879 48.9745L35.4813 49.6619L34.2562 49.1053Z" fill="#C7C8C9"/>
<path d="M20.1321 42.4026L20.2236 42.1973L34.7973 48.8179L34.7057 49.0232L20.1321 42.4026Z" fill="#C7C8C9"/>
<path d="M27.1597 58.1584L26.4817 58.4746L25.918 57.2439L26.596 56.9277L27.1597 58.1584Z" fill="#C7C8C9"/>
<path d="M26.5155 57.3919L26.313 57.4863L19.6116 42.8554L19.8141 42.761L26.5155 57.3919Z" fill="#C7C8C9"/>
<path d="M29.1161 55.4503L29.7222 55.0098L30.5075 56.1099L29.9014 56.5504L29.1161 55.4503Z" fill="#C7C8C9"/>
<path d="M20.2133 42.5203L20.3943 42.3887L29.7356 55.4752L29.5546 55.6068L20.2133 42.5203Z" fill="#C7C8C9"/>
<path d="M18.4858 59.7079L17.7419 59.6396L17.8635 58.2895L18.6074 58.3577L18.4858 59.7079Z" fill="#C7C8C9"/>
<path d="M18.3113 58.7187L18.0891 58.6982L19.5374 42.6472L19.7596 42.6677L18.3113 58.7187Z" fill="#C7C8C9"/>
<path d="M21.521 58.3384L22.2642 58.2627L22.3992 59.6116L21.656 59.6873L21.521 58.3384Z" fill="#C7C8C9"/>
<path d="M20.2214 42.6583L20.4434 42.6357L22.0494 58.6816L21.8274 58.7042L20.2214 42.6583Z" fill="#C7C8C9"/>
<path d="M10.2081 56.6766L9.59766 56.2422L10.372 55.1343L10.9824 55.5688L10.2081 56.6766Z" fill="#C7C8C9"/>
<path d="M10.5495 55.7362L10.3672 55.6064L19.5723 42.4357L19.7547 42.5655L10.5495 55.7362Z" fill="#C7C8C9"/>
<path d="M13.5117 57.0236L14.1929 57.333L13.6414 58.5693L12.9603 58.2598L13.5117 57.0236Z" fill="#C7C8C9"/>
<path d="M20.1557 42.7718L20.3591 42.8643L13.7995 57.57L13.5961 57.4775L20.1557 42.7718Z" fill="#C7C8C9"/>
<path d="M4.54289 49.8698L4.22949 49.1855L5.44905 48.6168L5.76245 49.301L4.54289 49.8698Z" fill="#C7C8C9"/>
<path d="M5.30727 49.2151L5.21362 49.0107L19.7107 42.2471L19.8044 42.4514L5.30727 49.2151Z" fill="#C7C8C9"/>
<path d="M7.23138 51.8327L7.66797 52.4443L6.57782 53.2367L6.14123 52.625L7.23138 51.8327Z" fill="#C7C8C9"/>
<path d="M20.04 42.8554L20.1704 43.0381L7.20281 52.4633L7.0724 52.2806L20.04 42.8554Z" fill="#C7C8C9"/>
<path d="M3.00686 41.113L3.07446 40.3623L4.41249 40.4851L4.34489 41.2358L3.00686 41.113Z" fill="#C7C8C9"/>
<path d="M3.98347 40.9342L4.00366 40.71L19.9102 42.1701L19.89 42.3943L3.98347 40.9342Z" fill="#C7C8C9"/>
<path d="M4.35438 44.1758L4.42944 44.9258L3.0927 45.0619L3.01764 44.312L4.35438 44.1758Z" fill="#C7C8C9"/>
<path d="M19.907 42.86L19.9294 43.084L4.02879 44.706L4.00633 44.482L19.907 42.86Z" fill="#C7C8C9"/>
<path d="M6.01092 32.7556L6.44141 32.1396L7.53937 32.9211L7.10889 33.5371L6.01092 32.7556Z" fill="#C7C8C9"/>
<path d="M6.94463 33.0961L7.07324 32.9121L20.1244 42.2046L19.9957 42.3885L6.94463 33.0961Z" fill="#C7C8C9"/>
<path d="M5.66888 36.092L5.3623 36.7793L4.13715 36.2227L4.44372 35.5354L5.66888 36.092Z" fill="#C7C8C9"/>
<path d="M19.792 42.7967L19.7004 43.002L5.12682 36.3813L5.21839 36.176L19.792 42.7967Z" fill="#C7C8C9"/>
<path d="M12.7592 27.033L13.4373 26.7168L14.001 27.9475L13.3229 28.2637L12.7592 27.033Z" fill="#C7C8C9"/>
<path d="M13.4032 27.8112L13.6057 27.7168L20.3071 42.3477L20.1046 42.4421L13.4032 27.8112Z" fill="#C7C8C9"/>
<path d="M10.8055 29.7538L10.1995 30.1943L9.41417 29.0942L10.0202 28.6537L10.8055 29.7538Z" fill="#C7C8C9"/>
<path d="M19.7088 42.6789L19.5278 42.8105L10.1843 29.7257L10.3653 29.5941L19.7088 42.6789Z" fill="#C7C8C9"/>
<path d="M19.924 40.8028C20.9038 40.7979 21.7081 41.5966 21.713 42.5902C21.718 43.5838 20.9265 44.3904 19.9419 44.3953C18.9573 44.4002 18.1579 43.6015 18.1529 42.6079C18.148 41.6143 18.9394 40.8077 19.924 40.8028Z" fill="#C7C8C9"/>
<path d="M19.9289 41.7911C20.3703 41.7889 20.7262 42.1493 20.7284 42.5898C20.7305 43.0303 20.3734 43.3943 19.9369 43.3964C19.5004 43.3986 19.1397 43.0382 19.1375 42.5977C19.1353 42.1572 19.4924 41.7932 19.9289 41.7911Z" fill="white"/>
<path d="M19.8459 25.0911C29.4252 25.0435 37.2343 32.8409 37.2823 42.5122C37.3304 52.1836 29.6041 60.0582 20.02 60.1059C10.4358 60.1535 2.63162 52.3561 2.58355 42.6847C2.53547 33.0134 10.2618 25.1388 19.8459 25.0911ZM20.015 59.1123C29.0559 59.0673 36.3479 51.6354 36.3026 42.5122C36.2572 33.389 28.8917 26.03 19.8508 26.0749C10.8099 26.1199 3.51792 33.5518 3.56327 42.675C3.60862 51.7982 10.9741 59.1572 20.015 59.1123Z" fill="#C7C8C9"/>
<path d="M52.3259 43.0018L53.5613 41.7279C47.7608 35.991 32.3958 20.5908 30.9823 18.2142L29.4686 19.1272C31.2833 22.1871 51.468 42.1495 52.3259 42.9969L52.3259 43.0018Z" fill="#906999"/>
<path d="M30.2035 18.6875C31.9741 21.6545 50.8673 40.3851 52.9048 42.4062L52.3258 43.0062C51.4679 42.1588 31.288 22.1915 29.4685 19.1365L30.2036 18.6924L30.2035 18.6875Z" fill="#634370"/>
<path d="M57.9906 32.1809C58.0634 32.1806 58.141 32.1802 58.2137 32.1798L58.1952 30.3983C58.1273 30.3986 58.0545 30.399 57.9866 30.3993C38.2121 30.4977 32.9573 10.6323 32.9078 10.4319L31.1978 10.8711C31.2523 11.0911 32.6073 16.3313 36.6012 21.6025C40.2825 26.4689 46.9805 32.2308 57.9954 32.176L57.9906 32.1809Z" fill="#906999"/>
<path d="M31.7598 10.7257C32.1742 12.1284 33.6659 16.5554 37.0396 21.0074C40.6966 25.8397 47.3312 31.5578 58.2108 31.582L58.2137 32.1792C58.141 32.1795 58.0682 32.1799 57.9955 32.1802C46.9805 32.235 40.2874 26.4682 36.6012 21.6067C32.6074 16.3306 31.2523 11.0953 31.1979 10.8753L31.7598 10.7306L31.7598 10.7257Z" fill="#634370"/>
<path d="M64.7436 11.1385L65.8474 11.5693L62.5234 20.2426L61.4196 19.8117L64.7436 11.1385Z" fill="#DBDCDD"/>
<path d="M64.7445 11.1394L65.2791 11.3472L62.0422 19.7917L62.6108 20.014L62.5198 20.2445L61.4215 19.8143L64.7445 11.1394Z" fill="#AFB0B2"/>
<path d="M99.4737 41.465C98.2272 41.4712 97.1895 40.5464 96.9941 39.3042C95.5621 30.2809 87.7964 23.4084 78.4596 23.4548C68.3856 23.5049 60.2238 31.5921 59.8859 41.6618L57.2619 41.6749C57.5926 30.1417 66.9223 20.8691 78.4416 20.8118C89.961 20.7545 99.1923 29.744 99.8163 41.1011C99.827 41.2969 99.6677 41.4641 99.4737 41.465Z" fill="#634370"/>
<path d="M99.0272 41.4278C97.9883 41.2421 97.1692 40.3945 96.9941 39.3039C95.562 30.2806 87.7963 23.4081 78.4596 23.4545C68.3856 23.5046 60.2237 31.5918 59.8858 41.6616L58.0718 41.6706C58.6824 30.831 67.5497 22.2068 78.4531 22.1526C89.3565 22.0984 98.2847 30.6146 99.0272 41.4278Z" fill="#906999"/>
<path d="M67.6825 9.89125C68.7147 9.7148 69.77 10.2724 70.1096 11.2692C70.2228 11.5966 70.2293 11.9196 70.022 12.1703C69.3132 13.0303 65.9162 14.6282 64.723 14.6341C63.5299 14.64 55.8343 13.0973 55.7642 12.6523C55.6941 12.2072 56.7017 10.0046 57.6898 9.72556C58.6004 9.46652 62.6569 10.7483 67.6825 9.89125Z" fill="#76582F"/>
<path d="M84.3815 19.2364L85.2285 19.4873L78.518 42.5653L77.6709 42.3144L84.3815 19.2364Z" fill="#906999"/>
<path d="M77.6755 42.3175L78.5207 42.5678L78.5588 42.4257L78.1896 42.315L84.8564 19.3802L84.3852 19.2406L77.6755 42.3175Z" fill="#634370"/>
<path d="M81.0827 19.3757L81.9519 19.5312L77.949 42.3168L77.0798 42.1612L81.0827 19.3757Z" fill="#906999"/>
<path d="M77.0829 42.1684L77.947 42.3159L77.9707 42.2032L77.5386 42.1221L81.5197 19.4553L81.0828 19.3791L77.0829 42.1684Z" fill="#634370"/>
<path d="M62.4255 18.8255L88.9371 18.6937C89.3008 18.6919 89.5982 18.989 89.6 19.3561C89.6018 19.7232 89.3075 20.0232 88.9437 20.025L62.4321 20.1568L62.4255 18.8206L62.4255 18.8255Z" fill="#906999"/>
<path d="M89.5862 19.5078C89.5198 19.8067 89.2589 20.0283 88.9437 20.0298L62.4321 20.1616L62.4295 19.6428L89.5862 19.5078Z" fill="#634370"/>
<path d="M62.8019 20.2024L78.418 41.999L77.3449 42.7818L61.7289 20.9852L62.8019 20.2024Z" fill="#906999"/>
<path d="M62.2595 20.6008L77.8755 42.3975L77.3488 42.7817L61.7328 20.9851L62.2595 20.6008Z" fill="#634370"/>
<path d="M33.5571 7.32549L33.8946 5.95823C34.0135 5.47308 33.9672 4.94959 33.7564 4.49545L33.2416 3.37715C33.1631 3.20624 33.167 3.01533 33.2583 2.84846C33.3448 2.68651 33.5043 2.57804 33.6885 2.55265C35.5304 2.30366 36.8636 2.15509 37.4795 2.13734L39.846 3.02618L40.3055 1.77578L37.7056 0.800009L37.5844 0.800612C36.9587 0.803722 35.5868 0.94759 33.5074 1.23202C32.9015 1.31335 32.3891 1.67319 32.0959 2.21305C31.8027 2.75291 31.7816 3.38441 32.0415 3.94599L32.5563 5.06429C32.6397 5.24497 32.6601 5.45044 32.6126 5.64156L32.275 7.00882L33.5571 7.33038L33.5571 7.32549Z" fill="#AFB0B2"/>
<path d="M62.4148 16.3108L64.062 16.9521L52.8104 46.3872L51.1632 45.7458L62.4148 16.3108Z" fill="#906999"/>
<path d="M62.4178 16.3152L63.1614 16.6052L52.0481 45.6704L52.952 46.0232L52.8132 46.3861L51.1657 45.7482L62.4178 16.3152Z" fill="#634370"/>
<path d="M53.8673 38.887C54.3766 38.904 77.4339 39.5774 77.691 39.5859C79.2389 39.7055 80.4 41.0653 80.2816 42.6077C80.1858 43.8367 79.2791 44.874 78.1017 45.1245L54.8473 51.6128C54.8085 51.6228 53.8879 51.8183 52.8883 51.74C52.8883 51.74 52.8883 51.74 52.8835 51.7401C51.1658 51.6067 49.6 50.8117 48.4779 49.5007C47.3558 48.1896 46.8091 46.5233 46.9412 44.8047C47.2147 41.2645 50.3251 38.6109 53.8721 38.887L53.8673 38.887Z" fill="#906999"/>
<path d="M53.3936 49.9755C53.8835 49.9731 54.3003 49.9025 54.4359 49.8773L78.2917 43.3665L78.345 43.3564C78.7617 43.2662 79.0993 42.873 79.136 42.4421C79.1589 42.1728 79.0702 41.9089 78.8897 41.6993C78.7141 41.4946 78.4709 41.3637 78.1992 41.3357C77.7868 41.323 53.7741 40.6642 53.7741 40.6642L53.7353 40.6644C53.6043 40.6503 53.4733 40.6461 53.3424 40.6467C50.9221 40.6588 48.8846 42.5484 48.6977 44.9428C48.602 46.1816 48.996 47.3886 49.8107 48.3341C50.6254 49.2796 51.7585 49.8613 53.0055 49.9627L53.0589 49.9625C53.1753 49.9766 53.2869 49.976 53.3985 49.9755L53.3936 49.9755Z" fill="#634370"/>
<path d="M77.1912 42.447C77.1899 42.1974 77.3926 41.9908 77.64 41.9895C77.8874 41.9883 78.0921 42.1929 78.0933 42.4425C78.0946 42.6921 77.8919 42.8987 77.6445 42.8999C77.3972 42.9011 77.1924 42.6966 77.1912 42.447Z" fill="#906999"/>
<path d="M47.3551 5.13694C47.6087 4.44555 47.2605 3.67884 46.5802 3.41791L40.258 1.03633C39.772 0.852753 39.2349 1.10015 39.053 1.59051L38.7802 2.32605C38.5983 2.81151 38.8435 3.35848 39.3294 3.53717L45.6516 5.91875C46.3368 6.17475 47.0966 5.82346 47.3551 5.13205L47.3551 5.13694Z" fill="#76582F"/>
<path d="M36.0958 1.88983C36.0958 1.88983 35.8152 3.99099 36.3106 4.12557C36.7963 4.26021 41.6656 7.08463 42.142 7.29762C42.7642 7.57352 42.7996 6.8881 41.9776 6.42231C41.1556 5.95652 38.2579 4.58577 38.2987 4.0178C38.3625 3.1903 38.763 1.79337 38.763 1.79337L37.1333 1.80147L36.1007 1.8947L36.0958 1.88983Z" fill="#AFB0B2"/>
<path d="M62.1755 16.0473L64.4174 16.6627C64.65 16.7266 64.7873 16.9686 64.7241 17.2034L64.6592 17.4442C64.5959 17.679 64.356 17.8175 64.1234 17.7537L61.8815 17.1383C61.6489 17.0744 61.5115 16.8324 61.5748 16.5976L61.6397 16.3567C61.703 16.122 61.9429 15.9834 62.1755 16.0473Z" fill="#906999"/>
<path d="M64.7262 17.1993L64.6595 17.4444C64.5977 17.6796 64.3558 17.8179 64.1275 17.7505L61.8836 17.1351C61.6505 17.0727 61.5134 16.8286 61.5802 16.5982L61.6469 16.3532C61.6469 16.3532 61.6469 16.3532 61.6469 16.3483L64.7262 17.1944C64.7262 17.1944 64.7262 17.1944 64.7262 17.1993Z" fill="#634370"/>
<path d="M25.9689 8.83137C26.2354 8.786 26.5069 8.75528 26.793 8.75386C28.7235 8.74426 31.5034 9.8464 31.5102 11.2266C31.5171 12.6069 28.7483 13.7366 26.8179 13.7462C26.5317 13.7476 26.2599 13.7196 25.993 13.6769L25.9689 8.83137Z" fill="#906999"/>
<path d="M26.793 8.75911C26.8803 8.75868 26.9676 8.75825 27.055 8.7676L27.0797 13.7403C26.9924 13.7408 26.9051 13.751 26.8178 13.7514C26.5317 13.7529 26.2599 13.7248 25.9929 13.6821L25.9688 8.83663C26.2354 8.79125 26.5068 8.76054 26.793 8.75911Z" fill="#634370"/>
<path d="M46.6475 54.0175C47.0662 54.3237 47.6526 54.2278 47.9561 53.8103L53.8233 45.6513C54.1268 45.2288 54.0317 44.6371 53.6179 44.3308C53.1992 44.0245 52.6128 44.1204 52.3093 44.5379L46.4421 52.6969C46.1386 53.1194 46.2337 53.7112 46.6475 54.0175Z" fill="#634370"/>
<path d="M46.256 51.3761L49.2596 53.5735C49.8779 54.0257 50.0132 54.9011 49.5652 55.5249C49.1172 56.1488 48.2497 56.2852 47.6314 55.8331L44.6278 53.6357C44.0096 53.1836 43.8743 52.3082 44.3222 51.6843C44.7702 51.0605 45.6378 50.924 46.256 51.3761Z" fill="#634370"/>
<path d="M52.9667 48.0048C51.4237 48.0125 50.1667 46.7565 50.1589 45.1995C50.1512 43.6425 51.3957 42.3741 52.9387 42.3664C54.4816 42.3588 55.7387 43.6147 55.7464 45.1717C55.7542 46.7287 54.5096 47.9971 52.9667 48.0048Z" fill="#906999"/>
<path d="M38.5627 42.4771C38.5115 32.1792 30.2003 23.8753 19.9953 23.926C19.6219 23.9279 19.2533 23.9395 18.8896 23.9658C17.7356 24.04 16.6365 23.4582 16.0543 22.4479C15.8195 22.0428 16.0643 21.5277 16.5198 21.4471C18.4389 21.1194 20.4466 21.0458 22.5092 21.2803C32.7736 22.4529 40.7857 31.0862 41.2886 41.4993C41.5591 47.1267 39.6786 52.3096 36.3953 56.2807C36.1638 56.5608 35.7222 56.5141 35.5412 56.2017C34.8954 55.0841 34.9564 53.7035 35.6495 52.6135C37.5072 49.6871 38.5764 46.2066 38.5578 42.4771L38.5627 42.4771Z" fill="#906999"/>
<path d="M15.9655 22.1155C15.9656 22.1498 15.9658 22.189 15.9757 22.2232C16.0241 22.1985 16.0773 22.1786 16.1355 22.1685C18.0013 21.8509 19.9508 21.7825 21.9552 22.0123C31.9284 23.1521 39.7161 31.5418 40.203 41.6564C40.4678 47.1174 38.6351 52.1582 35.4482 56.0113C35.4776 56.0797 35.5167 56.1382 35.551 56.2017C35.732 56.5189 36.1736 56.5657 36.4051 56.2807C39.6836 52.3145 41.5737 47.1266 41.2984 41.4993C40.7955 31.0911 32.7834 22.4578 22.519 21.2851C20.4564 21.0458 18.4487 21.1194 16.5296 21.4471C16.1904 21.5075 15.9736 21.7974 15.9751 22.1106L15.9655 22.1155Z" fill="#634370"/>
<path d="M32.066 6.93604L29.6237 16.1891L27.1572 25.4276C26.7428 26.9665 26.3188 28.5006 25.8801 30.025C25.4317 31.5348 24.9981 33.0983 24.4618 34.5057C23.3505 37.306 21.5154 39.9092 19.4507 42.1808L19.4314 42.2053C19.224 42.4315 19.2403 42.7887 19.4645 42.9981C19.6691 43.188 19.9796 43.1913 20.1921 43.0189C21.4771 41.9602 22.5722 40.7654 23.5697 39.4585C24.5721 38.1565 25.4186 36.7181 26.0754 35.1682C26.6885 33.5989 27.1223 32.0843 27.5997 30.5402C28.0577 29.0059 28.5012 27.4668 28.9349 25.9278C29.8121 22.8496 30.6164 19.7572 31.4305 16.6696C32.2445 13.5819 33.0003 10.475 33.7706 7.37297C33.8895 6.8976 33.601 6.41448 33.1299 6.29446C32.6636 6.17441 32.1897 6.46065 32.0659 6.92625L32.066 6.93604Z" fill="#906999"/>
<path d="M19.4315 42.21L19.4508 42.1854C21.5155 39.9139 23.3457 37.3156 24.4619 34.5103C24.9981 33.098 25.4317 31.5394 25.8802 30.0297C26.3188 28.5004 26.7429 26.9663 27.1572 25.4322L29.6238 16.1938L32.066 6.9407C32.1898 6.46532 32.6637 6.18397 33.1299 6.29912C33.1882 6.31352 33.2465 6.3377 33.3 6.36191C33.0774 6.47069 32.9038 6.67223 32.8323 6.92711L30.3901 16.185L27.9235 25.4235C27.5092 26.9625 27.0851 28.4966 26.6465 30.021C26.198 31.5307 25.7644 33.0942 25.2282 34.5016C24.1168 37.3019 22.2818 39.9052 20.2171 42.1767L20.1978 42.2013C19.9952 42.4275 20.0067 42.7749 20.226 42.9843C20.2115 42.9941 20.2018 43.0089 20.1873 43.0187C19.9748 43.1911 19.6643 43.1878 19.4597 42.9979C19.2355 42.7885 19.2192 42.4313 19.4266 42.2051L19.4315 42.21Z" fill="#634370"/>
<path d="M32.1338 5.99616L34.2358 6.51234C34.4518 6.56539 34.5843 6.78512 34.5318 7.00312L34.4756 7.23615C34.4231 7.45415 34.2053 7.58786 33.9893 7.53481L31.8873 7.01863C31.6713 6.96558 31.5388 6.74585 31.5913 6.52785L31.6475 6.29482C31.7001 6.07682 31.9178 5.94311 32.1338 5.99616Z" fill="#906999"/>
<path d="M31.5934 6.52218L31.6505 6.29185C31.7027 6.07134 31.9203 5.9381 32.1388 5.99086L32.9936 6.20197L32.7464 7.22126L31.8917 7.01015C31.6732 6.9574 31.5411 6.7378 31.5934 6.51728L31.5934 6.52218Z" fill="#634370"/>
<path d="M52.0021 45.1904C51.9995 44.6569 52.4242 44.229 52.948 44.2264C53.4719 44.2238 53.9008 44.6524 53.9035 45.181C53.9061 45.7096 53.4814 46.1424 52.9576 46.145C52.4337 46.1476 52.0048 45.719 52.0021 45.1904Z" fill="#634370"/>
</g>
<defs>
<clipPath id="clip0_1592_5296">
<rect width="99" height="61" fill="white" transform="matrix(-0.999988 0.00497106 0.00497106 0.999988 99.6143 0.487305)"/>
</clipPath>
</defs>
</svg>
