<svg width="551" height="138" viewBox="0 0 551 138" fill="none" xmlns="http://www.w3.org/2000/svg">
<rect width="550.999" height="138" fill="#C08E54"/>
<path opacity="0.45" d="M536.313 115.346C537.581 114.31 540.4 112.387 542.515 109.428C543.078 108.688 543.783 107.208 544.77 104.693C545.616 102.325 546.038 100.254 546.179 98.6262C542.937 100.846 539.555 100.254 537.159 98.4783C535.044 96.8507 533.494 94.4833 533.494 91.0801C533.494 86.1973 537.44 82.7942 541.81 82.7942C546.461 82.7942 549.421 85.3096 550.69 90.3403C551.535 94.1873 550.69 102.917 547.589 107.948C544.77 113.127 540.541 116.234 537.299 117.418C535.185 118.157 534.762 116.53 536.313 115.346ZM515.819 115.346C517.087 114.31 519.906 112.387 522.021 109.428C522.584 108.688 523.289 107.208 524.276 104.693C525.121 102.325 525.544 100.254 525.685 98.6262C522.443 100.846 519.061 100.254 516.664 98.4783C514.55 96.8507 513 94.4833 513 91.0801C513 86.1973 516.946 82.7942 521.316 82.7942C525.967 82.7942 528.927 85.3096 530.196 90.3403C531.041 94.1873 530.196 102.917 527.095 107.948C524.276 113.127 520.047 116.234 516.805 117.418C514.691 118.157 514.268 116.53 515.819 115.346Z" fill="#F9DDFF"/>
<path opacity="0.45" d="M74.32 28.56H73.92C73.7333 27.6533 73.4 26.8933 72.92 26.28C72.44 25.6667 71.6667 25.36 70.6 25.36H65.12V51.2C65.12 51.4133 65.16 51.6 65.24 51.76C65.32 51.92 65.4267 52.0667 65.56 52.2C65.6933 52.3067 65.8933 52.36 66.16 52.36V52.76H60.4V52.36C60.6667 52.36 60.8667 52.3067 61 52.2C61.1333 52.0667 61.2267 51.92 61.28 51.76C61.36 51.6 61.4 51.4133 61.4 51.2V25.36H55.96C54.8933 25.36 54.1067 25.6667 53.6 26.28C53.12 26.8933 52.8 27.6533 52.64 28.56H52.2L52.6 24.72H73.96L74.32 28.56ZM93.5381 51.2C93.5381 51.4133 93.5781 51.6 93.6581 51.76C93.7381 51.92 93.8448 52.0667 93.9781 52.2C94.1115 52.3067 94.3115 52.36 94.5781 52.36V52.76H88.8181V52.36C89.0848 52.36 89.2848 52.3067 89.4181 52.2C89.5515 52.0667 89.6448 51.92 89.6981 51.76C89.7781 51.6 89.8181 51.4133 89.8181 51.2V37.52C89.8181 37.0933 89.7248 36.6667 89.5381 36.24C89.3781 35.8133 89.1248 35.4267 88.7781 35.08C88.4581 34.7333 88.0581 34.4533 87.5781 34.24C87.0981 34.0267 86.5381 33.92 85.8981 33.92C85.0715 33.92 84.3248 34.0933 83.6581 34.44C83.0181 34.7867 82.4581 35.2133 81.9781 35.72C81.5248 36.2 81.1781 36.72 80.9381 37.28C80.6981 37.84 80.5781 38.3333 80.5781 38.76V51.2C80.5781 51.4133 80.6181 51.6 80.6981 51.76C80.7515 51.92 80.8448 52.0667 80.9781 52.2C81.1381 52.3067 81.3381 52.36 81.5781 52.36V52.76H75.8181V52.36C76.0848 52.36 76.2848 52.3067 76.4181 52.2C76.5781 52.0667 76.6848 51.92 76.7381 51.76C76.8181 51.6 76.8581 51.4133 76.8581 51.2V26.28C76.8581 26.0667 76.8181 25.88 76.7381 25.72C76.6848 25.5867 76.5781 25.4667 76.4181 25.36C76.2848 25.2267 76.0848 25.16 75.8181 25.16V24.72H79.7781C79.9915 24.72 80.1781 24.8 80.3381 24.96C80.4981 25.12 80.5781 25.3067 80.5781 25.52V36.64C81.1381 35.52 81.9381 34.6667 82.9781 34.08C84.0448 33.4667 85.2048 33.1867 86.4581 33.24C87.3648 33.24 88.2448 33.3733 89.0981 33.64C89.9515 33.9067 90.6981 34.3067 91.3381 34.84C92.0048 35.3467 92.5381 35.9867 92.9381 36.76C93.3381 37.5067 93.5381 38.3867 93.5381 39.4V51.2ZM107.721 52.36C109.081 52.2533 110.294 51.8133 111.361 51.04C112.454 50.24 113.241 49.2133 113.721 47.96L114.361 48.12C114.014 49.08 113.481 49.92 112.761 50.64C112.148 51.28 111.281 51.8667 110.161 52.4C109.068 52.9333 107.641 53.2 105.881 53.2C104.228 53.2 102.801 52.9467 101.601 52.44C100.428 51.9067 99.4676 51.1867 98.7209 50.28C97.9743 49.3733 97.4276 48.32 97.0809 47.12C96.7343 45.8933 96.5609 44.5867 96.5609 43.2C96.5609 41.84 96.7343 40.56 97.0809 39.36C97.4276 38.1333 97.9743 37.0667 98.7209 36.16C99.4676 35.2533 100.428 34.5467 101.601 34.04C102.801 33.5067 104.228 33.24 105.881 33.24C107.961 33.24 109.614 33.6133 110.841 34.36C112.094 35.08 113.041 35.9467 113.681 36.96C114.321 37.9733 114.734 39.0267 114.921 40.12C115.134 41.2133 115.241 42.1067 115.241 42.8H100.521V43.2C100.521 44.48 100.654 45.7067 100.921 46.88C101.214 48.0267 101.641 49.0267 102.201 49.88C102.788 50.7333 103.534 51.3867 104.441 51.84C105.348 52.2933 106.441 52.4667 107.721 52.36ZM105.881 33.88C105.054 33.88 104.321 34.0933 103.681 34.52C103.041 34.9467 102.494 35.5333 102.041 36.28C101.588 37.0267 101.228 37.9067 100.961 38.92C100.721 39.9067 100.574 40.9867 100.521 42.16H111.241V42.12C111.054 39.2933 110.494 37.2133 109.561 35.88C108.628 34.5467 107.401 33.88 105.881 33.88ZM139.207 52.36C140.567 52.2533 141.78 51.8133 142.847 51.04C143.94 50.24 144.727 49.2133 145.207 47.96L145.847 48.12C145.5 49.08 144.967 49.92 144.247 50.64C143.634 51.28 142.767 51.8667 141.647 52.4C140.554 52.9333 139.127 53.2 137.367 53.2C135.714 53.2 134.287 52.9467 133.087 52.44C131.914 51.9067 130.954 51.1867 130.207 50.28C129.46 49.3733 128.914 48.32 128.567 47.12C128.22 45.8933 128.047 44.5867 128.047 43.2C128.047 41.84 128.22 40.56 128.567 39.36C128.914 38.1333 129.46 37.0667 130.207 36.16C130.954 35.2533 131.914 34.5467 133.087 34.04C134.287 33.5067 135.714 33.24 137.367 33.24C139.447 33.24 141.1 33.6133 142.327 34.36C143.58 35.08 144.527 35.9467 145.167 36.96C145.807 37.9733 146.22 39.0267 146.407 40.12C146.62 41.2133 146.727 42.1067 146.727 42.8H132.007V43.2C132.007 44.48 132.14 45.7067 132.407 46.88C132.7 48.0267 133.127 49.0267 133.687 49.88C134.274 50.7333 135.02 51.3867 135.927 51.84C136.834 52.2933 137.927 52.4667 139.207 52.36ZM137.367 33.88C136.54 33.88 135.807 34.0933 135.167 34.52C134.527 34.9467 133.98 35.5333 133.527 36.28C133.074 37.0267 132.714 37.9067 132.447 38.92C132.207 39.9067 132.06 40.9867 132.007 42.16H142.727V42.12C142.54 39.2933 141.98 37.2133 141.047 35.88C140.114 34.5467 138.887 33.88 137.367 33.88ZM165.696 51.48C165.909 51.7733 166.176 52 166.496 52.16C166.843 52.2933 167.189 52.36 167.536 52.36V52.76H160.296V52.36C160.749 52.36 161.069 52.2667 161.256 52.08C161.443 51.8933 161.349 51.56 160.976 51.08L156.416 44.44L151.896 50.44C151.523 50.9733 151.403 51.4267 151.536 51.8C151.669 52.1733 152.096 52.36 152.816 52.36V52.76H147.736V52.36C148.349 52.36 148.923 52.2267 149.456 51.96C149.989 51.6933 150.523 51.2 151.056 50.48L156.016 43.88L150.056 35.36C149.763 34.9867 149.469 34.68 149.176 34.44C148.883 34.2 148.469 34.08 147.936 34.08V33.64H155.216V34.08C154.763 34.08 154.443 34.16 154.256 34.32C154.069 34.48 154.123 34.7867 154.416 35.24L158.816 41.6L163.016 36C163.416 35.4667 163.549 35.0133 163.416 34.64C163.283 34.2667 162.843 34.08 162.096 34.08V33.64H167.216V34.08C166.576 34.08 165.989 34.2133 165.456 34.48C164.923 34.7467 164.389 35.2533 163.856 36L159.216 42.16L165.696 51.48ZM180.121 33.24C181.321 33.24 182.414 33.5067 183.401 34.04C184.388 34.5467 185.241 35.2533 185.961 36.16C186.681 37.0667 187.228 38.1333 187.601 39.36C188.001 40.56 188.201 41.84 188.201 43.2C188.201 44.5867 187.988 45.8933 187.561 47.12C187.161 48.32 186.574 49.3733 185.801 50.28C185.054 51.1867 184.134 51.9067 183.041 52.44C181.948 52.9467 180.708 53.2 179.321 53.2C178.574 53.2 177.908 53.0933 177.321 52.88C176.734 52.6667 176.214 52.3867 175.761 52.04C175.334 51.6933 174.961 51.3067 174.641 50.88C174.348 50.4533 174.094 50.0267 173.881 49.6V60.12C173.881 60.3333 173.921 60.5333 174.001 60.72C174.081 60.8533 174.188 60.9733 174.321 61.08C174.454 61.2133 174.654 61.28 174.921 61.28V61.68H169.161V61.28C169.428 61.28 169.628 61.2133 169.761 61.08C169.921 60.9733 170.028 60.8533 170.081 60.72C170.161 60.5333 170.201 60.3333 170.201 60.12V35.2C170.201 34.9867 170.161 34.8 170.081 34.64C170.028 34.5067 169.921 34.3867 169.761 34.28C169.628 34.1467 169.428 34.08 169.161 34.08V33.64H173.121C173.281 33.64 173.468 33.72 173.681 33.88C173.841 34.0933 173.908 34.28 173.881 34.44V37.56C174.094 37 174.361 36.4667 174.681 35.96C175.001 35.4267 175.401 34.96 175.881 34.56C176.388 34.16 176.988 33.84 177.681 33.6C178.374 33.36 179.188 33.24 180.121 33.24ZM178.881 52.56C179.734 52.56 180.494 52.32 181.161 51.84C181.828 51.3333 182.388 50.6667 182.841 49.84C183.321 48.9867 183.681 47.9867 183.921 46.84C184.161 45.6933 184.281 44.48 184.281 43.2C184.281 41.92 184.174 40.72 183.961 39.6C183.774 38.48 183.454 37.5067 183.001 36.68C182.574 35.8533 182.028 35.2133 181.361 34.76C180.721 34.28 179.934 34.04 179.001 34.04C177.401 34.04 176.148 34.7067 175.241 36.04C174.361 37.3467 173.921 39.2533 173.921 41.76V47.24C173.921 47.56 174.014 48.0267 174.201 48.64C174.414 49.2267 174.721 49.8133 175.121 50.4C175.521 50.96 176.028 51.4667 176.641 51.92C177.281 52.3467 178.028 52.56 178.881 52.56ZM201.377 52.36C202.737 52.2533 203.951 51.8133 205.017 51.04C206.111 50.24 206.897 49.2133 207.377 47.96L208.017 48.12C207.671 49.08 207.137 49.92 206.417 50.64C205.804 51.28 204.937 51.8667 203.817 52.4C202.724 52.9333 201.297 53.2 199.537 53.2C197.884 53.2 196.457 52.9467 195.257 52.44C194.084 51.9067 193.124 51.1867 192.377 50.28C191.631 49.3733 191.084 48.32 190.737 47.12C190.391 45.8933 190.217 44.5867 190.217 43.2C190.217 41.84 190.391 40.56 190.737 39.36C191.084 38.1333 191.631 37.0667 192.377 36.16C193.124 35.2533 194.084 34.5467 195.257 34.04C196.457 33.5067 197.884 33.24 199.537 33.24C201.617 33.24 203.271 33.6133 204.497 34.36C205.751 35.08 206.697 35.9467 207.337 36.96C207.977 37.9733 208.391 39.0267 208.577 40.12C208.791 41.2133 208.897 42.1067 208.897 42.8H194.177V43.2C194.177 44.48 194.311 45.7067 194.577 46.88C194.871 48.0267 195.297 49.0267 195.857 49.88C196.444 50.7333 197.191 51.3867 198.097 51.84C199.004 52.2933 200.097 52.4667 201.377 52.36ZM199.537 33.88C198.711 33.88 197.977 34.0933 197.337 34.52C196.697 34.9467 196.151 35.5333 195.697 36.28C195.244 37.0267 194.884 37.9067 194.617 38.92C194.377 39.9067 194.231 40.9867 194.177 42.16H204.897V42.12C204.711 39.2933 204.151 37.2133 203.217 35.88C202.284 34.5467 201.057 33.88 199.537 33.88ZM216.266 37.2C216.666 35.84 217.386 34.84 218.426 34.2C219.493 33.5333 220.706 33.2 222.066 33.2C222.626 33.2 223.133 33.24 223.586 33.32C224.066 33.4 224.493 33.5067 224.866 33.64C225.293 33.7733 225.68 33.92 226.026 34.08L224.106 37.48C223.893 36.6533 223.453 36 222.786 35.52C222.12 35.0133 221.36 34.7867 220.506 34.84C219.546 34.84 218.786 35.1067 218.226 35.64C217.666 36.1467 217.24 36.7067 216.946 37.32C216.6 38.0667 216.373 38.9067 216.266 39.84V51.2C216.266 51.4133 216.306 51.6 216.386 51.76C216.44 51.92 216.533 52.0667 216.666 52.2C216.826 52.3067 217.026 52.36 217.266 52.36V52.76H211.506V52.36C211.773 52.36 211.973 52.3067 212.106 52.2C212.266 52.0667 212.373 51.92 212.426 51.76C212.506 51.6 212.546 51.4133 212.546 51.2V35.2C212.546 34.9867 212.506 34.8 212.426 34.64C212.373 34.5067 212.266 34.3867 212.106 34.28C211.973 34.1467 211.773 34.08 211.506 34.08V33.64H215.466C215.68 33.64 215.866 33.72 216.026 33.88C216.186 34.04 216.266 34.2267 216.266 34.44V37.2ZM238.22 52.44C237.34 53 236.38 53.2533 235.34 53.2C233.847 53.2 232.7 52.9333 231.9 52.4C231.127 51.8667 230.554 51.28 230.18 50.64C229.754 49.92 229.514 49.08 229.46 48.12V34.28H226.62V33.64H229.46V29.52L233.18 27.72V33.64H238.1V34.28H233.18V48.96C233.18 49.1733 233.207 49.48 233.26 49.88C233.314 50.28 233.434 50.68 233.62 51.08C233.834 51.4533 234.127 51.7867 234.5 52.08C234.874 52.3733 235.38 52.52 236.02 52.52C236.34 52.52 236.66 52.48 236.98 52.4C237.3 52.32 237.594 52.1867 237.86 52L238.22 52.44ZM253.779 31C253.086 31 252.486 30.76 251.979 30.28C251.499 29.7733 251.259 29.1733 251.259 28.48C251.259 27.7867 251.499 27.2 251.979 26.72C252.486 26.2133 253.086 25.96 253.779 25.96C254.499 25.96 255.099 26.2 255.579 26.68C255.953 27.0533 256.193 27.4933 256.299 28C256.406 28.48 256.353 28.96 256.139 29.44C255.926 29.92 255.606 30.3067 255.179 30.6C254.779 30.8667 254.313 31 253.779 31ZM255.819 51.2C255.819 51.4133 255.859 51.6 255.939 51.76C255.993 51.92 256.086 52.0667 256.219 52.2C256.379 52.3067 256.579 52.36 256.819 52.36V52.76H251.059V52.36C251.326 52.36 251.526 52.3067 251.659 52.2C251.819 52.0667 251.926 51.92 251.979 51.76C252.059 51.6 252.099 51.4133 252.099 51.2V35.2C252.099 34.9867 252.059 34.8 251.979 34.64C251.926 34.5067 251.819 34.3867 251.659 34.28C251.526 34.1467 251.326 34.08 251.059 34.08V33.64H255.019C255.233 33.64 255.419 33.72 255.579 33.88C255.739 34.04 255.819 34.2267 255.819 34.44V51.2ZM277.589 51.2C277.589 51.4133 277.629 51.6 277.709 51.76C277.789 51.92 277.895 52.0667 278.029 52.2C278.162 52.3067 278.362 52.36 278.629 52.36V52.76H272.869V52.36C273.135 52.36 273.335 52.3067 273.469 52.2C273.602 52.0667 273.695 51.92 273.749 51.76C273.829 51.6 273.869 51.4133 273.869 51.2V37.52C273.869 37.0933 273.775 36.6667 273.589 36.24C273.429 35.8133 273.175 35.4267 272.829 35.08C272.509 34.7333 272.109 34.4533 271.629 34.24C271.149 34.0267 270.589 33.92 269.949 33.92C269.122 33.92 268.375 34.0933 267.709 34.44C267.069 34.7867 266.509 35.2133 266.029 35.72C265.575 36.2 265.229 36.72 264.989 37.28C264.749 37.84 264.629 38.3333 264.629 38.76V51.2C264.629 51.4133 264.669 51.6 264.749 51.76C264.802 51.92 264.895 52.0667 265.029 52.2C265.189 52.3067 265.389 52.36 265.629 52.36V52.76H259.869V52.36C260.135 52.36 260.335 52.3067 260.469 52.2C260.629 52.0667 260.735 51.92 260.789 51.76C260.869 51.6 260.909 51.4133 260.909 51.2V35.2C260.909 34.9867 260.869 34.8 260.789 34.64C260.735 34.5067 260.629 34.3867 260.469 34.28C260.335 34.1467 260.135 34.08 259.869 34.08V33.64H263.829C264.042 33.64 264.229 33.72 264.389 33.88C264.549 34.04 264.629 34.2267 264.629 34.44V36.64C265.189 35.52 265.989 34.6667 267.029 34.08C268.095 33.4667 269.255 33.1867 270.509 33.24C271.415 33.24 272.295 33.3733 273.149 33.64C274.002 33.9067 274.749 34.3067 275.389 34.84C276.055 35.3467 276.589 35.9867 276.989 36.76C277.389 37.5067 277.589 38.3867 277.589 39.4V51.2ZM308.324 51.2C308.324 51.4133 308.364 51.6 308.444 51.76C308.524 51.92 308.63 52.0667 308.764 52.2C308.897 52.3067 309.097 52.36 309.364 52.36V52.76H305.404C305.19 52.76 305.004 52.68 304.844 52.52C304.684 52.36 304.604 52.1733 304.604 51.96V49.2C304.31 50 303.937 50.6533 303.484 51.16C303.057 51.6667 302.59 52.08 302.084 52.4C301.604 52.6933 301.097 52.8933 300.564 53C300.03 53.1333 299.524 53.2 299.044 53.2C298.964 53.2 298.737 53.2 298.364 53.2C297.99 53.2 297.537 53.1733 297.004 53.12C296.497 53.0667 295.95 52.96 295.364 52.8C294.777 52.6133 294.23 52.3467 293.724 52C293.244 51.6533 292.844 51.2 292.524 50.64C292.204 50.08 292.044 49.3733 292.044 48.52C292.044 47.6667 292.217 46.9333 292.564 46.32C292.937 45.68 293.47 45.0933 294.164 44.56C294.884 44 295.764 43.4667 296.804 42.96C297.87 42.4267 299.11 41.8533 300.524 41.24C301.964 40.6267 303.004 40.1067 303.644 39.68C304.284 39.2533 304.604 38.6667 304.604 37.92V37.52C304.604 37.0933 304.51 36.6667 304.324 36.24C304.164 35.7867 303.897 35.3867 303.524 35.04C303.177 34.6933 302.737 34.4133 302.204 34.2C301.697 33.9867 301.097 33.88 300.404 33.88C299.604 33.88 298.91 34.0267 298.324 34.32C297.737 34.5867 297.244 34.96 296.844 35.44C296.47 35.8933 296.19 36.4267 296.004 37.04C295.844 37.6533 295.764 38.2933 295.764 38.96L292.764 37.92C292.897 37.52 293.137 37.0533 293.484 36.52C293.857 35.9867 294.364 35.48 295.004 35C295.644 34.4933 296.444 34.08 297.404 33.76C298.39 33.4133 299.577 33.24 300.964 33.24C302.324 33.24 303.47 33.4267 304.404 33.8C305.337 34.1733 306.097 34.6667 306.684 35.28C307.27 35.8667 307.684 36.52 307.924 37.24C308.19 37.9333 308.324 38.6267 308.324 39.32V51.2ZM304.604 39.64C304.31 39.9333 303.87 40.24 303.284 40.56C302.724 40.8533 301.95 41.24 300.964 41.72C299.87 42.2533 298.99 42.8533 298.324 43.52C297.684 44.1867 297.19 44.8533 296.844 45.52C296.497 46.16 296.27 46.7733 296.164 47.36C296.057 47.92 296.004 48.3733 296.004 48.72C296.004 49.04 296.044 49.4267 296.124 49.88C296.204 50.3067 296.364 50.72 296.604 51.12C296.87 51.52 297.23 51.8667 297.684 52.16C298.137 52.4267 298.737 52.56 299.484 52.56C300.497 52.56 301.337 52.32 302.004 51.84C302.67 51.3333 303.19 50.76 303.564 50.12C303.937 49.4533 304.204 48.8133 304.364 48.2C304.524 47.56 304.604 47.1067 304.604 46.84V39.64ZM329.876 51.2C329.876 51.4133 329.916 51.6 329.996 51.76C330.076 51.92 330.183 52.0667 330.316 52.2C330.45 52.3067 330.65 52.36 330.916 52.36V52.76H325.156V52.36C325.423 52.36 325.623 52.3067 325.756 52.2C325.89 52.0667 325.983 51.92 326.036 51.76C326.116 51.6 326.156 51.4133 326.156 51.2V37.52C326.156 37.0933 326.063 36.6667 325.876 36.24C325.716 35.8133 325.463 35.4267 325.116 35.08C324.796 34.7333 324.396 34.4533 323.916 34.24C323.436 34.0267 322.876 33.92 322.236 33.92C321.41 33.92 320.663 34.0933 319.996 34.44C319.356 34.7867 318.796 35.2133 318.316 35.72C317.863 36.2 317.516 36.72 317.276 37.28C317.036 37.84 316.916 38.3333 316.916 38.76V51.2C316.916 51.4133 316.956 51.6 317.036 51.76C317.09 51.92 317.183 52.0667 317.316 52.2C317.476 52.3067 317.676 52.36 317.916 52.36V52.76H312.156V52.36C312.423 52.36 312.623 52.3067 312.756 52.2C312.916 52.0667 313.023 51.92 313.076 51.76C313.156 51.6 313.196 51.4133 313.196 51.2V35.2C313.196 34.9867 313.156 34.8 313.076 34.64C313.023 34.5067 312.916 34.3867 312.756 34.28C312.623 34.1467 312.423 34.08 312.156 34.08V33.64H316.116C316.33 33.64 316.516 33.72 316.676 33.88C316.836 34.04 316.916 34.2267 316.916 34.44V36.64C317.476 35.52 318.276 34.6667 319.316 34.08C320.383 33.4667 321.543 33.1867 322.796 33.24C323.703 33.24 324.583 33.3733 325.436 33.64C326.29 33.9067 327.036 34.3067 327.676 34.84C328.343 35.3467 328.876 35.9867 329.276 36.76C329.676 37.5067 329.876 38.3867 329.876 39.4V51.2ZM352.273 33.64V34.08C351.633 34.0533 351.046 34.2133 350.513 34.56C349.98 34.88 349.593 35.3333 349.353 35.92C347.833 39.2533 346.42 42.3467 345.113 45.2C344.553 46.4 343.993 47.6133 343.433 48.84C342.9 50.0667 342.38 51.2267 341.873 52.32C341.393 53.3867 340.966 54.3333 340.593 55.16C340.22 55.9867 339.94 56.6133 339.753 57.04C339.033 58.6133 338.26 59.84 337.433 60.72C336.606 61.6267 335.513 62.0933 334.153 62.12L332.993 59.16C333.42 59.2667 333.806 59.3467 334.153 59.4C334.526 59.4533 334.873 59.48 335.193 59.48C336.18 59.48 337.006 59.2 337.673 58.64C338.34 58.1067 338.953 57.2133 339.513 55.96C339.726 55.5067 339.953 55.0133 340.193 54.48C340.433 53.9733 340.686 53.4133 340.953 52.8L332.833 35.2C332.62 34.7467 332.393 34.4533 332.153 34.32C331.94 34.16 331.673 34.08 331.353 34.08V33.64H337.753V34.08C337.38 34.08 337.126 34.1733 336.993 34.36C336.86 34.52 336.82 34.72 336.873 34.96L343.033 48.24L348.633 36C348.846 35.52 348.833 35.08 348.593 34.68C348.38 34.28 347.9 34.08 347.153 34.08V33.64H352.273ZM364.281 52.44C363.401 53 362.441 53.2533 361.401 53.2C359.908 53.2 358.761 52.9333 357.961 52.4C357.188 51.8667 356.615 51.28 356.241 50.64C355.815 49.92 355.575 49.08 355.521 48.12V34.28H352.681V33.64H355.521V29.52L359.241 27.72V33.64H364.161V34.28H359.241V48.96C359.241 49.1733 359.268 49.48 359.321 49.88C359.375 50.28 359.495 50.68 359.681 51.08C359.895 51.4533 360.188 51.7867 360.561 52.08C360.935 52.3733 361.441 52.52 362.081 52.52C362.401 52.52 362.721 52.48 363.041 52.4C363.361 52.32 363.655 52.1867 363.921 52L364.281 52.44ZM383.883 51.2C383.883 51.4133 383.923 51.6 384.003 51.76C384.083 51.92 384.19 52.0667 384.323 52.2C384.457 52.3067 384.657 52.36 384.923 52.36V52.76H379.163V52.36C379.43 52.36 379.63 52.3067 379.763 52.2C379.897 52.0667 379.99 51.92 380.043 51.76C380.123 51.6 380.163 51.4133 380.163 51.2V37.52C380.163 37.0933 380.07 36.6667 379.883 36.24C379.723 35.8133 379.47 35.4267 379.123 35.08C378.803 34.7333 378.403 34.4533 377.923 34.24C377.443 34.0267 376.883 33.92 376.243 33.92C375.417 33.92 374.67 34.0933 374.003 34.44C373.363 34.7867 372.803 35.2133 372.323 35.72C371.87 36.2 371.523 36.72 371.283 37.28C371.043 37.84 370.923 38.3333 370.923 38.76V51.2C370.923 51.4133 370.963 51.6 371.043 51.76C371.097 51.92 371.19 52.0667 371.323 52.2C371.483 52.3067 371.683 52.36 371.923 52.36V52.76H366.163V52.36C366.43 52.36 366.63 52.3067 366.763 52.2C366.923 52.0667 367.03 51.92 367.083 51.76C367.163 51.6 367.203 51.4133 367.203 51.2V26.28C367.203 26.0667 367.163 25.88 367.083 25.72C367.03 25.5867 366.923 25.4667 366.763 25.36C366.63 25.2267 366.43 25.16 366.163 25.16V24.72H370.123C370.337 24.72 370.523 24.8 370.683 24.96C370.843 25.12 370.923 25.3067 370.923 25.52V36.64C371.483 35.52 372.283 34.6667 373.323 34.08C374.39 33.4667 375.55 33.1867 376.803 33.24C377.71 33.24 378.59 33.3733 379.443 33.64C380.297 33.9067 381.043 34.3067 381.683 34.84C382.35 35.3467 382.883 35.9867 383.283 36.76C383.683 37.5067 383.883 38.3867 383.883 39.4V51.2ZM390.426 31C389.733 31 389.133 30.76 388.626 30.28C388.146 29.7733 387.906 29.1733 387.906 28.48C387.906 27.7867 388.146 27.2 388.626 26.72C389.133 26.2133 389.733 25.96 390.426 25.96C391.146 25.96 391.746 26.2 392.226 26.68C392.6 27.0533 392.84 27.4933 392.946 28C393.053 28.48 393 28.96 392.786 29.44C392.573 29.92 392.253 30.3067 391.826 30.6C391.426 30.8667 390.96 31 390.426 31ZM392.466 51.2C392.466 51.4133 392.506 51.6 392.586 51.76C392.64 51.92 392.733 52.0667 392.866 52.2C393.026 52.3067 393.226 52.36 393.466 52.36V52.76H387.706V52.36C387.973 52.36 388.173 52.3067 388.306 52.2C388.466 52.0667 388.573 51.92 388.626 51.76C388.706 51.6 388.746 51.4133 388.746 51.2V35.2C388.746 34.9867 388.706 34.8 388.626 34.64C388.573 34.5067 388.466 34.3867 388.306 34.28C388.173 34.1467 387.973 34.08 387.706 34.08V33.64H391.666C391.88 33.64 392.066 33.72 392.226 33.88C392.386 34.04 392.466 34.2267 392.466 34.44V51.2ZM414.236 51.2C414.236 51.4133 414.276 51.6 414.356 51.76C414.436 51.92 414.542 52.0667 414.676 52.2C414.809 52.3067 415.009 52.36 415.276 52.36V52.76H409.516V52.36C409.782 52.36 409.982 52.3067 410.116 52.2C410.249 52.0667 410.342 51.92 410.396 51.76C410.476 51.6 410.516 51.4133 410.516 51.2V37.52C410.516 37.0933 410.422 36.6667 410.236 36.24C410.076 35.8133 409.822 35.4267 409.476 35.08C409.156 34.7333 408.756 34.4533 408.276 34.24C407.796 34.0267 407.236 33.92 406.596 33.92C405.769 33.92 405.022 34.0933 404.356 34.44C403.716 34.7867 403.156 35.2133 402.676 35.72C402.222 36.2 401.876 36.72 401.636 37.28C401.396 37.84 401.276 38.3333 401.276 38.76V51.2C401.276 51.4133 401.316 51.6 401.396 51.76C401.449 51.92 401.542 52.0667 401.676 52.2C401.836 52.3067 402.036 52.36 402.276 52.36V52.76H396.516V52.36C396.782 52.36 396.982 52.3067 397.116 52.2C397.276 52.0667 397.382 51.92 397.436 51.76C397.516 51.6 397.556 51.4133 397.556 51.2V35.2C397.556 34.9867 397.516 34.8 397.436 34.64C397.382 34.5067 397.276 34.3867 397.116 34.28C396.982 34.1467 396.782 34.08 396.516 34.08V33.64H400.476C400.689 33.64 400.876 33.72 401.036 33.88C401.196 34.04 401.276 34.2267 401.276 34.44V36.64C401.836 35.52 402.636 34.6667 403.676 34.08C404.742 33.4667 405.902 33.1867 407.156 33.24C408.062 33.24 408.942 33.3733 409.796 33.64C410.649 33.9067 411.396 34.3067 412.036 34.84C412.702 35.3467 413.236 35.9867 413.636 36.76C414.036 37.5067 414.236 38.3867 414.236 39.4V51.2ZM436.614 35.8C436.614 35.2667 436.387 34.7733 435.934 34.32C435.48 33.8667 434.947 33.64 434.334 33.64C434.014 33.64 433.68 33.72 433.334 33.88C433.014 34.0133 432.707 34.2533 432.414 34.6C433.534 35.2933 434.374 36.2133 434.934 37.36C435.52 38.48 435.814 39.8 435.814 41.32C435.814 42.52 435.614 43.6133 435.214 44.6C434.84 45.5867 434.267 46.44 433.494 47.16C432.747 47.88 431.814 48.44 430.694 48.84C429.6 49.2133 428.334 49.4 426.894 49.4C424.84 49.48 422.947 48.9867 421.214 47.92L420.254 49.24C419.72 49.9333 419.56 50.4 419.774 50.64C420.014 50.8533 420.494 50.9733 421.214 51H430.654C431.667 51 432.534 51.16 433.254 51.48C434 51.7733 434.614 52.1867 435.094 52.72C435.574 53.2267 435.92 53.8133 436.134 54.48C436.374 55.1467 436.494 55.8533 436.494 56.6C436.494 57.56 436.267 58.3867 435.814 59.08C435.387 59.7733 434.8 60.3333 434.054 60.76C433.334 61.2133 432.48 61.5467 431.494 61.76C430.507 61.9733 429.467 62.08 428.374 62.08C426.534 62.08 424.667 61.8267 422.774 61.32C420.907 60.8133 419.294 60.0933 417.934 59.16L420.454 56.24C420.56 56.4533 420.8 56.84 421.174 57.4C421.574 57.96 422.107 58.5467 422.774 59.16C423.44 59.7733 424.254 60.3067 425.214 60.76C426.2 61.24 427.347 61.48 428.654 61.48C429.907 61.48 430.987 61.3467 431.894 61.08C432.8 60.8133 433.547 60.4667 434.134 60.04C434.72 59.6133 435.147 59.1333 435.414 58.6C435.707 58.0933 435.854 57.5733 435.854 57.04C435.854 56.2133 435.614 55.6133 435.134 55.24C434.654 54.8933 433.947 54.72 433.014 54.72H420.814C420.574 54.72 420.28 54.6933 419.934 54.64C419.587 54.6133 419.267 54.52 418.974 54.36C418.68 54.2 418.427 53.9467 418.214 53.6C418 53.28 417.894 52.84 417.894 52.28C417.894 51.96 417.92 51.68 417.974 51.44C418.027 51.2 418.12 50.96 418.254 50.72C418.387 50.48 418.574 50.2133 418.814 49.92C419.054 49.6 419.36 49.2133 419.734 48.76L420.694 47.56C418.854 46.0933 417.934 44.0133 417.934 41.32C417.934 38.8133 418.694 36.84 420.214 35.4C421.734 33.96 423.947 33.24 426.854 33.24C428.587 33.1867 430.254 33.5333 431.854 34.28C432.467 33.48 433.094 32.9333 433.734 32.64C434.4 32.32 435.04 32.16 435.654 32.16C436.267 32.16 436.8 32.2667 437.254 32.48C437.734 32.6933 438.12 32.9467 438.414 33.24L436.614 35.8ZM426.854 48.76C428.48 48.76 429.68 48.1067 430.454 46.8C431.254 45.4933 431.654 43.6667 431.654 41.32C431.654 38.9733 431.254 37.1467 430.454 35.84C429.68 34.5333 428.48 33.88 426.854 33.88C425.254 33.88 424.054 34.5333 423.254 35.84C422.48 37.1467 422.094 38.9733 422.094 41.32C422.094 43.6667 422.48 45.4933 423.254 46.8C424.054 48.1067 425.254 48.76 426.854 48.76ZM168.575 77.64V78.08C167.962 78.0267 167.402 78.1867 166.895 78.56C166.388 78.9067 166.042 79.3867 165.855 80L159.455 97.2H159.135L154.495 85.12L149.375 97.2H149.055L141.615 79.2C141.402 78.7467 141.188 78.4533 140.975 78.32C140.762 78.16 140.495 78.08 140.175 78.08V77.64H146.575V78.08C146.148 78.08 145.855 78.1867 145.695 78.4C145.562 78.5867 145.548 78.8267 145.655 79.12L150.895 92L154.175 84.28L152.255 79.24C151.935 78.4667 151.468 78.08 150.855 78.08V77.64H157.495V78.08C156.988 78.08 156.628 78.1733 156.415 78.36C156.202 78.5467 156.175 78.84 156.335 79.24L160.855 91.64L165.135 80C165.322 79.52 165.268 79.08 164.975 78.68C164.708 78.28 164.202 78.08 163.455 78.08V77.64H168.575ZM185.058 95.2C185.058 95.4133 185.098 95.6 185.178 95.76C185.258 95.92 185.365 96.0667 185.498 96.2C185.631 96.3067 185.831 96.36 186.098 96.36V96.76H182.138C181.925 96.76 181.738 96.68 181.578 96.52C181.418 96.36 181.338 96.1733 181.338 95.96V93.2C181.045 94 180.671 94.6533 180.218 95.16C179.791 95.6667 179.325 96.08 178.818 96.4C178.338 96.6933 177.831 96.8933 177.298 97C176.765 97.1333 176.258 97.2 175.778 97.2C175.698 97.2 175.471 97.2 175.098 97.2C174.725 97.2 174.271 97.1733 173.738 97.12C173.231 97.0667 172.685 96.96 172.098 96.8C171.511 96.6133 170.965 96.3467 170.458 96C169.978 95.6533 169.578 95.2 169.258 94.64C168.938 94.08 168.778 93.3733 168.778 92.52C168.778 91.6667 168.951 90.9333 169.298 90.32C169.671 89.68 170.205 89.0933 170.898 88.56C171.618 88 172.498 87.4667 173.538 86.96C174.605 86.4267 175.845 85.8533 177.258 85.24C178.698 84.6267 179.738 84.1067 180.378 83.68C181.018 83.2533 181.338 82.6667 181.338 81.92V81.52C181.338 81.0933 181.245 80.6667 181.058 80.24C180.898 79.7867 180.631 79.3867 180.258 79.04C179.911 78.6933 179.471 78.4133 178.938 78.2C178.431 77.9867 177.831 77.88 177.138 77.88C176.338 77.88 175.645 78.0267 175.058 78.32C174.471 78.5867 173.978 78.96 173.578 79.44C173.205 79.8933 172.925 80.4267 172.738 81.04C172.578 81.6533 172.498 82.2933 172.498 82.96L169.498 81.92C169.631 81.52 169.871 81.0533 170.218 80.52C170.591 79.9867 171.098 79.48 171.738 79C172.378 78.4933 173.178 78.08 174.138 77.76C175.125 77.4133 176.311 77.24 177.698 77.24C179.058 77.24 180.205 77.4267 181.138 77.8C182.071 78.1733 182.831 78.6667 183.418 79.28C184.005 79.8667 184.418 80.52 184.658 81.24C184.925 81.9333 185.058 82.6267 185.058 83.32V95.2ZM181.338 83.64C181.045 83.9333 180.605 84.24 180.018 84.56C179.458 84.8533 178.685 85.24 177.698 85.72C176.605 86.2533 175.725 86.8533 175.058 87.52C174.418 88.1867 173.925 88.8533 173.578 89.52C173.231 90.16 173.005 90.7733 172.898 91.36C172.791 91.92 172.738 92.3733 172.738 92.72C172.738 93.04 172.778 93.4267 172.858 93.88C172.938 94.3067 173.098 94.72 173.338 95.12C173.605 95.52 173.965 95.8667 174.418 96.16C174.871 96.4267 175.471 96.56 176.218 96.56C177.231 96.56 178.071 96.32 178.738 95.84C179.405 95.3333 179.925 94.76 180.298 94.12C180.671 93.4533 180.938 92.8133 181.098 92.2C181.258 91.56 181.338 91.1067 181.338 90.84V83.64ZM198.171 85.96C199.211 86.3067 200.104 86.6667 200.851 87.04C201.597 87.4133 202.211 87.84 202.691 88.32C203.171 88.7733 203.517 89.2933 203.731 89.88C203.944 90.4667 204.051 91.1467 204.051 91.92C204.051 92.8533 203.824 93.6533 203.371 94.32C202.944 94.9867 202.371 95.5333 201.651 95.96C200.931 96.3867 200.104 96.7067 199.171 96.92C198.264 97.1067 197.344 97.2 196.411 97.2C194.864 97.2533 193.384 96.9733 191.971 96.36C190.557 95.7467 189.331 94.8667 188.291 93.72L190.411 91.48C190.491 92.2267 190.704 92.92 191.051 93.56C191.397 94.1733 191.837 94.7067 192.371 95.16C192.904 95.6133 193.517 95.9733 194.211 96.24C194.904 96.48 195.624 96.5867 196.371 96.56C197.784 96.56 198.957 96.32 199.891 95.84C200.824 95.3333 201.291 94.4933 201.291 93.32C201.291 92.7333 201.117 92.2133 200.771 91.76C200.424 91.3067 199.971 90.9067 199.411 90.56C198.851 90.1867 198.197 89.8667 197.451 89.6C196.704 89.3067 195.931 89.0267 195.131 88.76C194.064 88.4133 193.131 88.0667 192.331 87.72C191.557 87.3733 190.904 86.9867 190.371 86.56C189.864 86.1067 189.477 85.5867 189.211 85C188.944 84.3867 188.811 83.6667 188.811 82.84C188.811 81.88 189.011 81.0533 189.411 80.36C189.811 79.64 190.344 79.0533 191.011 78.6C191.704 78.12 192.491 77.7733 193.371 77.56C194.277 77.3467 195.211 77.24 196.171 77.24C197.611 77.1867 198.984 77.44 200.291 78C201.624 78.5333 202.771 79.3333 203.731 80.4L201.811 82.44C201.811 82.2267 201.744 81.88 201.611 81.4C201.504 80.8933 201.251 80.3867 200.851 79.88C200.477 79.3467 199.917 78.88 199.171 78.48C198.424 78.08 197.411 77.88 196.131 77.88C195.651 77.88 195.131 77.9333 194.571 78.04C194.037 78.1467 193.531 78.32 193.051 78.56C192.597 78.8 192.211 79.1333 191.891 79.56C191.597 79.96 191.451 80.4667 191.451 81.08C191.451 81.8267 191.677 82.4667 192.131 83C192.611 83.5067 193.184 83.9467 193.851 84.32C194.544 84.6933 195.277 85.0133 196.051 85.28C196.824 85.52 197.531 85.7467 198.171 85.96ZM226.162 77.24C227.816 77.24 229.229 77.5067 230.402 78.04C231.602 78.5467 232.576 79.2533 233.322 80.16C234.096 81.0667 234.656 82.1333 235.002 83.36C235.349 84.56 235.522 85.84 235.522 87.2C235.522 88.5867 235.349 89.8933 235.002 91.12C234.656 92.32 234.096 93.3733 233.322 94.28C232.576 95.1867 231.616 95.9067 230.442 96.44C229.269 96.9467 227.842 97.2 226.162 97.2C224.509 97.2 223.082 96.9467 221.882 96.44C220.709 95.9067 219.749 95.1867 219.002 94.28C218.256 93.3733 217.709 92.32 217.362 91.12C217.016 89.8933 216.842 88.5867 216.842 87.2C216.842 85.84 217.016 84.56 217.362 83.36C217.709 82.1333 218.256 81.0667 219.002 80.16C219.749 79.2533 220.709 78.5467 221.882 78.04C223.082 77.5067 224.509 77.24 226.162 77.24ZM226.162 96.56C227.096 96.56 227.896 96.32 228.562 95.84C229.256 95.3333 229.816 94.6667 230.242 93.84C230.696 92.9867 231.029 91.9867 231.242 90.84C231.456 89.6933 231.562 88.48 231.562 87.2C231.562 85.92 231.456 84.72 231.242 83.6C231.029 82.4533 230.696 81.4667 230.242 80.64C229.816 79.7867 229.256 79.12 228.562 78.64C227.896 78.1333 227.096 77.88 226.162 77.88C225.256 77.88 224.456 78.1333 223.762 78.64C223.096 79.12 222.536 79.7867 222.082 80.64C221.656 81.4667 221.336 82.4533 221.122 83.6C220.909 84.72 220.802 85.92 220.802 87.2C220.802 88.48 220.909 89.6933 221.122 90.84C221.336 91.9867 221.656 92.9867 222.082 93.84C222.536 94.6667 223.096 95.3333 223.762 95.84C224.456 96.32 225.256 96.56 226.162 96.56ZM255.461 95.2C255.461 95.4133 255.501 95.6 255.581 95.76C255.661 95.92 255.767 96.0667 255.901 96.2C256.034 96.3067 256.234 96.36 256.501 96.36V96.76H250.741V96.36C251.007 96.36 251.207 96.3067 251.341 96.2C251.474 96.0667 251.567 95.92 251.621 95.76C251.701 95.6 251.741 95.4133 251.741 95.2V81.52C251.741 81.0933 251.647 80.6667 251.461 80.24C251.301 79.8133 251.047 79.4267 250.701 79.08C250.381 78.7333 249.981 78.4533 249.501 78.24C249.021 78.0267 248.461 77.92 247.821 77.92C246.994 77.92 246.247 78.0933 245.581 78.44C244.941 78.7867 244.381 79.2133 243.901 79.72C243.447 80.2 243.101 80.72 242.861 81.28C242.621 81.84 242.501 82.3333 242.501 82.76V95.2C242.501 95.4133 242.541 95.6 242.621 95.76C242.674 95.92 242.767 96.0667 242.901 96.2C243.061 96.3067 243.261 96.36 243.501 96.36V96.76H237.741V96.36C238.007 96.36 238.207 96.3067 238.341 96.2C238.501 96.0667 238.607 95.92 238.661 95.76C238.741 95.6 238.781 95.4133 238.781 95.2V79.2C238.781 78.9867 238.741 78.8 238.661 78.64C238.607 78.5067 238.501 78.3867 238.341 78.28C238.207 78.1467 238.007 78.08 237.741 78.08V77.64H241.701C241.914 77.64 242.101 77.72 242.261 77.88C242.421 78.04 242.501 78.2267 242.501 78.44V80.64C243.061 79.52 243.861 78.6667 244.901 78.08C245.967 77.4667 247.127 77.1867 248.381 77.24C249.287 77.24 250.167 77.3733 251.021 77.64C251.874 77.9067 252.621 78.3067 253.261 78.84C253.927 79.3467 254.461 79.9867 254.861 80.76C255.261 81.5067 255.461 82.3867 255.461 83.4V95.2ZM276.559 92.08C276.212 93.04 275.679 93.8933 274.959 94.64C274.345 95.28 273.479 95.8667 272.359 96.4C271.265 96.9333 269.839 97.2 268.079 97.2C266.425 97.2 264.999 96.9467 263.799 96.44C262.625 95.9067 261.665 95.1867 260.919 94.28C260.172 93.3733 259.625 92.32 259.279 91.12C258.932 89.8933 258.759 88.5867 258.759 87.2C258.759 85.84 258.932 84.56 259.279 83.36C259.625 82.1333 260.172 81.0667 260.919 80.16C261.665 79.2533 262.625 78.5467 263.799 78.04C264.999 77.5067 266.425 77.24 268.079 77.24C269.199 77.24 270.185 77.36 271.039 77.6C271.919 77.8133 272.679 78.12 273.319 78.52C273.985 78.92 274.545 79.3867 274.999 79.92C275.479 80.4267 275.879 80.9733 276.199 81.56L273.719 83.36C273.479 82.5867 273.225 81.8667 272.959 81.2C272.692 80.5333 272.359 79.96 271.959 79.48C271.559 78.9733 271.065 78.5867 270.479 78.32C269.919 78.0267 269.225 77.88 268.399 77.88C267.412 77.88 266.559 78.1333 265.839 78.64C265.119 79.12 264.532 79.7867 264.079 80.64C263.625 81.4667 263.279 82.4533 263.039 83.6C262.825 84.72 262.719 85.92 262.719 87.2C262.719 88.48 262.852 89.7067 263.119 90.88C263.412 92.0267 263.839 93.0267 264.399 93.88C264.985 94.7333 265.732 95.3867 266.639 95.84C267.545 96.2933 268.639 96.4667 269.919 96.36C271.279 96.2533 272.492 95.8133 273.559 95.04C274.652 94.24 275.439 93.2133 275.919 91.96L276.559 92.08ZM289.508 96.36C290.868 96.2533 292.082 95.8133 293.148 95.04C294.242 94.24 295.028 93.2133 295.508 91.96L296.148 92.12C295.802 93.08 295.268 93.92 294.548 94.64C293.935 95.28 293.068 95.8667 291.948 96.4C290.855 96.9333 289.428 97.2 287.668 97.2C286.015 97.2 284.588 96.9467 283.388 96.44C282.215 95.9067 281.255 95.1867 280.508 94.28C279.762 93.3733 279.215 92.32 278.868 91.12C278.522 89.8933 278.348 88.5867 278.348 87.2C278.348 85.84 278.522 84.56 278.868 83.36C279.215 82.1333 279.762 81.0667 280.508 80.16C281.255 79.2533 282.215 78.5467 283.388 78.04C284.588 77.5067 286.015 77.24 287.668 77.24C289.748 77.24 291.402 77.6133 292.628 78.36C293.882 79.08 294.828 79.9467 295.468 80.96C296.108 81.9733 296.522 83.0267 296.708 84.12C296.922 85.2133 297.028 86.1067 297.028 86.8H282.308V87.2C282.308 88.48 282.442 89.7067 282.708 90.88C283.002 92.0267 283.428 93.0267 283.988 93.88C284.575 94.7333 285.322 95.3867 286.228 95.84C287.135 96.2933 288.228 96.4667 289.508 96.36ZM287.668 77.88C286.842 77.88 286.108 78.0933 285.468 78.52C284.828 78.9467 284.282 79.5333 283.828 80.28C283.375 81.0267 283.015 81.9067 282.748 82.92C282.508 83.9067 282.362 84.9867 282.308 86.16H293.028V86.12C292.842 83.2933 292.282 81.2133 291.348 79.88C290.415 78.5467 289.188 77.88 287.668 77.88ZM326.314 95.2C326.314 95.4133 326.354 95.6 326.434 95.76C326.514 95.92 326.621 96.0667 326.754 96.2C326.888 96.3067 327.088 96.36 327.354 96.36V96.76H323.394C323.181 96.76 322.994 96.68 322.834 96.52C322.674 96.36 322.594 96.1733 322.594 95.96V93.2C322.301 94 321.928 94.6533 321.474 95.16C321.048 95.6667 320.581 96.08 320.074 96.4C319.594 96.6933 319.088 96.8933 318.554 97C318.021 97.1333 317.514 97.2 317.034 97.2C316.954 97.2 316.728 97.2 316.354 97.2C315.981 97.2 315.528 97.1733 314.994 97.12C314.488 97.0667 313.941 96.96 313.354 96.8C312.768 96.6133 312.221 96.3467 311.714 96C311.234 95.6533 310.834 95.2 310.514 94.64C310.194 94.08 310.034 93.3733 310.034 92.52C310.034 91.6667 310.208 90.9333 310.554 90.32C310.928 89.68 311.461 89.0933 312.154 88.56C312.874 88 313.754 87.4667 314.794 86.96C315.861 86.4267 317.101 85.8533 318.514 85.24C319.954 84.6267 320.994 84.1067 321.634 83.68C322.274 83.2533 322.594 82.6667 322.594 81.92V81.52C322.594 81.0933 322.501 80.6667 322.314 80.24C322.154 79.7867 321.888 79.3867 321.514 79.04C321.168 78.6933 320.728 78.4133 320.194 78.2C319.688 77.9867 319.088 77.88 318.394 77.88C317.594 77.88 316.901 78.0267 316.314 78.32C315.728 78.5867 315.234 78.96 314.834 79.44C314.461 79.8933 314.181 80.4267 313.994 81.04C313.834 81.6533 313.754 82.2933 313.754 82.96L310.754 81.92C310.888 81.52 311.128 81.0533 311.474 80.52C311.848 79.9867 312.354 79.48 312.994 79C313.634 78.4933 314.434 78.08 315.394 77.76C316.381 77.4133 317.568 77.24 318.954 77.24C320.314 77.24 321.461 77.4267 322.394 77.8C323.328 78.1733 324.088 78.6667 324.674 79.28C325.261 79.8667 325.674 80.52 325.914 81.24C326.181 81.9333 326.314 82.6267 326.314 83.32V95.2ZM322.594 83.64C322.301 83.9333 321.861 84.24 321.274 84.56C320.714 84.8533 319.941 85.24 318.954 85.72C317.861 86.2533 316.981 86.8533 316.314 87.52C315.674 88.1867 315.181 88.8533 314.834 89.52C314.488 90.16 314.261 90.7733 314.154 91.36C314.048 91.92 313.994 92.3733 313.994 92.72C313.994 93.04 314.034 93.4267 314.114 93.88C314.194 94.3067 314.354 94.72 314.594 95.12C314.861 95.52 315.221 95.8667 315.674 96.16C316.128 96.4267 316.728 96.56 317.474 96.56C318.488 96.56 319.328 96.32 319.994 95.84C320.661 95.3333 321.181 94.76 321.554 94.12C321.928 93.4533 322.194 92.8133 322.354 92.2C322.514 91.56 322.594 91.1067 322.594 90.84V83.64ZM352.144 77.24C353.344 77.24 354.437 77.5067 355.424 78.04C356.41 78.5467 357.264 79.2533 357.984 80.16C358.704 81.0667 359.25 82.1333 359.624 83.36C360.024 84.56 360.224 85.84 360.224 87.2C360.224 88.5867 360.037 89.8933 359.664 91.12C359.317 92.32 358.784 93.3733 358.064 94.28C357.344 95.1867 356.45 95.9067 355.384 96.44C354.344 96.9467 353.13 97.2 351.744 97.2C350.89 97.2 350.13 97.08 349.464 96.84C348.824 96.6 348.277 96.28 347.824 95.88C347.37 95.48 346.984 95.0133 346.664 94.48C346.37 93.9467 346.13 93.4 345.944 92.84V95.96C345.944 96.1733 345.864 96.36 345.704 96.52C345.544 96.68 345.357 96.76 345.144 96.76H341.184V96.36C341.45 96.36 341.65 96.3067 341.784 96.2C341.944 96.0667 342.05 95.92 342.104 95.76C342.184 95.6 342.224 95.4133 342.224 95.2V70.28C342.224 70.0667 342.184 69.88 342.104 69.72C342.05 69.5867 341.944 69.4667 341.784 69.36C341.65 69.2267 341.45 69.16 341.184 69.16V68.72H345.144C345.357 68.72 345.544 68.8 345.704 68.96C345.864 69.12 345.944 69.3067 345.944 69.52V81.56C346.13 81 346.384 80.4667 346.704 79.96C347.024 79.4267 347.424 78.96 347.904 78.56C348.41 78.16 349.01 77.84 349.704 77.6C350.397 77.36 351.21 77.24 352.144 77.24ZM351.104 96.36C351.957 96.36 352.704 96.1333 353.344 95.68C353.984 95.2 354.517 94.5467 354.944 93.72C355.397 92.8933 355.73 91.92 355.944 90.8C356.184 89.68 356.304 88.48 356.304 87.2C356.304 85.92 356.197 84.72 355.984 83.6C355.797 82.48 355.477 81.5067 355.024 80.68C354.597 79.8533 354.05 79.2133 353.384 78.76C352.744 78.28 351.957 78.04 351.024 78.04C349.424 78.04 348.17 78.7067 347.264 80.04C346.384 81.3467 345.944 83.2533 345.944 85.76V88.84C345.944 89.6933 346.037 90.5733 346.224 91.48C346.437 92.36 346.744 93.16 347.144 93.88C347.57 94.6 348.104 95.2 348.744 95.68C349.41 96.1333 350.197 96.36 351.104 96.36ZM373.399 96.36C374.759 96.2533 375.972 95.8133 377.039 95.04C378.132 94.24 378.919 93.2133 379.399 91.96L380.039 92.12C379.692 93.08 379.159 93.92 378.439 94.64C377.826 95.28 376.959 95.8667 375.839 96.4C374.746 96.9333 373.319 97.2 371.559 97.2C369.906 97.2 368.479 96.9467 367.279 96.44C366.106 95.9067 365.146 95.1867 364.399 94.28C363.652 93.3733 363.106 92.32 362.759 91.12C362.412 89.8933 362.239 88.5867 362.239 87.2C362.239 85.84 362.412 84.56 362.759 83.36C363.106 82.1333 363.652 81.0667 364.399 80.16C365.146 79.2533 366.106 78.5467 367.279 78.04C368.479 77.5067 369.906 77.24 371.559 77.24C373.639 77.24 375.292 77.6133 376.519 78.36C377.772 79.08 378.719 79.9467 379.359 80.96C379.999 81.9733 380.412 83.0267 380.599 84.12C380.812 85.2133 380.919 86.1067 380.919 86.8H366.199V87.2C366.199 88.48 366.332 89.7067 366.599 90.88C366.892 92.0267 367.319 93.0267 367.879 93.88C368.466 94.7333 369.212 95.3867 370.119 95.84C371.026 96.2933 372.119 96.4667 373.399 96.36ZM371.559 77.88C370.732 77.88 369.999 78.0933 369.359 78.52C368.719 78.9467 368.172 79.5333 367.719 80.28C367.266 81.0267 366.906 81.9067 366.639 82.92C366.399 83.9067 366.252 84.9867 366.199 86.16H376.919V86.12C376.732 83.2933 376.172 81.2133 375.239 79.88C374.306 78.5467 373.079 77.88 371.559 77.88ZM401.848 79.8C401.848 79.2667 401.621 78.7733 401.168 78.32C400.715 77.8667 400.181 77.64 399.568 77.64C399.248 77.64 398.915 77.72 398.568 77.88C398.248 78.0133 397.941 78.2533 397.648 78.6C398.768 79.2933 399.608 80.2133 400.168 81.36C400.755 82.48 401.048 83.8 401.048 85.32C401.048 86.52 400.848 87.6133 400.448 88.6C400.075 89.5867 399.501 90.44 398.728 91.16C397.981 91.88 397.048 92.44 395.928 92.84C394.835 93.2133 393.568 93.4 392.128 93.4C390.075 93.48 388.181 92.9867 386.448 91.92L385.488 93.24C384.955 93.9333 384.795 94.4 385.008 94.64C385.248 94.8533 385.728 94.9733 386.448 95H395.888C396.901 95 397.768 95.16 398.488 95.48C399.235 95.7733 399.848 96.1867 400.328 96.72C400.808 97.2267 401.155 97.8133 401.368 98.48C401.608 99.1467 401.728 99.8533 401.728 100.6C401.728 101.56 401.501 102.387 401.048 103.08C400.621 103.773 400.035 104.333 399.288 104.76C398.568 105.213 397.715 105.547 396.728 105.76C395.741 105.973 394.701 106.08 393.608 106.08C391.768 106.08 389.901 105.827 388.008 105.32C386.141 104.813 384.528 104.093 383.168 103.16L385.688 100.24C385.795 100.453 386.035 100.84 386.408 101.4C386.808 101.96 387.341 102.547 388.008 103.16C388.675 103.773 389.488 104.307 390.448 104.76C391.435 105.24 392.581 105.48 393.888 105.48C395.141 105.48 396.221 105.347 397.128 105.08C398.035 104.813 398.781 104.467 399.368 104.04C399.955 103.613 400.381 103.133 400.648 102.6C400.941 102.093 401.088 101.573 401.088 101.04C401.088 100.213 400.848 99.6133 400.368 99.24C399.888 98.8933 399.181 98.72 398.248 98.72H386.048C385.808 98.72 385.515 98.6933 385.168 98.64C384.821 98.6133 384.501 98.52 384.208 98.36C383.915 98.2 383.661 97.9467 383.448 97.6C383.235 97.28 383.128 96.84 383.128 96.28C383.128 95.96 383.155 95.68 383.208 95.44C383.261 95.2 383.355 94.96 383.488 94.72C383.621 94.48 383.808 94.2133 384.048 93.92C384.288 93.6 384.595 93.2133 384.968 92.76L385.928 91.56C384.088 90.0933 383.168 88.0133 383.168 85.32C383.168 82.8133 383.928 80.84 385.448 79.4C386.968 77.96 389.181 77.24 392.088 77.24C393.821 77.1867 395.488 77.5333 397.088 78.28C397.701 77.48 398.328 76.9333 398.968 76.64C399.635 76.32 400.275 76.16 400.888 76.16C401.501 76.16 402.035 76.2667 402.488 76.48C402.968 76.6933 403.355 76.9467 403.648 77.24L401.848 79.8ZM392.088 92.76C393.715 92.76 394.915 92.1067 395.688 90.8C396.488 89.4933 396.888 87.6667 396.888 85.32C396.888 82.9733 396.488 81.1467 395.688 79.84C394.915 78.5333 393.715 77.88 392.088 77.88C390.488 77.88 389.288 78.5333 388.488 79.84C387.715 81.1467 387.328 82.9733 387.328 85.32C387.328 87.6667 387.715 89.4933 388.488 90.8C389.288 92.1067 390.488 92.76 392.088 92.76ZM407.753 75C407.059 75 406.459 74.76 405.953 74.28C405.473 73.7733 405.233 73.1733 405.233 72.48C405.233 71.7867 405.473 71.2 405.953 70.72C406.459 70.2133 407.059 69.96 407.753 69.96C408.473 69.96 409.073 70.2 409.553 70.68C409.926 71.0533 410.166 71.4933 410.273 72C410.379 72.48 410.326 72.96 410.113 73.44C409.899 73.92 409.579 74.3067 409.153 74.6C408.753 74.8667 408.286 75 407.753 75ZM409.793 95.2C409.793 95.4133 409.833 95.6 409.913 95.76C409.966 95.92 410.059 96.0667 410.193 96.2C410.353 96.3067 410.553 96.36 410.793 96.36V96.76H405.033V96.36C405.299 96.36 405.499 96.3067 405.633 96.2C405.793 96.0667 405.899 95.92 405.953 95.76C406.033 95.6 406.073 95.4133 406.073 95.2V79.2C406.073 78.9867 406.033 78.8 405.953 78.64C405.899 78.5067 405.793 78.3867 405.633 78.28C405.499 78.1467 405.299 78.08 405.033 78.08V77.64H408.993C409.206 77.64 409.393 77.72 409.553 77.88C409.713 78.04 409.793 78.2267 409.793 78.44V95.2ZM431.562 95.2C431.562 95.4133 431.602 95.6 431.682 95.76C431.762 95.92 431.869 96.0667 432.002 96.2C432.136 96.3067 432.336 96.36 432.602 96.36V96.76H426.842V96.36C427.109 96.36 427.309 96.3067 427.442 96.2C427.576 96.0667 427.669 95.92 427.722 95.76C427.802 95.6 427.842 95.4133 427.842 95.2V81.52C427.842 81.0933 427.749 80.6667 427.562 80.24C427.402 79.8133 427.149 79.4267 426.802 79.08C426.482 78.7333 426.082 78.4533 425.602 78.24C425.122 78.0267 424.562 77.92 423.922 77.92C423.096 77.92 422.349 78.0933 421.682 78.44C421.042 78.7867 420.482 79.2133 420.002 79.72C419.549 80.2 419.202 80.72 418.962 81.28C418.722 81.84 418.602 82.3333 418.602 82.76V95.2C418.602 95.4133 418.642 95.6 418.722 95.76C418.776 95.92 418.869 96.0667 419.002 96.2C419.162 96.3067 419.362 96.36 419.602 96.36V96.76H413.842V96.36C414.109 96.36 414.309 96.3067 414.442 96.2C414.602 96.0667 414.709 95.92 414.762 95.76C414.842 95.6 414.882 95.4133 414.882 95.2V79.2C414.882 78.9867 414.842 78.8 414.762 78.64C414.709 78.5067 414.602 78.3867 414.442 78.28C414.309 78.1467 414.109 78.08 413.842 78.08V77.64H417.802C418.016 77.64 418.202 77.72 418.362 77.88C418.522 78.04 418.602 78.2267 418.602 78.44V80.64C419.162 79.52 419.962 78.6667 421.002 78.08C422.069 77.4667 423.229 77.1867 424.482 77.24C425.389 77.24 426.269 77.3733 427.122 77.64C427.976 77.9067 428.722 78.3067 429.362 78.84C430.029 79.3467 430.562 79.9867 430.962 80.76C431.362 81.5067 431.562 82.3867 431.562 83.4V95.2ZM453.34 95.2C453.34 95.4133 453.38 95.6 453.46 95.76C453.54 95.92 453.647 96.0667 453.78 96.2C453.914 96.3067 454.114 96.36 454.38 96.36V96.76H448.62V96.36C448.887 96.36 449.087 96.3067 449.22 96.2C449.354 96.0667 449.447 95.92 449.5 95.76C449.58 95.6 449.62 95.4133 449.62 95.2V81.52C449.62 81.0933 449.527 80.6667 449.34 80.24C449.18 79.8133 448.927 79.4267 448.58 79.08C448.26 78.7333 447.86 78.4533 447.38 78.24C446.9 78.0267 446.34 77.92 445.7 77.92C444.874 77.92 444.127 78.0933 443.46 78.44C442.82 78.7867 442.26 79.2133 441.78 79.72C441.327 80.2 440.98 80.72 440.74 81.28C440.5 81.84 440.38 82.3333 440.38 82.76V95.2C440.38 95.4133 440.42 95.6 440.5 95.76C440.554 95.92 440.647 96.0667 440.78 96.2C440.94 96.3067 441.14 96.36 441.38 96.36V96.76H435.62V96.36C435.887 96.36 436.087 96.3067 436.22 96.2C436.38 96.0667 436.487 95.92 436.54 95.76C436.62 95.6 436.66 95.4133 436.66 95.2V79.2C436.66 78.9867 436.62 78.8 436.54 78.64C436.487 78.5067 436.38 78.3867 436.22 78.28C436.087 78.1467 435.887 78.08 435.62 78.08V77.64H439.58C439.794 77.64 439.98 77.72 440.14 77.88C440.3 78.04 440.38 78.2267 440.38 78.44V80.64C440.94 79.52 441.74 78.6667 442.78 78.08C443.847 77.4667 445.007 77.1867 446.26 77.24C447.167 77.24 448.047 77.3733 448.9 77.64C449.754 77.9067 450.5 78.3067 451.14 78.84C451.807 79.3467 452.34 79.9867 452.74 80.76C453.14 81.5067 453.34 82.3867 453.34 83.4V95.2ZM467.758 96.36C469.118 96.2533 470.332 95.8133 471.398 95.04C472.492 94.24 473.278 93.2133 473.758 91.96L474.398 92.12C474.052 93.08 473.518 93.92 472.798 94.64C472.185 95.28 471.318 95.8667 470.198 96.4C469.105 96.9333 467.678 97.2 465.918 97.2C464.265 97.2 462.838 96.9467 461.638 96.44C460.465 95.9067 459.505 95.1867 458.758 94.28C458.012 93.3733 457.465 92.32 457.118 91.12C456.772 89.8933 456.598 88.5867 456.598 87.2C456.598 85.84 456.772 84.56 457.118 83.36C457.465 82.1333 458.012 81.0667 458.758 80.16C459.505 79.2533 460.465 78.5467 461.638 78.04C462.838 77.5067 464.265 77.24 465.918 77.24C467.998 77.24 469.652 77.6133 470.878 78.36C472.132 79.08 473.078 79.9467 473.718 80.96C474.358 81.9733 474.772 83.0267 474.958 84.12C475.172 85.2133 475.278 86.1067 475.278 86.8H460.558V87.2C460.558 88.48 460.692 89.7067 460.958 90.88C461.252 92.0267 461.678 93.0267 462.238 93.88C462.825 94.7333 463.572 95.3867 464.478 95.84C465.385 96.2933 466.478 96.4667 467.758 96.36ZM465.918 77.88C465.092 77.88 464.358 78.0933 463.718 78.52C463.078 78.9467 462.532 79.5333 462.078 80.28C461.625 81.0267 461.265 81.9067 460.998 82.92C460.758 83.9067 460.612 84.9867 460.558 86.16H471.278V86.12C471.092 83.2933 470.532 81.2133 469.598 79.88C468.665 78.5467 467.438 77.88 465.918 77.88ZM482.648 81.2C483.048 79.84 483.768 78.84 484.808 78.2C485.874 77.5333 487.088 77.2 488.448 77.2C489.008 77.2 489.514 77.24 489.968 77.32C490.448 77.4 490.874 77.5067 491.248 77.64C491.674 77.7733 492.061 77.92 492.408 78.08L490.488 81.48C490.274 80.6533 489.834 80 489.168 79.52C488.501 79.0133 487.741 78.7867 486.888 78.84C485.928 78.84 485.168 79.1067 484.608 79.64C484.048 80.1467 483.621 80.7067 483.328 81.32C482.981 82.0667 482.754 82.9067 482.648 83.84V95.2C482.648 95.4133 482.688 95.6 482.768 95.76C482.821 95.92 482.914 96.0667 483.048 96.2C483.208 96.3067 483.408 96.36 483.648 96.36V96.76H477.888V96.36C478.154 96.36 478.354 96.3067 478.488 96.2C478.648 96.0667 478.754 95.92 478.808 95.76C478.888 95.6 478.928 95.4133 478.928 95.2V79.2C478.928 78.9867 478.888 78.8 478.808 78.64C478.754 78.5067 478.648 78.3867 478.488 78.28C478.354 78.1467 478.154 78.08 477.888 78.08V77.64H481.848C482.061 77.64 482.248 77.72 482.408 77.88C482.568 78.04 482.648 78.2267 482.648 78.44V81.2ZM496.162 92.52C496.802 92.5467 497.348 92.7867 497.802 93.24C498.255 93.6933 498.482 94.24 498.482 94.88C498.482 95.52 498.255 96.0667 497.802 96.52C497.375 96.9733 496.842 97.2 496.202 97.2C495.535 97.2 494.975 96.9733 494.522 96.52C494.175 96.1733 493.948 95.7733 493.842 95.32C493.762 94.8667 493.815 94.4133 494.002 93.96C494.215 93.5333 494.508 93.1867 494.882 92.92C495.282 92.6533 495.708 92.52 496.162 92.52Z" fill="#F9DDFF"/>
<path opacity="0.6" d="M156.56 119.184V133.92H155.488V125.136H153.168C153.04 127.776 151.504 129.392 149.28 129.392C146.944 129.392 145.376 127.6 145.376 124.736C145.376 121.872 146.944 120.08 149.28 120.08C151.488 120.08 153.008 121.68 153.168 124.272H155.488V119.184H156.56ZM152.112 124.736C152.112 122.384 150.896 120.944 149.28 120.944C147.664 120.944 146.448 122.384 146.448 124.736C146.448 127.088 147.664 128.528 149.28 128.528C150.896 128.528 152.112 127.088 152.112 124.736ZM164.515 127.088C164.435 127.088 164.355 127.072 164.243 126.976C164.147 126.912 164.003 126.768 163.923 126.672C162.963 127.008 161.891 127.184 160.979 127.184H160.419C160.339 127.184 160.259 127.168 160.147 127.072C160.051 126.992 159.891 126.832 159.811 126.736C159.747 126.656 159.715 126.56 159.715 126.48V119.984H163.011V120.848H160.787V126.144C160.787 126.272 160.851 126.32 160.963 126.32H161.123C161.971 126.32 162.931 126.16 163.811 125.856V119.984H167.651V120.848H164.867V126.048C164.867 126.176 164.931 126.224 165.043 126.224H165.875C166.675 126.224 167.395 126.16 168.147 126.032L168.275 126.848C167.587 126.976 166.531 127.088 165.731 127.088H164.515ZM166.963 123.744V122.88H169.891V119.184H170.963V129.744H169.891V123.744H166.963ZM171.443 133.984H162.643C162.563 133.984 162.483 133.968 162.371 133.872C162.275 133.792 162.115 133.632 162.035 133.536C161.971 133.456 161.939 133.36 161.939 133.28V129.104H163.043V132.944C163.043 133.072 163.107 133.12 163.219 133.12H171.443V133.984ZM188.674 125.488H180.594C180.514 125.488 180.434 125.472 180.322 125.376C180.226 125.296 180.066 125.136 179.986 125.04C179.922 124.96 179.89 124.864 179.89 124.784V119.648H180.962V121.664H187.602V119.648H188.674V125.488ZM183.794 131.312V128.064H177.442V127.2H190.994V128.064H184.866V131.312H183.794ZM180.962 122.528V124.448C180.962 124.576 181.026 124.624 181.138 124.624H187.602V122.528H180.962ZM189.154 133.984H180.45C180.37 133.984 180.29 133.968 180.178 133.872C180.082 133.792 179.922 133.632 179.842 133.536C179.778 133.456 179.746 133.36 179.746 133.28V129.888H180.85V132.944C180.85 133.072 180.914 133.12 181.026 133.12H189.154V133.984ZM200.052 124.736C200.052 127.6 198.5 129.392 196.164 129.392C193.828 129.392 192.276 127.6 192.276 124.736C192.276 121.872 193.828 120.08 196.164 120.08C198.5 120.08 200.052 121.872 200.052 124.736ZM198.98 124.736C198.98 122.384 197.78 120.944 196.164 120.944C194.548 120.944 193.348 122.384 193.348 124.736C193.348 127.088 194.548 128.528 196.164 128.528C197.78 128.528 198.98 127.088 198.98 124.736ZM203.188 119.184V121.92H205.684V122.784H203.188V126.848H205.684V127.712H203.188V133.92H202.116V119.184H203.188ZM217.591 133.984H208.983C208.903 133.984 208.823 133.968 208.711 133.872C208.615 133.792 208.455 133.632 208.375 133.536C208.311 133.456 208.279 133.36 208.279 133.28V129.552H209.383V132.944C209.383 133.072 209.447 133.12 209.559 133.12H217.591V133.984ZM205.927 127.04H219.479V127.904H205.927V127.04ZM217.271 125.136H209.095C209.015 125.136 208.935 125.12 208.823 125.024C208.727 124.944 208.567 124.784 208.487 124.688C208.423 124.608 208.391 124.512 208.391 124.432V119.76H217.191V120.624H209.463V124.096C209.463 124.224 209.527 124.272 209.639 124.272H217.271V125.136ZM225.638 120.88V120.016H233.11V120.88H230.006V123.28C230.006 123.6 230.054 123.856 230.31 124.112C231.158 124.96 232.406 125.952 233.75 126.88L233.126 127.712C231.846 126.816 230.406 125.632 229.462 124.704C228.438 125.776 226.95 127.008 225.59 127.952L224.934 127.152C226.326 126.176 227.734 125.008 228.598 124.112C228.838 123.872 228.902 123.6 228.902 123.28V120.88H225.638ZM232.518 123.712V122.848H235.654V119.184H236.726V129.776H235.654V123.712H232.518ZM237.206 133.984H228.726C228.646 133.984 228.566 133.968 228.454 133.872C228.358 133.792 228.198 133.632 228.118 133.536C228.054 133.456 228.022 133.36 228.022 133.28V129.136H229.126V132.944C229.126 133.072 229.19 133.12 229.302 133.12H237.206V133.984ZM241.353 124.592V119.728H250.105V125.296H242.057C241.977 125.296 241.897 125.28 241.785 125.184C241.689 125.104 241.529 124.944 241.449 124.848C241.385 124.768 241.353 124.672 241.353 124.592ZM242.425 120.592V124.256C242.425 124.384 242.489 124.432 242.601 124.432H249.033V120.592H242.425ZM245.241 131.312V127.824H238.889V126.96H252.441V127.824H246.313V131.312H245.241ZM250.601 133.984H241.897C241.817 133.984 241.737 133.968 241.625 133.872C241.529 133.792 241.369 133.632 241.289 133.536C241.225 133.456 241.193 133.36 241.193 133.28V129.712H242.297V132.944C242.297 133.072 242.361 133.12 242.473 133.12H250.601V133.984ZM264.491 125.488V133.92H263.419V119.184H264.491V124.624H267.131V125.488H264.491ZM254.811 130.176L254.107 129.376C255.643 128.192 257.483 126.528 258.603 125.296C259.147 124.704 259.387 124.16 259.387 123.312V121.168H254.027V120.304H260.475L260.459 123.312C260.459 124.448 260.107 125.184 259.451 125.92C258.267 127.232 256.395 128.944 254.811 130.176ZM278.814 127.12H274.718V130.576H280.926V131.44H267.374V130.576H273.646V127.12H270.382C270.302 127.12 270.222 127.104 270.11 127.008C270.014 126.928 269.854 126.768 269.774 126.672C269.71 126.592 269.678 126.496 269.678 126.416V120.336H278.734V121.2H270.75V126.08C270.75 126.208 270.814 126.256 270.926 126.256H278.814V127.12ZM286.845 122.8V121.936H294.765V122.8H291.453V125.392C291.453 125.888 291.517 126.128 291.853 126.512C292.605 127.36 293.949 128.56 295.245 129.536L294.589 130.32C293.277 129.28 291.917 128.08 290.909 126.976C289.885 128.08 288.413 129.488 287.101 130.512L286.413 129.744C287.725 128.736 289.133 127.424 289.949 126.512C290.285 126.144 290.349 125.888 290.349 125.392V122.8H286.845ZM293.965 125.632V124.768H297.101V119.184H298.173V133.92H297.101V125.632H293.965ZM293.101 120.544H290.541C289.869 120.544 288.989 120.416 288.365 120.192L288.573 119.36C289.229 119.552 290.045 119.664 290.637 119.664H293.101V120.544ZM300.336 126.384H313.888V127.248H300.336V126.384ZM302.736 133.36V128.944H311.552V134.064H303.44C303.36 134.064 303.28 134.048 303.168 133.952C303.072 133.872 302.912 133.712 302.832 133.616C302.768 133.536 302.736 133.44 302.736 133.36ZM303.808 129.808V133.024C303.808 133.152 303.872 133.2 303.984 133.2H310.48V129.808H303.808ZM310.528 122.256C310.528 121.088 309.44 120.16 307.136 120.16C304.832 120.16 303.744 121.088 303.744 122.256C303.744 123.424 304.832 124.352 307.136 124.352C309.44 124.352 310.528 123.424 310.528 122.256ZM311.6 122.256C311.6 123.92 310.112 125.216 307.136 125.216C304.16 125.216 302.672 123.92 302.672 122.256C302.672 120.592 304.16 119.296 307.136 119.296C310.112 119.296 311.6 120.592 311.6 122.256ZM318.514 127.344C316.466 127.344 315.202 125.808 315.202 123.472C315.202 121.136 316.466 119.6 318.514 119.6C320.402 119.6 321.634 120.928 321.794 122.976H323.49V119.264H324.53V129.616H323.49V123.84H321.81C321.682 125.968 320.45 127.344 318.514 127.344ZM318.53 126.48C319.922 126.48 320.802 125.344 320.802 123.472C320.802 121.6 319.922 120.464 318.53 120.464C317.138 120.464 316.258 121.6 316.258 123.472C316.258 125.344 317.138 126.48 318.53 126.48ZM327.458 133.984H318.738C318.658 133.984 318.578 133.968 318.466 133.872C318.37 133.792 318.21 133.632 318.13 133.536C318.066 133.456 318.034 133.36 318.034 133.28V129.136H319.138V132.944C319.138 133.072 319.202 133.12 319.314 133.12H327.458V133.984ZM326.978 119.184V129.776H325.922V119.184H326.978ZM335.074 122.64V121.776H345.138V122.64H340.658V123.792C340.658 124.192 340.77 124.448 341.138 124.688C342.226 125.392 344.146 126.272 345.81 126.88L345.378 127.76C343.65 127.104 341.426 126.032 340.114 125.168C338.802 126.032 336.594 127.104 334.866 127.76L334.402 126.896C336.066 126.288 337.986 125.392 339.074 124.688C339.442 124.448 339.554 124.192 339.554 123.792V122.64H335.074ZM333.298 130.576H339.57V127.36H340.642V130.576H346.85V131.44H333.298V130.576ZM342.866 120.416H339.506C338.706 120.416 337.698 120.304 337.01 120.064L337.218 119.232C337.89 119.424 338.834 119.536 339.602 119.536H342.866V120.416ZM358.868 127.36H354.884V130.576H361.092V131.44H347.54V130.576H353.812V127.36H350.532C350.452 127.36 350.372 127.344 350.26 127.248C350.164 127.168 350.004 127.008 349.924 126.912C349.86 126.832 349.828 126.736 349.828 126.656V120.224H350.9V122.88H357.796V120.224H358.868V127.36ZM350.9 123.744V126.32C350.9 126.448 350.964 126.496 351.076 126.496H357.796V123.744H350.9ZM362.455 121.168V120.304H369.767V121.168H366.743V124.224C366.743 124.72 366.807 125.088 367.095 125.488C367.927 126.656 369.159 128.08 370.503 129.36L369.767 130.112C368.455 128.8 367.175 127.328 366.199 126.016C365.223 127.376 363.831 129.008 362.503 130.304L361.735 129.552C363.127 128.24 364.423 126.72 365.287 125.488C365.575 125.072 365.639 124.72 365.639 124.224V121.168H362.455ZM373.223 125.04V133.92H372.151V119.184H373.223V124.176H375.783V125.04H373.223ZM388.105 119.184V127.552H387.033V125.312H383.817C383.161 126.272 382.041 126.848 380.681 126.848C378.489 126.848 376.937 125.376 376.937 123.2C376.937 121.024 378.489 119.568 380.681 119.568C381.993 119.568 383.081 120.096 383.737 120.992H387.033V119.184H388.105ZM378.009 123.2C378.009 124.864 379.113 125.984 380.681 125.984C382.249 125.984 383.369 124.864 383.369 123.2C383.369 121.536 382.249 120.432 380.681 120.432C379.113 120.432 378.009 121.536 378.009 123.2ZM383.481 133.056C384.121 132.4 384.761 131.504 385.225 130.72C385.449 130.352 385.481 130.096 385.481 129.76V128.432H386.553V129.76C386.553 130.096 386.601 130.4 386.809 130.72C387.369 131.568 388.233 132.576 389.113 133.472L388.393 134.144C387.561 133.264 386.681 132.208 386.009 131.264C385.401 132.144 384.553 133.312 383.705 134.112C383.641 134.176 383.577 134.224 383.481 134.224C383.385 134.224 383.321 134.176 383.257 134.112C382.409 133.312 381.561 132.144 380.953 131.264C380.281 132.256 379.369 133.328 378.473 134.224L377.769 133.552C378.681 132.656 379.593 131.6 380.153 130.72C380.361 130.4 380.409 130.096 380.409 129.76V128.432H381.481V129.76C381.481 130.096 381.529 130.352 381.737 130.72C382.185 131.504 382.841 132.4 383.481 133.056ZM384.425 123.2C384.425 123.648 384.361 124.064 384.233 124.448H387.033V121.856H384.201C384.345 122.272 384.425 122.72 384.425 123.2ZM400.476 133.92V119.184H401.548V124.192H404.268V125.056H401.548V133.92H400.476ZM399.356 128.32L399.436 129.136C398.572 129.296 396.988 129.424 395.964 129.424H391.948C391.868 129.424 391.788 129.408 391.676 129.312C391.58 129.232 391.42 129.072 391.34 128.976C391.276 128.896 391.244 128.8 391.244 128.72V120.304H397.596V121.168H392.316V128.384C392.316 128.512 392.38 128.56 392.492 128.56H395.996C397.052 128.56 398.46 128.464 399.356 128.32ZM405.006 130.976H406.638V132.608H405.006V130.976Z" fill="#FFF9E2"/>
<g opacity="0.45" clip-path="url(#clip0_1781_527)">
<path d="M14.6872 2.20682C13.4186 3.21844 10.5996 5.09716 8.48538 7.9875C7.92158 8.71008 7.21683 10.1553 6.23018 12.612C5.38448 14.9243 4.96164 16.9475 4.82069 18.5372C8.06253 16.3695 11.4453 16.9475 13.8415 18.6817C15.9557 20.2714 17.5061 22.5837 17.5061 25.9076C17.5061 30.6766 13.5596 34.0005 9.19012 34.0005C4.53879 34.0005 1.57885 31.5437 0.310301 26.6302C-0.535397 22.8727 0.310301 14.3462 3.41119 9.43267C6.23018 4.37458 10.4587 1.33972 13.7005 0.183589C15.8148 -0.538996 16.2376 1.05069 14.6872 2.20682ZM35.1812 2.20682C33.9127 3.21844 31.0937 5.09716 28.9794 7.9875C28.4156 8.71008 27.7109 10.1553 26.7242 12.612C25.8786 14.9243 25.4557 16.9475 25.3148 18.5372C28.5566 16.3695 31.9394 16.9475 34.3355 18.6817C36.4498 20.2714 38.0002 22.5837 38.0002 25.9076C38.0002 30.6766 34.0536 34.0005 29.6842 34.0005C25.0329 34.0005 22.0729 31.5437 20.8044 26.6302C19.9587 22.8727 20.8044 14.3462 23.9053 9.43267C26.7242 4.37458 30.9527 1.33972 34.1946 0.183589C36.3088 -0.538996 36.7317 1.05069 35.1812 2.20682Z" fill="#F9DDFF"/>
</g>
<defs>
<clipPath id="clip0_1781_527">
<rect width="38" height="34" fill="white"/>
</clipPath>
</defs>
</svg>
