<svg width="623" height="178" viewBox="0 0 623 178" fill="none" xmlns="http://www.w3.org/2000/svg">
<rect width="622.999" height="178" fill="#C08E54"/>
<path opacity="0.45" d="M608.313 130.552C609.581 129.516 612.4 127.593 614.515 124.634C615.078 123.894 615.783 122.414 616.77 119.899C617.616 117.531 618.038 115.46 618.179 113.832C614.937 116.052 611.555 115.46 609.159 113.684C607.044 112.057 605.494 109.689 605.494 106.286C605.494 101.403 609.44 98.0002 613.81 98.0002C618.461 98.0002 621.421 100.516 622.69 105.546C623.535 109.393 622.69 118.123 619.589 123.154C616.77 128.333 612.541 131.44 609.299 132.624C607.185 133.363 606.762 131.736 608.313 130.552ZM587.819 130.552C589.087 129.516 591.906 127.593 594.021 124.634C594.584 123.894 595.289 122.414 596.276 119.899C597.121 117.531 597.544 115.46 597.685 113.832C594.443 116.052 591.061 115.46 588.664 113.684C586.55 112.057 585 109.689 585 106.286C585 101.403 588.946 98.0002 593.316 98.0002C597.967 98.0002 600.927 100.516 602.196 105.546C603.041 109.393 602.196 118.123 599.095 123.154C596.276 128.333 592.047 131.44 588.805 132.624C586.691 133.363 586.268 131.736 587.819 130.552Z" fill="#F9DDFF"/>
<path opacity="0.45" d="M7.76 53.16C7.52 53.16 7.32 53.2267 7.16 53.36C7.02667 53.4667 6.93333 53.5867 6.88 53.72C6.8 53.88 6.76 54.0667 6.76 54.28V79.2C6.76 79.4133 6.8 79.6 6.88 79.76C6.93333 79.92 7.02667 80.0667 7.16 80.2C7.32 80.3067 7.52 80.36 7.76 80.36V80.76H2V80.36C2.26667 80.36 2.46667 80.3067 2.6 80.2C2.76 80.0667 2.86667 79.92 2.92 79.76C3 79.6 3.04 79.4133 3.04 79.2V54.28C3.04 54.0667 3 53.88 2.92 53.72C2.86667 53.5867 2.76 53.4667 2.6 53.36C2.46667 53.2267 2.26667 53.16 2 53.16V52.72H7.76V53.16ZM21.6047 80.44C20.7247 81 19.7647 81.2533 18.7247 81.2C17.2314 81.2 16.0847 80.9333 15.2847 80.4C14.5114 79.8667 13.938 79.28 13.5647 78.64C13.138 77.92 12.898 77.08 12.8447 76.12V62.28H10.0047V61.64H12.8447V57.52L16.5647 55.72V61.64H21.4847V62.28H16.5647V76.96C16.5647 77.1733 16.5914 77.48 16.6447 77.88C16.698 78.28 16.818 78.68 17.0047 79.08C17.218 79.4533 17.5114 79.7867 17.8847 80.08C18.258 80.3733 18.7647 80.52 19.4047 80.52C19.7247 80.52 20.0447 80.48 20.3647 80.4C20.6847 80.32 20.978 80.1867 21.2447 80L21.6047 80.44ZM52.6838 53.16C52.4437 53.16 52.2437 53.2267 52.0837 53.36C51.9504 53.4667 51.8571 53.5867 51.8037 53.72C51.7237 53.88 51.6837 54.0667 51.6837 54.28V79.2C51.6837 79.4133 51.7237 79.6 51.8037 79.76C51.8571 79.92 51.9504 80.0667 52.0837 80.2C52.2437 80.3067 52.4437 80.36 52.6838 80.36V80.76H48.7637C48.5504 80.76 48.3637 80.68 48.2037 80.52C48.0437 80.36 47.9637 80.1733 47.9637 79.96V76.84C47.7771 77.4267 47.5104 77.9867 47.1637 78.52C46.8437 79.0267 46.4304 79.48 45.9237 79.88C45.4437 80.28 44.8571 80.6 44.1637 80.84C43.4704 81.08 42.6571 81.2 41.7237 81.2C40.5237 81.2 39.4304 80.9467 38.4437 80.44C37.4571 79.9067 36.6037 79.1867 35.8837 78.28C35.1904 77.3733 34.6437 76.32 34.2437 75.12C33.8437 73.8933 33.6437 72.5867 33.6437 71.2C33.6437 69.8133 33.8437 68.52 34.2437 67.32C34.6704 66.0933 35.2571 65.04 36.0037 64.16C36.7771 63.2533 37.7104 62.5467 38.8037 62.04C39.9237 61.5067 41.1637 61.24 42.5237 61.24C43.2971 61.24 43.9771 61.3467 44.5637 61.56C45.1504 61.7733 45.6571 62.0533 46.0837 62.4C46.5371 62.7467 46.9104 63.1333 47.2037 63.56C47.5237 63.9867 47.7771 64.4133 47.9637 64.84V53.52C47.9637 53.3067 48.0437 53.12 48.2037 52.96C48.3637 52.8 48.5504 52.72 48.7637 52.72H52.6838V53.16ZM47.9637 67.16C47.9637 66.84 47.8571 66.3867 47.6437 65.8C47.4571 65.2133 47.1637 64.6267 46.7637 64.04C46.3637 63.4533 45.8437 62.9467 45.2037 62.52C44.5904 62.0933 43.8437 61.88 42.9637 61.88C42.1104 61.88 41.3504 62.1333 40.6837 62.64C40.0171 63.12 39.4571 63.7867 39.0037 64.64C38.5504 65.4667 38.2037 66.4533 37.9637 67.6C37.7237 68.72 37.6037 69.92 37.6037 71.2C37.6037 72.48 37.6971 73.68 37.8837 74.8C38.0971 75.92 38.4171 76.8933 38.8437 77.72C39.2971 78.5467 39.8571 79.2 40.5237 79.68C41.1904 80.1333 41.9771 80.36 42.8837 80.36C44.4837 80.36 45.7237 79.7067 46.6037 78.4C47.5104 77.0667 47.9637 75.16 47.9637 72.68V67.16ZM64.4294 61.24C66.0827 61.24 67.496 61.5067 68.6694 62.04C69.8694 62.5467 70.8427 63.2533 71.5894 64.16C72.3627 65.0667 72.9227 66.1333 73.2694 67.36C73.616 68.56 73.7894 69.84 73.7894 71.2C73.7894 72.5867 73.616 73.8933 73.2694 75.12C72.9227 76.32 72.3627 77.3733 71.5894 78.28C70.8427 79.1867 69.8827 79.9067 68.7094 80.44C67.536 80.9467 66.1094 81.2 64.4294 81.2C62.776 81.2 61.3494 80.9467 60.1494 80.44C58.976 79.9067 58.016 79.1867 57.2694 78.28C56.5227 77.3733 55.976 76.32 55.6294 75.12C55.2827 73.8933 55.1094 72.5867 55.1094 71.2C55.1094 69.84 55.2827 68.56 55.6294 67.36C55.976 66.1333 56.5227 65.0667 57.2694 64.16C58.016 63.2533 58.976 62.5467 60.1494 62.04C61.3494 61.5067 62.776 61.24 64.4294 61.24ZM64.4294 80.56C65.3627 80.56 66.1627 80.32 66.8294 79.84C67.5227 79.3333 68.0827 78.6667 68.5094 77.84C68.9627 76.9867 69.296 75.9867 69.5094 74.84C69.7227 73.6933 69.8294 72.48 69.8294 71.2C69.8294 69.92 69.7227 68.72 69.5094 67.6C69.296 66.4533 68.9627 65.4667 68.5094 64.64C68.0827 63.7867 67.5227 63.12 66.8294 62.64C66.1627 62.1333 65.3627 61.88 64.4294 61.88C63.5227 61.88 62.7227 62.1333 62.0294 62.64C61.3627 63.12 60.8027 63.7867 60.3494 64.64C59.9227 65.4667 59.6027 66.4533 59.3894 67.6C59.176 68.72 59.0694 69.92 59.0694 71.2C59.0694 72.48 59.176 73.6933 59.3894 74.84C59.6027 75.9867 59.9227 76.9867 60.3494 77.84C60.8027 78.6667 61.3627 79.3333 62.0294 79.84C62.7227 80.32 63.5227 80.56 64.4294 80.56ZM86.9538 80.36C88.3138 80.2533 89.5271 79.8133 90.5938 79.04C91.6871 78.24 92.4738 77.2133 92.9538 75.96L93.5938 76.12C93.2471 77.08 92.7138 77.92 91.9938 78.64C91.3804 79.28 90.5138 79.8667 89.3938 80.4C88.3004 80.9333 86.8738 81.2 85.1138 81.2C83.4604 81.2 82.0338 80.9467 80.8338 80.44C79.6604 79.9067 78.7004 79.1867 77.9538 78.28C77.2071 77.3733 76.6604 76.32 76.3138 75.12C75.9671 73.8933 75.7938 72.5867 75.7938 71.2C75.7938 69.84 75.9671 68.56 76.3138 67.36C76.6604 66.1333 77.2071 65.0667 77.9538 64.16C78.7004 63.2533 79.6604 62.5467 80.8338 62.04C82.0338 61.5067 83.4604 61.24 85.1138 61.24C87.1938 61.24 88.8471 61.6133 90.0738 62.36C91.3271 63.08 92.2738 63.9467 92.9138 64.96C93.5538 65.9733 93.9671 67.0267 94.1538 68.12C94.3671 69.2133 94.4738 70.1067 94.4738 70.8H79.7538V71.2C79.7538 72.48 79.8871 73.7067 80.1538 74.88C80.4471 76.0267 80.8738 77.0267 81.4338 77.88C82.0204 78.7333 82.7671 79.3867 83.6738 79.84C84.5804 80.2933 85.6738 80.4667 86.9538 80.36ZM85.1138 61.88C84.2871 61.88 83.5538 62.0933 82.9138 62.52C82.2738 62.9467 81.7271 63.5333 81.2738 64.28C80.8204 65.0267 80.4604 65.9067 80.1938 66.92C79.9538 67.9067 79.8071 68.9867 79.7538 70.16H90.4738V70.12C90.2871 67.2933 89.7271 65.2133 88.7938 63.88C87.8604 62.5467 86.6338 61.88 85.1138 61.88ZM106.363 69.96C107.403 70.3067 108.296 70.6667 109.043 71.04C109.789 71.4133 110.403 71.84 110.883 72.32C111.363 72.7733 111.709 73.2933 111.923 73.88C112.136 74.4667 112.243 75.1467 112.243 75.92C112.243 76.8533 112.016 77.6533 111.563 78.32C111.136 78.9867 110.563 79.5333 109.843 79.96C109.123 80.3867 108.296 80.7067 107.363 80.92C106.456 81.1067 105.536 81.2 104.603 81.2C103.056 81.2533 101.576 80.9733 100.163 80.36C98.7495 79.7467 97.5228 78.8667 96.4828 77.72L98.6028 75.48C98.6828 76.2267 98.8961 76.92 99.2428 77.56C99.5895 78.1733 100.029 78.7067 100.563 79.16C101.096 79.6133 101.709 79.9733 102.403 80.24C103.096 80.48 103.816 80.5867 104.563 80.56C105.976 80.56 107.149 80.32 108.083 79.84C109.016 79.3333 109.483 78.4933 109.483 77.32C109.483 76.7333 109.309 76.2133 108.963 75.76C108.616 75.3067 108.163 74.9067 107.603 74.56C107.043 74.1867 106.389 73.8667 105.643 73.6C104.896 73.3067 104.123 73.0267 103.323 72.76C102.256 72.4133 101.323 72.0667 100.523 71.72C99.7495 71.3733 99.0961 70.9867 98.5628 70.56C98.0561 70.1067 97.6695 69.5867 97.4028 69C97.1361 68.3867 97.0028 67.6667 97.0028 66.84C97.0028 65.88 97.2028 65.0533 97.6028 64.36C98.0028 63.64 98.5361 63.0533 99.2028 62.6C99.8961 62.12 100.683 61.7733 101.563 61.56C102.469 61.3467 103.403 61.24 104.363 61.24C105.803 61.1867 107.176 61.44 108.483 62C109.816 62.5333 110.963 63.3333 111.923 64.4L110.003 66.44C110.003 66.2267 109.936 65.88 109.803 65.4C109.696 64.8933 109.443 64.3867 109.043 63.88C108.669 63.3467 108.109 62.88 107.363 62.48C106.616 62.08 105.603 61.88 104.323 61.88C103.843 61.88 103.323 61.9333 102.763 62.04C102.229 62.1467 101.723 62.32 101.243 62.56C100.789 62.8 100.403 63.1333 100.083 63.56C99.7895 63.96 99.6428 64.4667 99.6428 65.08C99.6428 65.8267 99.8695 66.4667 100.323 67C100.803 67.5067 101.376 67.9467 102.043 68.32C102.736 68.6933 103.469 69.0133 104.243 69.28C105.016 69.52 105.723 69.7467 106.363 69.96ZM143.554 79.2C143.554 79.4133 143.594 79.6 143.674 79.76C143.754 79.92 143.861 80.0667 143.994 80.2C144.128 80.3067 144.328 80.36 144.594 80.36V80.76H138.834V80.36C139.101 80.36 139.301 80.3067 139.434 80.2C139.568 80.0667 139.661 79.92 139.714 79.76C139.794 79.6 139.834 79.4133 139.834 79.2V65.52C139.834 65.0933 139.741 64.6667 139.554 64.24C139.394 63.8133 139.141 63.4267 138.794 63.08C138.474 62.7333 138.074 62.4533 137.594 62.24C137.114 62.0267 136.554 61.92 135.914 61.92C135.088 61.92 134.341 62.0933 133.674 62.44C133.034 62.7867 132.474 63.2133 131.994 63.72C131.541 64.2 131.194 64.72 130.954 65.28C130.714 65.84 130.594 66.3333 130.594 66.76V79.2C130.594 79.4133 130.634 79.6 130.714 79.76C130.768 79.92 130.861 80.0667 130.994 80.2C131.154 80.3067 131.354 80.36 131.594 80.36V80.76H125.834V80.36C126.101 80.36 126.301 80.3067 126.434 80.2C126.594 80.0667 126.701 79.92 126.754 79.76C126.834 79.6 126.874 79.4133 126.874 79.2V63.2C126.874 62.9867 126.834 62.8 126.754 62.64C126.701 62.5067 126.594 62.3867 126.434 62.28C126.301 62.1467 126.101 62.08 125.834 62.08V61.64H129.794C130.008 61.64 130.194 61.72 130.354 61.88C130.514 62.04 130.594 62.2267 130.594 62.44V64.64C131.154 63.52 131.954 62.6667 132.994 62.08C134.061 61.4667 135.221 61.1867 136.474 61.24C137.381 61.24 138.261 61.3733 139.114 61.64C139.968 61.9067 140.714 62.3067 141.354 62.84C142.021 63.3467 142.554 63.9867 142.954 64.76C143.354 65.5067 143.554 66.3867 143.554 67.4V79.2ZM156.133 61.24C157.786 61.24 159.199 61.5067 160.373 62.04C161.573 62.5467 162.546 63.2533 163.293 64.16C164.066 65.0667 164.626 66.1333 164.973 67.36C165.319 68.56 165.493 69.84 165.493 71.2C165.493 72.5867 165.319 73.8933 164.973 75.12C164.626 76.32 164.066 77.3733 163.293 78.28C162.546 79.1867 161.586 79.9067 160.413 80.44C159.239 80.9467 157.813 81.2 156.133 81.2C154.479 81.2 153.053 80.9467 151.853 80.44C150.679 79.9067 149.719 79.1867 148.973 78.28C148.226 77.3733 147.679 76.32 147.333 75.12C146.986 73.8933 146.813 72.5867 146.813 71.2C146.813 69.84 146.986 68.56 147.333 67.36C147.679 66.1333 148.226 65.0667 148.973 64.16C149.719 63.2533 150.679 62.5467 151.853 62.04C153.053 61.5067 154.479 61.24 156.133 61.24ZM156.133 80.56C157.066 80.56 157.866 80.32 158.533 79.84C159.226 79.3333 159.786 78.6667 160.213 77.84C160.666 76.9867 160.999 75.9867 161.213 74.84C161.426 73.6933 161.533 72.48 161.533 71.2C161.533 69.92 161.426 68.72 161.213 67.6C160.999 66.4533 160.666 65.4667 160.213 64.64C159.786 63.7867 159.226 63.12 158.533 62.64C157.866 62.1333 157.066 61.88 156.133 61.88C155.226 61.88 154.426 62.1333 153.733 62.64C153.066 63.12 152.506 63.7867 152.053 64.64C151.626 65.4667 151.306 66.4533 151.093 67.6C150.879 68.72 150.773 69.92 150.773 71.2C150.773 72.48 150.879 73.6933 151.093 74.84C151.306 75.9867 151.626 76.9867 152.053 77.84C152.506 78.6667 153.066 79.3333 153.733 79.84C154.426 80.32 155.226 80.56 156.133 80.56ZM177.92 80.44C177.04 81 176.08 81.2533 175.04 81.2C173.547 81.2 172.4 80.9333 171.6 80.4C170.827 79.8667 170.254 79.28 169.88 78.64C169.454 77.92 169.214 77.08 169.16 76.12V62.28H166.32V61.64H169.16V57.52L172.88 55.72V61.64H177.8V62.28H172.88V76.96C172.88 77.1733 172.907 77.48 172.96 77.88C173.014 78.28 173.134 78.68 173.32 79.08C173.534 79.4533 173.827 79.7867 174.2 80.08C174.574 80.3733 175.08 80.52 175.72 80.52C176.04 80.52 176.36 80.48 176.68 80.4C177 80.32 177.294 80.1867 177.56 80L177.92 80.44ZM216.919 79.2C216.919 79.4133 216.959 79.6 217.039 79.76C217.119 79.92 217.226 80.0667 217.359 80.2C217.493 80.3067 217.693 80.36 217.959 80.36V80.76H212.199V80.36C212.466 80.36 212.666 80.3067 212.799 80.2C212.933 80.0667 213.026 79.92 213.079 79.76C213.159 79.6 213.199 79.4133 213.199 79.2V65.48C213.199 65.2667 213.173 64.96 213.119 64.56C213.066 64.16 212.933 63.7733 212.719 63.4C212.533 63 212.253 62.6533 211.879 62.36C211.506 62.0667 210.999 61.92 210.359 61.92C209.613 61.92 208.973 62.0933 208.439 62.44C207.906 62.7867 207.466 63.2133 207.119 63.72C206.799 64.2 206.559 64.72 206.399 65.28C206.266 65.84 206.199 66.3333 206.199 66.76V79.2C206.199 79.4133 206.239 79.6 206.319 79.76C206.399 79.92 206.506 80.0667 206.639 80.2C206.773 80.3067 206.973 80.36 207.239 80.36V80.76H201.479V80.36C201.746 80.36 201.946 80.3067 202.079 80.2C202.239 80.0667 202.346 79.92 202.399 79.76C202.479 79.6 202.519 79.4133 202.519 79.2V65.48C202.519 65.2667 202.506 64.96 202.479 64.56C202.453 64.16 202.359 63.7733 202.199 63.4C202.039 63 201.786 62.6533 201.439 62.36C201.093 62.0667 200.599 61.92 199.959 61.92C199.213 61.92 198.559 62.1467 197.999 62.6C197.439 63.0267 196.973 63.5467 196.599 64.16C196.253 64.7467 195.986 65.36 195.799 66C195.613 66.64 195.519 67.1733 195.519 67.6V79.2C195.519 79.4133 195.559 79.6 195.639 79.76C195.693 79.92 195.786 80.0667 195.919 80.2C196.079 80.3067 196.279 80.36 196.519 80.36V80.76H190.759V80.36C191.026 80.36 191.226 80.3067 191.359 80.2C191.519 80.0667 191.626 79.92 191.679 79.76C191.759 79.6 191.799 79.4133 191.799 79.2V63.2C191.799 62.9867 191.759 62.8 191.679 62.64C191.626 62.5067 191.519 62.3867 191.359 62.28C191.226 62.1467 191.026 62.08 190.759 62.08V61.64H194.719C194.933 61.64 195.119 61.72 195.279 61.88C195.439 62.04 195.519 62.2267 195.519 62.44V64.92C195.706 64.4667 195.933 64.0267 196.199 63.6C196.493 63.1733 196.839 62.7867 197.239 62.44C197.666 62.0667 198.159 61.7733 198.719 61.56C199.279 61.3467 199.919 61.24 200.639 61.24C201.546 61.24 202.306 61.3467 202.919 61.56C203.559 61.7733 204.093 62.0533 204.519 62.4C204.946 62.72 205.266 63.08 205.479 63.48C205.719 63.88 205.893 64.2667 205.999 64.64C206.133 64.24 206.319 63.84 206.559 63.44C206.826 63.04 207.159 62.68 207.559 62.36C207.959 62.0133 208.439 61.7467 208.999 61.56C209.586 61.3467 210.266 61.24 211.039 61.24C211.786 61.24 212.439 61.32 212.999 61.48C213.559 61.6133 214.039 61.8 214.439 62.04C214.866 62.28 215.213 62.5467 215.479 62.84C215.773 63.1333 216.013 63.44 216.199 63.76C216.626 64.5067 216.866 65.36 216.919 66.32V79.2ZM236.655 79.2C236.655 79.4133 236.695 79.6 236.775 79.76C236.855 79.92 236.962 80.0667 237.095 80.2C237.228 80.3067 237.428 80.36 237.695 80.36V80.76H233.735C233.522 80.76 233.335 80.68 233.175 80.52C233.015 80.36 232.935 80.1733 232.935 79.96V77.2C232.642 78 232.268 78.6533 231.815 79.16C231.388 79.6667 230.922 80.08 230.415 80.4C229.935 80.6933 229.428 80.8933 228.895 81C228.362 81.1333 227.855 81.2 227.375 81.2C227.295 81.2 227.068 81.2 226.695 81.2C226.322 81.2 225.868 81.1733 225.335 81.12C224.828 81.0667 224.282 80.96 223.695 80.8C223.108 80.6133 222.562 80.3467 222.055 80C221.575 79.6533 221.175 79.2 220.855 78.64C220.535 78.08 220.375 77.3733 220.375 76.52C220.375 75.6667 220.548 74.9333 220.895 74.32C221.268 73.68 221.802 73.0933 222.495 72.56C223.215 72 224.095 71.4667 225.135 70.96C226.202 70.4267 227.442 69.8533 228.855 69.24C230.295 68.6267 231.335 68.1067 231.975 67.68C232.615 67.2533 232.935 66.6667 232.935 65.92V65.52C232.935 65.0933 232.842 64.6667 232.655 64.24C232.495 63.7867 232.228 63.3867 231.855 63.04C231.508 62.6933 231.068 62.4133 230.535 62.2C230.028 61.9867 229.428 61.88 228.735 61.88C227.935 61.88 227.242 62.0267 226.655 62.32C226.068 62.5867 225.575 62.96 225.175 63.44C224.802 63.8933 224.522 64.4267 224.335 65.04C224.175 65.6533 224.095 66.2933 224.095 66.96L221.095 65.92C221.228 65.52 221.468 65.0533 221.815 64.52C222.188 63.9867 222.695 63.48 223.335 63C223.975 62.4933 224.775 62.08 225.735 61.76C226.722 61.4133 227.908 61.24 229.295 61.24C230.655 61.24 231.802 61.4267 232.735 61.8C233.668 62.1733 234.428 62.6667 235.015 63.28C235.602 63.8667 236.015 64.52 236.255 65.24C236.522 65.9333 236.655 66.6267 236.655 67.32V79.2ZM232.935 67.64C232.642 67.9333 232.202 68.24 231.615 68.56C231.055 68.8533 230.282 69.24 229.295 69.72C228.202 70.2533 227.322 70.8533 226.655 71.52C226.015 72.1867 225.522 72.8533 225.175 73.52C224.828 74.16 224.602 74.7733 224.495 75.36C224.388 75.92 224.335 76.3733 224.335 76.72C224.335 77.04 224.375 77.4267 224.455 77.88C224.535 78.3067 224.695 78.72 224.935 79.12C225.202 79.52 225.562 79.8667 226.015 80.16C226.468 80.4267 227.068 80.56 227.815 80.56C228.828 80.56 229.668 80.32 230.335 79.84C231.002 79.3333 231.522 78.76 231.895 78.12C232.268 77.4533 232.535 76.8133 232.695 76.2C232.855 75.56 232.935 75.1067 232.935 74.84V67.64ZM250.502 80.44C249.622 81 248.662 81.2533 247.622 81.2C246.128 81.2 244.982 80.9333 244.182 80.4C243.408 79.8667 242.835 79.28 242.462 78.64C242.035 77.92 241.795 77.08 241.742 76.12V62.28H238.902V61.64H241.742V57.52L245.462 55.72V61.64H250.382V62.28H245.462V76.96C245.462 77.1733 245.488 77.48 245.542 77.88C245.595 78.28 245.715 78.68 245.902 79.08C246.115 79.4533 246.408 79.7867 246.782 80.08C247.155 80.3733 247.662 80.52 248.302 80.52C248.622 80.52 248.942 80.48 249.262 80.4C249.582 80.32 249.875 80.1867 250.142 80L250.502 80.44ZM262.944 80.44C262.064 81 261.104 81.2533 260.064 81.2C258.57 81.2 257.424 80.9333 256.624 80.4C255.85 79.8667 255.277 79.28 254.904 78.64C254.477 77.92 254.237 77.08 254.184 76.12V62.28H251.344V61.64H254.184V57.52L257.904 55.72V61.64H262.824V62.28H257.904V76.96C257.904 77.1733 257.93 77.48 257.984 77.88C258.037 78.28 258.157 78.68 258.344 79.08C258.557 79.4533 258.85 79.7867 259.224 80.08C259.597 80.3733 260.104 80.52 260.744 80.52C261.064 80.52 261.384 80.48 261.704 80.4C262.024 80.32 262.317 80.1867 262.584 80L262.944 80.44ZM275.146 80.36C276.506 80.2533 277.719 79.8133 278.786 79.04C279.879 78.24 280.666 77.2133 281.146 75.96L281.786 76.12C281.439 77.08 280.906 77.92 280.186 78.64C279.573 79.28 278.706 79.8667 277.586 80.4C276.493 80.9333 275.066 81.2 273.306 81.2C271.653 81.2 270.226 80.9467 269.026 80.44C267.853 79.9067 266.893 79.1867 266.146 78.28C265.399 77.3733 264.853 76.32 264.506 75.12C264.159 73.8933 263.986 72.5867 263.986 71.2C263.986 69.84 264.159 68.56 264.506 67.36C264.853 66.1333 265.399 65.0667 266.146 64.16C266.893 63.2533 267.853 62.5467 269.026 62.04C270.226 61.5067 271.653 61.24 273.306 61.24C275.386 61.24 277.039 61.6133 278.266 62.36C279.519 63.08 280.466 63.9467 281.106 64.96C281.746 65.9733 282.159 67.0267 282.346 68.12C282.559 69.2133 282.666 70.1067 282.666 70.8H267.946V71.2C267.946 72.48 268.079 73.7067 268.346 74.88C268.639 76.0267 269.066 77.0267 269.626 77.88C270.213 78.7333 270.959 79.3867 271.866 79.84C272.773 80.2933 273.866 80.4667 275.146 80.36ZM273.306 61.88C272.479 61.88 271.746 62.0933 271.106 62.52C270.466 62.9467 269.919 63.5333 269.466 64.28C269.013 65.0267 268.653 65.9067 268.386 66.92C268.146 67.9067 267.999 68.9867 267.946 70.16H278.666V70.12C278.479 67.2933 277.919 65.2133 276.986 63.88C276.053 62.5467 274.826 61.88 273.306 61.88ZM290.035 65.2C290.435 63.84 291.155 62.84 292.195 62.2C293.262 61.5333 294.475 61.2 295.835 61.2C296.395 61.2 296.902 61.24 297.355 61.32C297.835 61.4 298.262 61.5067 298.635 61.64C299.062 61.7733 299.448 61.92 299.795 62.08L297.875 65.48C297.662 64.6533 297.222 64 296.555 63.52C295.888 63.0133 295.128 62.7867 294.275 62.84C293.315 62.84 292.555 63.1067 291.995 63.64C291.435 64.1467 291.008 64.7067 290.715 65.32C290.368 66.0667 290.142 66.9067 290.035 67.84V79.2C290.035 79.4133 290.075 79.6 290.155 79.76C290.208 79.92 290.302 80.0667 290.435 80.2C290.595 80.3067 290.795 80.36 291.035 80.36V80.76H285.275V80.36C285.542 80.36 285.742 80.3067 285.875 80.2C286.035 80.0667 286.142 79.92 286.195 79.76C286.275 79.6 286.315 79.4133 286.315 79.2V63.2C286.315 62.9867 286.275 62.8 286.195 62.64C286.142 62.5067 286.035 62.3867 285.875 62.28C285.742 62.1467 285.542 62.08 285.275 62.08V61.64H289.235C289.448 61.64 289.635 61.72 289.795 61.88C289.955 62.04 290.035 62.2267 290.035 62.44V65.2ZM330.146 79.2C330.146 79.4133 330.186 79.6 330.266 79.76C330.346 79.92 330.453 80.0667 330.586 80.2C330.719 80.3067 330.919 80.36 331.186 80.36V80.76H325.426V80.36C325.693 80.36 325.893 80.3067 326.026 80.2C326.159 80.0667 326.253 79.92 326.306 79.76C326.386 79.6 326.426 79.4133 326.426 79.2V65.52C326.426 65.0933 326.333 64.6667 326.146 64.24C325.986 63.8133 325.733 63.4267 325.386 63.08C325.066 62.7333 324.666 62.4533 324.186 62.24C323.706 62.0267 323.146 61.92 322.506 61.92C321.679 61.92 320.933 62.0933 320.266 62.44C319.626 62.7867 319.066 63.2133 318.586 63.72C318.133 64.2 317.786 64.72 317.546 65.28C317.306 65.84 317.186 66.3333 317.186 66.76V79.2C317.186 79.4133 317.226 79.6 317.306 79.76C317.359 79.92 317.453 80.0667 317.586 80.2C317.746 80.3067 317.946 80.36 318.186 80.36V80.76H312.426V80.36C312.693 80.36 312.893 80.3067 313.026 80.2C313.186 80.0667 313.293 79.92 313.346 79.76C313.426 79.6 313.466 79.4133 313.466 79.2V54.28C313.466 54.0667 313.426 53.88 313.346 53.72C313.293 53.5867 313.186 53.4667 313.026 53.36C312.893 53.2267 312.693 53.16 312.426 53.16V52.72H316.386C316.599 52.72 316.786 52.8 316.946 52.96C317.106 53.12 317.186 53.3067 317.186 53.52V64.64C317.746 63.52 318.546 62.6667 319.586 62.08C320.653 61.4667 321.813 61.1867 323.066 61.24C323.973 61.24 324.853 61.3733 325.706 61.64C326.559 61.9067 327.306 62.3067 327.946 62.84C328.613 63.3467 329.146 63.9867 329.546 64.76C329.946 65.5067 330.146 66.3867 330.146 67.4V79.2ZM342.489 61.24C344.142 61.24 345.555 61.5067 346.729 62.04C347.929 62.5467 348.902 63.2533 349.649 64.16C350.422 65.0667 350.982 66.1333 351.329 67.36C351.675 68.56 351.849 69.84 351.849 71.2C351.849 72.5867 351.675 73.8933 351.329 75.12C350.982 76.32 350.422 77.3733 349.649 78.28C348.902 79.1867 347.942 79.9067 346.769 80.44C345.595 80.9467 344.169 81.2 342.489 81.2C340.835 81.2 339.409 80.9467 338.209 80.44C337.035 79.9067 336.075 79.1867 335.329 78.28C334.582 77.3733 334.035 76.32 333.689 75.12C333.342 73.8933 333.169 72.5867 333.169 71.2C333.169 69.84 333.342 68.56 333.689 67.36C334.035 66.1333 334.582 65.0667 335.329 64.16C336.075 63.2533 337.035 62.5467 338.209 62.04C339.409 61.5067 340.835 61.24 342.489 61.24ZM342.489 80.56C343.422 80.56 344.222 80.32 344.889 79.84C345.582 79.3333 346.142 78.6667 346.569 77.84C347.022 76.9867 347.355 75.9867 347.569 74.84C347.782 73.6933 347.889 72.48 347.889 71.2C347.889 69.92 347.782 68.72 347.569 67.6C347.355 66.4533 347.022 65.4667 346.569 64.64C346.142 63.7867 345.582 63.12 344.889 62.64C344.222 62.1333 343.422 61.88 342.489 61.88C341.582 61.88 340.782 62.1333 340.089 62.64C339.422 63.12 338.862 63.7867 338.409 64.64C337.982 65.4667 337.662 66.4533 337.449 67.6C337.235 68.72 337.129 69.92 337.129 71.2C337.129 72.48 337.235 73.6933 337.449 74.84C337.662 75.9867 337.982 76.9867 338.409 77.84C338.862 78.6667 339.422 79.3333 340.089 79.84C340.782 80.32 341.582 80.56 342.489 80.56ZM380.667 61.64V62.08C380.054 62.0267 379.494 62.1867 378.987 62.56C378.481 62.9067 378.134 63.3867 377.947 64L371.547 81.2H371.227L366.587 69.12L361.467 81.2H361.147L353.707 63.2C353.494 62.7467 353.281 62.4533 353.067 62.32C352.854 62.16 352.587 62.08 352.267 62.08V61.64H358.667V62.08C358.241 62.08 357.947 62.1867 357.787 62.4C357.654 62.5867 357.641 62.8267 357.747 63.12L362.987 76L366.267 68.28L364.347 63.24C364.027 62.4667 363.561 62.08 362.947 62.08V61.64H369.587V62.08C369.081 62.08 368.721 62.1733 368.507 62.36C368.294 62.5467 368.267 62.84 368.427 63.24L372.947 75.64L377.227 64C377.414 63.52 377.361 63.08 377.067 62.68C376.801 62.28 376.294 62.08 375.547 62.08V61.64H380.667ZM402.333 69.96C403.373 70.3067 404.266 70.6667 405.013 71.04C405.76 71.4133 406.373 71.84 406.853 72.32C407.333 72.7733 407.68 73.2933 407.893 73.88C408.106 74.4667 408.213 75.1467 408.213 75.92C408.213 76.8533 407.986 77.6533 407.533 78.32C407.106 78.9867 406.533 79.5333 405.813 79.96C405.093 80.3867 404.266 80.7067 403.333 80.92C402.426 81.1067 401.506 81.2 400.573 81.2C399.026 81.2533 397.546 80.9733 396.133 80.36C394.72 79.7467 393.493 78.8667 392.453 77.72L394.573 75.48C394.653 76.2267 394.866 76.92 395.213 77.56C395.56 78.1733 396 78.7067 396.533 79.16C397.066 79.6133 397.68 79.9733 398.373 80.24C399.066 80.48 399.786 80.5867 400.533 80.56C401.946 80.56 403.12 80.32 404.053 79.84C404.986 79.3333 405.453 78.4933 405.453 77.32C405.453 76.7333 405.28 76.2133 404.933 75.76C404.586 75.3067 404.133 74.9067 403.573 74.56C403.013 74.1867 402.36 73.8667 401.613 73.6C400.866 73.3067 400.093 73.0267 399.293 72.76C398.226 72.4133 397.293 72.0667 396.493 71.72C395.72 71.3733 395.066 70.9867 394.533 70.56C394.026 70.1067 393.64 69.5867 393.373 69C393.106 68.3867 392.973 67.6667 392.973 66.84C392.973 65.88 393.173 65.0533 393.573 64.36C393.973 63.64 394.506 63.0533 395.173 62.6C395.866 62.12 396.653 61.7733 397.533 61.56C398.44 61.3467 399.373 61.24 400.333 61.24C401.773 61.1867 403.146 61.44 404.453 62C405.786 62.5333 406.933 63.3333 407.893 64.4L405.973 66.44C405.973 66.2267 405.906 65.88 405.773 65.4C405.666 64.8933 405.413 64.3867 405.013 63.88C404.64 63.3467 404.08 62.88 403.333 62.48C402.586 62.08 401.573 61.88 400.293 61.88C399.813 61.88 399.293 61.9333 398.733 62.04C398.2 62.1467 397.693 62.32 397.213 62.56C396.76 62.8 396.373 63.1333 396.053 63.56C395.76 63.96 395.613 64.4667 395.613 65.08C395.613 65.8267 395.84 66.4667 396.293 67C396.773 67.5067 397.346 67.9467 398.013 68.32C398.706 68.6933 399.44 69.0133 400.213 69.28C400.986 69.52 401.693 69.7467 402.333 69.96ZM415.372 79.2C415.372 79.4133 415.412 79.6 415.492 79.76C415.546 79.92 415.639 80.0667 415.772 80.2C415.932 80.3067 416.132 80.36 416.372 80.36V80.76H410.612V80.36C410.879 80.36 411.079 80.3067 411.212 80.2C411.372 80.0667 411.479 79.92 411.532 79.76C411.612 79.6 411.652 79.4133 411.652 79.2V54.28C411.652 54.0667 411.612 53.88 411.532 53.72C411.479 53.5867 411.372 53.4667 411.212 53.36C411.079 53.2267 410.879 53.16 410.612 53.16V52.76H414.572C414.759 52.76 414.946 52.8267 415.132 52.96C415.292 53.1733 415.372 53.36 415.372 53.52V79.2ZM428.137 61.24C429.791 61.24 431.204 61.5067 432.377 62.04C433.577 62.5467 434.551 63.2533 435.297 64.16C436.071 65.0667 436.631 66.1333 436.977 67.36C437.324 68.56 437.497 69.84 437.497 71.2C437.497 72.5867 437.324 73.8933 436.977 75.12C436.631 76.32 436.071 77.3733 435.297 78.28C434.551 79.1867 433.591 79.9067 432.417 80.44C431.244 80.9467 429.817 81.2 428.137 81.2C426.484 81.2 425.057 80.9467 423.857 80.44C422.684 79.9067 421.724 79.1867 420.977 78.28C420.231 77.3733 419.684 76.32 419.337 75.12C418.991 73.8933 418.817 72.5867 418.817 71.2C418.817 69.84 418.991 68.56 419.337 67.36C419.684 66.1333 420.231 65.0667 420.977 64.16C421.724 63.2533 422.684 62.5467 423.857 62.04C425.057 61.5067 426.484 61.24 428.137 61.24ZM428.137 80.56C429.071 80.56 429.871 80.32 430.537 79.84C431.231 79.3333 431.791 78.6667 432.217 77.84C432.671 76.9867 433.004 75.9867 433.217 74.84C433.431 73.6933 433.537 72.48 433.537 71.2C433.537 69.92 433.431 68.72 433.217 67.6C433.004 66.4533 432.671 65.4667 432.217 64.64C431.791 63.7867 431.231 63.12 430.537 62.64C429.871 62.1333 429.071 61.88 428.137 61.88C427.231 61.88 426.431 62.1333 425.737 62.64C425.071 63.12 424.511 63.7867 424.057 64.64C423.631 65.4667 423.311 66.4533 423.097 67.6C422.884 68.72 422.777 69.92 422.777 71.2C422.777 72.48 422.884 73.6933 423.097 74.84C423.311 75.9867 423.631 76.9867 424.057 77.84C424.511 78.6667 425.071 79.3333 425.737 79.84C426.431 80.32 427.231 80.56 428.137 80.56ZM466.316 61.64V62.08C465.702 62.0267 465.142 62.1867 464.636 62.56C464.129 62.9067 463.782 63.3867 463.596 64L457.196 81.2H456.876L452.236 69.12L447.116 81.2H446.796L439.356 63.2C439.142 62.7467 438.929 62.4533 438.716 62.32C438.502 62.16 438.236 62.08 437.916 62.08V61.64H444.316V62.08C443.889 62.08 443.596 62.1867 443.436 62.4C443.302 62.5867 443.289 62.8267 443.396 63.12L448.636 76L451.916 68.28L449.996 63.24C449.676 62.4667 449.209 62.08 448.596 62.08V61.64H455.236V62.08C454.729 62.08 454.369 62.1733 454.156 62.36C453.942 62.5467 453.916 62.84 454.076 63.24L458.596 75.64L462.876 64C463.062 63.52 463.009 63.08 462.716 62.68C462.449 62.28 461.942 62.08 461.196 62.08V61.64H466.316ZM472.074 79.2C472.074 79.4133 472.114 79.6 472.194 79.76C472.247 79.92 472.341 80.0667 472.474 80.2C472.634 80.3067 472.834 80.36 473.074 80.36V80.76H467.314V80.36C467.581 80.36 467.781 80.3067 467.914 80.2C468.074 80.0667 468.181 79.92 468.234 79.76C468.314 79.6 468.354 79.4133 468.354 79.2V54.28C468.354 54.0667 468.314 53.88 468.234 53.72C468.181 53.5867 468.074 53.4667 467.914 53.36C467.781 53.2267 467.581 53.16 467.314 53.16V52.76H471.274C471.461 52.76 471.647 52.8267 471.834 52.96C471.994 53.1733 472.074 53.36 472.074 53.52V79.2ZM495.439 61.64V62.08C494.799 62.0533 494.212 62.2133 493.679 62.56C493.145 62.88 492.759 63.3333 492.519 63.92C490.999 67.2533 489.585 70.3467 488.279 73.2C487.719 74.4 487.159 75.6133 486.599 76.84C486.065 78.0667 485.545 79.2267 485.039 80.32C484.559 81.3867 484.132 82.3333 483.759 83.16C483.385 83.9867 483.105 84.6133 482.919 85.04C482.199 86.6133 481.425 87.84 480.599 88.72C479.772 89.6267 478.679 90.0933 477.319 90.12L476.159 87.16C476.585 87.2667 476.972 87.3467 477.319 87.4C477.692 87.4533 478.039 87.48 478.359 87.48C479.345 87.48 480.172 87.2 480.839 86.64C481.505 86.1067 482.119 85.2133 482.679 83.96C482.892 83.5067 483.119 83.0133 483.359 82.48C483.599 81.9733 483.852 81.4133 484.119 80.8L475.999 63.2C475.785 62.7467 475.559 62.4533 475.319 62.32C475.105 62.16 474.839 62.08 474.519 62.08V61.64H480.919V62.08C480.545 62.08 480.292 62.1733 480.159 62.36C480.025 62.52 479.985 62.72 480.039 62.96L486.199 76.24L491.799 64C492.012 63.52 491.999 63.08 491.759 62.68C491.545 62.28 491.065 62.08 490.319 62.08V61.64H495.439ZM21.12 105.64V106.08C20.48 106.053 19.8933 106.213 19.36 106.56C18.8267 106.88 18.44 107.333 18.2 107.92C16.68 111.253 15.2667 114.347 13.96 117.2C13.4 118.4 12.84 119.613 12.28 120.84C11.7467 122.067 11.2267 123.227 10.72 124.32C10.24 125.387 9.81333 126.333 9.44 127.16C9.06667 127.987 8.78667 128.613 8.6 129.04C7.88 130.613 7.10667 131.84 6.28 132.72C5.45333 133.627 4.36 134.093 3 134.12L1.84 131.16C2.26667 131.267 2.65333 131.347 3 131.4C3.37333 131.453 3.72 131.48 4.04 131.48C5.02667 131.48 5.85333 131.2 6.52 130.64C7.18667 130.107 7.8 129.213 8.36 127.96C8.57333 127.507 8.8 127.013 9.04 126.48C9.28 125.973 9.53333 125.413 9.8 124.8L1.68 107.2C1.46667 106.747 1.24 106.453 1 106.32C0.786667 106.16 0.52 106.08 0.2 106.08V105.64H6.6V106.08C6.22667 106.08 5.97333 106.173 5.84 106.36C5.70667 106.52 5.66667 106.72 5.72 106.96L11.88 120.24L17.48 108C17.6933 107.52 17.68 107.08 17.44 106.68C17.2267 106.28 16.7467 106.08 16 106.08V105.64H21.12ZM30.4622 105.24C32.1155 105.24 33.5289 105.507 34.7022 106.04C35.9022 106.547 36.8755 107.253 37.6222 108.16C38.3955 109.067 38.9555 110.133 39.3022 111.36C39.6489 112.56 39.8222 113.84 39.8222 115.2C39.8222 116.587 39.6489 117.893 39.3022 119.12C38.9555 120.32 38.3955 121.373 37.6222 122.28C36.8755 123.187 35.9155 123.907 34.7422 124.44C33.5689 124.947 32.1422 125.2 30.4622 125.2C28.8089 125.2 27.3822 124.947 26.1822 124.44C25.0089 123.907 24.0489 123.187 23.3022 122.28C22.5555 121.373 22.0089 120.32 21.6622 119.12C21.3155 117.893 21.1422 116.587 21.1422 115.2C21.1422 113.84 21.3155 112.56 21.6622 111.36C22.0089 110.133 22.5555 109.067 23.3022 108.16C24.0489 107.253 25.0089 106.547 26.1822 106.04C27.3822 105.507 28.8089 105.24 30.4622 105.24ZM30.4622 124.56C31.3955 124.56 32.1955 124.32 32.8622 123.84C33.5555 123.333 34.1155 122.667 34.5422 121.84C34.9955 120.987 35.3289 119.987 35.5422 118.84C35.7555 117.693 35.8622 116.48 35.8622 115.2C35.8622 113.92 35.7555 112.72 35.5422 111.6C35.3289 110.453 34.9955 109.467 34.5422 108.64C34.1155 107.787 33.5555 107.12 32.8622 106.64C32.1955 106.133 31.3955 105.88 30.4622 105.88C29.5555 105.88 28.7555 106.133 28.0622 106.64C27.3955 107.12 26.8355 107.787 26.3822 108.64C25.9555 109.467 25.6355 110.453 25.4222 111.6C25.2089 112.72 25.1022 113.92 25.1022 115.2C25.1022 116.48 25.2089 117.693 25.4222 118.84C25.6355 119.987 25.9555 120.987 26.3822 121.84C26.8355 122.667 27.3955 123.333 28.0622 123.84C28.7555 124.32 29.5555 124.56 30.4622 124.56ZM59.5606 123.2C59.5606 123.413 59.6006 123.6 59.6806 123.76C59.7606 123.92 59.8673 124.067 60.0006 124.2C60.134 124.307 60.334 124.36 60.6006 124.36V124.76H56.6406C56.4273 124.76 56.2406 124.68 56.0806 124.52C55.9206 124.36 55.8406 124.173 55.8406 123.96V121.8C55.2806 122.893 54.4673 123.747 53.4006 124.36C52.3606 124.973 51.214 125.253 49.9606 125.2C49.5606 125.173 49.1473 125.133 48.7206 125.08C48.3206 125.053 47.9206 124.987 47.5206 124.88C46.854 124.72 46.2273 124.467 45.6406 124.12C45.0806 123.747 44.5873 123.307 44.1606 122.8C43.7606 122.267 43.4406 121.68 43.2006 121.04C42.9873 120.4 42.8806 119.733 42.8806 119.04V107.2C42.8806 106.987 42.8406 106.8 42.7606 106.64C42.7073 106.507 42.6006 106.387 42.4406 106.28C42.3073 106.147 42.1073 106.08 41.8406 106.08V105.64H45.8006C45.9606 105.64 46.1473 105.72 46.3606 105.88C46.5206 106.093 46.5873 106.28 46.5606 106.44V120.88C46.5606 121.307 46.6406 121.747 46.8006 122.2C46.9873 122.627 47.254 123.013 47.6006 123.36C47.9473 123.707 48.3606 123.987 48.8406 124.2C49.3206 124.413 49.8806 124.52 50.5206 124.52C51.3473 124.52 52.0806 124.347 52.7206 124C53.3873 123.653 53.9473 123.227 54.4006 122.72C54.8806 122.213 55.2406 121.693 55.4806 121.16C55.7206 120.6 55.8406 120.107 55.8406 119.68V107.2C55.8406 106.987 55.8006 106.8 55.7206 106.64C55.6673 106.507 55.574 106.387 55.4406 106.28C55.3073 106.147 55.1073 106.08 54.8406 106.08V105.64H58.7606C58.974 105.64 59.1606 105.72 59.3206 105.88C59.4806 106.04 59.5606 106.227 59.5606 106.44V123.2ZM93.1356 107.8C93.1356 107.267 92.909 106.773 92.4556 106.32C92.0023 105.867 91.469 105.64 90.8556 105.64C90.5356 105.64 90.2023 105.72 89.8556 105.88C89.5356 106.013 89.229 106.253 88.9356 106.6C90.0556 107.293 90.8956 108.213 91.4556 109.36C92.0423 110.48 92.3356 111.8 92.3356 113.32C92.3356 114.52 92.1356 115.613 91.7356 116.6C91.3623 117.587 90.789 118.44 90.0156 119.16C89.269 119.88 88.3356 120.44 87.2156 120.84C86.1223 121.213 84.8556 121.4 83.4156 121.4C81.3623 121.48 79.469 120.987 77.7356 119.92L76.7756 121.24C76.2423 121.933 76.0823 122.4 76.2956 122.64C76.5356 122.853 77.0156 122.973 77.7356 123H87.1756C88.189 123 89.0556 123.16 89.7756 123.48C90.5223 123.773 91.1356 124.187 91.6156 124.72C92.0956 125.227 92.4423 125.813 92.6556 126.48C92.8956 127.147 93.0156 127.853 93.0156 128.6C93.0156 129.56 92.789 130.387 92.3356 131.08C91.909 131.773 91.3223 132.333 90.5756 132.76C89.8556 133.213 89.0023 133.547 88.0156 133.76C87.029 133.973 85.989 134.08 84.8956 134.08C83.0556 134.08 81.189 133.827 79.2956 133.32C77.429 132.813 75.8156 132.093 74.4556 131.16L76.9756 128.24C77.0823 128.453 77.3223 128.84 77.6956 129.4C78.0956 129.96 78.629 130.547 79.2956 131.16C79.9623 131.773 80.7756 132.307 81.7356 132.76C82.7223 133.24 83.869 133.48 85.1756 133.48C86.429 133.48 87.509 133.347 88.4156 133.08C89.3223 132.813 90.069 132.467 90.6556 132.04C91.2423 131.613 91.669 131.133 91.9356 130.6C92.229 130.093 92.3756 129.573 92.3756 129.04C92.3756 128.213 92.1356 127.613 91.6556 127.24C91.1756 126.893 90.469 126.72 89.5356 126.72H77.3356C77.0956 126.72 76.8023 126.693 76.4556 126.64C76.109 126.613 75.789 126.52 75.4956 126.36C75.2023 126.2 74.949 125.947 74.7356 125.6C74.5223 125.28 74.4156 124.84 74.4156 124.28C74.4156 123.96 74.4423 123.68 74.4956 123.44C74.549 123.2 74.6423 122.96 74.7756 122.72C74.909 122.48 75.0956 122.213 75.3356 121.92C75.5756 121.6 75.8823 121.213 76.2556 120.76L77.2156 119.56C75.3756 118.093 74.4556 116.013 74.4556 113.32C74.4556 110.813 75.2156 108.84 76.7356 107.4C78.2556 105.96 80.469 105.24 83.3756 105.24C85.109 105.187 86.7756 105.533 88.3756 106.28C88.989 105.48 89.6156 104.933 90.2556 104.64C90.9223 104.32 91.5623 104.16 92.1756 104.16C92.789 104.16 93.3223 104.267 93.7756 104.48C94.2556 104.693 94.6423 104.947 94.9356 105.24L93.1356 107.8ZM83.3756 120.76C85.0023 120.76 86.2023 120.107 86.9756 118.8C87.7756 117.493 88.1756 115.667 88.1756 113.32C88.1756 110.973 87.7756 109.147 86.9756 107.84C86.2023 106.533 85.0023 105.88 83.3756 105.88C81.7756 105.88 80.5756 106.533 79.7756 107.84C79.0023 109.147 78.6156 110.973 78.6156 113.32C78.6156 115.667 79.0023 117.493 79.7756 118.8C80.5756 120.107 81.7756 120.76 83.3756 120.76ZM104.645 105.24C106.298 105.24 107.712 105.507 108.885 106.04C110.085 106.547 111.058 107.253 111.805 108.16C112.578 109.067 113.138 110.133 113.485 111.36C113.832 112.56 114.005 113.84 114.005 115.2C114.005 116.587 113.832 117.893 113.485 119.12C113.138 120.32 112.578 121.373 111.805 122.28C111.058 123.187 110.098 123.907 108.925 124.44C107.752 124.947 106.325 125.2 104.645 125.2C102.992 125.2 101.565 124.947 100.365 124.44C99.1917 123.907 98.2317 123.187 97.485 122.28C96.7383 121.373 96.1917 120.32 95.845 119.12C95.4983 117.893 95.325 116.587 95.325 115.2C95.325 113.84 95.4983 112.56 95.845 111.36C96.1917 110.133 96.7383 109.067 97.485 108.16C98.2317 107.253 99.1917 106.547 100.365 106.04C101.565 105.507 102.992 105.24 104.645 105.24ZM104.645 124.56C105.578 124.56 106.378 124.32 107.045 123.84C107.738 123.333 108.298 122.667 108.725 121.84C109.178 120.987 109.512 119.987 109.725 118.84C109.938 117.693 110.045 116.48 110.045 115.2C110.045 113.92 109.938 112.72 109.725 111.6C109.512 110.453 109.178 109.467 108.725 108.64C108.298 107.787 107.738 107.12 107.045 106.64C106.378 106.133 105.578 105.88 104.645 105.88C103.738 105.88 102.938 106.133 102.245 106.64C101.578 107.12 101.018 107.787 100.565 108.64C100.138 109.467 99.8183 110.453 99.605 111.6C99.3917 112.72 99.285 113.92 99.285 115.2C99.285 116.48 99.3917 117.693 99.605 118.84C99.8183 119.987 100.138 120.987 100.565 121.84C101.018 122.667 101.578 123.333 102.245 123.84C102.938 124.32 103.738 124.56 104.645 124.56ZM143.096 123.2C143.096 123.413 143.136 123.6 143.216 123.76C143.296 123.92 143.402 124.067 143.536 124.2C143.669 124.307 143.869 124.36 144.136 124.36V124.76H140.176C139.962 124.76 139.776 124.68 139.616 124.52C139.456 124.36 139.376 124.173 139.376 123.96V121.2C139.082 122 138.709 122.653 138.256 123.16C137.829 123.667 137.362 124.08 136.856 124.4C136.376 124.693 135.869 124.893 135.336 125C134.802 125.133 134.296 125.2 133.816 125.2C133.736 125.2 133.509 125.2 133.136 125.2C132.762 125.2 132.309 125.173 131.776 125.12C131.269 125.067 130.722 124.96 130.136 124.8C129.549 124.613 129.002 124.347 128.496 124C128.016 123.653 127.616 123.2 127.296 122.64C126.976 122.08 126.816 121.373 126.816 120.52C126.816 119.667 126.989 118.933 127.336 118.32C127.709 117.68 128.242 117.093 128.936 116.56C129.656 116 130.536 115.467 131.576 114.96C132.642 114.427 133.882 113.853 135.296 113.24C136.736 112.627 137.776 112.107 138.416 111.68C139.056 111.253 139.376 110.667 139.376 109.92V109.52C139.376 109.093 139.282 108.667 139.096 108.24C138.936 107.787 138.669 107.387 138.296 107.04C137.949 106.693 137.509 106.413 136.976 106.2C136.469 105.987 135.869 105.88 135.176 105.88C134.376 105.88 133.682 106.027 133.096 106.32C132.509 106.587 132.016 106.96 131.616 107.44C131.242 107.893 130.962 108.427 130.776 109.04C130.616 109.653 130.536 110.293 130.536 110.96L127.536 109.92C127.669 109.52 127.909 109.053 128.256 108.52C128.629 107.987 129.136 107.48 129.776 107C130.416 106.493 131.216 106.08 132.176 105.76C133.162 105.413 134.349 105.24 135.736 105.24C137.096 105.24 138.242 105.427 139.176 105.8C140.109 106.173 140.869 106.667 141.456 107.28C142.042 107.867 142.456 108.52 142.696 109.24C142.962 109.933 143.096 110.627 143.096 111.32V123.2ZM139.376 111.64C139.082 111.933 138.642 112.24 138.056 112.56C137.496 112.853 136.722 113.24 135.736 113.72C134.642 114.253 133.762 114.853 133.096 115.52C132.456 116.187 131.962 116.853 131.616 117.52C131.269 118.16 131.042 118.773 130.936 119.36C130.829 119.92 130.776 120.373 130.776 120.72C130.776 121.04 130.816 121.427 130.896 121.88C130.976 122.307 131.136 122.72 131.376 123.12C131.642 123.52 132.002 123.867 132.456 124.16C132.909 124.427 133.509 124.56 134.256 124.56C135.269 124.56 136.109 124.32 136.776 123.84C137.442 123.333 137.962 122.76 138.336 122.12C138.709 121.453 138.976 120.813 139.136 120.2C139.296 119.56 139.376 119.107 139.376 118.84V111.64ZM156.208 113.96C157.248 114.307 158.141 114.667 158.888 115.04C159.635 115.413 160.248 115.84 160.728 116.32C161.208 116.773 161.555 117.293 161.768 117.88C161.981 118.467 162.088 119.147 162.088 119.92C162.088 120.853 161.861 121.653 161.408 122.32C160.981 122.987 160.408 123.533 159.688 123.96C158.968 124.387 158.141 124.707 157.208 124.92C156.301 125.107 155.381 125.2 154.448 125.2C152.901 125.253 151.421 124.973 150.008 124.36C148.595 123.747 147.368 122.867 146.328 121.72L148.448 119.48C148.528 120.227 148.741 120.92 149.088 121.56C149.435 122.173 149.875 122.707 150.408 123.16C150.941 123.613 151.555 123.973 152.248 124.24C152.941 124.48 153.661 124.587 154.408 124.56C155.821 124.56 156.995 124.32 157.928 123.84C158.861 123.333 159.328 122.493 159.328 121.32C159.328 120.733 159.155 120.213 158.808 119.76C158.461 119.307 158.008 118.907 157.448 118.56C156.888 118.187 156.235 117.867 155.488 117.6C154.741 117.307 153.968 117.027 153.168 116.76C152.101 116.413 151.168 116.067 150.368 115.72C149.595 115.373 148.941 114.987 148.408 114.56C147.901 114.107 147.515 113.587 147.248 113C146.981 112.387 146.848 111.667 146.848 110.84C146.848 109.88 147.048 109.053 147.448 108.36C147.848 107.64 148.381 107.053 149.048 106.6C149.741 106.12 150.528 105.773 151.408 105.56C152.315 105.347 153.248 105.24 154.208 105.24C155.648 105.187 157.021 105.44 158.328 106C159.661 106.533 160.808 107.333 161.768 108.4L159.848 110.44C159.848 110.227 159.781 109.88 159.648 109.4C159.541 108.893 159.288 108.387 158.888 107.88C158.515 107.347 157.955 106.88 157.208 106.48C156.461 106.08 155.448 105.88 154.168 105.88C153.688 105.88 153.168 105.933 152.608 106.04C152.075 106.147 151.568 106.32 151.088 106.56C150.635 106.8 150.248 107.133 149.928 107.56C149.635 107.96 149.488 108.467 149.488 109.08C149.488 109.827 149.715 110.467 150.168 111C150.648 111.507 151.221 111.947 151.888 112.32C152.581 112.693 153.315 113.013 154.088 113.28C154.861 113.52 155.568 113.747 156.208 113.96ZM180.44 123.2C180.44 123.413 180.48 123.6 180.56 123.76C180.613 123.92 180.706 124.067 180.84 124.2C181 124.307 181.2 124.36 181.44 124.36V124.76H175.68V124.36C175.946 124.36 176.146 124.307 176.28 124.2C176.44 124.067 176.546 123.92 176.6 123.76C176.68 123.6 176.72 123.413 176.72 123.2V98.28C176.72 98.0667 176.68 97.88 176.6 97.72C176.546 97.5867 176.44 97.4667 176.28 97.36C176.146 97.2267 175.946 97.16 175.68 97.16V96.76H179.64C179.826 96.76 180.013 96.8267 180.2 96.96C180.36 97.1733 180.44 97.36 180.44 97.52V123.2ZM193.204 105.24C194.858 105.24 196.271 105.507 197.444 106.04C198.644 106.547 199.618 107.253 200.364 108.16C201.138 109.067 201.698 110.133 202.044 111.36C202.391 112.56 202.564 113.84 202.564 115.2C202.564 116.587 202.391 117.893 202.044 119.12C201.698 120.32 201.138 121.373 200.364 122.28C199.618 123.187 198.658 123.907 197.484 124.44C196.311 124.947 194.884 125.2 193.204 125.2C191.551 125.2 190.124 124.947 188.924 124.44C187.751 123.907 186.791 123.187 186.044 122.28C185.298 121.373 184.751 120.32 184.404 119.12C184.058 117.893 183.884 116.587 183.884 115.2C183.884 113.84 184.058 112.56 184.404 111.36C184.751 110.133 185.298 109.067 186.044 108.16C186.791 107.253 187.751 106.547 188.924 106.04C190.124 105.507 191.551 105.24 193.204 105.24ZM193.204 124.56C194.138 124.56 194.938 124.32 195.604 123.84C196.298 123.333 196.858 122.667 197.284 121.84C197.738 120.987 198.071 119.987 198.284 118.84C198.498 117.693 198.604 116.48 198.604 115.2C198.604 113.92 198.498 112.72 198.284 111.6C198.071 110.453 197.738 109.467 197.284 108.64C196.858 107.787 196.298 107.12 195.604 106.64C194.938 106.133 194.138 105.88 193.204 105.88C192.298 105.88 191.498 106.133 190.804 106.64C190.138 107.12 189.578 107.787 189.124 108.64C188.698 109.467 188.378 110.453 188.164 111.6C187.951 112.72 187.844 113.92 187.844 115.2C187.844 116.48 187.951 117.693 188.164 118.84C188.378 119.987 188.698 120.987 189.124 121.84C189.578 122.667 190.138 123.333 190.804 123.84C191.498 124.32 192.298 124.56 193.204 124.56ZM222.503 123.2C222.503 123.413 222.543 123.6 222.623 123.76C222.703 123.92 222.809 124.067 222.943 124.2C223.076 124.307 223.276 124.36 223.543 124.36V124.76H217.783V124.36C218.049 124.36 218.249 124.307 218.383 124.2C218.516 124.067 218.609 123.92 218.663 123.76C218.743 123.6 218.783 123.413 218.783 123.2V109.52C218.783 109.093 218.689 108.667 218.503 108.24C218.343 107.813 218.089 107.427 217.743 107.08C217.423 106.733 217.023 106.453 216.543 106.24C216.063 106.027 215.503 105.92 214.863 105.92C214.036 105.92 213.289 106.093 212.623 106.44C211.983 106.787 211.423 107.213 210.943 107.72C210.489 108.2 210.143 108.72 209.903 109.28C209.663 109.84 209.543 110.333 209.543 110.76V123.2C209.543 123.413 209.583 123.6 209.663 123.76C209.716 123.92 209.809 124.067 209.943 124.2C210.103 124.307 210.303 124.36 210.543 124.36V124.76H204.783V124.36C205.049 124.36 205.249 124.307 205.383 124.2C205.543 124.067 205.649 123.92 205.703 123.76C205.783 123.6 205.823 123.413 205.823 123.2V107.2C205.823 106.987 205.783 106.8 205.703 106.64C205.649 106.507 205.543 106.387 205.383 106.28C205.249 106.147 205.049 106.08 204.783 106.08V105.64H208.743C208.956 105.64 209.143 105.72 209.303 105.88C209.463 106.04 209.543 106.227 209.543 106.44V108.64C210.103 107.52 210.903 106.667 211.943 106.08C213.009 105.467 214.169 105.187 215.423 105.24C216.329 105.24 217.209 105.373 218.063 105.64C218.916 105.907 219.663 106.307 220.303 106.84C220.969 107.347 221.503 107.987 221.903 108.76C222.303 109.507 222.503 110.387 222.503 111.4V123.2ZM244.881 107.8C244.881 107.267 244.654 106.773 244.201 106.32C243.748 105.867 243.214 105.64 242.601 105.64C242.281 105.64 241.948 105.72 241.601 105.88C241.281 106.013 240.974 106.253 240.681 106.6C241.801 107.293 242.641 108.213 243.201 109.36C243.788 110.48 244.081 111.8 244.081 113.32C244.081 114.52 243.881 115.613 243.481 116.6C243.108 117.587 242.534 118.44 241.761 119.16C241.014 119.88 240.081 120.44 238.961 120.84C237.868 121.213 236.601 121.4 235.161 121.4C233.108 121.48 231.214 120.987 229.481 119.92L228.521 121.24C227.988 121.933 227.828 122.4 228.041 122.64C228.281 122.853 228.761 122.973 229.481 123H238.921C239.934 123 240.801 123.16 241.521 123.48C242.268 123.773 242.881 124.187 243.361 124.72C243.841 125.227 244.188 125.813 244.401 126.48C244.641 127.147 244.761 127.853 244.761 128.6C244.761 129.56 244.534 130.387 244.081 131.08C243.654 131.773 243.068 132.333 242.321 132.76C241.601 133.213 240.748 133.547 239.761 133.76C238.774 133.973 237.734 134.08 236.641 134.08C234.801 134.08 232.934 133.827 231.041 133.32C229.174 132.813 227.561 132.093 226.201 131.16L228.721 128.24C228.828 128.453 229.068 128.84 229.441 129.4C229.841 129.96 230.374 130.547 231.041 131.16C231.708 131.773 232.521 132.307 233.481 132.76C234.468 133.24 235.614 133.48 236.921 133.48C238.174 133.48 239.254 133.347 240.161 133.08C241.068 132.813 241.814 132.467 242.401 132.04C242.988 131.613 243.414 131.133 243.681 130.6C243.974 130.093 244.121 129.573 244.121 129.04C244.121 128.213 243.881 127.613 243.401 127.24C242.921 126.893 242.214 126.72 241.281 126.72H229.081C228.841 126.72 228.548 126.693 228.201 126.64C227.854 126.613 227.534 126.52 227.241 126.36C226.948 126.2 226.694 125.947 226.481 125.6C226.268 125.28 226.161 124.84 226.161 124.28C226.161 123.96 226.188 123.68 226.241 123.44C226.294 123.2 226.388 122.96 226.521 122.72C226.654 122.48 226.841 122.213 227.081 121.92C227.321 121.6 227.628 121.213 228.001 120.76L228.961 119.56C227.121 118.093 226.201 116.013 226.201 113.32C226.201 110.813 226.961 108.84 228.481 107.4C230.001 105.96 232.214 105.24 235.121 105.24C236.854 105.187 238.521 105.533 240.121 106.28C240.734 105.48 241.361 104.933 242.001 104.64C242.668 104.32 243.308 104.16 243.921 104.16C244.534 104.16 245.068 104.267 245.521 104.48C246.001 104.693 246.388 104.947 246.681 105.24L244.881 107.8ZM235.121 120.76C236.748 120.76 237.948 120.107 238.721 118.8C239.521 117.493 239.921 115.667 239.921 113.32C239.921 110.973 239.521 109.147 238.721 107.84C237.948 106.533 236.748 105.88 235.121 105.88C233.521 105.88 232.321 106.533 231.521 107.84C230.748 109.147 230.361 110.973 230.361 113.32C230.361 115.667 230.748 117.493 231.521 118.8C232.321 120.107 233.521 120.76 235.121 120.76ZM274.743 123.2C274.743 123.413 274.783 123.6 274.863 123.76C274.943 123.92 275.049 124.067 275.183 124.2C275.316 124.307 275.516 124.36 275.783 124.36V124.76H271.823C271.609 124.76 271.423 124.68 271.263 124.52C271.103 124.36 271.023 124.173 271.023 123.96V121.2C270.729 122 270.356 122.653 269.903 123.16C269.476 123.667 269.009 124.08 268.503 124.4C268.023 124.693 267.516 124.893 266.983 125C266.449 125.133 265.943 125.2 265.463 125.2C265.383 125.2 265.156 125.2 264.783 125.2C264.409 125.2 263.956 125.173 263.423 125.12C262.916 125.067 262.369 124.96 261.783 124.8C261.196 124.613 260.649 124.347 260.143 124C259.663 123.653 259.263 123.2 258.943 122.64C258.623 122.08 258.463 121.373 258.463 120.52C258.463 119.667 258.636 118.933 258.983 118.32C259.356 117.68 259.889 117.093 260.583 116.56C261.303 116 262.183 115.467 263.223 114.96C264.289 114.427 265.529 113.853 266.943 113.24C268.383 112.627 269.423 112.107 270.063 111.68C270.703 111.253 271.023 110.667 271.023 109.92V109.52C271.023 109.093 270.929 108.667 270.743 108.24C270.583 107.787 270.316 107.387 269.943 107.04C269.596 106.693 269.156 106.413 268.623 106.2C268.116 105.987 267.516 105.88 266.823 105.88C266.023 105.88 265.329 106.027 264.743 106.32C264.156 106.587 263.663 106.96 263.263 107.44C262.889 107.893 262.609 108.427 262.423 109.04C262.263 109.653 262.183 110.293 262.183 110.96L259.183 109.92C259.316 109.52 259.556 109.053 259.903 108.52C260.276 107.987 260.783 107.48 261.423 107C262.063 106.493 262.863 106.08 263.823 105.76C264.809 105.413 265.996 105.24 267.383 105.24C268.743 105.24 269.889 105.427 270.823 105.8C271.756 106.173 272.516 106.667 273.103 107.28C273.689 107.867 274.103 108.52 274.343 109.24C274.609 109.933 274.743 110.627 274.743 111.32V123.2ZM271.023 111.64C270.729 111.933 270.289 112.24 269.703 112.56C269.143 112.853 268.369 113.24 267.383 113.72C266.289 114.253 265.409 114.853 264.743 115.52C264.103 116.187 263.609 116.853 263.263 117.52C262.916 118.16 262.689 118.773 262.583 119.36C262.476 119.92 262.423 120.373 262.423 120.72C262.423 121.04 262.463 121.427 262.543 121.88C262.623 122.307 262.783 122.72 263.023 123.12C263.289 123.52 263.649 123.867 264.103 124.16C264.556 124.427 265.156 124.56 265.903 124.56C266.916 124.56 267.756 124.32 268.423 123.84C269.089 123.333 269.609 122.76 269.983 122.12C270.356 121.453 270.623 120.813 270.783 120.2C270.943 119.56 271.023 119.107 271.023 118.84V111.64ZM287.855 113.96C288.895 114.307 289.788 114.667 290.535 115.04C291.282 115.413 291.895 115.84 292.375 116.32C292.855 116.773 293.202 117.293 293.415 117.88C293.628 118.467 293.735 119.147 293.735 119.92C293.735 120.853 293.508 121.653 293.055 122.32C292.628 122.987 292.055 123.533 291.335 123.96C290.615 124.387 289.788 124.707 288.855 124.92C287.948 125.107 287.028 125.2 286.095 125.2C284.548 125.253 283.068 124.973 281.655 124.36C280.242 123.747 279.015 122.867 277.975 121.72L280.095 119.48C280.175 120.227 280.388 120.92 280.735 121.56C281.082 122.173 281.522 122.707 282.055 123.16C282.588 123.613 283.202 123.973 283.895 124.24C284.588 124.48 285.308 124.587 286.055 124.56C287.468 124.56 288.642 124.32 289.575 123.84C290.508 123.333 290.975 122.493 290.975 121.32C290.975 120.733 290.802 120.213 290.455 119.76C290.108 119.307 289.655 118.907 289.095 118.56C288.535 118.187 287.882 117.867 287.135 117.6C286.388 117.307 285.615 117.027 284.815 116.76C283.748 116.413 282.815 116.067 282.015 115.72C281.242 115.373 280.588 114.987 280.055 114.56C279.548 114.107 279.162 113.587 278.895 113C278.628 112.387 278.495 111.667 278.495 110.84C278.495 109.88 278.695 109.053 279.095 108.36C279.495 107.64 280.028 107.053 280.695 106.6C281.388 106.12 282.175 105.773 283.055 105.56C283.962 105.347 284.895 105.24 285.855 105.24C287.295 105.187 288.668 105.44 289.975 106C291.308 106.533 292.455 107.333 293.415 108.4L291.495 110.44C291.495 110.227 291.428 109.88 291.295 109.4C291.188 108.893 290.935 108.387 290.535 107.88C290.162 107.347 289.602 106.88 288.855 106.48C288.108 106.08 287.095 105.88 285.815 105.88C285.335 105.88 284.815 105.933 284.255 106.04C283.722 106.147 283.215 106.32 282.735 106.56C282.282 106.8 281.895 107.133 281.575 107.56C281.282 107.96 281.135 108.467 281.135 109.08C281.135 109.827 281.362 110.467 281.815 111C282.295 111.507 282.868 111.947 283.535 112.32C284.228 112.693 284.962 113.013 285.735 113.28C286.508 113.52 287.215 113.747 287.855 113.96ZM326.447 105.64V106.08C325.807 106.053 325.22 106.213 324.687 106.56C324.153 106.88 323.767 107.333 323.527 107.92C322.007 111.253 320.593 114.347 319.287 117.2C318.727 118.4 318.167 119.613 317.607 120.84C317.073 122.067 316.553 123.227 316.047 124.32C315.567 125.387 315.14 126.333 314.767 127.16C314.393 127.987 314.113 128.613 313.927 129.04C313.207 130.613 312.433 131.84 311.607 132.72C310.78 133.627 309.687 134.093 308.327 134.12L307.167 131.16C307.593 131.267 307.98 131.347 308.327 131.4C308.7 131.453 309.047 131.48 309.367 131.48C310.353 131.48 311.18 131.2 311.847 130.64C312.513 130.107 313.127 129.213 313.687 127.96C313.9 127.507 314.127 127.013 314.367 126.48C314.607 125.973 314.86 125.413 315.127 124.8L307.007 107.2C306.793 106.747 306.567 106.453 306.327 106.32C306.113 106.16 305.847 106.08 305.527 106.08V105.64H311.927V106.08C311.553 106.08 311.3 106.173 311.167 106.36C311.033 106.52 310.993 106.72 311.047 106.96L317.207 120.24L322.807 108C323.02 107.52 323.007 107.08 322.767 106.68C322.553 106.28 322.073 106.08 321.327 106.08V105.64H326.447ZM335.789 105.24C337.442 105.24 338.855 105.507 340.029 106.04C341.229 106.547 342.202 107.253 342.949 108.16C343.722 109.067 344.282 110.133 344.629 111.36C344.975 112.56 345.149 113.84 345.149 115.2C345.149 116.587 344.975 117.893 344.629 119.12C344.282 120.32 343.722 121.373 342.949 122.28C342.202 123.187 341.242 123.907 340.069 124.44C338.895 124.947 337.469 125.2 335.789 125.2C334.135 125.2 332.709 124.947 331.509 124.44C330.335 123.907 329.375 123.187 328.629 122.28C327.882 121.373 327.335 120.32 326.989 119.12C326.642 117.893 326.469 116.587 326.469 115.2C326.469 113.84 326.642 112.56 326.989 111.36C327.335 110.133 327.882 109.067 328.629 108.16C329.375 107.253 330.335 106.547 331.509 106.04C332.709 105.507 334.135 105.24 335.789 105.24ZM335.789 124.56C336.722 124.56 337.522 124.32 338.189 123.84C338.882 123.333 339.442 122.667 339.869 121.84C340.322 120.987 340.655 119.987 340.869 118.84C341.082 117.693 341.189 116.48 341.189 115.2C341.189 113.92 341.082 112.72 340.869 111.6C340.655 110.453 340.322 109.467 339.869 108.64C339.442 107.787 338.882 107.12 338.189 106.64C337.522 106.133 336.722 105.88 335.789 105.88C334.882 105.88 334.082 106.133 333.389 106.64C332.722 107.12 332.162 107.787 331.709 108.64C331.282 109.467 330.962 110.453 330.749 111.6C330.535 112.72 330.429 113.92 330.429 115.2C330.429 116.48 330.535 117.693 330.749 118.84C330.962 119.987 331.282 120.987 331.709 121.84C332.162 122.667 332.722 123.333 333.389 123.84C334.082 124.32 334.882 124.56 335.789 124.56ZM364.887 123.2C364.887 123.413 364.927 123.6 365.007 123.76C365.087 123.92 365.194 124.067 365.327 124.2C365.461 124.307 365.661 124.36 365.927 124.36V124.76H361.967C361.754 124.76 361.567 124.68 361.407 124.52C361.247 124.36 361.167 124.173 361.167 123.96V121.8C360.607 122.893 359.794 123.747 358.727 124.36C357.687 124.973 356.541 125.253 355.287 125.2C354.887 125.173 354.474 125.133 354.047 125.08C353.647 125.053 353.247 124.987 352.847 124.88C352.181 124.72 351.554 124.467 350.967 124.12C350.407 123.747 349.914 123.307 349.487 122.8C349.087 122.267 348.767 121.68 348.527 121.04C348.314 120.4 348.207 119.733 348.207 119.04V107.2C348.207 106.987 348.167 106.8 348.087 106.64C348.034 106.507 347.927 106.387 347.767 106.28C347.634 106.147 347.434 106.08 347.167 106.08V105.64H351.127C351.287 105.64 351.474 105.72 351.687 105.88C351.847 106.093 351.914 106.28 351.887 106.44V120.88C351.887 121.307 351.967 121.747 352.127 122.2C352.314 122.627 352.581 123.013 352.927 123.36C353.274 123.707 353.687 123.987 354.167 124.2C354.647 124.413 355.207 124.52 355.847 124.52C356.674 124.52 357.407 124.347 358.047 124C358.714 123.653 359.274 123.227 359.727 122.72C360.207 122.213 360.567 121.693 360.807 121.16C361.047 120.6 361.167 120.107 361.167 119.68V107.2C361.167 106.987 361.127 106.8 361.047 106.64C360.994 106.507 360.901 106.387 360.767 106.28C360.634 106.147 360.434 106.08 360.167 106.08V105.64H364.087C364.301 105.64 364.487 105.72 364.647 105.88C364.807 106.04 364.887 106.227 364.887 106.44V123.2ZM398.382 97.16C398.142 97.16 397.942 97.2267 397.782 97.36C397.649 97.4667 397.556 97.5867 397.502 97.72C397.422 97.88 397.382 98.0667 397.382 98.28V123.2C397.382 123.413 397.422 123.6 397.502 123.76C397.556 123.92 397.649 124.067 397.782 124.2C397.942 124.307 398.142 124.36 398.382 124.36V124.76H394.462C394.249 124.76 394.062 124.68 393.902 124.52C393.742 124.36 393.662 124.173 393.662 123.96V120.84C393.476 121.427 393.209 121.987 392.862 122.52C392.542 123.027 392.129 123.48 391.622 123.88C391.142 124.28 390.556 124.6 389.862 124.84C389.169 125.08 388.356 125.2 387.422 125.2C386.222 125.2 385.129 124.947 384.142 124.44C383.156 123.907 382.302 123.187 381.582 122.28C380.889 121.373 380.342 120.32 379.942 119.12C379.542 117.893 379.342 116.587 379.342 115.2C379.342 113.813 379.542 112.52 379.942 111.32C380.369 110.093 380.956 109.04 381.702 108.16C382.476 107.253 383.409 106.547 384.502 106.04C385.622 105.507 386.862 105.24 388.222 105.24C388.996 105.24 389.676 105.347 390.262 105.56C390.849 105.773 391.356 106.053 391.782 106.4C392.236 106.747 392.609 107.133 392.902 107.56C393.222 107.987 393.476 108.413 393.662 108.84V97.52C393.662 97.3067 393.742 97.12 393.902 96.96C394.062 96.8 394.249 96.72 394.462 96.72H398.382V97.16ZM393.662 111.16C393.662 110.84 393.556 110.387 393.342 109.8C393.156 109.213 392.862 108.627 392.462 108.04C392.062 107.453 391.542 106.947 390.902 106.52C390.289 106.093 389.542 105.88 388.662 105.88C387.809 105.88 387.049 106.133 386.382 106.64C385.716 107.12 385.156 107.787 384.702 108.64C384.249 109.467 383.902 110.453 383.662 111.6C383.422 112.72 383.302 113.92 383.302 115.2C383.302 116.48 383.396 117.68 383.582 118.8C383.796 119.92 384.116 120.893 384.542 121.72C384.996 122.547 385.556 123.2 386.222 123.68C386.889 124.133 387.676 124.36 388.582 124.36C390.182 124.36 391.422 123.707 392.302 122.4C393.209 121.067 393.662 119.16 393.662 116.68V111.16ZM410.128 105.24C411.781 105.24 413.194 105.507 414.368 106.04C415.568 106.547 416.541 107.253 417.288 108.16C418.061 109.067 418.621 110.133 418.968 111.36C419.314 112.56 419.488 113.84 419.488 115.2C419.488 116.587 419.314 117.893 418.968 119.12C418.621 120.32 418.061 121.373 417.288 122.28C416.541 123.187 415.581 123.907 414.408 124.44C413.234 124.947 411.808 125.2 410.128 125.2C408.474 125.2 407.048 124.947 405.848 124.44C404.674 123.907 403.714 123.187 402.968 122.28C402.221 121.373 401.674 120.32 401.328 119.12C400.981 117.893 400.808 116.587 400.808 115.2C400.808 113.84 400.981 112.56 401.328 111.36C401.674 110.133 402.221 109.067 402.968 108.16C403.714 107.253 404.674 106.547 405.848 106.04C407.048 105.507 408.474 105.24 410.128 105.24ZM410.128 124.56C411.061 124.56 411.861 124.32 412.528 123.84C413.221 123.333 413.781 122.667 414.208 121.84C414.661 120.987 414.994 119.987 415.208 118.84C415.421 117.693 415.528 116.48 415.528 115.2C415.528 113.92 415.421 112.72 415.208 111.6C414.994 110.453 414.661 109.467 414.208 108.64C413.781 107.787 413.221 107.12 412.528 106.64C411.861 106.133 411.061 105.88 410.128 105.88C409.221 105.88 408.421 106.133 407.728 106.64C407.061 107.12 406.501 107.787 406.048 108.64C405.621 109.467 405.301 110.453 405.088 111.6C404.874 112.72 404.768 113.92 404.768 115.2C404.768 116.48 404.874 117.693 405.088 118.84C405.301 119.987 405.621 120.987 406.048 121.84C406.501 122.667 407.061 123.333 407.728 123.84C408.421 124.32 409.221 124.56 410.128 124.56ZM450.618 123.2C450.618 123.413 450.658 123.6 450.738 123.76C450.818 123.92 450.925 124.067 451.058 124.2C451.192 124.307 451.392 124.36 451.658 124.36V124.76H445.898V124.36C446.165 124.36 446.365 124.307 446.498 124.2C446.632 124.067 446.725 123.92 446.778 123.76C446.858 123.6 446.898 123.413 446.898 123.2V109.52C446.898 109.093 446.805 108.667 446.618 108.24C446.458 107.813 446.205 107.427 445.858 107.08C445.538 106.733 445.138 106.453 444.658 106.24C444.178 106.027 443.618 105.92 442.978 105.92C442.152 105.92 441.405 106.093 440.738 106.44C440.098 106.787 439.538 107.213 439.058 107.72C438.605 108.2 438.258 108.72 438.018 109.28C437.778 109.84 437.658 110.333 437.658 110.76V123.2C437.658 123.413 437.698 123.6 437.778 123.76C437.832 123.92 437.925 124.067 438.058 124.2C438.218 124.307 438.418 124.36 438.658 124.36V124.76H432.898V124.36C433.165 124.36 433.365 124.307 433.498 124.2C433.658 124.067 433.765 123.92 433.818 123.76C433.898 123.6 433.938 123.413 433.938 123.2V107.2C433.938 106.987 433.898 106.8 433.818 106.64C433.765 106.507 433.658 106.387 433.498 106.28C433.365 106.147 433.165 106.08 432.898 106.08V105.64H436.858C437.072 105.64 437.258 105.72 437.418 105.88C437.578 106.04 437.658 106.227 437.658 106.44V108.64C438.218 107.52 439.018 106.667 440.058 106.08C441.125 105.467 442.285 105.187 443.538 105.24C444.445 105.24 445.325 105.373 446.178 105.64C447.032 105.907 447.778 106.307 448.418 106.84C449.085 107.347 449.618 107.987 450.018 108.76C450.418 109.507 450.618 110.387 450.618 111.4V123.2ZM463.197 105.24C464.85 105.24 466.263 105.507 467.437 106.04C468.637 106.547 469.61 107.253 470.357 108.16C471.13 109.067 471.69 110.133 472.037 111.36C472.383 112.56 472.557 113.84 472.557 115.2C472.557 116.587 472.383 117.893 472.037 119.12C471.69 120.32 471.13 121.373 470.357 122.28C469.61 123.187 468.65 123.907 467.477 124.44C466.303 124.947 464.877 125.2 463.197 125.2C461.543 125.2 460.117 124.947 458.917 124.44C457.743 123.907 456.783 123.187 456.037 122.28C455.29 121.373 454.743 120.32 454.397 119.12C454.05 117.893 453.877 116.587 453.877 115.2C453.877 113.84 454.05 112.56 454.397 111.36C454.743 110.133 455.29 109.067 456.037 108.16C456.783 107.253 457.743 106.547 458.917 106.04C460.117 105.507 461.543 105.24 463.197 105.24ZM463.197 124.56C464.13 124.56 464.93 124.32 465.597 123.84C466.29 123.333 466.85 122.667 467.277 121.84C467.73 120.987 468.063 119.987 468.277 118.84C468.49 117.693 468.597 116.48 468.597 115.2C468.597 113.92 468.49 112.72 468.277 111.6C468.063 110.453 467.73 109.467 467.277 108.64C466.85 107.787 466.29 107.12 465.597 106.64C464.93 106.133 464.13 105.88 463.197 105.88C462.29 105.88 461.49 106.133 460.797 106.64C460.13 107.12 459.57 107.787 459.117 108.64C458.69 109.467 458.37 110.453 458.157 111.6C457.943 112.72 457.837 113.92 457.837 115.2C457.837 116.48 457.943 117.693 458.157 118.84C458.37 119.987 458.69 120.987 459.117 121.84C459.57 122.667 460.13 123.333 460.797 123.84C461.49 124.32 462.29 124.56 463.197 124.56ZM484.984 124.44C484.104 125 483.144 125.253 482.104 125.2C480.611 125.2 479.464 124.933 478.664 124.4C477.891 123.867 477.318 123.28 476.944 122.64C476.518 121.92 476.278 121.08 476.224 120.12V106.28H473.384V105.64H476.224V101.52L479.944 99.72V105.64H484.864V106.28H479.944V120.96C479.944 121.173 479.971 121.48 480.024 121.88C480.078 122.28 480.198 122.68 480.384 123.08C480.598 123.453 480.891 123.787 481.264 124.08C481.638 124.373 482.144 124.52 482.784 124.52C483.104 124.52 483.424 124.48 483.744 124.4C484.064 124.32 484.358 124.187 484.624 124L484.984 124.44ZM507.103 113.96C508.143 114.307 509.037 114.667 509.783 115.04C510.53 115.413 511.143 115.84 511.623 116.32C512.103 116.773 512.45 117.293 512.663 117.88C512.877 118.467 512.983 119.147 512.983 119.92C512.983 120.853 512.757 121.653 512.303 122.32C511.877 122.987 511.303 123.533 510.583 123.96C509.863 124.387 509.037 124.707 508.103 124.92C507.197 125.107 506.277 125.2 505.343 125.2C503.797 125.253 502.317 124.973 500.903 124.36C499.49 123.747 498.263 122.867 497.223 121.72L499.343 119.48C499.423 120.227 499.637 120.92 499.983 121.56C500.33 122.173 500.77 122.707 501.303 123.16C501.837 123.613 502.45 123.973 503.143 124.24C503.837 124.48 504.557 124.587 505.303 124.56C506.717 124.56 507.89 124.32 508.823 123.84C509.757 123.333 510.223 122.493 510.223 121.32C510.223 120.733 510.05 120.213 509.703 119.76C509.357 119.307 508.903 118.907 508.343 118.56C507.783 118.187 507.13 117.867 506.383 117.6C505.637 117.307 504.863 117.027 504.063 116.76C502.997 116.413 502.063 116.067 501.263 115.72C500.49 115.373 499.837 114.987 499.303 114.56C498.797 114.107 498.41 113.587 498.143 113C497.877 112.387 497.743 111.667 497.743 110.84C497.743 109.88 497.943 109.053 498.343 108.36C498.743 107.64 499.277 107.053 499.943 106.6C500.637 106.12 501.423 105.773 502.303 105.56C503.21 105.347 504.143 105.24 505.103 105.24C506.543 105.187 507.917 105.44 509.223 106C510.557 106.533 511.703 107.333 512.663 108.4L510.743 110.44C510.743 110.227 510.677 109.88 510.543 109.4C510.437 108.893 510.183 108.387 509.783 107.88C509.41 107.347 508.85 106.88 508.103 106.48C507.357 106.08 506.343 105.88 505.063 105.88C504.583 105.88 504.063 105.933 503.503 106.04C502.97 106.147 502.463 106.32 501.983 106.56C501.53 106.8 501.143 107.133 500.823 107.56C500.53 107.96 500.383 108.467 500.383 109.08C500.383 109.827 500.61 110.467 501.063 111C501.543 111.507 502.117 111.947 502.783 112.32C503.477 112.693 504.21 113.013 504.983 113.28C505.757 113.52 506.463 113.747 507.103 113.96ZM526.178 124.44C525.298 125 524.338 125.253 523.298 125.2C521.805 125.2 520.658 124.933 519.858 124.4C519.085 123.867 518.511 123.28 518.138 122.64C517.711 121.92 517.471 121.08 517.418 120.12V106.28H514.578V105.64H517.418V101.52L521.138 99.72V105.64H526.058V106.28H521.138V120.96C521.138 121.173 521.165 121.48 521.218 121.88C521.271 122.28 521.391 122.68 521.578 123.08C521.791 123.453 522.085 123.787 522.458 124.08C522.831 124.373 523.338 124.52 523.978 124.52C524.298 124.52 524.618 124.48 524.938 124.4C525.258 124.32 525.551 124.187 525.818 124L526.178 124.44ZM536.54 105.24C538.194 105.24 539.607 105.507 540.78 106.04C541.98 106.547 542.954 107.253 543.7 108.16C544.474 109.067 545.034 110.133 545.38 111.36C545.727 112.56 545.9 113.84 545.9 115.2C545.9 116.587 545.727 117.893 545.38 119.12C545.034 120.32 544.474 121.373 543.7 122.28C542.954 123.187 541.994 123.907 540.82 124.44C539.647 124.947 538.22 125.2 536.54 125.2C534.887 125.2 533.46 124.947 532.26 124.44C531.087 123.907 530.127 123.187 529.38 122.28C528.634 121.373 528.087 120.32 527.74 119.12C527.394 117.893 527.22 116.587 527.22 115.2C527.22 113.84 527.394 112.56 527.74 111.36C528.087 110.133 528.634 109.067 529.38 108.16C530.127 107.253 531.087 106.547 532.26 106.04C533.46 105.507 534.887 105.24 536.54 105.24ZM536.54 124.56C537.474 124.56 538.274 124.32 538.94 123.84C539.634 123.333 540.194 122.667 540.62 121.84C541.074 120.987 541.407 119.987 541.62 118.84C541.834 117.693 541.94 116.48 541.94 115.2C541.94 113.92 541.834 112.72 541.62 111.6C541.407 110.453 541.074 109.467 540.62 108.64C540.194 107.787 539.634 107.12 538.94 106.64C538.274 106.133 537.474 105.88 536.54 105.88C535.634 105.88 534.834 106.133 534.14 106.64C533.474 107.12 532.914 107.787 532.46 108.64C532.034 109.467 531.714 110.453 531.5 111.6C531.287 112.72 531.18 113.92 531.18 115.2C531.18 116.48 531.287 117.693 531.5 118.84C531.714 119.987 532.034 120.987 532.46 121.84C532.914 122.667 533.474 123.333 534.14 123.84C534.834 124.32 535.634 124.56 536.54 124.56ZM559.079 105.24C560.279 105.24 561.372 105.507 562.359 106.04C563.345 106.547 564.199 107.253 564.919 108.16C565.639 109.067 566.185 110.133 566.559 111.36C566.959 112.56 567.159 113.84 567.159 115.2C567.159 116.587 566.945 117.893 566.519 119.12C566.119 120.32 565.532 121.373 564.759 122.28C564.012 123.187 563.092 123.907 561.999 124.44C560.905 124.947 559.665 125.2 558.279 125.2C557.532 125.2 556.865 125.093 556.279 124.88C555.692 124.667 555.172 124.387 554.719 124.04C554.292 123.693 553.919 123.307 553.599 122.88C553.305 122.453 553.052 122.027 552.839 121.6V132.12C552.839 132.333 552.879 132.533 552.959 132.72C553.039 132.853 553.145 132.973 553.279 133.08C553.412 133.213 553.612 133.28 553.879 133.28V133.68H548.119V133.28C548.385 133.28 548.585 133.213 548.719 133.08C548.879 132.973 548.985 132.853 549.039 132.72C549.119 132.533 549.159 132.333 549.159 132.12V107.2C549.159 106.987 549.119 106.8 549.039 106.64C548.985 106.507 548.879 106.387 548.719 106.28C548.585 106.147 548.385 106.08 548.119 106.08V105.64H552.079C552.239 105.64 552.425 105.72 552.639 105.88C552.799 106.093 552.865 106.28 552.839 106.44V109.56C553.052 109 553.319 108.467 553.639 107.96C553.959 107.427 554.359 106.96 554.839 106.56C555.345 106.16 555.945 105.84 556.639 105.6C557.332 105.36 558.145 105.24 559.079 105.24ZM557.839 124.56C558.692 124.56 559.452 124.32 560.119 123.84C560.785 123.333 561.345 122.667 561.799 121.84C562.279 120.987 562.639 119.987 562.879 118.84C563.119 117.693 563.239 116.48 563.239 115.2C563.239 113.92 563.132 112.72 562.919 111.6C562.732 110.48 562.412 109.507 561.959 108.68C561.532 107.853 560.985 107.213 560.319 106.76C559.679 106.28 558.892 106.04 557.959 106.04C556.359 106.04 555.105 106.707 554.199 108.04C553.319 109.347 552.879 111.253 552.879 113.76V119.24C552.879 119.56 552.972 120.027 553.159 120.64C553.372 121.227 553.679 121.813 554.079 122.4C554.479 122.96 554.985 123.467 555.599 123.92C556.239 124.347 556.985 124.56 557.839 124.56ZM571.744 120.52C572.384 120.547 572.931 120.787 573.384 121.24C573.838 121.693 574.064 122.24 574.064 122.88C574.064 123.52 573.838 124.067 573.384 124.52C572.958 124.973 572.424 125.2 571.784 125.2C571.118 125.2 570.558 124.973 570.104 124.52C569.758 124.173 569.531 123.773 569.424 123.32C569.344 122.867 569.398 122.413 569.584 121.96C569.798 121.533 570.091 121.187 570.464 120.92C570.864 120.653 571.291 120.52 571.744 120.52Z" fill="#F9DDFF"/>
<path opacity="0.6" d="M1.312 162.256V161.392H9.072V162.256H5.84V164.144C5.84 164.544 5.952 164.784 6.272 165.04C7.072 165.712 8.368 166.512 9.616 167.104L9.12 167.952C7.856 167.296 6.24 166.288 5.296 165.504C4.256 166.368 2.64 167.424 1.264 168.144L0.736 167.312C2.032 166.672 3.472 165.744 4.304 165.04C4.608 164.784 4.736 164.544 4.736 164.144V162.256H1.312ZM8.432 164.64V163.776H11.488V159.184H12.56V169.936H11.488V164.64H8.432ZM13.04 173.984H4.56C4.48 173.984 4.4 173.968 4.288 173.872C4.192 173.792 4.032 173.632 3.952 173.536C3.888 173.456 3.856 173.36 3.856 173.28V169.296H4.96V172.944C4.96 173.072 5.024 173.12 5.136 173.12H13.04V173.984ZM7.472 160.16H4.928C4.224 160.16 3.36 160.032 2.768 159.808L2.976 158.976C3.584 159.168 4.368 159.28 5.024 159.28H7.472V160.16ZM15.5545 162.256V161.392H23.3145V162.256H20.0825V164.144C20.0825 164.544 20.1945 164.784 20.5145 165.04C21.3145 165.712 22.6105 166.512 23.8585 167.104L23.3625 167.952C22.0985 167.296 20.4825 166.288 19.5385 165.504C18.4985 166.368 16.8825 167.424 15.5065 168.144L14.9785 167.312C16.2745 166.672 17.7145 165.744 18.5465 165.04C18.8505 164.784 18.9785 164.544 18.9785 164.144V162.256H15.5545ZM22.6745 164.64V163.776H25.7305V159.184H26.8025V169.936H25.7305V164.64H22.6745ZM27.2825 173.984H18.8025C18.7225 173.984 18.6425 173.968 18.5305 173.872C18.4345 173.792 18.2745 173.632 18.1945 173.536C18.1305 173.456 18.0985 173.36 18.0985 173.28V169.296H19.2025V172.944C19.2025 173.072 19.2665 173.12 19.3785 173.12H27.2825V173.984ZM21.7145 160.16H19.1705C18.4665 160.16 17.6025 160.032 17.0105 159.808L17.2185 158.976C17.8265 159.168 18.6105 159.28 19.2665 159.28H21.7145V160.16ZM41.045 159.184V173.92H39.973V159.184H41.045ZM29.269 161.856H38.197V162.72H29.269V161.856ZM36.277 167.024C36.277 165.6 35.301 164.576 33.813 164.576C32.325 164.576 31.349 165.6 31.349 167.024C31.349 168.448 32.325 169.472 33.813 169.472C35.301 169.472 36.277 168.448 36.277 167.024ZM37.349 167.024C37.349 168.912 35.973 170.336 33.813 170.336C31.653 170.336 30.277 168.912 30.277 167.024C30.277 165.136 31.653 163.712 33.813 163.712C35.973 163.712 37.349 165.136 37.349 167.024ZM36.149 160.576H33.461C32.789 160.576 31.909 160.448 31.285 160.224L31.493 159.392C32.149 159.584 32.965 159.696 33.557 159.696H36.149V160.576ZM59.0444 165.488V173.92H57.9724V159.184H59.0444V164.624H61.6844V165.488H59.0444ZM49.3644 170.176L48.6604 169.376C50.1964 168.192 52.0364 166.528 53.1564 165.296C53.7004 164.704 53.9404 164.16 53.9404 163.312V161.168H48.5804V160.304H55.0284L55.0124 163.312C55.0124 164.448 54.6604 165.184 54.0044 165.92C52.8204 167.232 50.9484 168.944 49.3644 170.176ZM70.9349 168.4L71.0149 169.216C70.1509 169.344 68.5669 169.456 67.5429 169.456H64.0069C63.9269 169.456 63.8469 169.44 63.7349 169.344C63.6389 169.264 63.4789 169.104 63.3989 169.008C63.3349 168.928 63.3029 168.832 63.3029 168.752V160.272H69.6549V161.136H64.3749V168.416C64.3749 168.544 64.4389 168.592 64.5509 168.592H67.5749C68.6309 168.592 70.0389 168.512 70.9349 168.4ZM68.3429 165.04V164.176H72.7749V159.184H73.8469V173.92H72.7749V165.04H68.3429ZM87.6094 165.152V173.92H86.5374V159.184H87.6094V164.288H90.1694V165.152H87.6094ZM85.4334 168.512L85.5134 169.328C84.6494 169.488 83.0654 169.616 82.0414 169.616H77.7694C77.6894 169.616 77.6094 169.6 77.4974 169.504C77.4014 169.424 77.2414 169.264 77.1614 169.168C77.0974 169.088 77.0654 168.992 77.0654 168.912V164.384H82.5054V161.136H77.0974V160.272H83.5774V165.216H78.1374V168.576C78.1374 168.704 78.2014 168.752 78.3134 168.752H82.0734C83.1294 168.752 84.5374 168.656 85.4334 168.512ZM101.852 167.12H97.7559V170.576H103.964V171.44H90.4119V170.576H96.6839V167.12H93.4199C93.3399 167.12 93.2599 167.104 93.1479 167.008C93.0519 166.928 92.8919 166.768 92.8119 166.672C92.7479 166.592 92.7159 166.496 92.7159 166.416V160.336H101.772V161.2H93.7879V166.08C93.7879 166.208 93.8519 166.256 93.9639 166.256H101.852V167.12ZM121.211 159.184V167.568H120.139V163.456H117.019V166.416H110.907C110.827 166.416 110.747 166.4 110.635 166.304C110.539 166.224 110.379 166.064 110.299 165.968C110.235 165.888 110.203 165.792 110.203 165.712V159.936H117.019V162.592H120.139V159.184H121.211ZM112.475 173.36V168.528H121.211V174.064H113.179C113.099 174.064 113.019 174.048 112.907 173.952C112.811 173.872 112.651 173.712 112.571 173.616C112.507 173.536 112.475 173.44 112.475 173.36ZM113.547 169.392V173.024C113.547 173.152 113.611 173.2 113.723 173.2H120.139V169.392H113.547ZM111.275 160.8V165.376C111.275 165.504 111.339 165.552 111.451 165.552H115.947V160.8H111.275ZM125.118 162.288V161.424H135.246V162.288H130.734V163.328C130.734 163.68 130.878 163.92 131.23 164.096C132.398 164.688 134.382 165.424 135.918 165.872L135.582 166.704C133.934 166.208 131.39 165.232 130.19 164.576C128.99 165.232 126.462 166.208 124.814 166.704L124.446 165.872C125.982 165.424 127.966 164.688 129.134 164.096C129.486 163.92 129.63 163.68 129.63 163.328V162.288H125.118ZM129.646 174.16V169.104H123.374V168.24H136.926V169.104H130.718V174.16H129.646ZM132.926 160.208H129.598C128.798 160.208 127.79 160.096 127.102 159.856L127.31 159.024C127.982 159.216 128.926 159.328 129.694 159.328H132.926V160.208ZM138.688 161.168V160.304H146.16V161.168H143.056V164.272C143.056 164.736 143.12 165.088 143.408 165.488C144.24 166.64 145.584 168.112 146.896 169.36L146.128 170.112C144.816 168.816 143.488 167.312 142.512 166.016C141.552 167.328 140.096 169.024 138.768 170.304L137.968 169.584C139.344 168.288 140.736 166.688 141.6 165.488C141.904 165.072 141.952 164.736 141.952 164.272V161.168H138.688ZM149.696 159.184V173.92H148.624V159.184H149.696ZM153.763 160.88V165.952C153.763 166.08 153.827 166.128 153.939 166.128H158.435V160.88H153.763ZM152.691 166.288V160.016H159.507V166.992H153.395C153.315 166.992 153.235 166.976 153.123 166.88C153.027 166.8 152.867 166.64 152.787 166.544C152.723 166.464 152.691 166.368 152.691 166.288ZM163.379 163.92V169.68H162.307V159.184H163.379V163.056H165.859V163.92H163.379ZM163.859 173.984H155.459C155.379 173.984 155.299 173.968 155.187 173.872C155.091 173.792 154.931 173.632 154.851 173.536C154.787 173.456 154.755 173.36 154.755 173.28V169.04H155.859V172.944C155.859 173.072 155.923 173.12 156.035 173.12H163.859V173.984ZM171.394 168.752V160.272H178.146V169.456H172.098C172.018 169.456 171.938 169.44 171.826 169.344C171.73 169.264 171.57 169.104 171.49 169.008C171.426 168.928 171.394 168.832 171.394 168.752ZM182.018 165.12V173.92H180.946V159.184H182.018V164.256H184.578V165.12H182.018ZM172.466 161.136V168.416C172.466 168.544 172.53 168.592 172.642 168.592H177.074V161.136H172.466ZM196.261 165.152V173.92H195.189V159.184H196.261V164.288H198.821V165.152H196.261ZM194.085 168.512L194.165 169.328C193.301 169.488 191.717 169.616 190.693 169.616H186.421C186.341 169.616 186.261 169.6 186.149 169.504C186.053 169.424 185.893 169.264 185.813 169.168C185.749 169.088 185.717 168.992 185.717 168.912V164.384H191.157V161.136H185.749V160.272H192.229V165.216H186.789V168.576C186.789 168.704 186.853 168.752 186.965 168.752H190.725C191.781 168.752 193.189 168.656 194.085 168.512ZM199.559 170.976H201.191V172.608H199.559V170.976Z" fill="#FFF9E2"/>
<g opacity="0.45" clip-path="url(#clip0_1781_529)">
<path d="M14.6872 2.20682C13.4186 3.21844 10.5996 5.09716 8.48538 7.9875C7.92158 8.71008 7.21683 10.1553 6.23018 12.612C5.38448 14.9243 4.96164 16.9475 4.82069 18.5372C8.06253 16.3695 11.4453 16.9475 13.8415 18.6817C15.9557 20.2714 17.5061 22.5837 17.5061 25.9076C17.5061 30.6766 13.5596 34.0005 9.19012 34.0005C4.53879 34.0005 1.57885 31.5437 0.310301 26.6302C-0.535397 22.8727 0.310301 14.3462 3.41119 9.43267C6.23018 4.37458 10.4587 1.33972 13.7005 0.183589C15.8148 -0.538996 16.2376 1.05069 14.6872 2.20682ZM35.1812 2.20682C33.9127 3.21844 31.0937 5.09716 28.9794 7.9875C28.4156 8.71008 27.7109 10.1553 26.7242 12.612C25.8786 14.9243 25.4557 16.9475 25.3148 18.5372C28.5566 16.3695 31.9394 16.9475 34.3355 18.6817C36.4498 20.2714 38.0002 22.5837 38.0002 25.9076C38.0002 30.6766 34.0536 34.0005 29.6842 34.0005C25.0329 34.0005 22.0729 31.5437 20.8044 26.6302C19.9587 22.8727 20.8044 14.3462 23.9053 9.43267C26.7242 4.37458 30.9527 1.33972 34.1946 0.183589C36.3088 -0.538996 36.7317 1.05069 35.1812 2.20682Z" fill="#F9DDFF"/>
</g>
<defs>
<clipPath id="clip0_1781_529">
<rect width="38" height="34" fill="white"/>
</clipPath>
</defs>
</svg>
