<svg width="580" height="221" viewBox="0 0 580 221" fill="none" xmlns="http://www.w3.org/2000/svg">
<rect width="580" height="221" fill="#C08E54"/>
<path opacity="0.45" d="M277.313 173.552C278.581 172.516 281.4 170.593 283.515 167.634C284.078 166.894 284.783 165.414 285.77 162.899C286.616 160.531 287.038 158.46 287.179 156.832C283.937 159.052 280.555 158.46 278.159 156.684C276.044 155.057 274.494 152.689 274.494 149.286C274.494 144.403 278.44 141 282.81 141C287.461 141 290.421 143.516 291.69 148.546C292.535 152.393 291.69 161.123 288.589 166.154C285.77 171.333 281.541 174.44 278.299 175.624C276.185 176.363 275.762 174.736 277.313 173.552ZM256.819 173.552C258.087 172.516 260.906 170.593 263.021 167.634C263.584 166.894 264.289 165.414 265.276 162.899C266.121 160.531 266.544 158.46 266.685 156.832C263.443 159.052 260.061 158.46 257.664 156.684C255.55 155.057 254 152.689 254 149.286C254 144.403 257.946 141 262.316 141C266.967 141 269.927 143.516 271.196 148.546C272.041 152.393 271.196 161.123 268.095 166.154C265.276 171.333 261.047 174.44 257.805 175.624C255.691 176.363 255.268 174.736 256.819 173.552Z" fill="#F9DDFF"/>
<path opacity="0.45" d="M38.32 53.72V54.16C37.7067 54.1067 37.1467 54.24 36.64 54.56C36.16 54.88 35.8133 55.32 35.6 55.88L27 82.2H26.68L19.56 62.96L12.36 82.2H12.04L1.6 55.28C1.38667 54.8267 1.17333 54.5333 0.96 54.4C0.773333 54.24 0.52 54.16 0.2 54.16V53.72H6.4V54.16C6 54.16 5.72 54.2533 5.56 54.44C5.4 54.6267 5.36 54.8667 5.44 55.16L13.64 76.96L19.2 62.04L16.72 55.28C16.5067 54.8267 16.3067 54.5333 16.12 54.4C15.9333 54.24 15.68 54.16 15.36 54.16V53.72H21.52V54.16C21.1467 54.16 20.8667 54.2533 20.68 54.44C20.52 54.6 20.4667 54.8267 20.52 55.12L28.2 76.6L34.84 56.08C35.0267 55.5467 34.9867 55.0933 34.72 54.72C34.4533 54.3467 33.9467 54.16 33.2 54.16V53.72H38.32ZM57.4756 80.2C57.4756 80.4133 57.5156 80.6 57.5956 80.76C57.6756 80.92 57.7823 81.0667 57.9156 81.2C58.049 81.3067 58.249 81.36 58.5156 81.36V81.76H52.7556V81.36C53.0223 81.36 53.2223 81.3067 53.3556 81.2C53.489 81.0667 53.5823 80.92 53.6356 80.76C53.7156 80.6 53.7556 80.4133 53.7556 80.2V66.52C53.7556 66.0933 53.6623 65.6667 53.4756 65.24C53.3156 64.8133 53.0623 64.4267 52.7156 64.08C52.3956 63.7333 51.9956 63.4533 51.5156 63.24C51.0356 63.0267 50.4756 62.92 49.8356 62.92C49.009 62.92 48.2623 63.0933 47.5956 63.44C46.9556 63.7867 46.3956 64.2133 45.9156 64.72C45.4623 65.2 45.1156 65.72 44.8756 66.28C44.6356 66.84 44.5156 67.3333 44.5156 67.76V80.2C44.5156 80.4133 44.5556 80.6 44.6356 80.76C44.689 80.92 44.7823 81.0667 44.9156 81.2C45.0756 81.3067 45.2756 81.36 45.5156 81.36V81.76H39.7556V81.36C40.0223 81.36 40.2223 81.3067 40.3556 81.2C40.5156 81.0667 40.6223 80.92 40.6756 80.76C40.7556 80.6 40.7956 80.4133 40.7956 80.2V55.28C40.7956 55.0667 40.7556 54.88 40.6756 54.72C40.6223 54.5867 40.5156 54.4667 40.3556 54.36C40.2223 54.2267 40.0223 54.16 39.7556 54.16V53.72H43.7156C43.929 53.72 44.1156 53.8 44.2756 53.96C44.4356 54.12 44.5156 54.3067 44.5156 54.52V65.64C45.0756 64.52 45.8756 63.6667 46.9156 63.08C47.9823 62.4667 49.1423 62.1867 50.3956 62.24C51.3023 62.24 52.1823 62.3733 53.0356 62.64C53.889 62.9067 54.6356 63.3067 55.2756 63.84C55.9423 64.3467 56.4756 64.9867 56.8756 65.76C57.2756 66.5067 57.4756 67.3867 57.4756 68.4V80.2ZM71.6584 81.36C73.0184 81.2533 74.2318 80.8133 75.2984 80.04C76.3918 79.24 77.1784 78.2133 77.6584 76.96L78.2984 77.12C77.9518 78.08 77.4184 78.92 76.6984 79.64C76.0851 80.28 75.2184 80.8667 74.0984 81.4C73.0051 81.9333 71.5784 82.2 69.8184 82.2C68.1651 82.2 66.7384 81.9467 65.5384 81.44C64.3651 80.9067 63.4051 80.1867 62.6584 79.28C61.9118 78.3733 61.3651 77.32 61.0184 76.12C60.6718 74.8933 60.4984 73.5867 60.4984 72.2C60.4984 70.84 60.6718 69.56 61.0184 68.36C61.3651 67.1333 61.9118 66.0667 62.6584 65.16C63.4051 64.2533 64.3651 63.5467 65.5384 63.04C66.7384 62.5067 68.1651 62.24 69.8184 62.24C71.8984 62.24 73.5518 62.6133 74.7784 63.36C76.0318 64.08 76.9784 64.9467 77.6184 65.96C78.2584 66.9733 78.6718 68.0267 78.8584 69.12C79.0718 70.2133 79.1784 71.1067 79.1784 71.8H64.4584V72.2C64.4584 73.48 64.5918 74.7067 64.8584 75.88C65.1518 77.0267 65.5784 78.0267 66.1384 78.88C66.7251 79.7333 67.4718 80.3867 68.3784 80.84C69.2851 81.2933 70.3784 81.4667 71.6584 81.36ZM69.8184 62.88C68.9918 62.88 68.2584 63.0933 67.6184 63.52C66.9784 63.9467 66.4318 64.5333 65.9784 65.28C65.5251 66.0267 65.1651 66.9067 64.8984 67.92C64.6584 68.9067 64.5118 69.9867 64.4584 71.16H75.1784V71.12C74.9918 68.2933 74.4318 66.2133 73.4984 64.88C72.5651 63.5467 71.3384 62.88 69.8184 62.88ZM99.5075 80.2C99.5075 80.4133 99.5475 80.6 99.6275 80.76C99.7075 80.92 99.8142 81.0667 99.9475 81.2C100.081 81.3067 100.281 81.36 100.548 81.36V81.76H94.7875V81.36C95.0542 81.36 95.2542 81.3067 95.3875 81.2C95.5208 81.0667 95.6142 80.92 95.6675 80.76C95.7475 80.6 95.7875 80.4133 95.7875 80.2V66.52C95.7875 66.0933 95.6942 65.6667 95.5075 65.24C95.3475 64.8133 95.0942 64.4267 94.7475 64.08C94.4275 63.7333 94.0275 63.4533 93.5475 63.24C93.0675 63.0267 92.5075 62.92 91.8675 62.92C91.0408 62.92 90.2942 63.0933 89.6275 63.44C88.9875 63.7867 88.4275 64.2133 87.9475 64.72C87.4942 65.2 87.1475 65.72 86.9075 66.28C86.6675 66.84 86.5475 67.3333 86.5475 67.76V80.2C86.5475 80.4133 86.5875 80.6 86.6675 80.76C86.7208 80.92 86.8142 81.0667 86.9475 81.2C87.1075 81.3067 87.3075 81.36 87.5475 81.36V81.76H81.7875V81.36C82.0542 81.36 82.2542 81.3067 82.3875 81.2C82.5475 81.0667 82.6542 80.92 82.7075 80.76C82.7875 80.6 82.8275 80.4133 82.8275 80.2V64.2C82.8275 63.9867 82.7875 63.8 82.7075 63.64C82.6542 63.5067 82.5475 63.3867 82.3875 63.28C82.2542 63.1467 82.0542 63.08 81.7875 63.08V62.64H85.7475C85.9608 62.64 86.1475 62.72 86.3075 62.88C86.4675 63.04 86.5475 63.2267 86.5475 63.44V65.64C87.1075 64.52 87.9075 63.6667 88.9475 63.08C90.0142 62.4667 91.1742 62.1867 92.4275 62.24C93.3342 62.24 94.2142 62.3733 95.0675 62.64C95.9208 62.9067 96.6675 63.3067 97.3075 63.84C97.9742 64.3467 98.5075 64.9867 98.9075 65.76C99.3075 66.5067 99.5075 67.3867 99.5075 68.4V80.2ZM133.682 62.64V63.08C133.043 63.0533 132.456 63.2133 131.923 63.56C131.389 63.88 131.003 64.3333 130.763 64.92C129.243 68.2533 127.829 71.3467 126.523 74.2C125.963 75.4 125.403 76.6133 124.843 77.84C124.309 79.0667 123.789 80.2267 123.283 81.32C122.803 82.3867 122.376 83.3333 122.003 84.16C121.629 84.9867 121.349 85.6133 121.163 86.04C120.443 87.6133 119.669 88.84 118.843 89.72C118.016 90.6267 116.923 91.0933 115.563 91.12L114.403 88.16C114.829 88.2667 115.216 88.3467 115.563 88.4C115.936 88.4533 116.283 88.48 116.603 88.48C117.589 88.48 118.416 88.2 119.083 87.64C119.749 87.1067 120.363 86.2133 120.923 84.96C121.136 84.5067 121.363 84.0133 121.603 83.48C121.843 82.9733 122.096 82.4133 122.363 81.8L114.243 64.2C114.029 63.7467 113.803 63.4533 113.563 63.32C113.349 63.16 113.083 63.08 112.763 63.08V62.64H119.163V63.08C118.789 63.08 118.536 63.1733 118.403 63.36C118.269 63.52 118.229 63.72 118.283 63.96L124.443 77.24L130.043 65C130.256 64.52 130.243 64.08 130.003 63.68C129.789 63.28 129.309 63.08 128.563 63.08V62.64H133.682ZM143.025 62.24C144.678 62.24 146.091 62.5067 147.265 63.04C148.465 63.5467 149.438 64.2533 150.185 65.16C150.958 66.0667 151.518 67.1333 151.865 68.36C152.211 69.56 152.385 70.84 152.385 72.2C152.385 73.5867 152.211 74.8933 151.865 76.12C151.518 77.32 150.958 78.3733 150.185 79.28C149.438 80.1867 148.478 80.9067 147.305 81.44C146.131 81.9467 144.705 82.2 143.025 82.2C141.371 82.2 139.945 81.9467 138.745 81.44C137.571 80.9067 136.611 80.1867 135.865 79.28C135.118 78.3733 134.571 77.32 134.225 76.12C133.878 74.8933 133.705 73.5867 133.705 72.2C133.705 70.84 133.878 69.56 134.225 68.36C134.571 67.1333 135.118 66.0667 135.865 65.16C136.611 64.2533 137.571 63.5467 138.745 63.04C139.945 62.5067 141.371 62.24 143.025 62.24ZM143.025 81.56C143.958 81.56 144.758 81.32 145.425 80.84C146.118 80.3333 146.678 79.6667 147.105 78.84C147.558 77.9867 147.891 76.9867 148.105 75.84C148.318 74.6933 148.425 73.48 148.425 72.2C148.425 70.92 148.318 69.72 148.105 68.6C147.891 67.4533 147.558 66.4667 147.105 65.64C146.678 64.7867 146.118 64.12 145.425 63.64C144.758 63.1333 143.958 62.88 143.025 62.88C142.118 62.88 141.318 63.1333 140.625 63.64C139.958 64.12 139.398 64.7867 138.945 65.64C138.518 66.4667 138.198 67.4533 137.985 68.6C137.771 69.72 137.665 70.92 137.665 72.2C137.665 73.48 137.771 74.6933 137.985 75.84C138.198 76.9867 138.518 77.9867 138.945 78.84C139.398 79.6667 139.958 80.3333 140.625 80.84C141.318 81.32 142.118 81.56 143.025 81.56ZM172.123 80.2C172.123 80.4133 172.163 80.6 172.243 80.76C172.323 80.92 172.43 81.0667 172.563 81.2C172.696 81.3067 172.896 81.36 173.163 81.36V81.76H169.203C168.99 81.76 168.803 81.68 168.643 81.52C168.483 81.36 168.403 81.1733 168.403 80.96V78.8C167.843 79.8933 167.03 80.7467 165.963 81.36C164.923 81.9733 163.776 82.2533 162.523 82.2C162.123 82.1733 161.71 82.1333 161.283 82.08C160.883 82.0533 160.483 81.9867 160.083 81.88C159.416 81.72 158.79 81.4667 158.203 81.12C157.643 80.7467 157.15 80.3067 156.723 79.8C156.323 79.2667 156.003 78.68 155.763 78.04C155.55 77.4 155.443 76.7333 155.443 76.04V64.2C155.443 63.9867 155.403 63.8 155.323 63.64C155.27 63.5067 155.163 63.3867 155.003 63.28C154.87 63.1467 154.67 63.08 154.403 63.08V62.64H158.363C158.523 62.64 158.71 62.72 158.923 62.88C159.083 63.0933 159.15 63.28 159.123 63.44V77.88C159.123 78.3067 159.203 78.7467 159.363 79.2C159.55 79.6267 159.816 80.0133 160.163 80.36C160.51 80.7067 160.923 80.9867 161.403 81.2C161.883 81.4133 162.443 81.52 163.083 81.52C163.91 81.52 164.643 81.3467 165.283 81C165.95 80.6533 166.51 80.2267 166.963 79.72C167.443 79.2133 167.803 78.6933 168.043 78.16C168.283 77.6 168.403 77.1067 168.403 76.68V64.2C168.403 63.9867 168.363 63.8 168.283 63.64C168.23 63.5067 168.136 63.3867 168.003 63.28C167.87 63.1467 167.67 63.08 167.403 63.08V62.64H171.323C171.536 62.64 171.723 62.72 171.883 62.88C172.043 63.04 172.123 63.2267 172.123 63.44V80.2ZM204.418 77.08C204.071 78.04 203.538 78.8933 202.818 79.64C202.205 80.28 201.338 80.8667 200.218 81.4C199.125 81.9333 197.698 82.2 195.938 82.2C194.285 82.2 192.858 81.9467 191.658 81.44C190.485 80.9067 189.525 80.1867 188.778 79.28C188.031 78.3733 187.485 77.32 187.138 76.12C186.791 74.8933 186.618 73.5867 186.618 72.2C186.618 70.84 186.791 69.56 187.138 68.36C187.485 67.1333 188.031 66.0667 188.778 65.16C189.525 64.2533 190.485 63.5467 191.658 63.04C192.858 62.5067 194.285 62.24 195.938 62.24C197.058 62.24 198.045 62.36 198.898 62.6C199.778 62.8133 200.538 63.12 201.178 63.52C201.845 63.92 202.405 64.3867 202.858 64.92C203.338 65.4267 203.738 65.9733 204.058 66.56L201.578 68.36C201.338 67.5867 201.085 66.8667 200.818 66.2C200.551 65.5333 200.218 64.96 199.818 64.48C199.418 63.9733 198.925 63.5867 198.338 63.32C197.778 63.0267 197.085 62.88 196.258 62.88C195.271 62.88 194.418 63.1333 193.698 63.64C192.978 64.12 192.391 64.7867 191.938 65.64C191.485 66.4667 191.138 67.4533 190.898 68.6C190.685 69.72 190.578 70.92 190.578 72.2C190.578 73.48 190.711 74.7067 190.978 75.88C191.271 77.0267 191.698 78.0267 192.258 78.88C192.845 79.7333 193.591 80.3867 194.498 80.84C195.405 81.2933 196.498 81.4667 197.778 81.36C199.138 81.2533 200.351 80.8133 201.418 80.04C202.511 79.24 203.298 78.2133 203.778 76.96L204.418 77.08ZM215.528 62.24C217.181 62.24 218.594 62.5067 219.768 63.04C220.968 63.5467 221.941 64.2533 222.688 65.16C223.461 66.0667 224.021 67.1333 224.368 68.36C224.714 69.56 224.888 70.84 224.888 72.2C224.888 73.5867 224.714 74.8933 224.368 76.12C224.021 77.32 223.461 78.3733 222.688 79.28C221.941 80.1867 220.981 80.9067 219.808 81.44C218.634 81.9467 217.208 82.2 215.528 82.2C213.874 82.2 212.448 81.9467 211.248 81.44C210.074 80.9067 209.114 80.1867 208.368 79.28C207.621 78.3733 207.074 77.32 206.728 76.12C206.381 74.8933 206.208 73.5867 206.208 72.2C206.208 70.84 206.381 69.56 206.728 68.36C207.074 67.1333 207.621 66.0667 208.368 65.16C209.114 64.2533 210.074 63.5467 211.248 63.04C212.448 62.5067 213.874 62.24 215.528 62.24ZM215.528 81.56C216.461 81.56 217.261 81.32 217.928 80.84C218.621 80.3333 219.181 79.6667 219.608 78.84C220.061 77.9867 220.394 76.9867 220.608 75.84C220.821 74.6933 220.928 73.48 220.928 72.2C220.928 70.92 220.821 69.72 220.608 68.6C220.394 67.4533 220.061 66.4667 219.608 65.64C219.181 64.7867 218.621 64.12 217.928 63.64C217.261 63.1333 216.461 62.88 215.528 62.88C214.621 62.88 213.821 63.1333 213.128 63.64C212.461 64.12 211.901 64.7867 211.448 65.64C211.021 66.4667 210.701 67.4533 210.488 68.6C210.274 69.72 210.168 70.92 210.168 72.2C210.168 73.48 210.274 74.6933 210.488 75.84C210.701 76.9867 211.021 77.9867 211.448 78.84C211.901 79.6667 212.461 80.3333 213.128 80.84C213.821 81.32 214.621 81.56 215.528 81.56ZM253.266 80.2C253.266 80.4133 253.306 80.6 253.386 80.76C253.466 80.92 253.573 81.0667 253.706 81.2C253.84 81.3067 254.04 81.36 254.306 81.36V81.76H248.546V81.36C248.813 81.36 249.013 81.3067 249.146 81.2C249.28 81.0667 249.373 80.92 249.426 80.76C249.506 80.6 249.546 80.4133 249.546 80.2V66.48C249.546 66.2667 249.52 65.96 249.466 65.56C249.413 65.16 249.28 64.7733 249.066 64.4C248.88 64 248.6 63.6533 248.226 63.36C247.853 63.0667 247.346 62.92 246.706 62.92C245.96 62.92 245.32 63.0933 244.786 63.44C244.253 63.7867 243.813 64.2133 243.466 64.72C243.146 65.2 242.906 65.72 242.746 66.28C242.613 66.84 242.546 67.3333 242.546 67.76V80.2C242.546 80.4133 242.586 80.6 242.666 80.76C242.746 80.92 242.853 81.0667 242.986 81.2C243.12 81.3067 243.32 81.36 243.586 81.36V81.76H237.826V81.36C238.093 81.36 238.293 81.3067 238.426 81.2C238.586 81.0667 238.693 80.92 238.746 80.76C238.826 80.6 238.866 80.4133 238.866 80.2V66.48C238.866 66.2667 238.853 65.96 238.826 65.56C238.8 65.16 238.706 64.7733 238.546 64.4C238.386 64 238.133 63.6533 237.786 63.36C237.44 63.0667 236.946 62.92 236.306 62.92C235.56 62.92 234.906 63.1467 234.346 63.6C233.786 64.0267 233.32 64.5467 232.946 65.16C232.6 65.7467 232.333 66.36 232.146 67C231.96 67.64 231.866 68.1733 231.866 68.6V80.2C231.866 80.4133 231.906 80.6 231.986 80.76C232.04 80.92 232.133 81.0667 232.266 81.2C232.426 81.3067 232.626 81.36 232.866 81.36V81.76H227.106V81.36C227.373 81.36 227.573 81.3067 227.706 81.2C227.866 81.0667 227.973 80.92 228.026 80.76C228.106 80.6 228.146 80.4133 228.146 80.2V64.2C228.146 63.9867 228.106 63.8 228.026 63.64C227.973 63.5067 227.866 63.3867 227.706 63.28C227.573 63.1467 227.373 63.08 227.106 63.08V62.64H231.066C231.28 62.64 231.466 62.72 231.626 62.88C231.786 63.04 231.866 63.2267 231.866 63.44V65.92C232.053 65.4667 232.28 65.0267 232.546 64.6C232.84 64.1733 233.186 63.7867 233.586 63.44C234.013 63.0667 234.506 62.7733 235.066 62.56C235.626 62.3467 236.266 62.24 236.986 62.24C237.893 62.24 238.653 62.3467 239.266 62.56C239.906 62.7733 240.44 63.0533 240.866 63.4C241.293 63.72 241.613 64.08 241.826 64.48C242.066 64.88 242.24 65.2667 242.346 65.64C242.48 65.24 242.666 64.84 242.906 64.44C243.173 64.04 243.506 63.68 243.906 63.36C244.306 63.0133 244.786 62.7467 245.346 62.56C245.933 62.3467 246.613 62.24 247.386 62.24C248.133 62.24 248.786 62.32 249.346 62.48C249.906 62.6133 250.386 62.8 250.786 63.04C251.213 63.28 251.56 63.5467 251.826 63.84C252.12 64.1333 252.36 64.44 252.546 64.76C252.973 65.5067 253.213 66.36 253.266 67.32V80.2ZM267.682 81.36C269.042 81.2533 270.255 80.8133 271.322 80.04C272.415 79.24 273.202 78.2133 273.682 76.96L274.322 77.12C273.975 78.08 273.442 78.92 272.722 79.64C272.109 80.28 271.242 80.8667 270.122 81.4C269.029 81.9333 267.602 82.2 265.842 82.2C264.189 82.2 262.762 81.9467 261.562 81.44C260.389 80.9067 259.429 80.1867 258.682 79.28C257.935 78.3733 257.389 77.32 257.042 76.12C256.695 74.8933 256.522 73.5867 256.522 72.2C256.522 70.84 256.695 69.56 257.042 68.36C257.389 67.1333 257.935 66.0667 258.682 65.16C259.429 64.2533 260.389 63.5467 261.562 63.04C262.762 62.5067 264.189 62.24 265.842 62.24C267.922 62.24 269.575 62.6133 270.802 63.36C272.055 64.08 273.002 64.9467 273.642 65.96C274.282 66.9733 274.695 68.0267 274.882 69.12C275.095 70.2133 275.202 71.1067 275.202 71.8H260.482V72.2C260.482 73.48 260.615 74.7067 260.882 75.88C261.175 77.0267 261.602 78.0267 262.162 78.88C262.749 79.7333 263.495 80.3867 264.402 80.84C265.309 81.2933 266.402 81.4667 267.682 81.36ZM265.842 62.88C265.015 62.88 264.282 63.0933 263.642 63.52C263.002 63.9467 262.455 64.5333 262.002 65.28C261.549 66.0267 261.189 66.9067 260.922 67.92C260.682 68.9067 260.535 69.9867 260.482 71.16H271.202V71.12C271.015 68.2933 270.455 66.2133 269.522 64.88C268.589 63.5467 267.362 62.88 265.842 62.88ZM297.328 62.24C298.981 62.24 300.394 62.5067 301.568 63.04C302.768 63.5467 303.741 64.2533 304.488 65.16C305.261 66.0667 305.821 67.1333 306.168 68.36C306.514 69.56 306.688 70.84 306.688 72.2C306.688 73.5867 306.514 74.8933 306.168 76.12C305.821 77.32 305.261 78.3733 304.488 79.28C303.741 80.1867 302.781 80.9067 301.608 81.44C300.434 81.9467 299.008 82.2 297.328 82.2C295.674 82.2 294.248 81.9467 293.048 81.44C291.874 80.9067 290.914 80.1867 290.168 79.28C289.421 78.3733 288.874 77.32 288.528 76.12C288.181 74.8933 288.008 73.5867 288.008 72.2C288.008 70.84 288.181 69.56 288.528 68.36C288.874 67.1333 289.421 66.0667 290.168 65.16C290.914 64.2533 291.874 63.5467 293.048 63.04C294.248 62.5067 295.674 62.24 297.328 62.24ZM297.328 81.56C298.261 81.56 299.061 81.32 299.728 80.84C300.421 80.3333 300.981 79.6667 301.408 78.84C301.861 77.9867 302.194 76.9867 302.408 75.84C302.621 74.6933 302.728 73.48 302.728 72.2C302.728 70.92 302.621 69.72 302.408 68.6C302.194 67.4533 301.861 66.4667 301.408 65.64C300.981 64.7867 300.421 64.12 299.728 63.64C299.061 63.1333 298.261 62.88 297.328 62.88C296.421 62.88 295.621 63.1333 294.928 63.64C294.261 64.12 293.701 64.7867 293.248 65.64C292.821 66.4667 292.501 67.4533 292.288 68.6C292.074 69.72 291.968 70.92 291.968 72.2C291.968 73.48 292.074 74.6933 292.288 75.84C292.501 76.9867 292.821 77.9867 293.248 78.84C293.701 79.6667 294.261 80.3333 294.928 80.84C295.621 81.32 296.421 81.56 297.328 81.56ZM326.426 80.2C326.426 80.4133 326.466 80.6 326.546 80.76C326.626 80.92 326.733 81.0667 326.866 81.2C327 81.3067 327.2 81.36 327.466 81.36V81.76H323.506C323.293 81.76 323.106 81.68 322.946 81.52C322.786 81.36 322.706 81.1733 322.706 80.96V78.8C322.146 79.8933 321.333 80.7467 320.266 81.36C319.226 81.9733 318.08 82.2533 316.826 82.2C316.426 82.1733 316.013 82.1333 315.586 82.08C315.186 82.0533 314.786 81.9867 314.386 81.88C313.72 81.72 313.093 81.4667 312.506 81.12C311.946 80.7467 311.453 80.3067 311.026 79.8C310.626 79.2667 310.306 78.68 310.066 78.04C309.853 77.4 309.746 76.7333 309.746 76.04V64.2C309.746 63.9867 309.706 63.8 309.626 63.64C309.573 63.5067 309.466 63.3867 309.306 63.28C309.173 63.1467 308.973 63.08 308.706 63.08V62.64H312.666C312.826 62.64 313.013 62.72 313.226 62.88C313.386 63.0933 313.453 63.28 313.426 63.44V77.88C313.426 78.3067 313.506 78.7467 313.666 79.2C313.853 79.6267 314.12 80.0133 314.466 80.36C314.813 80.7067 315.226 80.9867 315.706 81.2C316.186 81.4133 316.746 81.52 317.386 81.52C318.213 81.52 318.946 81.3467 319.586 81C320.253 80.6533 320.813 80.2267 321.266 79.72C321.746 79.2133 322.106 78.6933 322.346 78.16C322.586 77.6 322.706 77.1067 322.706 76.68V64.2C322.706 63.9867 322.666 63.8 322.586 63.64C322.533 63.5067 322.44 63.3867 322.306 63.28C322.173 63.1467 321.973 63.08 321.706 63.08V62.64H325.626C325.84 62.64 326.026 62.72 326.186 62.88C326.346 63.04 326.426 63.2267 326.426 63.44V80.2ZM341.284 81.44C340.404 82 339.444 82.2533 338.404 82.2C336.911 82.2 335.764 81.9333 334.964 81.4C334.191 80.8667 333.618 80.28 333.244 79.64C332.818 78.92 332.578 78.08 332.524 77.12V63.28H329.684V62.64H332.524V58.52L336.244 56.72V62.64H341.164V63.28H336.244V77.96C336.244 78.1733 336.271 78.48 336.324 78.88C336.378 79.28 336.498 79.68 336.684 80.08C336.898 80.4533 337.191 80.7867 337.564 81.08C337.938 81.3733 338.444 81.52 339.084 81.52C339.404 81.52 339.724 81.48 340.044 81.4C340.364 81.32 340.658 81.1867 340.924 81L341.284 81.44ZM362.643 62.24C364.297 62.24 365.71 62.5067 366.883 63.04C368.083 63.5467 369.057 64.2533 369.803 65.16C370.577 66.0667 371.137 67.1333 371.483 68.36C371.83 69.56 372.003 70.84 372.003 72.2C372.003 73.5867 371.83 74.8933 371.483 76.12C371.137 77.32 370.577 78.3733 369.803 79.28C369.057 80.1867 368.097 80.9067 366.923 81.44C365.75 81.9467 364.323 82.2 362.643 82.2C360.99 82.2 359.563 81.9467 358.363 81.44C357.19 80.9067 356.23 80.1867 355.483 79.28C354.737 78.3733 354.19 77.32 353.843 76.12C353.497 74.8933 353.323 73.5867 353.323 72.2C353.323 70.84 353.497 69.56 353.843 68.36C354.19 67.1333 354.737 66.0667 355.483 65.16C356.23 64.2533 357.19 63.5467 358.363 63.04C359.563 62.5067 360.99 62.24 362.643 62.24ZM362.643 81.56C363.577 81.56 364.377 81.32 365.043 80.84C365.737 80.3333 366.297 79.6667 366.723 78.84C367.177 77.9867 367.51 76.9867 367.723 75.84C367.937 74.6933 368.043 73.48 368.043 72.2C368.043 70.92 367.937 69.72 367.723 68.6C367.51 67.4533 367.177 66.4667 366.723 65.64C366.297 64.7867 365.737 64.12 365.043 63.64C364.377 63.1333 363.577 62.88 362.643 62.88C361.737 62.88 360.937 63.1333 360.243 63.64C359.577 64.12 359.017 64.7867 358.563 65.64C358.137 66.4667 357.817 67.4533 357.603 68.6C357.39 69.72 357.283 70.92 357.283 72.2C357.283 73.48 357.39 74.6933 357.603 75.84C357.817 76.9867 358.137 77.9867 358.563 78.84C359.017 79.6667 359.577 80.3333 360.243 80.84C360.937 81.32 361.737 81.56 362.643 81.56ZM382.977 53.96C382.417 53.96 381.937 54.0667 381.537 54.28C381.137 54.4933 380.804 54.7733 380.537 55.12C380.297 55.4667 380.111 55.8667 379.977 56.32C379.844 56.7467 379.777 57.1733 379.777 57.6V62.64H385.297V63.28H379.777V80.2C379.777 80.4133 379.817 80.6 379.897 80.76C379.951 80.92 380.044 81.0667 380.177 81.2C380.337 81.3067 380.537 81.36 380.777 81.36V81.76H375.017V81.36C375.284 81.36 375.484 81.3067 375.617 81.2C375.777 81.0667 375.884 80.92 375.937 80.76C376.017 80.6 376.057 80.4133 376.057 80.2V63.28H373.417V62.64H376.057V60.08C376.057 59.9733 376.057 59.7467 376.057 59.4C376.084 59.0267 376.151 58.5867 376.257 58.08C376.391 57.5733 376.577 57.04 376.817 56.48C377.084 55.92 377.457 55.4133 377.937 54.96C378.417 54.48 379.017 54.0933 379.737 53.8C380.484 53.48 381.391 53.32 382.457 53.32C383.497 53.32 384.391 53.4533 385.137 53.72C385.884 53.9867 386.497 54.2933 386.977 54.64C387.484 54.96 387.871 55.28 388.137 55.6C388.404 55.92 388.591 56.1467 388.697 56.28L386.177 58.4C386.177 57.9733 386.137 57.5067 386.057 57C385.977 56.4933 385.817 56.0133 385.577 55.56C385.364 55.1067 385.044 54.7333 384.617 54.44C384.217 54.12 383.671 53.96 382.977 53.96ZM411.894 81.44C411.014 82 410.054 82.2533 409.014 82.2C407.52 82.2 406.374 81.9333 405.574 81.4C404.8 80.8667 404.227 80.28 403.854 79.64C403.427 78.92 403.187 78.08 403.134 77.12V63.28H400.294V62.64H403.134V58.52L406.854 56.72V62.64H411.774V63.28H406.854V77.96C406.854 78.1733 406.88 78.48 406.934 78.88C406.987 79.28 407.107 79.68 407.294 80.08C407.507 80.4533 407.8 80.7867 408.174 81.08C408.547 81.3733 409.054 81.52 409.694 81.52C410.014 81.52 410.334 81.48 410.654 81.4C410.974 81.32 411.267 81.1867 411.534 81L411.894 81.44ZM431.496 80.2C431.496 80.4133 431.536 80.6 431.616 80.76C431.696 80.92 431.803 81.0667 431.936 81.2C432.069 81.3067 432.269 81.36 432.536 81.36V81.76H426.776V81.36C427.043 81.36 427.243 81.3067 427.376 81.2C427.509 81.0667 427.603 80.92 427.656 80.76C427.736 80.6 427.776 80.4133 427.776 80.2V66.52C427.776 66.0933 427.683 65.6667 427.496 65.24C427.336 64.8133 427.083 64.4267 426.736 64.08C426.416 63.7333 426.016 63.4533 425.536 63.24C425.056 63.0267 424.496 62.92 423.856 62.92C423.029 62.92 422.283 63.0933 421.616 63.44C420.976 63.7867 420.416 64.2133 419.936 64.72C419.483 65.2 419.136 65.72 418.896 66.28C418.656 66.84 418.536 67.3333 418.536 67.76V80.2C418.536 80.4133 418.576 80.6 418.656 80.76C418.709 80.92 418.803 81.0667 418.936 81.2C419.096 81.3067 419.296 81.36 419.536 81.36V81.76H413.776V81.36C414.043 81.36 414.243 81.3067 414.376 81.2C414.536 81.0667 414.643 80.92 414.696 80.76C414.776 80.6 414.816 80.4133 414.816 80.2V55.28C414.816 55.0667 414.776 54.88 414.696 54.72C414.643 54.5867 414.536 54.4667 414.376 54.36C414.243 54.2267 414.043 54.16 413.776 54.16V53.72H417.736C417.949 53.72 418.136 53.8 418.296 53.96C418.456 54.12 418.536 54.3067 418.536 54.52V65.64C419.096 64.52 419.896 63.6667 420.936 63.08C422.003 62.4667 423.163 62.1867 424.416 62.24C425.323 62.24 426.203 62.3733 427.056 62.64C427.909 62.9067 428.656 63.3067 429.296 63.84C429.963 64.3467 430.496 64.9867 430.896 65.76C431.296 66.5067 431.496 67.3867 431.496 68.4V80.2ZM445.679 81.36C447.039 81.2533 448.252 80.8133 449.319 80.04C450.412 79.24 451.199 78.2133 451.679 76.96L452.319 77.12C451.972 78.08 451.439 78.92 450.719 79.64C450.105 80.28 449.239 80.8667 448.119 81.4C447.025 81.9333 445.599 82.2 443.839 82.2C442.185 82.2 440.759 81.9467 439.559 81.44C438.385 80.9067 437.425 80.1867 436.679 79.28C435.932 78.3733 435.385 77.32 435.039 76.12C434.692 74.8933 434.519 73.5867 434.519 72.2C434.519 70.84 434.692 69.56 435.039 68.36C435.385 67.1333 435.932 66.0667 436.679 65.16C437.425 64.2533 438.385 63.5467 439.559 63.04C440.759 62.5067 442.185 62.24 443.839 62.24C445.919 62.24 447.572 62.6133 448.799 63.36C450.052 64.08 450.999 64.9467 451.639 65.96C452.279 66.9733 452.692 68.0267 452.879 69.12C453.092 70.2133 453.199 71.1067 453.199 71.8H438.479V72.2C438.479 73.48 438.612 74.7067 438.879 75.88C439.172 77.0267 439.599 78.0267 440.159 78.88C440.745 79.7333 441.492 80.3867 442.399 80.84C443.305 81.2933 444.399 81.4667 445.679 81.36ZM443.839 62.88C443.012 62.88 442.279 63.0933 441.639 63.52C440.999 63.9467 440.452 64.5333 439.999 65.28C439.545 66.0267 439.185 66.9067 438.919 67.92C438.679 68.9067 438.532 69.9867 438.479 71.16H449.199V71.12C449.012 68.2933 448.452 66.2133 447.519 64.88C446.585 63.5467 445.359 62.88 443.839 62.88ZM476.085 70.96C477.125 71.3067 478.018 71.6667 478.765 72.04C479.511 72.4133 480.125 72.84 480.605 73.32C481.085 73.7733 481.431 74.2933 481.645 74.88C481.858 75.4667 481.965 76.1467 481.965 76.92C481.965 77.8533 481.738 78.6533 481.285 79.32C480.858 79.9867 480.285 80.5333 479.565 80.96C478.845 81.3867 478.018 81.7067 477.085 81.92C476.178 82.1067 475.258 82.2 474.325 82.2C472.778 82.2533 471.298 81.9733 469.885 81.36C468.471 80.7467 467.245 79.8667 466.205 78.72L468.325 76.48C468.405 77.2267 468.618 77.92 468.965 78.56C469.311 79.1733 469.751 79.7067 470.285 80.16C470.818 80.6133 471.431 80.9733 472.125 81.24C472.818 81.48 473.538 81.5867 474.285 81.56C475.698 81.56 476.871 81.32 477.805 80.84C478.738 80.3333 479.205 79.4933 479.205 78.32C479.205 77.7333 479.031 77.2133 478.685 76.76C478.338 76.3067 477.885 75.9067 477.325 75.56C476.765 75.1867 476.111 74.8667 475.365 74.6C474.618 74.3067 473.845 74.0267 473.045 73.76C471.978 73.4133 471.045 73.0667 470.245 72.72C469.471 72.3733 468.818 71.9867 468.285 71.56C467.778 71.1067 467.391 70.5867 467.125 70C466.858 69.3867 466.725 68.6667 466.725 67.84C466.725 66.88 466.925 66.0533 467.325 65.36C467.725 64.64 468.258 64.0533 468.925 63.6C469.618 63.12 470.405 62.7733 471.285 62.56C472.191 62.3467 473.125 62.24 474.085 62.24C475.525 62.1867 476.898 62.44 478.205 63C479.538 63.5333 480.685 64.3333 481.645 65.4L479.725 67.44C479.725 67.2267 479.658 66.88 479.525 66.4C479.418 65.8933 479.165 65.3867 478.765 64.88C478.391 64.3467 477.831 63.88 477.085 63.48C476.338 63.08 475.325 62.88 474.045 62.88C473.565 62.88 473.045 62.9333 472.485 63.04C471.951 63.1467 471.445 63.32 470.965 63.56C470.511 63.8 470.125 64.1333 469.805 64.56C469.511 64.96 469.365 65.4667 469.365 66.08C469.365 66.8267 469.591 67.4667 470.045 68C470.525 68.5067 471.098 68.9467 471.765 69.32C472.458 69.6933 473.191 70.0133 473.965 70.28C474.738 70.52 475.445 70.7467 476.085 70.96ZM495.159 81.44C494.279 82 493.319 82.2533 492.279 82.2C490.786 82.2 489.639 81.9333 488.839 81.4C488.066 80.8667 487.493 80.28 487.119 79.64C486.693 78.92 486.453 78.08 486.399 77.12V63.28H483.559V62.64H486.399V58.52L490.119 56.72V62.64H495.039V63.28H490.119V77.96C490.119 78.1733 490.146 78.48 490.199 78.88C490.253 79.28 490.373 79.68 490.559 80.08C490.773 80.4533 491.066 80.7867 491.439 81.08C491.813 81.3733 492.319 81.52 492.959 81.52C493.279 81.52 493.599 81.48 493.919 81.4C494.239 81.32 494.533 81.1867 494.799 81L495.159 81.44ZM505.522 62.24C507.175 62.24 508.588 62.5067 509.762 63.04C510.962 63.5467 511.935 64.2533 512.682 65.16C513.455 66.0667 514.015 67.1333 514.362 68.36C514.708 69.56 514.882 70.84 514.882 72.2C514.882 73.5867 514.708 74.8933 514.362 76.12C514.015 77.32 513.455 78.3733 512.682 79.28C511.935 80.1867 510.975 80.9067 509.802 81.44C508.628 81.9467 507.202 82.2 505.522 82.2C503.868 82.2 502.442 81.9467 501.242 81.44C500.068 80.9067 499.108 80.1867 498.362 79.28C497.615 78.3733 497.068 77.32 496.722 76.12C496.375 74.8933 496.202 73.5867 496.202 72.2C496.202 70.84 496.375 69.56 496.722 68.36C497.068 67.1333 497.615 66.0667 498.362 65.16C499.108 64.2533 500.068 63.5467 501.242 63.04C502.442 62.5067 503.868 62.24 505.522 62.24ZM505.522 81.56C506.455 81.56 507.255 81.32 507.922 80.84C508.615 80.3333 509.175 79.6667 509.602 78.84C510.055 77.9867 510.388 76.9867 510.602 75.84C510.815 74.6933 510.922 73.48 510.922 72.2C510.922 70.92 510.815 69.72 510.602 68.6C510.388 67.4533 510.055 66.4667 509.602 65.64C509.175 64.7867 508.615 64.12 507.922 63.64C507.255 63.1333 506.455 62.88 505.522 62.88C504.615 62.88 503.815 63.1333 503.122 63.64C502.455 64.12 501.895 64.7867 501.442 65.64C501.015 66.4667 500.695 67.4533 500.482 68.6C500.268 69.72 500.162 70.92 500.162 72.2C500.162 73.48 500.268 74.6933 500.482 75.84C500.695 76.9867 501.015 77.9867 501.442 78.84C501.895 79.6667 502.455 80.3333 503.122 80.84C503.815 81.32 504.615 81.56 505.522 81.56ZM522.055 66.2C522.455 64.84 523.175 63.84 524.215 63.2C525.282 62.5333 526.495 62.2 527.855 62.2C528.415 62.2 528.922 62.24 529.375 62.32C529.855 62.4 530.282 62.5067 530.655 62.64C531.082 62.7733 531.469 62.92 531.815 63.08L529.895 66.48C529.682 65.6533 529.242 65 528.575 64.52C527.909 64.0133 527.149 63.7867 526.295 63.84C525.335 63.84 524.575 64.1067 524.015 64.64C523.455 65.1467 523.029 65.7067 522.735 66.32C522.389 67.0667 522.162 67.9067 522.055 68.84V80.2C522.055 80.4133 522.095 80.6 522.175 80.76C522.229 80.92 522.322 81.0667 522.455 81.2C522.615 81.3067 522.815 81.36 523.055 81.36V81.76H517.295V81.36C517.562 81.36 517.762 81.3067 517.895 81.2C518.055 81.0667 518.162 80.92 518.215 80.76C518.295 80.6 518.335 80.4133 518.335 80.2V64.2C518.335 63.9867 518.295 63.8 518.215 63.64C518.162 63.5067 518.055 63.3867 517.895 63.28C517.762 63.1467 517.562 63.08 517.295 63.08V62.64H521.255C521.469 62.64 521.655 62.72 521.815 62.88C521.975 63.04 522.055 63.2267 522.055 63.44V66.2ZM559.569 80.2C559.569 80.4133 559.609 80.6 559.689 80.76C559.769 80.92 559.876 81.0667 560.009 81.2C560.143 81.3067 560.343 81.36 560.609 81.36V81.76H554.849V81.36C555.116 81.36 555.316 81.3067 555.449 81.2C555.583 81.0667 555.676 80.92 555.729 80.76C555.809 80.6 555.849 80.4133 555.849 80.2V66.48C555.849 66.2667 555.823 65.96 555.769 65.56C555.716 65.16 555.583 64.7733 555.369 64.4C555.183 64 554.903 63.6533 554.529 63.36C554.156 63.0667 553.649 62.92 553.009 62.92C552.263 62.92 551.623 63.0933 551.089 63.44C550.556 63.7867 550.116 64.2133 549.769 64.72C549.449 65.2 549.209 65.72 549.049 66.28C548.916 66.84 548.849 67.3333 548.849 67.76V80.2C548.849 80.4133 548.889 80.6 548.969 80.76C549.049 80.92 549.156 81.0667 549.289 81.2C549.423 81.3067 549.623 81.36 549.889 81.36V81.76H544.129V81.36C544.396 81.36 544.596 81.3067 544.729 81.2C544.889 81.0667 544.996 80.92 545.049 80.76C545.129 80.6 545.169 80.4133 545.169 80.2V66.48C545.169 66.2667 545.156 65.96 545.129 65.56C545.103 65.16 545.009 64.7733 544.849 64.4C544.689 64 544.436 63.6533 544.089 63.36C543.743 63.0667 543.249 62.92 542.609 62.92C541.863 62.92 541.209 63.1467 540.649 63.6C540.089 64.0267 539.623 64.5467 539.249 65.16C538.903 65.7467 538.636 66.36 538.449 67C538.263 67.64 538.169 68.1733 538.169 68.6V80.2C538.169 80.4133 538.209 80.6 538.289 80.76C538.343 80.92 538.436 81.0667 538.569 81.2C538.729 81.3067 538.929 81.36 539.169 81.36V81.76H533.409V81.36C533.676 81.36 533.876 81.3067 534.009 81.2C534.169 81.0667 534.276 80.92 534.329 80.76C534.409 80.6 534.449 80.4133 534.449 80.2V64.2C534.449 63.9867 534.409 63.8 534.329 63.64C534.276 63.5067 534.169 63.3867 534.009 63.28C533.876 63.1467 533.676 63.08 533.409 63.08V62.64H537.369C537.583 62.64 537.769 62.72 537.929 62.88C538.089 63.04 538.169 63.2267 538.169 63.44V65.92C538.356 65.4667 538.583 65.0267 538.849 64.6C539.143 64.1733 539.489 63.7867 539.889 63.44C540.316 63.0667 540.809 62.7733 541.369 62.56C541.929 62.3467 542.569 62.24 543.289 62.24C544.196 62.24 544.956 62.3467 545.569 62.56C546.209 62.7733 546.743 63.0533 547.169 63.4C547.596 63.72 547.916 64.08 548.129 64.48C548.369 64.88 548.543 65.2667 548.649 65.64C548.783 65.24 548.969 64.84 549.209 64.44C549.476 64.04 549.809 63.68 550.209 63.36C550.609 63.0133 551.089 62.7467 551.649 62.56C552.236 62.3467 552.916 62.24 553.689 62.24C554.436 62.24 555.089 62.32 555.649 62.48C556.209 62.6133 556.689 62.8 557.089 63.04C557.516 63.28 557.863 63.5467 558.129 63.84C558.423 64.1333 558.663 64.44 558.849 64.76C559.276 65.5067 559.516 66.36 559.569 67.32V80.2ZM568.065 79.88C568.092 80.4667 568.012 81.0533 567.825 81.64C567.638 82.1467 567.345 82.68 566.945 83.24C566.545 83.8 565.945 84.3067 565.145 84.76H564.705C564.892 84.52 565.065 84.2533 565.225 83.96C565.358 83.72 565.478 83.44 565.585 83.12C565.692 82.8267 565.745 82.52 565.745 82.2C565.105 82.2 564.558 81.9733 564.105 81.52C563.652 81.0667 563.425 80.52 563.425 79.88C563.425 79.24 563.652 78.6933 564.105 78.24C564.558 77.7867 565.105 77.56 565.745 77.56C566.385 77.56 566.932 77.7867 567.385 78.24C567.838 78.6933 568.065 79.24 568.065 79.88ZM21.12 106.64V107.08C20.48 107.053 19.8933 107.213 19.36 107.56C18.8267 107.88 18.44 108.333 18.2 108.92C16.68 112.253 15.2667 115.347 13.96 118.2C13.4 119.4 12.84 120.613 12.28 121.84C11.7467 123.067 11.2267 124.227 10.72 125.32C10.24 126.387 9.81333 127.333 9.44 128.16C9.06667 128.987 8.78667 129.613 8.6 130.04C7.88 131.613 7.10667 132.84 6.28 133.72C5.45333 134.627 4.36 135.093 3 135.12L1.84 132.16C2.26667 132.267 2.65333 132.347 3 132.4C3.37333 132.453 3.72 132.48 4.04 132.48C5.02667 132.48 5.85333 132.2 6.52 131.64C7.18667 131.107 7.8 130.213 8.36 128.96C8.57333 128.507 8.8 128.013 9.04 127.48C9.28 126.973 9.53333 126.413 9.8 125.8L1.68 108.2C1.46667 107.747 1.24 107.453 1 107.32C0.786667 107.16 0.52 107.08 0.2 107.08V106.64H6.6V107.08C6.22667 107.08 5.97333 107.173 5.84 107.36C5.70667 107.52 5.66667 107.72 5.72 107.96L11.88 121.24L17.48 109C17.6933 108.52 17.68 108.08 17.44 107.68C17.2267 107.28 16.7467 107.08 16 107.08V106.64H21.12ZM30.4622 106.24C32.1155 106.24 33.5289 106.507 34.7022 107.04C35.9022 107.547 36.8755 108.253 37.6222 109.16C38.3955 110.067 38.9555 111.133 39.3022 112.36C39.6489 113.56 39.8222 114.84 39.8222 116.2C39.8222 117.587 39.6489 118.893 39.3022 120.12C38.9555 121.32 38.3955 122.373 37.6222 123.28C36.8755 124.187 35.9155 124.907 34.7422 125.44C33.5689 125.947 32.1422 126.2 30.4622 126.2C28.8089 126.2 27.3822 125.947 26.1822 125.44C25.0089 124.907 24.0489 124.187 23.3022 123.28C22.5555 122.373 22.0089 121.32 21.6622 120.12C21.3155 118.893 21.1422 117.587 21.1422 116.2C21.1422 114.84 21.3155 113.56 21.6622 112.36C22.0089 111.133 22.5555 110.067 23.3022 109.16C24.0489 108.253 25.0089 107.547 26.1822 107.04C27.3822 106.507 28.8089 106.24 30.4622 106.24ZM30.4622 125.56C31.3955 125.56 32.1955 125.32 32.8622 124.84C33.5555 124.333 34.1155 123.667 34.5422 122.84C34.9955 121.987 35.3289 120.987 35.5422 119.84C35.7555 118.693 35.8622 117.48 35.8622 116.2C35.8622 114.92 35.7555 113.72 35.5422 112.6C35.3289 111.453 34.9955 110.467 34.5422 109.64C34.1155 108.787 33.5555 108.12 32.8622 107.64C32.1955 107.133 31.3955 106.88 30.4622 106.88C29.5555 106.88 28.7555 107.133 28.0622 107.64C27.3955 108.12 26.8355 108.787 26.3822 109.64C25.9555 110.467 25.6355 111.453 25.4222 112.6C25.2089 113.72 25.1022 114.92 25.1022 116.2C25.1022 117.48 25.2089 118.693 25.4222 119.84C25.6355 120.987 25.9555 121.987 26.3822 122.84C26.8355 123.667 27.3955 124.333 28.0622 124.84C28.7555 125.32 29.5555 125.56 30.4622 125.56ZM59.5606 124.2C59.5606 124.413 59.6006 124.6 59.6806 124.76C59.7606 124.92 59.8673 125.067 60.0006 125.2C60.134 125.307 60.334 125.36 60.6006 125.36V125.76H56.6406C56.4273 125.76 56.2406 125.68 56.0806 125.52C55.9206 125.36 55.8406 125.173 55.8406 124.96V122.8C55.2806 123.893 54.4673 124.747 53.4006 125.36C52.3606 125.973 51.214 126.253 49.9606 126.2C49.5606 126.173 49.1473 126.133 48.7206 126.08C48.3206 126.053 47.9206 125.987 47.5206 125.88C46.854 125.72 46.2273 125.467 45.6406 125.12C45.0806 124.747 44.5873 124.307 44.1606 123.8C43.7606 123.267 43.4406 122.68 43.2006 122.04C42.9873 121.4 42.8806 120.733 42.8806 120.04V108.2C42.8806 107.987 42.8406 107.8 42.7606 107.64C42.7073 107.507 42.6006 107.387 42.4406 107.28C42.3073 107.147 42.1073 107.08 41.8406 107.08V106.64H45.8006C45.9606 106.64 46.1473 106.72 46.3606 106.88C46.5206 107.093 46.5873 107.28 46.5606 107.44V121.88C46.5606 122.307 46.6406 122.747 46.8006 123.2C46.9873 123.627 47.254 124.013 47.6006 124.36C47.9473 124.707 48.3606 124.987 48.8406 125.2C49.3206 125.413 49.8806 125.52 50.5206 125.52C51.3473 125.52 52.0806 125.347 52.7206 125C53.3873 124.653 53.9473 124.227 54.4006 123.72C54.8806 123.213 55.2406 122.693 55.4806 122.16C55.7206 121.6 55.8406 121.107 55.8406 120.68V108.2C55.8406 107.987 55.8006 107.8 55.7206 107.64C55.6673 107.507 55.574 107.387 55.4406 107.28C55.3073 107.147 55.1073 107.08 54.8406 107.08V106.64H58.7606C58.974 106.64 59.1606 106.72 59.3206 106.88C59.4806 107.04 59.5606 107.227 59.5606 107.44V124.2ZM101.416 106.64V107.08C100.802 107.027 100.242 107.187 99.7356 107.56C99.229 107.907 98.8823 108.387 98.6956 109L92.2956 126.2H91.9756L87.3356 114.12L82.2156 126.2H81.8956L74.4556 108.2C74.2423 107.747 74.029 107.453 73.8156 107.32C73.6023 107.16 73.3356 107.08 73.0156 107.08V106.64H79.4156V107.08C78.989 107.08 78.6956 107.187 78.5356 107.4C78.4023 107.587 78.389 107.827 78.4956 108.12L83.7356 121L87.0156 113.28L85.0956 108.24C84.7756 107.467 84.309 107.08 83.6956 107.08V106.64H90.3356V107.08C89.829 107.08 89.469 107.173 89.2556 107.36C89.0423 107.547 89.0156 107.84 89.1756 108.24L93.6956 120.64L97.9756 109C98.1623 108.52 98.109 108.08 97.8156 107.68C97.549 107.28 97.0423 107.08 96.2956 107.08V106.64H101.416ZM110.739 106.24C112.392 106.24 113.805 106.507 114.979 107.04C116.179 107.547 117.152 108.253 117.899 109.16C118.672 110.067 119.232 111.133 119.579 112.36C119.925 113.56 120.099 114.84 120.099 116.2C120.099 117.587 119.925 118.893 119.579 120.12C119.232 121.32 118.672 122.373 117.899 123.28C117.152 124.187 116.192 124.907 115.019 125.44C113.845 125.947 112.419 126.2 110.739 126.2C109.085 126.2 107.659 125.947 106.459 125.44C105.285 124.907 104.325 124.187 103.579 123.28C102.832 122.373 102.285 121.32 101.939 120.12C101.592 118.893 101.419 117.587 101.419 116.2C101.419 114.84 101.592 113.56 101.939 112.36C102.285 111.133 102.832 110.067 103.579 109.16C104.325 108.253 105.285 107.547 106.459 107.04C107.659 106.507 109.085 106.24 110.739 106.24ZM110.739 125.56C111.672 125.56 112.472 125.32 113.139 124.84C113.832 124.333 114.392 123.667 114.819 122.84C115.272 121.987 115.605 120.987 115.819 119.84C116.032 118.693 116.139 117.48 116.139 116.2C116.139 114.92 116.032 113.72 115.819 112.6C115.605 111.453 115.272 110.467 114.819 109.64C114.392 108.787 113.832 108.12 113.139 107.64C112.472 107.133 111.672 106.88 110.739 106.88C109.832 106.88 109.032 107.133 108.339 107.64C107.672 108.12 107.112 108.787 106.659 109.64C106.232 110.467 105.912 111.453 105.699 112.6C105.485 113.72 105.379 114.92 105.379 116.2C105.379 117.48 105.485 118.693 105.699 119.84C105.912 120.987 106.232 121.987 106.659 122.84C107.112 123.667 107.672 124.333 108.339 124.84C109.032 125.32 109.832 125.56 110.739 125.56ZM140.037 124.2C140.037 124.413 140.077 124.6 140.157 124.76C140.237 124.92 140.344 125.067 140.477 125.2C140.611 125.307 140.811 125.36 141.077 125.36V125.76H135.317V125.36C135.584 125.36 135.784 125.307 135.917 125.2C136.051 125.067 136.144 124.92 136.197 124.76C136.277 124.6 136.317 124.413 136.317 124.2V110.52C136.317 110.093 136.224 109.667 136.037 109.24C135.877 108.813 135.624 108.427 135.277 108.08C134.957 107.733 134.557 107.453 134.077 107.24C133.597 107.027 133.037 106.92 132.397 106.92C131.571 106.92 130.824 107.093 130.157 107.44C129.517 107.787 128.957 108.213 128.477 108.72C128.024 109.2 127.677 109.72 127.437 110.28C127.197 110.84 127.077 111.333 127.077 111.76V124.2C127.077 124.413 127.117 124.6 127.197 124.76C127.251 124.92 127.344 125.067 127.477 125.2C127.637 125.307 127.837 125.36 128.077 125.36V125.76H122.317V125.36C122.584 125.36 122.784 125.307 122.917 125.2C123.077 125.067 123.184 124.92 123.237 124.76C123.317 124.6 123.357 124.413 123.357 124.2V108.2C123.357 107.987 123.317 107.8 123.237 107.64C123.184 107.507 123.077 107.387 122.917 107.28C122.784 107.147 122.584 107.08 122.317 107.08V106.64H126.277C126.491 106.64 126.677 106.72 126.837 106.88C126.997 107.04 127.077 107.227 127.077 107.44V109.64C127.637 108.52 128.437 107.667 129.477 107.08C130.544 106.467 131.704 106.187 132.957 106.24C133.864 106.24 134.744 106.373 135.597 106.64C136.451 106.907 137.197 107.307 137.837 107.84C138.504 108.347 139.037 108.987 139.437 109.76C139.837 110.507 140.037 111.387 140.037 112.4V124.2ZM148.615 97.88C148.375 98.8133 148.069 99.8267 147.695 100.92C147.322 102.013 146.909 103.107 146.455 104.2C146.029 105.267 145.602 106.28 145.175 107.24H142.575C142.762 106.493 142.949 105.693 143.135 104.84C143.349 103.987 143.535 103.133 143.695 102.28C143.882 101.4 144.042 100.547 144.175 99.72C144.335 98.8933 144.469 98.1333 144.575 97.44H148.335L148.615 97.88ZM160.888 125.44C160.008 126 159.048 126.253 158.008 126.2C156.514 126.2 155.368 125.933 154.568 125.4C153.794 124.867 153.221 124.28 152.848 123.64C152.421 122.92 152.181 122.08 152.128 121.12V107.28H149.288V106.64H152.128V102.52L155.848 100.72V106.64H160.768V107.28H155.848V121.96C155.848 122.173 155.874 122.48 155.928 122.88C155.981 123.28 156.101 123.68 156.288 124.08C156.501 124.453 156.794 124.787 157.168 125.08C157.541 125.373 158.048 125.52 158.688 125.52C159.008 125.52 159.328 125.48 159.648 125.4C159.968 125.32 160.261 125.187 160.528 125L160.888 125.44ZM184.727 106.24C185.927 106.24 187.02 106.507 188.007 107.04C188.993 107.547 189.847 108.253 190.567 109.16C191.287 110.067 191.833 111.133 192.207 112.36C192.607 113.56 192.807 114.84 192.807 116.2C192.807 117.587 192.62 118.893 192.247 120.12C191.9 121.32 191.367 122.373 190.647 123.28C189.927 124.187 189.033 124.907 187.967 125.44C186.927 125.947 185.713 126.2 184.327 126.2C183.473 126.2 182.713 126.08 182.047 125.84C181.407 125.6 180.86 125.28 180.407 124.88C179.953 124.48 179.567 124.013 179.247 123.48C178.953 122.947 178.713 122.4 178.527 121.84V124.96C178.527 125.173 178.447 125.36 178.287 125.52C178.127 125.68 177.94 125.76 177.727 125.76H173.767V125.36C174.033 125.36 174.233 125.307 174.367 125.2C174.527 125.067 174.633 124.92 174.687 124.76C174.767 124.6 174.807 124.413 174.807 124.2V99.28C174.807 99.0667 174.767 98.88 174.687 98.72C174.633 98.5867 174.527 98.4667 174.367 98.36C174.233 98.2267 174.033 98.16 173.767 98.16V97.72H177.727C177.94 97.72 178.127 97.8 178.287 97.96C178.447 98.12 178.527 98.3067 178.527 98.52V110.56C178.713 110 178.967 109.467 179.287 108.96C179.607 108.427 180.007 107.96 180.487 107.56C180.993 107.16 181.593 106.84 182.287 106.6C182.98 106.36 183.793 106.24 184.727 106.24ZM183.687 125.36C184.54 125.36 185.287 125.133 185.927 124.68C186.567 124.2 187.1 123.547 187.527 122.72C187.98 121.893 188.313 120.92 188.527 119.8C188.767 118.68 188.887 117.48 188.887 116.2C188.887 114.92 188.78 113.72 188.567 112.6C188.38 111.48 188.06 110.507 187.607 109.68C187.18 108.853 186.633 108.213 185.967 107.76C185.327 107.28 184.54 107.04 183.607 107.04C182.007 107.04 180.753 107.707 179.847 109.04C178.967 110.347 178.527 112.253 178.527 114.76V117.84C178.527 118.693 178.62 119.573 178.807 120.48C179.02 121.36 179.327 122.16 179.727 122.88C180.153 123.6 180.687 124.2 181.327 124.68C181.993 125.133 182.78 125.36 183.687 125.36ZM205.982 125.36C207.342 125.253 208.555 124.813 209.622 124.04C210.715 123.24 211.502 122.213 211.982 120.96L212.622 121.12C212.275 122.08 211.742 122.92 211.022 123.64C210.409 124.28 209.542 124.867 208.422 125.4C207.329 125.933 205.902 126.2 204.142 126.2C202.489 126.2 201.062 125.947 199.862 125.44C198.689 124.907 197.729 124.187 196.982 123.28C196.235 122.373 195.689 121.32 195.342 120.12C194.995 118.893 194.822 117.587 194.822 116.2C194.822 114.84 194.995 113.56 195.342 112.36C195.689 111.133 196.235 110.067 196.982 109.16C197.729 108.253 198.689 107.547 199.862 107.04C201.062 106.507 202.489 106.24 204.142 106.24C206.222 106.24 207.875 106.613 209.102 107.36C210.355 108.08 211.302 108.947 211.942 109.96C212.582 110.973 212.995 112.027 213.182 113.12C213.395 114.213 213.502 115.107 213.502 115.8H198.782V116.2C198.782 117.48 198.915 118.707 199.182 119.88C199.475 121.027 199.902 122.027 200.462 122.88C201.049 123.733 201.795 124.387 202.702 124.84C203.609 125.293 204.702 125.467 205.982 125.36ZM204.142 106.88C203.315 106.88 202.582 107.093 201.942 107.52C201.302 107.947 200.755 108.533 200.302 109.28C199.849 110.027 199.489 110.907 199.222 111.92C198.982 112.907 198.835 113.987 198.782 115.16H209.502V115.12C209.315 112.293 208.755 110.213 207.822 108.88C206.889 107.547 205.662 106.88 204.142 106.88ZM237.708 125.44C236.828 126 235.868 126.253 234.828 126.2C233.334 126.2 232.188 125.933 231.388 125.4C230.614 124.867 230.041 124.28 229.668 123.64C229.241 122.92 229.001 122.08 228.948 121.12V107.28H226.108V106.64H228.948V102.52L232.668 100.72V106.64H237.588V107.28H232.668V121.96C232.668 122.173 232.694 122.48 232.748 122.88C232.801 123.28 232.921 123.68 233.108 124.08C233.321 124.453 233.614 124.787 233.988 125.08C234.361 125.373 234.868 125.52 235.508 125.52C235.828 125.52 236.148 125.48 236.468 125.4C236.788 125.32 237.081 125.187 237.348 125L237.708 125.44ZM257.31 124.2C257.31 124.413 257.35 124.6 257.43 124.76C257.51 124.92 257.617 125.067 257.75 125.2C257.883 125.307 258.083 125.36 258.35 125.36V125.76H252.59V125.36C252.857 125.36 253.057 125.307 253.19 125.2C253.323 125.067 253.417 124.92 253.47 124.76C253.55 124.6 253.59 124.413 253.59 124.2V110.52C253.59 110.093 253.497 109.667 253.31 109.24C253.15 108.813 252.897 108.427 252.55 108.08C252.23 107.733 251.83 107.453 251.35 107.24C250.87 107.027 250.31 106.92 249.67 106.92C248.843 106.92 248.097 107.093 247.43 107.44C246.79 107.787 246.23 108.213 245.75 108.72C245.297 109.2 244.95 109.72 244.71 110.28C244.47 110.84 244.35 111.333 244.35 111.76V124.2C244.35 124.413 244.39 124.6 244.47 124.76C244.523 124.92 244.617 125.067 244.75 125.2C244.91 125.307 245.11 125.36 245.35 125.36V125.76H239.59V125.36C239.857 125.36 240.057 125.307 240.19 125.2C240.35 125.067 240.457 124.92 240.51 124.76C240.59 124.6 240.63 124.413 240.63 124.2V99.28C240.63 99.0667 240.59 98.88 240.51 98.72C240.457 98.5867 240.35 98.4667 240.19 98.36C240.057 98.2267 239.857 98.16 239.59 98.16V97.72H243.55C243.763 97.72 243.95 97.8 244.11 97.96C244.27 98.12 244.35 98.3067 244.35 98.52V109.64C244.91 108.52 245.71 107.667 246.75 107.08C247.817 106.467 248.977 106.187 250.23 106.24C251.137 106.24 252.017 106.373 252.87 106.64C253.723 106.907 254.47 107.307 255.11 107.84C255.777 108.347 256.31 108.987 256.71 109.76C257.11 110.507 257.31 111.387 257.31 112.4V124.2ZM271.493 125.36C272.853 125.253 274.066 124.813 275.133 124.04C276.226 123.24 277.013 122.213 277.493 120.96L278.133 121.12C277.786 122.08 277.253 122.92 276.533 123.64C275.919 124.28 275.053 124.867 273.933 125.4C272.839 125.933 271.413 126.2 269.653 126.2C267.999 126.2 266.573 125.947 265.373 125.44C264.199 124.907 263.239 124.187 262.493 123.28C261.746 122.373 261.199 121.32 260.853 120.12C260.506 118.893 260.333 117.587 260.333 116.2C260.333 114.84 260.506 113.56 260.853 112.36C261.199 111.133 261.746 110.067 262.493 109.16C263.239 108.253 264.199 107.547 265.373 107.04C266.573 106.507 267.999 106.24 269.653 106.24C271.733 106.24 273.386 106.613 274.613 107.36C275.866 108.08 276.813 108.947 277.453 109.96C278.093 110.973 278.506 112.027 278.693 113.12C278.906 114.213 279.013 115.107 279.013 115.8H264.293V116.2C264.293 117.48 264.426 118.707 264.693 119.88C264.986 121.027 265.413 122.027 265.973 122.88C266.559 123.733 267.306 124.387 268.213 124.84C269.119 125.293 270.213 125.467 271.493 125.36ZM269.653 106.88C268.826 106.88 268.093 107.093 267.453 107.52C266.813 107.947 266.266 108.533 265.813 109.28C265.359 110.027 264.999 110.907 264.733 111.92C264.493 112.907 264.346 113.987 264.293 115.16H275.013V115.12C274.826 112.293 274.266 110.213 273.333 108.88C272.399 107.547 271.173 106.88 269.653 106.88ZM301.899 114.96C302.939 115.307 303.832 115.667 304.579 116.04C305.325 116.413 305.939 116.84 306.419 117.32C306.899 117.773 307.245 118.293 307.459 118.88C307.672 119.467 307.779 120.147 307.779 120.92C307.779 121.853 307.552 122.653 307.099 123.32C306.672 123.987 306.099 124.533 305.379 124.96C304.659 125.387 303.832 125.707 302.899 125.92C301.992 126.107 301.072 126.2 300.139 126.2C298.592 126.253 297.112 125.973 295.699 125.36C294.285 124.747 293.059 123.867 292.019 122.72L294.139 120.48C294.219 121.227 294.432 121.92 294.779 122.56C295.125 123.173 295.565 123.707 296.099 124.16C296.632 124.613 297.245 124.973 297.939 125.24C298.632 125.48 299.352 125.587 300.099 125.56C301.512 125.56 302.685 125.32 303.619 124.84C304.552 124.333 305.019 123.493 305.019 122.32C305.019 121.733 304.845 121.213 304.499 120.76C304.152 120.307 303.699 119.907 303.139 119.56C302.579 119.187 301.925 118.867 301.179 118.6C300.432 118.307 299.659 118.027 298.859 117.76C297.792 117.413 296.859 117.067 296.059 116.72C295.285 116.373 294.632 115.987 294.099 115.56C293.592 115.107 293.205 114.587 292.939 114C292.672 113.387 292.539 112.667 292.539 111.84C292.539 110.88 292.739 110.053 293.139 109.36C293.539 108.64 294.072 108.053 294.739 107.6C295.432 107.12 296.219 106.773 297.099 106.56C298.005 106.347 298.939 106.24 299.899 106.24C301.339 106.187 302.712 106.44 304.019 107C305.352 107.533 306.499 108.333 307.459 109.4L305.539 111.44C305.539 111.227 305.472 110.88 305.339 110.4C305.232 109.893 304.979 109.387 304.579 108.88C304.205 108.347 303.645 107.88 302.899 107.48C302.152 107.08 301.139 106.88 299.859 106.88C299.379 106.88 298.859 106.933 298.299 107.04C297.765 107.147 297.259 107.32 296.779 107.56C296.325 107.8 295.939 108.133 295.619 108.56C295.325 108.96 295.179 109.467 295.179 110.08C295.179 110.827 295.405 111.467 295.859 112C296.339 112.507 296.912 112.947 297.579 113.32C298.272 113.693 299.005 114.013 299.779 114.28C300.552 114.52 301.259 114.747 301.899 114.96ZM326.053 124.2C326.053 124.413 326.093 124.6 326.173 124.76C326.253 124.92 326.36 125.067 326.493 125.2C326.627 125.307 326.827 125.36 327.093 125.36V125.76H323.133C322.92 125.76 322.733 125.68 322.573 125.52C322.413 125.36 322.333 125.173 322.333 124.96V122.2C322.04 123 321.667 123.653 321.213 124.16C320.787 124.667 320.32 125.08 319.813 125.4C319.333 125.693 318.827 125.893 318.293 126C317.76 126.133 317.253 126.2 316.773 126.2C316.693 126.2 316.467 126.2 316.093 126.2C315.72 126.2 315.267 126.173 314.733 126.12C314.227 126.067 313.68 125.96 313.093 125.8C312.507 125.613 311.96 125.347 311.453 125C310.973 124.653 310.573 124.2 310.253 123.64C309.933 123.08 309.773 122.373 309.773 121.52C309.773 120.667 309.947 119.933 310.293 119.32C310.667 118.68 311.2 118.093 311.893 117.56C312.613 117 313.493 116.467 314.533 115.96C315.6 115.427 316.84 114.853 318.253 114.24C319.693 113.627 320.733 113.107 321.373 112.68C322.013 112.253 322.333 111.667 322.333 110.92V110.52C322.333 110.093 322.24 109.667 322.053 109.24C321.893 108.787 321.627 108.387 321.253 108.04C320.907 107.693 320.467 107.413 319.933 107.2C319.427 106.987 318.827 106.88 318.133 106.88C317.333 106.88 316.64 107.027 316.053 107.32C315.467 107.587 314.973 107.96 314.573 108.44C314.2 108.893 313.92 109.427 313.733 110.04C313.573 110.653 313.493 111.293 313.493 111.96L310.493 110.92C310.627 110.52 310.867 110.053 311.213 109.52C311.587 108.987 312.093 108.48 312.733 108C313.373 107.493 314.173 107.08 315.133 106.76C316.12 106.413 317.307 106.24 318.693 106.24C320.053 106.24 321.2 106.427 322.133 106.8C323.067 107.173 323.827 107.667 324.413 108.28C325 108.867 325.413 109.52 325.653 110.24C325.92 110.933 326.053 111.627 326.053 112.32V124.2ZM322.333 112.64C322.04 112.933 321.6 113.24 321.013 113.56C320.453 113.853 319.68 114.24 318.693 114.72C317.6 115.253 316.72 115.853 316.053 116.52C315.413 117.187 314.92 117.853 314.573 118.52C314.227 119.16 314 119.773 313.893 120.36C313.787 120.92 313.733 121.373 313.733 121.72C313.733 122.04 313.773 122.427 313.853 122.88C313.933 123.307 314.093 123.72 314.333 124.12C314.6 124.52 314.96 124.867 315.413 125.16C315.867 125.427 316.467 125.56 317.213 125.56C318.227 125.56 319.067 125.32 319.733 124.84C320.4 124.333 320.92 123.76 321.293 123.12C321.667 122.453 321.933 121.813 322.093 121.2C322.253 120.56 322.333 120.107 322.333 119.84V112.64ZM356.046 124.2C356.046 124.413 356.086 124.6 356.166 124.76C356.246 124.92 356.353 125.067 356.486 125.2C356.619 125.307 356.819 125.36 357.086 125.36V125.76H351.326V125.36C351.593 125.36 351.793 125.307 351.926 125.2C352.059 125.067 352.153 124.92 352.206 124.76C352.286 124.6 352.326 124.413 352.326 124.2V110.48C352.326 110.267 352.299 109.96 352.246 109.56C352.193 109.16 352.059 108.773 351.846 108.4C351.659 108 351.379 107.653 351.006 107.36C350.633 107.067 350.126 106.92 349.486 106.92C348.739 106.92 348.099 107.093 347.566 107.44C347.033 107.787 346.593 108.213 346.246 108.72C345.926 109.2 345.686 109.72 345.526 110.28C345.393 110.84 345.326 111.333 345.326 111.76V124.2C345.326 124.413 345.366 124.6 345.446 124.76C345.526 124.92 345.633 125.067 345.766 125.2C345.899 125.307 346.099 125.36 346.366 125.36V125.76H340.606V125.36C340.873 125.36 341.073 125.307 341.206 125.2C341.366 125.067 341.473 124.92 341.526 124.76C341.606 124.6 341.646 124.413 341.646 124.2V110.48C341.646 110.267 341.633 109.96 341.606 109.56C341.579 109.16 341.486 108.773 341.326 108.4C341.166 108 340.913 107.653 340.566 107.36C340.219 107.067 339.726 106.92 339.086 106.92C338.339 106.92 337.686 107.147 337.126 107.6C336.566 108.027 336.099 108.547 335.726 109.16C335.379 109.747 335.113 110.36 334.926 111C334.739 111.64 334.646 112.173 334.646 112.6V124.2C334.646 124.413 334.686 124.6 334.766 124.76C334.819 124.92 334.913 125.067 335.046 125.2C335.206 125.307 335.406 125.36 335.646 125.36V125.76H329.886V125.36C330.153 125.36 330.353 125.307 330.486 125.2C330.646 125.067 330.753 124.92 330.806 124.76C330.886 124.6 330.926 124.413 330.926 124.2V108.2C330.926 107.987 330.886 107.8 330.806 107.64C330.753 107.507 330.646 107.387 330.486 107.28C330.353 107.147 330.153 107.08 329.886 107.08V106.64H333.846C334.059 106.64 334.246 106.72 334.406 106.88C334.566 107.04 334.646 107.227 334.646 107.44V109.92C334.833 109.467 335.059 109.027 335.326 108.6C335.619 108.173 335.966 107.787 336.366 107.44C336.793 107.067 337.286 106.773 337.846 106.56C338.406 106.347 339.046 106.24 339.766 106.24C340.673 106.24 341.433 106.347 342.046 106.56C342.686 106.773 343.219 107.053 343.646 107.4C344.073 107.72 344.393 108.08 344.606 108.48C344.846 108.88 345.019 109.267 345.126 109.64C345.259 109.24 345.446 108.84 345.686 108.44C345.953 108.04 346.286 107.68 346.686 107.36C347.086 107.013 347.566 106.747 348.126 106.56C348.713 106.347 349.393 106.24 350.166 106.24C350.913 106.24 351.566 106.32 352.126 106.48C352.686 106.613 353.166 106.8 353.566 107.04C353.993 107.28 354.339 107.547 354.606 107.84C354.899 108.133 355.139 108.44 355.326 108.76C355.753 109.507 355.993 110.36 356.046 111.32V124.2ZM370.462 125.36C371.822 125.253 373.035 124.813 374.102 124.04C375.195 123.24 375.982 122.213 376.462 120.96L377.102 121.12C376.755 122.08 376.222 122.92 375.502 123.64C374.888 124.28 374.022 124.867 372.902 125.4C371.808 125.933 370.382 126.2 368.622 126.2C366.968 126.2 365.542 125.947 364.342 125.44C363.168 124.907 362.208 124.187 361.462 123.28C360.715 122.373 360.168 121.32 359.822 120.12C359.475 118.893 359.302 117.587 359.302 116.2C359.302 114.84 359.475 113.56 359.822 112.36C360.168 111.133 360.715 110.067 361.462 109.16C362.208 108.253 363.168 107.547 364.342 107.04C365.542 106.507 366.968 106.24 368.622 106.24C370.702 106.24 372.355 106.613 373.582 107.36C374.835 108.08 375.782 108.947 376.422 109.96C377.062 110.973 377.475 112.027 377.662 113.12C377.875 114.213 377.982 115.107 377.982 115.8H363.262V116.2C363.262 117.48 363.395 118.707 363.662 119.88C363.955 121.027 364.382 122.027 364.942 122.88C365.528 123.733 366.275 124.387 367.182 124.84C368.088 125.293 369.182 125.467 370.462 125.36ZM368.622 106.88C367.795 106.88 367.062 107.093 366.422 107.52C365.782 107.947 365.235 108.533 364.782 109.28C364.328 110.027 363.968 110.907 363.702 111.92C363.462 112.907 363.315 113.987 363.262 115.16H373.982V115.12C373.795 112.293 373.235 110.213 372.302 108.88C371.368 107.547 370.142 106.88 368.622 106.88ZM402.547 106.24C403.747 106.24 404.841 106.507 405.827 107.04C406.814 107.547 407.667 108.253 408.387 109.16C409.107 110.067 409.654 111.133 410.027 112.36C410.427 113.56 410.627 114.84 410.627 116.2C410.627 117.587 410.414 118.893 409.987 120.12C409.587 121.32 409.001 122.373 408.227 123.28C407.481 124.187 406.561 124.907 405.467 125.44C404.374 125.947 403.134 126.2 401.747 126.2C401.001 126.2 400.334 126.093 399.747 125.88C399.161 125.667 398.641 125.387 398.187 125.04C397.761 124.693 397.387 124.307 397.067 123.88C396.774 123.453 396.521 123.027 396.307 122.6V133.12C396.307 133.333 396.347 133.533 396.427 133.72C396.507 133.853 396.614 133.973 396.747 134.08C396.881 134.213 397.081 134.28 397.347 134.28V134.68H391.587V134.28C391.854 134.28 392.054 134.213 392.187 134.08C392.347 133.973 392.454 133.853 392.507 133.72C392.587 133.533 392.627 133.333 392.627 133.12V108.2C392.627 107.987 392.587 107.8 392.507 107.64C392.454 107.507 392.347 107.387 392.187 107.28C392.054 107.147 391.854 107.08 391.587 107.08V106.64H395.547C395.707 106.64 395.894 106.72 396.107 106.88C396.267 107.093 396.334 107.28 396.307 107.44V110.56C396.521 110 396.787 109.467 397.107 108.96C397.427 108.427 397.827 107.96 398.307 107.56C398.814 107.16 399.414 106.84 400.107 106.6C400.801 106.36 401.614 106.24 402.547 106.24ZM401.307 125.56C402.161 125.56 402.921 125.32 403.587 124.84C404.254 124.333 404.814 123.667 405.267 122.84C405.747 121.987 406.107 120.987 406.347 119.84C406.587 118.693 406.707 117.48 406.707 116.2C406.707 114.92 406.601 113.72 406.387 112.6C406.201 111.48 405.881 110.507 405.427 109.68C405.001 108.853 404.454 108.213 403.787 107.76C403.147 107.28 402.361 107.04 401.427 107.04C399.827 107.04 398.574 107.707 397.667 109.04C396.787 110.347 396.347 112.253 396.347 114.76V120.24C396.347 120.56 396.441 121.027 396.627 121.64C396.841 122.227 397.147 122.813 397.547 123.4C397.947 123.96 398.454 124.467 399.067 124.92C399.707 125.347 400.454 125.56 401.307 125.56ZM423.804 125.36C425.164 125.253 426.377 124.813 427.444 124.04C428.537 123.24 429.324 122.213 429.804 120.96L430.444 121.12C430.097 122.08 429.564 122.92 428.844 123.64C428.23 124.28 427.364 124.867 426.244 125.4C425.15 125.933 423.724 126.2 421.964 126.2C420.31 126.2 418.884 125.947 417.684 125.44C416.51 124.907 415.55 124.187 414.804 123.28C414.057 122.373 413.51 121.32 413.164 120.12C412.817 118.893 412.644 117.587 412.644 116.2C412.644 114.84 412.817 113.56 413.164 112.36C413.51 111.133 414.057 110.067 414.804 109.16C415.55 108.253 416.51 107.547 417.684 107.04C418.884 106.507 420.31 106.24 421.964 106.24C424.044 106.24 425.697 106.613 426.924 107.36C428.177 108.08 429.124 108.947 429.764 109.96C430.404 110.973 430.817 112.027 431.004 113.12C431.217 114.213 431.324 115.107 431.324 115.8H416.604V116.2C416.604 117.48 416.737 118.707 417.004 119.88C417.297 121.027 417.724 122.027 418.284 122.88C418.87 123.733 419.617 124.387 420.524 124.84C421.43 125.293 422.524 125.467 423.804 125.36ZM421.964 106.88C421.137 106.88 420.404 107.093 419.764 107.52C419.124 107.947 418.577 108.533 418.124 109.28C417.67 110.027 417.31 110.907 417.044 111.92C416.804 112.907 416.657 113.987 416.604 115.16H427.324V115.12C427.137 112.293 426.577 110.213 425.644 108.88C424.71 107.547 423.484 106.88 421.964 106.88ZM438.693 110.2C439.093 108.84 439.813 107.84 440.853 107.2C441.919 106.533 443.133 106.2 444.493 106.2C445.053 106.2 445.559 106.24 446.013 106.32C446.493 106.4 446.919 106.507 447.293 106.64C447.719 106.773 448.106 106.92 448.453 107.08L446.533 110.48C446.319 109.653 445.879 109 445.213 108.52C444.546 108.013 443.786 107.787 442.933 107.84C441.973 107.84 441.213 108.107 440.653 108.64C440.093 109.147 439.666 109.707 439.373 110.32C439.026 111.067 438.799 111.907 438.693 112.84V124.2C438.693 124.413 438.733 124.6 438.813 124.76C438.866 124.92 438.959 125.067 439.093 125.2C439.253 125.307 439.453 125.36 439.693 125.36V125.76H433.933V125.36C434.199 125.36 434.399 125.307 434.533 125.2C434.693 125.067 434.799 124.92 434.853 124.76C434.933 124.6 434.973 124.413 434.973 124.2V108.2C434.973 107.987 434.933 107.8 434.853 107.64C434.799 107.507 434.693 107.387 434.533 107.28C434.399 107.147 434.199 107.08 433.933 107.08V106.64H437.893C438.106 106.64 438.293 106.72 438.453 106.88C438.613 107.04 438.693 107.227 438.693 107.44V110.2ZM459.327 114.96C460.367 115.307 461.26 115.667 462.007 116.04C462.754 116.413 463.367 116.84 463.847 117.32C464.327 117.773 464.674 118.293 464.887 118.88C465.1 119.467 465.207 120.147 465.207 120.92C465.207 121.853 464.98 122.653 464.527 123.32C464.1 123.987 463.527 124.533 462.807 124.96C462.087 125.387 461.26 125.707 460.327 125.92C459.42 126.107 458.5 126.2 457.567 126.2C456.02 126.253 454.54 125.973 453.127 125.36C451.714 124.747 450.487 123.867 449.447 122.72L451.567 120.48C451.647 121.227 451.86 121.92 452.207 122.56C452.554 123.173 452.994 123.707 453.527 124.16C454.06 124.613 454.674 124.973 455.367 125.24C456.06 125.48 456.78 125.587 457.527 125.56C458.94 125.56 460.114 125.32 461.047 124.84C461.98 124.333 462.447 123.493 462.447 122.32C462.447 121.733 462.274 121.213 461.927 120.76C461.58 120.307 461.127 119.907 460.567 119.56C460.007 119.187 459.354 118.867 458.607 118.6C457.86 118.307 457.087 118.027 456.287 117.76C455.22 117.413 454.287 117.067 453.487 116.72C452.714 116.373 452.06 115.987 451.527 115.56C451.02 115.107 450.634 114.587 450.367 114C450.1 113.387 449.967 112.667 449.967 111.84C449.967 110.88 450.167 110.053 450.567 109.36C450.967 108.64 451.5 108.053 452.167 107.6C452.86 107.12 453.647 106.773 454.527 106.56C455.434 106.347 456.367 106.24 457.327 106.24C458.767 106.187 460.14 106.44 461.447 107C462.78 107.533 463.927 108.333 464.887 109.4L462.967 111.44C462.967 111.227 462.9 110.88 462.767 110.4C462.66 109.893 462.407 109.387 462.007 108.88C461.634 108.347 461.074 107.88 460.327 107.48C459.58 107.08 458.567 106.88 457.287 106.88C456.807 106.88 456.287 106.933 455.727 107.04C455.194 107.147 454.687 107.32 454.207 107.56C453.754 107.8 453.367 108.133 453.047 108.56C452.754 108.96 452.607 109.467 452.607 110.08C452.607 110.827 452.834 111.467 453.287 112C453.767 112.507 454.34 112.947 455.007 113.32C455.7 113.693 456.434 114.013 457.207 114.28C457.98 114.52 458.687 114.747 459.327 114.96ZM476.322 106.24C477.975 106.24 479.388 106.507 480.562 107.04C481.762 107.547 482.735 108.253 483.482 109.16C484.255 110.067 484.815 111.133 485.162 112.36C485.508 113.56 485.682 114.84 485.682 116.2C485.682 117.587 485.508 118.893 485.162 120.12C484.815 121.32 484.255 122.373 483.482 123.28C482.735 124.187 481.775 124.907 480.602 125.44C479.428 125.947 478.002 126.2 476.322 126.2C474.668 126.2 473.242 125.947 472.042 125.44C470.868 124.907 469.908 124.187 469.162 123.28C468.415 122.373 467.868 121.32 467.522 120.12C467.175 118.893 467.002 117.587 467.002 116.2C467.002 114.84 467.175 113.56 467.522 112.36C467.868 111.133 468.415 110.067 469.162 109.16C469.908 108.253 470.868 107.547 472.042 107.04C473.242 106.507 474.668 106.24 476.322 106.24ZM476.322 125.56C477.255 125.56 478.055 125.32 478.722 124.84C479.415 124.333 479.975 123.667 480.402 122.84C480.855 121.987 481.188 120.987 481.402 119.84C481.615 118.693 481.722 117.48 481.722 116.2C481.722 114.92 481.615 113.72 481.402 112.6C481.188 111.453 480.855 110.467 480.402 109.64C479.975 108.787 479.415 108.12 478.722 107.64C478.055 107.133 477.255 106.88 476.322 106.88C475.415 106.88 474.615 107.133 473.922 107.64C473.255 108.12 472.695 108.787 472.242 109.64C471.815 110.467 471.495 111.453 471.282 112.6C471.068 113.72 470.962 114.92 470.962 116.2C470.962 117.48 471.068 118.693 471.282 119.84C471.495 120.987 471.815 121.987 472.242 122.84C472.695 123.667 473.255 124.333 473.922 124.84C474.615 125.32 475.415 125.56 476.322 125.56ZM505.62 124.2C505.62 124.413 505.66 124.6 505.74 124.76C505.82 124.92 505.927 125.067 506.06 125.2C506.193 125.307 506.393 125.36 506.66 125.36V125.76H500.9V125.36C501.167 125.36 501.367 125.307 501.5 125.2C501.633 125.067 501.727 124.92 501.78 124.76C501.86 124.6 501.9 124.413 501.9 124.2V110.52C501.9 110.093 501.807 109.667 501.62 109.24C501.46 108.813 501.207 108.427 500.86 108.08C500.54 107.733 500.14 107.453 499.66 107.24C499.18 107.027 498.62 106.92 497.98 106.92C497.153 106.92 496.407 107.093 495.74 107.44C495.1 107.787 494.54 108.213 494.06 108.72C493.607 109.2 493.26 109.72 493.02 110.28C492.78 110.84 492.66 111.333 492.66 111.76V124.2C492.66 124.413 492.7 124.6 492.78 124.76C492.833 124.92 492.927 125.067 493.06 125.2C493.22 125.307 493.42 125.36 493.66 125.36V125.76H487.9V125.36C488.167 125.36 488.367 125.307 488.5 125.2C488.66 125.067 488.767 124.92 488.82 124.76C488.9 124.6 488.94 124.413 488.94 124.2V108.2C488.94 107.987 488.9 107.8 488.82 107.64C488.767 107.507 488.66 107.387 488.5 107.28C488.367 107.147 488.167 107.08 487.9 107.08V106.64H491.86C492.073 106.64 492.26 106.72 492.42 106.88C492.58 107.04 492.66 107.227 492.66 107.44V109.64C493.22 108.52 494.02 107.667 495.06 107.08C496.127 106.467 497.287 106.187 498.54 106.24C499.447 106.24 500.327 106.373 501.18 106.64C502.033 106.907 502.78 107.307 503.42 107.84C504.087 108.347 504.62 108.987 505.02 109.76C505.42 110.507 505.62 111.387 505.62 112.4V124.2ZM28.6 150.64V151.08C27.9867 151.027 27.4267 151.187 26.92 151.56C26.4133 151.907 26.0667 152.387 25.88 153L19.48 170.2H19.16L14.52 158.12L9.4 170.2H9.08L1.64 152.2C1.42667 151.747 1.21333 151.453 1 151.32C0.786667 151.16 0.52 151.08 0.2 151.08V150.64H6.6V151.08C6.17333 151.08 5.88 151.187 5.72 151.4C5.58667 151.587 5.57333 151.827 5.68 152.12L10.92 165L14.2 157.28L12.28 152.24C11.96 151.467 11.4933 151.08 10.88 151.08V150.64H17.52V151.08C17.0133 151.08 16.6533 151.173 16.44 151.36C16.2267 151.547 16.2 151.84 16.36 152.24L20.88 164.64L25.16 153C25.3467 152.52 25.2933 152.08 25 151.68C24.7333 151.28 24.2267 151.08 23.48 151.08V150.64H28.6ZM47.3584 168.2C47.3584 168.413 47.3984 168.6 47.4784 168.76C47.5584 168.92 47.6651 169.067 47.7984 169.2C47.9318 169.307 48.1318 169.36 48.3984 169.36V169.76H42.6384V169.36C42.9051 169.36 43.1051 169.307 43.2384 169.2C43.3718 169.067 43.4651 168.92 43.5184 168.76C43.5984 168.6 43.6384 168.413 43.6384 168.2V154.52C43.6384 154.093 43.5451 153.667 43.3584 153.24C43.1984 152.813 42.9451 152.427 42.5984 152.08C42.2784 151.733 41.8784 151.453 41.3984 151.24C40.9184 151.027 40.3584 150.92 39.7184 150.92C38.8918 150.92 38.1451 151.093 37.4784 151.44C36.8384 151.787 36.2784 152.213 35.7984 152.72C35.3451 153.2 34.9984 153.72 34.7584 154.28C34.5184 154.84 34.3984 155.333 34.3984 155.76V168.2C34.3984 168.413 34.4384 168.6 34.5184 168.76C34.5718 168.92 34.6651 169.067 34.7984 169.2C34.9584 169.307 35.1584 169.36 35.3984 169.36V169.76H29.6384V169.36C29.9051 169.36 30.1051 169.307 30.2384 169.2C30.3984 169.067 30.5051 168.92 30.5584 168.76C30.6384 168.6 30.6784 168.413 30.6784 168.2V143.28C30.6784 143.067 30.6384 142.88 30.5584 142.72C30.5051 142.587 30.3984 142.467 30.2384 142.36C30.1051 142.227 29.9051 142.16 29.6384 142.16V141.72H33.5984C33.8118 141.72 33.9984 141.8 34.1584 141.96C34.3184 142.12 34.3984 142.307 34.3984 142.52V153.64C34.9584 152.52 35.7584 151.667 36.7984 151.08C37.8651 150.467 39.0251 150.187 40.2784 150.24C41.1851 150.24 42.0651 150.373 42.9184 150.64C43.7718 150.907 44.5184 151.307 45.1584 151.84C45.8251 152.347 46.3584 152.987 46.7584 153.76C47.1584 154.507 47.3584 155.387 47.3584 156.4V168.2ZM59.7013 150.24C61.3546 150.24 62.7679 150.507 63.9413 151.04C65.1413 151.547 66.1146 152.253 66.8613 153.16C67.6346 154.067 68.1946 155.133 68.5413 156.36C68.8879 157.56 69.0613 158.84 69.0613 160.2C69.0613 161.587 68.8879 162.893 68.5413 164.12C68.1946 165.32 67.6346 166.373 66.8613 167.28C66.1146 168.187 65.1546 168.907 63.9813 169.44C62.8079 169.947 61.3813 170.2 59.7013 170.2C58.0479 170.2 56.6213 169.947 55.4213 169.44C54.2479 168.907 53.2879 168.187 52.5413 167.28C51.7946 166.373 51.2479 165.32 50.9013 164.12C50.5546 162.893 50.3813 161.587 50.3813 160.2C50.3813 158.84 50.5546 157.56 50.9013 156.36C51.2479 155.133 51.7946 154.067 52.5413 153.16C53.2879 152.253 54.2479 151.547 55.4213 151.04C56.6213 150.507 58.0479 150.24 59.7013 150.24ZM59.7013 169.56C60.6346 169.56 61.4346 169.32 62.1013 168.84C62.7946 168.333 63.3546 167.667 63.7813 166.84C64.2346 165.987 64.5679 164.987 64.7813 163.84C64.9946 162.693 65.1013 161.48 65.1013 160.2C65.1013 158.92 64.9946 157.72 64.7813 156.6C64.5679 155.453 64.2346 154.467 63.7813 153.64C63.3546 152.787 62.7946 152.12 62.1013 151.64C61.4346 151.133 60.6346 150.88 59.7013 150.88C58.7946 150.88 57.9946 151.133 57.3013 151.64C56.6346 152.12 56.0746 152.787 55.6213 153.64C55.1946 154.467 54.8746 155.453 54.6613 156.6C54.4479 157.72 54.3413 158.92 54.3413 160.2C54.3413 161.48 54.4479 162.693 54.6613 163.84C54.8746 164.987 55.1946 165.987 55.6213 166.84C56.0746 167.667 56.6346 168.333 57.3013 168.84C57.9946 169.32 58.7946 169.56 59.7013 169.56ZM109.072 150.64V151.08C108.459 151.027 107.899 151.187 107.392 151.56C106.885 151.907 106.539 152.387 106.352 153L99.9519 170.2H99.6319L94.9919 158.12L89.8719 170.2H89.5519L82.1119 152.2C81.8985 151.747 81.6852 151.453 81.4719 151.32C81.2585 151.16 80.9919 151.08 80.6719 151.08V150.64H87.0719V151.08C86.6452 151.08 86.3519 151.187 86.1919 151.4C86.0585 151.587 86.0452 151.827 86.1519 152.12L91.3919 165L94.6719 157.28L92.7519 152.24C92.4319 151.467 91.9652 151.08 91.3519 151.08V150.64H97.9919V151.08C97.4852 151.08 97.1252 151.173 96.9119 151.36C96.6985 151.547 96.6719 151.84 96.8319 152.24L101.352 164.64L105.632 153C105.819 152.52 105.765 152.08 105.472 151.68C105.205 151.28 104.699 151.08 103.952 151.08V150.64H109.072ZM125.555 168.2C125.555 168.413 125.595 168.6 125.675 168.76C125.755 168.92 125.862 169.067 125.995 169.2C126.128 169.307 126.328 169.36 126.595 169.36V169.76H122.635C122.422 169.76 122.235 169.68 122.075 169.52C121.915 169.36 121.835 169.173 121.835 168.96V166.2C121.542 167 121.168 167.653 120.715 168.16C120.288 168.667 119.822 169.08 119.315 169.4C118.835 169.693 118.328 169.893 117.795 170C117.262 170.133 116.755 170.2 116.275 170.2C116.195 170.2 115.968 170.2 115.595 170.2C115.222 170.2 114.768 170.173 114.235 170.12C113.728 170.067 113.182 169.96 112.595 169.8C112.008 169.613 111.462 169.347 110.955 169C110.475 168.653 110.075 168.2 109.755 167.64C109.435 167.08 109.275 166.373 109.275 165.52C109.275 164.667 109.448 163.933 109.795 163.32C110.168 162.68 110.702 162.093 111.395 161.56C112.115 161 112.995 160.467 114.035 159.96C115.102 159.427 116.342 158.853 117.755 158.24C119.195 157.627 120.235 157.107 120.875 156.68C121.515 156.253 121.835 155.667 121.835 154.92V154.52C121.835 154.093 121.742 153.667 121.555 153.24C121.395 152.787 121.128 152.387 120.755 152.04C120.408 151.693 119.968 151.413 119.435 151.2C118.928 150.987 118.328 150.88 117.635 150.88C116.835 150.88 116.142 151.027 115.555 151.32C114.968 151.587 114.475 151.96 114.075 152.44C113.702 152.893 113.422 153.427 113.235 154.04C113.075 154.653 112.995 155.293 112.995 155.96L109.995 154.92C110.128 154.52 110.368 154.053 110.715 153.52C111.088 152.987 111.595 152.48 112.235 152C112.875 151.493 113.675 151.08 114.635 150.76C115.622 150.413 116.808 150.24 118.195 150.24C119.555 150.24 120.702 150.427 121.635 150.8C122.568 151.173 123.328 151.667 123.915 152.28C124.502 152.867 124.915 153.52 125.155 154.24C125.422 154.933 125.555 155.627 125.555 156.32V168.2ZM121.835 156.64C121.542 156.933 121.102 157.24 120.515 157.56C119.955 157.853 119.182 158.24 118.195 158.72C117.102 159.253 116.222 159.853 115.555 160.52C114.915 161.187 114.422 161.853 114.075 162.52C113.728 163.16 113.502 163.773 113.395 164.36C113.288 164.92 113.235 165.373 113.235 165.72C113.235 166.04 113.275 166.427 113.355 166.88C113.435 167.307 113.595 167.72 113.835 168.12C114.102 168.52 114.462 168.867 114.915 169.16C115.368 169.427 115.968 169.56 116.715 169.56C117.728 169.56 118.568 169.32 119.235 168.84C119.902 168.333 120.422 167.76 120.795 167.12C121.168 166.453 121.435 165.813 121.595 165.2C121.755 164.56 121.835 164.107 121.835 163.84V156.64ZM134.147 168.2C134.147 168.413 134.187 168.6 134.267 168.76C134.321 168.92 134.414 169.067 134.547 169.2C134.707 169.307 134.907 169.36 135.147 169.36V169.76H129.387V169.36C129.654 169.36 129.854 169.307 129.987 169.2C130.147 169.067 130.254 168.92 130.307 168.76C130.387 168.6 130.427 168.413 130.427 168.2V143.28C130.427 143.067 130.387 142.88 130.307 142.72C130.254 142.587 130.147 142.467 129.987 142.36C129.854 142.227 129.654 142.16 129.387 142.16V141.76H133.347C133.534 141.76 133.721 141.827 133.907 141.96C134.067 142.173 134.147 142.36 134.147 142.52V168.2ZM155.512 168.36C155.619 168.493 155.792 168.693 156.032 168.96C156.272 169.227 156.539 169.36 156.832 169.36V169.76H152.792C152.206 169.76 151.766 169.52 151.472 169.04L145.272 159.72L143.192 162.04V168.2C143.192 168.413 143.232 168.6 143.312 168.76C143.366 168.92 143.459 169.067 143.592 169.2C143.752 169.307 143.952 169.36 144.192 169.36V169.76H138.432V169.36C138.699 169.36 138.899 169.307 139.032 169.2C139.192 169.067 139.299 168.92 139.352 168.76C139.432 168.6 139.472 168.413 139.472 168.2V143.28C139.472 143.067 139.432 142.88 139.352 142.72C139.299 142.587 139.192 142.467 139.032 142.36C138.899 142.227 138.699 142.16 138.432 142.16V141.72H142.392C142.552 141.72 142.739 141.8 142.952 141.96C143.112 142.173 143.192 142.36 143.192 142.52V161.08L149.112 154.6C149.646 154.013 149.979 153.533 150.112 153.16C150.246 152.787 150.312 152.467 150.312 152.2C150.366 151.907 150.272 151.653 150.032 151.44C149.872 151.2 149.619 151.08 149.272 151.08V150.64H155.032V151.08C154.659 151.08 154.219 151.227 153.712 151.52C153.232 151.813 152.739 152.173 152.232 152.6C151.726 153 151.232 153.427 150.752 153.88C150.272 154.333 149.872 154.733 149.552 155.08L147.832 156.92L155.512 168.36ZM167.835 169.36C169.195 169.253 170.408 168.813 171.475 168.04C172.568 167.24 173.355 166.213 173.835 164.96L174.475 165.12C174.128 166.08 173.595 166.92 172.875 167.64C172.262 168.28 171.395 168.867 170.275 169.4C169.182 169.933 167.755 170.2 165.995 170.2C164.342 170.2 162.915 169.947 161.715 169.44C160.542 168.907 159.582 168.187 158.835 167.28C158.088 166.373 157.542 165.32 157.195 164.12C156.848 162.893 156.675 161.587 156.675 160.2C156.675 158.84 156.848 157.56 157.195 156.36C157.542 155.133 158.088 154.067 158.835 153.16C159.582 152.253 160.542 151.547 161.715 151.04C162.915 150.507 164.342 150.24 165.995 150.24C168.075 150.24 169.728 150.613 170.955 151.36C172.208 152.08 173.155 152.947 173.795 153.96C174.435 154.973 174.848 156.027 175.035 157.12C175.248 158.213 175.355 159.107 175.355 159.8H160.635V160.2C160.635 161.48 160.768 162.707 161.035 163.88C161.328 165.027 161.755 166.027 162.315 166.88C162.902 167.733 163.648 168.387 164.555 168.84C165.462 169.293 166.555 169.467 167.835 169.36ZM165.995 150.88C165.168 150.88 164.435 151.093 163.795 151.52C163.155 151.947 162.608 152.533 162.155 153.28C161.702 154.027 161.342 154.907 161.075 155.92C160.835 156.907 160.688 157.987 160.635 159.16H171.355V159.12C171.168 156.293 170.608 154.213 169.675 152.88C168.742 151.547 167.515 150.88 165.995 150.88ZM196.204 142.16C195.964 142.16 195.764 142.227 195.604 142.36C195.471 142.467 195.377 142.587 195.324 142.72C195.244 142.88 195.204 143.067 195.204 143.28V168.2C195.204 168.413 195.244 168.6 195.324 168.76C195.377 168.92 195.471 169.067 195.604 169.2C195.764 169.307 195.964 169.36 196.204 169.36V169.76H192.284C192.071 169.76 191.884 169.68 191.724 169.52C191.564 169.36 191.484 169.173 191.484 168.96V165.84C191.297 166.427 191.031 166.987 190.684 167.52C190.364 168.027 189.951 168.48 189.444 168.88C188.964 169.28 188.377 169.6 187.684 169.84C186.991 170.08 186.177 170.2 185.244 170.2C184.044 170.2 182.951 169.947 181.964 169.44C180.977 168.907 180.124 168.187 179.404 167.28C178.711 166.373 178.164 165.32 177.764 164.12C177.364 162.893 177.164 161.587 177.164 160.2C177.164 158.813 177.364 157.52 177.764 156.32C178.191 155.093 178.777 154.04 179.524 153.16C180.297 152.253 181.231 151.547 182.324 151.04C183.444 150.507 184.684 150.24 186.044 150.24C186.817 150.24 187.497 150.347 188.084 150.56C188.671 150.773 189.177 151.053 189.604 151.4C190.057 151.747 190.431 152.133 190.724 152.56C191.044 152.987 191.297 153.413 191.484 153.84V142.52C191.484 142.307 191.564 142.12 191.724 141.96C191.884 141.8 192.071 141.72 192.284 141.72H196.204V142.16ZM191.484 156.16C191.484 155.84 191.377 155.387 191.164 154.8C190.977 154.213 190.684 153.627 190.284 153.04C189.884 152.453 189.364 151.947 188.724 151.52C188.111 151.093 187.364 150.88 186.484 150.88C185.631 150.88 184.871 151.133 184.204 151.64C183.537 152.12 182.977 152.787 182.524 153.64C182.071 154.467 181.724 155.453 181.484 156.6C181.244 157.72 181.124 158.92 181.124 160.2C181.124 161.48 181.217 162.68 181.404 163.8C181.617 164.92 181.937 165.893 182.364 166.72C182.817 167.547 183.377 168.2 184.044 168.68C184.711 169.133 185.497 169.36 186.404 169.36C188.004 169.36 189.244 168.707 190.124 167.4C191.031 166.067 191.484 164.16 191.484 161.68V156.16ZM213.147 148C212.453 148 211.853 147.76 211.347 147.28C210.867 146.773 210.627 146.173 210.627 145.48C210.627 144.787 210.867 144.2 211.347 143.72C211.853 143.213 212.453 142.96 213.147 142.96C213.867 142.96 214.467 143.2 214.947 143.68C215.32 144.053 215.56 144.493 215.667 145C215.773 145.48 215.72 145.96 215.507 146.44C215.293 146.92 214.973 147.307 214.547 147.6C214.147 147.867 213.68 148 213.147 148ZM215.187 168.2C215.187 168.413 215.227 168.6 215.307 168.76C215.36 168.92 215.453 169.067 215.587 169.2C215.747 169.307 215.947 169.36 216.187 169.36V169.76H210.427V169.36C210.693 169.36 210.893 169.307 211.027 169.2C211.187 169.067 211.293 168.92 211.347 168.76C211.427 168.6 211.467 168.413 211.467 168.2V152.2C211.467 151.987 211.427 151.8 211.347 151.64C211.293 151.507 211.187 151.387 211.027 151.28C210.893 151.147 210.693 151.08 210.427 151.08V150.64H214.387C214.6 150.64 214.787 150.72 214.947 150.88C215.107 151.04 215.187 151.227 215.187 151.44V168.2ZM236.956 168.2C236.956 168.413 236.996 168.6 237.076 168.76C237.156 168.92 237.263 169.067 237.396 169.2C237.529 169.307 237.729 169.36 237.996 169.36V169.76H232.236V169.36C232.503 169.36 232.703 169.307 232.836 169.2C232.969 169.067 233.063 168.92 233.116 168.76C233.196 168.6 233.236 168.413 233.236 168.2V154.52C233.236 154.093 233.143 153.667 232.956 153.24C232.796 152.813 232.543 152.427 232.196 152.08C231.876 151.733 231.476 151.453 230.996 151.24C230.516 151.027 229.956 150.92 229.316 150.92C228.489 150.92 227.743 151.093 227.076 151.44C226.436 151.787 225.876 152.213 225.396 152.72C224.943 153.2 224.596 153.72 224.356 154.28C224.116 154.84 223.996 155.333 223.996 155.76V168.2C223.996 168.413 224.036 168.6 224.116 168.76C224.169 168.92 224.263 169.067 224.396 169.2C224.556 169.307 224.756 169.36 224.996 169.36V169.76H219.236V169.36C219.503 169.36 219.703 169.307 219.836 169.2C219.996 169.067 220.103 168.92 220.156 168.76C220.236 168.6 220.276 168.413 220.276 168.2V152.2C220.276 151.987 220.236 151.8 220.156 151.64C220.103 151.507 219.996 151.387 219.836 151.28C219.703 151.147 219.503 151.08 219.236 151.08V150.64H223.196C223.409 150.64 223.596 150.72 223.756 150.88C223.916 151.04 223.996 151.227 223.996 151.44V153.64C224.556 152.52 225.356 151.667 226.396 151.08C227.463 150.467 228.623 150.187 229.876 150.24C230.783 150.24 231.663 150.373 232.516 150.64C233.369 150.907 234.116 151.307 234.756 151.84C235.423 152.347 235.956 152.987 236.356 153.76C236.756 154.507 236.956 155.387 236.956 156.4V168.2Z" fill="#F9DDFF"/>
<path opacity="0.6" d="M14.984 206.648C14.984 208.76 13.448 210.28 10.824 210.456V213.576H17.032V214.44H3.48V213.576H9.752V210.456C7.112 210.28 5.576 208.776 5.576 206.648C5.576 204.392 7.32 202.824 10.28 202.824C13.24 202.824 14.984 204.392 14.984 206.648ZM13.912 206.648C13.912 204.984 12.584 203.688 10.28 203.688C7.976 203.688 6.648 204.984 6.648 206.648C6.648 208.312 7.976 209.608 10.28 209.608C12.584 209.608 13.912 208.312 13.912 206.648ZM21.1945 214.456V216.12C21.1945 216.248 21.2585 216.296 21.3705 216.296H29.2585V217.16H20.8265C20.7465 217.16 20.6665 217.144 20.5545 217.048C20.4585 216.968 20.2985 216.808 20.2185 216.712C20.1545 216.632 20.1225 216.536 20.1225 216.456V213.624H27.8665V211.992H20.1385V211.128H28.9385V214.456H21.1945ZM17.7225 208.744H31.2745V209.608H17.7225V208.744ZM29.1145 207.288H20.8105C20.7305 207.288 20.6505 207.272 20.5385 207.176C20.4425 207.096 20.2825 206.936 20.2025 206.84C20.1385 206.76 20.1065 206.664 20.1065 206.584V202.584H21.1785V206.248C21.1785 206.376 21.2425 206.424 21.3545 206.424H29.1145V207.288ZM44.045 202.184V216.92H42.973V202.184H44.045ZM39.757 207.736C39.757 205.384 38.557 203.976 36.845 203.976C35.133 203.976 33.933 205.384 33.933 207.736C33.933 210.088 35.133 211.496 36.845 211.496C38.557 211.496 39.757 210.088 39.757 207.736ZM40.829 207.736C40.829 210.616 39.229 212.36 36.845 212.36C34.461 212.36 32.861 210.616 32.861 207.736C32.861 204.856 34.461 203.112 36.845 203.112C39.229 203.112 40.829 204.856 40.829 207.736ZM56.7804 207.48V206.616H61.5324V202.184H62.6044V216.92H61.5324V207.48H56.7804ZM59.6924 211.272L59.7724 212.088C58.9084 212.248 57.3244 212.376 56.3004 212.376H52.9244C52.8444 212.376 52.7644 212.36 52.6524 212.264C52.5564 212.184 52.3964 212.024 52.3164 211.928C52.2524 211.848 52.2204 211.752 52.2204 211.672V203.272H53.2924V211.336C53.2924 211.464 53.3564 211.512 53.4684 211.512H56.3324C57.3884 211.512 58.7964 211.416 59.6924 211.272ZM67.1349 208.456V202.984H76.3349V209.16H67.8389C67.7589 209.16 67.6789 209.144 67.5669 209.048C67.4709 208.968 67.3109 208.808 67.2309 208.712C67.1669 208.632 67.1349 208.536 67.1349 208.456ZM68.2069 203.848V208.12C68.2069 208.248 68.2709 208.296 68.3829 208.296H75.2629V203.848H68.2069ZM71.1989 217.16V211.912H64.9269V211.048H78.4789V211.912H72.2709V217.16H71.1989ZM95.7263 202.184V211.096H94.6543V202.184H95.7263ZM88.0623 212.84V216.024C88.0623 216.152 88.1263 216.2 88.2383 216.2H94.6543V212.84H88.0623ZM86.9903 216.36V211.976H95.7263V217.064H87.6943C87.6143 217.064 87.5343 217.048 87.4223 216.952C87.3263 216.872 87.1663 216.712 87.0863 216.616C87.0223 216.536 86.9903 216.44 86.9903 216.36ZM84.0623 204.072H92.9263V204.936H84.0623V204.072ZM90.9743 208.232C90.9743 207.272 90.1423 206.536 88.5743 206.536C87.0063 206.536 86.1743 207.272 86.1743 208.232C86.1743 209.192 87.0063 209.928 88.5743 209.928C90.1423 209.928 90.9743 209.192 90.9743 208.232ZM92.0463 208.248C92.0463 209.752 90.8303 210.792 88.5743 210.792C86.3183 210.792 85.1023 209.752 85.1023 208.248C85.1023 206.744 86.3183 205.704 88.5743 205.704C90.8303 205.704 92.0463 206.744 92.0463 208.248ZM90.8783 203.096H88.2383C87.5343 203.096 86.6703 202.968 86.0783 202.744L86.2863 201.912C86.8943 202.104 87.6783 202.216 88.3343 202.216H90.8783V203.096ZM101.361 214.488V216.12C101.361 216.248 101.425 216.296 101.537 216.296H109.425V217.16H100.993C100.913 217.16 100.833 217.144 100.721 217.048C100.625 216.968 100.465 216.808 100.385 216.712C100.321 216.632 100.289 216.536 100.289 216.456V213.656H108.033V212.056H100.305V211.192H109.105V214.488H101.361ZM97.8888 208.84H111.441V209.704H97.8888V208.84ZM109.201 207.448H101.025C100.945 207.448 100.865 207.432 100.753 207.336C100.657 207.256 100.497 207.096 100.417 207C100.353 206.92 100.321 206.824 100.321 206.744V202.664H109.121V203.528H101.393V206.408C101.393 206.536 101.457 206.584 101.569 206.584H109.201V207.448ZM122.339 216.92V202.184H123.411V207.192H126.131V208.056H123.411V216.92H122.339ZM121.219 211.32L121.299 212.136C120.435 212.296 118.851 212.424 117.827 212.424H113.811C113.731 212.424 113.651 212.408 113.539 212.312C113.443 212.232 113.283 212.072 113.203 211.976C113.139 211.896 113.107 211.8 113.107 211.72V203.304H119.459V204.168H114.179V211.384C114.179 211.512 114.243 211.56 114.355 211.56H117.859C118.915 211.56 120.323 211.464 121.219 211.32ZM138.454 202.184V212.744H137.382V208.44H134.198V210.056H128.15C128.07 210.056 127.99 210.04 127.878 209.944C127.782 209.864 127.622 209.704 127.542 209.608C127.478 209.528 127.446 209.432 127.446 209.352V202.952H134.198V204.392H137.382V202.184H138.454ZM128.518 203.816V209.016C128.518 209.144 128.582 209.192 128.694 209.192H133.158V203.816H128.518ZM138.934 216.984H130.454C130.374 216.984 130.294 216.968 130.182 216.872C130.086 216.792 129.926 216.632 129.846 216.536C129.782 216.456 129.75 216.36 129.75 216.28V212.104H130.854V215.944C130.854 216.072 130.918 216.12 131.03 216.12H138.934V216.984ZM134.198 205.256V207.576H137.382V205.256H134.198ZM141.096 213.832H142.728V215.032C142.728 216.008 142.392 217.048 141.928 217.8H141.336C141.656 217.048 141.928 216.28 141.976 215.464H141.096V213.832ZM149.086 213.576H162.638V214.44H149.086V213.576ZM151.39 203.336H160.43V206.248C160.43 206.52 160.414 206.92 160.398 207.24C160.318 208.36 160.078 210.408 159.838 211.64L158.814 211.496C159.038 210.216 159.262 208.312 159.326 207.08C159.342 206.808 159.358 206.52 159.358 206.248V204.2H151.39V203.336ZM165.2 211.08L164.64 210.232C166.112 209.432 168.016 208.2 168.992 207.432C169.632 206.936 169.904 206.44 169.904 205.656V203.88H164.56V203.016H170.992L170.976 205.656C170.976 205.864 170.96 206.056 170.928 206.232H174.256V202.184H175.328V212.552H174.256V207.096H170.656C170.448 207.48 170.16 207.8 169.76 208.12C168.672 208.984 166.736 210.248 165.2 211.08ZM175.808 216.984H167.408C167.328 216.984 167.248 216.968 167.136 216.872C167.04 216.792 166.88 216.632 166.8 216.536C166.736 216.456 166.704 216.36 166.704 216.28V211.912H167.808V215.944C167.808 216.072 167.872 216.12 167.984 216.12H175.808V216.984ZM193.408 206.456V210.968H192.336V202.184H193.408V205.592H196.048V206.456H193.408ZM192.416 214.392C192.416 213.016 191.296 212.024 189.44 212.024C187.584 212.024 186.464 213.016 186.464 214.392C186.464 215.768 187.584 216.76 189.44 216.76C191.296 216.76 192.416 215.768 192.416 214.392ZM193.488 214.392C193.488 216.248 192.032 217.624 189.44 217.624C186.848 217.624 185.392 216.248 185.392 214.392C185.392 212.536 186.848 211.16 189.44 211.16C192.032 211.16 193.488 212.536 193.488 214.392ZM191.216 208.408L191.296 209.224C190.432 209.384 188.848 209.512 187.824 209.512H183.744C183.664 209.512 183.584 209.496 183.472 209.4C183.376 209.32 183.216 209.16 183.136 209.064C183.072 208.984 183.04 208.888 183.04 208.808V203H189.456V203.864H184.112V208.472C184.112 208.6 184.176 208.648 184.288 208.648H187.856C188.912 208.648 190.32 208.552 191.216 208.408ZM208.37 202.184V212.68H207.298V202.184H208.37ZM208.85 216.984H200.37C200.29 216.984 200.21 216.968 200.098 216.872C200.002 216.792 199.842 216.632 199.762 216.536C199.698 216.456 199.666 216.36 199.666 216.28V212.04H200.77V215.944C200.77 216.072 200.834 216.12 200.946 216.12H208.85V216.984ZM201.186 206.952C200.194 208.136 198.69 209.672 197.33 210.792L196.61 210.008C198.034 208.856 199.41 207.448 200.274 206.408C200.546 206.088 200.626 205.8 200.626 205.448V202.856H201.73V205.448C201.73 205.8 201.81 206.072 202.082 206.408C202.914 207.4 204.146 208.648 205.522 209.8L204.818 210.552C203.506 209.432 202.13 208.072 201.186 206.952ZM222.613 202.184V216.92H221.541V202.184H222.613ZM218.325 207.736C218.325 205.384 217.125 203.976 215.413 203.976C213.701 203.976 212.501 205.384 212.501 207.736C212.501 210.088 213.701 211.496 215.413 211.496C217.125 211.496 218.325 210.088 218.325 207.736ZM219.397 207.736C219.397 210.616 217.797 212.36 215.413 212.36C213.029 212.36 211.429 210.616 211.429 207.736C211.429 204.856 213.029 203.112 215.413 203.112C217.797 203.112 219.397 204.856 219.397 207.736ZM238.292 202.264V206.952H240.596V202.184H241.652V216.92H240.596V207.816H238.292V216.6H237.252V202.264H238.292ZM236.132 211.272L236.212 212.088C235.316 212.248 233.876 212.376 232.9 212.376H231.06C230.98 212.376 230.9 212.36 230.788 212.264C230.692 212.184 230.532 212.024 230.452 211.928C230.388 211.848 230.356 211.752 230.356 211.672V203.272H231.412V211.336C231.412 211.464 231.476 211.512 231.588 211.512H232.932C233.94 211.512 235.236 211.416 236.132 211.272ZM255.574 202.184V209.992H254.502V202.184H255.574ZM247.91 214.376V216.12C247.91 216.248 247.974 216.296 248.086 216.296H255.974V217.16H247.542C247.462 217.16 247.382 217.144 247.27 217.048C247.174 216.968 247.014 216.808 246.934 216.712C246.87 216.632 246.838 216.536 246.838 216.456V213.544H254.502V211.816H246.854V210.952H255.574V214.376H247.91ZM251.014 205.976C251.014 204.52 249.878 203.432 248.246 203.432C246.614 203.432 245.478 204.52 245.478 205.976C245.478 207.432 246.614 208.52 248.246 208.52C249.878 208.52 251.014 207.432 251.014 205.976ZM252.086 205.976C252.086 208.008 250.518 209.384 248.246 209.384C245.974 209.384 244.406 208.008 244.406 205.976C244.406 203.944 245.974 202.568 248.246 202.568C250.518 202.568 252.086 203.944 252.086 205.976ZM269.369 210.76H265.081V213.576H271.289V214.44H257.737V213.576H264.009V210.76H260.745C260.665 210.76 260.585 210.744 260.473 210.648C260.377 210.568 260.217 210.408 260.137 210.312C260.073 210.232 260.041 210.136 260.041 210.056V206.52H267.977V204.136H260.073V203.272H269.049V207.352H261.113V209.72C261.113 209.848 261.177 209.896 261.289 209.896H269.369V210.76ZM287.816 208.488V216.92H286.744V202.184H287.816V207.624H290.456V208.488H287.816ZM278.136 213.176L277.432 212.376C278.968 211.192 280.808 209.528 281.928 208.296C282.472 207.704 282.712 207.16 282.712 206.312V204.168H277.352V203.304H283.8L283.784 206.312C283.784 207.448 283.432 208.184 282.776 208.92C281.592 210.232 279.72 211.944 278.136 213.176ZM302.363 216.984H293.755C293.675 216.984 293.595 216.968 293.483 216.872C293.387 216.792 293.227 216.632 293.147 216.536C293.083 216.456 293.051 216.36 293.051 216.28V212.488H294.155V215.944C294.155 216.072 294.219 216.12 294.331 216.12H302.363V216.984ZM290.699 209.976H304.251V210.84H290.699V209.976ZM302.123 207.976H293.819C293.739 207.976 293.659 207.96 293.547 207.864C293.451 207.784 293.291 207.624 293.211 207.528C293.147 207.448 293.115 207.352 293.115 207.272V202.68H294.187V206.936C294.187 207.064 294.251 207.112 294.363 207.112H302.123V207.976ZM320.506 214.712C320.506 216.376 319.066 217.624 316.218 217.624C313.37 217.624 311.93 216.376 311.93 214.712C311.93 213.16 313.194 211.96 315.69 211.816V210.136H309.418V209.272H322.97V210.136H316.762V211.816C319.242 211.976 320.506 213.16 320.506 214.712ZM319.434 214.712C319.434 213.592 318.41 212.664 316.218 212.664C314.026 212.664 313.002 213.592 313.002 214.712C313.002 215.832 314.026 216.76 316.218 216.76C318.41 216.76 319.434 215.832 319.434 214.712ZM311.706 203.576V202.712H320.746V203.576H316.778V204.696C316.778 205 316.89 205.24 317.178 205.432C318.202 206.104 320.074 206.952 321.498 207.48L321.082 208.328C319.418 207.688 317.306 206.68 316.234 205.96C315.178 206.664 313.066 207.688 311.402 208.328L310.954 207.464C312.378 206.936 314.25 206.104 315.274 205.432C315.562 205.24 315.674 205.016 315.674 204.696V203.576H311.706ZM335.741 202.184V216.92H334.669V202.184H335.741ZM331.453 207.736C331.453 205.384 330.253 203.976 328.541 203.976C326.829 203.976 325.629 205.384 325.629 207.736C325.629 210.088 326.829 211.496 328.541 211.496C330.253 211.496 331.453 210.088 331.453 207.736ZM332.525 207.736C332.525 210.616 330.925 212.36 328.541 212.36C326.157 212.36 324.557 210.616 324.557 207.736C324.557 204.856 326.157 203.112 328.541 203.112C330.925 203.112 332.525 204.856 332.525 207.736ZM349.903 202.184V216.92H348.831V202.184H349.903ZM339.983 213.496L339.295 212.712C340.767 211.576 342.863 209.72 343.951 208.456C344.463 207.864 344.719 207.256 344.719 206.408V204.168H339.119V203.304H345.807L345.791 206.408C345.791 207.576 345.455 208.328 344.783 209.08C343.615 210.376 341.487 212.296 339.983 213.496ZM366.462 202.264V207.096H368.286V202.184H369.342V216.92H368.286V207.96H366.462V216.6H365.422V202.264H366.462ZM361.966 212.488H361.566C361.486 212.488 361.406 212.472 361.294 212.376C361.214 212.328 361.118 212.232 361.038 212.136C360.238 212.408 359.262 212.584 358.526 212.584H358.03C357.95 212.584 357.87 212.568 357.758 212.472C357.662 212.392 357.502 212.232 357.422 212.136C357.358 212.056 357.326 211.96 357.326 211.88V203.24H360.222V204.104H358.382V211.544C358.382 211.672 358.446 211.72 358.558 211.72H358.702C359.31 211.72 360.126 211.608 360.862 211.384V203.24H364.11V204.104H361.902V211.448C361.902 211.576 361.966 211.624 362.078 211.624H362.318C362.942 211.624 363.918 211.544 364.622 211.416L364.718 212.232C363.982 212.392 362.75 212.488 361.966 212.488ZM373.329 207.592V202.728H382.081V208.296H374.033C373.953 208.296 373.873 208.28 373.761 208.184C373.665 208.104 373.505 207.944 373.425 207.848C373.361 207.768 373.329 207.672 373.329 207.592ZM374.401 203.592V207.256C374.401 207.384 374.465 207.432 374.577 207.432H381.009V203.592H374.401ZM377.217 214.312V210.824H370.865V209.96H384.417V210.824H378.289V214.312H377.217ZM382.577 216.984H373.873C373.793 216.984 373.713 216.968 373.601 216.872C373.505 216.792 373.345 216.632 373.265 216.536C373.201 216.456 373.169 216.36 373.169 216.28V212.712H374.273V215.944C374.273 216.072 374.337 216.12 374.449 216.12H382.577V216.984ZM397.188 202.184V216.92H396.116V202.184H397.188ZM392.9 207.736C392.9 205.384 391.7 203.976 389.988 203.976C388.276 203.976 387.076 205.384 387.076 207.736C387.076 210.088 388.276 211.496 389.988 211.496C391.7 211.496 392.9 210.088 392.9 207.736ZM393.972 207.736C393.972 210.616 392.372 212.36 389.988 212.36C387.604 212.36 386.004 210.616 386.004 207.736C386.004 204.856 387.604 203.112 389.988 203.112C392.372 203.112 393.972 204.856 393.972 207.736ZM409.558 216.92V202.184H410.63V207.192H413.35V208.056H410.63V216.92H409.558ZM408.438 211.32L408.518 212.136C407.654 212.296 406.07 212.424 405.046 212.424H401.03C400.95 212.424 400.87 212.408 400.758 212.312C400.662 212.232 400.502 212.072 400.422 211.976C400.358 211.896 400.326 211.8 400.326 211.72V203.304H406.678V204.168H401.398V211.384C401.398 211.512 401.462 211.56 401.574 211.56H405.078C406.134 211.56 407.542 211.464 408.438 211.32ZM414.088 213.976H415.72V215.608H414.088V213.976Z" fill="#FFF9E2"/>
<g opacity="0.45" clip-path="url(#clip0_1781_533)">
<path d="M17.6872 2.20682C16.4186 3.21844 13.5996 5.09716 11.4854 7.9875C10.9216 8.71008 10.2168 10.1553 9.23018 12.612C8.38448 14.9243 7.96164 16.9475 7.82069 18.5372C11.0625 16.3695 14.4453 16.9475 16.8415 18.6817C18.9557 20.2714 20.5061 22.5837 20.5061 25.9076C20.5061 30.6766 16.5596 34.0005 12.1901 34.0005C7.53879 34.0005 4.57885 31.5437 3.3103 26.6302C2.4646 22.8727 3.3103 14.3462 6.41119 9.43267C9.23018 4.37458 13.4587 1.33972 16.7005 0.183589C18.8148 -0.538996 19.2376 1.05069 17.6872 2.20682ZM38.1812 2.20682C36.9127 3.21844 34.0937 5.09716 31.9794 7.9875C31.4156 8.71008 30.7109 10.1553 29.7242 12.612C28.8786 14.9243 28.4557 16.9475 28.3148 18.5372C31.5566 16.3695 34.9394 16.9475 37.3355 18.6817C39.4498 20.2714 41.0002 22.5837 41.0002 25.9076C41.0002 30.6766 37.0536 34.0005 32.6842 34.0005C28.0329 34.0005 25.0729 31.5437 23.8044 26.6302C22.9587 22.8727 23.8044 14.3462 26.9053 9.43267C29.7242 4.37458 33.9527 1.33972 37.1946 0.183589C39.3088 -0.538996 39.7317 1.05069 38.1812 2.20682Z" fill="#F9DDFF"/>
</g>
<defs>
<clipPath id="clip0_1781_533">
<rect width="38" height="34" fill="white" transform="translate(3)"/>
</clipPath>
</defs>
</svg>
