<svg width="616" height="206" viewBox="0 0 616 206" fill="none" xmlns="http://www.w3.org/2000/svg">
<rect width="616" height="206" fill="#C08E54"/>
<path opacity="0.6" d="M326.173 168.648C326.173 170.76 324.637 172.28 322.013 172.456V175.576H328.221V176.44H314.669V175.576H320.941V172.456C318.301 172.28 316.765 170.776 316.765 168.648C316.765 166.392 318.509 164.824 321.469 164.824C324.429 164.824 326.173 166.392 326.173 168.648ZM325.101 168.648C325.101 166.984 323.773 165.688 321.469 165.688C319.165 165.688 317.837 166.984 317.837 168.648C317.837 170.312 319.165 171.608 321.469 171.608C323.773 171.608 325.101 170.312 325.101 168.648ZM332.383 176.456V178.12C332.383 178.248 332.447 178.296 332.559 178.296H340.447V179.16H332.015C331.935 179.16 331.855 179.144 331.743 179.048C331.647 178.968 331.487 178.808 331.407 178.712C331.343 178.632 331.311 178.536 331.311 178.456V175.624H339.055V173.992H331.327V173.128H340.127V176.456H332.383ZM328.911 170.744H342.463V171.608H328.911V170.744ZM340.303 169.288H331.999C331.919 169.288 331.839 169.272 331.727 169.176C331.631 169.096 331.471 168.936 331.391 168.84C331.327 168.76 331.295 168.664 331.295 168.584V164.584H332.367V168.248C332.367 168.376 332.431 168.424 332.543 168.424H340.303V169.288ZM355.394 164.184V178.92H354.322V164.184H355.394ZM351.202 168.504C351.202 166.792 350.146 165.64 348.402 165.64C346.658 165.64 345.602 166.792 345.602 168.504C345.602 170.216 346.658 171.368 348.402 171.368C350.146 171.368 351.202 170.216 351.202 168.504ZM352.274 168.504C352.274 170.712 350.802 172.232 348.402 172.232C346.002 172.232 344.53 170.712 344.53 168.504C344.53 166.296 346.002 164.776 348.402 164.776C350.802 164.776 352.274 166.296 352.274 168.504ZM353.522 174.888L353.602 175.704C352.642 175.864 350.946 175.992 349.65 175.992H343.538V175.128H349.682C351.01 175.128 352.482 175.032 353.522 174.888ZM367.969 169.48V168.616H372.721V164.184H373.793V178.92H372.721V169.48H367.969ZM370.881 173.272L370.961 174.088C370.097 174.248 368.513 174.376 367.489 174.376H364.113C364.033 174.376 363.953 174.36 363.841 174.264C363.745 174.184 363.585 174.024 363.505 173.928C363.441 173.848 363.409 173.752 363.409 173.672V165.272H364.481V173.336C364.481 173.464 364.545 173.512 364.657 173.512H367.521C368.577 173.512 369.985 173.416 370.881 173.272ZM387.78 178.984H379.172C379.092 178.984 379.012 178.968 378.9 178.872C378.804 178.792 378.644 178.632 378.564 178.536C378.5 178.456 378.468 178.36 378.468 178.28V174.488H379.572V177.944C379.572 178.072 379.636 178.12 379.748 178.12H387.78V178.984ZM376.116 171.976H389.668V172.84H376.116V171.976ZM387.54 169.976H379.236C379.156 169.976 379.076 169.96 378.964 169.864C378.868 169.784 378.708 169.624 378.628 169.528C378.564 169.448 378.532 169.352 378.532 169.272V164.68H379.604V168.936C379.604 169.064 379.668 169.112 379.78 169.112H387.54V169.976ZM403.875 164.264V168.952H406.179V164.184H407.235V178.92H406.179V169.816H403.875V178.6H402.835V164.264H403.875ZM401.715 173.272L401.795 174.088C400.899 174.248 399.459 174.376 398.483 174.376H396.643C396.563 174.376 396.483 174.36 396.371 174.264C396.275 174.184 396.115 174.024 396.035 173.928C395.971 173.848 395.939 173.752 395.939 173.672V165.272H396.995V173.336C396.995 173.464 397.059 173.512 397.171 173.512H398.515C399.523 173.512 400.819 173.416 401.715 173.272ZM421.158 164.184V171.992H420.086V164.184H421.158ZM413.494 176.376V178.12C413.494 178.248 413.558 178.296 413.67 178.296H421.558V179.16H413.126C413.046 179.16 412.966 179.144 412.854 179.048C412.758 178.968 412.598 178.808 412.518 178.712C412.454 178.632 412.422 178.536 412.422 178.456V175.544H420.086V173.816H412.438V172.952H421.158V176.376H413.494ZM416.598 167.976C416.598 166.52 415.462 165.432 413.83 165.432C412.198 165.432 411.062 166.52 411.062 167.976C411.062 169.432 412.198 170.52 413.83 170.52C415.462 170.52 416.598 169.432 416.598 167.976ZM417.67 167.976C417.67 170.008 416.102 171.384 413.83 171.384C411.558 171.384 409.99 170.008 409.99 167.976C409.99 165.944 411.558 164.568 413.83 164.568C416.102 164.568 417.67 165.944 417.67 167.976ZM435.56 164.184V178.92H434.488V164.184H435.56ZM431.368 168.504C431.368 166.792 430.312 165.64 428.568 165.64C426.824 165.64 425.768 166.792 425.768 168.504C425.768 170.216 426.824 171.368 428.568 171.368C430.312 171.368 431.368 170.216 431.368 168.504ZM432.44 168.504C432.44 170.712 430.968 172.232 428.568 172.232C426.168 172.232 424.696 170.712 424.696 168.504C424.696 166.296 426.168 164.776 428.568 164.776C430.968 164.776 432.44 166.296 432.44 168.504ZM433.688 174.888L433.768 175.704C432.808 175.864 431.112 175.992 429.816 175.992H423.704V175.128H429.848C431.176 175.128 432.648 175.032 433.688 174.888ZM448.135 169.48V168.616H452.887V164.184H453.959V178.92H452.887V169.48H448.135ZM451.047 173.272L451.127 174.088C450.263 174.248 448.679 174.376 447.655 174.376H444.279C444.199 174.376 444.119 174.36 444.007 174.264C443.911 174.184 443.751 174.024 443.671 173.928C443.607 173.848 443.575 173.752 443.575 173.672V165.272H444.647V173.336C444.647 173.464 444.711 173.512 444.823 173.512H447.687C448.743 173.512 450.151 173.416 451.047 173.272ZM459.754 176.696V178.136C459.754 178.264 459.818 178.312 459.93 178.312H467.818V179.16H459.386C459.306 179.16 459.226 179.144 459.114 179.048C459.018 178.968 458.858 178.808 458.778 178.712C458.714 178.632 458.682 178.536 458.682 178.456V175.864H466.426V174.392H458.698V173.544H467.498V176.696H459.754ZM456.282 171.384H469.834V172.216H456.282V171.384ZM467.786 170.088H459.418C459.338 170.088 459.258 170.072 459.146 169.976C459.05 169.896 458.89 169.736 458.81 169.64C458.746 169.56 458.714 169.464 458.714 169.384V166.904H466.394V165.448H458.746V164.6H467.466V167.736H459.786V169.064C459.786 169.192 459.85 169.24 459.962 169.24H467.786V170.088ZM476.905 165.88V170.952C476.905 171.08 476.969 171.128 477.081 171.128H481.577V165.88H476.905ZM475.833 171.288V165.016H482.649V171.992H476.537C476.457 171.992 476.377 171.976 476.265 171.88C476.169 171.8 476.009 171.64 475.929 171.544C475.865 171.464 475.833 171.368 475.833 171.288ZM486.521 168.92V174.68H485.449V164.184H486.521V168.056H489.001V168.92H486.521ZM487.001 178.984H478.601C478.521 178.984 478.441 178.968 478.329 178.872C478.233 178.792 478.073 178.632 477.993 178.536C477.929 178.456 477.897 178.36 477.897 178.28V174.04H479.001V177.944C479.001 178.072 479.065 178.12 479.177 178.12H487.001V178.984ZM492.716 176.488V178.12C492.716 178.248 492.78 178.296 492.892 178.296H500.78V179.16H492.348C492.268 179.16 492.188 179.144 492.076 179.048C491.98 178.968 491.82 178.808 491.74 178.712C491.676 178.632 491.644 178.536 491.644 178.456V175.656H499.388V174.056H491.66V173.192H500.46V176.488H492.716ZM489.244 170.84H502.796V171.704H489.244V170.84ZM500.556 169.448H492.38C492.3 169.448 492.22 169.432 492.108 169.336C492.012 169.256 491.852 169.096 491.772 169C491.708 168.92 491.676 168.824 491.676 168.744V164.664H500.476V165.528H492.748V168.408C492.748 168.536 492.812 168.584 492.924 168.584H500.556V169.448ZM503.486 175.576H508.766V170.04H509.838V175.576H517.038V176.44H503.486V175.576ZM505.71 165.336H514.846V168.328C514.846 168.6 514.846 169 514.814 169.32C514.734 170.328 514.51 172.12 514.302 173.24L513.246 173.096C513.438 172.008 513.678 170.184 513.742 169.16C513.758 168.888 513.774 168.616 513.774 168.328V166.2H505.71V165.336ZM534.286 164.184V172.488H533.214V164.184H534.286ZM529.726 168.2C529.726 166.664 528.622 165.48 526.958 165.48C525.294 165.48 524.19 166.664 524.19 168.2C524.19 169.736 525.294 170.92 526.958 170.92C528.622 170.92 529.726 169.736 529.726 168.2ZM530.798 168.2C530.798 170.312 529.278 171.784 526.958 171.784C524.638 171.784 523.118 170.312 523.118 168.2C523.118 166.088 524.638 164.616 526.958 164.616C529.278 164.616 530.798 166.088 530.798 168.2ZM529.662 178.088C530.254 177.432 530.926 176.536 531.406 175.752C531.63 175.384 531.662 175.128 531.662 174.792V173.368H532.734V174.792C532.734 175.128 532.782 175.432 532.99 175.752C533.55 176.6 534.366 177.592 535.23 178.488L534.51 179.144C533.678 178.264 532.862 177.24 532.19 176.296C531.582 177.176 530.734 178.312 529.886 179.112C529.822 179.176 529.758 179.224 529.662 179.224C529.566 179.224 529.502 179.176 529.438 179.112C528.59 178.312 527.742 177.176 527.134 176.296C526.462 177.288 525.614 178.328 524.718 179.224L524.014 178.552C524.878 177.656 525.774 176.632 526.334 175.752C526.542 175.432 526.59 175.128 526.59 174.792V173.368H527.662V174.792C527.662 175.128 527.694 175.384 527.918 175.752C528.398 176.536 529.07 177.432 529.662 178.088ZM548.528 164.184V178.92H547.456V170.136H545.136C545.008 172.776 543.472 174.392 541.248 174.392C538.912 174.392 537.344 172.6 537.344 169.736C537.344 166.872 538.912 165.08 541.248 165.08C543.456 165.08 544.976 166.68 545.136 169.272H547.456V164.184H548.528ZM544.08 169.736C544.08 167.384 542.864 165.944 541.248 165.944C539.632 165.944 538.416 167.384 538.416 169.736C538.416 172.088 539.632 173.528 541.248 173.528C542.864 173.528 544.08 172.088 544.08 169.736ZM551.187 175.976H552.819V177.608H551.187V175.976ZM244.528 189.168V188.304H252V189.168H248.896V192.272C248.896 192.736 248.96 193.088 249.248 193.488C250.08 194.64 251.424 196.112 252.736 197.36L251.968 198.112C250.656 196.816 249.328 195.312 248.352 194.016C247.392 195.328 245.936 197.024 244.608 198.304L243.808 197.584C245.184 196.288 246.576 194.688 247.44 193.488C247.744 193.072 247.792 192.736 247.792 192.272V189.168H244.528ZM255.536 187.184V201.92H254.464V187.184H255.536ZM260.099 201.36V196.352H268.915V202.064H260.803C260.723 202.064 260.643 202.048 260.531 201.952C260.435 201.872 260.275 201.712 260.195 201.616C260.131 201.536 260.099 201.44 260.099 201.36ZM261.171 197.216V201.024C261.171 201.152 261.235 201.2 261.347 201.2H267.843V197.216H261.171ZM260.051 187.712H268.931V189.616C268.931 189.84 268.931 190.048 268.915 190.336C268.867 191.2 268.723 192.368 268.563 193.296H271.251V194.16H257.699V193.296H267.539C267.683 192.368 267.811 191.024 267.843 190.288C267.859 190.064 267.859 189.84 267.859 189.616V188.576H260.051V187.712ZM276.418 198.576H289.97V199.44H276.418V198.576ZM278.722 188.336H287.762V191.248C287.762 191.52 287.746 191.92 287.73 192.24C287.65 193.36 287.41 195.408 287.17 196.64L286.146 196.496C286.37 195.216 286.594 193.312 286.658 192.08C286.674 191.808 286.69 191.52 286.69 191.248V189.2H278.722V188.336ZM302.741 187.184V201.92H301.669V187.184H302.741ZM300.405 196.512L300.485 197.328C299.621 197.488 298.037 197.616 297.013 197.616H292.661C292.581 197.616 292.501 197.6 292.389 197.504C292.293 197.424 292.133 197.264 292.053 197.168C291.989 197.088 291.957 196.992 291.957 196.912V192.384H297.557V189.136H291.989V188.272H298.629V193.216H293.029V196.576C293.029 196.704 293.093 196.752 293.205 196.752H297.045C298.101 196.752 299.509 196.656 300.405 196.512ZM316.567 201.984H307.959C307.879 201.984 307.799 201.968 307.687 201.872C307.591 201.792 307.431 201.632 307.351 201.536C307.287 201.456 307.255 201.36 307.255 201.28V197.488H308.359V200.944C308.359 201.072 308.423 201.12 308.535 201.12H316.567V201.984ZM304.903 194.976H318.455V195.84H304.903V194.976ZM316.327 192.976H308.023C307.943 192.976 307.863 192.96 307.751 192.864C307.655 192.784 307.495 192.624 307.415 192.528C307.351 192.448 307.319 192.352 307.319 192.272V187.68H308.391V191.936C308.391 192.064 308.455 192.112 308.567 192.112H316.327V192.976ZM328.439 192.192C327.431 193.328 325.959 194.784 324.631 195.856L323.943 195.088C325.255 194.048 326.631 192.704 327.511 191.712C327.783 191.392 327.879 191.152 327.879 190.768V187.824H328.983V190.768C328.983 191.152 329.079 191.376 329.351 191.712C330.167 192.672 331.351 193.776 332.695 194.864L332.039 195.616C330.743 194.576 329.367 193.232 328.439 192.192ZM331.415 191.328V190.464H334.631V187.184H335.703V197.712H334.631V191.328H331.415ZM336.183 201.984H327.703C327.623 201.984 327.543 201.968 327.431 201.872C327.335 201.792 327.175 201.632 327.095 201.536C327.031 201.456 326.999 201.36 326.999 201.28V197.072H328.103V200.944C328.103 201.072 328.167 201.12 328.279 201.12H336.183V201.984ZM349.529 201.984H340.921C340.841 201.984 340.761 201.968 340.649 201.872C340.553 201.792 340.393 201.632 340.313 201.536C340.249 201.456 340.217 201.36 340.217 201.28V197.584H341.321V200.944C341.321 201.072 341.385 201.12 341.497 201.12H349.529V201.984ZM337.865 195.104H351.417V195.968H337.865V195.104ZM348.089 190.464C348.089 189.184 346.937 188.208 344.697 188.208C342.457 188.208 341.305 189.184 341.305 190.464C341.305 191.744 342.457 192.72 344.697 192.72C346.937 192.72 348.089 191.744 348.089 190.464ZM349.161 190.464C349.161 192.272 347.593 193.584 344.697 193.584C341.801 193.584 340.233 192.272 340.233 190.464C340.233 188.656 341.801 187.344 344.697 187.344C347.593 187.344 349.161 188.656 349.161 190.464ZM357.8 196.752V188.272H364.712V197.456H358.504C358.424 197.456 358.344 197.44 358.232 197.344C358.136 197.264 357.976 197.104 357.896 197.008C357.832 196.928 357.8 196.832 357.8 196.752ZM358.872 189.136V196.416C358.872 196.544 358.936 196.592 359.048 196.592H363.64V189.136H358.872ZM368.664 187.184V201.92H367.592V187.184H368.664ZM380.187 187.264V192.288H382.331V187.184H383.387V201.92H382.331V193.152H380.187V201.6H379.147V187.264H380.187ZM378.043 196.544L378.123 197.36C377.227 197.52 375.787 197.648 374.811 197.648H372.395C372.315 197.648 372.235 197.632 372.123 197.536C372.027 197.456 371.867 197.296 371.787 197.2C371.723 197.12 371.691 197.024 371.691 196.944V192.384H376.203V189.104H371.723V188.24H377.243V193.216H372.747V196.608C372.747 196.736 372.811 196.784 372.923 196.784H374.843C375.851 196.784 377.147 196.688 378.043 196.544ZM397.309 187.184V201.92H396.237V187.184H397.309ZM393.117 191.504C393.117 189.792 392.061 188.64 390.317 188.64C388.573 188.64 387.517 189.792 387.517 191.504C387.517 193.216 388.573 194.368 390.317 194.368C392.061 194.368 393.117 193.216 393.117 191.504ZM394.189 191.504C394.189 193.712 392.717 195.232 390.317 195.232C387.917 195.232 386.445 193.712 386.445 191.504C386.445 189.296 387.917 187.776 390.317 187.776C392.717 187.776 394.189 189.296 394.189 191.504ZM395.437 197.888L395.517 198.704C394.557 198.864 392.861 198.992 391.565 198.992H385.453V198.128H391.597C392.925 198.128 394.397 198.032 395.437 197.888ZM404.461 189.168V188.304H411.773V189.168H408.749V192.224C408.749 192.72 408.813 193.088 409.101 193.488C409.933 194.656 411.165 196.08 412.509 197.36L411.773 198.112C410.461 196.8 409.181 195.328 408.205 194.016C407.229 195.376 405.837 197.008 404.509 198.304L403.741 197.552C405.133 196.24 406.429 194.72 407.293 193.488C407.581 193.072 407.645 192.72 407.645 192.224V189.168H404.461ZM415.229 193.04V201.92H414.157V187.184H415.229V192.176H417.789V193.04H415.229ZM430.111 187.184V197.68H429.039V187.184H430.111ZM430.591 201.984H422.111C422.031 201.984 421.951 201.968 421.839 201.872C421.743 201.792 421.583 201.632 421.503 201.536C421.439 201.456 421.407 201.36 421.407 201.28V197.04H422.511V200.944C422.511 201.072 422.575 201.12 422.687 201.12H430.591V201.984ZM422.927 191.952C421.935 193.136 420.431 194.672 419.071 195.792L418.351 195.008C419.775 193.856 421.151 192.448 422.015 191.408C422.287 191.088 422.367 190.8 422.367 190.448V187.856H423.471V190.448C423.471 190.8 423.551 191.072 423.823 191.408C424.655 192.4 425.887 193.648 427.263 194.8L426.559 195.552C425.247 194.432 423.871 193.072 422.927 191.952ZM444.114 193.68V201.92H443.042V187.184H444.114V192.816H446.274V193.68H444.114ZM442.242 197.888L442.322 198.704C441.362 198.864 439.666 198.992 438.37 198.992H432.418V198.128H435.634V192.8H436.706V198.128H438.402C439.73 198.128 441.202 198.032 442.242 197.888ZM433.458 188.256H440.786V191.248C440.786 191.552 440.786 191.84 440.77 192.112C440.722 193.152 440.53 194.944 440.338 196.08L439.298 195.952C439.474 194.832 439.666 193.008 439.698 192.08C439.714 191.808 439.714 191.52 439.714 191.248V189.12H433.458V188.256ZM452.897 188.88V188.016H462.705V188.88H458.353V190.32C458.353 190.672 458.465 190.928 458.785 191.152C459.793 191.872 461.745 192.896 463.457 193.632L463.025 194.48C461.249 193.728 459.041 192.512 457.809 191.648C456.577 192.512 454.369 193.728 452.593 194.48L452.145 193.632C453.857 192.896 455.809 191.872 456.817 191.152C457.137 190.928 457.249 190.672 457.249 190.32V188.88H452.897ZM457.265 202.16V196.944H450.993V196.08H464.545V196.944H458.337V202.16H457.265ZM465.236 198.576H470.516V193.04H471.588V198.576H478.788V199.44H465.236V198.576ZM467.46 188.336H476.596V191.328C476.596 191.6 476.596 192 476.564 192.32C476.484 193.328 476.26 195.12 476.052 196.24L474.996 196.096C475.188 195.008 475.428 193.184 475.492 192.16C475.508 191.888 475.524 191.616 475.524 191.328V189.2H467.46V188.336ZM490.998 191.504V195.648H489.926V187.184H490.998V190.64H493.478V191.504H490.998ZM481.366 191.296V193.504C481.366 193.632 481.43 193.68 481.542 193.68H486.07V191.296H481.366ZM487.142 194.544H480.998C480.918 194.544 480.838 194.528 480.726 194.432C480.63 194.352 480.47 194.192 480.39 194.096C480.326 194.016 480.294 193.92 480.294 193.84V187.888H481.366V190.432H486.07V187.888H487.142V194.544ZM491.318 202.032H483.046C482.966 202.032 482.886 202.016 482.774 201.92C482.678 201.84 482.518 201.68 482.438 201.584C482.374 201.504 482.342 201.408 482.342 201.328V196.608H491.078V197.472H483.414V200.992C483.414 201.12 483.478 201.168 483.59 201.168H491.318V202.032ZM505.385 201.984H496.777C496.697 201.984 496.617 201.968 496.505 201.872C496.409 201.792 496.249 201.632 496.169 201.536C496.105 201.456 496.073 201.36 496.073 201.28V197.488H497.177V200.944C497.177 201.072 497.241 201.12 497.353 201.12H505.385V201.984ZM493.721 194.976H507.273V195.84H493.721V194.976ZM505.145 192.976H496.841C496.761 192.976 496.681 192.96 496.569 192.864C496.473 192.784 496.313 192.624 496.233 192.528C496.169 192.448 496.137 192.352 496.137 192.272V187.68H497.209V191.936C497.209 192.064 497.273 192.112 497.385 192.112H505.145V192.976ZM513.032 188.848V187.984H521.192V188.848H519.544V194.384C520.264 194.336 520.968 194.272 521.512 194.176L521.592 194.992C520.728 195.152 519.144 195.28 518.12 195.28H512.872V194.416H514.552V188.848H513.032ZM515.624 194.416H518.472V188.848H515.624V194.416ZM520.872 190.608V189.744H523.448V187.184H524.52V197.744H523.448V193.168H520.872V192.304H523.448V190.608H520.872ZM525 201.984H516.52C516.44 201.984 516.36 201.968 516.248 201.872C516.152 201.792 515.992 201.632 515.912 201.536C515.848 201.456 515.816 201.36 515.816 201.28V197.104H516.92V200.944C516.92 201.072 516.984 201.12 517.096 201.12H525V201.984ZM527.755 189.168V188.304H535.227V189.168H532.123V192.272C532.123 192.736 532.187 193.088 532.475 193.488C533.307 194.64 534.651 196.112 535.963 197.36L535.195 198.112C533.883 196.816 532.555 195.312 531.579 194.016C530.619 195.328 529.163 197.024 527.835 198.304L527.035 197.584C528.411 196.288 529.803 194.688 530.667 193.488C530.971 193.072 531.019 192.736 531.019 192.272V189.168H527.755ZM538.763 187.184V201.92H537.691V187.184H538.763ZM549.293 192.736C549.293 195.6 547.741 197.392 545.405 197.392C543.069 197.392 541.517 195.6 541.517 192.736C541.517 189.872 543.069 188.08 545.405 188.08C547.741 188.08 549.293 189.872 549.293 192.736ZM548.221 192.736C548.221 190.384 547.021 188.944 545.405 188.944C543.789 188.944 542.589 190.384 542.589 192.736C542.589 195.088 543.789 196.528 545.405 196.528C547.021 196.528 548.221 195.088 548.221 192.736ZM552.429 187.184V189.92H554.925V190.784H552.429V194.848H554.925V195.712H552.429V201.92H551.357V187.184H552.429ZM555.664 198.976H557.296V200.608H555.664V198.976Z" fill="#FFF9E2" fill-opacity="0.98"/>
<g opacity="0.4">
<path d="M64.72 52.12C65.7867 52.12 66.56 51.8133 67.04 51.2C67.5467 50.5867 67.88 49.84 68.04 48.96H68.48L68.08 52.76H49V52.36C49.2667 52.36 49.4667 52.3067 49.6 52.2C49.76 52.0667 49.8667 51.92 49.92 51.76C50 51.6 50.04 51.4133 50.04 51.2V26.28C50.04 26.0667 50 25.88 49.92 25.72C49.8667 25.5867 49.76 25.4667 49.6 25.36C49.4667 25.2267 49.2667 25.16 49 25.16V24.76H68.08L68.48 28.56H68.04C67.88 27.6533 67.5467 26.8933 67.04 26.28C66.56 25.6667 65.7867 25.36 64.72 25.36H53.76V37.92H62.36C62.76 37.8933 63.12 37.7867 63.44 37.6C63.7067 37.44 63.9467 37.1867 64.16 36.84C64.3733 36.4933 64.48 36 64.48 35.36H64.88V41.12H64.48C64.48 40.48 64.3733 39.9867 64.16 39.64C63.9467 39.2933 63.7067 39.04 63.44 38.88C63.12 38.6933 62.76 38.5867 62.36 38.56H53.76V52.12H64.72ZM90.2106 33.64V34.08C89.5706 34.0533 88.984 34.2133 88.4506 34.56C87.9173 34.88 87.5306 35.3333 87.2906 35.92L79.4106 53.2H79.0906L70.7706 35.2C70.5573 34.7467 70.3306 34.4533 70.0906 34.32C69.8773 34.16 69.6106 34.08 69.2906 34.08V33.64H75.6906V34.08C75.3173 34.08 75.064 34.1733 74.9306 34.36C74.7973 34.52 74.7573 34.72 74.8106 34.96L80.9706 48.24L86.5706 36C86.784 35.52 86.7706 35.08 86.5306 34.68C86.3173 34.28 85.8373 34.08 85.0906 34.08V33.64H90.2106ZM101.393 52.36C102.753 52.2533 103.966 51.8133 105.033 51.04C106.126 50.24 106.913 49.2133 107.393 47.96L108.033 48.12C107.686 49.08 107.153 49.92 106.433 50.64C105.819 51.28 104.953 51.8667 103.833 52.4C102.739 52.9333 101.313 53.2 99.5528 53.2C97.8995 53.2 96.4728 52.9467 95.2728 52.44C94.0995 51.9067 93.1395 51.1867 92.3928 50.28C91.6461 49.3733 91.0995 48.32 90.7528 47.12C90.4061 45.8933 90.2328 44.5867 90.2328 43.2C90.2328 41.84 90.4061 40.56 90.7528 39.36C91.0995 38.1333 91.6461 37.0667 92.3928 36.16C93.1395 35.2533 94.0995 34.5467 95.2728 34.04C96.4728 33.5067 97.8995 33.24 99.5528 33.24C101.633 33.24 103.286 33.6133 104.513 34.36C105.766 35.08 106.713 35.9467 107.353 36.96C107.993 37.9733 108.406 39.0267 108.593 40.12C108.806 41.2133 108.913 42.1067 108.913 42.8H94.1928V43.2C94.1928 44.48 94.3261 45.7067 94.5928 46.88C94.8861 48.0267 95.3128 49.0267 95.8728 49.88C96.4595 50.7333 97.2061 51.3867 98.1128 51.84C99.0195 52.2933 100.113 52.4667 101.393 52.36ZM99.5528 33.88C98.7261 33.88 97.9928 34.0933 97.3528 34.52C96.7128 34.9467 96.1661 35.5333 95.7128 36.28C95.2595 37.0267 94.8995 37.9067 94.6328 38.92C94.3928 39.9067 94.2461 40.9867 94.1928 42.16H104.913V42.12C104.726 39.2933 104.166 37.2133 103.233 35.88C102.299 34.5467 101.073 33.88 99.5528 33.88ZM116.282 37.2C116.682 35.84 117.402 34.84 118.442 34.2C119.509 33.5333 120.722 33.2 122.082 33.2C122.642 33.2 123.149 33.24 123.602 33.32C124.082 33.4 124.509 33.5067 124.882 33.64C125.309 33.7733 125.695 33.92 126.042 34.08L124.122 37.48C123.909 36.6533 123.469 36 122.802 35.52C122.135 35.0133 121.375 34.7867 120.522 34.84C119.562 34.84 118.802 35.1067 118.242 35.64C117.682 36.1467 117.255 36.7067 116.962 37.32C116.615 38.0667 116.389 38.9067 116.282 39.84V51.2C116.282 51.4133 116.322 51.6 116.402 51.76C116.455 51.92 116.549 52.0667 116.682 52.2C116.842 52.3067 117.042 52.36 117.282 52.36V52.76H111.522V52.36C111.789 52.36 111.989 52.3067 112.122 52.2C112.282 52.0667 112.389 51.92 112.442 51.76C112.522 51.6 112.562 51.4133 112.562 51.2V35.2C112.562 34.9867 112.522 34.8 112.442 34.64C112.389 34.5067 112.282 34.3867 112.122 34.28C111.989 34.1467 111.789 34.08 111.522 34.08V33.64H115.482C115.695 33.64 115.882 33.72 116.042 33.88C116.202 34.04 116.282 34.2267 116.282 34.44V37.2ZM147.967 33.64V34.08C147.327 34.0533 146.74 34.2133 146.207 34.56C145.674 34.88 145.287 35.3333 145.047 35.92C143.527 39.2533 142.114 42.3467 140.807 45.2C140.247 46.4 139.687 47.6133 139.127 48.84C138.594 50.0667 138.074 51.2267 137.567 52.32C137.087 53.3867 136.66 54.3333 136.287 55.16C135.914 55.9867 135.634 56.6133 135.447 57.04C134.727 58.6133 133.954 59.84 133.127 60.72C132.3 61.6267 131.207 62.0933 129.847 62.12L128.687 59.16C129.114 59.2667 129.5 59.3467 129.847 59.4C130.22 59.4533 130.567 59.48 130.887 59.48C131.874 59.48 132.7 59.2 133.367 58.64C134.034 58.1067 134.647 57.2133 135.207 55.96C135.42 55.5067 135.647 55.0133 135.887 54.48C136.127 53.9733 136.38 53.4133 136.647 52.8L128.527 35.2C128.314 34.7467 128.087 34.4533 127.847 34.32C127.634 34.16 127.367 34.08 127.047 34.08V33.64H133.447V34.08C133.074 34.08 132.82 34.1733 132.687 34.36C132.554 34.52 132.514 34.72 132.567 34.96L138.727 48.24L144.327 36C144.54 35.52 144.527 35.08 144.287 34.68C144.074 34.28 143.594 34.08 142.847 34.08V33.64H147.967ZM169.652 41.96C170.692 42.3067 171.585 42.6667 172.332 43.04C173.079 43.4133 173.692 43.84 174.172 44.32C174.652 44.7733 174.999 45.2933 175.212 45.88C175.425 46.4667 175.532 47.1467 175.532 47.92C175.532 48.8533 175.305 49.6533 174.852 50.32C174.425 50.9867 173.852 51.5333 173.132 51.96C172.412 52.3867 171.585 52.7067 170.652 52.92C169.745 53.1067 168.825 53.2 167.892 53.2C166.345 53.2533 164.865 52.9733 163.452 52.36C162.039 51.7467 160.812 50.8667 159.772 49.72L161.892 47.48C161.972 48.2267 162.185 48.92 162.532 49.56C162.879 50.1733 163.319 50.7067 163.852 51.16C164.385 51.6133 164.999 51.9733 165.692 52.24C166.385 52.48 167.105 52.5867 167.852 52.56C169.265 52.56 170.439 52.32 171.372 51.84C172.305 51.3333 172.772 50.4933 172.772 49.32C172.772 48.7333 172.599 48.2133 172.252 47.76C171.905 47.3067 171.452 46.9067 170.892 46.56C170.332 46.1867 169.679 45.8667 168.932 45.6C168.185 45.3067 167.412 45.0267 166.612 44.76C165.545 44.4133 164.612 44.0667 163.812 43.72C163.039 43.3733 162.385 42.9867 161.852 42.56C161.345 42.1067 160.959 41.5867 160.692 41C160.425 40.3867 160.292 39.6667 160.292 38.84C160.292 37.88 160.492 37.0533 160.892 36.36C161.292 35.64 161.825 35.0533 162.492 34.6C163.185 34.12 163.972 33.7733 164.852 33.56C165.759 33.3467 166.692 33.24 167.652 33.24C169.092 33.1867 170.465 33.44 171.772 34C173.105 34.5333 174.252 35.3333 175.212 36.4L173.292 38.44C173.292 38.2267 173.225 37.88 173.092 37.4C172.985 36.8933 172.732 36.3867 172.332 35.88C171.959 35.3467 171.399 34.88 170.652 34.48C169.905 34.08 168.892 33.88 167.612 33.88C167.132 33.88 166.612 33.9333 166.052 34.04C165.519 34.1467 165.012 34.32 164.532 34.56C164.079 34.8 163.692 35.1333 163.372 35.56C163.079 35.96 162.932 36.4667 162.932 37.08C162.932 37.8267 163.159 38.4667 163.612 39C164.092 39.5067 164.665 39.9467 165.332 40.32C166.025 40.6933 166.759 41.0133 167.532 41.28C168.305 41.52 169.012 41.7467 169.652 41.96ZM188.727 52.44C187.847 53 186.887 53.2533 185.847 53.2C184.353 53.2 183.207 52.9333 182.407 52.4C181.633 51.8667 181.06 51.28 180.687 50.64C180.26 49.92 180.02 49.08 179.967 48.12V34.28H177.127V33.64H179.967V29.52L183.687 27.72V33.64H188.607V34.28H183.687V48.96C183.687 49.1733 183.713 49.48 183.767 49.88C183.82 50.28 183.94 50.68 184.127 51.08C184.34 51.4533 184.633 51.7867 185.007 52.08C185.38 52.3733 185.887 52.52 186.527 52.52C186.847 52.52 187.167 52.48 187.487 52.4C187.807 52.32 188.1 52.1867 188.367 52L188.727 52.44ZM195.329 37.2C195.729 35.84 196.449 34.84 197.489 34.2C198.555 33.5333 199.769 33.2 201.129 33.2C201.689 33.2 202.195 33.24 202.649 33.32C203.129 33.4 203.555 33.5067 203.929 33.64C204.355 33.7733 204.742 33.92 205.089 34.08L203.169 37.48C202.955 36.6533 202.515 36 201.849 35.52C201.182 35.0133 200.422 34.7867 199.569 34.84C198.609 34.84 197.849 35.1067 197.289 35.64C196.729 36.1467 196.302 36.7067 196.009 37.32C195.662 38.0667 195.435 38.9067 195.329 39.84V51.2C195.329 51.4133 195.369 51.6 195.449 51.76C195.502 51.92 195.595 52.0667 195.729 52.2C195.889 52.3067 196.089 52.36 196.329 52.36V52.76H190.569V52.36C190.835 52.36 191.035 52.3067 191.169 52.2C191.329 52.0667 191.435 51.92 191.489 51.76C191.569 51.6 191.609 51.4133 191.609 51.2V35.2C191.609 34.9867 191.569 34.8 191.489 34.64C191.435 34.5067 191.329 34.3867 191.169 34.28C191.035 34.1467 190.835 34.08 190.569 34.08V33.64H194.529C194.742 33.64 194.929 33.72 195.089 33.88C195.249 34.04 195.329 34.2267 195.329 34.44V37.2ZM215.008 33.24C216.661 33.24 218.074 33.5067 219.248 34.04C220.448 34.5467 221.421 35.2533 222.168 36.16C222.941 37.0667 223.501 38.1333 223.848 39.36C224.194 40.56 224.368 41.84 224.368 43.2C224.368 44.5867 224.194 45.8933 223.848 47.12C223.501 48.32 222.941 49.3733 222.168 50.28C221.421 51.1867 220.461 51.9067 219.288 52.44C218.114 52.9467 216.688 53.2 215.008 53.2C213.354 53.2 211.928 52.9467 210.728 52.44C209.554 51.9067 208.594 51.1867 207.848 50.28C207.101 49.3733 206.554 48.32 206.208 47.12C205.861 45.8933 205.688 44.5867 205.688 43.2C205.688 41.84 205.861 40.56 206.208 39.36C206.554 38.1333 207.101 37.0667 207.848 36.16C208.594 35.2533 209.554 34.5467 210.728 34.04C211.928 33.5067 213.354 33.24 215.008 33.24ZM215.008 52.56C215.941 52.56 216.741 52.32 217.408 51.84C218.101 51.3333 218.661 50.6667 219.088 49.84C219.541 48.9867 219.874 47.9867 220.088 46.84C220.301 45.6933 220.408 44.48 220.408 43.2C220.408 41.92 220.301 40.72 220.088 39.6C219.874 38.4533 219.541 37.4667 219.088 36.64C218.661 35.7867 218.101 35.12 217.408 34.64C216.741 34.1333 215.941 33.88 215.008 33.88C214.101 33.88 213.301 34.1333 212.608 34.64C211.941 35.12 211.381 35.7867 210.928 36.64C210.501 37.4667 210.181 38.4533 209.968 39.6C209.754 40.72 209.648 41.92 209.648 43.2C209.648 44.48 209.754 45.6933 209.968 46.84C210.181 47.9867 210.501 48.9867 210.928 49.84C211.381 50.6667 211.941 51.3333 212.608 51.84C213.301 52.32 214.101 52.56 215.008 52.56ZM243.706 51.36C243.813 51.4933 243.986 51.6933 244.226 51.96C244.466 52.2267 244.733 52.36 245.026 52.36V52.76H240.986C240.399 52.76 239.959 52.52 239.666 52.04L233.466 42.72L231.386 45.04V51.2C231.386 51.4133 231.426 51.6 231.506 51.76C231.559 51.92 231.653 52.0667 231.786 52.2C231.946 52.3067 232.146 52.36 232.386 52.36V52.76H226.626V52.36C226.893 52.36 227.093 52.3067 227.226 52.2C227.386 52.0667 227.493 51.92 227.546 51.76C227.626 51.6 227.666 51.4133 227.666 51.2V26.28C227.666 26.0667 227.626 25.88 227.546 25.72C227.493 25.5867 227.386 25.4667 227.226 25.36C227.093 25.2267 226.893 25.16 226.626 25.16V24.72H230.586C230.746 24.72 230.933 24.8 231.146 24.96C231.306 25.1733 231.386 25.36 231.386 25.52V44.08L237.306 37.6C237.839 37.0133 238.173 36.5333 238.306 36.16C238.439 35.7867 238.506 35.4667 238.506 35.2C238.559 34.9067 238.466 34.6533 238.226 34.44C238.066 34.2 237.813 34.08 237.466 34.08V33.64H243.226V34.08C242.853 34.08 242.413 34.2267 241.906 34.52C241.426 34.8133 240.933 35.1733 240.426 35.6C239.919 36 239.426 36.4267 238.946 36.88C238.466 37.3333 238.066 37.7333 237.746 38.08L236.026 39.92L243.706 51.36ZM256.029 52.36C257.389 52.2533 258.602 51.8133 259.669 51.04C260.762 50.24 261.549 49.2133 262.029 47.96L262.669 48.12C262.322 49.08 261.789 49.92 261.069 50.64C260.455 51.28 259.589 51.8667 258.469 52.4C257.375 52.9333 255.949 53.2 254.189 53.2C252.535 53.2 251.109 52.9467 249.909 52.44C248.735 51.9067 247.775 51.1867 247.029 50.28C246.282 49.3733 245.735 48.32 245.389 47.12C245.042 45.8933 244.869 44.5867 244.869 43.2C244.869 41.84 245.042 40.56 245.389 39.36C245.735 38.1333 246.282 37.0667 247.029 36.16C247.775 35.2533 248.735 34.5467 249.909 34.04C251.109 33.5067 252.535 33.24 254.189 33.24C256.269 33.24 257.922 33.6133 259.149 34.36C260.402 35.08 261.349 35.9467 261.989 36.96C262.629 37.9733 263.042 39.0267 263.229 40.12C263.442 41.2133 263.549 42.1067 263.549 42.8H248.829V43.2C248.829 44.48 248.962 45.7067 249.229 46.88C249.522 48.0267 249.949 49.0267 250.509 49.88C251.095 50.7333 251.842 51.3867 252.749 51.84C253.655 52.2933 254.749 52.4667 256.029 52.36ZM254.189 33.88C253.362 33.88 252.629 34.0933 251.989 34.52C251.349 34.9467 250.802 35.5333 250.349 36.28C249.895 37.0267 249.535 37.9067 249.269 38.92C249.029 39.9067 248.882 40.9867 248.829 42.16H259.549V42.12C259.362 39.2933 258.802 37.2133 257.869 35.88C256.935 34.5467 255.709 33.88 254.189 33.88ZM296.275 33.64V34.08C295.635 34.0533 295.048 34.2133 294.515 34.56C293.981 34.88 293.595 35.3333 293.355 35.92C291.835 39.2533 290.421 42.3467 289.115 45.2C288.555 46.4 287.995 47.6133 287.435 48.84C286.901 50.0667 286.381 51.2267 285.875 52.32C285.395 53.3867 284.968 54.3333 284.595 55.16C284.221 55.9867 283.941 56.6133 283.755 57.04C283.035 58.6133 282.261 59.84 281.435 60.72C280.608 61.6267 279.515 62.0933 278.155 62.12L276.995 59.16C277.421 59.2667 277.808 59.3467 278.155 59.4C278.528 59.4533 278.875 59.48 279.195 59.48C280.181 59.48 281.008 59.2 281.675 58.64C282.341 58.1067 282.955 57.2133 283.515 55.96C283.728 55.5067 283.955 55.0133 284.195 54.48C284.435 53.9733 284.688 53.4133 284.955 52.8L276.835 35.2C276.621 34.7467 276.395 34.4533 276.155 34.32C275.941 34.16 275.675 34.08 275.355 34.08V33.64H281.755V34.08C281.381 34.08 281.128 34.1733 280.995 34.36C280.861 34.52 280.821 34.72 280.875 34.96L287.035 48.24L292.635 36C292.848 35.52 292.835 35.08 292.595 34.68C292.381 34.28 291.901 34.08 291.155 34.08V33.64H296.275ZM305.617 33.24C307.27 33.24 308.684 33.5067 309.857 34.04C311.057 34.5467 312.03 35.2533 312.777 36.16C313.55 37.0667 314.11 38.1333 314.457 39.36C314.804 40.56 314.977 41.84 314.977 43.2C314.977 44.5867 314.804 45.8933 314.457 47.12C314.11 48.32 313.55 49.3733 312.777 50.28C312.03 51.1867 311.07 51.9067 309.897 52.44C308.724 52.9467 307.297 53.2 305.617 53.2C303.964 53.2 302.537 52.9467 301.337 52.44C300.164 51.9067 299.204 51.1867 298.457 50.28C297.71 49.3733 297.164 48.32 296.817 47.12C296.47 45.8933 296.297 44.5867 296.297 43.2C296.297 41.84 296.47 40.56 296.817 39.36C297.164 38.1333 297.71 37.0667 298.457 36.16C299.204 35.2533 300.164 34.5467 301.337 34.04C302.537 33.5067 303.964 33.24 305.617 33.24ZM305.617 52.56C306.55 52.56 307.35 52.32 308.017 51.84C308.71 51.3333 309.27 50.6667 309.697 49.84C310.15 48.9867 310.484 47.9867 310.697 46.84C310.91 45.6933 311.017 44.48 311.017 43.2C311.017 41.92 310.91 40.72 310.697 39.6C310.484 38.4533 310.15 37.4667 309.697 36.64C309.27 35.7867 308.71 35.12 308.017 34.64C307.35 34.1333 306.55 33.88 305.617 33.88C304.71 33.88 303.91 34.1333 303.217 34.64C302.55 35.12 301.99 35.7867 301.537 36.64C301.11 37.4667 300.79 38.4533 300.577 39.6C300.364 40.72 300.257 41.92 300.257 43.2C300.257 44.48 300.364 45.6933 300.577 46.84C300.79 47.9867 301.11 48.9867 301.537 49.84C301.99 50.6667 302.55 51.3333 303.217 51.84C303.91 52.32 304.71 52.56 305.617 52.56ZM334.715 51.2C334.715 51.4133 334.755 51.6 334.835 51.76C334.915 51.92 335.022 52.0667 335.155 52.2C335.289 52.3067 335.489 52.36 335.755 52.36V52.76H331.795C331.582 52.76 331.395 52.68 331.235 52.52C331.075 52.36 330.995 52.1733 330.995 51.96V49.8C330.435 50.8933 329.622 51.7467 328.555 52.36C327.515 52.9733 326.369 53.2533 325.115 53.2C324.715 53.1733 324.302 53.1333 323.875 53.08C323.475 53.0533 323.075 52.9867 322.675 52.88C322.009 52.72 321.382 52.4667 320.795 52.12C320.235 51.7467 319.742 51.3067 319.315 50.8C318.915 50.2667 318.595 49.68 318.355 49.04C318.142 48.4 318.035 47.7333 318.035 47.04V35.2C318.035 34.9867 317.995 34.8 317.915 34.64C317.862 34.5067 317.755 34.3867 317.595 34.28C317.462 34.1467 317.262 34.08 316.995 34.08V33.64H320.955C321.115 33.64 321.302 33.72 321.515 33.88C321.675 34.0933 321.742 34.28 321.715 34.44V48.88C321.715 49.3067 321.795 49.7467 321.955 50.2C322.142 50.6267 322.409 51.0133 322.755 51.36C323.102 51.7067 323.515 51.9867 323.995 52.2C324.475 52.4133 325.035 52.52 325.675 52.52C326.502 52.52 327.235 52.3467 327.875 52C328.542 51.6533 329.102 51.2267 329.555 50.72C330.035 50.2133 330.395 49.6933 330.635 49.16C330.875 48.6 330.995 48.1067 330.995 47.68V35.2C330.995 34.9867 330.955 34.8 330.875 34.64C330.822 34.5067 330.729 34.3867 330.595 34.28C330.462 34.1467 330.262 34.08 329.995 34.08V33.64H333.915C334.129 33.64 334.315 33.72 334.475 33.88C334.635 34.04 334.715 34.2267 334.715 34.44V51.2ZM368.21 25.16C367.97 25.16 367.77 25.2267 367.61 25.36C367.477 25.4667 367.384 25.5867 367.33 25.72C367.25 25.88 367.21 26.0667 367.21 26.28V51.2C367.21 51.4133 367.25 51.6 367.33 51.76C367.384 51.92 367.477 52.0667 367.61 52.2C367.77 52.3067 367.97 52.36 368.21 52.36V52.76H364.29C364.077 52.76 363.89 52.68 363.73 52.52C363.57 52.36 363.49 52.1733 363.49 51.96V48.84C363.304 49.4267 363.037 49.9867 362.69 50.52C362.37 51.0267 361.957 51.48 361.45 51.88C360.97 52.28 360.384 52.6 359.69 52.84C358.997 53.08 358.184 53.2 357.25 53.2C356.05 53.2 354.957 52.9467 353.97 52.44C352.984 51.9067 352.13 51.1867 351.41 50.28C350.717 49.3733 350.17 48.32 349.77 47.12C349.37 45.8933 349.17 44.5867 349.17 43.2C349.17 41.8133 349.37 40.52 349.77 39.32C350.197 38.0933 350.784 37.04 351.53 36.16C352.304 35.2533 353.237 34.5467 354.33 34.04C355.45 33.5067 356.69 33.24 358.05 33.24C358.824 33.24 359.504 33.3467 360.09 33.56C360.677 33.7733 361.184 34.0533 361.61 34.4C362.064 34.7467 362.437 35.1333 362.73 35.56C363.05 35.9867 363.304 36.4133 363.49 36.84V25.52C363.49 25.3067 363.57 25.12 363.73 24.96C363.89 24.8 364.077 24.72 364.29 24.72H368.21V25.16ZM363.49 39.16C363.49 38.84 363.384 38.3867 363.17 37.8C362.984 37.2133 362.69 36.6267 362.29 36.04C361.89 35.4533 361.37 34.9467 360.73 34.52C360.117 34.0933 359.37 33.88 358.49 33.88C357.637 33.88 356.877 34.1333 356.21 34.64C355.544 35.12 354.984 35.7867 354.53 36.64C354.077 37.4667 353.73 38.4533 353.49 39.6C353.25 40.72 353.13 41.92 353.13 43.2C353.13 44.48 353.224 45.68 353.41 46.8C353.624 47.92 353.944 48.8933 354.37 49.72C354.824 50.5467 355.384 51.2 356.05 51.68C356.717 52.1333 357.504 52.36 358.41 52.36C360.01 52.36 361.25 51.7067 362.13 50.4C363.037 49.0667 363.49 47.16 363.49 44.68V39.16ZM376.196 37.2C376.596 35.84 377.316 34.84 378.356 34.2C379.423 33.5333 380.636 33.2 381.996 33.2C382.556 33.2 383.063 33.24 383.516 33.32C383.996 33.4 384.423 33.5067 384.796 33.64C385.223 33.7733 385.609 33.92 385.956 34.08L384.036 37.48C383.823 36.6533 383.383 36 382.716 35.52C382.049 35.0133 381.289 34.7867 380.436 34.84C379.476 34.84 378.716 35.1067 378.156 35.64C377.596 36.1467 377.169 36.7067 376.876 37.32C376.529 38.0667 376.303 38.9067 376.196 39.84V51.2C376.196 51.4133 376.236 51.6 376.316 51.76C376.369 51.92 376.463 52.0667 376.596 52.2C376.756 52.3067 376.956 52.36 377.196 52.36V52.76H371.436V52.36C371.703 52.36 371.903 52.3067 372.036 52.2C372.196 52.0667 372.303 51.92 372.356 51.76C372.436 51.6 372.476 51.4133 372.476 51.2V35.2C372.476 34.9867 372.436 34.8 372.356 34.64C372.303 34.5067 372.196 34.3867 372.036 34.28C371.903 34.1467 371.703 34.08 371.436 34.08V33.64H375.396C375.609 33.64 375.796 33.72 375.956 33.88C376.116 34.04 376.196 34.2267 376.196 34.44V37.2ZM402.644 51.2C402.644 51.4133 402.684 51.6 402.764 51.76C402.844 51.92 402.951 52.0667 403.084 52.2C403.217 52.3067 403.417 52.36 403.684 52.36V52.76H399.724C399.511 52.76 399.324 52.68 399.164 52.52C399.004 52.36 398.924 52.1733 398.924 51.96V49.2C398.631 50 398.257 50.6533 397.804 51.16C397.377 51.6667 396.911 52.08 396.404 52.4C395.924 52.6933 395.417 52.8933 394.884 53C394.351 53.1333 393.844 53.2 393.364 53.2C393.284 53.2 393.057 53.2 392.684 53.2C392.311 53.2 391.857 53.1733 391.324 53.12C390.817 53.0667 390.271 52.96 389.684 52.8C389.097 52.6133 388.551 52.3467 388.044 52C387.564 51.6533 387.164 51.2 386.844 50.64C386.524 50.08 386.364 49.3733 386.364 48.52C386.364 47.6667 386.537 46.9333 386.884 46.32C387.257 45.68 387.791 45.0933 388.484 44.56C389.204 44 390.084 43.4667 391.124 42.96C392.191 42.4267 393.431 41.8533 394.844 41.24C396.284 40.6267 397.324 40.1067 397.964 39.68C398.604 39.2533 398.924 38.6667 398.924 37.92V37.52C398.924 37.0933 398.831 36.6667 398.644 36.24C398.484 35.7867 398.217 35.3867 397.844 35.04C397.497 34.6933 397.057 34.4133 396.524 34.2C396.017 33.9867 395.417 33.88 394.724 33.88C393.924 33.88 393.231 34.0267 392.644 34.32C392.057 34.5867 391.564 34.96 391.164 35.44C390.791 35.8933 390.511 36.4267 390.324 37.04C390.164 37.6533 390.084 38.2933 390.084 38.96L387.084 37.92C387.217 37.52 387.457 37.0533 387.804 36.52C388.177 35.9867 388.684 35.48 389.324 35C389.964 34.4933 390.764 34.08 391.724 33.76C392.711 33.4133 393.897 33.24 395.284 33.24C396.644 33.24 397.791 33.4267 398.724 33.8C399.657 34.1733 400.417 34.6667 401.004 35.28C401.591 35.8667 402.004 36.52 402.244 37.24C402.511 37.9333 402.644 38.6267 402.644 39.32V51.2ZM398.924 39.64C398.631 39.9333 398.191 40.24 397.604 40.56C397.044 40.8533 396.271 41.24 395.284 41.72C394.191 42.2533 393.311 42.8533 392.644 43.52C392.004 44.1867 391.511 44.8533 391.164 45.52C390.817 46.16 390.591 46.7733 390.484 47.36C390.377 47.92 390.324 48.3733 390.324 48.72C390.324 49.04 390.364 49.4267 390.444 49.88C390.524 50.3067 390.684 50.72 390.924 51.12C391.191 51.52 391.551 51.8667 392.004 52.16C392.457 52.4267 393.057 52.56 393.804 52.56C394.817 52.56 395.657 52.32 396.324 51.84C396.991 51.3333 397.511 50.76 397.884 50.12C398.257 49.4533 398.524 48.8133 398.684 48.2C398.844 47.56 398.924 47.1067 398.924 46.84V39.64ZM432.295 33.64V34.08C431.682 34.0267 431.122 34.1867 430.615 34.56C430.109 34.9067 429.762 35.3867 429.575 36L423.175 53.2H422.855L418.215 41.12L413.095 53.2H412.775L405.335 35.2C405.122 34.7467 404.909 34.4533 404.695 34.32C404.482 34.16 404.215 34.08 403.895 34.08V33.64H410.295V34.08C409.869 34.08 409.575 34.1867 409.415 34.4C409.282 34.5867 409.269 34.8267 409.375 35.12L414.615 48L417.895 40.28L415.975 35.24C415.655 34.4667 415.189 34.08 414.575 34.08V33.64H421.215V34.08C420.709 34.08 420.349 34.1733 420.135 34.36C419.922 34.5467 419.895 34.84 420.055 35.24L424.575 47.64L428.855 36C429.042 35.52 428.989 35.08 428.695 34.68C428.429 34.28 427.922 34.08 427.175 34.08V33.64H432.295ZM447.401 31C446.708 31 446.108 30.76 445.601 30.28C445.121 29.7733 444.881 29.1733 444.881 28.48C444.881 27.7867 445.121 27.2 445.601 26.72C446.108 26.2133 446.708 25.96 447.401 25.96C448.121 25.96 448.721 26.2 449.201 26.68C449.575 27.0533 449.815 27.4933 449.921 28C450.028 28.48 449.975 28.96 449.761 29.44C449.548 29.92 449.228 30.3067 448.801 30.6C448.401 30.8667 447.935 31 447.401 31ZM449.441 51.2C449.441 51.4133 449.481 51.6 449.561 51.76C449.615 51.92 449.708 52.0667 449.841 52.2C450.001 52.3067 450.201 52.36 450.441 52.36V52.76H444.681V52.36C444.948 52.36 445.148 52.3067 445.281 52.2C445.441 52.0667 445.548 51.92 445.601 51.76C445.681 51.6 445.721 51.4133 445.721 51.2V35.2C445.721 34.9867 445.681 34.8 445.601 34.64C445.548 34.5067 445.441 34.3867 445.281 34.28C445.148 34.1467 444.948 34.08 444.681 34.08V33.64H448.641C448.855 33.64 449.041 33.72 449.201 33.88C449.361 34.04 449.441 34.2267 449.441 34.44V51.2ZM462.771 41.96C463.811 42.3067 464.704 42.6667 465.451 43.04C466.197 43.4133 466.811 43.84 467.291 44.32C467.771 44.7733 468.117 45.2933 468.331 45.88C468.544 46.4667 468.651 47.1467 468.651 47.92C468.651 48.8533 468.424 49.6533 467.971 50.32C467.544 50.9867 466.971 51.5333 466.251 51.96C465.531 52.3867 464.704 52.7067 463.771 52.92C462.864 53.1067 461.944 53.2 461.011 53.2C459.464 53.2533 457.984 52.9733 456.571 52.36C455.157 51.7467 453.931 50.8667 452.891 49.72L455.011 47.48C455.091 48.2267 455.304 48.92 455.651 49.56C455.997 50.1733 456.437 50.7067 456.971 51.16C457.504 51.6133 458.117 51.9733 458.811 52.24C459.504 52.48 460.224 52.5867 460.971 52.56C462.384 52.56 463.557 52.32 464.491 51.84C465.424 51.3333 465.891 50.4933 465.891 49.32C465.891 48.7333 465.717 48.2133 465.371 47.76C465.024 47.3067 464.571 46.9067 464.011 46.56C463.451 46.1867 462.797 45.8667 462.051 45.6C461.304 45.3067 460.531 45.0267 459.731 44.76C458.664 44.4133 457.731 44.0667 456.931 43.72C456.157 43.3733 455.504 42.9867 454.971 42.56C454.464 42.1067 454.077 41.5867 453.811 41C453.544 40.3867 453.411 39.6667 453.411 38.84C453.411 37.88 453.611 37.0533 454.011 36.36C454.411 35.64 454.944 35.0533 455.611 34.6C456.304 34.12 457.091 33.7733 457.971 33.56C458.877 33.3467 459.811 33.24 460.771 33.24C462.211 33.1867 463.584 33.44 464.891 34C466.224 34.5333 467.371 35.3333 468.331 36.4L466.411 38.44C466.411 38.2267 466.344 37.88 466.211 37.4C466.104 36.8933 465.851 36.3867 465.451 35.88C465.077 35.3467 464.517 34.88 463.771 34.48C463.024 34.08 462.011 33.88 460.731 33.88C460.251 33.88 459.731 33.9333 459.171 34.04C458.637 34.1467 458.131 34.32 457.651 34.56C457.197 34.8 456.811 35.1333 456.491 35.56C456.197 35.96 456.051 36.4667 456.051 37.08C456.051 37.8267 456.277 38.4667 456.731 39C457.211 39.5067 457.784 39.9467 458.451 40.32C459.144 40.6933 459.877 41.0133 460.651 41.28C461.424 41.52 462.131 41.7467 462.771 41.96ZM218.636 95.2C218.636 95.4133 218.676 95.6 218.756 95.76C218.836 95.92 218.943 96.0667 219.076 96.2C219.21 96.3067 219.41 96.36 219.676 96.36V96.76H215.716C215.503 96.76 215.316 96.68 215.156 96.52C214.996 96.36 214.916 96.1733 214.916 95.96V93.2C214.623 94 214.25 94.6533 213.796 95.16C213.37 95.6667 212.903 96.08 212.396 96.4C211.916 96.6933 211.41 96.8933 210.876 97C210.343 97.1333 209.836 97.2 209.356 97.2C209.276 97.2 209.05 97.2 208.676 97.2C208.303 97.2 207.85 97.1733 207.316 97.12C206.81 97.0667 206.263 96.96 205.676 96.8C205.09 96.6133 204.543 96.3467 204.036 96C203.556 95.6533 203.156 95.2 202.836 94.64C202.516 94.08 202.356 93.3733 202.356 92.52C202.356 91.6667 202.53 90.9333 202.876 90.32C203.25 89.68 203.783 89.0933 204.476 88.56C205.196 88 206.076 87.4667 207.116 86.96C208.183 86.4267 209.423 85.8533 210.836 85.24C212.276 84.6267 213.316 84.1067 213.956 83.68C214.596 83.2533 214.916 82.6667 214.916 81.92V81.52C214.916 81.0933 214.823 80.6667 214.636 80.24C214.476 79.7867 214.21 79.3867 213.836 79.04C213.49 78.6933 213.05 78.4133 212.516 78.2C212.01 77.9867 211.41 77.88 210.716 77.88C209.916 77.88 209.223 78.0267 208.636 78.32C208.05 78.5867 207.556 78.96 207.156 79.44C206.783 79.8933 206.503 80.4267 206.316 81.04C206.156 81.6533 206.076 82.2933 206.076 82.96L203.076 81.92C203.21 81.52 203.45 81.0533 203.796 80.52C204.17 79.9867 204.676 79.48 205.316 79C205.956 78.4933 206.756 78.08 207.716 77.76C208.703 77.4133 209.89 77.24 211.276 77.24C212.636 77.24 213.783 77.4267 214.716 77.8C215.65 78.1733 216.41 78.6667 216.996 79.28C217.583 79.8667 217.996 80.52 218.236 81.24C218.503 81.9333 218.636 82.6267 218.636 83.32V95.2ZM214.916 83.64C214.623 83.9333 214.183 84.24 213.596 84.56C213.036 84.8533 212.263 85.24 211.276 85.72C210.183 86.2533 209.303 86.8533 208.636 87.52C207.996 88.1867 207.503 88.8533 207.156 89.52C206.81 90.16 206.583 90.7733 206.476 91.36C206.37 91.92 206.316 92.3733 206.316 92.72C206.316 93.04 206.356 93.4267 206.436 93.88C206.516 94.3067 206.676 94.72 206.916 95.12C207.183 95.52 207.543 95.8667 207.996 96.16C208.45 96.4267 209.05 96.56 209.796 96.56C210.81 96.56 211.65 96.32 212.316 95.84C212.983 95.3333 213.503 94.76 213.876 94.12C214.25 93.4533 214.516 92.8133 214.676 92.2C214.836 91.56 214.916 91.1067 214.916 90.84V83.64ZM250.506 92.08C250.159 93.04 249.626 93.8933 248.906 94.64C248.292 95.28 247.426 95.8667 246.306 96.4C245.212 96.9333 243.786 97.2 242.026 97.2C240.372 97.2 238.946 96.9467 237.746 96.44C236.572 95.9067 235.612 95.1867 234.866 94.28C234.119 93.3733 233.572 92.32 233.226 91.12C232.879 89.8933 232.706 88.5867 232.706 87.2C232.706 85.84 232.879 84.56 233.226 83.36C233.572 82.1333 234.119 81.0667 234.866 80.16C235.612 79.2533 236.572 78.5467 237.746 78.04C238.946 77.5067 240.372 77.24 242.026 77.24C243.146 77.24 244.132 77.36 244.986 77.6C245.866 77.8133 246.626 78.12 247.266 78.52C247.932 78.92 248.492 79.3867 248.946 79.92C249.426 80.4267 249.826 80.9733 250.146 81.56L247.666 83.36C247.426 82.5867 247.172 81.8667 246.906 81.2C246.639 80.5333 246.306 79.96 245.906 79.48C245.506 78.9733 245.012 78.5867 244.426 78.32C243.866 78.0267 243.172 77.88 242.346 77.88C241.359 77.88 240.506 78.1333 239.786 78.64C239.066 79.12 238.479 79.7867 238.026 80.64C237.572 81.4667 237.226 82.4533 236.986 83.6C236.772 84.72 236.666 85.92 236.666 87.2C236.666 88.48 236.799 89.7067 237.066 90.88C237.359 92.0267 237.786 93.0267 238.346 93.88C238.932 94.7333 239.679 95.3867 240.586 95.84C241.492 96.2933 242.586 96.4667 243.866 96.36C245.226 96.2533 246.439 95.8133 247.506 95.04C248.599 94.24 249.386 93.2133 249.866 91.96L250.506 92.08ZM261.615 77.24C263.269 77.24 264.682 77.5067 265.855 78.04C267.055 78.5467 268.029 79.2533 268.775 80.16C269.549 81.0667 270.109 82.1333 270.455 83.36C270.802 84.56 270.975 85.84 270.975 87.2C270.975 88.5867 270.802 89.8933 270.455 91.12C270.109 92.32 269.549 93.3733 268.775 94.28C268.029 95.1867 267.069 95.9067 265.895 96.44C264.722 96.9467 263.295 97.2 261.615 97.2C259.962 97.2 258.535 96.9467 257.335 96.44C256.162 95.9067 255.202 95.1867 254.455 94.28C253.709 93.3733 253.162 92.32 252.815 91.12C252.469 89.8933 252.295 88.5867 252.295 87.2C252.295 85.84 252.469 84.56 252.815 83.36C253.162 82.1333 253.709 81.0667 254.455 80.16C255.202 79.2533 256.162 78.5467 257.335 78.04C258.535 77.5067 259.962 77.24 261.615 77.24ZM261.615 96.56C262.549 96.56 263.349 96.32 264.015 95.84C264.709 95.3333 265.269 94.6667 265.695 93.84C266.149 92.9867 266.482 91.9867 266.695 90.84C266.909 89.6933 267.015 88.48 267.015 87.2C267.015 85.92 266.909 84.72 266.695 83.6C266.482 82.4533 266.149 81.4667 265.695 80.64C265.269 79.7867 264.709 79.12 264.015 78.64C263.349 78.1333 262.549 77.88 261.615 77.88C260.709 77.88 259.909 78.1333 259.215 78.64C258.549 79.12 257.989 79.7867 257.535 80.64C257.109 81.4667 256.789 82.4533 256.575 83.6C256.362 84.72 256.255 85.92 256.255 87.2C256.255 88.48 256.362 89.6933 256.575 90.84C256.789 91.9867 257.109 92.9867 257.535 93.84C257.989 94.6667 258.549 95.3333 259.215 95.84C259.909 96.32 260.709 96.56 261.615 96.56ZM290.914 95.2C290.914 95.4133 290.954 95.6 291.034 95.76C291.114 95.92 291.22 96.0667 291.354 96.2C291.487 96.3067 291.687 96.36 291.954 96.36V96.76H286.194V96.36C286.46 96.36 286.66 96.3067 286.794 96.2C286.927 96.0667 287.02 95.92 287.074 95.76C287.154 95.6 287.194 95.4133 287.194 95.2V81.52C287.194 81.0933 287.1 80.6667 286.914 80.24C286.754 79.8133 286.5 79.4267 286.154 79.08C285.834 78.7333 285.434 78.4533 284.954 78.24C284.474 78.0267 283.914 77.92 283.274 77.92C282.447 77.92 281.7 78.0933 281.034 78.44C280.394 78.7867 279.834 79.2133 279.354 79.72C278.9 80.2 278.554 80.72 278.314 81.28C278.074 81.84 277.954 82.3333 277.954 82.76V95.2C277.954 95.4133 277.994 95.6 278.074 95.76C278.127 95.92 278.22 96.0667 278.354 96.2C278.514 96.3067 278.714 96.36 278.954 96.36V96.76H273.194V96.36C273.46 96.36 273.66 96.3067 273.794 96.2C273.954 96.0667 274.06 95.92 274.114 95.76C274.194 95.6 274.234 95.4133 274.234 95.2V79.2C274.234 78.9867 274.194 78.8 274.114 78.64C274.06 78.5067 273.954 78.3867 273.794 78.28C273.66 78.1467 273.46 78.08 273.194 78.08V77.64H277.154C277.367 77.64 277.554 77.72 277.714 77.88C277.874 78.04 277.954 78.2267 277.954 78.44V80.64C278.514 79.52 279.314 78.6667 280.354 78.08C281.42 77.4667 282.58 77.1867 283.834 77.24C284.74 77.24 285.62 77.3733 286.474 77.64C287.327 77.9067 288.074 78.3067 288.714 78.84C289.38 79.3467 289.914 79.9867 290.314 80.76C290.714 81.5067 290.914 82.3867 290.914 83.4V95.2ZM313.311 77.64V78.08C312.671 78.0533 312.084 78.2133 311.551 78.56C311.017 78.88 310.631 79.3333 310.391 79.92L302.511 97.2H302.191L293.871 79.2C293.657 78.7467 293.431 78.4533 293.191 78.32C292.977 78.16 292.711 78.08 292.391 78.08V77.64H298.791V78.08C298.417 78.08 298.164 78.1733 298.031 78.36C297.897 78.52 297.857 78.72 297.911 78.96L304.071 92.24L309.671 80C309.884 79.52 309.871 79.08 309.631 78.68C309.417 78.28 308.937 78.08 308.191 78.08V77.64H313.311ZM324.493 96.36C325.853 96.2533 327.066 95.8133 328.133 95.04C329.226 94.24 330.013 93.2133 330.493 91.96L331.133 92.12C330.786 93.08 330.253 93.92 329.533 94.64C328.919 95.28 328.053 95.8667 326.933 96.4C325.839 96.9333 324.413 97.2 322.653 97.2C320.999 97.2 319.573 96.9467 318.373 96.44C317.199 95.9067 316.239 95.1867 315.493 94.28C314.746 93.3733 314.199 92.32 313.853 91.12C313.506 89.8933 313.333 88.5867 313.333 87.2C313.333 85.84 313.506 84.56 313.853 83.36C314.199 82.1333 314.746 81.0667 315.493 80.16C316.239 79.2533 317.199 78.5467 318.373 78.04C319.573 77.5067 320.999 77.24 322.653 77.24C324.733 77.24 326.386 77.6133 327.613 78.36C328.866 79.08 329.813 79.9467 330.453 80.96C331.093 81.9733 331.506 83.0267 331.693 84.12C331.906 85.2133 332.013 86.1067 332.013 86.8H317.293V87.2C317.293 88.48 317.426 89.7067 317.693 90.88C317.986 92.0267 318.413 93.0267 318.973 93.88C319.559 94.7333 320.306 95.3867 321.213 95.84C322.119 96.2933 323.213 96.4667 324.493 96.36ZM322.653 77.88C321.826 77.88 321.093 78.0933 320.453 78.52C319.813 78.9467 319.266 79.5333 318.813 80.28C318.359 81.0267 317.999 81.9067 317.733 82.92C317.493 83.9067 317.346 84.9867 317.293 86.16H328.013V86.12C327.826 83.2933 327.266 81.2133 326.333 79.88C325.399 78.5467 324.173 77.88 322.653 77.88ZM339.382 81.2C339.782 79.84 340.502 78.84 341.542 78.2C342.609 77.5333 343.822 77.2 345.182 77.2C345.742 77.2 346.249 77.24 346.702 77.32C347.182 77.4 347.609 77.5067 347.982 77.64C348.409 77.7733 348.795 77.92 349.142 78.08L347.222 81.48C347.009 80.6533 346.569 80 345.902 79.52C345.235 79.0133 344.475 78.7867 343.622 78.84C342.662 78.84 341.902 79.1067 341.342 79.64C340.782 80.1467 340.355 80.7067 340.062 81.32C339.715 82.0667 339.489 82.9067 339.382 83.84V95.2C339.382 95.4133 339.422 95.6 339.502 95.76C339.555 95.92 339.649 96.0667 339.782 96.2C339.942 96.3067 340.142 96.36 340.382 96.36V96.76H334.622V96.36C334.889 96.36 335.089 96.3067 335.222 96.2C335.382 96.0667 335.489 95.92 335.542 95.76C335.622 95.6 335.662 95.4133 335.662 95.2V79.2C335.662 78.9867 335.622 78.8 335.542 78.64C335.489 78.5067 335.382 78.3867 335.222 78.28C335.089 78.1467 334.889 78.08 334.622 78.08V77.64H338.582C338.795 77.64 338.982 77.72 339.142 77.88C339.302 78.04 339.382 78.2267 339.382 78.44V81.2ZM360.016 85.96C361.056 86.3067 361.949 86.6667 362.696 87.04C363.443 87.4133 364.056 87.84 364.536 88.32C365.016 88.7733 365.363 89.2933 365.576 89.88C365.789 90.4667 365.896 91.1467 365.896 91.92C365.896 92.8533 365.669 93.6533 365.216 94.32C364.789 94.9867 364.216 95.5333 363.496 95.96C362.776 96.3867 361.949 96.7067 361.016 96.92C360.109 97.1067 359.189 97.2 358.256 97.2C356.709 97.2533 355.229 96.9733 353.816 96.36C352.403 95.7467 351.176 94.8667 350.136 93.72L352.256 91.48C352.336 92.2267 352.549 92.92 352.896 93.56C353.243 94.1733 353.683 94.7067 354.216 95.16C354.749 95.6133 355.363 95.9733 356.056 96.24C356.749 96.48 357.469 96.5867 358.216 96.56C359.629 96.56 360.803 96.32 361.736 95.84C362.669 95.3333 363.136 94.4933 363.136 93.32C363.136 92.7333 362.963 92.2133 362.616 91.76C362.269 91.3067 361.816 90.9067 361.256 90.56C360.696 90.1867 360.043 89.8667 359.296 89.6C358.549 89.3067 357.776 89.0267 356.976 88.76C355.909 88.4133 354.976 88.0667 354.176 87.72C353.403 87.3733 352.749 86.9867 352.216 86.56C351.709 86.1067 351.323 85.5867 351.056 85C350.789 84.3867 350.656 83.6667 350.656 82.84C350.656 81.88 350.856 81.0533 351.256 80.36C351.656 79.64 352.189 79.0533 352.856 78.6C353.549 78.12 354.336 77.7733 355.216 77.56C356.123 77.3467 357.056 77.24 358.016 77.24C359.456 77.1867 360.829 77.44 362.136 78C363.469 78.5333 364.616 79.3333 365.576 80.4L363.656 82.44C363.656 82.2267 363.589 81.88 363.456 81.4C363.349 80.8933 363.096 80.3867 362.696 79.88C362.323 79.3467 361.763 78.88 361.016 78.48C360.269 78.08 359.256 77.88 357.976 77.88C357.496 77.88 356.976 77.9333 356.416 78.04C355.883 78.1467 355.376 78.32 354.896 78.56C354.443 78.8 354.056 79.1333 353.736 79.56C353.443 79.96 353.296 80.4667 353.296 81.08C353.296 81.8267 353.523 82.4667 353.976 83C354.456 83.5067 355.029 83.9467 355.696 84.32C356.389 84.6933 357.123 85.0133 357.896 85.28C358.669 85.52 359.376 85.7467 360.016 85.96ZM384.171 95.2C384.171 95.4133 384.211 95.6 384.291 95.76C384.371 95.92 384.477 96.0667 384.611 96.2C384.744 96.3067 384.944 96.36 385.211 96.36V96.76H381.251C381.037 96.76 380.851 96.68 380.691 96.52C380.531 96.36 380.451 96.1733 380.451 95.96V93.2C380.157 94 379.784 94.6533 379.331 95.16C378.904 95.6667 378.437 96.08 377.931 96.4C377.451 96.6933 376.944 96.8933 376.411 97C375.877 97.1333 375.371 97.2 374.891 97.2C374.811 97.2 374.584 97.2 374.211 97.2C373.837 97.2 373.384 97.1733 372.851 97.12C372.344 97.0667 371.797 96.96 371.211 96.8C370.624 96.6133 370.077 96.3467 369.571 96C369.091 95.6533 368.691 95.2 368.371 94.64C368.051 94.08 367.891 93.3733 367.891 92.52C367.891 91.6667 368.064 90.9333 368.411 90.32C368.784 89.68 369.317 89.0933 370.011 88.56C370.731 88 371.611 87.4667 372.651 86.96C373.717 86.4267 374.957 85.8533 376.371 85.24C377.811 84.6267 378.851 84.1067 379.491 83.68C380.131 83.2533 380.451 82.6667 380.451 81.92V81.52C380.451 81.0933 380.357 80.6667 380.171 80.24C380.011 79.7867 379.744 79.3867 379.371 79.04C379.024 78.6933 378.584 78.4133 378.051 78.2C377.544 77.9867 376.944 77.88 376.251 77.88C375.451 77.88 374.757 78.0267 374.171 78.32C373.584 78.5867 373.091 78.96 372.691 79.44C372.317 79.8933 372.037 80.4267 371.851 81.04C371.691 81.6533 371.611 82.2933 371.611 82.96L368.611 81.92C368.744 81.52 368.984 81.0533 369.331 80.52C369.704 79.9867 370.211 79.48 370.851 79C371.491 78.4933 372.291 78.08 373.251 77.76C374.237 77.4133 375.424 77.24 376.811 77.24C378.171 77.24 379.317 77.4267 380.251 77.8C381.184 78.1733 381.944 78.6667 382.531 79.28C383.117 79.8667 383.531 80.52 383.771 81.24C384.037 81.9333 384.171 82.6267 384.171 83.32V95.2ZM380.451 83.64C380.157 83.9333 379.717 84.24 379.131 84.56C378.571 84.8533 377.797 85.24 376.811 85.72C375.717 86.2533 374.837 86.8533 374.171 87.52C373.531 88.1867 373.037 88.8533 372.691 89.52C372.344 90.16 372.117 90.7733 372.011 91.36C371.904 91.92 371.851 92.3733 371.851 92.72C371.851 93.04 371.891 93.4267 371.971 93.88C372.051 94.3067 372.211 94.72 372.451 95.12C372.717 95.52 373.077 95.8667 373.531 96.16C373.984 96.4267 374.584 96.56 375.331 96.56C376.344 96.56 377.184 96.32 377.851 95.84C378.517 95.3333 379.037 94.76 379.411 94.12C379.784 93.4533 380.051 92.8133 380.211 92.2C380.371 91.56 380.451 91.1067 380.451 90.84V83.64ZM398.017 96.44C397.137 97 396.177 97.2533 395.137 97.2C393.644 97.2 392.497 96.9333 391.697 96.4C390.924 95.8667 390.351 95.28 389.977 94.64C389.551 93.92 389.311 93.08 389.257 92.12V78.28H386.417V77.64H389.257V73.52L392.977 71.72V77.64H397.897V78.28H392.977V92.96C392.977 93.1733 393.004 93.48 393.057 93.88C393.111 94.28 393.231 94.68 393.417 95.08C393.631 95.4533 393.924 95.7867 394.297 96.08C394.671 96.3733 395.177 96.52 395.817 96.52C396.137 96.52 396.457 96.48 396.777 96.4C397.097 96.32 397.391 96.1867 397.657 96L398.017 96.44ZM402.579 75C401.886 75 401.286 74.76 400.779 74.28C400.299 73.7733 400.059 73.1733 400.059 72.48C400.059 71.7867 400.299 71.2 400.779 70.72C401.286 70.2133 401.886 69.96 402.579 69.96C403.299 69.96 403.899 70.2 404.379 70.68C404.753 71.0533 404.993 71.4933 405.099 72C405.206 72.48 405.153 72.96 404.939 73.44C404.726 73.92 404.406 74.3067 403.979 74.6C403.579 74.8667 403.113 75 402.579 75ZM404.619 95.2C404.619 95.4133 404.659 95.6 404.739 95.76C404.793 95.92 404.886 96.0667 405.019 96.2C405.179 96.3067 405.379 96.36 405.619 96.36V96.76H399.859V96.36C400.126 96.36 400.326 96.3067 400.459 96.2C400.619 96.0667 400.726 95.92 400.779 95.76C400.859 95.6 400.899 95.4133 400.899 95.2V79.2C400.899 78.9867 400.859 78.8 400.779 78.64C400.726 78.5067 400.619 78.3867 400.459 78.28C400.326 78.1467 400.126 78.08 399.859 78.08V77.64H403.819C404.033 77.64 404.219 77.72 404.379 77.88C404.539 78.04 404.619 78.2267 404.619 78.44V95.2ZM417.189 77.24C418.842 77.24 420.255 77.5067 421.429 78.04C422.629 78.5467 423.602 79.2533 424.349 80.16C425.122 81.0667 425.682 82.1333 426.029 83.36C426.375 84.56 426.549 85.84 426.549 87.2C426.549 88.5867 426.375 89.8933 426.029 91.12C425.682 92.32 425.122 93.3733 424.349 94.28C423.602 95.1867 422.642 95.9067 421.469 96.44C420.295 96.9467 418.869 97.2 417.189 97.2C415.535 97.2 414.109 96.9467 412.909 96.44C411.735 95.9067 410.775 95.1867 410.029 94.28C409.282 93.3733 408.735 92.32 408.389 91.12C408.042 89.8933 407.869 88.5867 407.869 87.2C407.869 85.84 408.042 84.56 408.389 83.36C408.735 82.1333 409.282 81.0667 410.029 80.16C410.775 79.2533 411.735 78.5467 412.909 78.04C414.109 77.5067 415.535 77.24 417.189 77.24ZM417.189 96.56C418.122 96.56 418.922 96.32 419.589 95.84C420.282 95.3333 420.842 94.6667 421.269 93.84C421.722 92.9867 422.055 91.9867 422.269 90.84C422.482 89.6933 422.589 88.48 422.589 87.2C422.589 85.92 422.482 84.72 422.269 83.6C422.055 82.4533 421.722 81.4667 421.269 80.64C420.842 79.7867 420.282 79.12 419.589 78.64C418.922 78.1333 418.122 77.88 417.189 77.88C416.282 77.88 415.482 78.1333 414.789 78.64C414.122 79.12 413.562 79.7867 413.109 80.64C412.682 81.4667 412.362 82.4533 412.149 83.6C411.935 84.72 411.829 85.92 411.829 87.2C411.829 88.48 411.935 89.6933 412.149 90.84C412.362 91.9867 412.682 92.9867 413.109 93.84C413.562 94.6667 414.122 95.3333 414.789 95.84C415.482 96.32 416.282 96.56 417.189 96.56ZM446.487 95.2C446.487 95.4133 446.527 95.6 446.607 95.76C446.687 95.92 446.794 96.0667 446.927 96.2C447.061 96.3067 447.261 96.36 447.527 96.36V96.76H441.767V96.36C442.034 96.36 442.234 96.3067 442.367 96.2C442.501 96.0667 442.594 95.92 442.647 95.76C442.727 95.6 442.767 95.4133 442.767 95.2V81.52C442.767 81.0933 442.674 80.6667 442.487 80.24C442.327 79.8133 442.074 79.4267 441.727 79.08C441.407 78.7333 441.007 78.4533 440.527 78.24C440.047 78.0267 439.487 77.92 438.847 77.92C438.021 77.92 437.274 78.0933 436.607 78.44C435.967 78.7867 435.407 79.2133 434.927 79.72C434.474 80.2 434.127 80.72 433.887 81.28C433.647 81.84 433.527 82.3333 433.527 82.76V95.2C433.527 95.4133 433.567 95.6 433.647 95.76C433.701 95.92 433.794 96.0667 433.927 96.2C434.087 96.3067 434.287 96.36 434.527 96.36V96.76H428.767V96.36C429.034 96.36 429.234 96.3067 429.367 96.2C429.527 96.0667 429.634 95.92 429.687 95.76C429.767 95.6 429.807 95.4133 429.807 95.2V79.2C429.807 78.9867 429.767 78.8 429.687 78.64C429.634 78.5067 429.527 78.3867 429.367 78.28C429.234 78.1467 429.034 78.08 428.767 78.08V77.64H432.727C432.941 77.64 433.127 77.72 433.287 77.88C433.447 78.04 433.527 78.2267 433.527 78.44V80.64C434.087 79.52 434.887 78.6667 435.927 78.08C436.994 77.4667 438.154 77.1867 439.407 77.24C440.314 77.24 441.194 77.3733 442.047 77.64C442.901 77.9067 443.647 78.3067 444.287 78.84C444.954 79.3467 445.487 79.9867 445.887 80.76C446.287 81.5067 446.487 82.3867 446.487 83.4V95.2ZM488.142 77.64V78.08C487.529 78.0267 486.969 78.1867 486.462 78.56C485.956 78.9067 485.609 79.3867 485.422 80L479.022 97.2H478.702L474.062 85.12L468.942 97.2H468.622L461.182 79.2C460.969 78.7467 460.756 78.4533 460.542 78.32C460.329 78.16 460.062 78.08 459.742 78.08V77.64H466.142V78.08C465.716 78.08 465.422 78.1867 465.262 78.4C465.129 78.5867 465.116 78.8267 465.222 79.12L470.462 92L473.742 84.28L471.822 79.24C471.502 78.4667 471.036 78.08 470.422 78.08V77.64H477.062V78.08C476.556 78.08 476.196 78.1733 475.982 78.36C475.769 78.5467 475.742 78.84 475.902 79.24L480.422 91.64L484.702 80C484.889 79.52 484.836 79.08 484.542 78.68C484.276 78.28 483.769 78.08 483.022 78.08V77.64H488.142ZM492.251 75C491.558 75 490.958 74.76 490.451 74.28C489.971 73.7733 489.731 73.1733 489.731 72.48C489.731 71.7867 489.971 71.2 490.451 70.72C490.958 70.2133 491.558 69.96 492.251 69.96C492.971 69.96 493.571 70.2 494.051 70.68C494.425 71.0533 494.665 71.4933 494.771 72C494.878 72.48 494.825 72.96 494.611 73.44C494.398 73.92 494.078 74.3067 493.651 74.6C493.251 74.8667 492.785 75 492.251 75ZM494.291 95.2C494.291 95.4133 494.331 95.6 494.411 95.76C494.465 95.92 494.558 96.0667 494.691 96.2C494.851 96.3067 495.051 96.36 495.291 96.36V96.76H489.531V96.36C489.798 96.36 489.998 96.3067 490.131 96.2C490.291 96.0667 490.398 95.92 490.451 95.76C490.531 95.6 490.571 95.4133 490.571 95.2V79.2C490.571 78.9867 490.531 78.8 490.451 78.64C490.398 78.5067 490.291 78.3867 490.131 78.28C489.998 78.1467 489.798 78.08 489.531 78.08V77.64H493.491C493.705 77.64 493.891 77.72 494.051 77.88C494.211 78.04 494.291 78.2267 494.291 78.44V95.2ZM508.941 96.44C508.061 97 507.101 97.2533 506.061 97.2C504.567 97.2 503.421 96.9333 502.621 96.4C501.847 95.8667 501.274 95.28 500.901 94.64C500.474 93.92 500.234 93.08 500.181 92.12V78.28H497.341V77.64H500.181V73.52L503.901 71.72V77.64H508.821V78.28H503.901V92.96C503.901 93.1733 503.927 93.48 503.981 93.88C504.034 94.28 504.154 94.68 504.341 95.08C504.554 95.4533 504.847 95.7867 505.221 96.08C505.594 96.3733 506.101 96.52 506.741 96.52C507.061 96.52 507.381 96.48 507.701 96.4C508.021 96.32 508.314 96.1867 508.581 96L508.941 96.44ZM528.543 95.2C528.543 95.4133 528.583 95.6 528.663 95.76C528.743 95.92 528.849 96.0667 528.983 96.2C529.116 96.3067 529.316 96.36 529.583 96.36V96.76H523.823V96.36C524.089 96.36 524.289 96.3067 524.423 96.2C524.556 96.0667 524.649 95.92 524.703 95.76C524.783 95.6 524.823 95.4133 524.823 95.2V81.52C524.823 81.0933 524.729 80.6667 524.543 80.24C524.383 79.8133 524.129 79.4267 523.783 79.08C523.463 78.7333 523.063 78.4533 522.583 78.24C522.103 78.0267 521.543 77.92 520.903 77.92C520.076 77.92 519.329 78.0933 518.663 78.44C518.023 78.7867 517.463 79.2133 516.983 79.72C516.529 80.2 516.183 80.72 515.943 81.28C515.703 81.84 515.583 82.3333 515.583 82.76V95.2C515.583 95.4133 515.623 95.6 515.703 95.76C515.756 95.92 515.849 96.0667 515.983 96.2C516.143 96.3067 516.343 96.36 516.583 96.36V96.76H510.823V96.36C511.089 96.36 511.289 96.3067 511.423 96.2C511.583 96.0667 511.689 95.92 511.743 95.76C511.823 95.6 511.863 95.4133 511.863 95.2V70.28C511.863 70.0667 511.823 69.88 511.743 69.72C511.689 69.5867 511.583 69.4667 511.423 69.36C511.289 69.2267 511.089 69.16 510.823 69.16V68.72H514.783C514.996 68.72 515.183 68.8 515.343 68.96C515.503 69.12 515.583 69.3067 515.583 69.52V80.64C516.143 79.52 516.943 78.6667 517.983 78.08C519.049 77.4667 520.209 77.1867 521.463 77.24C522.369 77.24 523.249 77.3733 524.103 77.64C524.956 77.9067 525.703 78.3067 526.343 78.84C527.009 79.3467 527.543 79.9867 527.943 80.76C528.343 81.5067 528.543 82.3867 528.543 83.4V95.2ZM321.048 121.64V122.08C320.408 122.053 319.821 122.213 319.288 122.56C318.755 122.88 318.368 123.333 318.128 123.92C316.608 127.253 315.195 130.347 313.888 133.2C313.328 134.4 312.768 135.613 312.208 136.84C311.675 138.067 311.155 139.227 310.648 140.32C310.168 141.387 309.741 142.333 309.368 143.16C308.995 143.987 308.715 144.613 308.528 145.04C307.808 146.613 307.035 147.84 306.208 148.72C305.381 149.627 304.288 150.093 302.928 150.12L301.768 147.16C302.195 147.267 302.581 147.347 302.928 147.4C303.301 147.453 303.648 147.48 303.968 147.48C304.955 147.48 305.781 147.2 306.448 146.64C307.115 146.107 307.728 145.213 308.288 143.96C308.501 143.507 308.728 143.013 308.968 142.48C309.208 141.973 309.461 141.413 309.728 140.8L301.608 123.2C301.395 122.747 301.168 122.453 300.928 122.32C300.715 122.16 300.448 122.08 300.128 122.08V121.64H306.528V122.08C306.155 122.08 305.901 122.173 305.768 122.36C305.635 122.52 305.595 122.72 305.648 122.96L311.808 136.24L317.408 124C317.621 123.52 317.608 123.08 317.368 122.68C317.155 122.28 316.675 122.08 315.928 122.08V121.64H321.048ZM330.39 121.24C332.044 121.24 333.457 121.507 334.63 122.04C335.83 122.547 336.804 123.253 337.55 124.16C338.324 125.067 338.884 126.133 339.23 127.36C339.577 128.56 339.75 129.84 339.75 131.2C339.75 132.587 339.577 133.893 339.23 135.12C338.884 136.32 338.324 137.373 337.55 138.28C336.804 139.187 335.844 139.907 334.67 140.44C333.497 140.947 332.07 141.2 330.39 141.2C328.737 141.2 327.31 140.947 326.11 140.44C324.937 139.907 323.977 139.187 323.23 138.28C322.484 137.373 321.937 136.32 321.59 135.12C321.244 133.893 321.07 132.587 321.07 131.2C321.07 129.84 321.244 128.56 321.59 127.36C321.937 126.133 322.484 125.067 323.23 124.16C323.977 123.253 324.937 122.547 326.11 122.04C327.31 121.507 328.737 121.24 330.39 121.24ZM330.39 140.56C331.324 140.56 332.124 140.32 332.79 139.84C333.484 139.333 334.044 138.667 334.47 137.84C334.924 136.987 335.257 135.987 335.47 134.84C335.684 133.693 335.79 132.48 335.79 131.2C335.79 129.92 335.684 128.72 335.47 127.6C335.257 126.453 334.924 125.467 334.47 124.64C334.044 123.787 333.484 123.12 332.79 122.64C332.124 122.133 331.324 121.88 330.39 121.88C329.484 121.88 328.684 122.133 327.99 122.64C327.324 123.12 326.764 123.787 326.31 124.64C325.884 125.467 325.564 126.453 325.35 127.6C325.137 128.72 325.03 129.92 325.03 131.2C325.03 132.48 325.137 133.693 325.35 134.84C325.564 135.987 325.884 136.987 326.31 137.84C326.764 138.667 327.324 139.333 327.99 139.84C328.684 140.32 329.484 140.56 330.39 140.56ZM359.489 139.2C359.489 139.413 359.529 139.6 359.609 139.76C359.689 139.92 359.795 140.067 359.929 140.2C360.062 140.307 360.262 140.36 360.529 140.36V140.76H356.569C356.355 140.76 356.169 140.68 356.009 140.52C355.849 140.36 355.769 140.173 355.769 139.96V137.8C355.209 138.893 354.395 139.747 353.329 140.36C352.289 140.973 351.142 141.253 349.889 141.2C349.489 141.173 349.075 141.133 348.649 141.08C348.249 141.053 347.849 140.987 347.449 140.88C346.782 140.72 346.155 140.467 345.569 140.12C345.009 139.747 344.515 139.307 344.089 138.8C343.689 138.267 343.369 137.68 343.129 137.04C342.915 136.4 342.809 135.733 342.809 135.04V123.2C342.809 122.987 342.769 122.8 342.689 122.64C342.635 122.507 342.529 122.387 342.369 122.28C342.235 122.147 342.035 122.08 341.769 122.08V121.64H345.729C345.889 121.64 346.075 121.72 346.289 121.88C346.449 122.093 346.515 122.28 346.489 122.44V136.88C346.489 137.307 346.569 137.747 346.729 138.2C346.915 138.627 347.182 139.013 347.529 139.36C347.875 139.707 348.289 139.987 348.769 140.2C349.249 140.413 349.809 140.52 350.449 140.52C351.275 140.52 352.009 140.347 352.649 140C353.315 139.653 353.875 139.227 354.329 138.72C354.809 138.213 355.169 137.693 355.409 137.16C355.649 136.6 355.769 136.107 355.769 135.68V123.2C355.769 122.987 355.729 122.8 355.649 122.64C355.595 122.507 355.502 122.387 355.369 122.28C355.235 122.147 355.035 122.08 354.769 122.08V121.64H358.689C358.902 121.64 359.089 121.72 359.249 121.88C359.409 122.04 359.489 122.227 359.489 122.44V139.2ZM368.507 125.2C368.907 123.84 369.627 122.84 370.667 122.2C371.734 121.533 372.947 121.2 374.307 121.2C374.867 121.2 375.374 121.24 375.827 121.32C376.307 121.4 376.734 121.507 377.107 121.64C377.534 121.773 377.92 121.92 378.267 122.08L376.347 125.48C376.134 124.653 375.694 124 375.027 123.52C374.36 123.013 373.6 122.787 372.747 122.84C371.787 122.84 371.027 123.107 370.467 123.64C369.907 124.147 369.48 124.707 369.187 125.32C368.84 126.067 368.614 126.907 368.507 127.84V139.2C368.507 139.413 368.547 139.6 368.627 139.76C368.68 139.92 368.774 140.067 368.907 140.2C369.067 140.307 369.267 140.36 369.507 140.36V140.76H363.747V140.36C364.014 140.36 364.214 140.307 364.347 140.2C364.507 140.067 364.614 139.92 364.667 139.76C364.747 139.6 364.787 139.413 364.787 139.2V123.2C364.787 122.987 364.747 122.8 364.667 122.64C364.614 122.507 364.507 122.387 364.347 122.28C364.214 122.147 364.014 122.08 363.747 122.08V121.64H367.707C367.92 121.64 368.107 121.72 368.267 121.88C368.427 122.04 368.507 122.227 368.507 122.44V125.2ZM399.418 112.96C398.858 112.96 398.378 113.067 397.978 113.28C397.578 113.493 397.244 113.773 396.978 114.12C396.738 114.467 396.551 114.867 396.418 115.32C396.284 115.747 396.218 116.173 396.218 116.6V121.64H401.738V122.28H396.218V139.2C396.218 139.413 396.258 139.6 396.338 139.76C396.391 139.92 396.484 140.067 396.618 140.2C396.778 140.307 396.978 140.36 397.218 140.36V140.76H391.458V140.36C391.724 140.36 391.924 140.307 392.058 140.2C392.218 140.067 392.324 139.92 392.378 139.76C392.458 139.6 392.498 139.413 392.498 139.2V122.28H389.858V121.64H392.498V119.08C392.498 118.973 392.498 118.747 392.498 118.4C392.524 118.027 392.591 117.587 392.698 117.08C392.831 116.573 393.018 116.04 393.258 115.48C393.524 114.92 393.898 114.413 394.378 113.96C394.858 113.48 395.458 113.093 396.178 112.8C396.924 112.48 397.831 112.32 398.898 112.32C399.938 112.32 400.831 112.453 401.578 112.72C402.324 112.987 402.938 113.293 403.418 113.64C403.924 113.96 404.311 114.28 404.578 114.6C404.844 114.92 405.031 115.147 405.138 115.28L402.618 117.4C402.618 116.973 402.578 116.507 402.498 116C402.418 115.493 402.258 115.013 402.018 114.56C401.804 114.107 401.484 113.733 401.058 113.44C400.658 113.12 400.111 112.96 399.418 112.96ZM422.656 139.2C422.656 139.413 422.696 139.6 422.776 139.76C422.856 139.92 422.963 140.067 423.096 140.2C423.229 140.307 423.429 140.36 423.696 140.36V140.76H419.736C419.523 140.76 419.336 140.68 419.176 140.52C419.016 140.36 418.936 140.173 418.936 139.96V137.8C418.376 138.893 417.563 139.747 416.496 140.36C415.456 140.973 414.309 141.253 413.056 141.2C412.656 141.173 412.243 141.133 411.816 141.08C411.416 141.053 411.016 140.987 410.616 140.88C409.949 140.72 409.323 140.467 408.736 140.12C408.176 139.747 407.683 139.307 407.256 138.8C406.856 138.267 406.536 137.68 406.296 137.04C406.083 136.4 405.976 135.733 405.976 135.04V123.2C405.976 122.987 405.936 122.8 405.856 122.64C405.803 122.507 405.696 122.387 405.536 122.28C405.403 122.147 405.203 122.08 404.936 122.08V121.64H408.896C409.056 121.64 409.243 121.72 409.456 121.88C409.616 122.093 409.683 122.28 409.656 122.44V136.88C409.656 137.307 409.736 137.747 409.896 138.2C410.083 138.627 410.349 139.013 410.696 139.36C411.043 139.707 411.456 139.987 411.936 140.2C412.416 140.413 412.976 140.52 413.616 140.52C414.443 140.52 415.176 140.347 415.816 140C416.483 139.653 417.043 139.227 417.496 138.72C417.976 138.213 418.336 137.693 418.576 137.16C418.816 136.6 418.936 136.107 418.936 135.68V123.2C418.936 122.987 418.896 122.8 418.816 122.64C418.763 122.507 418.669 122.387 418.536 122.28C418.403 122.147 418.203 122.08 417.936 122.08V121.64H421.856C422.069 121.64 422.256 121.72 422.416 121.88C422.576 122.04 422.656 122.227 422.656 122.44V139.2ZM437.514 140.44C436.634 141 435.674 141.253 434.634 141.2C433.141 141.2 431.994 140.933 431.194 140.4C430.421 139.867 429.847 139.28 429.474 138.64C429.047 137.92 428.807 137.08 428.754 136.12V122.28H425.914V121.64H428.754V117.52L432.474 115.72V121.64H437.394V122.28H432.474V136.96C432.474 137.173 432.501 137.48 432.554 137.88C432.607 138.28 432.727 138.68 432.914 139.08C433.127 139.453 433.421 139.787 433.794 140.08C434.167 140.373 434.674 140.52 435.314 140.52C435.634 140.52 435.954 140.48 436.274 140.4C436.594 140.32 436.887 140.187 437.154 140L437.514 140.44ZM456.876 139.2C456.876 139.413 456.916 139.6 456.996 139.76C457.076 139.92 457.183 140.067 457.316 140.2C457.45 140.307 457.65 140.36 457.916 140.36V140.76H453.956C453.743 140.76 453.556 140.68 453.396 140.52C453.236 140.36 453.156 140.173 453.156 139.96V137.8C452.596 138.893 451.783 139.747 450.716 140.36C449.676 140.973 448.53 141.253 447.276 141.2C446.876 141.173 446.463 141.133 446.036 141.08C445.636 141.053 445.236 140.987 444.836 140.88C444.17 140.72 443.543 140.467 442.956 140.12C442.396 139.747 441.903 139.307 441.476 138.8C441.076 138.267 440.756 137.68 440.516 137.04C440.303 136.4 440.196 135.733 440.196 135.04V123.2C440.196 122.987 440.156 122.8 440.076 122.64C440.023 122.507 439.916 122.387 439.756 122.28C439.623 122.147 439.423 122.08 439.156 122.08V121.64H443.116C443.276 121.64 443.463 121.72 443.676 121.88C443.836 122.093 443.903 122.28 443.876 122.44V136.88C443.876 137.307 443.956 137.747 444.116 138.2C444.303 138.627 444.57 139.013 444.916 139.36C445.263 139.707 445.676 139.987 446.156 140.2C446.636 140.413 447.196 140.52 447.836 140.52C448.663 140.52 449.396 140.347 450.036 140C450.703 139.653 451.263 139.227 451.716 138.72C452.196 138.213 452.556 137.693 452.796 137.16C453.036 136.6 453.156 136.107 453.156 135.68V123.2C453.156 122.987 453.116 122.8 453.036 122.64C452.983 122.507 452.89 122.387 452.756 122.28C452.623 122.147 452.423 122.08 452.156 122.08V121.64H456.076C456.29 121.64 456.476 121.72 456.636 121.88C456.796 122.04 456.876 122.227 456.876 122.44V139.2ZM465.894 125.2C466.294 123.84 467.014 122.84 468.054 122.2C469.121 121.533 470.334 121.2 471.694 121.2C472.254 121.2 472.761 121.24 473.214 121.32C473.694 121.4 474.121 121.507 474.494 121.64C474.921 121.773 475.308 121.92 475.654 122.08L473.734 125.48C473.521 124.653 473.081 124 472.414 123.52C471.748 123.013 470.988 122.787 470.134 122.84C469.174 122.84 468.414 123.107 467.854 123.64C467.294 124.147 466.868 124.707 466.574 125.32C466.228 126.067 466.001 126.907 465.894 127.84V139.2C465.894 139.413 465.934 139.6 466.014 139.76C466.068 139.92 466.161 140.067 466.294 140.2C466.454 140.307 466.654 140.36 466.894 140.36V140.76H461.134V140.36C461.401 140.36 461.601 140.307 461.734 140.2C461.894 140.067 462.001 139.92 462.054 139.76C462.134 139.6 462.174 139.413 462.174 139.2V123.2C462.174 122.987 462.134 122.8 462.054 122.64C462.001 122.507 461.894 122.387 461.734 122.28C461.601 122.147 461.401 122.08 461.134 122.08V121.64H465.094C465.308 121.64 465.494 121.72 465.654 121.88C465.814 122.04 465.894 122.227 465.894 122.44V125.2ZM487.413 140.36C488.773 140.253 489.986 139.813 491.053 139.04C492.146 138.24 492.933 137.213 493.413 135.96L494.053 136.12C493.706 137.08 493.173 137.92 492.453 138.64C491.84 139.28 490.973 139.867 489.853 140.4C488.76 140.933 487.333 141.2 485.573 141.2C483.92 141.2 482.493 140.947 481.293 140.44C480.12 139.907 479.16 139.187 478.413 138.28C477.666 137.373 477.12 136.32 476.773 135.12C476.426 133.893 476.253 132.587 476.253 131.2C476.253 129.84 476.426 128.56 476.773 127.36C477.12 126.133 477.666 125.067 478.413 124.16C479.16 123.253 480.12 122.547 481.293 122.04C482.493 121.507 483.92 121.24 485.573 121.24C487.653 121.24 489.306 121.613 490.533 122.36C491.786 123.08 492.733 123.947 493.373 124.96C494.013 125.973 494.426 127.027 494.613 128.12C494.826 129.213 494.933 130.107 494.933 130.8H480.213V131.2C480.213 132.48 480.346 133.707 480.613 134.88C480.906 136.027 481.333 137.027 481.893 137.88C482.48 138.733 483.226 139.387 484.133 139.84C485.04 140.293 486.133 140.467 487.413 140.36ZM485.573 121.88C484.746 121.88 484.013 122.093 483.373 122.52C482.733 122.947 482.186 123.533 481.733 124.28C481.28 125.027 480.92 125.907 480.653 126.92C480.413 127.907 480.266 128.987 480.213 130.16H490.933V130.12C490.746 127.293 490.186 125.213 489.253 123.88C488.32 122.547 487.093 121.88 485.573 121.88ZM517.819 129.96C518.859 130.307 519.752 130.667 520.499 131.04C521.246 131.413 521.859 131.84 522.339 132.32C522.819 132.773 523.166 133.293 523.379 133.88C523.592 134.467 523.699 135.147 523.699 135.92C523.699 136.853 523.472 137.653 523.019 138.32C522.592 138.987 522.019 139.533 521.299 139.96C520.579 140.387 519.752 140.707 518.819 140.92C517.912 141.107 516.992 141.2 516.059 141.2C514.512 141.253 513.032 140.973 511.619 140.36C510.206 139.747 508.979 138.867 507.939 137.72L510.059 135.48C510.139 136.227 510.352 136.92 510.699 137.56C511.046 138.173 511.486 138.707 512.019 139.16C512.552 139.613 513.166 139.973 513.859 140.24C514.552 140.48 515.272 140.587 516.019 140.56C517.432 140.56 518.606 140.32 519.539 139.84C520.472 139.333 520.939 138.493 520.939 137.32C520.939 136.733 520.766 136.213 520.419 135.76C520.072 135.307 519.619 134.907 519.059 134.56C518.499 134.187 517.846 133.867 517.099 133.6C516.352 133.307 515.579 133.027 514.779 132.76C513.712 132.413 512.779 132.067 511.979 131.72C511.206 131.373 510.552 130.987 510.019 130.56C509.512 130.107 509.126 129.587 508.859 129C508.592 128.387 508.459 127.667 508.459 126.84C508.459 125.88 508.659 125.053 509.059 124.36C509.459 123.64 509.992 123.053 510.659 122.6C511.352 122.12 512.139 121.773 513.019 121.56C513.926 121.347 514.859 121.24 515.819 121.24C517.259 121.187 518.632 121.44 519.939 122C521.272 122.533 522.419 123.333 523.379 124.4L521.459 126.44C521.459 126.227 521.392 125.88 521.259 125.4C521.152 124.893 520.899 124.387 520.499 123.88C520.126 123.347 519.566 122.88 518.819 122.48C518.072 122.08 517.059 121.88 515.779 121.88C515.299 121.88 514.779 121.933 514.219 122.04C513.686 122.147 513.179 122.32 512.699 122.56C512.246 122.8 511.859 123.133 511.539 123.56C511.246 123.96 511.099 124.467 511.099 125.08C511.099 125.827 511.326 126.467 511.779 127C512.259 127.507 512.832 127.947 513.499 128.32C514.192 128.693 514.926 129.013 515.699 129.28C516.472 129.52 517.179 129.747 517.819 129.96ZM536.654 140.36C538.014 140.253 539.227 139.813 540.294 139.04C541.387 138.24 542.174 137.213 542.654 135.96L543.294 136.12C542.947 137.08 542.414 137.92 541.694 138.64C541.08 139.28 540.214 139.867 539.094 140.4C538 140.933 536.574 141.2 534.814 141.2C533.16 141.2 531.734 140.947 530.534 140.44C529.36 139.907 528.4 139.187 527.654 138.28C526.907 137.373 526.36 136.32 526.014 135.12C525.667 133.893 525.494 132.587 525.494 131.2C525.494 129.84 525.667 128.56 526.014 127.36C526.36 126.133 526.907 125.067 527.654 124.16C528.4 123.253 529.36 122.547 530.534 122.04C531.734 121.507 533.16 121.24 534.814 121.24C536.894 121.24 538.547 121.613 539.774 122.36C541.027 123.08 541.974 123.947 542.614 124.96C543.254 125.973 543.667 127.027 543.854 128.12C544.067 129.213 544.174 130.107 544.174 130.8H529.454V131.2C529.454 132.48 529.587 133.707 529.854 134.88C530.147 136.027 530.574 137.027 531.134 137.88C531.72 138.733 532.467 139.387 533.374 139.84C534.28 140.293 535.374 140.467 536.654 140.36ZM534.814 121.88C533.987 121.88 533.254 122.093 532.614 122.52C531.974 122.947 531.427 123.533 530.974 124.28C530.52 125.027 530.16 125.907 529.894 126.92C529.654 127.907 529.507 128.987 529.454 130.16H540.174V130.12C539.987 127.293 539.427 125.213 538.494 123.88C537.56 122.547 536.334 121.88 534.814 121.88ZM551.152 139.2C551.152 139.413 551.192 139.6 551.272 139.76C551.326 139.92 551.419 140.067 551.552 140.2C551.712 140.307 551.912 140.36 552.152 140.36V140.76H546.392V140.36C546.659 140.36 546.859 140.307 546.992 140.2C547.152 140.067 547.259 139.92 547.312 139.76C547.392 139.6 547.432 139.413 547.432 139.2V114.28C547.432 114.067 547.392 113.88 547.312 113.72C547.259 113.587 547.152 113.467 546.992 113.36C546.859 113.227 546.659 113.16 546.392 113.16V112.76H550.352C550.539 112.76 550.726 112.827 550.912 112.96C551.072 113.173 551.152 113.36 551.152 113.52V139.2ZM563.957 112.96C563.397 112.96 562.917 113.067 562.517 113.28C562.117 113.493 561.784 113.773 561.517 114.12C561.277 114.467 561.09 114.867 560.957 115.32C560.824 115.747 560.757 116.173 560.757 116.6V121.64H566.277V122.28H560.757V139.2C560.757 139.413 560.797 139.6 560.877 139.76C560.93 139.92 561.024 140.067 561.157 140.2C561.317 140.307 561.517 140.36 561.757 140.36V140.76H555.997V140.36C556.264 140.36 556.464 140.307 556.597 140.2C556.757 140.067 556.864 139.92 556.917 139.76C556.997 139.6 557.037 139.413 557.037 139.2V122.28H554.397V121.64H557.037V119.08C557.037 118.973 557.037 118.747 557.037 118.4C557.064 118.027 557.13 117.587 557.237 117.08C557.37 116.573 557.557 116.04 557.797 115.48C558.064 114.92 558.437 114.413 558.917 113.96C559.397 113.48 559.997 113.093 560.717 112.8C561.464 112.48 562.37 112.32 563.437 112.32C564.477 112.32 565.37 112.453 566.117 112.72C566.864 112.987 567.477 113.293 567.957 113.64C568.464 113.96 568.85 114.28 569.117 114.6C569.384 114.92 569.57 115.147 569.677 115.28L567.157 117.4C567.157 116.973 567.117 116.507 567.037 116C566.957 115.493 566.797 115.013 566.557 114.56C566.344 114.107 566.024 113.733 565.597 113.44C565.197 113.12 564.65 112.96 563.957 112.96ZM573.437 136.52C574.077 136.547 574.623 136.787 575.077 137.24C575.53 137.693 575.757 138.24 575.757 138.88C575.757 139.52 575.53 140.067 575.077 140.52C574.65 140.973 574.117 141.2 573.477 141.2C572.81 141.2 572.25 140.973 571.797 140.52C571.45 140.173 571.223 139.773 571.117 139.32C571.037 138.867 571.09 138.413 571.277 137.96C571.49 137.533 571.783 137.187 572.157 136.92C572.557 136.653 572.983 136.52 573.437 136.52Z" fill="#F9DDFF"/>
<g clip-path="url(#clip0_1592_6343)">
<path d="M14.6872 2.20682C13.4186 3.21844 10.5996 5.09716 8.48538 7.9875C7.92158 8.71008 7.21683 10.1553 6.23018 12.612C5.38448 14.9243 4.96164 16.9475 4.82069 18.5372C8.06253 16.3695 11.4453 16.9475 13.8415 18.6817C15.9557 20.2714 17.5061 22.5837 17.5061 25.9076C17.5061 30.6766 13.5596 34.0005 9.19012 34.0005C4.53879 34.0005 1.57885 31.5437 0.310301 26.6302C-0.535397 22.8727 0.310301 14.3462 3.41119 9.43267C6.23018 4.37458 10.4587 1.33972 13.7005 0.183589C15.8148 -0.538996 16.2376 1.05069 14.6872 2.20682ZM35.1812 2.20682C33.9127 3.21844 31.0937 5.09716 28.9794 7.9875C28.4156 8.71008 27.7109 10.1553 26.7242 12.612C25.8786 14.9243 25.4557 16.9475 25.3148 18.5372C28.5566 16.3695 31.9394 16.9475 34.3355 18.6817C36.4498 20.2714 38.0002 22.5837 38.0002 25.9076C38.0002 30.6766 34.0536 34.0005 29.6842 34.0005C25.0329 34.0005 22.0729 31.5437 20.8044 26.6302C19.9587 22.8727 20.8044 14.3462 23.9053 9.43267C26.7242 4.37458 30.9527 1.33972 34.1946 0.183589C36.3088 -0.538996 36.7317 1.05069 35.1812 2.20682Z" fill="#F9DDFF"/>
</g>
<g clip-path="url(#clip1_1592_6343)">
<path d="M601.313 121.793C602.581 120.782 605.4 118.903 607.515 116.013C608.078 115.29 608.783 113.845 609.77 111.388C610.616 109.076 611.038 107.052 611.179 105.463C607.937 107.631 604.555 107.052 602.159 105.318C600.044 103.729 598.494 101.416 598.494 98.0924C598.494 93.3234 602.44 89.9995 606.81 89.9995C611.461 89.9995 614.421 92.4563 615.69 97.3698C616.535 101.127 615.69 109.654 612.589 114.567C609.77 119.625 605.541 122.66 602.299 123.816C600.185 124.539 599.762 122.949 601.313 121.793ZM580.819 121.793C582.087 120.782 584.906 118.903 587.021 116.013C587.584 115.29 588.289 113.845 589.276 111.388C590.121 109.076 590.544 107.052 590.685 105.463C587.443 107.631 584.061 107.052 581.664 105.318C579.55 103.729 578 101.416 578 98.0924C578 93.3234 581.946 89.9995 586.316 89.9995C590.967 89.9995 593.927 92.4563 595.196 97.3698C596.041 101.127 595.196 109.654 592.095 114.567C589.276 119.625 585.047 122.66 581.805 123.816C579.691 124.539 579.268 122.949 580.819 121.793Z" fill="#F9DDFF"/>
</g>
</g>
<defs>
<clipPath id="clip0_1592_6343">
<rect width="38" height="34" fill="white"/>
</clipPath>
<clipPath id="clip1_1592_6343">
<rect width="38" height="34" fill="white" transform="translate(616 124) rotate(180)"/>
</clipPath>
</defs>
</svg>
