<svg width="302" height="231" viewBox="0 0 302 231" fill="none" xmlns="http://www.w3.org/2000/svg">
<rect width="301" height="231" fill="#C08E54"/>
<path opacity="0.45" d="M283.313 190.552C284.582 189.516 287.401 187.593 289.515 184.634C290.079 183.894 290.784 182.414 291.77 179.899C292.616 177.531 293.039 175.46 293.18 173.832C289.938 176.052 286.555 175.46 284.159 173.684C282.045 172.057 280.494 169.689 280.494 166.286C280.494 161.403 284.441 158 288.81 158C293.462 158 296.422 160.516 297.69 165.546C298.536 169.393 297.69 178.123 294.589 183.154C291.77 188.333 287.542 191.44 284.3 192.624C282.186 193.363 281.763 191.736 283.313 190.552ZM262.819 190.552C264.088 189.516 266.907 187.593 269.021 184.634C269.585 183.894 270.29 182.414 271.276 179.899C272.122 177.531 272.545 175.46 272.686 173.832C269.444 176.052 266.061 175.46 263.665 173.684C261.551 172.057 260 169.689 260 166.286C260 161.403 263.947 158 268.316 158C272.968 158 275.928 160.516 277.196 165.546C278.042 169.393 277.196 178.123 274.095 183.154C271.276 188.333 267.048 191.44 263.806 192.624C261.692 193.363 261.269 191.736 262.819 190.552Z" fill="#F9DDFF"/>
<path opacity="0.45" d="M95.4566 25.72C98.0166 25.72 100.203 26.1067 102.017 26.88C103.83 27.6533 105.323 28.6933 106.497 30C107.67 31.3067 108.523 32.8133 109.057 34.52C109.617 36.2 109.897 37.9467 109.897 39.76C109.897 41.5733 109.617 43.3333 109.057 45.04C108.523 46.72 107.67 48.2133 106.497 49.52C105.323 50.8 103.83 51.8267 102.017 52.6C100.203 53.3733 98.0166 53.76 95.4566 53.76H84.3766V53.36C84.6432 53.36 84.8432 53.3067 84.9766 53.2C85.1366 53.0667 85.2432 52.92 85.2966 52.76C85.3766 52.6 85.4166 52.4133 85.4166 52.2V27.28C85.4166 27.0667 85.3766 26.88 85.2966 26.72C85.2432 26.5867 85.1366 26.4667 84.9766 26.36C84.8432 26.2267 84.6432 26.16 84.3766 26.16V25.72H95.4566ZM94.8566 53.12C96.3499 53.12 97.7632 52.84 99.0966 52.28C100.43 51.6933 101.603 50.84 102.617 49.72C103.63 48.6 104.43 47.2133 105.017 45.56C105.63 43.88 105.937 41.9467 105.937 39.76C105.937 37.5733 105.63 35.6533 105.017 34C104.43 32.32 103.63 30.92 102.617 29.8C101.603 28.6533 100.43 27.8 99.0966 27.24C97.7632 26.6533 96.3499 26.36 94.8566 26.36H89.0966L89.1366 53.12H94.8566ZM120.807 34.24C122.461 34.24 123.874 34.5067 125.047 35.04C126.247 35.5467 127.221 36.2533 127.967 37.16C128.741 38.0667 129.301 39.1333 129.647 40.36C129.994 41.56 130.167 42.84 130.167 44.2C130.167 45.5867 129.994 46.8933 129.647 48.12C129.301 49.32 128.741 50.3733 127.967 51.28C127.221 52.1867 126.261 52.9067 125.087 53.44C123.914 53.9467 122.487 54.2 120.807 54.2C119.154 54.2 117.727 53.9467 116.527 53.44C115.354 52.9067 114.394 52.1867 113.647 51.28C112.901 50.3733 112.354 49.32 112.007 48.12C111.661 46.8933 111.487 45.5867 111.487 44.2C111.487 42.84 111.661 41.56 112.007 40.36C112.354 39.1333 112.901 38.0667 113.647 37.16C114.394 36.2533 115.354 35.5467 116.527 35.04C117.727 34.5067 119.154 34.24 120.807 34.24ZM120.807 53.56C121.741 53.56 122.541 53.32 123.207 52.84C123.901 52.3333 124.461 51.6667 124.887 50.84C125.341 49.9867 125.674 48.9867 125.887 47.84C126.101 46.6933 126.207 45.48 126.207 44.2C126.207 42.92 126.101 41.72 125.887 40.6C125.674 39.4533 125.341 38.4667 124.887 37.64C124.461 36.7867 123.901 36.12 123.207 35.64C122.541 35.1333 121.741 34.88 120.807 34.88C119.901 34.88 119.101 35.1333 118.407 35.64C117.741 36.12 117.181 36.7867 116.727 37.64C116.301 38.4667 115.981 39.4533 115.767 40.6C115.554 41.72 115.447 42.92 115.447 44.2C115.447 45.48 115.554 46.6933 115.767 47.84C115.981 48.9867 116.301 49.9867 116.727 50.84C117.181 51.6667 117.741 52.3333 118.407 52.84C119.101 53.32 119.901 53.56 120.807 53.56ZM150.106 52.2C150.106 52.4133 150.146 52.6 150.226 52.76C150.306 52.92 150.413 53.0667 150.546 53.2C150.679 53.3067 150.879 53.36 151.146 53.36V53.76H145.386V53.36C145.653 53.36 145.853 53.3067 145.986 53.2C146.119 53.0667 146.213 52.92 146.266 52.76C146.346 52.6 146.386 52.4133 146.386 52.2V38.52C146.386 38.0933 146.293 37.6667 146.106 37.24C145.946 36.8133 145.693 36.4267 145.346 36.08C145.026 35.7333 144.626 35.4533 144.146 35.24C143.666 35.0267 143.106 34.92 142.466 34.92C141.639 34.92 140.893 35.0933 140.226 35.44C139.586 35.7867 139.026 36.2133 138.546 36.72C138.093 37.2 137.746 37.72 137.506 38.28C137.266 38.84 137.146 39.3333 137.146 39.76V52.2C137.146 52.4133 137.186 52.6 137.266 52.76C137.319 52.92 137.413 53.0667 137.546 53.2C137.706 53.3067 137.906 53.36 138.146 53.36V53.76H132.386V53.36C132.653 53.36 132.853 53.3067 132.986 53.2C133.146 53.0667 133.253 52.92 133.306 52.76C133.386 52.6 133.426 52.4133 133.426 52.2V36.2C133.426 35.9867 133.386 35.8 133.306 35.64C133.253 35.5067 133.146 35.3867 132.986 35.28C132.853 35.1467 132.653 35.08 132.386 35.08V34.64H136.346C136.559 34.64 136.746 34.72 136.906 34.88C137.066 35.04 137.146 35.2267 137.146 35.44V37.64C137.706 36.52 138.506 35.6667 139.546 35.08C140.613 34.4667 141.773 34.1867 143.026 34.24C143.933 34.24 144.813 34.3733 145.666 34.64C146.519 34.9067 147.266 35.3067 147.906 35.84C148.573 36.3467 149.106 36.9867 149.506 37.76C149.906 38.5067 150.106 39.3867 150.106 40.4V52.2ZM158.684 25.88C158.444 26.8133 158.137 27.8267 157.764 28.92C157.391 30.0133 156.977 31.1067 156.524 32.2C156.097 33.2667 155.671 34.28 155.244 35.24H152.644C152.831 34.4933 153.017 33.6933 153.204 32.84C153.417 31.9867 153.604 31.1333 153.764 30.28C153.951 29.4 154.111 28.5467 154.244 27.72C154.404 26.8933 154.537 26.1333 154.644 25.44H158.404L158.684 25.88ZM170.956 53.44C170.076 54 169.116 54.2533 168.076 54.2C166.583 54.2 165.436 53.9333 164.636 53.4C163.863 52.8667 163.29 52.28 162.916 51.64C162.49 50.92 162.25 50.08 162.196 49.12V35.28H159.356V34.64H162.196V30.52L165.916 28.72V34.64H170.836V35.28H165.916V49.96C165.916 50.1733 165.943 50.48 165.996 50.88C166.05 51.28 166.17 51.68 166.356 52.08C166.57 52.4533 166.863 52.7867 167.236 53.08C167.61 53.3733 168.116 53.52 168.756 53.52C169.076 53.52 169.396 53.48 169.716 53.4C170.036 53.32 170.33 53.1867 170.596 53L170.956 53.44ZM199.475 52.2C199.475 52.4133 199.515 52.6 199.595 52.76C199.675 52.92 199.782 53.0667 199.915 53.2C200.049 53.3067 200.249 53.36 200.515 53.36V53.76H196.555C196.342 53.76 196.155 53.68 195.995 53.52C195.835 53.36 195.755 53.1733 195.755 52.96V50.2C195.462 51 195.089 51.6533 194.635 52.16C194.209 52.6667 193.742 53.08 193.235 53.4C192.755 53.6933 192.249 53.8933 191.715 54C191.182 54.1333 190.675 54.2 190.195 54.2C190.115 54.2 189.889 54.2 189.515 54.2C189.142 54.2 188.689 54.1733 188.155 54.12C187.649 54.0667 187.102 53.96 186.515 53.8C185.929 53.6133 185.382 53.3467 184.875 53C184.395 52.6533 183.995 52.2 183.675 51.64C183.355 51.08 183.195 50.3733 183.195 49.52C183.195 48.6667 183.369 47.9333 183.715 47.32C184.089 46.68 184.622 46.0933 185.315 45.56C186.035 45 186.915 44.4667 187.955 43.96C189.022 43.4267 190.262 42.8533 191.675 42.24C193.115 41.6267 194.155 41.1067 194.795 40.68C195.435 40.2533 195.755 39.6667 195.755 38.92V38.52C195.755 38.0933 195.662 37.6667 195.475 37.24C195.315 36.7867 195.049 36.3867 194.675 36.04C194.329 35.6933 193.889 35.4133 193.355 35.2C192.849 34.9867 192.249 34.88 191.555 34.88C190.755 34.88 190.062 35.0267 189.475 35.32C188.889 35.5867 188.395 35.96 187.995 36.44C187.622 36.8933 187.342 37.4267 187.155 38.04C186.995 38.6533 186.915 39.2933 186.915 39.96L183.915 38.92C184.049 38.52 184.289 38.0533 184.635 37.52C185.009 36.9867 185.515 36.48 186.155 36C186.795 35.4933 187.595 35.08 188.555 34.76C189.542 34.4133 190.729 34.24 192.115 34.24C193.475 34.24 194.622 34.4267 195.555 34.8C196.489 35.1733 197.249 35.6667 197.835 36.28C198.422 36.8667 198.835 37.52 199.075 38.24C199.342 38.9333 199.475 39.6267 199.475 40.32V52.2ZM195.755 40.64C195.462 40.9333 195.022 41.24 194.435 41.56C193.875 41.8533 193.102 42.24 192.115 42.72C191.022 43.2533 190.142 43.8533 189.475 44.52C188.835 45.1867 188.342 45.8533 187.995 46.52C187.649 47.16 187.422 47.7733 187.315 48.36C187.209 48.92 187.155 49.3733 187.155 49.72C187.155 50.04 187.195 50.4267 187.275 50.88C187.355 51.3067 187.515 51.72 187.755 52.12C188.022 52.52 188.382 52.8667 188.835 53.16C189.289 53.4267 189.889 53.56 190.635 53.56C191.649 53.56 192.489 53.32 193.155 52.84C193.822 52.3333 194.342 51.76 194.715 51.12C195.089 50.4533 195.355 49.8133 195.515 49.2C195.675 48.56 195.755 48.1067 195.755 47.84V40.64ZM206.028 32C205.334 32 204.734 31.76 204.228 31.28C203.748 30.7733 203.508 30.1733 203.508 29.48C203.508 28.7867 203.748 28.2 204.228 27.72C204.734 27.2133 205.334 26.96 206.028 26.96C206.748 26.96 207.348 27.2 207.828 27.68C208.201 28.0533 208.441 28.4933 208.548 29C208.654 29.48 208.601 29.96 208.388 30.44C208.174 30.92 207.854 31.3067 207.428 31.6C207.028 31.8667 206.561 32 206.028 32ZM208.068 52.2C208.068 52.4133 208.108 52.6 208.188 52.76C208.241 52.92 208.334 53.0667 208.468 53.2C208.628 53.3067 208.828 53.36 209.068 53.36V53.76H203.308V53.36C203.574 53.36 203.774 53.3067 203.908 53.2C204.068 53.0667 204.174 52.92 204.228 52.76C204.308 52.6 204.348 52.4133 204.348 52.2V36.2C204.348 35.9867 204.308 35.8 204.228 35.64C204.174 35.5067 204.068 35.3867 203.908 35.28C203.774 35.1467 203.574 35.08 203.308 35.08V34.64H207.268C207.481 34.64 207.668 34.72 207.828 34.88C207.988 35.04 208.068 35.2267 208.068 35.44V52.2ZM238.277 52.2C238.277 52.4133 238.317 52.6 238.397 52.76C238.477 52.92 238.584 53.0667 238.717 53.2C238.851 53.3067 239.051 53.36 239.317 53.36V53.76H233.557V53.36C233.824 53.36 234.024 53.3067 234.157 53.2C234.291 53.0667 234.384 52.92 234.437 52.76C234.517 52.6 234.557 52.4133 234.557 52.2V38.48C234.557 38.2667 234.531 37.96 234.477 37.56C234.424 37.16 234.291 36.7733 234.077 36.4C233.891 36 233.611 35.6533 233.237 35.36C232.864 35.0667 232.357 34.92 231.717 34.92C230.971 34.92 230.331 35.0933 229.797 35.44C229.264 35.7867 228.824 36.2133 228.477 36.72C228.157 37.2 227.917 37.72 227.757 38.28C227.624 38.84 227.557 39.3333 227.557 39.76V52.2C227.557 52.4133 227.597 52.6 227.677 52.76C227.757 52.92 227.864 53.0667 227.997 53.2C228.131 53.3067 228.331 53.36 228.597 53.36V53.76H222.837V53.36C223.104 53.36 223.304 53.3067 223.437 53.2C223.597 53.0667 223.704 52.92 223.757 52.76C223.837 52.6 223.877 52.4133 223.877 52.2V38.48C223.877 38.2667 223.864 37.96 223.837 37.56C223.811 37.16 223.717 36.7733 223.557 36.4C223.397 36 223.144 35.6533 222.797 35.36C222.451 35.0667 221.957 34.92 221.317 34.92C220.571 34.92 219.917 35.1467 219.357 35.6C218.797 36.0267 218.331 36.5467 217.957 37.16C217.611 37.7467 217.344 38.36 217.157 39C216.971 39.64 216.877 40.1733 216.877 40.6V52.2C216.877 52.4133 216.917 52.6 216.997 52.76C217.051 52.92 217.144 53.0667 217.277 53.2C217.437 53.3067 217.637 53.36 217.877 53.36V53.76H212.117V53.36C212.384 53.36 212.584 53.3067 212.717 53.2C212.877 53.0667 212.984 52.92 213.037 52.76C213.117 52.6 213.157 52.4133 213.157 52.2V36.2C213.157 35.9867 213.117 35.8 213.037 35.64C212.984 35.5067 212.877 35.3867 212.717 35.28C212.584 35.1467 212.384 35.08 212.117 35.08V34.64H216.077C216.291 34.64 216.477 34.72 216.637 34.88C216.797 35.04 216.877 35.2267 216.877 35.44V37.92C217.064 37.4667 217.291 37.0267 217.557 36.6C217.851 36.1733 218.197 35.7867 218.597 35.44C219.024 35.0667 219.517 34.7733 220.077 34.56C220.637 34.3467 221.277 34.24 221.997 34.24C222.904 34.24 223.664 34.3467 224.277 34.56C224.917 34.7733 225.451 35.0533 225.877 35.4C226.304 35.72 226.624 36.08 226.837 36.48C227.077 36.88 227.251 37.2667 227.357 37.64C227.491 37.24 227.677 36.84 227.917 36.44C228.184 36.04 228.517 35.68 228.917 35.36C229.317 35.0133 229.797 34.7467 230.357 34.56C230.944 34.3467 231.624 34.24 232.397 34.24C233.144 34.24 233.797 34.32 234.357 34.48C234.917 34.6133 235.397 34.8 235.797 35.04C236.224 35.28 236.571 35.5467 236.837 35.84C237.131 36.1333 237.371 36.44 237.557 36.76C237.984 37.5067 238.224 38.36 238.277 39.32V52.2ZM261.89 25.96C261.33 25.96 260.85 26.0667 260.45 26.28C260.05 26.4933 259.716 26.7733 259.45 27.12C259.21 27.4667 259.023 27.8667 258.89 28.32C258.756 28.7467 258.69 29.1733 258.69 29.6V34.64H264.21V35.28H258.69V52.2C258.69 52.4133 258.73 52.6 258.81 52.76C258.863 52.92 258.956 53.0667 259.09 53.2C259.25 53.3067 259.45 53.36 259.69 53.36V53.76H253.93V53.36C254.196 53.36 254.396 53.3067 254.53 53.2C254.69 53.0667 254.796 52.92 254.85 52.76C254.93 52.6 254.97 52.4133 254.97 52.2V35.28H252.33V34.64H254.97V32.08C254.97 31.9733 254.97 31.7467 254.97 31.4C254.996 31.0267 255.063 30.5867 255.17 30.08C255.303 29.5733 255.49 29.04 255.73 28.48C255.996 27.92 256.37 27.4133 256.85 26.96C257.33 26.48 257.93 26.0933 258.65 25.8C259.396 25.48 260.303 25.32 261.37 25.32C262.41 25.32 263.303 25.4533 264.05 25.72C264.796 25.9867 265.41 26.2933 265.89 26.64C266.396 26.96 266.783 27.28 267.05 27.6C267.316 27.92 267.503 28.1467 267.61 28.28L265.09 30.4C265.09 29.9733 265.05 29.5067 264.97 29C264.89 28.4933 264.73 28.0133 264.49 27.56C264.276 27.1067 263.956 26.7333 263.53 26.44C263.13 26.12 262.583 25.96 261.89 25.96ZM275.112 34.24C276.765 34.24 278.179 34.5067 279.352 35.04C280.552 35.5467 281.525 36.2533 282.272 37.16C283.045 38.0667 283.605 39.1333 283.952 40.36C284.299 41.56 284.472 42.84 284.472 44.2C284.472 45.5867 284.299 46.8933 283.952 48.12C283.605 49.32 283.045 50.3733 282.272 51.28C281.525 52.1867 280.565 52.9067 279.392 53.44C278.219 53.9467 276.792 54.2 275.112 54.2C273.459 54.2 272.032 53.9467 270.832 53.44C269.659 52.9067 268.699 52.1867 267.952 51.28C267.205 50.3733 266.659 49.32 266.312 48.12C265.965 46.8933 265.792 45.5867 265.792 44.2C265.792 42.84 265.965 41.56 266.312 40.36C266.659 39.1333 267.205 38.0667 267.952 37.16C268.699 36.2533 269.659 35.5467 270.832 35.04C272.032 34.5067 273.459 34.24 275.112 34.24ZM275.112 53.56C276.045 53.56 276.845 53.32 277.512 52.84C278.205 52.3333 278.765 51.6667 279.192 50.84C279.645 49.9867 279.979 48.9867 280.192 47.84C280.405 46.6933 280.512 45.48 280.512 44.2C280.512 42.92 280.405 41.72 280.192 40.6C279.979 39.4533 279.645 38.4667 279.192 37.64C278.765 36.7867 278.205 36.12 277.512 35.64C276.845 35.1333 276.045 34.88 275.112 34.88C274.205 34.88 273.405 35.1333 272.712 35.64C272.045 36.12 271.485 36.7867 271.032 37.64C270.605 38.4667 270.285 39.4533 270.072 40.6C269.859 41.72 269.752 42.92 269.752 44.2C269.752 45.48 269.859 46.6933 270.072 47.84C270.285 48.9867 270.605 49.9867 271.032 50.84C271.485 51.6667 272.045 52.3333 272.712 52.84C273.405 53.32 274.205 53.56 275.112 53.56ZM291.646 38.2C292.046 36.84 292.766 35.84 293.806 35.2C294.873 34.5333 296.086 34.2 297.446 34.2C298.006 34.2 298.513 34.24 298.966 34.32C299.446 34.4 299.873 34.5067 300.246 34.64C300.673 34.7733 301.059 34.92 301.406 35.08L299.486 38.48C299.273 37.6533 298.833 37 298.166 36.52C297.499 36.0133 296.739 35.7867 295.886 35.84C294.926 35.84 294.166 36.1067 293.606 36.64C293.046 37.1467 292.619 37.7067 292.326 38.32C291.979 39.0667 291.753 39.9067 291.646 40.84V52.2C291.646 52.4133 291.686 52.6 291.766 52.76C291.819 52.92 291.913 53.0667 292.046 53.2C292.206 53.3067 292.406 53.36 292.646 53.36V53.76H286.886V53.36C287.153 53.36 287.353 53.3067 287.486 53.2C287.646 53.0667 287.753 52.92 287.806 52.76C287.886 52.6 287.926 52.4133 287.926 52.2V36.2C287.926 35.9867 287.886 35.8 287.806 35.64C287.753 35.5067 287.646 35.3867 287.486 35.28C287.353 35.1467 287.153 35.08 286.886 35.08V34.64H290.846C291.059 34.64 291.246 34.72 291.406 34.88C291.566 35.04 291.646 35.2267 291.646 35.44V38.2ZM54.2803 78.24C55.4803 78.24 56.5736 78.5067 57.5603 79.04C58.547 79.5467 59.4003 80.2533 60.1203 81.16C60.8403 82.0667 61.387 83.1333 61.7603 84.36C62.1603 85.56 62.3603 86.84 62.3603 88.2C62.3603 89.5867 62.147 90.8933 61.7203 92.12C61.3203 93.32 60.7336 94.3733 59.9603 95.28C59.2136 96.1867 58.2936 96.9067 57.2003 97.44C56.107 97.9467 54.867 98.2 53.4803 98.2C52.7336 98.2 52.067 98.0933 51.4803 97.88C50.8936 97.6667 50.3736 97.3867 49.9203 97.04C49.4936 96.6933 49.1203 96.3067 48.8003 95.88C48.507 95.4533 48.2536 95.0267 48.0403 94.6V105.12C48.0403 105.333 48.0803 105.533 48.1603 105.72C48.2403 105.853 48.347 105.973 48.4803 106.08C48.6136 106.213 48.8136 106.28 49.0803 106.28V106.68H43.3203V106.28C43.587 106.28 43.787 106.213 43.9203 106.08C44.0803 105.973 44.187 105.853 44.2403 105.72C44.3203 105.533 44.3603 105.333 44.3603 105.12V80.2C44.3603 79.9867 44.3203 79.8 44.2403 79.64C44.187 79.5067 44.0803 79.3867 43.9203 79.28C43.787 79.1467 43.587 79.08 43.3203 79.08V78.64H47.2803C47.4403 78.64 47.627 78.72 47.8403 78.88C48.0003 79.0933 48.067 79.28 48.0403 79.44V82.56C48.2536 82 48.5203 81.4667 48.8403 80.96C49.1603 80.4267 49.5603 79.96 50.0403 79.56C50.547 79.16 51.147 78.84 51.8403 78.6C52.5336 78.36 53.347 78.24 54.2803 78.24ZM53.0403 97.56C53.8936 97.56 54.6536 97.32 55.3203 96.84C55.987 96.3333 56.547 95.6667 57.0003 94.84C57.4803 93.9867 57.8403 92.9867 58.0803 91.84C58.3203 90.6933 58.4403 89.48 58.4403 88.2C58.4403 86.92 58.3336 85.72 58.1203 84.6C57.9336 83.48 57.6136 82.5067 57.1603 81.68C56.7336 80.8533 56.187 80.2133 55.5203 79.76C54.8803 79.28 54.0936 79.04 53.1603 79.04C51.5603 79.04 50.307 79.7067 49.4003 81.04C48.5203 82.3467 48.0803 84.2533 48.0803 86.76V92.24C48.0803 92.56 48.1736 93.0267 48.3603 93.64C48.5736 94.2267 48.8803 94.8133 49.2803 95.4C49.6803 95.96 50.187 96.4667 50.8003 96.92C51.4403 97.3467 52.187 97.56 53.0403 97.56ZM75.5366 97.36C76.8966 97.2533 78.1099 96.8133 79.1766 96.04C80.2699 95.24 81.0566 94.2133 81.5366 92.96L82.1766 93.12C81.8299 94.08 81.2966 94.92 80.5766 95.64C79.9632 96.28 79.0966 96.8667 77.9766 97.4C76.8832 97.9333 75.4566 98.2 73.6966 98.2C72.0432 98.2 70.6166 97.9467 69.4166 97.44C68.2432 96.9067 67.2832 96.1867 66.5366 95.28C65.7899 94.3733 65.2432 93.32 64.8966 92.12C64.5499 90.8933 64.3766 89.5867 64.3766 88.2C64.3766 86.84 64.5499 85.56 64.8966 84.36C65.2432 83.1333 65.7899 82.0667 66.5366 81.16C67.2832 80.2533 68.2432 79.5467 69.4166 79.04C70.6166 78.5067 72.0432 78.24 73.6966 78.24C75.7766 78.24 77.4299 78.6133 78.6566 79.36C79.9099 80.08 80.8566 80.9467 81.4966 81.96C82.1366 82.9733 82.5499 84.0267 82.7366 85.12C82.9499 86.2133 83.0566 87.1067 83.0566 87.8H68.3366V88.2C68.3366 89.48 68.4699 90.7067 68.7366 91.88C69.0299 93.0267 69.4566 94.0267 70.0166 94.88C70.6032 95.7333 71.3499 96.3867 72.2566 96.84C73.1632 97.2933 74.2566 97.4667 75.5366 97.36ZM73.6966 78.88C72.8699 78.88 72.1366 79.0933 71.4966 79.52C70.8566 79.9467 70.3099 80.5333 69.8566 81.28C69.4032 82.0267 69.0432 82.9067 68.7766 83.92C68.5366 84.9067 68.3899 85.9867 68.3366 87.16H79.0566V87.12C78.8699 84.2933 78.3099 82.2133 77.3766 80.88C76.4432 79.5467 75.2166 78.88 73.6966 78.88ZM90.4256 82.2C90.8256 80.84 91.5456 79.84 92.5856 79.2C93.6523 78.5333 94.8656 78.2 96.2256 78.2C96.7856 78.2 97.2923 78.24 97.7456 78.32C98.2256 78.4 98.6523 78.5067 99.0256 78.64C99.4523 78.7733 99.839 78.92 100.186 79.08L98.2656 82.48C98.0523 81.6533 97.6123 81 96.9456 80.52C96.279 80.0133 95.519 79.7867 94.6656 79.84C93.7056 79.84 92.9456 80.1067 92.3856 80.64C91.8256 81.1467 91.399 81.7067 91.1056 82.32C90.759 83.0667 90.5323 83.9067 90.4256 84.84V96.2C90.4256 96.4133 90.4656 96.6 90.5456 96.76C90.599 96.92 90.6923 97.0667 90.8256 97.2C90.9856 97.3067 91.1856 97.36 91.4256 97.36V97.76H85.6656V97.36C85.9323 97.36 86.1323 97.3067 86.2656 97.2C86.4256 97.0667 86.5323 96.92 86.5856 96.76C86.6656 96.6 86.7056 96.4133 86.7056 96.2V80.2C86.7056 79.9867 86.6656 79.8 86.5856 79.64C86.5323 79.5067 86.4256 79.3867 86.2656 79.28C86.1323 79.1467 85.9323 79.08 85.6656 79.08V78.64H89.6256C89.839 78.64 90.0256 78.72 90.1856 78.88C90.3456 79.04 90.4256 79.2267 90.4256 79.44V82.2ZM110.73 69.96C110.17 69.96 109.69 70.0667 109.29 70.28C108.89 70.4933 108.557 70.7733 108.29 71.12C108.05 71.4667 107.864 71.8667 107.73 72.32C107.597 72.7467 107.53 73.1733 107.53 73.6V78.64H113.05V79.28H107.53V96.2C107.53 96.4133 107.57 96.6 107.65 96.76C107.704 96.92 107.797 97.0667 107.93 97.2C108.09 97.3067 108.29 97.36 108.53 97.36V97.76H102.77V97.36C103.037 97.36 103.237 97.3067 103.37 97.2C103.53 97.0667 103.637 96.92 103.69 96.76C103.77 96.6 103.81 96.4133 103.81 96.2V79.28H101.17V78.64H103.81V76.08C103.81 75.9733 103.81 75.7467 103.81 75.4C103.837 75.0267 103.904 74.5867 104.01 74.08C104.144 73.5733 104.33 73.04 104.57 72.48C104.837 71.92 105.21 71.4133 105.69 70.96C106.17 70.48 106.77 70.0933 107.49 69.8C108.237 69.48 109.144 69.32 110.21 69.32C111.25 69.32 112.144 69.4533 112.89 69.72C113.637 69.9867 114.25 70.2933 114.73 70.64C115.237 70.96 115.624 71.28 115.89 71.6C116.157 71.92 116.344 72.1467 116.45 72.28L113.93 74.4C113.93 73.9733 113.89 73.5067 113.81 73C113.73 72.4933 113.57 72.0133 113.33 71.56C113.117 71.1067 112.797 70.7333 112.37 70.44C111.97 70.12 111.424 69.96 110.73 69.96ZM125.793 97.36C127.153 97.2533 128.366 96.8133 129.433 96.04C130.526 95.24 131.313 94.2133 131.793 92.96L132.433 93.12C132.086 94.08 131.553 94.92 130.833 95.64C130.219 96.28 129.353 96.8667 128.233 97.4C127.139 97.9333 125.713 98.2 123.953 98.2C122.299 98.2 120.873 97.9467 119.673 97.44C118.499 96.9067 117.539 96.1867 116.793 95.28C116.046 94.3733 115.499 93.32 115.153 92.12C114.806 90.8933 114.633 89.5867 114.633 88.2C114.633 86.84 114.806 85.56 115.153 84.36C115.499 83.1333 116.046 82.0667 116.793 81.16C117.539 80.2533 118.499 79.5467 119.673 79.04C120.873 78.5067 122.299 78.24 123.953 78.24C126.033 78.24 127.686 78.6133 128.913 79.36C130.166 80.08 131.113 80.9467 131.753 81.96C132.393 82.9733 132.806 84.0267 132.993 85.12C133.206 86.2133 133.313 87.1067 133.313 87.8H118.593V88.2C118.593 89.48 118.726 90.7067 118.993 91.88C119.286 93.0267 119.713 94.0267 120.273 94.88C120.859 95.7333 121.606 96.3867 122.513 96.84C123.419 97.2933 124.513 97.4667 125.793 97.36ZM123.953 78.88C123.126 78.88 122.393 79.0933 121.753 79.52C121.113 79.9467 120.566 80.5333 120.113 81.28C119.659 82.0267 119.299 82.9067 119.033 83.92C118.793 84.9067 118.646 85.9867 118.593 87.16H129.313V87.12C129.126 84.2933 128.566 82.2133 127.633 80.88C126.699 79.5467 125.473 78.88 123.953 78.88ZM152.962 93.08C152.615 94.04 152.082 94.8933 151.362 95.64C150.749 96.28 149.882 96.8667 148.762 97.4C147.669 97.9333 146.242 98.2 144.482 98.2C142.829 98.2 141.402 97.9467 140.202 97.44C139.029 96.9067 138.069 96.1867 137.322 95.28C136.575 94.3733 136.029 93.32 135.682 92.12C135.335 90.8933 135.162 89.5867 135.162 88.2C135.162 86.84 135.335 85.56 135.682 84.36C136.029 83.1333 136.575 82.0667 137.322 81.16C138.069 80.2533 139.029 79.5467 140.202 79.04C141.402 78.5067 142.829 78.24 144.482 78.24C145.602 78.24 146.589 78.36 147.442 78.6C148.322 78.8133 149.082 79.12 149.722 79.52C150.389 79.92 150.949 80.3867 151.402 80.92C151.882 81.4267 152.282 81.9733 152.602 82.56L150.122 84.36C149.882 83.5867 149.629 82.8667 149.362 82.2C149.095 81.5333 148.762 80.96 148.362 80.48C147.962 79.9733 147.469 79.5867 146.882 79.32C146.322 79.0267 145.629 78.88 144.802 78.88C143.815 78.88 142.962 79.1333 142.242 79.64C141.522 80.12 140.935 80.7867 140.482 81.64C140.029 82.4667 139.682 83.4533 139.442 84.6C139.229 85.72 139.122 86.92 139.122 88.2C139.122 89.48 139.255 90.7067 139.522 91.88C139.815 93.0267 140.242 94.0267 140.802 94.88C141.389 95.7333 142.135 96.3867 143.042 96.84C143.949 97.2933 145.042 97.4667 146.322 97.36C147.682 97.2533 148.895 96.8133 149.962 96.04C151.055 95.24 151.842 94.2133 152.322 92.96L152.962 93.08ZM166.152 97.44C165.272 98 164.312 98.2533 163.272 98.2C161.778 98.2 160.632 97.9333 159.832 97.4C159.058 96.8667 158.485 96.28 158.112 95.64C157.685 94.92 157.445 94.08 157.392 93.12V79.28H154.552V78.64H157.392V74.52L161.112 72.72V78.64H166.032V79.28H161.112V93.96C161.112 94.1733 161.138 94.48 161.192 94.88C161.245 95.28 161.365 95.68 161.552 96.08C161.765 96.4533 162.058 96.7867 162.432 97.08C162.805 97.3733 163.312 97.52 163.952 97.52C164.272 97.52 164.592 97.48 164.912 97.4C165.232 97.32 165.525 97.1867 165.792 97L166.152 97.44ZM170.714 76C170.02 76 169.42 75.76 168.914 75.28C168.434 74.7733 168.194 74.1733 168.194 73.48C168.194 72.7867 168.434 72.2 168.914 71.72C169.42 71.2133 170.02 70.96 170.714 70.96C171.434 70.96 172.034 71.2 172.514 71.68C172.887 72.0533 173.127 72.4933 173.234 73C173.34 73.48 173.287 73.96 173.074 74.44C172.86 74.92 172.54 75.3067 172.114 75.6C171.714 75.8667 171.247 76 170.714 76ZM172.754 96.2C172.754 96.4133 172.794 96.6 172.874 96.76C172.927 96.92 173.02 97.0667 173.154 97.2C173.314 97.3067 173.514 97.36 173.754 97.36V97.76H167.994V97.36C168.26 97.36 168.46 97.3067 168.594 97.2C168.754 97.0667 168.86 96.92 168.914 96.76C168.994 96.6 169.034 96.4133 169.034 96.2V80.2C169.034 79.9867 168.994 79.8 168.914 79.64C168.86 79.5067 168.754 79.3867 168.594 79.28C168.46 79.1467 168.26 79.08 167.994 79.08V78.64H171.954C172.167 78.64 172.354 78.72 172.514 78.88C172.674 79.04 172.754 79.2267 172.754 79.44V96.2ZM185.323 78.24C186.976 78.24 188.39 78.5067 189.563 79.04C190.763 79.5467 191.736 80.2533 192.483 81.16C193.256 82.0667 193.816 83.1333 194.163 84.36C194.51 85.56 194.683 86.84 194.683 88.2C194.683 89.5867 194.51 90.8933 194.163 92.12C193.816 93.32 193.256 94.3733 192.483 95.28C191.736 96.1867 190.776 96.9067 189.603 97.44C188.43 97.9467 187.003 98.2 185.323 98.2C183.67 98.2 182.243 97.9467 181.043 97.44C179.87 96.9067 178.91 96.1867 178.163 95.28C177.416 94.3733 176.87 93.32 176.523 92.12C176.176 90.8933 176.003 89.5867 176.003 88.2C176.003 86.84 176.176 85.56 176.523 84.36C176.87 83.1333 177.416 82.0667 178.163 81.16C178.91 80.2533 179.87 79.5467 181.043 79.04C182.243 78.5067 183.67 78.24 185.323 78.24ZM185.323 97.56C186.256 97.56 187.056 97.32 187.723 96.84C188.416 96.3333 188.976 95.6667 189.403 94.84C189.856 93.9867 190.19 92.9867 190.403 91.84C190.616 90.6933 190.723 89.48 190.723 88.2C190.723 86.92 190.616 85.72 190.403 84.6C190.19 83.4533 189.856 82.4667 189.403 81.64C188.976 80.7867 188.416 80.12 187.723 79.64C187.056 79.1333 186.256 78.88 185.323 78.88C184.416 78.88 183.616 79.1333 182.923 79.64C182.256 80.12 181.696 80.7867 181.243 81.64C180.816 82.4667 180.496 83.4533 180.283 84.6C180.07 85.72 179.963 86.92 179.963 88.2C179.963 89.48 180.07 90.6933 180.283 91.84C180.496 92.9867 180.816 93.9867 181.243 94.84C181.696 95.6667 182.256 96.3333 182.923 96.84C183.616 97.32 184.416 97.56 185.323 97.56ZM214.622 96.2C214.622 96.4133 214.662 96.6 214.742 96.76C214.822 96.92 214.928 97.0667 215.062 97.2C215.195 97.3067 215.395 97.36 215.662 97.36V97.76H209.902V97.36C210.168 97.36 210.368 97.3067 210.502 97.2C210.635 97.0667 210.728 96.92 210.782 96.76C210.862 96.6 210.902 96.4133 210.902 96.2V82.52C210.902 82.0933 210.808 81.6667 210.622 81.24C210.462 80.8133 210.208 80.4267 209.862 80.08C209.542 79.7333 209.142 79.4533 208.662 79.24C208.182 79.0267 207.622 78.92 206.982 78.92C206.155 78.92 205.408 79.0933 204.742 79.44C204.102 79.7867 203.542 80.2133 203.062 80.72C202.608 81.2 202.262 81.72 202.022 82.28C201.782 82.84 201.662 83.3333 201.662 83.76V96.2C201.662 96.4133 201.702 96.6 201.782 96.76C201.835 96.92 201.928 97.0667 202.062 97.2C202.222 97.3067 202.422 97.36 202.662 97.36V97.76H196.902V97.36C197.168 97.36 197.368 97.3067 197.502 97.2C197.662 97.0667 197.768 96.92 197.822 96.76C197.902 96.6 197.942 96.4133 197.942 96.2V80.2C197.942 79.9867 197.902 79.8 197.822 79.64C197.768 79.5067 197.662 79.3867 197.502 79.28C197.368 79.1467 197.168 79.08 196.902 79.08V78.64H200.862C201.075 78.64 201.262 78.72 201.422 78.88C201.582 79.04 201.662 79.2267 201.662 79.44V81.64C202.222 80.52 203.022 79.6667 204.062 79.08C205.128 78.4667 206.288 78.1867 207.542 78.24C208.448 78.24 209.328 78.3733 210.182 78.64C211.035 78.9067 211.782 79.3067 212.422 79.84C213.088 80.3467 213.622 80.9867 214.022 81.76C214.422 82.5067 214.622 83.3867 214.622 84.4V96.2ZM220.84 93.52C221.48 93.5467 222.026 93.7867 222.48 94.24C222.933 94.6933 223.16 95.24 223.16 95.88C223.16 96.52 222.933 97.0667 222.48 97.52C222.053 97.9733 221.52 98.2 220.88 98.2C220.213 98.2 219.653 97.9733 219.2 97.52C218.853 97.1733 218.626 96.7733 218.52 96.32C218.44 95.8667 218.493 95.4133 218.68 94.96C218.893 94.5333 219.186 94.1867 219.56 93.92C219.96 93.6533 220.386 93.52 220.84 93.52ZM261.077 96.2C261.29 96.6533 261.504 96.96 261.717 97.12C261.93 97.28 262.197 97.36 262.517 97.36V97.76H256.357V97.36C256.784 97.36 257.064 97.2533 257.197 97.04C257.33 96.8267 257.33 96.5733 257.197 96.28L253.597 87.72H242.237L238.957 95.52C238.77 95.9733 238.797 96.4 239.037 96.8C239.304 97.1733 239.784 97.36 240.477 97.36V97.76H235.397V97.36C236.037 97.3867 236.624 97.2267 237.157 96.88C237.69 96.5333 238.077 96.0533 238.317 95.44L249.277 69.32H249.597L261.077 96.2ZM253.317 87.08L247.877 74.28L242.517 87.08H253.317ZM266.695 76C266.002 76 265.402 75.76 264.895 75.28C264.415 74.7733 264.175 74.1733 264.175 73.48C264.175 72.7867 264.415 72.2 264.895 71.72C265.402 71.2133 266.002 70.96 266.695 70.96C267.415 70.96 268.015 71.2 268.495 71.68C268.868 72.0533 269.108 72.4933 269.215 73C269.322 73.48 269.268 73.96 269.055 74.44C268.842 74.92 268.522 75.3067 268.095 75.6C267.695 75.8667 267.228 76 266.695 76ZM268.735 96.2C268.735 96.4133 268.775 96.6 268.855 96.76C268.908 96.92 269.002 97.0667 269.135 97.2C269.295 97.3067 269.495 97.36 269.735 97.36V97.76H263.975V97.36C264.242 97.36 264.442 97.3067 264.575 97.2C264.735 97.0667 264.842 96.92 264.895 96.76C264.975 96.6 265.015 96.4133 265.015 96.2V80.2C265.015 79.9867 264.975 79.8 264.895 79.64C264.842 79.5067 264.735 79.3867 264.575 79.28C264.442 79.1467 264.242 79.08 263.975 79.08V78.64H267.935C268.148 78.64 268.335 78.72 268.495 78.88C268.655 79.04 268.735 79.2267 268.735 79.44V96.2ZM298.944 96.2C298.944 96.4133 298.984 96.6 299.064 96.76C299.144 96.92 299.251 97.0667 299.384 97.2C299.518 97.3067 299.718 97.36 299.984 97.36V97.76H294.224V97.36C294.491 97.36 294.691 97.3067 294.824 97.2C294.958 97.0667 295.051 96.92 295.104 96.76C295.184 96.6 295.224 96.4133 295.224 96.2V82.48C295.224 82.2667 295.198 81.96 295.144 81.56C295.091 81.16 294.958 80.7733 294.744 80.4C294.558 80 294.278 79.6533 293.904 79.36C293.531 79.0667 293.024 78.92 292.384 78.92C291.638 78.92 290.998 79.0933 290.464 79.44C289.931 79.7867 289.491 80.2133 289.144 80.72C288.824 81.2 288.584 81.72 288.424 82.28C288.291 82.84 288.224 83.3333 288.224 83.76V96.2C288.224 96.4133 288.264 96.6 288.344 96.76C288.424 96.92 288.531 97.0667 288.664 97.2C288.798 97.3067 288.998 97.36 289.264 97.36V97.76H283.504V97.36C283.771 97.36 283.971 97.3067 284.104 97.2C284.264 97.0667 284.371 96.92 284.424 96.76C284.504 96.6 284.544 96.4133 284.544 96.2V82.48C284.544 82.2667 284.531 81.96 284.504 81.56C284.478 81.16 284.384 80.7733 284.224 80.4C284.064 80 283.811 79.6533 283.464 79.36C283.118 79.0667 282.624 78.92 281.984 78.92C281.238 78.92 280.584 79.1467 280.024 79.6C279.464 80.0267 278.998 80.5467 278.624 81.16C278.278 81.7467 278.011 82.36 277.824 83C277.638 83.64 277.544 84.1733 277.544 84.6V96.2C277.544 96.4133 277.584 96.6 277.664 96.76C277.718 96.92 277.811 97.0667 277.944 97.2C278.104 97.3067 278.304 97.36 278.544 97.36V97.76H272.784V97.36C273.051 97.36 273.251 97.3067 273.384 97.2C273.544 97.0667 273.651 96.92 273.704 96.76C273.784 96.6 273.824 96.4133 273.824 96.2V80.2C273.824 79.9867 273.784 79.8 273.704 79.64C273.651 79.5067 273.544 79.3867 273.384 79.28C273.251 79.1467 273.051 79.08 272.784 79.08V78.64H276.744C276.958 78.64 277.144 78.72 277.304 78.88C277.464 79.04 277.544 79.2267 277.544 79.44V81.92C277.731 81.4667 277.958 81.0267 278.224 80.6C278.518 80.1733 278.864 79.7867 279.264 79.44C279.691 79.0667 280.184 78.7733 280.744 78.56C281.304 78.3467 281.944 78.24 282.664 78.24C283.571 78.24 284.331 78.3467 284.944 78.56C285.584 78.7733 286.118 79.0533 286.544 79.4C286.971 79.72 287.291 80.08 287.504 80.48C287.744 80.88 287.918 81.2667 288.024 81.64C288.158 81.24 288.344 80.84 288.584 80.44C288.851 80.04 289.184 79.68 289.584 79.36C289.984 79.0133 290.464 78.7467 291.024 78.56C291.611 78.3467 292.291 78.24 293.064 78.24C293.811 78.24 294.464 78.32 295.024 78.48C295.584 78.6133 296.064 78.8 296.464 79.04C296.891 79.28 297.238 79.5467 297.504 79.84C297.798 80.1333 298.038 80.44 298.224 80.76C298.651 81.5067 298.891 82.36 298.944 83.32V96.2ZM91.4725 113.96C90.9125 113.96 90.4325 114.067 90.0325 114.28C89.6325 114.493 89.2992 114.773 89.0325 115.12C88.7925 115.467 88.6058 115.867 88.4725 116.32C88.3392 116.747 88.2725 117.173 88.2725 117.6V122.64H93.7925V123.28H88.2725V140.2C88.2725 140.413 88.3125 140.6 88.3925 140.76C88.4458 140.92 88.5392 141.067 88.6725 141.2C88.8325 141.307 89.0325 141.36 89.2725 141.36V141.76H83.5125V141.36C83.7792 141.36 83.9792 141.307 84.1125 141.2C84.2725 141.067 84.3792 140.92 84.4325 140.76C84.5125 140.6 84.5525 140.413 84.5525 140.2V123.28H81.9125V122.64H84.5525V120.08C84.5525 119.973 84.5525 119.747 84.5525 119.4C84.5792 119.027 84.6458 118.587 84.7525 118.08C84.8858 117.573 85.0725 117.04 85.3125 116.48C85.5792 115.92 85.9525 115.413 86.4325 114.96C86.9125 114.48 87.5125 114.093 88.2325 113.8C88.9792 113.48 89.8858 113.32 90.9525 113.32C91.9925 113.32 92.8858 113.453 93.6325 113.72C94.3792 113.987 94.9925 114.293 95.4725 114.64C95.9792 114.96 96.3658 115.28 96.6325 115.6C96.8992 115.92 97.0858 116.147 97.1925 116.28L94.6725 118.4C94.6725 117.973 94.6325 117.507 94.5525 117C94.4725 116.493 94.3125 116.013 94.0725 115.56C93.8592 115.107 93.5392 114.733 93.1125 114.44C92.7125 114.12 92.1658 113.96 91.4725 113.96ZM104.695 122.24C106.348 122.24 107.762 122.507 108.935 123.04C110.135 123.547 111.108 124.253 111.855 125.16C112.628 126.067 113.188 127.133 113.535 128.36C113.882 129.56 114.055 130.84 114.055 132.2C114.055 133.587 113.882 134.893 113.535 136.12C113.188 137.32 112.628 138.373 111.855 139.28C111.108 140.187 110.148 140.907 108.975 141.44C107.802 141.947 106.375 142.2 104.695 142.2C103.042 142.2 101.615 141.947 100.415 141.44C99.2417 140.907 98.2817 140.187 97.535 139.28C96.7883 138.373 96.2417 137.32 95.895 136.12C95.5483 134.893 95.375 133.587 95.375 132.2C95.375 130.84 95.5483 129.56 95.895 128.36C96.2417 127.133 96.7883 126.067 97.535 125.16C98.2817 124.253 99.2417 123.547 100.415 123.04C101.615 122.507 103.042 122.24 104.695 122.24ZM104.695 141.56C105.628 141.56 106.428 141.32 107.095 140.84C107.788 140.333 108.348 139.667 108.775 138.84C109.228 137.987 109.562 136.987 109.775 135.84C109.988 134.693 110.095 133.48 110.095 132.2C110.095 130.92 109.988 129.72 109.775 128.6C109.562 127.453 109.228 126.467 108.775 125.64C108.348 124.787 107.788 124.12 107.095 123.64C106.428 123.133 105.628 122.88 104.695 122.88C103.788 122.88 102.988 123.133 102.295 123.64C101.628 124.12 101.068 124.787 100.615 125.64C100.188 126.467 99.8683 127.453 99.655 128.6C99.4417 129.72 99.335 130.92 99.335 132.2C99.335 133.48 99.4417 134.693 99.655 135.84C99.8683 136.987 100.188 137.987 100.615 138.84C101.068 139.667 101.628 140.333 102.295 140.84C102.988 141.32 103.788 141.56 104.695 141.56ZM121.229 126.2C121.629 124.84 122.349 123.84 123.389 123.2C124.455 122.533 125.669 122.2 127.029 122.2C127.589 122.2 128.095 122.24 128.549 122.32C129.029 122.4 129.455 122.507 129.829 122.64C130.255 122.773 130.642 122.92 130.989 123.08L129.069 126.48C128.855 125.653 128.415 125 127.749 124.52C127.082 124.013 126.322 123.787 125.469 123.84C124.509 123.84 123.749 124.107 123.189 124.64C122.629 125.147 122.202 125.707 121.909 126.32C121.562 127.067 121.335 127.907 121.229 128.84V140.2C121.229 140.413 121.269 140.6 121.349 140.76C121.402 140.92 121.495 141.067 121.629 141.2C121.789 141.307 121.989 141.36 122.229 141.36V141.76H116.469V141.36C116.735 141.36 116.935 141.307 117.069 141.2C117.229 141.067 117.335 140.92 117.389 140.76C117.469 140.6 117.509 140.413 117.509 140.2V124.2C117.509 123.987 117.469 123.8 117.389 123.64C117.335 123.507 117.229 123.387 117.069 123.28C116.935 123.147 116.735 123.08 116.469 123.08V122.64H120.429C120.642 122.64 120.829 122.72 120.989 122.88C121.149 123.04 121.229 123.227 121.229 123.44V126.2ZM154.54 122.24C155.74 122.24 156.833 122.507 157.82 123.04C158.806 123.547 159.66 124.253 160.38 125.16C161.1 126.067 161.646 127.133 162.02 128.36C162.42 129.56 162.62 130.84 162.62 132.2C162.62 133.587 162.406 134.893 161.98 136.12C161.58 137.32 160.993 138.373 160.22 139.28C159.473 140.187 158.553 140.907 157.46 141.44C156.366 141.947 155.126 142.2 153.74 142.2C152.993 142.2 152.326 142.093 151.74 141.88C151.153 141.667 150.633 141.387 150.18 141.04C149.753 140.693 149.38 140.307 149.06 139.88C148.766 139.453 148.513 139.027 148.3 138.6V149.12C148.3 149.333 148.34 149.533 148.42 149.72C148.5 149.853 148.606 149.973 148.74 150.08C148.873 150.213 149.073 150.28 149.34 150.28V150.68H143.58V150.28C143.846 150.28 144.046 150.213 144.18 150.08C144.34 149.973 144.446 149.853 144.5 149.72C144.58 149.533 144.62 149.333 144.62 149.12V124.2C144.62 123.987 144.58 123.8 144.5 123.64C144.446 123.507 144.34 123.387 144.18 123.28C144.046 123.147 143.846 123.08 143.58 123.08V122.64H147.54C147.7 122.64 147.886 122.72 148.1 122.88C148.26 123.093 148.326 123.28 148.3 123.44V126.56C148.513 126 148.78 125.467 149.1 124.96C149.42 124.427 149.82 123.96 150.3 123.56C150.806 123.16 151.406 122.84 152.1 122.6C152.793 122.36 153.606 122.24 154.54 122.24ZM153.3 141.56C154.153 141.56 154.913 141.32 155.58 140.84C156.246 140.333 156.806 139.667 157.26 138.84C157.74 137.987 158.1 136.987 158.34 135.84C158.58 134.693 158.7 133.48 158.7 132.2C158.7 130.92 158.593 129.72 158.38 128.6C158.193 127.48 157.873 126.507 157.42 125.68C156.993 124.853 156.446 124.213 155.78 123.76C155.14 123.28 154.353 123.04 153.42 123.04C151.82 123.04 150.566 123.707 149.66 125.04C148.78 126.347 148.34 128.253 148.34 130.76V136.24C148.34 136.56 148.433 137.027 148.62 137.64C148.833 138.227 149.14 138.813 149.54 139.4C149.94 139.96 150.446 140.467 151.06 140.92C151.7 141.347 152.446 141.56 153.3 141.56ZM169.805 126.2C170.205 124.84 170.925 123.84 171.965 123.2C173.032 122.533 174.245 122.2 175.605 122.2C176.165 122.2 176.672 122.24 177.125 122.32C177.605 122.4 178.032 122.507 178.405 122.64C178.832 122.773 179.219 122.92 179.565 123.08L177.645 126.48C177.432 125.653 176.992 125 176.325 124.52C175.659 124.013 174.899 123.787 174.045 123.84C173.085 123.84 172.325 124.107 171.765 124.64C171.205 125.147 170.779 125.707 170.485 126.32C170.139 127.067 169.912 127.907 169.805 128.84V140.2C169.805 140.413 169.845 140.6 169.925 140.76C169.979 140.92 170.072 141.067 170.205 141.2C170.365 141.307 170.565 141.36 170.805 141.36V141.76H165.045V141.36C165.312 141.36 165.512 141.307 165.645 141.2C165.805 141.067 165.912 140.92 165.965 140.76C166.045 140.6 166.085 140.413 166.085 140.2V124.2C166.085 123.987 166.045 123.8 165.965 123.64C165.912 123.507 165.805 123.387 165.645 123.28C165.512 123.147 165.312 123.08 165.045 123.08V122.64H169.005C169.219 122.64 169.405 122.72 169.565 122.88C169.725 123.04 169.805 123.227 169.805 123.44V126.2ZM189.484 122.24C191.137 122.24 192.551 122.507 193.724 123.04C194.924 123.547 195.897 124.253 196.644 125.16C197.417 126.067 197.977 127.133 198.324 128.36C198.671 129.56 198.844 130.84 198.844 132.2C198.844 133.587 198.671 134.893 198.324 136.12C197.977 137.32 197.417 138.373 196.644 139.28C195.897 140.187 194.937 140.907 193.764 141.44C192.591 141.947 191.164 142.2 189.484 142.2C187.831 142.2 186.404 141.947 185.204 141.44C184.031 140.907 183.071 140.187 182.324 139.28C181.577 138.373 181.031 137.32 180.684 136.12C180.337 134.893 180.164 133.587 180.164 132.2C180.164 130.84 180.337 129.56 180.684 128.36C181.031 127.133 181.577 126.067 182.324 125.16C183.071 124.253 184.031 123.547 185.204 123.04C186.404 122.507 187.831 122.24 189.484 122.24ZM189.484 141.56C190.417 141.56 191.217 141.32 191.884 140.84C192.577 140.333 193.137 139.667 193.564 138.84C194.017 137.987 194.351 136.987 194.564 135.84C194.777 134.693 194.884 133.48 194.884 132.2C194.884 130.92 194.777 129.72 194.564 128.6C194.351 127.453 194.017 126.467 193.564 125.64C193.137 124.787 192.577 124.12 191.884 123.64C191.217 123.133 190.417 122.88 189.484 122.88C188.577 122.88 187.777 123.133 187.084 123.64C186.417 124.12 185.857 124.787 185.404 125.64C184.977 126.467 184.657 127.453 184.444 128.6C184.231 129.72 184.124 130.92 184.124 132.2C184.124 133.48 184.231 134.693 184.444 135.84C184.657 136.987 184.977 137.987 185.404 138.84C185.857 139.667 186.417 140.333 187.084 140.84C187.777 141.32 188.577 141.56 189.484 141.56ZM219.578 124.8C219.578 124.267 219.351 123.773 218.898 123.32C218.444 122.867 217.911 122.64 217.298 122.64C216.978 122.64 216.644 122.72 216.298 122.88C215.978 123.013 215.671 123.253 215.378 123.6C216.498 124.293 217.338 125.213 217.898 126.36C218.484 127.48 218.778 128.8 218.778 130.32C218.778 131.52 218.578 132.613 218.178 133.6C217.804 134.587 217.231 135.44 216.458 136.16C215.711 136.88 214.778 137.44 213.658 137.84C212.564 138.213 211.298 138.4 209.858 138.4C207.804 138.48 205.911 137.987 204.178 136.92L203.218 138.24C202.684 138.933 202.524 139.4 202.738 139.64C202.978 139.853 203.458 139.973 204.178 140H213.618C214.631 140 215.498 140.16 216.218 140.48C216.964 140.773 217.578 141.187 218.058 141.72C218.538 142.227 218.884 142.813 219.098 143.48C219.338 144.147 219.458 144.853 219.458 145.6C219.458 146.56 219.231 147.387 218.778 148.08C218.351 148.773 217.764 149.333 217.018 149.76C216.298 150.213 215.444 150.547 214.458 150.76C213.471 150.973 212.431 151.08 211.338 151.08C209.498 151.08 207.631 150.827 205.738 150.32C203.871 149.813 202.258 149.093 200.898 148.16L203.418 145.24C203.524 145.453 203.764 145.84 204.138 146.4C204.538 146.96 205.071 147.547 205.738 148.16C206.404 148.773 207.218 149.307 208.178 149.76C209.164 150.24 210.311 150.48 211.618 150.48C212.871 150.48 213.951 150.347 214.858 150.08C215.764 149.813 216.511 149.467 217.098 149.04C217.684 148.613 218.111 148.133 218.378 147.6C218.671 147.093 218.818 146.573 218.818 146.04C218.818 145.213 218.578 144.613 218.098 144.24C217.618 143.893 216.911 143.72 215.978 143.72H203.778C203.538 143.72 203.244 143.693 202.898 143.64C202.551 143.613 202.231 143.52 201.938 143.36C201.644 143.2 201.391 142.947 201.178 142.6C200.964 142.28 200.858 141.84 200.858 141.28C200.858 140.96 200.884 140.68 200.938 140.44C200.991 140.2 201.084 139.96 201.218 139.72C201.351 139.48 201.538 139.213 201.778 138.92C202.018 138.6 202.324 138.213 202.698 137.76L203.658 136.56C201.818 135.093 200.898 133.013 200.898 130.32C200.898 127.813 201.658 125.84 203.178 124.4C204.698 122.96 206.911 122.24 209.818 122.24C211.551 122.187 213.218 122.533 214.818 123.28C215.431 122.48 216.058 121.933 216.698 121.64C217.364 121.32 218.004 121.16 218.618 121.16C219.231 121.16 219.764 121.267 220.218 121.48C220.698 121.693 221.084 121.947 221.378 122.24L219.578 124.8ZM209.818 137.76C211.444 137.76 212.644 137.107 213.418 135.8C214.218 134.493 214.618 132.667 214.618 130.32C214.618 127.973 214.218 126.147 213.418 124.84C212.644 123.533 211.444 122.88 209.818 122.88C208.218 122.88 207.018 123.533 206.218 124.84C205.444 126.147 205.058 127.973 205.058 130.32C205.058 132.667 205.444 134.493 206.218 135.8C207.018 137.107 208.218 137.76 209.818 137.76ZM227.523 126.2C227.923 124.84 228.643 123.84 229.683 123.2C230.749 122.533 231.963 122.2 233.323 122.2C233.883 122.2 234.389 122.24 234.843 122.32C235.323 122.4 235.749 122.507 236.123 122.64C236.549 122.773 236.936 122.92 237.283 123.08L235.363 126.48C235.149 125.653 234.709 125 234.043 124.52C233.376 124.013 232.616 123.787 231.763 123.84C230.803 123.84 230.043 124.107 229.483 124.64C228.923 125.147 228.496 125.707 228.203 126.32C227.856 127.067 227.629 127.907 227.523 128.84V140.2C227.523 140.413 227.563 140.6 227.643 140.76C227.696 140.92 227.789 141.067 227.923 141.2C228.083 141.307 228.283 141.36 228.523 141.36V141.76H222.763V141.36C223.029 141.36 223.229 141.307 223.363 141.2C223.523 141.067 223.629 140.92 223.683 140.76C223.763 140.6 223.803 140.413 223.803 140.2V124.2C223.803 123.987 223.763 123.8 223.683 123.64C223.629 123.507 223.523 123.387 223.363 123.28C223.229 123.147 223.029 123.08 222.763 123.08V122.64H226.723C226.936 122.64 227.123 122.72 227.283 122.88C227.443 123.04 227.523 123.227 227.523 123.44V126.2ZM249.041 141.36C250.401 141.253 251.615 140.813 252.681 140.04C253.775 139.24 254.561 138.213 255.041 136.96L255.681 137.12C255.335 138.08 254.801 138.92 254.081 139.64C253.468 140.28 252.601 140.867 251.481 141.4C250.388 141.933 248.961 142.2 247.201 142.2C245.548 142.2 244.121 141.947 242.921 141.44C241.748 140.907 240.788 140.187 240.041 139.28C239.295 138.373 238.748 137.32 238.401 136.12C238.055 134.893 237.881 133.587 237.881 132.2C237.881 130.84 238.055 129.56 238.401 128.36C238.748 127.133 239.295 126.067 240.041 125.16C240.788 124.253 241.748 123.547 242.921 123.04C244.121 122.507 245.548 122.24 247.201 122.24C249.281 122.24 250.935 122.613 252.161 123.36C253.415 124.08 254.361 124.947 255.001 125.96C255.641 126.973 256.055 128.027 256.241 129.12C256.455 130.213 256.561 131.107 256.561 131.8H241.841V132.2C241.841 133.48 241.975 134.707 242.241 135.88C242.535 137.027 242.961 138.027 243.521 138.88C244.108 139.733 244.855 140.387 245.761 140.84C246.668 141.293 247.761 141.467 249.041 141.36ZM247.201 122.88C246.375 122.88 245.641 123.093 245.001 123.52C244.361 123.947 243.815 124.533 243.361 125.28C242.908 126.027 242.548 126.907 242.281 127.92C242.041 128.907 241.895 129.987 241.841 131.16H252.561V131.12C252.375 128.293 251.815 126.213 250.881 124.88C249.948 123.547 248.721 122.88 247.201 122.88ZM268.45 130.96C269.49 131.307 270.384 131.667 271.13 132.04C271.877 132.413 272.49 132.84 272.97 133.32C273.45 133.773 273.797 134.293 274.01 134.88C274.224 135.467 274.33 136.147 274.33 136.92C274.33 137.853 274.104 138.653 273.65 139.32C273.224 139.987 272.65 140.533 271.93 140.96C271.21 141.387 270.384 141.707 269.45 141.92C268.544 142.107 267.624 142.2 266.69 142.2C265.144 142.253 263.664 141.973 262.25 141.36C260.837 140.747 259.61 139.867 258.57 138.72L260.69 136.48C260.77 137.227 260.984 137.92 261.33 138.56C261.677 139.173 262.117 139.707 262.65 140.16C263.184 140.613 263.797 140.973 264.49 141.24C265.184 141.48 265.904 141.587 266.65 141.56C268.064 141.56 269.237 141.32 270.17 140.84C271.104 140.333 271.57 139.493 271.57 138.32C271.57 137.733 271.397 137.213 271.05 136.76C270.704 136.307 270.25 135.907 269.69 135.56C269.13 135.187 268.477 134.867 267.73 134.6C266.984 134.307 266.21 134.027 265.41 133.76C264.344 133.413 263.41 133.067 262.61 132.72C261.837 132.373 261.184 131.987 260.65 131.56C260.144 131.107 259.757 130.587 259.49 130C259.224 129.387 259.09 128.667 259.09 127.84C259.09 126.88 259.29 126.053 259.69 125.36C260.09 124.64 260.624 124.053 261.29 123.6C261.984 123.12 262.77 122.773 263.65 122.56C264.557 122.347 265.49 122.24 266.45 122.24C267.89 122.187 269.264 122.44 270.57 123C271.904 123.533 273.05 124.333 274.01 125.4L272.09 127.44C272.09 127.227 272.024 126.88 271.89 126.4C271.784 125.893 271.53 125.387 271.13 124.88C270.757 124.347 270.197 123.88 269.45 123.48C268.704 123.08 267.69 122.88 266.41 122.88C265.93 122.88 265.41 122.933 264.85 123.04C264.317 123.147 263.81 123.32 263.33 123.56C262.877 123.8 262.49 124.133 262.17 124.56C261.877 124.96 261.73 125.467 261.73 126.08C261.73 126.827 261.957 127.467 262.41 128C262.89 128.507 263.464 128.947 264.13 129.32C264.824 129.693 265.557 130.013 266.33 130.28C267.104 130.52 267.81 130.747 268.45 130.96ZM286.205 130.96C287.245 131.307 288.138 131.667 288.885 132.04C289.632 132.413 290.245 132.84 290.725 133.32C291.205 133.773 291.552 134.293 291.765 134.88C291.978 135.467 292.085 136.147 292.085 136.92C292.085 137.853 291.858 138.653 291.405 139.32C290.978 139.987 290.405 140.533 289.685 140.96C288.965 141.387 288.138 141.707 287.205 141.92C286.298 142.107 285.378 142.2 284.445 142.2C282.898 142.253 281.418 141.973 280.005 141.36C278.592 140.747 277.365 139.867 276.325 138.72L278.445 136.48C278.525 137.227 278.738 137.92 279.085 138.56C279.432 139.173 279.872 139.707 280.405 140.16C280.938 140.613 281.552 140.973 282.245 141.24C282.938 141.48 283.658 141.587 284.405 141.56C285.818 141.56 286.992 141.32 287.925 140.84C288.858 140.333 289.325 139.493 289.325 138.32C289.325 137.733 289.152 137.213 288.805 136.76C288.458 136.307 288.005 135.907 287.445 135.56C286.885 135.187 286.232 134.867 285.485 134.6C284.738 134.307 283.965 134.027 283.165 133.76C282.098 133.413 281.165 133.067 280.365 132.72C279.592 132.373 278.938 131.987 278.405 131.56C277.898 131.107 277.512 130.587 277.245 130C276.978 129.387 276.845 128.667 276.845 127.84C276.845 126.88 277.045 126.053 277.445 125.36C277.845 124.64 278.378 124.053 279.045 123.6C279.738 123.12 280.525 122.773 281.405 122.56C282.312 122.347 283.245 122.24 284.205 122.24C285.645 122.187 287.018 122.44 288.325 123C289.658 123.533 290.805 124.333 291.765 125.4L289.845 127.44C289.845 127.227 289.778 126.88 289.645 126.4C289.538 125.893 289.285 125.387 288.885 124.88C288.512 124.347 287.952 123.88 287.205 123.48C286.458 123.08 285.445 122.88 284.165 122.88C283.685 122.88 283.165 122.933 282.605 123.04C282.072 123.147 281.565 123.32 281.085 123.56C280.632 123.8 280.245 124.133 279.925 124.56C279.632 124.96 279.485 125.467 279.485 126.08C279.485 126.827 279.712 127.467 280.165 128C280.645 128.507 281.218 128.947 281.885 129.32C282.578 129.693 283.312 130.013 284.085 130.28C284.858 130.52 285.565 130.747 286.205 130.96ZM296.84 137.52C297.48 137.547 298.026 137.787 298.48 138.24C298.933 138.693 299.16 139.24 299.16 139.88C299.16 140.52 298.933 141.067 298.48 141.52C298.053 141.973 297.52 142.2 296.88 142.2C296.213 142.2 295.653 141.973 295.2 141.52C294.853 141.173 294.626 140.773 294.52 140.32C294.44 139.867 294.493 139.413 294.68 138.96C294.893 138.533 295.186 138.187 295.56 137.92C295.96 137.653 296.386 137.52 296.84 137.52Z" fill="#F9DDFF"/>
<path opacity="0.6" d="M55.376 215.48C55.376 217.144 54.176 218.344 52.08 218.52V220.6H52.608C53.936 220.6 55.408 220.504 56.448 220.36L56.528 221.176C55.568 221.336 53.872 221.464 52.576 221.464H46.704V220.6H51.008V218.52C48.928 218.328 47.76 217.128 47.76 215.48C47.76 213.688 49.152 212.424 51.568 212.424C53.984 212.424 55.376 213.688 55.376 215.48ZM54.304 215.48C54.304 214.136 53.312 213.288 51.568 213.288C49.824 213.288 48.832 214.136 48.832 215.48C48.832 216.824 49.824 217.672 51.568 217.672C53.312 217.672 54.304 216.824 54.304 215.48ZM58.32 217.272V223.32H57.248V212.184H58.32V216.408H60.48V217.272H58.32ZM58.8 226.984H49.92C49.84 226.984 49.76 226.968 49.648 226.872C49.552 226.792 49.392 226.632 49.312 226.536C49.248 226.456 49.216 226.36 49.216 226.28V222.68H50.32V225.944C50.32 226.072 50.384 226.12 50.496 226.12H58.8V226.984ZM68.5945 219.688H62.4825C62.4025 219.688 62.3225 219.672 62.2105 219.576C62.1145 219.496 61.9545 219.336 61.8745 219.24C61.8105 219.16 61.7785 219.064 61.7785 218.984V212.824H62.8505V215.464H67.5385V212.824H68.5945V214.28H71.7305V212.184H72.8025V220.84H71.7305V218.312H68.5945V219.688ZM72.8025 221.8V225C72.8025 225.544 72.6905 226.552 72.5625 227.224H71.7305V222.664H63.9065V221.8H72.8025ZM62.8505 216.328V218.648C62.8505 218.776 62.9145 218.824 63.0265 218.824H67.5385V216.328H62.8505ZM68.5945 215.144V217.448H71.7305V215.144H68.5945ZM78.437 224.52V226.12C78.437 226.248 78.501 226.296 78.613 226.296H86.501V227.16H78.069C77.989 227.16 77.909 227.144 77.797 227.048C77.701 226.968 77.541 226.808 77.461 226.712C77.397 226.632 77.365 226.536 77.365 226.456V223.688H85.109V222.12H77.381V221.256H86.181V224.52H78.437ZM74.965 218.936H88.517V219.8H74.965V218.936ZM85.157 215.08C85.157 213.992 84.053 213.112 81.765 213.112C79.477 213.112 78.373 213.992 78.373 215.08C78.373 216.168 79.477 217.048 81.765 217.048C84.053 217.048 85.157 216.168 85.157 215.08ZM86.229 215.08C86.229 216.712 84.757 217.912 81.765 217.912C78.773 217.912 77.301 216.712 77.301 215.08C77.301 213.448 78.773 212.248 81.765 212.248C84.757 212.248 86.229 213.448 86.229 215.08ZM95.4284 215.288V214.424H105.556V215.288H101.044V216.328C101.044 216.68 101.188 216.92 101.54 217.096C102.708 217.688 104.692 218.424 106.228 218.872L105.892 219.704C104.244 219.208 101.7 218.232 100.5 217.576C99.3004 218.232 96.7724 219.208 95.1244 219.704L94.7564 218.872C96.2924 218.424 98.2764 217.688 99.4444 217.096C99.7964 216.92 99.9404 216.68 99.9404 216.328V215.288H95.4284ZM99.9564 227.16V222.104H93.6844V221.24H107.236V222.104H101.028V227.16H99.9564ZM103.236 213.208H99.9084C99.1084 213.208 98.1004 213.096 97.4124 212.856L97.6204 212.024C98.2924 212.216 99.2364 212.328 100.004 212.328H103.236V213.208ZM114.039 227.16V220.728H107.927V219.864H117.927C118.087 218.728 118.231 217.032 118.279 216.056C118.295 215.832 118.295 215.608 118.295 215.384V213.88H110.055V213.016H119.367V215.384C119.367 215.56 119.367 215.832 119.351 216.104C119.287 217.144 119.127 218.744 118.967 219.864H121.479V220.728H115.111V227.16H114.039ZM133.609 219.096V226.92H132.537V212.184H133.609V218.232H136.169V219.096H133.609ZM122.073 214.92H130.841V215.784H122.073V214.92ZM128.969 220.088C128.969 218.696 128.009 217.64 126.537 217.64C125.065 217.64 124.105 218.696 124.105 220.088C124.105 221.48 125.065 222.536 126.537 222.536C128.009 222.536 128.969 221.48 128.969 220.088ZM130.041 220.088C130.041 221.96 128.713 223.4 126.537 223.4C124.361 223.4 123.033 221.96 123.033 220.088C123.033 218.216 124.361 216.776 126.537 216.776C128.713 216.776 130.041 218.216 130.041 220.088ZM128.841 213.576H126.217C125.545 213.576 124.665 213.448 124.041 213.224L124.249 212.392C124.905 212.584 125.721 212.696 126.313 212.696H128.841V213.576ZM137.484 214.168V213.304H144.956V214.168H141.852V217.272C141.852 217.736 141.916 218.088 142.204 218.488C143.036 219.64 144.38 221.112 145.692 222.36L144.924 223.112C143.612 221.816 142.284 220.312 141.308 219.016C140.348 220.328 138.892 222.024 137.564 223.304L136.764 222.584C138.14 221.288 139.532 219.688 140.396 218.488C140.7 218.072 140.748 217.736 140.748 217.272V214.168H137.484ZM148.492 212.184V226.92H147.42V212.184H148.492ZM157.115 213.784V217.976C157.115 218.104 157.179 218.152 157.291 218.152H161.787V213.784H157.115ZM156.043 218.312V212.92H162.859V219.016H156.747C156.667 219.016 156.587 219 156.475 218.904C156.379 218.824 156.219 218.664 156.139 218.568C156.075 218.488 156.043 218.392 156.043 218.312ZM166.651 216.264V219.96H165.579V212.184H166.651V215.4H169.131V216.264H166.651ZM159.067 224.36V226.12C159.067 226.248 159.131 226.296 159.243 226.296H167.051V227.16H158.699C158.619 227.16 158.539 227.144 158.427 227.048C158.331 226.968 158.171 226.808 158.091 226.712C158.027 226.632 157.995 226.536 157.995 226.456V223.528H165.579V221.784H158.011V220.92H166.651V224.36H159.067ZM169.374 223.576H174.654V218.04H175.726V223.576H182.926V224.44H169.374V223.576ZM171.598 213.336H180.734V216.328C180.734 216.6 180.734 217 180.702 217.32C180.622 218.328 180.398 220.12 180.19 221.24L179.134 221.096C179.326 220.008 179.566 218.184 179.63 217.16C179.646 216.888 179.662 216.616 179.662 216.328V214.2H171.598V213.336ZM184.096 223.832H185.728V225.032C185.728 226.008 185.392 227.048 184.928 227.8H184.336C184.656 227.048 184.928 226.28 184.976 225.464H184.096V223.832ZM203.606 216.328V220.024H202.534V212.184H203.606V215.464H206.086V216.328H203.606ZM196.022 224.392V226.12C196.022 226.248 196.086 226.296 196.198 226.296H204.006V227.16H195.654C195.574 227.16 195.494 227.144 195.382 227.048C195.286 226.968 195.126 226.808 195.046 226.712C194.982 226.632 194.95 226.536 194.95 226.456V223.56H202.534V221.848H194.966V220.984H203.606V224.392H196.022ZM194.054 216.088V218.136C194.054 218.264 194.118 218.312 194.23 218.312H198.758V216.088H194.054ZM199.83 219.176H193.686C193.606 219.176 193.526 219.16 193.414 219.064C193.318 218.984 193.158 218.824 193.078 218.728C193.014 218.648 192.982 218.552 192.982 218.472V212.84H194.054V215.224H198.758V212.84H199.83V219.176ZM207.32 213.88V213.016H214.792V213.88H211.688V216.28C211.688 216.6 211.736 216.856 211.992 217.112C212.84 217.96 214.088 218.952 215.432 219.88L214.808 220.712C213.528 219.816 212.088 218.632 211.144 217.704C210.12 218.776 208.632 220.008 207.272 220.952L206.616 220.152C208.008 219.176 209.416 218.008 210.28 217.112C210.52 216.872 210.584 216.6 210.584 216.28V213.88H207.32ZM214.2 216.712V215.848H217.336V212.184H218.408V222.776H217.336V216.712H214.2ZM218.888 226.984H210.408C210.328 226.984 210.248 226.968 210.136 226.872C210.04 226.792 209.88 226.632 209.8 226.536C209.736 226.456 209.704 226.36 209.704 226.28V222.136H210.808V225.944C210.808 226.072 210.872 226.12 210.984 226.12H218.888V226.984ZM224.043 224.52V226.12C224.043 226.248 224.107 226.296 224.219 226.296H232.107V227.16H223.675C223.595 227.16 223.515 227.144 223.403 227.048C223.307 226.968 223.147 226.808 223.067 226.712C223.003 226.632 222.971 226.536 222.971 226.456V223.688H230.715V222.12H222.987V221.256H231.787V224.52H224.043ZM220.571 218.936H234.123V219.8H220.571V218.936ZM230.763 215.08C230.763 213.992 229.659 213.112 227.371 213.112C225.083 213.112 223.979 213.992 223.979 215.08C223.979 216.168 225.083 217.048 227.371 217.048C229.659 217.048 230.763 216.168 230.763 215.08ZM231.835 215.08C231.835 216.712 230.363 217.912 227.371 217.912C224.379 217.912 222.907 216.712 222.907 215.08C222.907 213.448 224.379 212.248 227.371 212.248C230.363 212.248 231.835 213.448 231.835 215.08ZM241.034 215.288V214.424H251.162V215.288H246.65V216.328C246.65 216.68 246.794 216.92 247.146 217.096C248.314 217.688 250.298 218.424 251.834 218.872L251.498 219.704C249.85 219.208 247.306 218.232 246.106 217.576C244.906 218.232 242.378 219.208 240.73 219.704L240.362 218.872C241.898 218.424 243.882 217.688 245.05 217.096C245.402 216.92 245.546 216.68 245.546 216.328V215.288H241.034ZM245.562 227.16V222.104H239.29V221.24H252.842V222.104H246.634V227.16H245.562ZM248.842 213.208H245.514C244.714 213.208 243.706 213.096 243.018 212.856L243.226 212.024C243.898 212.216 244.842 212.328 245.61 212.328H248.842V213.208ZM259.645 227.16V220.728H253.533V219.864H263.533C263.693 218.728 263.837 217.032 263.885 216.056C263.901 215.832 263.901 215.608 263.901 215.384V213.88H255.661V213.016H264.973V215.384C264.973 215.56 264.973 215.832 264.957 216.104C264.893 217.144 264.733 218.744 264.573 219.864H267.085V220.728H260.717V227.16H259.645ZM279.215 219.096V226.92H278.143V212.184H279.215V218.232H281.775V219.096H279.215ZM267.679 214.92H276.447V215.784H267.679V214.92ZM274.575 220.088C274.575 218.696 273.615 217.64 272.143 217.64C270.671 217.64 269.711 218.696 269.711 220.088C269.711 221.48 270.671 222.536 272.143 222.536C273.615 222.536 274.575 221.48 274.575 220.088ZM275.647 220.088C275.647 221.96 274.319 223.4 272.143 223.4C269.967 223.4 268.639 221.96 268.639 220.088C268.639 218.216 269.967 216.776 272.143 216.776C274.319 216.776 275.647 218.216 275.647 220.088ZM274.447 213.576H271.823C271.151 213.576 270.271 213.448 269.647 213.224L269.855 212.392C270.511 212.584 271.327 212.696 271.919 212.696H274.447V213.576ZM293.458 218.152V226.92H292.386V212.184H293.458V217.288H296.018V218.152H293.458ZM291.282 221.512L291.362 222.328C290.498 222.488 288.914 222.616 287.89 222.616H283.618C283.538 222.616 283.458 222.6 283.346 222.504C283.25 222.424 283.09 222.264 283.01 222.168C282.946 222.088 282.914 221.992 282.914 221.912V217.384H288.354V214.136H282.946V213.272H289.426V218.216H283.986V221.576C283.986 221.704 284.05 221.752 284.162 221.752H287.922C288.978 221.752 290.386 221.656 291.282 221.512ZM296.756 223.976H298.388V225.608H296.756V223.976Z" fill="#FFF9E2"/>
<g opacity="0.45" clip-path="url(#clip0_1781_530)">
<path d="M48.6872 2.20682C47.4186 3.21844 44.5996 5.09716 42.4854 7.9875C41.9216 8.71008 41.2168 10.1553 40.2302 12.612C39.3845 14.9243 38.9616 16.9475 38.8207 18.5372C42.0625 16.3695 45.4453 16.9475 47.8415 18.6817C49.9557 20.2714 51.5061 22.5837 51.5061 25.9076C51.5061 30.6766 47.5596 34.0005 43.1901 34.0005C38.5388 34.0005 35.5788 31.5437 34.3103 26.6302C33.4646 22.8727 34.3103 14.3462 37.4112 9.43267C40.2302 4.37458 44.4587 1.33972 47.7005 0.183589C49.8148 -0.538996 50.2376 1.05069 48.6872 2.20682ZM69.1812 2.20682C67.9127 3.21844 65.0937 5.09716 62.9794 7.9875C62.4156 8.71008 61.7109 10.1553 60.7242 12.612C59.8786 14.9243 59.4557 16.9475 59.3148 18.5372C62.5566 16.3695 65.9394 16.9475 68.3355 18.6817C70.4498 20.2714 72.0002 22.5837 72.0002 25.9076C72.0002 30.6766 68.0536 34.0005 63.6842 34.0005C59.0329 34.0005 56.0729 31.5437 54.8044 26.6302C53.9587 22.8727 54.8044 14.3462 57.9053 9.43267C60.7242 4.37458 64.9527 1.33972 68.1946 0.183589C70.3088 -0.538996 70.7317 1.05069 69.1812 2.20682Z" fill="#F9DDFF"/>
</g>
<defs>
<clipPath id="clip0_1781_530">
<rect width="38" height="34" fill="white" transform="translate(34)"/>
</clipPath>
</defs>
</svg>
