<svg width="67" height="68" viewBox="0 0 67 68" fill="none" xmlns="http://www.w3.org/2000/svg">
<mask id="path-1-inside-1_1679_4049" fill="white">
<path d="M31.2578 0.677734C32.3629 -0.226149 33.9517 -0.22628 35.0566 0.677734L65.209 25.3447C67.3909 27.13 66.1278 30.6668 63.3086 30.667H56.6543V60.1885C56.6543 64.0545 53.5203 67.1885 49.6543 67.1885H16.6602C12.7942 67.1885 9.66016 64.0545 9.66016 60.1885V30.667H3.00586C0.186452 30.667 -1.07572 27.13 1.10645 25.3447L31.2578 0.677734Z"/>
</mask>
<path d="M31.2578 0.677734L29.3584 -1.6444L29.3582 -1.64422L31.2578 0.677734ZM35.0566 0.677734L33.157 2.99967L33.1571 2.99972L35.0566 0.677734ZM65.209 25.3447L67.1087 23.0229L67.1086 23.0227L65.209 25.3447ZM63.3086 30.667L63.3086 33.667L63.3088 33.667L63.3086 30.667ZM56.6543 30.667V27.667H53.6543V30.667H56.6543ZM49.6543 67.1885L49.6543 70.1885L49.6543 70.1885L49.6543 67.1885ZM9.66016 30.667H12.6602V27.667H9.66016V30.667ZM3.00586 30.667L3.00586 33.667H3.00586V30.667ZM1.10645 25.3447L-0.793162 23.0228L-0.793185 23.0228L1.10645 25.3447ZM31.2578 0.677734L33.1572 2.99987L33.157 2.99967L35.0566 0.677734L36.9563 -1.64421C34.746 -3.45247 31.5682 -3.45193 29.3584 -1.6444L31.2578 0.677734ZM35.0566 0.677734L33.1571 2.99972L63.3094 27.6667L65.209 25.3447L67.1086 23.0227L36.9562 -1.64425L35.0566 0.677734ZM65.209 25.3447L63.3092 27.6666C63.3239 27.6786 63.3312 27.6864 63.3334 27.6889C63.3357 27.6915 63.3347 27.6907 63.332 27.6865C63.3294 27.6823 63.3262 27.6765 63.3233 27.6697C63.3205 27.6629 63.3184 27.6565 63.317 27.651C63.3143 27.6398 63.3151 27.6358 63.3149 27.64C63.3148 27.642 63.3144 27.6456 63.3134 27.6505C63.3124 27.6553 63.3109 27.6607 63.3089 27.6664C63.3069 27.672 63.3046 27.6771 63.3023 27.6815C63.3 27.6859 63.298 27.689 63.2967 27.6907C63.2942 27.6941 63.2961 27.6905 63.3052 27.6838C63.3097 27.6804 63.3153 27.6768 63.3217 27.6734C63.3282 27.6699 63.3342 27.6675 63.3389 27.666C63.3436 27.6644 63.3448 27.6644 63.3414 27.665C63.3379 27.6655 63.3274 27.667 63.3084 27.667L63.3086 30.667L63.3088 33.667C68.9455 33.6666 71.4739 26.5945 67.1087 23.0229L65.209 25.3447ZM63.3086 30.667V27.667H56.6543V30.667V33.667H63.3086V30.667ZM56.6543 30.667H53.6543V60.1885H56.6543H59.6543V30.667H56.6543ZM56.6543 60.1885H53.6543C53.6543 62.3976 51.8634 64.1885 49.6543 64.1885L49.6543 67.1885L49.6543 70.1885C55.1771 70.1885 59.6543 65.7113 59.6543 60.1885H56.6543ZM49.6543 67.1885V64.1885H16.6602V67.1885V70.1885H49.6543V67.1885ZM16.6602 67.1885V64.1885C14.451 64.1885 12.6602 62.3976 12.6602 60.1885H9.66016H6.66016C6.66016 65.7113 11.1373 70.1885 16.6602 70.1885V67.1885ZM9.66016 60.1885H12.6602V30.667H9.66016H6.66016V60.1885H9.66016ZM9.66016 30.667V27.667H3.00586V30.667V33.667H9.66016V30.667ZM3.00586 30.667L3.00586 27.667C2.98686 27.667 2.97627 27.6655 2.97286 27.665C2.96945 27.6644 2.9707 27.6644 2.97545 27.666C2.98013 27.6675 2.98615 27.67 2.99272 27.6735C2.99921 27.6769 3.00486 27.6805 3.00942 27.6839C3.01859 27.6908 3.02053 27.6945 3.01808 27.6911C3.01687 27.6894 3.0149 27.6864 3.01261 27.6821C3.01031 27.6777 3.00804 27.6726 3.00603 27.667C3.00403 27.6614 3.00256 27.656 3.00158 27.6512C3.00059 27.6463 3.00023 27.6428 3.00011 27.6407C2.99986 27.6365 3.0007 27.6405 2.99795 27.6516C2.99659 27.6571 2.99454 27.6634 2.99169 27.6702C2.9888 27.677 2.98572 27.6827 2.9831 27.6868C2.98045 27.691 2.97947 27.6917 2.98177 27.6891C2.98408 27.6865 2.99136 27.6787 3.00608 27.6667L1.10645 25.3447L-0.793185 23.0228C-5.1569 26.5928 -2.63375 33.667 3.00586 33.667L3.00586 30.667ZM1.10645 25.3447L3.00605 27.6667L33.1574 2.99969L31.2578 0.677734L29.3582 -1.64422L-0.793162 23.0228L1.10645 25.3447Z" fill="#7D5C7D" mask="url(#path-1-inside-1_1679_4049)"/>
<path d="M22.2832 53.324L23.8147 47.4021L24.087 47.4361C24.8017 52.337 27.9329 55.8766 32.9359 55.8766C37.3943 55.8766 41.07 54.0047 41.07 49.7845C41.07 41.8205 22.5214 45.326 22.5214 34.8775C22.5214 29.296 28.3753 27.2539 33.9569 27.2539C37.6666 27.2539 40.6276 28.0027 43.8608 29.6023L42.1591 35.4902L41.8188 35.4561C41.6486 30.9636 38.2792 27.6283 33.9229 27.6283C29.9409 27.6283 26.3673 29.7384 26.3673 33.5842C26.3673 41.0718 45.052 37.2259 45.052 47.9126C45.052 54.2089 39.3683 56.2169 32.9699 56.2169C29.056 56.2169 25.5845 55.3661 22.2832 53.324Z" fill="#7D5C7D"/>
</svg>
