<svg width="272" height="369" viewBox="0 0 272 369" fill="none" xmlns="http://www.w3.org/2000/svg">
<g clip-path="url(#clip0_1592_5219)">
<path d="M187.113 180.184C186.485 179.467 186.043 178.528 185.771 177.358C185.508 176.188 185.355 174.857 185.338 173.354C185.313 171.852 185.304 170.289 185.304 168.676V153.574C185.304 152.788 185.262 152.011 185.168 151.252C184.948 148.468 184.243 146.129 183.063 144.217C181.883 142.313 180.354 140.777 178.478 139.607C176.602 138.437 174.454 137.601 172.017 137.08C169.589 136.568 166.982 136.303 164.223 136.303C161.905 136.303 159.926 136.704 158.296 137.515C156.666 138.326 155.384 139.368 154.45 140.648C153.516 141.929 152.947 143.321 152.743 144.823C152.54 146.326 152.71 147.785 153.244 149.194C153.779 150.603 154.705 151.849 156.021 152.925C157.337 154.001 159.018 154.743 161.073 155.144C158.84 155.546 156.725 156.075 154.713 156.724C152.71 157.373 150.944 158.235 149.424 159.311C148.727 159.806 148.108 160.352 147.547 160.941C147.658 159.994 147.709 158.995 147.709 157.97C147.709 154.444 147.012 151.465 145.611 149.04C144.211 146.616 142.368 144.584 140.076 142.936C137.783 141.289 135.168 139.931 132.222 138.856C129.276 137.78 126.27 136.807 123.214 135.936C120.149 135.074 117.143 134.22 114.205 133.383C111.259 132.547 108.644 131.573 106.352 130.472C104.059 129.362 102.217 127.988 100.816 126.349C99.415 124.701 98.7187 122.661 98.7187 120.202C98.7187 117.743 99.2536 115.447 100.323 113.475C101.393 111.503 102.854 109.855 104.696 108.54C106.538 107.226 108.653 106.227 111.03 105.535C113.407 104.852 115.903 104.502 118.527 104.502C121.38 104.502 124.046 105.023 126.508 106.073C128.979 107.123 131.135 108.557 132.978 110.376C134.82 112.203 136.297 114.388 137.393 116.924C138.497 119.468 139.099 122.2 139.218 125.136L140.11 125.23L144.567 109.71C140.339 107.618 136.179 106.065 132.078 105.049C127.977 104.033 123.485 103.521 118.603 103.521C114.91 103.521 111.285 103.879 107.719 104.596C104.153 105.313 100.952 106.466 98.1244 108.054C95.2971 109.642 93.0047 111.699 91.2556 114.243C89.4981 116.787 88.6236 119.912 88.6236 123.617C88.6236 127.083 89.3198 130.003 90.7207 132.367C92.1132 134.732 93.9471 136.747 96.2056 138.42C98.464 140.094 101.054 141.502 103.966 142.638C106.878 143.773 109.867 144.806 112.932 145.737C115.997 146.667 118.985 147.589 121.898 148.52C124.81 149.45 127.399 150.534 129.658 151.798C131.916 153.053 133.75 154.564 135.143 156.331C136.544 158.098 137.24 160.292 137.24 162.922C137.24 165.731 136.671 168.138 135.542 170.144C134.413 172.15 132.876 173.807 130.948 175.121C129.013 176.436 126.754 177.409 124.165 178.041C121.575 178.673 118.824 178.98 115.912 178.98C112.643 178.98 109.68 178.425 107.031 177.324C104.382 176.214 102.081 174.677 100.12 172.705C98.1584 170.733 96.5537 168.386 95.3056 165.662C94.0575 162.939 93.1915 159.968 92.716 156.732L92.0028 156.638L87.9868 172.253C92.3254 174.942 96.8084 176.889 101.419 178.084C106.029 179.279 110.894 179.877 116.005 179.877C120.166 179.877 124.173 179.518 128.002 178.801C131.84 178.084 135.211 176.871 138.131 175.164C140.704 173.661 142.818 171.715 144.465 169.35C144.593 173.192 145.951 176.274 148.558 178.579C151.3 181.003 155.325 182.164 160.64 182.079C164.74 182.036 168.137 181.046 170.811 179.117C173.486 177.187 175.447 174.455 176.704 170.904C176.704 173.055 176.958 174.848 177.476 176.282C177.986 177.717 178.784 178.852 179.853 179.68C180.923 180.508 182.282 181.106 183.937 181.464C185.585 181.823 187.571 182.002 189.889 182.002V181.26C188.641 181.26 187.699 180.901 187.079 180.184H187.113ZM176.737 163.357C176.737 166.499 176.372 169.145 175.634 171.297C174.895 173.448 173.902 175.198 172.645 176.547C171.388 177.896 169.903 178.869 168.179 179.475C166.456 180.081 164.63 180.38 162.711 180.38C159.315 180.38 156.853 179.407 155.333 177.452C153.813 175.497 153.049 172.825 153.049 169.41C153.049 167.037 153.44 165.013 154.221 163.357C155.002 161.701 156.046 160.327 157.337 159.251C158.636 158.175 160.113 157.347 161.769 156.758C163.424 156.177 165.14 155.751 166.906 155.477C168.672 155.204 170.404 155.068 172.11 155.042C173.808 155.016 175.354 155.008 176.737 155.008V163.349V163.357ZM174.725 154.205C173.027 154.205 171.278 154.24 169.495 154.308C167.704 154.376 165.87 154.521 163.993 154.743C161.939 154.743 160.003 154.342 158.186 153.531C156.377 152.72 155.002 151.354 154.059 149.425C153.609 148.349 153.363 147.316 153.321 146.326C153.321 144.797 153.618 143.457 154.229 142.288C154.832 141.118 155.63 140.145 156.615 139.359C157.6 138.574 158.738 137.993 160.037 137.609C161.336 137.225 162.677 137.037 164.061 137.037C166.481 137.08 168.476 137.541 170.064 138.42C171.652 139.291 172.942 140.486 173.927 141.989C174.912 143.491 175.617 145.284 176.041 147.376C176.466 149.459 176.704 151.738 176.746 154.205H174.734H174.725Z" fill="#A6743A"/>
<path d="M119.818 273.409C121.057 273.409 122.076 273.238 122.866 272.888C123.655 272.538 124.25 272.018 124.649 271.318C125.048 270.617 125.32 269.738 125.464 268.662C125.608 267.587 125.685 266.332 125.685 264.889V218.464C125.685 217.371 125.634 216.381 125.532 215.51C125.43 214.64 125.209 213.888 124.861 213.265C124.513 212.642 124.021 212.155 123.375 211.805C122.73 211.455 121.864 211.284 120.769 211.284V210.533H147.539C150.91 210.533 153.924 211.028 156.573 212.027C159.222 213.026 161.54 214.341 163.527 215.988C165.505 217.636 167.194 219.531 168.578 221.674C169.962 223.817 171.092 226.037 171.958 228.325C172.824 230.621 173.443 232.9 173.817 235.163C174.191 237.434 174.377 239.508 174.377 241.403C174.377 243.649 174.191 246.005 173.817 248.472C173.443 250.939 172.824 253.398 171.958 255.84C171.092 258.281 169.962 260.603 168.578 262.789C167.186 264.983 165.505 266.929 163.527 268.62C161.54 270.319 159.222 271.659 156.573 272.658C153.924 273.657 150.91 274.152 147.539 274.152H119.801V273.401L119.818 273.409ZM144.652 273.332C148.465 273.332 151.682 272.436 154.28 270.643C156.887 268.85 158.967 266.468 160.529 263.506C162.092 260.544 163.204 257.137 163.875 253.304C164.545 249.471 164.877 245.501 164.877 241.421C164.877 237.34 164.495 233.78 163.722 230.169C162.949 226.557 161.718 223.356 160.003 220.564C158.296 217.773 156.097 215.544 153.423 213.871C150.748 212.198 147.471 211.37 143.608 211.37H135.202V273.349H144.644L144.652 273.332Z" fill="#A6743A"/>
<path d="M141.91 199.359C144.78 199.359 147.106 197.019 147.106 194.134C147.106 191.248 144.78 188.909 141.91 188.909C139.04 188.909 136.714 191.248 136.714 194.134C136.714 197.019 139.04 199.359 141.91 199.359Z" fill="#A6743A"/>
<path d="M19.0023 177.717C18.5353 178.981 17.924 179.971 17.1599 180.688C16.3958 181.405 15.4958 181.747 14.4345 181.713C13.4071 181.679 12.5326 181.286 11.8109 180.518C11.0892 179.758 10.7496 178.844 10.7836 177.794C10.8175 176.753 11.2166 175.865 11.9722 175.139C12.3798 174.738 12.8298 174.473 13.3307 174.328L13.6618 175.25C13.2882 175.37 12.9486 175.583 12.6345 175.882C12.0826 176.411 11.7939 177.06 11.7685 177.828C11.743 178.597 11.9977 179.263 12.5156 179.826C13.0335 180.39 13.6873 180.68 14.4684 180.705C15.2411 180.731 15.9033 180.475 16.4637 179.946C16.9816 179.45 17.4571 178.768 17.9071 177.88C18.4165 176.462 19.1721 175.276 20.1825 174.328C21.2438 173.321 22.5089 172.843 23.9692 172.885C25.4381 172.928 26.6777 173.492 27.6796 174.559C28.6814 175.626 29.1654 176.898 29.1229 178.358C29.0805 179.818 28.5201 181.055 27.4418 182.063C26.5843 182.865 25.6079 183.335 24.5041 183.463L24.19 182.498C25.1664 182.421 26.0239 182.037 26.7711 181.337C27.6371 180.518 28.0956 179.519 28.1296 178.332C28.1635 177.137 27.773 176.104 26.9579 175.233C26.1428 174.362 25.1324 173.91 23.9438 173.876C22.7551 173.842 21.7278 174.226 20.8617 175.045C20.0976 175.762 19.4863 176.65 19.0108 177.709L19.0023 177.717Z" fill="#A6743A"/>
<path d="M30.2182 159.227L30.1333 160.234L27.9003 160.038C28.1465 160.251 28.3758 160.49 28.588 160.738C29.6833 162.044 30.1503 163.546 29.9974 165.237C29.8446 166.927 29.1229 168.319 27.8154 169.403C26.5079 170.496 25.0135 170.965 23.3239 170.812C21.6259 170.658 20.2334 169.932 19.1466 168.626C18.0514 167.32 17.5844 165.826 17.7372 164.135C17.8901 162.437 18.6117 161.045 19.9193 159.952C20.174 159.739 20.4457 159.551 20.7259 159.38L19.1721 159.244L19.257 158.236L30.2097 159.218L30.2182 159.227ZM25.3107 159.807L23.3239 159.628C22.3221 159.73 21.4221 160.114 20.6155 160.789C19.5372 161.694 18.9429 162.838 18.8155 164.238C18.6882 165.638 19.0787 166.876 19.9787 167.952C20.8787 169.027 22.0334 169.633 23.4258 169.753C24.8268 169.881 26.0579 169.488 27.1362 168.592C28.206 167.687 28.8088 166.543 28.9361 165.143C29.0635 163.743 28.6729 162.505 27.7729 161.429C27.0937 160.618 26.2786 160.08 25.3192 159.807H25.3107Z" fill="#A6743A"/>
<path d="M19.7832 154.6L19.9191 153.601L21.9058 153.874C21.6426 153.626 21.3879 153.345 21.1502 153.037C20.3945 152.039 20.0549 151.065 20.1313 150.135L21.2181 150.288C21.1587 150.92 21.4219 151.62 22.0077 152.389C22.8143 153.464 23.8756 154.113 25.1916 154.335L30.8123 155.112L30.6765 156.111L19.7832 154.6Z" fill="#A6743A"/>
<path d="M33.7159 137.985L33.5291 138.976L31.3301 138.557C31.5509 138.796 31.7546 139.053 31.9499 139.326C32.9093 140.734 33.232 142.271 32.9178 143.944C32.6037 145.609 31.7461 146.924 30.3452 147.88C28.9443 148.836 27.4075 149.161 25.7434 148.845C24.0708 148.529 22.7547 147.667 21.7953 146.258C20.8359 144.849 20.5133 143.313 20.8274 141.648C21.1416 139.975 21.9991 138.66 23.4 137.704C23.6802 137.524 23.9604 137.354 24.2576 137.217L22.7293 136.927L22.9161 135.937L33.7244 137.985H33.7159ZM28.7745 138.071L26.8132 137.704C25.8113 137.704 24.8774 138.003 24.0028 138.592C22.8397 139.386 22.1349 140.47 21.8802 141.853C21.6255 143.236 21.8802 144.499 22.6783 145.66C23.4679 146.821 24.5547 147.53 25.9387 147.795C27.3141 148.059 28.5877 147.795 29.7424 147.001C30.8971 146.207 31.6018 145.122 31.865 143.739C32.1282 142.356 31.865 141.093 31.0669 139.932C30.4726 139.061 29.7084 138.438 28.783 138.071H28.7745Z" fill="#A6743A"/>
<path d="M23.5622 132.599L17.0161 131.054L17.2454 130.072L23.7915 131.617L23.5622 132.599Z" fill="#A6743A"/>
<path d="M30.6515 126.913C29.9808 127.622 29.4459 128.091 29.0468 128.33C28.4186 128.697 27.7478 128.783 27.0516 128.595C26.3469 128.407 25.8035 127.997 25.4384 127.366C25.0733 126.734 24.9799 126.068 25.1667 125.368C25.3535 124.659 25.7441 124.138 26.3214 123.797C26.8988 123.473 27.4676 123.387 28.045 123.541L28.0959 123.558L28.2063 124.489C27.6374 124.412 27.1789 124.471 26.8393 124.668C26.4912 124.864 26.262 125.18 26.1431 125.624C26.0242 126.059 26.0837 126.469 26.3044 126.862C26.5252 127.255 26.8648 127.511 27.2978 127.63C27.7308 127.75 28.1469 127.69 28.5374 127.468C28.7667 127.34 29.1402 127.024 29.6666 126.537C30.4138 125.752 31.0421 125.214 31.5345 124.924C32.3157 124.48 33.1392 124.369 33.9968 124.599C34.8798 124.839 35.542 125.342 36.0005 126.119C36.4505 126.896 36.5694 127.724 36.3317 128.595C36.1024 129.466 35.593 130.132 34.8119 130.575C34.0307 131.019 33.2751 131.147 32.5364 130.951V129.918C33.1817 130.089 33.7675 130.012 34.3024 129.705C34.8373 129.397 35.1939 128.936 35.3468 128.33C35.5081 127.733 35.4317 127.161 35.1175 126.614C34.8034 126.068 34.3449 125.718 33.7336 125.556C33.1308 125.393 32.5619 125.47 32.027 125.778C31.7383 125.948 31.2713 126.324 30.6431 126.905L30.6515 126.913Z" fill="#A6743A"/>
<path d="M44.1091 104.341L43.7525 105.28L41.6553 104.486C41.8336 104.759 41.9865 105.05 42.1308 105.348C42.8355 106.902 42.8864 108.473 42.2836 110.069C41.6893 111.657 40.6195 112.801 39.0657 113.493C37.5205 114.193 35.9497 114.244 34.362 113.638C32.7658 113.032 31.6196 111.956 30.9234 110.402C30.2272 108.849 30.1677 107.278 30.7621 105.698C31.3564 104.102 32.4347 102.958 33.98 102.258C34.2856 102.13 34.5913 102.019 34.9054 101.925L26.9753 98.9115L27.3319 97.9639L44.1006 104.324L44.1091 104.341ZM39.2271 103.564L37.3592 102.856C36.3743 102.676 35.3979 102.813 34.4384 103.24C33.1649 103.82 32.2734 104.759 31.7809 106.074C31.2885 107.389 31.3309 108.686 31.9083 109.967C32.4856 111.248 33.4366 112.135 34.7441 112.639C36.0516 113.143 37.3507 113.1 38.6242 112.52C39.8978 111.939 40.7808 110.992 41.2733 109.685C41.7657 108.379 41.7232 107.073 41.1459 105.792C40.7129 104.828 40.0676 104.085 39.2186 103.564H39.2271Z" fill="#A6743A"/>
<path d="M44.3381 98.7665C45.5183 98.2799 46.3928 97.4432 46.9447 96.2566C47.539 94.9845 47.5899 93.6869 47.1145 92.3636C47.055 92.1929 46.9871 92.0307 46.9107 91.8685L47.7003 91.066C47.8616 91.3563 48.006 91.6636 48.1248 91.9965C48.7107 93.6015 48.6427 95.1723 47.9211 96.709C47.2079 98.2457 46.0532 99.3043 44.457 99.8763C42.8607 100.448 41.29 100.38 39.7532 99.6543C38.2165 98.9287 37.1637 97.7676 36.5778 96.1712C35.992 94.5747 36.0599 93.0039 36.7816 91.4672C37.3929 90.1525 38.3268 89.1793 39.5749 88.5646C39.7872 88.4622 40.008 88.3768 40.2457 88.2914C40.3306 88.2573 40.424 88.2317 40.5089 88.2061L40.874 89.222L44.3466 98.775L44.3381 98.7665ZM39.94 89.5891C38.9636 90.0928 38.2335 90.8696 37.741 91.9197C37.1552 93.1832 37.0957 94.4808 37.5712 95.7956C38.0467 97.1188 38.9212 98.075 40.1947 98.6726C41.2476 99.1677 42.3089 99.2958 43.3787 99.0567L39.94 89.5805V89.5891Z" fill="#A6743A"/>
<path d="M47.403 84.5177C46.5879 85.047 45.9512 85.38 45.5097 85.508C44.8134 85.7129 44.1427 85.6361 43.5059 85.2861C42.8691 84.936 42.4361 84.4067 42.2323 83.6982C42.0286 82.9896 42.0965 82.3237 42.4446 81.6919C42.7927 81.0516 43.2936 80.6333 43.9389 80.4455C44.5757 80.2662 45.1531 80.326 45.6795 80.6077L45.7304 80.6333L45.62 81.5639C45.0851 81.3504 44.6266 81.3078 44.2446 81.4102C43.8625 81.5212 43.5653 81.7688 43.3446 82.17C43.1323 82.5627 43.0814 82.981 43.2087 83.4164C43.3361 83.8518 43.5993 84.1762 43.9984 84.3982C44.3889 84.6116 44.8049 84.6628 45.238 84.5348C45.4927 84.458 45.9257 84.2531 46.554 83.903C47.4709 83.314 48.2011 82.9469 48.7445 82.7847C49.6105 82.5371 50.4341 82.631 51.2152 83.0579C52.0133 83.5018 52.5397 84.1506 52.7945 85.0129C53.0492 85.8751 52.9643 86.7118 52.5313 87.4972C52.0982 88.2826 51.453 88.8119 50.5869 89.0595C49.7209 89.307 48.9568 89.2473 48.286 88.8802L48.5407 87.8813C49.1181 88.1972 49.7039 88.2741 50.3068 88.0948C50.9096 87.9155 51.3511 87.5569 51.6482 87.0191C51.9454 86.4813 52.0048 85.9007 51.835 85.3031C51.6652 84.697 51.3001 84.2445 50.7398 83.9372C50.1964 83.6384 49.6275 83.5786 49.0332 83.7494C48.7106 83.8433 48.1672 84.0994 47.42 84.5092L47.403 84.5177Z" fill="#A6743A"/>
<path d="M43.4803 73.3942C43.752 73.3259 43.9982 73.36 44.2359 73.5052C44.4822 73.6503 44.635 73.8637 44.6944 74.1284C44.7623 74.4016 44.7199 74.6491 44.5756 74.8882C44.4312 75.1272 44.2274 75.2809 43.9642 75.3492C43.6925 75.4175 43.4378 75.3748 43.2001 75.2297C42.9624 75.0845 42.8095 74.8796 42.7501 74.6065C42.6822 74.3333 42.7246 74.0857 42.869 73.8467C43.0133 73.6076 43.2171 73.4539 43.4888 73.3857L43.4803 73.3942ZM46.4519 75.4516L55.8594 81.18L55.3414 82.0423L45.934 76.3139L46.4519 75.4516Z" fill="#A6743A"/>
<path d="M61.8959 68.1606C61.9892 68.4508 62.0572 68.7496 62.1166 69.057C62.4138 70.7388 62.0826 72.2755 61.1147 73.667C60.1468 75.0586 58.8308 75.8952 57.1582 76.194C55.4856 76.4843 53.9573 76.1428 52.5648 75.1696C51.1724 74.1878 50.3234 72.8645 50.0262 71.1827C49.729 69.5095 50.0602 67.9728 51.0281 66.5812C51.996 65.1811 53.312 64.336 54.9761 64.0372C55.3073 63.9859 55.6299 63.9518 55.9525 63.9433L54.679 63.0469L55.2563 62.2188L62.2609 67.1447C63.6109 68.0923 64.4345 69.3899 64.7317 71.0291C65.0288 72.7109 64.6977 74.239 63.7298 75.6306C62.7619 77.0221 61.4374 77.8673 59.7647 78.1661C59.4251 78.2259 59.0855 78.26 58.7544 78.26L59.0516 77.1672C59.2299 77.1502 59.3997 77.1331 59.578 77.099C60.9534 76.8599 62.0487 76.1599 62.8468 75.0074C63.6449 73.8634 63.9166 72.5999 63.6704 71.2083C63.4411 69.9448 62.8468 68.9289 61.8874 68.1521L61.8959 68.1606ZM58.0497 65.4287C57.1497 65.036 56.1903 64.925 55.1714 65.1043C53.796 65.3433 52.7007 66.0434 51.9026 67.1959C51.1045 68.3484 50.8243 69.6119 51.0705 71.0034C51.3168 72.3865 52.0215 73.4878 53.1677 74.2988C54.3224 75.1098 55.5874 75.3915 56.9629 75.1525C58.3468 74.9134 59.4336 74.2134 60.2317 73.0609C61.0298 71.9084 61.31 70.6449 61.0638 69.2533C60.8855 68.246 60.461 67.3752 59.7902 66.6581L58.0497 65.4287Z" fill="#A6743A"/>
<path d="M60.3169 59.871L66.8121 65.4543L66.1583 66.2226L57.8037 59.0344L58.4575 58.266L58.9924 58.727C58.8905 57.4294 59.2386 56.3281 60.0282 55.3975C60.8688 54.4072 61.8621 53.8694 63.0084 53.784C64.1546 53.6987 65.2074 54.0487 66.1583 54.8426L71.7535 59.649L71.0998 60.4174L65.5725 55.6707C64.8678 55.0646 64.0357 54.7999 63.1017 54.8768C62.1593 54.9622 61.3952 55.3549 60.7923 56.0549C60.1895 56.755 59.9263 57.5745 59.9858 58.5136C60.0282 59.0344 60.1386 59.4783 60.3254 59.8625L60.3169 59.871Z" fill="#A6743A"/>
<path d="M67.8054 38.153L68.5865 37.5127L73.9355 44.1119C73.9185 43.796 73.9355 43.4716 73.9609 43.1301C74.1308 41.4312 74.8609 40.0482 76.1685 38.9811C77.4845 37.9054 78.9788 37.4529 80.6599 37.6322C82.341 37.8115 83.725 38.5628 84.8032 39.8946C85.873 41.2178 86.3315 42.7203 86.1617 44.4192C86.0004 46.1181 85.2617 47.5011 83.9457 48.5768C82.6382 49.6525 81.1439 50.0964 79.4543 49.9171C79.1231 49.883 78.8005 49.8232 78.4948 49.7464L79.9043 51.488L79.1231 52.1282L67.7969 38.1615L67.8054 38.153ZM75.5487 46.1181L76.8817 47.7572C77.6373 48.3805 78.5288 48.7475 79.5561 48.85C80.9486 48.9951 82.1882 48.628 83.2665 47.7402C84.3448 46.8523 84.9646 45.7083 85.1004 44.3082C85.2363 42.9082 84.8712 41.6617 83.9797 40.569C83.0967 39.4762 81.9504 38.853 80.558 38.7079C79.1656 38.5628 77.926 38.9299 76.8477 39.8177C75.7694 40.7056 75.1581 41.8496 75.0138 43.2496C74.9119 44.2826 75.0902 45.2388 75.5487 46.1096V46.1181Z" fill="#A6743A"/>
<path d="M84.7437 33.7993L85.5842 33.2444L86.6795 34.9348C86.688 34.5677 86.7389 34.192 86.8153 33.8079C87.07 32.57 87.571 31.6821 88.3266 31.1357L88.9294 32.0577C88.42 32.4334 88.0634 33.0907 87.8681 34.0298C87.588 35.3531 87.8002 36.5824 88.4964 37.7179L91.6039 42.4986L90.7634 43.0536L84.7521 33.7908L84.7437 33.7993Z" fill="#A6743A"/>
<path d="M90.4242 26.0386C90.6874 26.1069 90.8912 26.2691 91.027 26.5081C91.1714 26.7557 91.1969 27.0118 91.1204 27.285C91.044 27.5496 90.8912 27.7545 90.6535 27.8911C90.4157 28.0277 90.161 28.0619 89.8978 27.985C89.6346 27.9082 89.4308 27.7545 89.2865 27.5069C89.1507 27.2679 89.1167 27.0118 89.1931 26.7471C89.2695 26.4825 89.4224 26.2776 89.6686 26.141C89.9063 26.0044 90.161 25.9703 90.4242 26.0471V26.0386ZM92.0289 29.2912L97.4628 38.904L96.5883 39.3992L91.1544 29.7864L92.0289 29.2912Z" fill="#A6743A"/>
<path d="M97.6158 29.0431L101.131 36.8716L100.214 37.2899L95.6885 27.2076L96.6054 26.7893L96.8941 27.4381C97.3526 26.2258 98.1337 25.3721 99.2375 24.8684C100.418 24.3306 101.538 24.2708 102.617 24.6806C103.686 25.0904 104.493 25.8587 105.019 26.9856L108.051 33.73L107.134 34.1483L104.145 27.4893C103.763 26.6356 103.126 26.0465 102.243 25.7136C101.36 25.3892 100.494 25.4148 99.6535 25.7904C98.813 26.1746 98.2271 26.7978 97.879 27.6686C97.7007 28.1552 97.6073 28.6077 97.6158 29.0345V29.0431Z" fill="#A6743A"/>
<path d="M120.395 27.7471C120.276 28.0288 120.149 28.302 119.996 28.5752C119.155 30.0521 117.916 31.0168 116.277 31.4607C114.647 31.9046 113.101 31.6912 111.633 30.8375C110.164 29.9838 109.213 28.7374 108.771 27.0897C108.33 25.4335 108.525 23.8712 109.374 22.3943C110.215 20.9174 111.454 19.9612 113.085 19.5173C114.723 19.0733 116.268 19.2782 117.737 20.1234C118.017 20.2941 118.289 20.482 118.544 20.6869L118.136 19.1758L119.104 18.9111L121.329 27.2092C121.753 28.8142 121.558 30.3338 120.743 31.7766C119.902 33.2535 118.663 34.2182 117.033 34.6536C115.394 35.0975 113.849 34.8926 112.38 34.0389C112.083 33.8596 111.802 33.6718 111.548 33.4584L112.473 32.8096C112.618 32.912 112.762 33.0059 112.923 33.0998C114.137 33.8084 115.419 33.9792 116.761 33.6121C118.102 33.245 119.121 32.4595 119.817 31.2302C120.454 30.1204 120.649 28.9508 120.403 27.7385L120.395 27.7471ZM119.198 23.1712C118.765 22.2833 118.094 21.5833 117.202 21.0625C115.988 20.3539 114.706 20.1832 113.365 20.5503C112.015 20.9174 110.996 21.7113 110.3 22.9321C109.603 24.1529 109.442 25.4506 109.807 26.808C110.172 28.1654 110.962 29.2069 112.176 29.9155C113.39 30.6241 114.672 30.7948 116.014 30.4277C117.364 30.0606 118.383 29.2667 119.079 28.0459C119.588 27.158 119.817 26.2189 119.758 25.2371L119.206 23.1712H119.198Z" fill="#A6743A"/>
<path d="M127.111 23.3152C126.211 22.9481 125.583 22.6151 125.218 22.3248C124.649 21.8638 124.326 21.2748 124.25 20.5491C124.165 19.8149 124.352 19.1661 124.802 18.5856C125.252 18.0136 125.837 17.6807 126.551 17.6038C127.272 17.527 127.901 17.6977 128.427 18.116C128.937 18.5344 129.225 19.0466 129.293 19.6442V19.704L128.478 20.1479C128.342 19.593 128.121 19.1832 127.807 18.9356C127.502 18.6795 127.12 18.5856 126.67 18.6368C126.228 18.688 125.863 18.8844 125.583 19.2429C125.303 19.593 125.184 20.0028 125.235 20.4552C125.286 20.8991 125.481 21.2662 125.838 21.5565C126.041 21.7187 126.466 21.9578 127.103 22.2736C128.104 22.6919 128.826 23.0761 129.276 23.4347C129.972 24.0067 130.371 24.7323 130.473 25.6202C130.575 26.5337 130.346 27.3361 129.794 28.0447C129.234 28.7533 128.512 29.1545 127.62 29.257C126.729 29.3594 125.931 29.1204 125.235 28.557C124.538 27.9935 124.148 27.3276 124.063 26.5678L125.022 26.2007C125.099 26.8581 125.379 27.3788 125.863 27.7715C126.347 28.1642 126.899 28.3264 127.519 28.2581C128.13 28.1899 128.631 27.9081 129.021 27.4215C129.412 26.9349 129.573 26.3714 129.505 25.7397C129.437 25.1165 129.157 24.6128 128.673 24.2201C128.41 24.0067 127.892 23.7079 127.128 23.3322L127.111 23.3152Z" fill="#A6743A"/>
<path d="M146.359 26.3205L147.514 18.27L148.507 18.4152L147.386 26.2181C147.293 26.8755 147.429 27.4474 147.811 27.9511C148.193 28.4548 148.677 28.7451 149.288 28.839C149.899 28.9329 150.46 28.7878 150.961 28.4121C151.419 28.0621 151.708 27.6011 151.827 27.0206H151.818L152.956 19.064L153.949 19.2091L152.812 27.1657C152.659 28.0194 152.243 28.7024 151.563 29.2146C150.85 29.761 150.044 29.9744 149.152 29.8464C148.261 29.7183 147.548 29.2915 147.021 28.5573C146.877 28.3609 146.758 28.1646 146.656 27.9597C146.503 28.1304 146.325 28.2841 146.13 28.4292C145.416 28.9756 144.61 29.189 143.718 29.061C142.827 28.9329 142.114 28.506 141.587 27.7719C141.078 27.0803 140.866 26.312 140.959 25.4498L142.097 17.4932L143.09 17.6383L141.952 25.5949H141.944C141.893 26.1754 142.037 26.7047 142.394 27.1743C142.767 27.6779 143.251 27.9682 143.863 28.0621C144.474 28.156 145.034 28.0109 145.535 27.6353C145.968 27.3109 146.24 26.8755 146.376 26.3376L146.359 26.3205Z" fill="#A6743A"/>
<path d="M165.76 34.5246L164.809 34.2002L165.53 32.0659C165.267 32.2538 164.978 32.4245 164.69 32.5782C163.17 33.338 161.608 33.4404 160.003 32.894C158.407 32.3477 157.235 31.3061 156.488 29.778C155.741 28.2498 155.639 26.6705 156.191 25.057C156.743 23.4349 157.77 22.2482 159.29 21.4884C160.81 20.7286 162.363 20.6262 163.96 21.1726C165.564 21.7189 166.736 22.7605 167.483 24.2886C167.627 24.5874 167.746 24.8948 167.84 25.2106L168.341 23.7252L169.292 24.0496L165.751 34.5161L165.76 34.5246ZM166.371 29.5987L167.016 27.7035C167.161 26.7046 166.999 25.7314 166.532 24.7752C165.912 23.5117 164.945 22.6495 163.628 22.197C162.312 21.7446 161.013 21.8299 159.765 22.4531C158.509 23.0763 157.66 24.0581 157.201 25.3984C156.743 26.7388 156.828 28.0364 157.447 29.2914C158.067 30.5549 159.035 31.4086 160.36 31.861C161.684 32.3135 162.975 32.2281 164.223 31.6049C165.165 31.1354 165.887 30.461 166.371 29.5902V29.5987Z" fill="#A6743A"/>
<path d="M173.121 25.9451L174.021 26.389L173.138 28.1989C173.461 28.0196 173.8 27.8659 174.165 27.7379C175.346 27.3281 176.373 27.3025 177.222 27.6696L176.738 28.6599C176.161 28.4123 175.414 28.4379 174.514 28.7538C173.24 29.1892 172.298 30.0002 171.686 31.1869L169.19 36.3177L168.29 35.8737L173.121 25.9365V25.9451Z" fill="#A6743A"/>
<path d="M180.142 29.4199L180.983 29.9663L180.838 30.1797C181.687 30.009 182.486 30.1627 183.207 30.6407C183.963 31.1359 184.43 31.8189 184.617 32.6982C184.668 32.9372 184.693 33.1763 184.685 33.4153C184.897 33.3214 185.126 33.2446 185.372 33.1933C186.247 33.0055 187.062 33.1506 187.818 33.6458C188.573 34.141 189.04 34.8239 189.227 35.7032C189.397 36.5484 189.261 37.3424 188.819 38.0851L184.201 45.2477L183.36 44.7014L187.979 37.5387H187.987C188.276 37.035 188.369 36.4972 188.242 35.9252C188.106 35.3105 187.784 34.8325 187.266 34.4995C186.748 34.1666 186.187 34.0556 185.576 34.1922C184.965 34.3288 184.481 34.6617 184.124 35.2166L179.59 42.2512L178.75 41.7048L183.369 34.5422H183.377C183.666 34.0385 183.759 33.5007 183.632 32.9287C183.496 32.314 183.173 31.8359 182.655 31.503C182.137 31.1615 181.577 31.0591 180.966 31.1956C180.431 31.3066 179.998 31.5798 179.65 32.0152L174.98 39.2547L174.139 38.7083L180.125 29.4285L180.142 29.4199Z" fill="#A6743A"/>
<path d="M194.602 39.5955L197.565 35.9502L198.338 36.5905L195.375 40.2358L197.098 41.653L196.462 42.4384L194.738 41.0212L188.413 48.7986L187.64 48.1583L193.966 40.381L192.242 38.9638L192.879 38.1784L194.602 39.5955Z" fill="#A6743A"/>
<path d="M204.383 38.7849L205.105 39.4849L199.891 44.8889C201.072 44.8889 202.09 45.3073 202.939 46.1354C203.865 47.0403 204.34 48.0733 204.357 49.2258C204.374 50.3783 203.958 51.4113 203.109 52.3248L197.99 57.6349L197.268 56.9348L202.328 51.6845C202.973 51.0101 203.288 50.199 203.271 49.2514C203.245 48.3038 202.906 47.5098 202.243 46.861C201.581 46.2207 200.783 45.8963 199.849 45.8963C199.424 45.8963 199.051 45.9732 198.72 46.1012L192.632 52.4102L191.91 51.7101L204.391 38.7764L204.383 38.7849Z" fill="#A6743A"/>
<path d="M214.614 60.178L218.299 57.2754L218.919 58.0693L215.234 60.972L216.61 62.7392L215.811 63.3624L214.436 61.5952L206.565 67.7846L205.946 66.9906L213.816 60.8012L212.441 59.034L213.23 58.4108L214.606 60.178H214.614Z" fill="#A6743A"/>
<path d="M222.408 69.2789C223.35 70.696 223.647 72.2413 223.316 73.906C222.976 75.5707 222.102 76.8855 220.684 77.8331C219.275 78.7807 217.738 79.088 216.074 78.7636C214.41 78.4392 213.111 77.5684 212.168 76.1513C211.234 74.7426 210.929 73.1974 211.268 71.5241C211.608 69.8509 212.474 68.5447 213.883 67.5971C215.301 66.6494 216.838 66.3336 218.502 66.6665C220.166 66.9909 221.465 67.8617 222.399 69.2789H222.408ZM218.29 67.7166C216.914 67.4434 215.641 67.6995 214.478 68.4849C213.306 69.2703 212.593 70.346 212.312 71.729C212.041 73.1035 212.287 74.3841 213.068 75.5451C213.849 76.7062 214.919 77.4318 216.286 77.705C217.661 77.9782 218.927 77.7221 220.098 76.9367C221.27 76.1513 221.992 75.067 222.263 73.6926C222.543 72.3096 222.289 71.0375 221.516 69.8679C220.743 68.6984 219.665 67.9812 218.29 67.708V67.7166Z" fill="#A6743A"/>
<path d="M231.221 86.3528L235.39 84.21L235.848 85.1064L231.68 87.2492L232.69 89.2469L231.79 89.7079L230.78 87.7102L221.882 92.2775L221.423 91.3811L230.321 86.8138L229.311 84.8161L230.211 84.3551L231.221 86.3528Z" fill="#A6743A"/>
<path d="M240.357 89.1719L240.765 90.0939L233.913 93.1502C235.008 93.5941 235.798 94.3624 236.273 95.4552C236.8 96.6419 236.851 97.7773 236.435 98.853C236.019 99.9287 235.246 100.731 234.125 101.252L227.401 104.248L226.993 103.326L233.641 100.364C234.49 99.9799 235.085 99.3481 235.416 98.4603C235.747 97.5724 235.73 96.7102 235.356 95.8564C234.983 95.0113 234.363 94.4137 233.497 94.0636C233.106 93.91 232.733 93.8331 232.376 93.8246L224.378 97.3931L223.971 96.4711L240.349 89.1719H240.357Z" fill="#A6743A"/>
<path d="M231.221 108.362C230.728 109.549 230.711 110.761 231.153 111.991C231.637 113.305 232.511 114.261 233.776 114.851C233.938 114.927 234.099 114.996 234.269 115.055V116.191C233.955 116.097 233.64 115.986 233.326 115.832C231.789 115.115 230.728 113.963 230.142 112.358C229.565 110.761 229.633 109.199 230.355 107.654C231.076 106.109 232.231 105.041 233.827 104.452C235.415 103.863 236.986 103.932 238.522 104.649C240.059 105.366 241.12 106.518 241.698 108.106C242.199 109.472 242.224 110.821 241.774 112.144C241.698 112.366 241.604 112.588 241.494 112.819C241.452 112.904 241.409 112.989 241.367 113.066L240.39 112.614L231.212 108.354L231.221 108.362ZM240.789 111.692C241.12 110.642 241.095 109.566 240.696 108.482C240.22 107.167 239.346 106.22 238.081 105.63C236.816 105.041 235.517 104.982 234.201 105.468C233.114 105.869 232.273 106.535 231.688 107.466L240.798 111.692H240.789Z" fill="#A6743A"/>
<path d="M239.253 131.352L247.106 129.414L247.344 130.396L239.728 132.274C239.091 132.428 238.607 132.778 238.285 133.316C237.962 133.853 237.877 134.425 238.022 135.023C238.166 135.629 238.505 136.09 239.04 136.423C239.533 136.722 240.068 136.816 240.645 136.705L248.414 134.775L248.652 135.757L240.883 137.678C240.042 137.857 239.253 137.721 238.522 137.277C237.75 136.816 237.257 136.141 237.037 135.262C236.824 134.383 236.952 133.563 237.427 132.786C237.555 132.581 237.69 132.394 237.843 132.223C237.631 132.146 237.419 132.035 237.215 131.907C236.442 131.446 235.95 130.771 235.729 129.901C235.517 129.021 235.644 128.202 236.12 127.425C236.561 126.691 237.198 126.213 238.03 125.974L245.799 124.053L246.037 125.035L238.268 126.955C237.707 127.109 237.283 127.451 236.977 127.954C236.655 128.484 236.57 129.055 236.714 129.662C236.858 130.268 237.198 130.729 237.733 131.062C238.191 131.343 238.701 131.437 239.244 131.361L239.253 131.352Z" fill="#A6743A"/>
<path d="M251.275 144.406C251.564 146.079 251.224 147.615 250.248 149.007C249.271 150.399 247.947 151.244 246.266 151.534C244.593 151.824 243.065 151.491 241.673 150.518C240.28 149.545 239.44 148.222 239.151 146.54C238.862 144.867 239.202 143.338 240.178 141.947C241.155 140.555 242.479 139.71 244.152 139.411C245.824 139.113 247.361 139.454 248.754 140.427C250.146 141.4 250.987 142.724 251.275 144.397V144.406ZM248.125 141.307C246.979 140.504 245.714 140.222 244.33 140.461C242.946 140.709 241.851 141.4 241.053 142.553C240.255 143.705 239.966 144.969 240.212 146.352C240.458 147.735 241.146 148.828 242.292 149.639C243.439 150.441 244.704 150.723 246.088 150.484C247.472 150.236 248.567 149.545 249.373 148.392C250.18 147.24 250.46 145.976 250.222 144.593C249.985 143.21 249.288 142.118 248.134 141.307H248.125Z" fill="#A6743A"/>
<path d="M251.691 153.643L251.818 154.641L249.832 154.898C250.154 155.068 250.468 155.273 250.783 155.512C251.776 156.281 252.353 157.126 252.515 158.048L251.428 158.184C251.318 157.561 250.885 156.946 250.129 156.366C249.068 155.538 247.879 155.188 246.554 155.324L240.925 156.042L240.798 155.043L251.708 153.643H251.691Z" fill="#A6743A"/>
<path d="M259.511 161.012L241.681 162.838L241.579 161.84L259.409 160.013L259.511 161.012Z" fill="#A6743A"/>
<path d="M242.752 177.855L242.692 176.848L244.925 176.711C244.654 176.532 244.39 176.336 244.136 176.122C242.862 174.995 242.183 173.578 242.081 171.879C241.979 170.189 242.497 168.704 243.626 167.432C244.755 166.16 246.165 165.477 247.854 165.374C249.553 165.272 251.038 165.784 252.312 166.919C253.585 168.046 254.265 169.463 254.367 171.154C254.468 172.853 253.951 174.338 252.821 175.61C252.601 175.858 252.363 176.08 252.108 176.293L260.573 175.789L260.633 176.797L242.743 177.855H242.752ZM247.523 176.558L249.51 176.438C250.486 176.191 251.319 175.678 252.023 174.884C252.957 173.834 253.382 172.605 253.297 171.205C253.212 169.805 252.652 168.635 251.599 167.705C250.546 166.774 249.323 166.347 247.922 166.433C246.521 166.518 245.358 167.082 244.424 168.132C243.49 169.182 243.074 170.411 243.151 171.811C243.236 173.211 243.796 174.381 244.849 175.311C245.638 176.011 246.53 176.43 247.515 176.558H247.523Z" fill="#A6743A"/>
<path d="M252.643 192C253.101 190.737 253.704 189.738 254.468 189.021C255.224 188.304 256.132 187.954 257.185 187.979C258.213 188.005 259.096 188.397 259.817 189.157C260.539 189.917 260.887 190.822 260.862 191.872C260.836 192.914 260.446 193.801 259.69 194.536C259.282 194.937 258.832 195.21 258.34 195.355L258 194.442C258.365 194.314 258.713 194.109 259.028 193.81C259.58 193.281 259.86 192.632 259.885 191.855C259.902 191.087 259.647 190.421 259.121 189.866C258.595 189.311 257.941 189.021 257.168 188.995C256.396 188.978 255.733 189.234 255.181 189.763C254.672 190.259 254.188 190.95 253.755 191.838C253.254 193.264 252.507 194.45 251.505 195.398C250.452 196.414 249.187 196.9 247.727 196.858C246.258 196.824 245.018 196.269 244.008 195.202C242.998 194.134 242.505 192.871 242.548 191.411C242.582 189.951 243.142 188.713 244.212 187.697C245.061 186.886 246.037 186.417 247.141 186.28L247.464 187.245C246.487 187.322 245.63 187.715 244.891 188.423C244.025 189.243 243.584 190.25 243.55 191.437C243.516 192.632 243.915 193.665 244.738 194.527C245.562 195.389 246.572 195.842 247.761 195.867C248.949 195.902 249.977 195.5 250.834 194.681C251.59 193.964 252.201 193.067 252.668 192H252.643Z" fill="#A6743A"/>
<path d="M241.528 210.586L241.613 209.578L243.846 209.766C243.6 209.553 243.371 209.322 243.15 209.066C242.054 207.768 241.571 206.266 241.715 204.575C241.851 202.885 242.572 201.493 243.871 200.392C245.17 199.291 246.665 198.813 248.354 198.958C250.052 199.103 251.445 199.82 252.549 201.118C253.644 202.415 254.128 203.909 253.992 205.6C253.848 207.299 253.135 208.699 251.835 209.792C251.581 210.005 251.309 210.193 251.037 210.364L252.591 210.492L252.506 211.499L241.545 210.586H241.528ZM246.436 209.979L248.422 210.142C249.416 210.039 250.324 209.646 251.131 208.963C252.201 208.059 252.795 206.906 252.914 205.506C253.033 204.106 252.634 202.868 251.725 201.801C250.817 200.725 249.662 200.136 248.261 200.017C246.86 199.897 245.629 200.298 244.559 201.203C243.489 202.108 242.904 203.261 242.785 204.661C242.666 206.061 243.065 207.299 243.973 208.366C244.653 209.168 245.476 209.706 246.436 209.979Z" fill="#A6743A"/>
<path d="M252.006 215.154L251.879 216.153L249.892 215.888C250.164 216.136 250.418 216.409 250.656 216.725C251.42 217.724 251.768 218.688 251.692 219.619L250.605 219.474C250.656 218.842 250.393 218.142 249.807 217.382C248.992 216.306 247.931 215.666 246.615 215.461L240.985 214.719L241.113 213.72L252.014 215.163L252.006 215.154Z" fill="#A6743A"/>
<path d="M238.167 231.869L238.345 230.879L240.552 231.28C240.332 231.041 240.119 230.785 239.924 230.52C238.956 229.12 238.625 227.583 238.922 225.91C239.228 224.245 240.077 222.922 241.469 221.958C242.87 220.993 244.398 220.66 246.063 220.967C247.735 221.275 249.06 222.128 250.028 223.528C250.996 224.928 251.327 226.465 251.03 228.13C250.724 229.803 249.875 231.126 248.482 232.091C248.202 232.279 247.922 232.441 247.633 232.586L249.162 232.868L248.983 233.858L238.167 231.878V231.869ZM243.108 231.741L245.069 232.1C246.071 232.1 247.005 231.792 247.871 231.186C249.026 230.384 249.73 229.299 249.977 227.916C250.223 226.533 249.951 225.261 249.153 224.109C248.355 222.956 247.26 222.248 245.884 222C244.5 221.744 243.235 222.017 242.089 222.82C240.943 223.622 240.238 224.706 239.992 226.089C239.746 227.472 240.017 228.736 240.816 229.897C241.418 230.768 242.182 231.383 243.108 231.741Z" fill="#A6743A"/>
<path d="M248.363 237.171L254.918 238.673L254.697 239.655L248.143 238.153L248.363 237.171Z" fill="#A6743A"/>
<path d="M241.308 242.899C241.97 242.182 242.505 241.712 242.904 241.473C243.532 241.106 244.194 241.012 244.899 241.191C245.604 241.379 246.147 241.781 246.521 242.412C246.894 243.044 246.988 243.71 246.81 244.41C246.623 245.119 246.241 245.648 245.663 245.989C245.094 246.322 244.517 246.408 243.94 246.254L243.889 246.237L243.77 245.306C244.339 245.375 244.797 245.306 245.137 245.11C245.485 244.914 245.714 244.589 245.825 244.154C245.935 243.718 245.876 243.309 245.655 242.916C245.426 242.523 245.094 242.276 244.653 242.156C244.22 242.045 243.804 242.105 243.413 242.335C243.184 242.472 242.811 242.779 242.293 243.266C241.545 244.06 240.926 244.598 240.442 244.888C239.661 245.341 238.846 245.452 237.979 245.23C237.096 244.999 236.426 244.495 235.967 243.719C235.509 242.942 235.39 242.114 235.619 241.243C235.848 240.372 236.349 239.706 237.122 239.254C237.895 238.801 238.659 238.673 239.389 238.861V239.894C238.752 239.732 238.166 239.808 237.631 240.124C237.096 240.44 236.748 240.901 236.596 241.499C236.443 242.096 236.519 242.668 236.833 243.215C237.147 243.753 237.614 244.111 238.226 244.265C238.829 244.419 239.397 244.342 239.932 244.026C240.221 243.855 240.679 243.479 241.316 242.89L241.308 242.899Z" fill="#A6743A"/>
<path d="M228.012 265.566L228.36 264.618L230.465 265.395C230.287 265.122 230.126 264.831 229.982 264.533C229.268 262.987 229.2 261.417 229.795 259.812C230.381 258.224 231.442 257.071 232.987 256.363C234.532 255.654 236.095 255.594 237.682 256.183C239.279 256.772 240.433 257.848 241.146 259.393C241.86 260.939 241.928 262.509 241.342 264.097C240.756 265.694 239.695 266.846 238.149 267.555C237.844 267.691 237.538 267.802 237.224 267.896L245.179 270.85L244.831 271.798L228.02 265.557L228.012 265.566ZM232.902 266.308L234.77 267C235.764 267.171 236.731 267.034 237.691 266.59C238.964 266.001 239.847 265.053 240.323 263.739C240.798 262.424 240.756 261.126 240.162 259.846C239.576 258.565 238.616 257.686 237.3 257.199C235.984 256.713 234.694 256.764 233.42 257.344C232.147 257.933 231.272 258.881 230.788 260.204C230.304 261.519 230.355 262.817 230.949 264.097C231.391 265.062 232.045 265.796 232.894 266.308H232.902Z" fill="#A6743A"/>
<path d="M227.826 271.148C226.645 271.643 225.779 272.488 225.244 273.675C224.659 274.955 224.616 276.253 225.109 277.568C225.168 277.738 225.244 277.9 225.321 278.054L224.531 278.865C224.37 278.575 224.226 278.268 224.107 277.943C223.512 276.347 223.572 274.776 224.277 273.222C224.981 271.677 226.127 270.618 227.715 270.029C229.303 269.44 230.874 269.5 232.419 270.217C233.964 270.926 235.025 272.078 235.62 273.675C236.214 275.271 236.163 276.842 235.458 278.379C234.856 279.702 233.93 280.675 232.682 281.298C232.47 281.401 232.249 281.495 232.011 281.58C231.926 281.614 231.833 281.64 231.748 281.665L231.375 280.658L227.834 271.139L227.826 271.148ZM232.3 280.291C233.276 279.779 233.998 278.993 234.482 277.943C235.059 276.671 235.11 275.382 234.618 274.059C234.134 272.744 233.251 271.788 231.969 271.199C230.916 270.712 229.855 270.593 228.785 270.84L232.3 280.291Z" fill="#A6743A"/>
<path d="M224.87 285.431C225.685 284.893 226.314 284.56 226.755 284.432C227.451 284.227 228.122 284.296 228.759 284.637C229.404 284.987 229.829 285.508 230.049 286.208C230.262 286.908 230.202 287.583 229.854 288.214C229.506 288.855 229.014 289.281 228.368 289.469C227.74 289.657 227.154 289.606 226.628 289.316L226.577 289.29L226.679 288.351C227.214 288.556 227.672 288.598 228.054 288.487C228.436 288.376 228.733 288.12 228.946 287.719C229.158 287.326 229.2 286.908 229.073 286.473C228.946 286.037 228.683 285.713 228.283 285.499C227.893 285.286 227.477 285.243 227.044 285.371C226.789 285.448 226.356 285.662 225.736 286.012C224.828 286.601 224.098 286.985 223.554 287.147C222.688 287.403 221.865 287.318 221.084 286.891C220.277 286.456 219.751 285.807 219.487 284.945C219.224 284.082 219.309 283.254 219.734 282.452C220.158 281.658 220.803 281.128 221.661 280.872C222.518 280.616 223.291 280.667 223.962 281.035L223.716 282.033C223.138 281.718 222.552 281.658 221.95 281.837C221.355 282.016 220.905 282.383 220.617 282.93C220.328 283.476 220.268 284.048 220.447 284.654C220.625 285.252 220.99 285.704 221.551 286.012C222.094 286.31 222.663 286.362 223.266 286.191C223.588 286.097 224.123 285.841 224.87 285.423V285.431Z" fill="#A6743A"/>
<path d="M225.898 294.488L216.439 288.845L216.949 287.975L226.407 293.618L225.898 294.488ZM228.895 296.512C228.632 296.58 228.377 296.546 228.139 296.409C227.893 296.264 227.74 296.059 227.672 295.786C227.604 295.513 227.647 295.265 227.783 295.026C227.927 294.787 228.131 294.634 228.394 294.565C228.666 294.497 228.92 294.531 229.158 294.676C229.396 294.821 229.549 295.026 229.617 295.291C229.685 295.564 229.651 295.812 229.506 296.051C229.362 296.29 229.158 296.443 228.895 296.512Z" fill="#A6743A"/>
<path d="M210.538 301.899C210.445 301.609 210.368 301.31 210.309 301.003C209.995 299.33 210.309 297.785 211.268 296.384C212.219 294.984 213.535 294.131 215.199 293.823C216.863 293.516 218.4 293.84 219.801 294.805C221.202 295.77 222.068 297.093 222.374 298.766C222.688 300.44 222.374 301.976 221.414 303.376C220.455 304.785 219.147 305.639 217.483 305.955C217.152 306.006 216.829 306.04 216.507 306.057L217.789 306.945L217.22 307.773L210.173 302.915C208.814 301.976 207.974 300.696 207.668 299.057C207.354 297.383 207.668 295.847 208.619 294.447C209.579 293.038 210.886 292.184 212.559 291.877C212.898 291.817 213.238 291.774 213.569 291.774L213.289 292.867C213.111 292.884 212.941 292.91 212.762 292.944C211.387 293.2 210.3 293.909 209.511 295.07C208.73 296.222 208.466 297.494 208.73 298.877C208.967 300.141 209.57 301.148 210.538 301.917V301.899ZM214.41 304.597C215.31 304.981 216.269 305.084 217.288 304.896C218.663 304.64 219.75 303.931 220.54 302.77C221.329 301.609 221.593 300.337 221.329 298.954C221.066 297.571 220.361 296.478 219.198 295.684C218.044 294.89 216.77 294.617 215.395 294.873C214.019 295.13 212.932 295.838 212.143 296.991C211.353 298.152 211.09 299.424 211.353 300.807C211.54 301.814 211.973 302.676 212.652 303.385L214.41 304.597Z" fill="#A6743A"/>
<path d="M212.185 310.188L205.63 304.673L206.276 303.896L214.707 310.991L214.061 311.768L213.518 311.315C213.628 312.604 213.297 313.723 212.525 314.653C211.692 315.652 210.708 316.198 209.561 316.301C208.415 316.403 207.362 316.062 206.394 315.276L200.748 310.53L201.394 309.753L206.963 314.44C207.676 315.046 208.509 315.294 209.443 315.208C210.376 315.114 211.149 314.713 211.735 314.004C212.321 313.296 212.584 312.468 212.516 311.537C212.474 311.016 212.355 310.573 212.159 310.188H212.185Z" fill="#A6743A"/>
<path d="M204.96 331.966L204.187 332.615L198.753 326.084C198.77 326.4 198.77 326.725 198.745 327.066C198.6 328.765 197.879 330.157 196.588 331.249C195.289 332.342 193.795 332.812 192.114 332.649C190.433 332.487 189.04 331.761 187.945 330.447C186.858 329.141 186.383 327.638 186.527 325.939C186.671 324.24 187.393 322.849 188.692 321.756C189.983 320.663 191.477 320.202 193.166 320.356C193.506 320.39 193.82 320.441 194.126 320.518L192.691 318.802L193.464 318.153L204.968 331.975L204.96 331.966ZM197.115 324.112L195.765 322.49C195 321.875 194.109 321.525 193.082 321.432C191.689 321.304 190.45 321.688 189.38 322.593C188.31 323.498 187.716 324.642 187.588 326.042C187.461 327.442 187.851 328.68 188.76 329.764C189.66 330.848 190.806 331.454 192.207 331.582C193.599 331.71 194.839 331.326 195.909 330.421C196.979 329.516 197.573 328.364 197.692 326.964C197.777 325.931 197.59 324.974 197.123 324.112H197.115Z" fill="#A6743A"/>
<path d="M188.098 336.534L187.266 337.098L186.145 335.424C186.145 335.791 186.103 336.167 186.027 336.551C185.789 337.789 185.296 338.685 184.549 339.249L183.938 338.335C184.447 337.96 184.787 337.294 184.974 336.346C185.237 335.023 185.008 333.794 184.295 332.667L181.119 327.929L181.951 327.365L188.098 336.534Z" fill="#A6743A"/>
<path d="M180.898 341.136L175.32 331.6L176.186 331.088L181.764 340.624L180.898 341.136ZM182.545 344.372C182.273 344.303 182.069 344.15 181.934 343.911C181.789 343.663 181.755 343.407 181.823 343.142C181.891 342.878 182.053 342.673 182.282 342.528C182.511 342.382 182.774 342.348 183.037 342.417C183.309 342.485 183.513 342.639 183.657 342.886C183.802 343.125 183.835 343.381 183.759 343.646C183.691 343.911 183.53 344.116 183.301 344.261C183.063 344.397 182.808 344.44 182.545 344.372Z" fill="#A6743A"/>
<path d="M175.294 341.478L171.652 333.7L172.561 333.273L177.247 343.279L176.339 343.706L176.042 343.066C175.6 344.286 174.836 345.157 173.741 345.669C172.569 346.224 171.448 346.301 170.37 345.908C169.292 345.516 168.477 344.756 167.925 343.637L164.792 336.944L165.7 336.518L168.799 343.134C169.198 343.979 169.844 344.56 170.727 344.875C171.618 345.191 172.476 345.149 173.308 344.756C174.14 344.363 174.726 343.723 175.048 342.852C175.218 342.365 175.303 341.904 175.294 341.478Z" fill="#A6743A"/>
<path d="M152.558 343.159C152.668 342.878 152.795 342.596 152.94 342.323C153.755 340.829 154.977 339.847 156.607 339.377C158.229 338.908 159.783 339.087 161.26 339.915C162.746 340.743 163.714 341.981 164.189 343.612C164.656 345.259 164.487 346.822 163.672 348.316C162.856 349.81 161.634 350.783 160.012 351.253C158.382 351.722 156.828 351.551 155.351 350.723C155.062 350.553 154.791 350.373 154.536 350.177L154.969 351.679L154.001 351.961L151.641 343.706C151.182 342.109 151.352 340.581 152.15 339.13C152.965 337.636 154.188 336.654 155.809 336.185C157.44 335.715 158.993 335.894 160.471 336.722C160.776 336.893 161.056 337.081 161.32 337.286L160.411 337.952C160.267 337.849 160.114 337.755 159.961 337.67C158.739 336.987 157.457 336.833 156.115 337.226C154.782 337.61 153.772 338.421 153.101 339.659C152.49 340.777 152.311 341.947 152.575 343.159H152.558ZM153.831 347.71C154.281 348.589 154.96 349.28 155.86 349.784C157.083 350.467 158.365 350.621 159.707 350.228C161.048 349.844 162.058 349.024 162.729 347.795C163.4 346.557 163.544 345.268 163.162 343.911C162.772 342.553 161.965 341.529 160.742 340.846C159.52 340.163 158.238 340.009 156.896 340.402C155.555 340.786 154.544 341.606 153.874 342.835C153.381 343.731 153.169 344.679 153.245 345.652L153.831 347.71Z" fill="#A6743A"/>
<path d="M145.925 347.709C146.834 348.059 147.471 348.375 147.836 348.665C148.413 349.109 148.744 349.698 148.838 350.424C148.931 351.149 148.761 351.807 148.32 352.396C147.878 352.976 147.301 353.318 146.588 353.412C145.866 353.506 145.238 353.343 144.703 352.934C144.185 352.524 143.888 352.02 143.811 351.423V351.363L144.618 350.902C144.762 351.457 144.992 351.858 145.306 352.105C145.62 352.353 146.002 352.447 146.452 352.387C146.893 352.327 147.25 352.123 147.53 351.764C147.81 351.405 147.912 350.996 147.853 350.543C147.793 350.099 147.59 349.732 147.233 349.45C147.021 349.288 146.596 349.058 145.951 348.759C144.941 348.358 144.21 347.991 143.76 347.641C143.056 347.086 142.64 346.36 142.529 345.472C142.41 344.567 142.623 343.748 143.166 343.031C143.709 342.313 144.431 341.895 145.323 341.776C146.214 341.656 147.012 341.878 147.725 342.433C148.43 342.988 148.838 343.645 148.931 344.405L147.98 344.789C147.895 344.132 147.607 343.611 147.114 343.235C146.622 342.851 146.061 342.706 145.45 342.783C144.839 342.86 144.346 343.15 143.964 343.645C143.582 344.14 143.429 344.704 143.514 345.336C143.591 345.95 143.879 346.454 144.372 346.838C144.635 347.043 145.161 347.333 145.934 347.7L145.925 347.709Z" fill="#A6743A"/>
<path d="M126.627 345.045L125.617 353.113L124.623 352.985L125.6 345.165C125.685 344.507 125.532 343.935 125.15 343.44C124.768 342.945 124.267 342.655 123.656 342.578C123.044 342.501 122.492 342.655 121.991 343.039C121.533 343.398 121.253 343.867 121.151 344.439H121.159L120.157 352.421L119.164 352.293L120.166 344.32C120.302 343.466 120.709 342.774 121.38 342.245C122.085 341.682 122.883 341.46 123.774 341.571C124.666 341.682 125.388 342.1 125.931 342.817C126.075 343.013 126.203 343.21 126.305 343.406C126.457 343.235 126.627 343.073 126.822 342.928C127.527 342.365 128.325 342.143 129.217 342.254C130.108 342.365 130.83 342.783 131.373 343.5C131.891 344.183 132.12 344.951 132.036 345.814L131.034 353.787L130.04 353.659L131.042 345.686H131.051C131.093 345.105 130.932 344.576 130.575 344.115C130.193 343.62 129.701 343.338 129.089 343.261C128.478 343.184 127.926 343.338 127.425 343.722C127.001 344.055 126.729 344.49 126.61 345.037L126.627 345.045Z" fill="#A6743A"/>
<path d="M107.065 337.174L108.016 337.481L107.328 339.624C107.591 339.436 107.871 339.257 108.16 339.103C109.663 338.318 111.225 338.19 112.838 338.71C114.443 339.231 115.632 340.247 116.404 341.767C117.177 343.286 117.304 344.857 116.786 346.479C116.269 348.11 115.25 349.314 113.747 350.099C112.244 350.884 110.682 351.012 109.077 350.492C107.464 349.971 106.275 348.947 105.503 347.435C105.358 347.137 105.231 346.829 105.129 346.522L104.654 348.016L103.703 347.709L107.065 337.182V337.174ZM106.538 342.117L105.927 344.029C105.8 345.028 105.978 346.001 106.462 346.949C107.099 348.204 108.084 349.049 109.408 349.476C110.741 349.903 112.023 349.8 113.271 349.151C114.519 348.503 115.352 347.512 115.785 346.163C116.218 344.815 116.107 343.525 115.47 342.27C114.834 341.016 113.849 340.179 112.516 339.752C111.183 339.325 109.901 339.428 108.653 340.076C107.719 340.563 107.014 341.246 106.538 342.125V342.117Z" fill="#A6743A"/>
<path d="M99.8822 345.891L98.9737 345.464L99.8227 343.637C99.5086 343.817 99.169 343.979 98.8039 344.115C97.6237 344.551 96.6048 344.585 95.7473 344.226L96.2143 343.228C96.8001 343.467 97.5388 343.424 98.4388 343.099C99.7039 342.638 100.629 341.819 101.232 340.624L103.643 335.45L104.552 335.877L99.8822 345.891Z" fill="#A6743A"/>
<path d="M92.7756 342.519L91.9266 341.981L92.0624 341.759C91.2134 341.938 90.4153 341.801 89.6851 341.332C88.9209 340.854 88.4455 340.171 88.2502 339.291C88.1993 339.052 88.1738 338.813 88.1738 338.574C87.9615 338.677 87.7323 338.754 87.4861 338.805C86.6115 339.01 85.7965 338.873 85.0323 338.387C84.2682 337.9 83.7927 337.226 83.5974 336.346C83.4106 335.501 83.538 334.707 83.971 333.964L88.4879 326.733L89.337 327.271L84.8201 334.502H84.8116C84.5314 335.006 84.4465 335.552 84.5738 336.116C84.7182 336.73 85.0493 337.2 85.5757 337.533C86.1021 337.866 86.6625 337.96 87.2738 337.823C87.8851 337.687 88.3606 337.337 88.7087 336.773L93.1407 329.679L93.9897 330.217L89.4728 337.447H89.4643C89.1842 337.951 89.0992 338.489 89.2266 339.061C89.3709 339.676 89.7021 340.145 90.2285 340.478C90.7549 340.811 91.3153 340.905 91.9181 340.76C92.4445 340.64 92.8775 340.359 93.2171 339.923L97.785 332.615L98.634 333.153L92.7841 342.519H92.7756Z" fill="#A6743A"/>
<path d="M78.1804 332.547L75.2682 336.227L74.4871 335.595L77.3993 331.916L75.6587 330.524L76.287 329.73L78.0276 331.122L84.2511 323.268L85.0322 323.899L78.8087 331.762L80.5492 333.154L79.9209 333.948L78.1804 332.556V332.547Z" fill="#A6743A"/>
<path d="M68.3823 333.461L67.6521 332.769L72.8058 327.297C71.6256 327.314 70.6068 326.904 69.7407 326.085C68.7983 325.189 68.3228 324.164 68.2889 323.012C68.2634 321.859 68.6625 320.818 69.503 319.904L74.5633 314.534L75.2935 315.226L70.2926 320.536C69.6474 321.219 69.3502 322.03 69.3842 322.977C69.4181 323.925 69.7662 324.719 70.437 325.351C71.1077 325.991 71.9058 326.298 72.8398 326.29C73.2643 326.281 73.6379 326.204 73.9605 326.076L79.9717 319.691L80.7019 320.382L68.3823 333.461Z" fill="#A6743A"/>
<path d="M57.9058 312.178L54.2465 315.114L53.6182 314.329L57.2775 311.392L55.8851 309.642L56.6747 309.01L58.0672 310.76L65.8699 304.494L66.4982 305.28L58.6954 311.546L60.0879 313.296L59.2983 313.928L57.9058 312.178Z" fill="#A6743A"/>
<path d="M50.0097 303.137C49.0588 301.728 48.7361 300.192 49.0588 298.519C49.3814 296.845 50.2474 295.531 51.6483 294.566C53.0493 293.61 54.586 293.285 56.2502 293.593C57.9143 293.9 59.2218 294.762 60.1812 296.171C61.1322 297.571 61.4463 299.108 61.1237 300.781C60.801 302.454 59.9435 303.769 58.5426 304.734C57.1332 305.698 55.5964 306.023 53.9323 305.707C52.2681 305.391 50.9606 304.537 50.0097 303.137ZM54.1445 304.657C55.52 304.913 56.7936 304.648 57.9483 303.854C59.103 303.06 59.8162 301.968 60.0794 300.593C60.3426 299.21 60.0794 297.938 59.2897 296.777C58.5001 295.616 57.4219 294.907 56.0464 294.643C54.6709 294.378 53.4059 294.643 52.2427 295.445C51.0795 296.248 50.3663 297.332 50.1031 298.715C49.8399 300.098 50.1031 301.37 50.8842 302.531C51.6738 303.692 52.7521 304.401 54.1276 304.665L54.1445 304.657Z" fill="#A6743A"/>
<path d="M41.0514 286.139L36.8996 288.316L36.4326 287.42L40.5844 285.243L39.5571 283.253L40.4486 282.784L41.4759 284.773L50.34 280.129L50.7985 281.025L41.9344 285.669L42.9618 287.659L42.0703 288.128L41.0429 286.139H41.0514Z" fill="#A6743A"/>
<path d="M31.8911 283.391L31.4751 282.469L38.3014 279.361C37.2062 278.926 36.408 278.166 35.9241 277.073C35.3892 275.887 35.3298 274.76 35.7373 273.676C36.1448 272.6 36.909 271.789 38.0297 271.26L44.7372 268.212L45.1532 269.134L38.5307 272.148C37.6816 272.532 37.0958 273.172 36.7646 274.06C36.442 274.948 36.4675 275.818 36.8496 276.664C37.2316 277.509 37.8514 278.098 38.7174 278.439C39.108 278.585 39.4901 278.661 39.8382 278.67L47.8107 275.042L48.2268 275.964L31.8996 283.399L31.8911 283.391Z" fill="#A6743A"/>
<path d="M40.8743 264.114C41.3582 262.919 41.3667 261.716 40.9082 260.486C40.4158 259.171 39.5328 258.224 38.2592 257.643C38.0979 257.566 37.9281 257.507 37.7668 257.447L37.7498 256.312C38.0724 256.397 38.3866 256.516 38.7007 256.662C40.246 257.362 41.3158 258.514 41.9101 260.111C42.5044 261.698 42.445 263.269 41.7318 264.814C41.0186 266.36 39.8724 267.435 38.2762 268.042C36.6885 268.639 35.1262 268.588 33.581 267.879C32.0357 267.179 30.9659 266.027 30.3801 264.439C29.8706 263.073 29.8367 261.724 30.2782 260.401C30.3546 260.179 30.448 259.957 30.5499 259.726C30.5923 259.641 30.6263 259.556 30.6687 259.479L31.6451 259.923L40.8573 264.114H40.8743ZM31.2801 260.862C30.9574 261.92 30.9914 262.988 31.3989 264.072C31.8829 265.378 32.7659 266.326 34.0394 266.906C35.313 267.487 36.6036 267.529 37.9196 267.034C39.0064 266.624 39.8384 265.958 40.4243 265.019L31.2801 260.862Z" fill="#A6743A"/>
<path d="M32.681 241.184L24.8443 243.173L24.5981 242.199L32.197 240.27C32.8338 240.108 33.3093 239.758 33.6319 239.22C33.9546 238.682 34.031 238.11 33.8866 237.513C33.7338 236.915 33.3942 236.445 32.8593 236.121C32.3584 235.822 31.8235 235.728 31.2546 235.848L23.5028 237.828L23.2566 236.855L31.0084 234.883C31.8489 234.704 32.6385 234.832 33.3687 235.267C34.1498 235.728 34.6423 236.394 34.863 237.265C35.0838 238.144 34.9564 238.964 34.4895 239.741C34.3621 239.954 34.2263 240.142 34.0819 240.313C34.2942 240.39 34.5064 240.492 34.7187 240.629C35.4998 241.09 35.9923 241.756 36.213 242.626C36.4338 243.506 36.3064 244.325 35.8394 245.102C35.3979 245.836 34.7696 246.323 33.9461 246.57L26.1943 248.543L25.9481 247.561L33.6998 245.589C34.2602 245.426 34.6847 245.085 34.9819 244.581C35.3045 244.043 35.3894 243.48 35.2366 242.874C35.0838 242.276 34.7442 241.807 34.2093 241.482C33.7508 241.209 33.2414 241.115 32.6895 241.201L32.681 241.184Z" fill="#A6743A"/>
<path d="M20.5814 228.215C20.2757 226.542 20.6068 225.005 21.5832 223.605C22.5511 222.205 23.8756 221.36 25.5483 221.052C27.2124 220.745 28.7492 221.078 30.1416 222.042C31.534 223.007 32.3916 224.322 32.6887 226.004C32.9944 227.668 32.6548 229.205 31.6869 230.605C30.7189 232.005 29.4029 232.859 27.7303 233.166C26.0577 233.474 24.5209 233.141 23.12 232.176C21.7276 231.211 20.87 229.897 20.5729 228.223L20.5814 228.215ZM23.7483 231.288C24.903 232.091 26.1681 232.355 27.552 232.108C28.936 231.852 30.0227 231.152 30.8208 229.991C31.6189 228.838 31.8906 227.566 31.6359 226.183C31.3897 224.8 30.685 223.707 29.5388 222.913C28.3926 222.111 27.1275 221.838 25.7435 222.094C24.3596 222.35 23.2728 223.05 22.4747 224.211C21.6766 225.372 21.3964 226.635 21.6512 228.018C21.8974 229.401 22.6021 230.494 23.7568 231.288H23.7483Z" fill="#A6743A"/>
<path d="M20.1066 218.996L19.9708 217.997L21.9575 217.732C21.6349 217.562 21.3207 217.365 21.0066 217.126C20.0047 216.366 19.4274 215.521 19.2576 214.599L20.3443 214.454C20.4547 215.077 20.8962 215.683 21.6604 216.264C22.7302 217.084 23.9188 217.425 25.2433 217.288L30.8725 216.529L31.0083 217.527L20.1066 218.996Z" fill="#A6743A"/>
<path d="M12.2361 211.678L30.049 209.74L30.1594 210.739L12.3465 212.677L12.2361 211.678Z" fill="#A6743A"/>
<path d="M28.9019 194.724L28.9698 195.731L26.7368 195.876C27.0085 196.055 27.2717 196.252 27.5264 196.465C28.8 197.584 29.4962 199.001 29.6066 200.7C29.717 202.39 29.2075 203.875 28.0868 205.156C26.9661 206.437 25.5566 207.128 23.867 207.239C22.169 207.35 20.6831 206.846 19.4011 205.719C18.1275 204.601 17.4313 203.192 17.3209 201.502C17.2105 199.803 17.72 198.309 18.8407 197.037C19.0615 196.79 19.2992 196.559 19.5454 196.354L11.0889 196.909L11.021 195.902L28.9019 194.732V194.724ZM24.1387 196.047L22.152 196.175C21.1841 196.423 20.3435 196.952 19.6473 197.746C18.7218 198.804 18.3058 200.034 18.3907 201.434C18.4841 202.834 19.053 203.995 20.1058 204.925C21.1586 205.847 22.3897 206.266 23.7906 206.18C25.1916 206.087 26.3547 205.515 27.2802 204.456C28.2057 203.397 28.6217 202.168 28.5283 200.768C28.4349 199.368 27.866 198.207 26.8132 197.276C26.0236 196.576 25.1321 196.166 24.1387 196.047Z" fill="#A6743A"/>
<path d="M136.264 329.609C110.801 329.609 86.8663 314.507 68.8666 287.086C50.8923 259.69 40.9924 223.271 40.9924 184.538C40.9924 145.805 50.8923 109.386 68.8666 81.9902C86.8578 54.569 110.792 39.4668 136.264 39.4668C161.735 39.4668 185.661 54.569 203.661 81.9902C221.635 109.386 231.535 145.805 231.535 184.538C231.535 223.271 221.635 259.69 203.661 287.086C185.67 314.507 161.735 329.609 136.264 329.609ZM136.264 39.8937C83.9626 39.8937 41.417 104.784 41.417 184.538C41.417 264.292 83.9626 329.183 136.264 329.183C188.565 329.183 231.111 264.3 231.111 184.538C231.111 104.776 188.565 39.8937 136.264 39.8937Z" fill="#A6743A"/>
<path d="M136 369C99.6526 369 65.4786 349.791 39.795 314.917C14.1368 280.077 0.000244141 233.763 0.000244141 184.496C0.000244141 135.228 14.1368 88.9227 39.795 54.0827C65.4871 19.2085 99.6526 0 136 0C172.348 0 206.522 19.2085 232.206 54.0827C257.864 88.9227 272 135.237 272 184.496C272 233.755 257.864 280.077 232.206 314.909C206.513 349.783 172.348 368.991 136 368.991V369ZM136 0.546376C61.3437 0.546376 0.603066 83.0662 0.603066 184.496C0.603066 285.925 61.3437 368.454 136 368.454C210.657 368.454 271.397 285.934 271.397 184.496C271.397 83.0577 210.657 0.546376 136 0.546376Z" fill="#A6743A"/>
</g>
<defs>
<clipPath id="clip0_1592_5219">
<rect width="272" height="369" fill="white"/>
</clipPath>
</defs>
</svg>
