<svg width="1647" height="5481" viewBox="0 0 1647 5481" fill="none" xmlns="http://www.w3.org/2000/svg">
<path d="M1308 1C1167 165.053 907 172.231 823 173.256H617.565C514.528 173.256 431 256.784 431 359.821V359.821V359.821C431 441.007 496.606 506.931 577.791 507.324L643 507.639L972 508.665H1282.91C1396.73 508.665 1489 600.936 1489 714.758V714.758C1489 828.58 1396.73 920.852 1282.91 920.852H472.826C361.913 920.852 272 1010.76 272 1121.68V1121.68V1121.68C272 1236.5 365.185 1329.52 480.004 1329.32L860 1328.66H1232.5C1351.68 1328.66 1448.45 1424.98 1449 1544.16V1544.16V1544.16C1449 1662.04 1353.44 1757.61 1235.55 1757.61H632.366C510.109 1757.61 411 1856.71 411 1978.97V1978.97V1978.97C411 2103.49 511.945 2204.44 636.468 2204.44H966.068H1184.65C1309.11 2204.44 1410 2305.33 1410 2429.79V2429.79V2429.79C1410 2554.25 1309.11 2655.14 1184.65 2655.14H578.428C455.194 2655.14 355.448 2755.34 356 2878.57V2878.57V2878.57C356 3002 455.998 3102.09 579.426 3102.2L1245.93 3102.8C1363.08 3102.91 1458 3197.91 1458 3315.07V3315.07V3315.07C1458 3437.13 1358.99 3536.05 1236.93 3535.93L938.5 3535.64L591.934 3535.93C454.418 3536.05 343 3647.56 343 3785.08V3785.08C343 3922.67 454.545 4034.22 592.143 4034.22H1189.94C1318.66 4034.22 1423 4138.56 1423 4267.28V4267.28C1423 4395.99 1318.66 4500.33 1189.94 4500.33H776.947C643.324 4500.33 535 4608.66 535 4742.28V4742.28C535 4875.9 643.324 4984.23 776.947 4984.23H1398.11C1535.02 4984.23 1646 5095.21 1646 5232.11V5232.11C1646 5369.02 1535.02 5480 1398.11 5480H0" stroke="#AA7940" stroke-width="2"/>
</svg>
