<svg width="192" height="204" viewBox="0 0 192 204" fill="none" xmlns="http://www.w3.org/2000/svg">
<rect width="134.913" height="129.96" transform="translate(56.5503 73.4199)" fill="#C08E54"/>
<g clip-path="url(#clip0_1719_74)">
<path fill-rule="evenodd" clip-rule="evenodd" d="M59.5035 133.349C60.5174 132.344 62.0161 132.103 63.2724 132.628C67.449 130.005 72.6945 129.721 77.1025 131.765C68.3636 135.174 61.3659 142.048 57.8505 150.682C55.8449 146.332 56.1535 141.196 58.7762 137.087C58.2473 135.852 58.4787 134.366 59.5035 133.349ZM83.0423 188.69L82.5464 188.559L83.0202 186.8L83.5161 186.931L83.0423 188.69ZM96.2001 139.983L95.7042 139.852L96.1781 138.092L96.674 138.223L96.2001 139.983ZM70.8101 181.685L72.1104 180.396L72.4741 180.756L71.1737 182.046C75.6038 186.363 81.5656 189.128 88.1776 189.477V184.527H91.0538V189.477C97.6658 189.128 103.628 186.352 108.058 182.046L106.757 180.756L107.121 180.396L108.421 181.685C112.774 177.292 115.562 171.38 115.915 164.823H110.923V161.971H115.915C115.562 155.414 112.763 149.501 108.421 145.108L107.121 146.398L106.757 146.037L108.058 144.747C103.628 140.431 97.6658 137.666 91.0538 137.316V142.267H88.1776V137.316C81.5656 137.666 75.6038 140.442 71.1737 144.747L72.4741 146.037L72.1104 146.398L70.8101 145.108C66.4572 149.501 63.6691 155.414 63.3165 161.971H68.3085V164.823H63.3165C63.6691 171.38 66.4682 177.292 70.8101 181.685ZM64.2421 170.396L64.1099 169.905L65.8841 169.435L66.0164 169.926L64.2421 170.396ZM113.347 157.348L113.215 156.856L114.989 156.386L115.121 156.878L113.347 157.348ZM64.1099 156.878L64.2421 156.386L66.0164 156.856L65.8841 157.348L64.1099 156.878ZM113.215 169.926L113.347 169.435L115.121 169.905L114.989 170.396L113.215 169.926ZM82.5574 138.223L83.0533 138.092L83.5271 139.852L83.0312 139.983L82.5574 138.223ZM95.7153 186.931L96.2112 186.8L96.685 188.559L96.1891 188.69L95.7153 186.931ZM89.6102 160.55C90.3265 160.55 90.9767 160.812 91.4836 161.238L107.65 152.987L108.058 153.687L92.4754 163.632C92.3542 165.096 91.1199 166.244 89.6102 166.244C88.0233 166.244 86.734 164.965 86.734 163.391C86.734 163.074 86.7891 162.768 86.8772 162.484L70.8872 153.326L71.306 152.605L87.2519 161.741C87.7698 161.02 88.6294 160.539 89.5992 160.539L89.6102 160.55ZM66.6445 176.188L69.2562 174.691L69.5648 175.216L66.9531 176.713L66.6445 176.177V176.188ZM109.656 151.567L112.267 150.07L112.576 150.605L109.964 152.102L109.656 151.578V151.567ZM112.587 176.188L112.278 176.724L109.667 175.227L109.975 174.702L112.587 176.199V176.188ZM69.5758 151.567L66.9641 150.07L66.6555 150.605L69.2673 152.102L69.5758 151.578V151.567ZM76.1768 185.86L77.6865 183.27L78.2265 183.576L76.7168 186.166L76.1768 185.86ZM101.005 143.218L102.515 140.628L103.055 140.934L101.545 143.524L101.005 143.218ZM103.055 185.86L102.515 186.166L101.005 183.576L101.545 183.27L103.055 185.86ZM78.2265 143.218L76.7168 140.628L76.1768 140.934L77.6865 143.524L78.2265 143.218ZM89.6102 131.393C71.7908 131.393 57.3436 145.72 57.3436 163.391C57.3436 181.062 71.7908 195.4 89.6212 195.4C107.452 195.4 121.899 181.073 121.899 163.391C121.899 145.709 107.441 131.393 89.6102 131.393ZM65.9723 187.969C67.7685 189.663 69.7411 191.171 71.879 192.45L69.9836 194.329C68.551 195.75 66.2037 195.75 64.7711 194.329C63.3385 192.909 63.3385 190.581 64.7711 189.16L65.9833 187.958L65.9723 187.969ZM113.259 187.969L114.471 189.171C115.904 190.592 115.904 192.92 114.471 194.34C113.039 195.761 110.691 195.761 109.259 194.34L107.363 192.461C109.49 191.182 111.474 189.674 113.27 187.98L113.259 187.969ZM119.717 133.382C120.731 134.387 120.973 135.885 120.444 137.12C123.056 141.218 123.375 146.343 121.381 150.682C117.865 142.059 110.89 135.196 102.151 131.786C106.559 129.754 111.782 130.049 115.948 132.672C117.193 132.147 118.692 132.377 119.717 133.393V133.382Z" fill="#FFDBB2"/>
</g>
<path d="M122.554 104.81H108.638L105.66 113.577H110.364V118.42H95.1119V113.577H99.7877L110.364 84.0752H105.66V79.7056H125.449V84.0752H120.634L131.461 113.577H135.802V118.42H120.634V113.577H125.449L122.554 104.81ZM121.107 100.273L115.958 84.0752H115.429L110.086 100.273H121.107Z" fill="#EBB7DD"/>
<path d="M137.941 161.458V132.429H133.182V127.586H146.068C149.612 127.586 152.265 127.8 154.028 128.227C155.809 128.653 157.377 129.739 158.732 131.483C160.086 133.208 160.763 135.24 160.763 137.578C160.763 139.378 160.355 141.001 159.539 142.449C158.741 143.896 157.563 144.991 156.004 145.733C158.156 146.475 159.808 147.709 160.958 149.435C162.127 151.142 162.711 153.099 162.711 155.307C162.711 157.218 162.275 158.953 161.403 160.512C160.55 162.07 159.409 163.276 157.98 164.13C156.551 164.983 154.983 165.559 153.276 165.855C151.588 166.152 149.278 166.301 146.346 166.301H133.182V161.458H137.941ZM143.786 143.701H147.432C150.215 143.701 152.154 143.219 153.249 142.254C154.362 141.271 154.919 139.833 154.919 137.94C154.919 134.266 152.423 132.429 147.432 132.429H143.786V143.701ZM143.786 161.458H145.984C148.86 161.458 150.966 161.319 152.302 161.041C153.638 160.744 154.724 160.066 155.559 159.009C156.412 157.933 156.839 156.56 156.839 154.89C156.839 153.368 156.431 152.097 155.614 151.077C154.816 150.038 153.777 149.351 152.497 149.017C151.235 148.665 149.445 148.488 147.126 148.488H143.786V161.458Z" fill="#EBB7DD"/>
<path d="M186.345 110.647L191.383 113.458C190.251 117.763 187.96 121.103 184.508 123.478C181.076 125.834 177.124 127.013 172.652 127.013C166.789 127.013 162.085 125.111 158.541 121.307C154.997 117.503 153.225 112.8 153.225 107.196C153.225 101.055 155.006 96.1655 158.569 92.5288C162.131 88.8921 166.779 87.0737 172.513 87.0737C177.578 87.0737 181.836 88.4561 185.288 91.2207V87.686H190.297V100.127H185.288C184.174 97.6035 182.458 95.6553 180.139 94.2822C177.819 92.8906 175.379 92.1948 172.819 92.1948C168.96 92.1948 165.787 93.5864 163.3 96.3696C160.833 99.1528 159.599 102.669 159.599 106.918C159.599 111.278 160.925 114.841 163.579 117.605C166.232 120.37 169.377 121.752 173.014 121.752C176.001 121.752 178.719 120.797 181.169 118.886C183.618 116.956 185.343 114.21 186.345 110.647Z" fill="#EBB7DD"/>
<g clip-path="url(#clip1_1719_74)">
<path d="M99.8702 189.924C99.8702 189.924 107.305 186.291 109.478 186.833C111.65 187.376 114.921 192.653 115.642 193.015C116.363 193.376 117.814 193.557 118.544 193.376C119.265 193.195 119.085 192.464 118.905 192.283C118.724 192.102 112.379 185.74 110.199 185.378C108.027 185.017 100.171 187.453 100.033 187.884C99.9045 188.305 99.8616 189.924 99.8616 189.924H99.8702Z" fill="#737373"/>
<path d="M167.13 189.924C167.13 189.924 159.695 186.291 157.523 186.833C155.351 187.375 152.08 192.653 151.358 193.014C150.637 193.376 149.186 193.557 148.456 193.376C147.735 193.195 147.916 192.464 148.096 192.283C148.276 192.102 154.621 185.74 156.802 185.378C158.974 185.017 166.847 187.462 166.976 187.883C167.104 188.305 167.13 189.924 167.13 189.924Z" fill="#737373"/>
<g style="mix-blend-mode:screen" opacity="0.3">
<path d="M115.556 203.294C123.067 203.294 129.156 197.189 129.156 189.657C129.156 182.126 123.067 176.021 115.556 176.021C108.046 176.021 101.957 182.126 101.957 189.657C101.957 197.189 108.046 203.294 115.556 203.294Z" fill="#F8FFFF"/>
</g>
<g style="mix-blend-mode:screen" opacity="0.3">
<path d="M161.151 199.393C166.462 194.067 166.462 185.433 161.151 180.107C155.84 174.782 147.229 174.782 141.918 180.107C136.607 185.433 136.607 194.067 141.918 199.393C147.229 204.718 155.84 204.718 161.151 199.393Z" fill="#F8FFFF"/>
</g>
<path d="M102.257 186.808C101.853 187.135 101.132 187.565 100.583 187.565C100.188 187.565 99.8701 187.884 99.8701 188.28V190.053C99.8701 190.38 100.085 190.656 100.402 190.742C100.72 190.828 101.141 191.018 101.501 191.379C102.223 192.102 102.351 192.929 102.351 192.929L103.133 189.201L102.257 186.808Z" fill="#737373"/>
<path d="M164.744 186.808C165.147 187.135 165.868 187.565 166.418 187.565C166.813 187.565 167.13 187.884 167.13 188.28V190.053C167.13 190.38 166.916 190.656 166.598 190.742C166.28 190.828 165.86 191.018 165.499 191.379C164.778 192.102 164.649 192.929 164.649 192.929L163.868 189.201L164.744 186.808Z" fill="#737373"/>
<path d="M151.624 176.115C144.885 176.072 139.278 180.954 138.154 187.385C134.943 186.575 131.877 186.575 128.958 187.385C127.877 180.919 122.262 175.995 115.496 176.021C108.181 176.046 102.128 181.987 101.956 189.322C101.776 197.001 107.932 203.286 115.548 203.286C122.665 203.286 128.495 197.81 129.096 190.828C129.156 190.148 129.628 189.58 130.289 189.434C132.41 188.952 134.556 188.96 136.728 189.434C137.424 189.589 137.93 190.183 137.99 190.897C138.574 197.888 144.421 203.372 151.539 203.372C159.154 203.372 165.31 197.087 165.13 189.408C164.958 182.081 158.922 176.15 151.616 176.107L151.624 176.115ZM115.556 201.564C108.997 201.564 103.682 196.235 103.682 189.658C103.682 183.08 108.997 177.751 115.556 177.751C122.116 177.751 127.43 183.08 127.43 189.658C127.43 196.235 122.116 201.564 115.556 201.564ZM151.539 201.65C144.979 201.65 139.665 196.321 139.665 189.744C139.665 183.166 144.979 177.837 151.539 177.837C158.098 177.837 163.413 183.166 163.413 189.744C163.413 196.321 158.098 201.65 151.539 201.65Z" fill="url(#paint0_linear_1719_74)"/>
</g>
<rect x="25" width="82" height="82" rx="41" fill="#AC84A1"/>
<rect width="114" height="23.6" transform="translate(41 42)" fill="#AC84A1"/>
<path d="M55.7563 49.1084H56.9624L56.3022 52.6631H54.6899L55.7563 49.1084ZM59.9458 58.2998H58.2954V49.1084H59.9458V58.2998ZM61.6597 49.1084H67.6392V50.4922H63.3101V53.0059H67.3218V54.3896H63.3101V56.9033H67.6646V58.2998H61.6597V49.1084ZM69.2261 49.1084H70.8765V56.9033H74.939V58.2998H69.2261V49.1084ZM74.6724 49.1084H81.9976V50.4922H79.1665V58.2998H77.5161V50.4922H74.6724V49.1084ZM88.2944 51.6348C88.2563 51.2454 88.0807 50.9408 87.7676 50.7207C87.4587 50.5007 87.0545 50.3906 86.5552 50.3906C86.2166 50.3906 85.9204 50.4414 85.6665 50.543C85.4126 50.6445 85.2179 50.7863 85.0825 50.9683C84.9471 51.1502 84.8794 51.3555 84.8794 51.584C84.8794 51.9352 85.0254 52.2082 85.3174 52.4028C85.6094 52.5933 85.9881 52.7435 86.4536 52.8535L87.3169 53.082C88.1082 53.264 88.7536 53.5666 89.2529 53.9897C89.7565 54.4087 90.0083 54.9863 90.0083 55.7227C90.0083 56.2601 89.8708 56.734 89.5957 57.1445C89.3206 57.555 88.9207 57.8745 88.396 58.103C87.8755 58.3273 87.2534 58.4395 86.5298 58.4395C85.8146 58.4395 85.1947 58.3294 84.6699 58.1094C84.1452 57.8851 83.7347 57.5614 83.4385 57.1382C83.1465 56.7108 82.9878 56.1966 82.9624 55.5957H84.5874C84.6255 56.0612 84.8201 56.4167 85.1714 56.6621C85.5269 56.9076 85.9754 57.0303 86.5171 57.0303C86.8768 57.0303 87.1963 56.9753 87.4756 56.8652C87.7549 56.7552 87.9707 56.6007 88.123 56.4019C88.2796 56.1987 88.3579 55.9681 88.3579 55.71C88.3579 55.3757 88.2183 55.1154 87.939 54.9292C87.6639 54.7388 87.2492 54.5716 86.6948 54.4277L85.6538 54.1611C84.0203 53.7337 83.2036 52.9085 83.2036 51.6855C83.2036 51.1523 83.3496 50.6826 83.6416 50.2764C83.9336 49.8659 84.3356 49.5485 84.8477 49.3242C85.3639 49.0957 85.9416 48.9814 86.5806 48.9814C87.2238 48.9814 87.793 49.0957 88.2881 49.3242C88.7874 49.5485 89.1746 49.8617 89.4497 50.2637C89.729 50.6657 89.8729 51.1227 89.8813 51.6348H88.2944ZM92.2173 52.6758H91.0112L91.6714 49.1211H93.2837L92.2173 52.6758ZM101.574 50.708C101.569 51.4147 101.686 52.1024 101.923 52.771C102.16 53.4396 102.503 54.0342 102.951 54.5547C103.4 55.0752 103.927 55.4645 104.532 55.7227L103.694 56.8525C103.046 56.5521 102.481 56.1141 101.999 55.5386C101.521 54.9631 101.146 54.2923 100.875 53.5264C100.605 54.3558 100.222 55.0837 99.7266 55.71C99.2357 56.332 98.6496 56.8018 97.9683 57.1191L97.105 55.9385C97.7271 55.6719 98.2666 55.2699 98.7236 54.7324C99.1849 54.1908 99.5361 53.5708 99.7773 52.8726C100.019 52.1701 100.139 51.4486 100.139 50.708V48.8799H101.574V50.708ZM106.779 59.4424H105.357V47.9531H106.779V59.4424ZM118.078 54.8975H116.668V52.5234H115.031V51.3555H116.668V47.9531H118.078V54.8975ZM118.078 59.29H110.448V55.418H118.078V59.29ZM111.857 58.1475H116.694V56.5352H111.857V58.1475ZM115.221 50.1621H108.493V49.0195H111.159V47.8643H112.555V49.0195H115.221V50.1621ZM111.857 50.6064C112.382 50.6064 112.849 50.6953 113.26 50.873C113.674 51.0465 113.998 51.2899 114.231 51.603C114.464 51.9119 114.582 52.2653 114.586 52.6631C114.582 53.0736 114.464 53.4354 114.231 53.7485C114.002 54.0575 113.681 54.2965 113.266 54.4658C112.856 54.6351 112.386 54.7197 111.857 54.7197C111.332 54.7197 110.862 54.6351 110.448 54.4658C110.037 54.2965 109.716 54.0553 109.483 53.7422C109.254 53.429 109.14 53.0693 109.14 52.6631C109.14 52.2653 109.257 51.9119 109.489 51.603C109.722 51.2899 110.044 51.0465 110.454 50.873C110.865 50.6953 111.332 50.6064 111.857 50.6064ZM111.857 51.6729C111.442 51.6729 111.11 51.7617 110.86 51.9395C110.611 52.1172 110.486 52.3584 110.486 52.6631C110.486 52.9762 110.609 53.2217 110.854 53.3994C111.104 53.5771 111.438 53.666 111.857 53.666C112.276 53.666 112.608 53.5771 112.854 53.3994C113.103 53.2217 113.228 52.9762 113.228 52.6631C113.228 52.3584 113.103 52.1172 112.854 51.9395C112.604 51.7617 112.272 51.6729 111.857 51.6729ZM129.224 49.6035H125.898C125.94 49.9674 126.12 50.3145 126.438 50.6445C126.755 50.9746 127.189 51.2581 127.739 51.4951C128.289 51.7321 128.924 51.8929 129.643 51.9775L129.11 53.0947C128.094 52.972 127.22 52.6991 126.488 52.2759C125.756 51.8527 125.234 51.328 124.92 50.7017C124.607 51.328 124.087 51.8527 123.359 52.2759C122.631 52.6991 121.759 52.972 120.744 53.0947L120.223 51.9775C120.943 51.8929 121.575 51.7321 122.121 51.4951C122.671 51.2581 123.103 50.9746 123.416 50.6445C123.729 50.3145 123.909 49.9674 123.956 49.6035H120.655V48.4736H129.224V49.6035ZM130.176 54.8721H125.746V56.9668H124.349V54.8721H119.69V53.7295H130.176V54.8721ZM129.021 59.2012H120.959V55.9131H122.369V58.0586H129.021V59.2012ZM140.485 59.4424H139.063V47.9531H140.485V59.4424ZM132.957 51.7617H135.737V48.8926H137.133V56.7383H131.547V48.8926H132.957V51.7617ZM135.737 55.583V52.8662H132.957V55.583H135.737Z" fill="#FFEDCD"/>
<path d="M16.169 28.168L15.133 35H2.08502H1.58102H1.55302C1.55302 33.9173 1.73035 32.9 2.08502 31.948C2.45835 30.9773 2.92502 30.1373 3.48502 29.428C4.06368 28.7187 4.69835 28.0467 5.38902 27.412C6.09835 26.7587 6.79835 26.1427 7.48902 25.564C8.19835 24.9853 8.83302 24.4067 9.39302 23.828C9.97168 23.2307 10.4383 22.5773 10.793 21.868C11.1663 21.1587 11.353 20.4213 11.353 19.656C11.353 18.648 11.0543 17.7427 10.457 16.94C9.85968 16.1373 8.92635 15.736 7.65702 15.736C6.66768 15.736 5.65035 16.1 4.60502 16.828C3.55968 17.5373 2.63568 18.48 1.83302 19.656H1.44102C2.11302 17.248 3.26102 15.4 4.88502 14.112C6.50902 12.824 8.10502 12.18 9.67302 12.18C11.6517 12.18 13.2663 12.8053 14.517 14.056C15.7677 15.3067 16.393 16.8747 16.393 18.76C16.393 20.048 16.057 21.1867 15.385 22.176C14.7317 23.1467 13.873 23.9587 12.809 24.612C11.745 25.2467 10.6437 25.8347 9.50502 26.376C8.38502 26.9173 7.24635 27.5707 6.08902 28.336C4.93168 29.0827 4.03568 29.8853 3.40102 30.744H13.789C14.3117 30.744 14.7504 30.5293 15.105 30.1C15.4783 29.6707 15.7117 29.2413 15.805 28.812L15.945 28.168H16.169ZM28.7078 13.16C28.3344 12.8053 27.8958 12.628 27.3918 12.628C26.8878 12.628 26.4398 12.8053 26.0478 13.16C25.6744 13.5147 25.3384 14.112 25.0398 14.952C24.7411 15.792 24.5171 16.9773 24.3678 18.508C24.2184 20.02 24.1438 21.8773 24.1438 24.08C24.1438 28.0187 24.4144 30.8187 24.9558 32.48C25.5158 34.1413 26.3184 34.972 27.3638 34.972H27.3918H27.4198C28.4651 34.972 29.2584 34.1413 29.7998 32.48C30.3598 30.8187 30.6398 28.0187 30.6398 24.08C30.6398 21.8773 30.5651 20.02 30.4158 18.508C30.2664 16.9773 30.0424 15.792 29.7438 14.952C29.4451 14.112 29.0998 13.5147 28.7078 13.16ZM33.6918 32.508C32.0491 34.4493 29.9491 35.42 27.3918 35.42C24.8344 35.42 22.7251 34.4493 21.0638 32.508C19.4211 30.5667 18.5998 27.72 18.5998 23.968C18.5998 21.9893 18.8891 20.216 19.4678 18.648C20.0651 17.0613 20.8211 15.82 21.7358 14.924C22.6504 14.028 23.5931 13.3467 24.5638 12.88C25.5531 12.4133 26.4958 12.18 27.3918 12.18C28.2878 12.18 29.2211 12.4133 30.1918 12.88C31.1811 13.3467 32.1331 14.028 33.0478 14.924C33.9624 15.82 34.7091 17.0613 35.2878 18.648C35.8851 20.216 36.1838 21.9893 36.1838 23.968C36.1838 27.72 35.3531 30.5667 33.6918 32.508ZM46.3064 12.6H46.5584V32.62C46.5584 33.1427 46.7731 33.5907 47.2024 33.964C47.6318 34.3187 48.0704 34.5427 48.5184 34.636L49.1624 34.776V35C47.9118 34.72 46.2784 34.58 44.2624 34.58C42.1531 34.58 40.4264 34.72 39.0824 35V34.776C39.1571 34.7573 39.2504 34.7387 39.3624 34.72C39.4744 34.7013 39.6798 34.636 39.9784 34.524C40.2771 34.412 40.5384 34.2907 40.7624 34.16C41.0051 34.0107 41.2198 33.8053 41.4064 33.544C41.5931 33.264 41.6864 32.956 41.6864 32.62L41.7144 17.444C41.7144 16.5853 41.6118 16.0533 41.4064 15.848C41.1078 15.5493 40.5664 15.4 39.7824 15.4C39.6518 15.4 39.4558 15.4093 39.1944 15.428C38.9518 15.428 38.7744 15.428 38.6624 15.428V15.204C41.1078 14.8307 43.6558 13.9627 46.3064 12.6ZM61.2344 26.628V17.92L54.0384 26.628H61.2344ZM69.4384 26.628C69.0837 27.02 68.7944 27.496 68.5704 28.056C68.365 28.616 68.2624 29.12 68.2624 29.568H65.9384V32.62C65.9384 33.1427 66.153 33.5907 66.5824 33.964C67.0117 34.3187 67.441 34.5427 67.8704 34.636L68.5144 34.776V35C67.245 34.72 65.649 34.58 63.7264 34.58C61.673 34.58 59.9744 34.72 58.6304 35V34.776C58.705 34.7573 58.7984 34.7387 58.9104 34.72C59.0224 34.7013 59.2277 34.636 59.5264 34.524C59.825 34.412 60.0864 34.2907 60.3104 34.16C60.553 34.0107 60.7677 33.8053 60.9544 33.544C61.141 33.264 61.2344 32.956 61.2344 32.62V29.568H52.2744V29.372C52.2744 28.6813 51.9757 28.1027 51.3784 27.636L64.8464 11.368L65.0424 11.34V11.368C65.0424 11.6853 65.341 11.9653 65.9384 12.208V26.628H69.4384Z" fill="white"/>
<defs>
<linearGradient id="paint0_linear_1719_74" x1="133.543" y1="168.479" x2="133.543" y2="203.923" gradientUnits="userSpaceOnUse">
<stop stop-color="#626262"/>
<stop offset="1" stop-color="#5C5C5C"/>
</linearGradient>
<clipPath id="clip0_1719_74">
<rect width="66.12" height="64.98" fill="white" transform="translate(56.5503 130.42)"/>
</clipPath>
<clipPath id="clip1_1719_74">
<rect width="67.26" height="27.36" fill="white" transform="translate(99.8701 176.02)"/>
</clipPath>
</defs>
</svg>
