<?xml version="1.0" encoding="UTF-8"?>
<svg id="_레이어_1" data-name="레이어 1" xmlns="http://www.w3.org/2000/svg" viewBox="0 0 1944 492">
  <defs>
    <style>
      .cls-1 {
        fill: none;
      }

      .cls-2 {
        fill: #b297b5;
      }
    </style>
  </defs>
  <rect class="cls-1" x="260.16" y="244.94" width="11.03" height="9.02"/>
  <path class="cls-1" d="M298.15,244.95c.36,2.31-.76,7.33.44,9.05.97,1.39,9.31,1.4,10.61.5,1.64-1.13.24-9.15-.11-9.49-.57-.56-9.06.29-10.95-.06Z"/>
  <rect class="cls-1" x="260.18" y="205.04" width="10.99" height="26.95"/>
  <path class="cls-1" d="M141.24,228.99v19.96l2.05-14.42c-.48-2.08,1.46-6.33-2.05-5.54Z"/>
  <path class="cls-1" d="M298.16,205.04v26.95c2.6-.41,10.21,1,11.56-.93.8-1.14.76-23.99,0-25.08-1.35-1.93-8.92-.53-11.56-.93Z"/>
  <rect class="cls-1" x="222.19" y="205.04" width="10.99" height="26.95"/>
  <rect class="cls-1" x="222.18" y="244.94" width="11.03" height="9.02"/>
  <path class="cls-1" d="M885.85,241.96c-.23,11.28-2.14,14.43,11,12.98v-12.98s-11,0-11,0Z"/>
  <path class="cls-1" d="M885.85,228.99c2.13-.2,11.99.87,11.99-1.5v-25.45h-11.99v26.95Z"/>
  <rect class="cls-1" x="847.86" y="241.94" width="11.03" height="12.01"/>
  <rect class="cls-1" x="847.87" y="202.04" width="10.99" height="26.95"/>
  <rect class="cls-1" x="809.89" y="202.04" width="10.99" height="26.95"/>
  <rect class="cls-1" x="809.87" y="241.94" width="11.03" height="12.01"/>
  <path class="cls-2" d="M1335.7,102.15c13.18-11.81,22.96-28.21,23.2-46.32-1.34-1.55-14.27,11.6-15.64,13.08l-9.57,15.12v-27.2c0-.26,3.52-.76,4.93-1.62,10.6-6.48,7.81-18.55,3.15-28.11l-1.55,1.48-3.5,8.09c-.29-2.69-1.43-5.62-2.59-8.04-.53-1.1.1-2.56-1.95-2.03-2.08.54-2.03,13.38-4.65,7.65-2.36-5.18-3.3-13-6.48-1.62-2.11,7.54-3.15,17.95,4.86,22.37,1.37.76,5.75,1.52,5.75,1.82v27.2l-9.57-15.12c-1.37-1.48-14.3-14.63-15.64-13.08.28,17.99,10.07,34.69,23.2,46.33h-52.46c13.16-12.75,22.22-27.51,23.2-46.33-8.12,3.43-14.22,10.53-19.19,17.6l-6.03,10.6v-27.2c0-.26,3.55-.65,4.96-1.59,10.69-7.17,6.32-18.67,3.1-28.62-3.2.4-3.9,10.06-4.53,10.08-.75-.93-3.97-11.24-5.54-10.08l-3.54,10.08c-1.06-2.69-1.63-5.5-3.02-8.11-.55-1.03-.09-2.56-2.01-1.98-.57.17-3.23,9.08-3.43,10.69-.79,6.5-.68,12.92,5,16.94,2.39,1.7,6.99,2.22,6.99,2.59v27.2c-4.4-5.43-6.84-11.73-11.59-17.14-3.82-4.36-8.52-8.28-13.62-11.07-.57,18.25,9.96,33.93,22.18,46.33h-51.45c12.12-12.55,22.81-27.99,22.18-46.33-5.1,2.78-9.8,6.71-13.62,11.07-4.75,5.41-7.19,11.7-11.59,17.14v-27.2c0-.19,2.45-.16,3.71-.78,8.44-4.12,9.56-10.72,8.15-19.62-.16-1.02-2.46-8.48-2.8-8.8-2.28-2.18-3.79,6-4.02,6.56-.33.82-.23,3.44-2.01,1.5-.32-.35-2.09-7.68-3.05-9.06-3.2.4-3.9,10.06-4.53,10.08-.75-.93-3.98-11.24-5.54-10.08-3.84,9.92-7.47,21.52,3.1,28.62,1.41.95,4.96,1.33,4.96,1.59v27.2l-7.23-12.42c-5.08-6.04-10.32-12.77-17.98-15.78,1.15,18.62,10.04,33.7,23.2,46.33h-47.41c-1.23-7.4-.29-15.2-1.1-22.57-.11-.99-.44-3.79-1.92-3.61v14.1c-1.78.23-.96-2.28-1.01-3.52-.52-12.95-1.25-25.86-2.03-38.78l-2.22,17.41-1.8,1.72-2.02-9.06-1.02,11.07-2.01-1.5-2.02-15.62-3.03,28.19c-.45-9.3-.27-19.48-1.03-28.69-.1-1.22-.38-5.39-2-5.55l-1.03,34.24-1.01-6.03c-1.79-.38-.65,1.48-1,2.01l-1.02,22.15c-1.76.24-.95-2.28-1-3.51-.24-5.86.16-11.78,0-17.64-.24-8.76-.99-17.43-1.01-26.18-2.74-3.59-2.03,9.96-2.02,10.56l-2,8.57-3.05-26.18-2,9.57-.02,9.55-3.01-10.06c.03,5.06-.69,10.06-1.02,15.1-.75,11.36-1.14,22.84-1.02,34.24-1.76.24-.95-2.28-1-3.51-.41-9.87.22-19.85,0-29.72-.17-7.6-.73-15.08-1.01-22.68-.04-1.22.75-3.75-1-3.51l-2.07,31.68.03,27.74-3.16-29.56c-.59-6.8-4.52-12.81-3.9-19.78l-3.01,5.03-2.02-6.03-3.05,23.16-2.02-12.57-2-3.54-3.03,27.19-1.03-29.7-3-22.67-3.05,29.2-3.01-11.07c-2.65,15.62-2.39,31.12-3.04,46.84-.05,1.23.76,3.75-1,3.51-.28-23.04-4.99-45.61-7.08-68.49-2.65-.22-1.67-.12-1.98,1.52-2.1,11.2-3.19,23.36-3.07,34.74l-3.01-4.02c-.03,2.13.18,4.29-.13,6.42-.23,1.57-.48,6.06-1.88,6.67.69-10.83-1.89-21.42-2.04-32.22-1.39.59-1.67,5.14-1.88,6.67-.47,3.44-.07,7.04-1.15,10.44l-2-6.03-3.03,19.13c0-13.31-1.03-27.39-3.35-40.48-.22-1.26-.19-4.88-1.7-4.84-2.44,14.74-3.64,29.4-4.05,44.31-.21,7.53.31,15.14,0,22.67-.05,1.24.77,3.74-1.01,3.51v-17.63c0-1.36-.81-6.19-1.01-8.56-.5-6.07-1.17-12.1-2.03-18.12l-2,7.04c-.63-3.99-.57-8.58-1.14-12.47-.17-1.13-.36-4.7-1.89-4.65l-1.03,13.08-2-2c-.45,8.07-1.47,16.1-2.03,24.17-.44,6.37.72,12.94-1.51,19.15-1.53,0,.48-16.92.5-19.15.19-16.61-1.91-32.97-4.04-49.36-2.66-.21-1.67-.11-1.98,1.53-.79,4.23-1.36,8.92-1.93,13.21-1.91,14.47-3.72,29.15-4.17,43.69-1.75.24-.96-2.28-1-3.51-.54-13.99-2.09-27.87-3.03-41.81l-4.01,21.14-2.03-33.23c-1.22-1.6-1.84-.01-2.02,1.49-2.55,21.67-3.07,44.18-3.03,65.99-2.4.74-2.7-1.79-2.92-3.6-.31-2.62-.91-33.62-2.63-33.67-3.26,10.6-3.08,22.61-3.53,33.76-.05,1.22.76,3.75-1,3.51-.24-12.93-.36-26.84-2.15-39.65-.43-3.04-.53-7.31-2.4-9.69-1.3,2.37.65,7.69-2.51,9.06l-2.04-29.2-2,9.57c-.59,9.93-1.69,19.76-2.03,29.7-.16,4.85.2,9.76,0,14.62-.05,1.23.76,3.75-1,3.51l-1.02-20.14-2.01-17.12c-1.37,6.44-1.22,13.13-2.04,19.64-.17,1.38-.71,3.2-2,1.5l-1.03-21.64-2-7.56-4.06,30.21-3.01-11.07-4.04,38.26-.98-39.82-2.05-18.59-1.03,16.11-2-2c-.4,7.78-1.63,15.36-2.03,23.16-.3,5.84.24,11.78,0,17.64-.05,1.36.84,4.19-1.5,3.52-1.02-.29-.48-18.58-.51-21.16-.18-12.78-.66-25.5-1.02-38.27l-2.02,17.12-2-1.02-1.03,11.08-3.01-22.15c-.59,18.15-2.77,36.19-2.03,54.39h-19.17c.33-1.92-.45-11.68,0-12.09.37-.35,3.68.36,4.05.01.47-.45.28-12.48-.16-12.96-.32-.35-3.89-.43-3.89-1.65v-25.68c.94-.17,3.75.29,4.04,0,.45-.43.26-11.8.06-12.49-.33-1.13-2.85-.43-3.64-1.55-.71-1.02-.31-3.55-1.42-5.65-.96-1.82-11.05-13.61-12.67-13.61-1.6,0-1.63,1-2.36,1.72-4.35,4.29-10.74,12.68-11.81,18.51-1.74-.34-10.17.36-10.53-.02-.21-.22.36-4.1-.51-6.04-.34-.75-9.75-12.03-10.51-12.67-2.33-1.96-2.88-2.04-5.13.05-1.15,1.07-9.64,11.87-10.15,13.02-.96,2.17-.74,5.41-.93,5.62-.38.41-10.71.4-11.09,0-.27-.28.38-5.2-1.14-6.42-2.51-1.78-10.4-13.76-12.47-13.78-1.49,0-11.54,11.9-12.5,13.78-1.23,2.4-.91,6.19-1.14,6.43-.38.4-10.72.41-11.09,0-.17-.19.17-2.99-.25-4.26-1.28-3.91-10.42-13.32-14.24-15.81-.92.16-11.72,12.91-12.23,14.04-.88,1.95-.31,5.82-.52,6.04-.36.38-5.67-.4-6.06-.01-.47.46-.47,12.64,0,13.1.32.32,4.8-.22,6.06,0v27.2c0,.32-5.88-.72-6.07.58-.22,1.49-.43,12.08.01,12.52.4.39,5.67-.4,6.06-.01.43.42-.32,10.18,0,12.09h-50.44c13.02-12.73,22.47-27.55,23.2-46.33-7.89,3.3-13.88,10.2-18.79,16.99l-6.43,11.21v-27.2c0-.3,3.83-.85,5.56-2.01,9.8-6.58,6.62-19.34,2.01-28.2l-4.53,10.06c.16-1.46-3.74-11.03-5.04-10.06-1.34,2.73-1.39,7.43-4.04,9.06l-3.05-9.06c-2.08-1.6-10.26,19.05-.5,27.2,2.59,2.16,7.58,2.6,7.58,3.01v27.2c-4.25-4.88-6.32-11.02-10.58-16.13-3.87-4.64-9.36-9.11-14.63-12.07-.64,15.1,7.13,28.44,16.16,39.76l7.03,6.58h-52.46c12.15-12.46,23.18-28.03,22.18-46.33-5.29,2.69-9.55,6.85-13.62,11.07l-10.58,16.13v-26.19c0-.72,9.34-1.94,10.88-8.77.83-3.69-.2-18.04-2.83-20.43-3.03-2.75-3.35,10.87-6.03,8.06-.42-.44-.97-8.06-3.54-9.05l-4.53,10.05c-.42-3.42-2.11-7.96-5.04-10.06-3.29,8.5-6.5,22.24,2.5,28.2,1.73,1.15,5.56,1.72,5.56,2.01v26.19l-11.59-17.13c-1.1-1.64-12.57-11.18-13.62-10.06,1.08,18.44,10.37,33.71,23.2,46.33h-52.46c13.28-11.65,23.11-28.23,23.19-46.33-6.4,2.81-10.71,8.38-15.64,13.08l-9.57,15.12v-27.2c0-.3,4.38-1.06,5.75-1.82,12.45-6.88,3.03-29.66,1.32-28.4l-4.04,11.07-3.05-11.07c-2.92,1.77-4.14,5.85-4.03,9.06-3.68-1.71-4.32-14.64-7.79-5.27-3.4,9.17-4.31,20.03,5.4,25.31,1.52.83,4.42.88,4.42,1.11v27.2l-9.57-15.12c-1.38-1.49-14.29-14.63-15.64-13.08.55,18.36,9.9,34.26,23.2,46.33h-34.3c.63-17.51-1.38-34.9-2.03-52.37l-3.03,20.13-3-10.06-2.04,16.1-3-21.14-3.03,26.18-1.03-26.68-2-9.57-1.03,37.26-2-6.03-2.03,17.12v-23.67c0-.35-.96-1.68-1.05-2.98-.33-4.89.58-9.73-.98-14.64l-2.51,21.16c-1.23-6.18-1.29-12.92-3.26-18.96-.55-1.69.45-2.66-2.29-2.19l-.02,13.08-3.01-11.07-1.02,15.6-2,8.56-.02-12.58-2-18.64-2.07,23.62c-.01,6.56.15,13.14.04,19.68-.03,2,.45,11.82-.51,12.09-2.34.67-1.45-2.16-1.5-3.52-.12-2.85.19-5.75,0-8.57-.7-10.6-1.9-17.11-4.61-27.13-.78-2.88.55-7-2.44-8.13l-1.01,5.03-1.03-7.04-2.72,9.86-1.31,14.31-4.01-17.11-3.03,26.18c-1.01-17.15-1.91-34.31-4.06-51.36l-2,11.58-1.02,18.62-2.02-11.07c-1.61,0-1.62,3.45-1.85,4.69-2.64,14.05-2.27,29.36-3.19,43.65-1.76.24-.95-2.29-1-3.51-.89-21.88-4.15-43.32-7.07-64.97l-2.87,12.73-2.17,25.54-2-6.03-1.03,15.1-4.04-31.21-2,10.58-.02,6.53-3.01-6.03-2.02,17.11c-.65-14.18-2.56-28.21-4.05-42.3-3.04-.48-1.62.74-2.04,2.45-3.56,14.46-3.24,32.03-4.02,46.9l-1.88-9.69-1.14-14.48-3.01,6.03-1.03-17.11c-1.5-.06-1.74,3.54-1.89,4.64-1.09,7.92-3.33,13.74-4.15,22.55-.55,5.83-.78,11.77-1,17.64-.05,1.22.75,3.74-1,3.51-.18-7.36.21-14.8-.01-22.15-.43-14.25-1.89-28.23-4.05-42.3l-2.87,11.72c-1.03,16.34-4.98,32.31-5.2,48.7-1.76.24-.95-2.28-1-3.51-.58-13.99-1.27-27.89-3.04-41.81l-2.32,11.28-1.69,2.82-1.03-16.6-2-11.59-4.05,67.47c-1.29,1.7-1.83-.12-2-1.5-1.45-11.55-1.02-23.36-3.54-34.77l-1.39,5.68-3.14,30.59c.65-15.54-1.57-30.92-3.04-46.33-4.6-.94.58,6.99-4.03,6.04.41-9.12-1.34-18.13-2.03-27.19l-3.01,20.65-1.03,27.69-3.52-29.21-3.52,29.21c-.75-10.15-1.56-20.08-2.03-30.21h-2.02c-.96,7.98-3.6,16.04-4.05,24.17l-3-11.07c-1.64,12-3.35,24.11-3.05,36.25l-2.05-18.59-.98-38.81-2,9.57-.02,7.54-2-2c-.41,7.78-1.62,15.37-2.03,23.16-.27,5.17.21,10.43,0,15.62-.05,1.36.84,4.19-1.5,3.52-.95-.27-.49-16.72-.51-19.14-.15-12.79-.69-25.5-1.02-38.27l-2.02,17.12-2-1.02-1.03,11.08-3.01-22.15-2.07,29.67.04,22.7h-15.13c.25-1.58-.36-8.74,0-9.07.37-.35,3.68.36,4.05.01.46-.43.26-11.2.01-12.52-.24-1.28-4.06-.29-4.06-.58v-27.2c.94-.17,3.75.29,4.04,0,.47-.45.48-12.66,0-13.11-.37-.35-3.71.36-4.05.01-.21-.21.38-4.08-.51-6.04-.37-.81-10.77-13.26-11.59-13.64-1.21-.56-1.81-.81-3.04-.02-.75.49-10.65,13.14-11.12,14.11-1.12,2.32-.78,5.37-.98,5.58-.36.39-8.78-.3-10.52.02-1.06-.16-.24-4.18-1.09-6.05-.34-.75-9.55-11.67-10.56-12.61-.79-.73-1.26-1.57-2.55-1.56-1.45-.15-1.69,1.05-2.37,1.72-4.55,4.49-10.83,12.25-11.81,18.52-1.75-.36-10.13.38-10.53-.04-.27-.28.38-5.2-1.14-6.42-2.51-1.78-10.4-13.76-12.47-13.78-1.49,0-11.54,11.9-12.5,13.78-1.23,2.4-.91,6.19-1.14,6.43-.38.4-10.72.41-11.09,0-.17-.19.17-2.99-.25-4.26-1.28-3.91-10.42-13.32-14.24-15.81-.92.16-11.72,12.91-12.23,14.04-.88,1.95-.31,5.82-.52,6.04-.36.38-5.67-.4-6.06-.01-.47.46-.47,12.64,0,13.1.32.32,4.8-.22,6.06,0v27.2c0,.32-5.88-.72-6.07.58-.22,1.49-.43,12.08.01,12.52.4.39,5.67-.4,6.06-.01.37.36-.27,7.47,0,9.07h-20.18l-2.03-32.23-1.88,7.67c-.37,2.64-.02,5.3-.12,7.95-.05,1.22.75,3.74-1,3.51l-2.28-43.56-1.75-2.76c.28,6.76-.67,13.42-1.02,20.14-.17,3.33.13,6.73-.01,10.07-2.33-1.09-1.74-5.97-2.01-8.05-.4-3.12-.47-6.46-1.04-9.56-.31-1.65.66-1.73-1.98-1.52-.03,3.8-.58,7.68-1.18,11.42-.26,1.65-.37,6.07-1.84,6.71.08-6.47-.27-13.11-1.14-19.51-.21-1.53-.49-6.08-1.88-6.67-1.43,8.6-.96,18.25-2.02,26.71-.19,1.48-.78,3.11-2.02,1.49l-1.01-32.75-2.02-1.49-1.02,35.24-3.01-4.02-.51,5.03c-1.67-1.14-1.46-2.75-1.58-4.47-.71-10.25-1.15-20.54-1.97-30.77l-2,10.58c-.11,2.99.14,5.94-.13,8.93-.12,1.34-.55,6.17-1.88,6.67.45-10.28-4.47-19.98-4.06-30.21-1.07-.41-2.01,3.32-2.01,3.52v15.61c-4.29.77-.15-7.97-4.02-9.06-1.06,10.63-1.59,21.08-2.03,31.73-.05,1.23.76,3.75-1,3.51l-1.03-30.71-2-16.62c-1.74,22.43-2.95,44.94-3.05,67.47l-3.16-31.58-1.88-11.73-2,1.02-1.03-14.11-2.51,7.06c-2.49-1.6.24-7.89-3.53-7.06-.59,8.78-3.61,17.32-3.04,26.19-1.46.2-1.54-2.73-1.72-3.8-.78-4.58.03-12.06-3.3-15.33-.19,6.77-1.46,13.4-2.03,20.14-.53,6.3.24,12.9-1.51,19.15-.96,0-.44-17.08-.5-19.15-.52-16.88-2.6-33.55-4.05-50.36-1.39.59-1.67,5.13-1.88,6.67-1.29,9.39-1.85,19.1-2.15,28.58l-4.01-13.08c-2.29,15.36-3.78,30.81-4.55,46.34-1.69-22.95-6.08-45.62-8.58-68.5l-2.55,8.01c-1.52,11.71-3.64,23.41-3.5,35.29-2.68-.46,1.1-6.08-3.01-5.03l-1.02,16.11-2-10.58-2.03-25.67c-1.55-.14-1.71,2.54-1.9,3.62-.93,5.15-1.1,11.26-1.12,16.51l-3.01-9.06-3.03,22.15c-1-16.31-2.08-32.76-5.09-48.84-.31-1.65.66-1.74-1.98-1.52-2.31,19.73-5.39,39.46-5.05,59.43,0,.18,1.01,1.61,1.08,3.41.07,1.77.21,15.74-.58,15.74-1.7-6.28-1.06-12.81-1.51-19.15-.73-10.14-1.93-20.13-3.04-30.21l-3.01,8.05-1.16-13.45-1.87-7.69-2.04,16.1-1.99-3.01c-.41,8.61-2.14,17.13-3.03,25.69-.8,7.7.79,18.93-3.12,25.1l.08,393.39h1960.03V103.17s-617.36-1.01-617.36-1.01ZM127.25,82.57l-2.07,14.56v-20.14c3.54-.8,1.58,3.49,2.07,5.59ZM206.89,52.81h11.1v27.2h-11.1v-27.2ZM218.01,102.18h-11.13v-9.1h11.13v9.1ZM245.23,52.81h11.1v27.2h-11.1v-27.2ZM256.34,102.18h-11.13v-9.1h11.13v9.1ZM294.71,102.73c-1.32.91-9.74.9-10.71-.5-1.21-1.73-.08-6.8-.45-9.13,1.91.35,10.47-.5,11.05.06.35.34,1.77,8.43.11,9.58ZM295.23,79.06c-1.36,1.96-9.04.53-11.66.94v-27.2c2.67.41,10.3-1.01,11.66.94.77,1.1.8,24.16,0,25.31ZM800.05,49.79h11.1v27.2h-11.1v-27.2ZM811.16,102.18h-11.13v-12.12h11.13v12.12ZM838.38,49.79h11.1v27.2h-11.1v-27.2ZM849.49,102.18h-11.13v-12.12h11.13v12.12ZM876.71,90.07h11.11s0,13.1,0,13.1c-13.27,1.46-11.33-1.72-11.11-13.1ZM888.82,75.47c0,2.39-9.95,1.31-12.11,1.51v-27.2h12.11v25.68Z"/>
</svg>