<svg width="56" height="56" viewBox="0 0 56 56" fill="none" xmlns="http://www.w3.org/2000/svg">
<path d="M16 0.299805H39.2959C47.9668 0.299805 54.9961 7.32913 54.9961 16V54.9961H16C7.32913 54.9961 0.299805 47.9668 0.299805 39.2959V16C0.299805 7.32913 7.32913 0.299806 16 0.299805Z" stroke="#BCBF02" stroke-width="0.6"/>
<path d="M9.77267 35.6479L15.6677 19.3579H16.9952L22.8789 35.6479H21.6414L16.3652 20.8654H16.2752L11.0102 35.6479H9.77267ZM20.2802 29.4829V30.5404H12.3714V29.4829H20.2802ZM27.8217 35.6479H26.6967V19.3579H27.8217V35.6479ZM34.0695 35.6479H32.9445V19.3579H34.0695V35.6479Z" fill="#BCBF02"/>
<path d="M41.6088 32.256L46.2168 27.648L41.6088 23.04" stroke="#BCBF02" stroke-width="0.6912" stroke-linecap="round" stroke-linejoin="round"/>
</svg>
