<svg width="1920" height="1130" viewBox="0 0 1920 1130" fill="none" xmlns="http://www.w3.org/2000/svg">
<path d="M1635.73 496C1631.06 496 1628.23 493.167 1627.23 487.5C1626.9 484.833 1628.56 482.167 1632.23 479.5C1635.9 476.833 1638.9 475 1641.23 474C1642.9 473.333 1644.23 472.833 1645.23 472.5C1646.23 472.167 1647.06 472 1647.73 472C1650.06 472 1651.23 473.167 1651.23 475.5C1651.23 478.167 1650.23 481.333 1648.23 485C1646.56 488.667 1645.73 490.5 1645.73 490.5C1645.4 491.833 1644.23 493.167 1642.23 494.5C1640.23 495.5 1638.06 496 1635.73 496ZM1585.73 643.5C1579.73 643.5 1575.4 641.5 1572.73 637.5C1570.06 633.5 1568.73 628.5 1568.73 622.5C1568.73 617.833 1569.23 613.333 1570.23 609C1570.9 607 1572.56 602 1575.23 594C1578.23 586 1582.06 577.167 1586.73 567.5C1591.73 557.833 1597.06 549.5 1602.73 542.5C1608.4 535.167 1614.23 531.5 1620.23 531.5C1622.9 531.5 1624.23 532.167 1624.23 533.5C1624.23 534.833 1623.56 536.167 1622.23 537.5C1615.56 545.5 1609.23 555 1603.23 566C1597.56 576.667 1592.73 586.833 1588.73 596.5C1585.06 606.167 1582.9 613.5 1582.23 618.5C1581.23 629.167 1584.4 634.5 1591.73 634.5C1592.73 634.5 1593.73 634.5 1594.73 634.5C1595.73 634.167 1596.9 633.833 1598.23 633.5C1605.23 631.167 1612.06 626.833 1618.73 620.5C1625.4 614.167 1631.56 607.167 1637.23 599.5C1642.9 591.833 1647.56 585.167 1651.23 579.5C1652.56 578.167 1653.4 577.5 1653.73 577.5C1654.73 577.5 1655.23 578.333 1655.23 580C1655.23 581.667 1654.73 583.333 1653.73 585C1646.4 596.333 1637.73 607.5 1627.73 618.5C1618.06 629.5 1608.4 636.833 1598.73 640.5C1593.73 642.5 1589.4 643.5 1585.73 643.5Z" fill="#F9E9FF"/>
<path d="M1522.65 496C1520.98 496 1519.32 495.5 1517.65 494.5C1515.98 493.167 1514.82 490.833 1514.15 487.5C1513.82 484.833 1515.48 482.167 1519.15 479.5C1523.15 476.833 1526.15 475 1528.15 474C1529.82 473.333 1531.15 472.833 1532.15 472.5C1533.15 472.167 1533.98 472 1534.65 472C1536.98 472 1538.15 473.167 1538.15 475.5C1538.15 478.167 1537.15 481.333 1535.15 485C1533.48 488.667 1532.65 490.5 1532.65 490.5C1532.32 491.833 1531.15 493.167 1529.15 494.5C1527.15 495.5 1524.98 496 1522.65 496ZM1410.15 781.5C1400.82 781.5 1394.15 778.333 1390.15 772C1388.15 768.333 1387.15 764.5 1387.15 760.5C1387.15 756.167 1387.98 751.667 1389.65 747C1391.32 742.667 1393.48 738.167 1396.15 733.5C1400.82 725.833 1406.32 718.333 1412.65 711C1418.98 703.667 1425.32 697 1431.65 691C1437.98 685 1442.98 680.333 1446.65 677C1453.65 671.333 1461.98 664.667 1471.65 657C1480.98 649.333 1490.65 642.833 1500.65 637.5C1501.32 637.167 1501.98 637 1502.65 637C1503.65 637 1504.15 637.5 1504.15 638.5C1504.15 640.5 1503.32 641.833 1501.65 642.5C1497.32 644.833 1491.82 648.333 1485.15 653C1478.82 658 1472.48 663 1466.15 668C1459.48 673.333 1453.82 678 1449.15 682C1445.82 685 1441.32 689.5 1435.65 695.5C1429.98 701.5 1424.32 708.167 1418.65 715.5C1412.65 723.167 1407.65 730.833 1403.65 738.5C1402.32 741.167 1400.82 744.667 1399.15 749C1397.48 753.667 1396.65 758 1396.65 762C1396.65 765.333 1397.65 768 1399.65 770C1401.32 772.333 1404.32 773.5 1408.65 773.5C1415.65 773.5 1422.82 771 1430.15 766C1437.48 761 1444.65 754.667 1451.65 747C1458.32 739.667 1464.32 732.167 1469.65 724.5C1474.98 717.167 1479.32 710.833 1482.65 705.5C1494.32 685.833 1503.32 664.5 1509.65 641.5C1515.98 618.833 1518.32 597.167 1516.65 576.5C1515.65 566.833 1512.98 558.167 1508.65 550.5V550C1508.65 549 1509.65 548.5 1511.65 548.5C1513.98 548.5 1516.15 549.667 1518.15 552C1521.82 557.333 1524.32 563.833 1525.65 571.5C1527.32 579.167 1528.15 587.333 1528.15 596C1528.15 612 1525.65 629.167 1520.65 647.5C1515.65 666.167 1508.82 684.167 1500.15 701.5C1490.82 719.5 1479.82 735.5 1467.15 749.5C1454.15 763.5 1440.98 773 1427.65 778C1421.65 780.333 1415.82 781.5 1410.15 781.5Z" fill="#F9E9FF"/>
<path d="M1455.83 496C1451.16 496 1448.33 493.167 1447.33 487.5C1446.99 484.833 1448.66 482.167 1452.33 479.5C1455.99 476.833 1458.99 475 1461.33 474C1462.99 473.333 1464.33 472.833 1465.33 472.5C1466.33 472.167 1467.16 472 1467.83 472C1470.16 472 1471.33 473.167 1471.33 475.5C1471.33 478.167 1470.33 481.333 1468.33 485C1466.66 488.667 1465.83 490.5 1465.83 490.5C1465.49 491.833 1464.33 493.167 1462.33 494.5C1460.33 495.5 1458.16 496 1455.83 496ZM1405.83 643.5C1399.83 643.5 1395.49 641.5 1392.83 637.5C1390.16 633.5 1388.83 628.5 1388.83 622.5C1388.83 617.833 1389.33 613.333 1390.33 609C1390.99 607 1392.66 602 1395.33 594C1398.33 586 1402.16 577.167 1406.83 567.5C1411.83 557.833 1417.16 549.5 1422.83 542.5C1428.49 535.167 1434.33 531.5 1440.33 531.5C1442.99 531.5 1444.33 532.167 1444.33 533.5C1444.33 534.833 1443.66 536.167 1442.33 537.5C1435.66 545.5 1429.33 555 1423.33 566C1417.66 576.667 1412.83 586.833 1408.83 596.5C1405.16 606.167 1402.99 613.5 1402.33 618.5C1401.33 629.167 1404.49 634.5 1411.83 634.5C1412.83 634.5 1413.83 634.5 1414.83 634.5C1415.83 634.167 1416.99 633.833 1418.33 633.5C1425.33 631.167 1432.16 626.833 1438.83 620.5C1445.49 614.167 1451.66 607.167 1457.33 599.5C1462.99 591.833 1467.66 585.167 1471.33 579.5C1472.66 578.167 1473.49 577.5 1473.83 577.5C1474.83 577.5 1475.33 578.333 1475.33 580C1475.33 581.667 1474.83 583.333 1473.83 585C1466.49 596.333 1457.83 607.5 1447.83 618.5C1438.16 629.5 1428.49 636.833 1418.83 640.5C1413.83 642.5 1409.49 643.5 1405.83 643.5Z" fill="#F9E9FF"/>
<path d="M1322.81 645C1317.48 645 1312.81 642.833 1308.81 638.5C1304.81 634.167 1302.81 627.333 1302.81 618C1302.81 611 1304.15 603.167 1306.81 594.5C1309.81 585.5 1313.65 576.5 1318.31 567.5C1322.98 558.5 1327.81 550.5 1332.81 543.5C1326.15 547.167 1318.15 553 1308.81 561C1299.81 569 1291.15 577.833 1282.81 587.5C1274.48 596.833 1267.98 605.667 1263.31 614C1261.65 617 1258.81 619.167 1254.81 620.5C1251.15 621.5 1249.65 621.333 1250.31 620C1250.65 619.667 1251.98 616.833 1254.31 611.5C1256.98 605.833 1259.65 600 1262.31 594C1264.98 588 1266.65 584 1267.31 582C1269.98 575.333 1271.81 569.833 1272.81 565.5C1274.15 560.833 1274.81 557.333 1274.81 555C1274.81 551.333 1273.48 549.5 1270.81 549.5C1267.81 549.5 1263.48 551.833 1257.81 556.5C1252.48 560.833 1247.15 565.833 1241.81 571.5C1236.81 576.833 1233.15 581 1230.81 584C1227.48 588 1223.48 593.167 1218.81 599.5C1214.48 605.5 1210.31 611.667 1206.31 618C1202.65 624.333 1200.15 630 1198.81 635C1198.48 636.333 1198.15 637.5 1197.81 638.5C1197.48 639.167 1197.15 639.833 1196.81 640.5C1195.48 642.833 1193.65 642.667 1191.31 640C1188.65 637 1187.31 632.167 1187.31 625.5C1187.31 618.5 1188.48 610.667 1190.81 602C1193.48 593 1196.48 584.833 1199.81 577.5C1203.15 570.5 1206.15 564.333 1208.81 559C1211.81 553.667 1213.81 550.333 1214.81 549C1218.48 544.333 1222.31 540.5 1226.31 537.5C1230.31 534.5 1234.31 533 1238.31 533C1240.31 533 1241.81 533.5 1242.81 534.5C1244.15 535.5 1244.31 536.333 1243.31 537C1240.65 538.333 1237.15 542 1232.81 548C1228.48 553.667 1223.98 560.333 1219.31 568C1216.31 573.333 1212.48 580.5 1207.81 589.5C1203.15 598.5 1200.48 606.167 1199.81 612.5C1199.81 615.167 1200.48 616.333 1201.81 616C1205.81 609.333 1209.65 603.167 1213.31 597.5C1217.31 591.833 1221.81 586 1226.81 580C1231.81 574 1237.48 567.833 1243.81 561.5C1250.15 554.833 1256.31 549.333 1262.31 545C1268.65 540.333 1273.65 538.167 1277.31 538.5C1281.65 538.833 1284.65 540.167 1286.31 542.5C1287.98 544.833 1288.81 547.667 1288.81 551C1288.81 556.333 1287.65 561.833 1285.31 567.5C1282.98 573.167 1280.98 577.833 1279.31 581.5L1277.31 586.5C1282.31 579.833 1288.48 572.833 1295.81 565.5C1303.15 558.167 1310.65 551.667 1318.31 546C1325.98 540 1332.65 536 1338.31 534C1341.65 532.667 1344.81 532 1347.81 532C1350.81 532 1352.31 533 1352.31 535C1352.31 535.667 1351.48 537.333 1349.81 540C1342.15 550.333 1335.31 560.833 1329.31 571.5C1323.31 582.167 1319.31 594.167 1317.31 607.5C1316.98 609.5 1316.65 611.5 1316.31 613.5C1316.31 615.167 1316.31 616.833 1316.31 618.5C1316.31 623.833 1317.15 628.5 1318.81 632.5C1320.48 636.167 1323.48 638 1327.81 638C1334.15 638 1340.65 635.167 1347.31 629.5C1353.98 623.5 1360.65 616 1367.31 607C1373.98 597.667 1380.48 588.333 1386.81 579C1387.48 578 1387.98 577.5 1388.31 577.5C1389.31 577.5 1389.81 578.333 1389.81 580C1389.81 582 1388.98 584.333 1387.31 587C1381.65 595.667 1375.31 604.5 1368.31 613.5C1361.65 622.5 1354.48 630 1346.81 636C1339.15 642 1331.15 645 1322.81 645Z" fill="#F9E9FF"/>
<path d="M631.249 642C622.249 642 614.415 639.833 607.749 635.5C601.082 630.833 597.749 622.667 597.749 611C597.749 603.667 599.582 595.667 603.249 587C606.915 578 611.582 569.333 617.249 561C623.249 552.333 629.749 545.167 636.749 539.5C638.415 538.167 640.582 537.5 643.249 537.5C647.249 533.5 651.749 530.5 656.749 528.5C662.082 526.5 667.082 525.5 671.749 525.5C680.082 525.5 687.749 528.167 694.749 533.5C702.082 538.833 705.749 547.333 705.749 559C705.749 565.667 703.915 573.667 700.249 583C696.915 591.667 691.749 600.667 684.749 610C677.749 619 669.582 626.667 660.249 633C651.249 639 641.582 642 631.249 642ZM630.749 636C638.082 636 645.582 633.167 653.249 627.5C661.249 621.833 668.582 614.667 675.249 606C681.915 597 686.749 588 689.749 579C693.082 570 694.749 562 694.749 555C694.749 546.333 692.415 540.167 687.749 536.5C683.082 532.5 677.915 530.5 672.249 530.5C663.249 530.5 655.415 533.5 648.749 539.5C652.082 541.5 652.415 543.5 649.749 545.5C645.082 549.5 639.749 555 633.749 562C628.082 569 623.582 575.5 620.249 581.5C617.915 585.5 615.749 590.667 613.749 597C612.082 603.333 611.249 609.333 611.249 615C611.249 620.667 612.582 625.667 615.249 630C618.249 634 623.415 636 630.749 636Z" fill="#F9E9FF"/>
<path d="M516.327 644C502.66 644 492.66 641 486.327 635C479.993 628.667 476.827 620.333 476.827 610C476.827 607.333 476.993 604.667 477.327 602C477.993 599 478.66 596 479.327 593C480.993 587 483.66 580 487.327 572C491.327 564 496.16 556.167 501.827 548.5C507.493 540.833 513.66 534.5 520.327 529.5C526.993 524.5 533.993 522 541.327 522C547.327 522 551.827 524.167 554.827 528.5C558.16 532.833 559.827 538 559.827 544C559.827 550.333 557.827 556.833 553.827 563.5C550.16 569.833 545.16 575 538.827 579C531.493 584 523.16 586.5 513.827 586.5C507.827 586.5 502.327 585.333 497.327 583C492.327 593 489.827 602.833 489.827 612.5C489.827 619.5 491.827 625.5 495.827 630.5C499.827 635.5 506.493 638 515.827 638C527.16 638 537.16 635.333 545.827 630C554.493 624.333 562.493 617 569.827 608C577.493 599 584.827 589.333 591.827 579C592.827 578 593.493 577.5 593.827 577.5C594.827 577.5 595.327 578.333 595.327 580C595.327 581.667 594.827 583.333 593.827 585C587.827 594.333 580.993 603.5 573.327 612.5C565.993 621.5 557.66 629 548.327 635C538.993 641 528.327 644 516.327 644ZM508.827 579.5C517.493 579.5 525.66 576.5 533.327 570.5C536.993 567.833 540.16 564.667 542.827 561C545.493 557.333 547.327 553.667 548.327 550C549.327 546.333 549.827 543.167 549.827 540.5C549.827 532.833 546.993 529 541.327 529C537.66 529 533.493 531.167 528.827 535.5C524.827 539.167 520.66 543.833 516.327 549.5C512.327 555.167 508.827 560.667 505.827 566C502.827 571 500.827 574.667 499.827 577C502.16 578.667 505.16 579.5 508.827 579.5Z" fill="#F9E9FF"/>
<path d="M364.155 738.5C356.155 738.5 350.488 736.167 347.155 731.5C344.155 727.167 342.655 721.667 342.655 715C342.655 707.333 343.988 699.167 346.655 690.5C349.321 681.833 352.155 673.667 355.155 666C358.488 658.667 360.821 653.167 362.155 649.5C369.821 632.833 377.988 616.333 386.655 600C395.321 583.667 404.321 567.833 413.655 552.5C414.321 541.5 414.155 529 413.155 515C412.488 500.667 410.988 486.167 408.655 471.5C406.655 456.5 403.821 442.667 400.155 430C396.488 417.333 392.155 407.167 387.155 399.5C377.821 384.833 367.655 373.833 356.655 366.5C345.988 358.833 335.321 355 324.655 355C319.655 355 315.321 355.667 311.655 357C285.655 366 273.655 394.167 275.655 441.5C276.321 451.5 278.655 461.667 282.655 472C286.655 482 291.655 490.5 297.655 497.5C303.988 504.5 310.321 508 316.655 508H317.155C318.821 508 319.655 508.833 319.655 510.5C319.655 512.167 318.821 513 317.155 513C311.155 513.667 305.155 511.833 299.155 507.5C293.155 502.833 287.488 496.833 282.155 489.5C277.155 482.167 272.988 474.333 269.655 466C266.321 457.333 264.488 449.167 264.155 441.5C263.155 417.5 266.988 397.833 275.655 382.5C284.655 366.833 295.821 356.667 309.155 352C315.155 350 321.655 349 328.655 349C340.321 349 352.488 352.333 365.155 359C377.821 365.667 388.821 376.333 398.155 391C405.488 401.667 411.321 415.333 415.655 432C420.321 448.667 423.655 465.833 425.655 483.5C427.655 500.833 428.321 516.667 427.655 531C429.988 527.667 432.155 524.5 434.155 521.5C436.488 518.167 438.821 515 441.155 512C450.155 499.333 460.821 485.167 473.155 469.5C485.821 453.5 498.988 437.5 512.655 421.5C526.321 405.167 539.655 390.833 552.655 378.5C550.655 378.833 548.488 379.167 546.155 379.5C544.155 379.5 542.155 379.5 540.155 379.5C534.488 379.5 529.321 379 524.655 378C521.988 377.667 520.655 376.5 520.655 374.5C520.655 372.5 522.321 371.5 525.655 371.5C526.655 371.5 527.988 371.667 529.655 372C531.321 372 532.821 372 534.155 372C539.821 372 545.821 371.667 552.155 371C558.488 370 563.321 368.333 566.655 366C569.655 363.333 572.988 362 576.655 362C580.988 362 584.155 363.5 586.155 366.5C588.155 369.5 588.155 371.833 586.155 373.5C583.821 375.167 579.988 378.333 574.655 383C569.321 387.667 563.488 393 557.155 399C550.821 404.667 544.821 410.167 539.155 415.5C523.821 430.833 508.321 447.5 492.655 465.5C476.988 483.167 462.488 500.333 449.155 517C440.488 528 431.155 541.167 421.155 556.5C411.155 571.5 401.821 587.333 393.155 604C384.488 620.667 377.321 637.167 371.655 653.5C368.988 662.167 366.321 671 363.655 680C361.321 689 360.155 697.333 360.155 705C360.155 713 361.321 718.5 363.655 721.5C365.988 724.833 368.821 726.5 372.155 726.5C376.488 726.5 380.321 725 383.655 722C384.988 720.667 386.488 718.833 388.155 716.5C390.155 714.5 391.821 712.5 393.155 710.5C395.488 707.167 397.321 705.5 398.655 705.5C399.988 705.5 400.655 706.5 400.655 708.5C400.655 712.167 398.988 716.167 395.655 720.5C391.988 725.833 387.155 730.167 381.155 733.5C375.488 736.833 369.821 738.5 364.155 738.5Z" fill="#F9E9FF"/>
<path d="M1624.23 533.5C1624.23 532.25 1623.06 531.586 1620.71 531.508L1620.23 531.5C1614.23 531.5 1608.4 535.167 1602.73 542.5C1597.06 549.5 1591.73 557.833 1586.73 567.5L1585.86 569.303C1581.59 578.268 1578.04 586.5 1575.23 594L1570.23 609L1570.05 609.814C1569.17 613.896 1568.73 618.125 1568.73 622.5L1568.73 623.06C1568.81 628.812 1570.15 633.625 1572.73 637.5C1575.31 641.375 1579.46 643.373 1585.17 643.494L1585.73 643.5C1589.4 643.5 1593.73 642.5 1598.73 640.5C1608.4 636.833 1618.06 629.5 1627.73 618.5C1637.1 608.188 1645.31 597.729 1652.34 587.123L1653.73 585C1654.67 583.438 1655.16 581.875 1655.22 580.312L1655.23 580C1655.23 578.333 1654.73 577.5 1653.73 577.5C1653.4 577.5 1652.56 578.167 1651.23 579.5L1649.81 581.672C1646.38 586.849 1642.19 592.792 1637.23 599.5L1636.16 600.93C1630.79 608.039 1624.98 614.562 1618.73 620.5L1618.1 621.088C1611.64 627.102 1605.01 631.24 1598.23 633.5C1596.9 633.833 1595.73 634.167 1594.73 634.5H1591.73V631.5H1594.26C1595.2 631.203 1596.23 630.909 1597.37 630.623C1603.83 628.451 1610.27 624.4 1616.66 618.325L1617.88 617.153C1623.95 611.255 1629.6 604.778 1634.82 597.717L1636.89 594.901C1641.6 588.444 1645.54 582.768 1648.71 577.87L1648.88 577.604L1649.11 577.379L1649.62 576.878C1650.11 576.398 1650.57 575.984 1650.98 575.657C1651.25 575.443 1651.56 575.212 1651.9 575.021C1652.12 574.892 1652.82 574.5 1653.73 574.5L1654.01 574.509C1655.41 574.594 1656.67 575.314 1657.43 576.581C1658.09 577.689 1658.23 578.965 1658.23 580C1658.23 582.295 1657.53 584.49 1656.3 586.544L1656.27 586.587L1656.25 586.63C1648.83 598.101 1640.07 609.383 1629.98 620.479L1629.98 620.48C1620.14 631.686 1610.1 639.381 1599.84 643.284L1599.84 643.285C1594.64 645.366 1589.91 646.5 1585.73 646.5C1579.22 646.5 1573.94 644.35 1570.55 639.629L1570.23 639.164C1567.16 634.562 1565.73 628.945 1565.73 622.5C1565.73 617.617 1566.25 612.89 1567.31 608.325L1567.34 608.187L1567.38 608.052L1567.39 608.04C1567.39 608.036 1567.39 608.031 1567.39 608.027L1567.4 608.004C1567.42 607.947 1567.4 608.013 1567.41 607.955C1567.43 607.897 1567.41 607.964 1567.43 607.905C1567.45 607.846 1567.43 607.915 1567.45 607.855C1567.47 607.794 1567.44 607.864 1567.47 607.803C1567.49 607.741 1567.46 607.813 1567.48 607.75C1567.57 607.493 1567.43 607.9 1567.52 607.642C1567.52 607.637 1567.52 607.632 1567.52 607.627C1567.53 607.622 1567.53 607.618 1567.53 607.613L1567.53 607.599C1567.54 607.594 1567.54 607.59 1567.54 607.585L1567.54 607.57C1567.54 607.566 1567.55 607.561 1567.55 607.557C1567.55 607.552 1567.55 607.547 1567.55 607.542L1567.56 607.513C1567.56 607.508 1567.57 607.504 1567.57 607.499L1567.57 607.484C1567.57 607.479 1567.58 607.474 1567.58 607.469L1567.59 607.439C1567.59 607.434 1567.59 607.43 1567.59 607.425L1567.6 607.41C1567.63 607.321 1567.58 607.468 1567.61 607.38C1567.62 607.344 1567.6 607.385 1567.62 607.349C1567.62 607.349 1567.62 607.341 1567.63 607.318C1567.61 607.358 1567.63 607.313 1567.64 607.287C1567.67 607.195 1567.62 607.349 1567.65 607.256C1567.65 607.251 1567.65 607.245 1567.65 607.24C1567.65 607.235 1567.66 607.23 1567.66 607.225C1567.66 607.219 1567.66 607.214 1567.66 607.209C1567.67 607.204 1567.67 607.198 1567.67 607.192C1567.67 607.187 1567.67 607.182 1567.67 607.177C1567.68 607.172 1567.68 607.166 1567.68 607.161C1567.68 607.156 1567.68 607.15 1567.69 607.145C1567.69 607.139 1567.69 607.133 1567.69 607.128C1567.69 607.123 1567.69 607.117 1567.7 607.112C1567.7 607.107 1567.7 607.101 1567.7 607.096C1567.7 607.09 1567.7 607.085 1567.71 607.079L1567.72 607.046C1567.72 607.04 1567.72 607.035 1567.72 607.029L1567.74 606.979C1567.74 606.974 1567.74 606.968 1567.75 606.962C1567.74 606.983 1567.74 606.981 1567.77 606.895L1567.77 606.877C1567.78 606.871 1567.78 606.865 1567.78 606.859L1567.79 606.824C1567.79 606.819 1567.8 606.813 1567.8 606.808L1567.8 606.79C1567.81 606.784 1567.81 606.777 1567.81 606.771L1567.82 606.736C1567.82 606.73 1567.83 606.725 1567.83 606.719C1567.83 606.713 1567.83 606.706 1567.83 606.7L1567.84 606.683C1567.84 606.677 1567.84 606.67 1567.85 606.664L1567.85 606.646C1567.85 606.64 1567.85 606.634 1567.86 606.628C1567.86 606.622 1567.86 606.616 1567.86 606.61L1567.88 606.573C1567.88 606.567 1567.88 606.561 1567.88 606.555C1567.88 606.549 1567.89 606.542 1567.89 606.536C1567.9 606.492 1567.89 606.543 1567.9 606.499C1567.9 606.493 1567.9 606.487 1567.91 606.48C1567.91 606.474 1567.91 606.467 1567.91 606.461C1567.87 606.583 1567.97 606.301 1567.93 606.424C1567.93 606.417 1567.93 606.411 1567.93 606.404C1567.93 606.398 1567.94 606.391 1567.94 606.385C1567.94 606.379 1567.94 606.372 1567.94 606.366C1567.95 606.36 1567.95 606.353 1567.95 606.347C1567.95 606.34 1567.96 606.334 1567.96 606.327C1567.96 606.321 1567.96 606.315 1567.96 606.309C1567.97 606.302 1567.97 606.295 1567.97 606.289L1567.98 606.25C1567.99 606.243 1567.99 606.236 1567.99 606.229L1568.01 606.171C1568.01 606.164 1568.01 606.157 1568.02 606.15C1568.02 606.144 1568.02 606.137 1568.02 606.131L1568.03 606.11C1568.06 606.015 1568.01 606.166 1568.04 606.07L1568.06 606.029C1568.06 606.023 1568.06 606.016 1568.06 606.01L1568.08 605.969C1568.08 605.962 1568.08 605.954 1568.08 605.947L1568.1 605.906L1568.13 605.822C1568.13 605.815 1568.13 605.809 1568.13 605.802L1568.15 605.737C1568.16 605.73 1568.16 605.724 1568.16 605.717L1568.18 605.674C1568.18 605.667 1568.18 605.659 1568.18 605.652C1568.19 605.645 1568.19 605.637 1568.19 605.63C1568.19 605.623 1568.19 605.616 1568.2 605.608C1568.2 605.601 1568.2 605.594 1568.2 605.587C1568.21 605.58 1568.21 605.572 1568.21 605.564C1568.21 605.557 1568.22 605.55 1568.22 605.543C1568.22 605.536 1568.22 605.529 1568.23 605.521C1568.23 605.514 1568.23 605.506 1568.23 605.499C1568.24 605.492 1568.24 605.484 1568.24 605.477C1568.24 605.469 1568.25 605.462 1568.25 605.455C1568.25 605.448 1568.25 605.44 1568.26 605.433C1568.26 605.425 1568.26 605.418 1568.26 605.41L1568.28 605.365C1568.28 605.358 1568.28 605.35 1568.29 605.343L1568.3 605.298C1568.3 605.29 1568.31 605.282 1568.31 605.274C1568.31 605.267 1568.31 605.259 1568.32 605.252L1568.32 605.229C1568.33 605.221 1568.33 605.214 1568.33 605.206L1568.34 605.183C1568.34 605.175 1568.34 605.168 1568.35 605.16C1568.35 605.152 1568.35 605.144 1568.35 605.137L1568.37 605.09C1568.37 605.082 1568.37 605.075 1568.38 605.067L1568.39 605.044C1568.39 605.036 1568.39 605.027 1568.39 605.02L1568.41 604.973C1568.41 604.965 1568.41 604.957 1568.42 604.949L1568.43 604.926C1568.43 604.918 1568.43 604.909 1568.43 604.901L1568.44 604.878L1568.46 604.829C1568.46 604.821 1568.46 604.814 1568.47 604.806L1568.49 604.732C1568.49 604.724 1568.49 604.716 1568.5 604.708L1568.51 604.659C1568.52 604.651 1568.52 604.643 1568.52 604.635C1568.52 604.627 1568.53 604.618 1568.53 604.61C1568.53 604.602 1568.54 604.593 1568.54 604.585C1568.54 604.577 1568.54 604.569 1568.55 604.561C1568.55 604.552 1568.55 604.544 1568.56 604.536C1568.56 604.528 1568.56 604.519 1568.56 604.511C1568.57 604.502 1568.57 604.494 1568.57 604.485C1568.57 604.477 1568.58 604.469 1568.58 604.461C1568.58 604.453 1568.59 604.444 1568.59 604.436C1568.59 604.427 1568.59 604.419 1568.6 604.41L1568.61 604.359C1568.62 604.351 1568.62 604.342 1568.62 604.334L1568.65 604.258C1568.65 604.249 1568.65 604.24 1568.66 604.231L1568.67 604.181L1568.68 604.154C1568.68 604.146 1568.69 604.137 1568.69 604.129L1568.7 604.103C1568.7 604.094 1568.7 604.085 1568.71 604.076L1568.73 604.023C1568.73 604.015 1568.73 604.007 1568.73 603.998L1568.74 603.972C1568.75 603.963 1568.75 603.953 1568.75 603.944L1568.77 603.892C1568.77 603.883 1568.78 603.874 1568.78 603.865C1568.78 603.856 1568.78 603.847 1568.79 603.838L1568.8 603.812C1568.8 603.803 1568.8 603.793 1568.81 603.784L1568.81 603.758C1568.82 603.749 1568.82 603.739 1568.82 603.73C1568.83 603.722 1568.83 603.713 1568.83 603.704L1568.85 603.649C1568.85 603.64 1568.86 603.631 1568.86 603.622L1568.88 603.567C1568.88 603.558 1568.88 603.549 1568.89 603.54C1568.89 603.531 1568.89 603.522 1568.9 603.513C1568.9 603.504 1568.9 603.494 1568.9 603.484C1568.91 603.475 1568.91 603.466 1568.91 603.457C1568.92 603.448 1568.92 603.439 1568.92 603.43C1568.93 603.42 1568.93 603.411 1568.93 603.401C1568.94 603.392 1568.94 603.382 1568.94 603.373C1568.94 603.364 1568.95 603.355 1568.95 603.346C1568.95 603.336 1568.96 603.327 1568.96 603.317C1568.96 603.308 1568.97 603.298 1568.97 603.289C1568.97 603.28 1568.98 603.271 1568.98 603.262C1568.98 603.252 1568.99 603.243 1568.99 603.233L1569.01 603.177C1569.01 603.167 1569.01 603.157 1569.02 603.147L1569.05 603.062C1569.05 603.053 1569.05 603.043 1569.06 603.033C1569.06 603.024 1569.06 603.014 1569.06 603.005L1569.07 602.976C1569.08 602.966 1569.08 602.957 1569.08 602.947L1569.11 602.859C1569.12 602.85 1569.12 602.841 1569.12 602.831L1569.14 602.772C1569.15 602.763 1569.15 602.752 1569.15 602.742L1569.18 602.654C1569.19 602.644 1569.19 602.634 1569.19 602.624L1569.2 602.595C1569.2 602.585 1569.21 602.574 1569.21 602.564C1569.21 602.555 1569.22 602.545 1569.22 602.535L1569.25 602.444C1569.25 602.434 1569.26 602.425 1569.26 602.415L1569.28 602.354C1569.29 602.344 1569.29 602.334 1569.29 602.324C1569.3 602.314 1569.3 602.303 1569.3 602.293C1569.31 602.283 1569.31 602.273 1569.31 602.263C1569.32 602.253 1569.32 602.243 1569.32 602.232C1569.33 602.222 1569.33 602.211 1569.33 602.201C1569.34 602.191 1569.34 602.181 1569.34 602.171C1569.35 602.161 1569.35 602.151 1569.35 602.141C1569.36 602.13 1569.36 602.12 1569.36 602.109C1569.37 602.099 1569.37 602.088 1569.37 602.078C1569.38 602.068 1569.38 602.058 1569.38 602.048C1569.39 602.038 1569.39 602.027 1569.4 602.017L1569.44 601.892C1569.47 601.799 1569.43 601.922 1569.46 601.829C1569.56 601.53 1569.44 601.875 1569.54 601.574C1569.57 601.479 1569.53 601.605 1569.56 601.511L1569.57 601.479C1569.58 601.468 1569.58 601.456 1569.58 601.445L1569.61 601.381C1569.64 601.285 1569.6 601.412 1569.63 601.316C1569.63 601.306 1569.64 601.294 1569.64 601.283L1569.65 601.251L1569.67 601.185C1569.67 601.174 1569.68 601.163 1569.68 601.152L1569.72 601.053C1569.72 601.042 1569.72 601.031 1569.73 601.02L1569.75 600.953C1569.75 600.942 1569.76 600.931 1569.76 600.92C1569.76 600.909 1569.77 600.898 1569.77 600.887C1569.77 600.876 1569.78 600.864 1569.78 600.853C1569.79 600.842 1569.79 600.83 1569.79 600.819C1569.8 600.808 1569.8 600.797 1569.81 600.786C1569.81 600.775 1569.81 600.763 1569.82 600.752C1569.82 600.741 1569.82 600.729 1569.83 600.718C1569.83 600.707 1569.83 600.696 1569.84 600.685C1569.84 600.673 1569.85 600.662 1569.85 600.65C1569.85 600.639 1569.86 600.628 1569.86 600.616L1569.88 600.548C1569.89 600.537 1569.89 600.525 1569.9 600.514L1569.93 600.411C1569.93 600.4 1569.94 600.387 1569.94 600.376L1569.96 600.308L1569.98 600.272C1569.98 600.261 1569.98 600.25 1569.99 600.238L1570 600.203C1570 600.192 1570.01 600.18 1570.01 600.168L1570.09 599.922C1570.1 599.91 1570.1 599.899 1570.1 599.887C1570.11 599.875 1570.11 599.862 1570.12 599.851L1570.13 599.815C1570.13 599.804 1570.14 599.791 1570.14 599.779L1570.15 599.744C1570.16 599.732 1570.16 599.72 1570.16 599.708C1570.17 599.696 1570.17 599.685 1570.18 599.673L1570.2 599.601C1570.2 599.589 1570.21 599.576 1570.21 599.564L1570.24 599.492C1570.24 599.48 1570.24 599.468 1570.25 599.456C1570.25 599.444 1570.26 599.432 1570.26 599.42C1570.26 599.408 1570.27 599.395 1570.27 599.383C1570.28 599.371 1570.28 599.359 1570.28 599.347C1570.29 599.335 1570.29 599.323 1570.3 599.311C1570.32 599.235 1570.3 599.312 1570.32 599.236C1570.32 599.224 1570.33 599.212 1570.33 599.2C1570.34 599.188 1570.34 599.175 1570.35 599.163C1570.35 599.151 1570.35 599.138 1570.36 599.126C1570.36 599.114 1570.37 599.102 1570.37 599.09C1570.38 599.047 1570.45 598.836 1570.47 598.791C1570.47 598.779 1570.48 598.766 1570.48 598.754L1570.49 598.716C1570.5 598.703 1570.5 598.691 1570.51 598.679L1570.55 598.564C1570.55 598.552 1570.55 598.54 1570.56 598.527L1570.78 597.871C1570.78 597.858 1570.79 597.844 1570.79 597.831C1570.79 597.818 1570.8 597.805 1570.8 597.792C1570.81 597.779 1570.81 597.766 1570.82 597.753C1570.82 597.74 1570.82 597.726 1570.83 597.713C1570.83 597.7 1570.84 597.687 1570.84 597.674C1570.85 597.661 1570.85 597.648 1570.85 597.635C1570.86 597.622 1570.86 597.608 1570.87 597.595C1570.87 597.582 1570.88 597.568 1570.88 597.555C1570.89 597.542 1570.89 597.529 1570.9 597.516C1570.9 597.502 1570.9 597.489 1570.91 597.476C1570.91 597.462 1570.92 597.449 1570.92 597.436L1570.95 597.355C1570.95 597.342 1570.96 597.329 1570.96 597.315L1570.99 597.235C1570.99 597.222 1571 597.208 1571 597.194C1571.01 597.181 1571.01 597.168 1571.02 597.154L1571.03 597.113C1571.03 597.1 1571.04 597.087 1571.04 597.073L1571.06 597.032C1571.06 597.019 1571.07 597.006 1571.07 596.992C1571.07 596.979 1571.08 596.965 1571.08 596.951L1571.11 596.869C1571.11 596.856 1571.12 596.842 1571.12 596.829L1571.14 596.788C1571.14 596.774 1571.15 596.76 1571.15 596.746L1571.18 596.664C1571.18 596.65 1571.19 596.637 1571.19 596.623L1571.21 596.582C1571.21 596.568 1571.22 596.554 1571.22 596.54L1571.23 596.499L1571.26 596.415C1571.27 596.401 1571.27 596.388 1571.28 596.374L1571.32 596.248C1571.32 596.234 1571.33 596.22 1571.33 596.206L1571.36 596.122C1571.36 596.108 1571.37 596.094 1571.37 596.08C1571.38 596.066 1571.38 596.052 1571.39 596.038C1571.39 596.024 1571.4 596.009 1571.4 595.995C1571.47 595.795 1571.36 596.112 1571.43 595.911C1571.43 595.897 1571.44 595.882 1571.44 595.868C1571.45 595.854 1571.45 595.839 1571.46 595.825C1571.53 595.624 1571.42 595.943 1571.49 595.74C1571.49 595.726 1571.5 595.712 1571.5 595.697L1571.53 595.611C1571.53 595.597 1571.54 595.583 1571.54 595.568L1571.6 595.396C1571.67 595.19 1571.56 595.515 1571.63 595.31L1571.65 595.266C1571.65 595.251 1571.65 595.237 1571.66 595.223C1571.74 594.977 1571.61 595.381 1571.69 595.135L1571.72 595.047C1571.76 594.918 1571.7 595.089 1571.75 594.96C1571.79 594.83 1571.73 595.002 1571.78 594.871C1571.82 594.741 1571.76 594.914 1571.81 594.783L1571.86 594.605C1571.92 594.434 1571.84 594.688 1571.9 594.517C1571.94 594.384 1571.88 594.559 1571.92 594.427C1571.96 594.334 1571.92 594.43 1571.95 594.337C1571.96 594.322 1571.96 594.307 1571.97 594.292C1571.97 594.277 1571.98 594.262 1571.98 594.247C1571.99 594.232 1571.99 594.217 1572 594.202C1572 594.187 1572.01 594.171 1572.01 594.156C1572.02 594.141 1572.02 594.126 1572.03 594.111C1572.03 594.096 1572.04 594.081 1572.04 594.066C1572.05 594.051 1572.06 594.036 1572.06 594.021C1572.07 594.005 1572.07 593.99 1572.07 593.975C1572.08 593.96 1572.09 593.945 1572.09 593.93C1572.1 593.914 1572.1 593.899 1572.1 593.884C1572.11 593.869 1572.12 593.853 1572.12 593.838C1572.13 593.823 1572.13 593.808 1572.14 593.793C1572.14 593.778 1572.15 593.762 1572.15 593.747L1572.18 593.655C1572.19 593.64 1572.19 593.624 1572.2 593.608L1572.24 593.471C1572.25 593.455 1572.25 593.439 1572.26 593.424C1572.26 593.409 1572.27 593.393 1572.27 593.378L1572.29 593.331C1572.29 593.316 1572.3 593.3 1572.31 593.285L1572.35 593.145C1572.36 593.129 1572.36 593.114 1572.37 593.099L1572.4 592.999L1572.42 592.946C1575.46 584.843 1579.33 575.924 1584.03 566.195L1584.05 566.158L1584.06 566.122C1589.14 556.311 1594.58 547.799 1600.4 540.612C1606.31 532.984 1612.9 528.5 1620.23 528.5C1621.72 528.5 1623.28 528.67 1624.57 529.316C1625.26 529.661 1625.96 530.184 1626.48 530.961C1627.01 531.757 1627.23 532.642 1627.23 533.5C1627.23 535.848 1626.07 537.855 1624.48 539.492C1617.98 547.301 1611.77 556.608 1605.86 567.437C1600.24 578.014 1595.46 588.078 1591.51 597.63C1587.89 607.176 1585.84 614.198 1585.21 618.829C1584.74 623.913 1585.34 627.125 1586.43 628.969C1587.37 630.545 1588.89 631.5 1591.73 631.5V634.5L1591.39 634.496C1584.3 634.332 1581.24 629 1582.23 618.5C1582.9 613.5 1585.06 606.167 1588.73 596.5C1592.73 586.833 1597.56 576.667 1603.23 566C1609.23 555 1615.56 545.5 1622.23 537.5C1623.48 536.25 1624.14 535 1624.22 533.75L1624.23 533.5ZM1651.23 475.5C1651.23 473.312 1650.2 472.15 1648.15 472.014L1647.73 472C1647.06 472 1646.23 472.167 1645.23 472.5L1644.42 472.781C1643.54 473.094 1642.48 473.5 1641.23 474L1640.78 474.197C1638.52 475.232 1635.67 477 1632.23 479.5L1631.56 480C1628.36 482.5 1626.92 485 1627.23 487.5C1628.2 492.99 1630.89 495.82 1635.3 495.991L1635.73 496C1637.92 496 1639.96 495.561 1641.85 494.682L1642.23 494.5C1644.23 493.167 1645.4 491.833 1645.73 490.5C1645.73 490.5 1646.56 488.667 1648.23 485C1650.1 481.563 1651.1 478.564 1651.22 476.006L1651.23 475.5ZM1654.23 475.5C1654.23 478.842 1653 482.483 1650.92 486.323C1650.88 486.41 1650.84 486.496 1650.81 486.58C1650.79 486.623 1650.68 486.868 1650.66 486.907L1650.11 488.11C1650.09 488.16 1650.01 488.339 1649.99 488.385C1649.92 488.538 1649.93 488.498 1649.87 488.647L1648.62 491.397C1648.6 491.435 1648.58 491.488 1648.55 491.536C1647.86 493.82 1646 495.594 1643.89 496.996L1643.74 497.1L1643.57 497.184C1641.14 498.401 1638.51 499 1635.73 499C1632.74 499 1630.05 498.068 1627.98 495.996C1625.98 493.992 1624.84 491.207 1624.27 488.021L1624.26 487.947L1624.25 487.872C1623.71 483.521 1626.55 479.924 1630.46 477.074L1631.84 476.091C1634.99 473.878 1637.74 472.232 1640.05 471.242L1640.08 471.229L1640.11 471.215C1641.8 470.539 1643.2 470.015 1644.28 469.654L1644.71 469.516C1645.72 469.207 1646.75 469 1647.73 469C1649.36 469 1651.13 469.41 1652.48 470.754C1653.82 472.098 1654.23 473.871 1654.23 475.5Z" fill="#F9E9FF"/>
<path d="M1505.65 550C1505.65 549.225 1505.85 548.413 1506.34 547.68C1506.82 546.965 1507.45 546.494 1508.06 546.191C1509.19 545.628 1510.5 545.5 1511.65 545.5C1514.9 545.5 1517.68 547.059 1519.98 549.539L1520.43 550.048L1520.53 550.169L1520.62 550.301C1524.57 556.042 1527.2 562.948 1528.6 570.933C1530.3 578.809 1531.15 587.167 1531.15 596C1531.15 612.311 1528.6 629.745 1523.55 648.289L1523.54 648.288C1518.49 667.146 1511.59 685.332 1502.83 702.842L1502.82 702.861L1502.81 702.881C1493.37 721.093 1482.23 737.308 1469.38 751.513L1469.36 751.527L1469.35 751.541C1456.15 765.76 1442.62 775.582 1428.74 780.795L1428.74 780.796C1422.44 783.246 1416.24 784.5 1410.15 784.5C1400.08 784.5 1392.3 781.025 1387.61 773.602L1387.56 773.521L1387.52 773.437C1385.29 769.349 1384.15 765.024 1384.15 760.5C1384.15 755.777 1385.06 750.936 1386.83 745.991L1386.84 745.957L1386.85 745.923C1388.58 741.428 1390.82 736.79 1393.55 732.012L1393.57 731.976L1393.59 731.94C1398.35 724.122 1403.95 716.488 1410.38 709.039L1411.58 707.659C1417.57 700.798 1423.57 694.518 1429.59 688.822C1435.93 682.817 1440.94 678.134 1444.63 674.78L1444.7 674.723L1444.76 674.668C1451.77 668.993 1460.11 662.32 1469.79 654.649C1479.25 646.88 1489.07 640.277 1499.24 634.853L1499.27 634.834L1499.31 634.816C1500.34 634.3 1501.47 634 1502.65 634L1503.02 634.013C1503.93 634.073 1505.01 634.369 1505.9 635.254C1506.91 636.265 1507.15 637.538 1507.15 638.5C1507.15 638.816 1507.13 639.132 1507.1 639.446C1513.09 617.545 1515.26 596.664 1513.66 576.784C1512.7 567.496 1510.15 559.242 1506.04 551.977L1505.65 551.289V550ZM1538.15 475.5C1538.15 473.312 1537.13 472.15 1535.07 472.014L1534.65 472C1533.98 472 1533.15 472.167 1532.15 472.5L1531.34 472.781C1530.46 473.094 1529.4 473.5 1528.15 474L1527.35 474.414C1525.39 475.471 1522.65 477.167 1519.15 479.5L1518.49 480C1515.28 482.5 1513.84 485 1514.15 487.5C1514.82 490.833 1515.98 493.167 1517.65 494.5C1519.21 495.437 1520.78 495.936 1522.34 495.994L1522.65 496C1524.84 496 1526.88 495.561 1528.77 494.682L1529.15 494.5C1531.15 493.167 1532.32 491.833 1532.65 490.5C1532.65 490.5 1533.48 488.667 1535.15 485C1537.03 481.563 1538.02 478.564 1538.14 476.006L1538.15 475.5ZM1508.65 550.5C1512.98 558.167 1515.65 566.833 1516.65 576.5C1518.32 597.167 1515.98 618.833 1509.65 641.5L1509.05 643.651C1502.75 665.832 1493.95 686.448 1482.65 705.5C1479.32 710.833 1474.98 717.167 1469.65 724.5L1468.64 725.936C1463.56 733.104 1457.9 740.125 1451.65 747C1444.65 754.667 1437.48 761 1430.15 766L1429.46 766.462C1422.37 771.154 1415.43 773.5 1408.65 773.5V770.5C1414.9 770.5 1421.49 768.273 1428.46 763.521L1429.79 762.597C1436 758.209 1442.12 752.807 1448.15 746.372L1449.44 744.978C1456.02 737.736 1461.93 730.339 1467.19 722.787L1467.21 722.761L1467.23 722.735C1472.52 715.448 1476.81 709.184 1480.09 703.935C1491.39 684.887 1500.16 664.245 1506.4 642C1506.3 642.2 1506.19 642.397 1506.07 642.59C1505.31 643.809 1504.21 644.662 1502.96 645.203C1498.8 647.451 1493.47 650.841 1486.93 655.414C1480.63 660.394 1474.32 665.375 1468.01 670.354C1461.38 675.656 1455.76 680.285 1451.14 684.247C1448.3 686.8 1444.56 690.506 1439.89 695.39L1437.83 697.56C1432.24 703.479 1426.64 710.07 1421.02 717.334L1421.02 717.342L1421.01 717.349C1415.12 724.88 1410.23 732.385 1406.32 739.862C1405.06 742.399 1403.6 745.78 1401.97 750.037C1400.39 754.443 1399.65 758.423 1399.65 762C1399.65 764.522 1400.34 766.307 1401.53 767.622L1401.77 767.879L1401.95 768.055L1402.09 768.256C1402.95 769.458 1404.77 770.5 1408.65 770.5V773.5L1407.85 773.486C1404.08 773.354 1401.4 772.264 1399.81 770.216L1399.65 770C1397.78 768.125 1396.78 765.664 1396.66 762.617L1396.65 762C1396.65 758 1397.48 753.667 1399.15 749C1400.82 744.667 1402.32 741.167 1403.65 738.5C1407.4 731.313 1412.03 724.125 1417.54 716.938L1418.65 715.5C1423.96 708.625 1429.28 702.336 1434.59 696.633L1435.65 695.5C1441.32 689.5 1445.82 685 1449.15 682C1453.82 678 1459.48 673.333 1466.15 668L1485.15 653C1491.82 648.333 1497.32 644.833 1501.65 642.5C1503.21 641.875 1504.04 640.664 1504.14 638.867L1504.15 638.5C1504.15 637.5 1503.65 637 1502.65 637C1501.98 637 1501.32 637.167 1500.65 637.5L1498.78 638.514C1489.44 643.65 1480.4 649.812 1471.65 657C1461.98 664.667 1453.65 671.333 1446.65 677L1445.21 678.312C1441.71 681.521 1437.19 685.75 1431.65 691L1430.46 692.133C1424.53 697.836 1418.59 704.125 1412.65 711L1411.47 712.377C1405.63 719.271 1400.53 726.312 1396.15 733.5L1395.66 734.373C1393.22 738.729 1391.21 742.937 1389.65 747L1389.35 747.873C1387.88 752.229 1387.15 756.438 1387.15 760.5L1387.16 761.248C1387.28 764.979 1388.28 768.563 1390.15 772C1394.03 778.135 1400.4 781.299 1409.28 781.491L1410.15 781.5C1415.82 781.5 1421.65 780.333 1427.65 778C1440.57 773.156 1453.33 764.09 1465.93 750.8L1467.15 749.5C1479.42 735.937 1490.13 720.498 1499.27 703.182L1500.15 701.5C1508.82 684.167 1515.65 666.167 1520.65 647.5C1525.49 629.739 1527.99 613.074 1528.14 597.503L1528.15 596C1528.15 587.333 1527.32 579.167 1525.65 571.5C1524.36 564.073 1521.97 557.74 1518.49 552.503L1518.15 552C1516.28 549.812 1514.25 548.65 1512.09 548.514L1511.65 548.5C1509.65 548.5 1508.65 549 1508.65 550V550.5ZM1541.15 475.5C1541.15 478.842 1539.92 482.483 1537.84 486.323C1537.7 486.636 1537.75 486.537 1537.58 486.907C1537.55 486.963 1537.53 487.013 1537.51 487.067C1537.45 487.186 1537.53 487.028 1537.47 487.146C1537.46 487.167 1537.46 487.165 1537.45 487.186L1537.44 487.225C1537.43 487.234 1537.37 487.373 1537.36 487.379C1537.31 487.502 1537.35 487.408 1537.3 487.53L1537.26 487.605C1537.25 487.634 1537.24 487.651 1537.23 487.68C1537.23 487.686 1537.22 487.692 1537.22 487.698C1537.22 487.704 1537.21 487.711 1537.21 487.717C1537.19 487.762 1537.22 487.708 1537.19 487.753C1537.19 487.759 1537.19 487.765 1537.19 487.771C1537.18 487.777 1537.18 487.783 1537.18 487.789C1537.18 487.795 1537.17 487.802 1537.17 487.808C1537.17 487.814 1537.16 487.82 1537.16 487.826C1537.07 488.021 1537.12 487.919 1537.03 488.11L1536.56 489.142C1536.55 489.162 1536.47 489.356 1536.46 489.373C1536.42 489.46 1536.4 489.51 1536.36 489.593C1536.36 489.597 1536.35 489.602 1536.35 489.606C1536.35 489.611 1536.35 489.616 1536.35 489.62C1536.34 489.624 1536.34 489.629 1536.34 489.633C1536.34 489.637 1536.34 489.642 1536.33 489.646C1536.33 489.662 1536.32 489.683 1536.31 489.699C1536.27 489.796 1536.31 489.706 1536.26 489.803C1536.26 489.814 1536.25 489.843 1536.24 489.854C1536.22 489.89 1536.25 489.842 1536.23 489.878L1536.22 489.903C1536.13 490.104 1536.26 489.802 1536.17 490.001C1536.16 490.036 1536.1 490.158 1536.09 490.189C1536.07 490.236 1536.07 490.233 1536.05 490.279C1536.03 490.317 1536.02 490.33 1536.01 490.366L1535.63 491.204C1535.61 491.248 1535.63 491.187 1535.61 491.23C1535.61 491.242 1535.61 491.246 1535.6 491.257C1535.6 491.272 1535.6 491.254 1535.6 491.27C1535.59 491.279 1535.6 491.272 1535.59 491.282C1535.59 491.296 1535.59 491.293 1535.58 491.307C1535.56 491.347 1535.56 491.361 1535.54 491.397C1535.53 491.416 1535.49 491.504 1535.48 491.536C1534.79 493.82 1532.92 495.594 1530.81 496.996L1530.66 497.1L1530.49 497.184C1528.06 498.401 1525.43 499 1522.65 499C1520.36 499 1518.16 498.305 1516.11 497.072L1515.93 496.969L1515.78 496.843C1513.31 494.873 1511.94 491.727 1511.21 488.088L1511.19 487.98L1511.17 487.872C1510.63 483.521 1513.47 479.924 1517.39 477.074L1517.44 477.038L1517.49 477.004C1521.5 474.328 1524.63 472.405 1526.81 471.316L1526.92 471.261L1527.04 471.215C1528.73 470.539 1530.12 470.015 1531.2 469.654L1531.63 469.516C1532.65 469.207 1533.67 469 1534.65 469C1536.28 469 1538.05 469.41 1539.4 470.754C1540.74 472.098 1541.15 473.871 1541.15 475.5Z" fill="#F9E9FF"/>
<path d="M1444.33 533.5C1444.33 532.25 1443.15 531.586 1440.81 531.508L1440.33 531.5C1434.33 531.5 1428.49 535.167 1422.83 542.5C1417.16 549.5 1411.83 557.833 1406.83 567.5L1405.96 569.303C1401.68 578.268 1398.14 586.5 1395.33 594L1390.33 609L1390.15 609.814C1389.27 613.896 1388.83 618.125 1388.83 622.5L1388.83 623.06C1388.91 628.812 1390.24 633.625 1392.83 637.5C1395.41 641.375 1399.56 643.373 1405.27 643.494L1405.83 643.5C1409.49 643.5 1413.83 642.5 1418.83 640.5C1428.49 636.833 1438.16 629.5 1447.83 618.5C1457.2 608.188 1465.4 597.729 1472.44 587.123L1473.83 585C1474.76 583.438 1475.26 581.875 1475.32 580.312L1475.33 580C1475.33 578.333 1474.83 577.5 1473.83 577.5C1473.49 577.5 1472.66 578.167 1471.33 579.5L1469.9 581.672C1466.48 586.849 1462.28 592.792 1457.33 599.5L1456.26 600.93C1450.89 608.039 1445.08 614.562 1438.83 620.5L1438.2 621.088C1431.73 627.102 1425.11 631.24 1418.33 633.5C1416.99 633.833 1415.83 634.167 1414.83 634.5H1411.83V631.5H1414.36C1415.29 631.203 1416.33 630.909 1417.47 630.623C1423.93 628.451 1430.37 624.4 1436.76 618.325L1437.98 617.153C1444.05 611.255 1449.7 604.778 1454.91 597.717L1456.98 594.901C1461.7 588.444 1465.64 582.768 1468.81 577.87L1468.98 577.604L1469.21 577.379L1469.71 576.878C1470.21 576.398 1470.67 575.984 1471.08 575.657C1471.35 575.443 1471.66 575.212 1471.99 575.021C1472.22 574.892 1472.91 574.5 1473.83 574.5L1474.11 574.509C1475.51 574.594 1476.76 575.314 1477.52 576.581C1478.19 577.689 1478.33 578.965 1478.33 580C1478.33 582.295 1477.63 584.49 1476.4 586.544L1476.37 586.587L1476.35 586.63C1468.92 598.101 1460.16 609.383 1450.08 620.479L1450.08 620.48C1440.23 631.686 1430.2 639.381 1419.94 643.284L1419.94 643.285C1414.74 645.366 1410.01 646.5 1405.83 646.5C1399.32 646.5 1394.03 644.35 1390.65 639.629L1390.33 639.164C1387.26 634.562 1385.83 628.945 1385.83 622.5C1385.83 617.617 1386.35 612.89 1387.4 608.325L1387.44 608.187L1387.48 608.052L1387.48 608.04C1387.49 608.036 1387.49 608.031 1387.49 608.027L1387.5 608.004C1387.52 607.947 1387.49 608.013 1387.51 607.955C1387.53 607.897 1387.51 607.964 1387.53 607.905C1387.55 607.846 1387.53 607.915 1387.55 607.855C1387.57 607.794 1387.54 607.864 1387.56 607.803C1387.58 607.741 1387.56 607.813 1387.58 607.75C1387.67 607.493 1387.53 607.9 1387.62 607.642C1387.62 607.637 1387.62 607.632 1387.62 607.627C1387.62 607.622 1387.62 607.618 1387.63 607.613L1387.63 607.599C1387.63 607.594 1387.63 607.59 1387.64 607.585L1387.64 607.57C1387.64 607.566 1387.64 607.561 1387.65 607.557C1387.65 607.552 1387.65 607.547 1387.65 607.542L1387.66 607.513C1387.66 607.508 1387.66 607.504 1387.66 607.499L1387.67 607.484C1387.67 607.479 1387.67 607.474 1387.67 607.469L1387.68 607.439C1387.69 607.434 1387.69 607.43 1387.69 607.425L1387.69 607.41C1387.72 607.321 1387.68 607.468 1387.7 607.38C1387.72 607.344 1387.7 607.385 1387.71 607.349C1387.74 607.258 1387.69 607.409 1387.73 607.318C1387.73 607.305 1387.73 607.294 1387.73 607.287C1387.77 607.195 1387.71 607.349 1387.75 607.256C1387.75 607.251 1387.75 607.245 1387.75 607.24C1387.75 607.235 1387.75 607.23 1387.76 607.225C1387.76 607.219 1387.76 607.214 1387.76 607.209C1387.76 607.204 1387.77 607.198 1387.77 607.192C1387.77 607.187 1387.77 607.182 1387.77 607.177C1387.77 607.172 1387.78 607.166 1387.78 607.161C1387.78 607.156 1387.78 607.15 1387.78 607.145C1387.78 607.139 1387.79 607.133 1387.79 607.128C1387.79 607.123 1387.79 607.117 1387.79 607.112C1387.8 607.107 1387.8 607.101 1387.8 607.096C1387.8 607.09 1387.8 607.085 1387.8 607.079L1387.82 607.046C1387.82 607.04 1387.82 607.035 1387.82 607.029L1387.84 606.979C1387.84 606.974 1387.84 606.968 1387.84 606.962C1387.85 606.945 1387.86 606.912 1387.87 606.895L1387.87 606.877C1387.87 606.871 1387.88 606.865 1387.88 606.859L1387.89 606.824C1387.89 606.819 1387.89 606.813 1387.9 606.808L1387.9 606.79C1387.9 606.784 1387.9 606.777 1387.91 606.771L1387.92 606.736C1387.92 606.73 1387.92 606.725 1387.93 606.719C1387.93 606.713 1387.93 606.706 1387.93 606.7L1387.94 606.683C1387.94 606.677 1387.94 606.67 1387.94 606.664L1387.95 606.646C1387.95 606.64 1387.95 606.634 1387.95 606.628C1387.96 606.622 1387.96 606.616 1387.96 606.61L1387.97 606.573C1387.98 606.567 1387.98 606.561 1387.98 606.555C1387.98 606.549 1387.98 606.542 1387.99 606.536C1388 606.492 1387.98 606.543 1388 606.499C1388 606.493 1388 606.487 1388 606.48C1388.01 606.474 1388.01 606.467 1388.01 606.461C1387.97 606.583 1388.06 606.301 1388.02 606.424C1388.03 606.417 1388.03 606.411 1388.03 606.404C1388.03 606.398 1388.03 606.391 1388.04 606.385C1388.04 606.379 1388.04 606.372 1388.04 606.366C1388.04 606.36 1388.05 606.353 1388.05 606.347C1388.05 606.34 1388.05 606.334 1388.06 606.327C1388.06 606.321 1388.06 606.315 1388.06 606.309C1388.06 606.302 1388.07 606.295 1388.07 606.289L1388.08 606.25C1388.08 606.243 1388.09 606.236 1388.09 606.229L1388.11 606.171C1388.11 606.164 1388.11 606.157 1388.11 606.15C1388.12 606.144 1388.12 606.137 1388.12 606.131L1388.13 606.11C1388.16 606.015 1388.11 606.166 1388.14 606.07L1388.15 606.029C1388.16 606.023 1388.16 606.016 1388.16 606.01L1388.18 605.969C1388.18 605.962 1388.18 605.954 1388.18 605.947L1388.2 605.906L1388.22 605.822C1388.23 605.815 1388.23 605.809 1388.23 605.802L1388.25 605.737C1388.25 605.73 1388.26 605.724 1388.26 605.717L1388.27 605.674C1388.28 605.667 1388.28 605.659 1388.28 605.652C1388.28 605.645 1388.29 605.637 1388.29 605.63C1388.29 605.623 1388.29 605.616 1388.29 605.608C1388.3 605.601 1388.3 605.594 1388.3 605.587C1388.3 605.58 1388.31 605.572 1388.31 605.564C1388.31 605.557 1388.31 605.55 1388.32 605.543C1388.32 605.536 1388.32 605.529 1388.32 605.521C1388.33 605.514 1388.33 605.506 1388.33 605.499C1388.33 605.492 1388.34 605.484 1388.34 605.477C1388.34 605.469 1388.34 605.462 1388.35 605.455C1388.35 605.448 1388.35 605.44 1388.35 605.433C1388.36 605.425 1388.36 605.418 1388.36 605.41L1388.38 605.365C1388.38 605.358 1388.38 605.35 1388.38 605.343L1388.4 605.298C1388.4 605.29 1388.4 605.282 1388.41 605.274C1388.41 605.267 1388.41 605.259 1388.41 605.252L1388.42 605.229C1388.42 605.221 1388.43 605.214 1388.43 605.206L1388.44 605.183C1388.44 605.175 1388.44 605.168 1388.44 605.16C1388.45 605.152 1388.45 605.144 1388.45 605.137L1388.47 605.09C1388.47 605.082 1388.47 605.075 1388.48 605.067L1388.48 605.044C1388.49 605.036 1388.49 605.027 1388.49 605.02L1388.51 604.973C1388.51 604.965 1388.51 604.957 1388.52 604.949L1388.52 604.926C1388.53 604.918 1388.53 604.909 1388.53 604.901L1388.54 604.878L1388.55 604.829C1388.56 604.821 1388.56 604.814 1388.56 604.806L1388.59 604.732C1388.59 604.724 1388.59 604.716 1388.6 604.708L1388.61 604.659C1388.61 604.651 1388.62 604.643 1388.62 604.635C1388.62 604.627 1388.62 604.618 1388.63 604.61C1388.63 604.602 1388.63 604.593 1388.64 604.585C1388.64 604.577 1388.64 604.569 1388.64 604.561C1388.65 604.552 1388.65 604.544 1388.65 604.536C1388.66 604.528 1388.66 604.519 1388.66 604.511C1388.66 604.502 1388.67 604.494 1388.67 604.485C1388.67 604.477 1388.67 604.469 1388.68 604.461C1388.68 604.453 1388.68 604.444 1388.69 604.436C1388.69 604.427 1388.69 604.419 1388.69 604.41L1388.71 604.359C1388.71 604.351 1388.72 604.342 1388.72 604.334L1388.75 604.258C1388.75 604.249 1388.75 604.24 1388.75 604.231L1388.77 604.181L1388.78 604.154C1388.78 604.146 1388.79 604.137 1388.79 604.129L1388.8 604.103C1388.8 604.094 1388.8 604.085 1388.81 604.076L1388.82 604.023C1388.83 604.015 1388.83 604.007 1388.83 603.998L1388.84 603.972C1388.84 603.963 1388.85 603.953 1388.85 603.944L1388.87 603.892C1388.87 603.883 1388.87 603.874 1388.88 603.865C1388.88 603.856 1388.88 603.847 1388.89 603.838L1388.89 603.812C1388.9 603.803 1388.9 603.793 1388.9 603.784L1388.91 603.758C1388.91 603.749 1388.92 603.739 1388.92 603.73C1388.92 603.722 1388.93 603.713 1388.93 603.704L1388.95 603.649C1388.95 603.64 1388.95 603.631 1388.96 603.622L1388.98 603.567C1388.98 603.558 1388.98 603.549 1388.98 603.54C1388.99 603.531 1388.99 603.522 1388.99 603.513C1389 603.504 1389 603.494 1389 603.484C1389.01 603.475 1389.01 603.466 1389.01 603.457C1389.02 603.448 1389.02 603.439 1389.02 603.43C1389.02 603.42 1389.03 603.411 1389.03 603.401C1389.03 603.392 1389.04 603.382 1389.04 603.373C1389.04 603.364 1389.05 603.355 1389.05 603.346C1389.05 603.336 1389.05 603.327 1389.06 603.317C1389.06 603.308 1389.06 603.298 1389.07 603.289C1389.07 603.28 1389.07 603.271 1389.08 603.262C1389.08 603.252 1389.08 603.243 1389.09 603.233L1389.11 603.177C1389.11 603.167 1389.11 603.157 1389.11 603.147L1389.14 603.062C1389.15 603.053 1389.15 603.043 1389.15 603.033C1389.16 603.024 1389.16 603.014 1389.16 603.005L1389.17 602.976C1389.18 602.966 1389.18 602.957 1389.18 602.947L1389.21 602.859C1389.21 602.85 1389.22 602.841 1389.22 602.831L1389.24 602.772C1389.24 602.763 1389.25 602.752 1389.25 602.742L1389.28 602.654C1389.28 602.644 1389.29 602.634 1389.29 602.624L1389.3 602.595C1389.3 602.585 1389.31 602.574 1389.31 602.564C1389.31 602.555 1389.32 602.545 1389.32 602.535L1389.35 602.444C1389.35 602.434 1389.36 602.425 1389.36 602.415L1389.38 602.354C1389.38 602.344 1389.39 602.334 1389.39 602.324C1389.39 602.314 1389.4 602.303 1389.4 602.293C1389.4 602.283 1389.41 602.273 1389.41 602.263C1389.41 602.253 1389.42 602.243 1389.42 602.232C1389.42 602.222 1389.43 602.211 1389.43 602.201C1389.43 602.191 1389.44 602.181 1389.44 602.171C1389.44 602.161 1389.45 602.151 1389.45 602.141C1389.45 602.13 1389.46 602.12 1389.46 602.109C1389.46 602.099 1389.47 602.088 1389.47 602.078C1389.47 602.068 1389.48 602.058 1389.48 602.048C1389.49 602.038 1389.49 602.027 1389.49 602.017L1389.53 601.892C1389.56 601.799 1389.52 601.922 1389.56 601.829C1389.65 601.53 1389.54 601.875 1389.64 601.574C1389.67 601.479 1389.63 601.605 1389.66 601.511L1389.67 601.479C1389.67 601.468 1389.68 601.456 1389.68 601.445L1389.7 601.381C1389.74 601.285 1389.69 601.412 1389.73 601.316C1389.73 601.306 1389.73 601.294 1389.74 601.283L1389.75 601.251L1389.77 601.185C1389.77 601.174 1389.78 601.163 1389.78 601.152L1389.81 601.053C1389.82 601.042 1389.82 601.031 1389.82 601.02L1389.85 600.953C1389.85 600.942 1389.85 600.931 1389.86 600.92C1389.86 600.909 1389.86 600.898 1389.87 600.887C1389.87 600.876 1389.88 600.864 1389.88 600.853C1389.88 600.842 1389.89 600.83 1389.89 600.819C1389.89 600.808 1389.9 600.797 1389.9 600.786C1389.91 600.775 1389.91 600.763 1389.91 600.752C1389.92 600.741 1389.92 600.729 1389.93 600.718C1389.93 600.707 1389.93 600.696 1389.94 600.685C1389.94 600.673 1389.94 600.662 1389.95 600.65C1389.95 600.639 1389.95 600.628 1389.96 600.616L1389.98 600.548C1389.99 600.537 1389.99 600.525 1389.99 600.514L1390.03 600.411C1390.03 600.4 1390.03 600.387 1390.04 600.376L1390.06 600.308L1390.07 600.272C1390.08 600.261 1390.08 600.25 1390.09 600.238L1390.1 600.203C1390.1 600.192 1390.1 600.18 1390.11 600.168L1390.19 599.922C1390.19 599.91 1390.2 599.899 1390.2 599.887C1390.21 599.875 1390.21 599.862 1390.21 599.851L1390.23 599.815C1390.23 599.804 1390.23 599.791 1390.24 599.779L1390.25 599.744C1390.25 599.732 1390.26 599.72 1390.26 599.708C1390.27 599.696 1390.27 599.685 1390.27 599.673L1390.3 599.601C1390.3 599.589 1390.31 599.576 1390.31 599.564L1390.33 599.492C1390.34 599.48 1390.34 599.468 1390.35 599.456C1390.35 599.444 1390.35 599.432 1390.36 599.42C1390.36 599.408 1390.37 599.395 1390.37 599.383C1390.37 599.371 1390.38 599.359 1390.38 599.347C1390.39 599.335 1390.39 599.323 1390.39 599.311C1390.42 599.235 1390.39 599.312 1390.42 599.236C1390.42 599.224 1390.43 599.212 1390.43 599.2C1390.44 599.188 1390.44 599.175 1390.44 599.163C1390.45 599.151 1390.45 599.138 1390.46 599.126C1390.46 599.114 1390.46 599.102 1390.47 599.09C1390.48 599.047 1390.55 598.836 1390.57 598.791C1390.57 598.779 1390.58 598.766 1390.58 598.754L1390.59 598.716C1390.6 598.703 1390.6 598.691 1390.6 598.679L1390.64 598.564C1390.65 598.552 1390.65 598.54 1390.66 598.527L1390.87 597.871C1390.88 597.858 1390.88 597.844 1390.89 597.831C1390.89 597.818 1390.9 597.805 1390.9 597.792C1390.9 597.779 1390.91 597.766 1390.91 597.753C1390.92 597.74 1390.92 597.726 1390.93 597.713C1390.93 597.7 1390.94 597.687 1390.94 597.674C1390.94 597.661 1390.95 597.648 1390.95 597.635C1390.96 597.622 1390.96 597.608 1390.97 597.595C1390.97 597.582 1390.97 597.568 1390.98 597.555C1390.98 597.542 1390.99 597.529 1390.99 597.516C1391 597.502 1391 597.489 1391.01 597.476C1391.01 597.462 1391.01 597.449 1391.02 597.436L1391.05 597.355C1391.05 597.342 1391.05 597.329 1391.06 597.315L1391.09 597.235C1391.09 597.222 1391.09 597.208 1391.1 597.194C1391.1 597.181 1391.11 597.168 1391.11 597.154L1391.13 597.113C1391.13 597.1 1391.14 597.087 1391.14 597.073L1391.15 597.032C1391.16 597.019 1391.16 597.006 1391.17 596.992C1391.17 596.979 1391.18 596.965 1391.18 596.951L1391.21 596.869C1391.21 596.856 1391.22 596.842 1391.22 596.829L1391.23 596.788C1391.24 596.774 1391.24 596.76 1391.25 596.746L1391.28 596.664C1391.28 596.65 1391.29 596.637 1391.29 596.623L1391.3 596.582C1391.31 596.568 1391.31 596.554 1391.32 596.54L1391.33 596.499L1391.36 596.415C1391.36 596.401 1391.37 596.388 1391.37 596.374L1391.41 596.248C1391.42 596.234 1391.42 596.22 1391.43 596.206L1391.46 596.122C1391.46 596.108 1391.47 596.094 1391.47 596.08C1391.48 596.066 1391.48 596.052 1391.48 596.038C1391.49 596.024 1391.49 596.009 1391.5 595.995C1391.57 595.795 1391.46 596.112 1391.53 595.911C1391.53 595.897 1391.54 595.882 1391.54 595.868C1391.55 595.854 1391.55 595.839 1391.56 595.825C1391.62 595.624 1391.52 595.943 1391.58 595.74C1391.59 595.726 1391.59 595.712 1391.6 595.697L1391.63 595.611C1391.63 595.597 1391.64 595.583 1391.64 595.568L1391.7 595.396C1391.77 595.19 1391.66 595.515 1391.73 595.31L1391.74 595.266C1391.75 595.251 1391.75 595.237 1391.76 595.223C1391.84 594.977 1391.7 595.381 1391.79 595.135L1391.81 595.047C1391.86 594.918 1391.8 595.089 1391.84 594.96C1391.89 594.83 1391.83 595.002 1391.87 594.871C1391.92 594.741 1391.86 594.914 1391.9 594.783L1391.96 594.605C1392.02 594.434 1391.94 594.688 1391.99 594.517C1392.04 594.384 1391.98 594.559 1392.02 594.427C1392.05 594.334 1392.02 594.43 1392.05 594.337C1392.06 594.322 1392.06 594.307 1392.07 594.292C1392.07 594.277 1392.08 594.262 1392.08 594.247C1392.09 594.232 1392.09 594.217 1392.1 594.202C1392.1 594.187 1392.11 594.171 1392.11 594.156C1392.12 594.141 1392.12 594.126 1392.13 594.111C1392.13 594.096 1392.14 594.081 1392.14 594.066C1392.15 594.051 1392.15 594.036 1392.16 594.021C1392.16 594.005 1392.17 593.99 1392.17 593.975C1392.18 593.96 1392.18 593.945 1392.19 593.93C1392.19 593.914 1392.2 593.899 1392.2 593.884C1392.21 593.869 1392.21 593.853 1392.22 593.838C1392.22 593.823 1392.23 593.808 1392.23 593.793C1392.24 593.778 1392.24 593.762 1392.25 593.747L1392.28 593.655C1392.28 593.64 1392.29 593.624 1392.29 593.608L1392.34 593.471C1392.35 593.455 1392.35 593.439 1392.36 593.424C1392.36 593.409 1392.37 593.393 1392.37 593.378L1392.39 593.331C1392.39 593.316 1392.4 593.3 1392.4 593.285L1392.45 593.145C1392.45 593.129 1392.46 593.114 1392.47 593.099L1392.5 592.999L1392.52 592.946C1395.56 584.843 1399.43 575.924 1404.13 566.195L1404.14 566.158L1404.16 566.122C1409.24 556.311 1414.68 547.799 1420.49 540.612C1426.4 532.984 1433 528.5 1440.33 528.5C1441.81 528.5 1443.37 528.67 1444.67 529.316C1445.36 529.661 1446.05 530.184 1446.57 530.961C1447.1 531.757 1447.33 532.642 1447.33 533.5C1447.33 535.848 1446.17 537.855 1444.57 539.492C1438.07 547.301 1431.87 556.608 1425.96 567.437C1420.34 578.014 1415.56 588.078 1411.61 597.63C1407.99 607.176 1405.94 614.198 1405.31 618.829C1404.84 623.913 1405.44 627.125 1406.53 628.969C1407.47 630.545 1408.99 631.5 1411.83 631.5V634.5L1411.49 634.496C1404.4 634.332 1401.34 629 1402.33 618.5C1402.99 613.5 1405.16 606.167 1408.83 596.5C1412.83 586.833 1417.66 576.667 1423.33 566C1429.33 555 1435.66 545.5 1442.33 537.5C1443.58 536.25 1444.24 535 1444.32 533.75L1444.33 533.5ZM1471.33 475.5C1471.33 473.312 1470.3 472.15 1468.25 472.014L1467.83 472C1467.16 472 1466.33 472.167 1465.33 472.5L1464.51 472.781C1463.64 473.094 1462.58 473.5 1461.33 474L1460.88 474.197C1458.62 475.232 1455.76 477 1452.33 479.5L1451.66 480C1448.46 482.5 1447.01 485 1447.33 487.5C1448.3 492.99 1450.98 495.82 1455.4 495.991L1455.83 496C1458.01 496 1460.06 495.561 1461.95 494.682L1462.33 494.5C1464.33 493.167 1465.49 491.833 1465.83 490.5C1465.83 490.5 1466.66 488.667 1468.33 485C1470.2 481.563 1471.2 478.564 1471.31 476.006L1471.33 475.5ZM1474.33 475.5C1474.33 478.842 1473.1 482.483 1471.02 486.323C1470.98 486.41 1470.94 486.496 1470.9 486.58C1470.88 486.623 1470.77 486.868 1470.76 486.907L1470.21 488.11C1470.19 488.16 1470.1 488.339 1470.08 488.385C1470.01 488.538 1470.03 488.498 1469.96 488.647L1468.71 491.397C1468.7 491.435 1468.67 491.488 1468.65 491.536C1467.96 493.82 1466.09 495.594 1463.99 496.996L1463.84 497.1L1463.67 497.184C1461.23 498.401 1458.6 499 1455.83 499C1452.84 499 1450.15 498.068 1448.08 495.996C1446.08 493.992 1444.93 491.207 1444.37 488.021L1444.36 487.947L1444.35 487.872C1443.81 483.521 1446.64 479.924 1450.56 477.074L1451.94 476.091C1455.09 473.878 1457.83 472.232 1460.15 471.242L1460.18 471.229L1460.21 471.215C1461.9 470.539 1463.3 470.015 1464.38 469.654L1464.81 469.516C1465.82 469.207 1466.85 469 1467.83 469C1469.46 469 1471.23 469.41 1472.57 470.754C1473.92 472.098 1474.33 473.871 1474.33 475.5Z" fill="#F9E9FF"/>
<path d="M1316.31 618.5V613.5L1317.31 607.5C1319.25 594.583 1323.07 582.918 1328.76 572.504L1329.31 571.5C1334.94 561.5 1341.3 551.646 1348.39 541.939L1349.81 540C1351.38 537.5 1352.21 535.879 1352.31 535.137L1352.31 535C1352.31 533.125 1351 532.129 1348.36 532.012L1347.81 532C1344.81 532 1341.65 532.667 1338.31 534L1337.78 534.193C1332.23 536.252 1325.74 540.188 1318.31 546C1310.65 551.667 1303.15 558.167 1295.81 565.5L1294.45 566.871C1287.72 573.707 1282 580.25 1277.31 586.5L1279.31 581.5C1280.56 578.75 1282 575.437 1283.63 571.562L1285.31 567.5C1287.5 562.188 1288.66 557.021 1288.8 552.002L1288.81 551C1288.81 547.875 1288.08 545.189 1286.62 542.943L1286.31 542.5C1284.75 540.312 1282.02 539.004 1278.11 538.574L1277.31 538.5C1273.65 538.167 1268.65 540.333 1262.31 545L1261.19 545.826C1255.54 550.025 1249.75 555.25 1243.81 561.5C1237.48 567.833 1231.81 574 1226.81 580L1224.96 582.242C1220.7 587.456 1216.81 592.542 1213.31 597.5L1211.93 599.648C1208.69 604.716 1205.31 610.167 1201.81 616C1200.56 616.312 1199.9 615.307 1199.82 612.982L1199.81 612.5C1200.44 606.563 1202.82 599.453 1206.96 591.172L1207.81 589.5C1212.48 580.5 1216.31 573.333 1219.31 568C1223.69 560.813 1227.92 554.504 1232 549.074L1232.81 548C1237.01 542.187 1240.43 538.565 1243.06 537.132L1243.31 537C1244.31 536.333 1244.15 535.5 1242.81 534.5C1241.88 533.562 1240.5 533.064 1238.68 533.006L1238.31 533C1234.31 533 1230.31 534.5 1226.31 537.5L1225.57 538.072C1221.84 540.982 1218.25 544.625 1214.81 549L1214.62 549.273C1213.56 550.758 1211.63 554 1208.81 559L1206.75 563.156C1204.63 567.469 1202.31 572.25 1199.81 577.5L1199.19 578.885C1196.11 585.857 1193.31 593.562 1190.81 602L1190.39 603.615C1188.34 611.643 1187.31 618.938 1187.31 625.5L1187.32 626.119C1187.4 632.467 1188.73 637.094 1191.31 640C1193.58 642.583 1195.37 642.821 1196.69 640.712L1196.81 640.5L1197.81 638.5C1198.15 637.5 1198.48 636.333 1198.81 635C1200.15 630 1202.65 624.333 1206.31 618C1210.31 611.667 1214.48 605.5 1218.81 599.5C1222.9 593.958 1226.47 589.31 1229.53 585.555L1230.81 584C1233.15 581 1236.81 576.833 1241.81 571.5C1246.81 566.188 1251.81 561.461 1256.81 557.32L1257.81 556.5C1263.48 551.833 1267.81 549.5 1270.81 549.5L1271.06 549.505C1273.56 549.616 1274.81 551.448 1274.81 555L1274.81 555.451C1274.73 557.775 1274.06 561.125 1272.81 565.5L1272.62 566.326C1271.58 570.525 1269.81 575.75 1267.31 582L1267.02 582.844C1266.22 585.031 1264.65 588.75 1262.31 594L1260.31 598.469C1258.31 602.906 1256.31 607.25 1254.31 611.5L1253.49 613.383C1251.66 617.503 1250.61 619.708 1250.31 620L1250.26 620.121C1249.78 621.264 1251.07 621.448 1254.15 620.674L1254.81 620.5C1258.81 619.167 1261.65 617 1263.31 614C1267.69 606.187 1273.68 597.936 1281.27 589.244L1282.81 587.5C1291.15 577.833 1299.81 569 1308.81 561C1318.15 553 1326.15 547.167 1332.81 543.5C1327.81 550.5 1322.98 558.5 1318.31 567.5L1317.45 569.188C1313.17 577.625 1309.63 586.063 1306.81 594.5L1306.33 596.115C1303.99 604.143 1302.81 611.438 1302.81 618L1302.82 618.867C1302.94 627.758 1304.94 634.302 1308.81 638.5C1312.69 642.698 1317.19 644.863 1322.32 644.994L1322.81 645C1330.89 645 1338.65 642.185 1346.1 636.554L1346.81 636C1354.48 630 1361.65 622.5 1368.31 613.5C1374.88 605.063 1380.85 596.771 1386.24 588.627L1387.31 587C1388.88 584.5 1389.71 582.293 1389.81 580.379L1389.81 580C1389.81 578.333 1389.31 577.5 1388.31 577.5C1387.98 577.5 1387.48 578 1386.81 579C1380.48 588.333 1373.98 597.667 1367.31 607C1360.65 616 1353.98 623.5 1347.31 629.5L1346.69 630.022C1340.24 635.341 1333.95 638 1327.81 638V635C1333.2 635 1339.04 632.597 1345.36 627.222C1351.83 621.392 1358.35 614.066 1364.9 605.214C1371.55 595.914 1378.02 586.614 1384.33 577.315C1384.71 576.755 1385.12 576.202 1385.57 575.754C1385.8 575.527 1386.1 575.253 1386.49 575.021C1386.86 574.799 1387.49 574.5 1388.31 574.5L1388.6 574.509C1390 574.594 1391.25 575.314 1392.01 576.581C1392.68 577.689 1392.81 578.965 1392.81 580C1392.81 582.798 1391.67 585.696 1389.86 588.59L1389.84 588.616L1389.83 588.642C1384.12 597.365 1377.75 606.247 1370.73 615.286L1370.09 616.143C1363.68 624.667 1356.78 631.888 1349.4 637.778L1348.66 638.362C1340.56 644.703 1331.93 648 1322.81 648C1316.75 648 1311.45 645.57 1307.04 640.985L1306.61 640.535C1301.87 635.402 1299.81 627.668 1299.81 618C1299.81 610.628 1301.22 602.491 1303.95 593.618L1303.96 593.584L1303.97 593.552C1307.02 584.393 1310.92 575.249 1315.65 566.119L1316.54 564.424C1318.48 560.74 1320.46 557.223 1322.47 553.87C1318.87 556.541 1314.99 559.661 1310.81 563.242L1309.14 564.734C1300.84 572.244 1292.82 580.485 1285.09 589.459L1285.07 589.479L1285.05 589.498C1276.82 598.715 1270.47 607.371 1265.93 615.466C1263.82 619.259 1260.3 621.833 1255.76 623.346L1255.69 623.372L1255.6 623.395C1253.8 623.887 1251.99 624.26 1250.61 624.106C1249.98 624.037 1248.44 623.752 1247.6 622.238C1246.75 620.704 1247.34 619.232 1247.63 618.658L1247.85 618.223L1247.99 618.085C1248.01 618.034 1248.05 617.968 1248.1 617.884C1248.28 617.546 1248.52 617.04 1248.85 616.348C1249.5 614.969 1250.4 612.957 1251.57 610.298L1251.58 610.26L1251.6 610.223C1254.26 604.576 1256.92 598.762 1259.57 592.781L1260.53 590.623C1262.64 585.821 1263.93 582.66 1264.47 581.052L1264.5 580.968L1264.53 580.886C1267.17 574.287 1268.94 568.946 1269.89 564.825L1269.91 564.75L1269.93 564.676C1271.25 560.053 1271.81 556.891 1271.81 555C1271.81 553.442 1271.52 552.814 1271.39 552.64C1271.35 552.585 1271.33 552.579 1271.31 552.571C1271.28 552.556 1271.14 552.5 1270.81 552.5C1270.03 552.5 1268.71 552.826 1266.74 553.892C1264.8 554.933 1262.47 556.552 1259.72 558.815L1259.71 558.822L1259.71 558.828C1254.49 563.066 1249.25 567.971 1244 573.551L1244 573.552C1239.02 578.867 1235.43 582.953 1233.18 585.842L1233.15 585.882L1233.12 585.921C1229.84 589.854 1225.89 594.961 1221.25 601.257L1219.64 603.495C1215.93 608.716 1212.35 614.062 1208.89 619.535C1205.32 625.713 1202.95 631.118 1201.71 635.773C1201.37 637.142 1201.02 638.37 1200.66 639.448L1200.59 639.651L1200.5 639.842L1199.46 641.916L1199.42 641.988C1198.48 643.636 1196.77 645.348 1194.17 645.112C1192.03 644.918 1190.32 643.418 1189.06 641.976V641.975C1185.68 638.162 1184.31 632.438 1184.31 625.5C1184.31 618.175 1185.53 610.073 1187.92 601.22L1187.93 601.184L1187.94 601.147C1190.64 592.036 1193.68 583.737 1197.08 576.259L1197.1 576.234L1197.11 576.21C1200.45 569.197 1203.45 563.013 1206.13 557.658L1206.16 557.593L1206.2 557.529C1209.17 552.251 1211.27 548.725 1212.41 547.2L1212.44 547.173L1212.46 547.146C1216.25 542.311 1220.27 538.283 1224.52 535.1L1224.93 534.796C1229.19 531.698 1233.67 530 1238.31 530C1240.7 530 1243.02 530.581 1244.76 532.213C1245.52 532.807 1246.59 533.81 1246.88 535.287C1247.3 537.388 1245.99 538.819 1244.98 539.496L1244.82 539.6L1244.66 539.684C1243.78 540.124 1242.51 541.088 1240.86 542.821C1239.24 544.522 1237.37 546.822 1235.25 549.757L1235.22 549.79L1235.2 549.822C1230.95 555.377 1226.52 561.938 1221.9 569.52C1219.3 574.143 1216.06 580.166 1212.19 587.598L1210.48 590.881C1207.4 596.817 1205.27 602.053 1204.02 606.609C1206.33 602.853 1208.59 599.273 1210.8 595.87L1210.83 595.819L1210.86 595.77C1214.92 590.03 1219.47 584.133 1224.51 578.079L1225.47 576.938C1230.29 571.232 1235.68 565.39 1241.66 559.413C1248.08 552.652 1254.38 547.028 1260.56 542.568C1263.83 540.163 1266.85 538.323 1269.62 537.122C1272.36 535.935 1275.04 535.292 1277.54 535.51L1277.55 535.509C1282.3 535.875 1286.35 537.393 1288.76 540.756L1289.13 541.311C1290.96 544.113 1291.81 547.387 1291.81 551C1291.81 556.418 1290.7 561.931 1288.54 567.522L1288.09 568.643C1287.96 568.957 1287.83 569.266 1287.7 569.574C1289.61 567.534 1291.6 565.468 1293.69 563.379C1301.11 555.959 1308.72 549.367 1316.5 543.609C1324.25 537.548 1331.19 533.344 1337.27 531.188C1340.87 529.757 1344.39 529 1347.81 529C1349.55 529 1351.38 529.273 1352.85 530.254C1354.54 531.378 1355.31 533.126 1355.31 535C1355.31 535.69 1355.12 536.309 1354.98 536.696C1354.82 537.143 1354.61 537.615 1354.37 538.092C1353.9 539.048 1353.21 540.223 1352.36 541.59L1352.3 541.691L1352.22 541.787C1345.1 551.385 1338.71 561.121 1333.05 570.994L1331.93 572.971C1326.13 583.289 1322.23 594.936 1320.28 607.945L1320.28 607.969L1320.27 607.993C1319.95 609.91 1319.63 611.827 1319.31 613.744V618.5C1319.31 623.507 1320.1 627.752 1321.57 631.305C1322.19 632.647 1322.97 633.512 1323.88 634.065C1324.81 634.634 1326.07 635 1327.81 635V638L1327.41 637.994C1323.3 637.883 1320.43 636.052 1318.81 632.5C1317.25 628.75 1316.42 624.414 1316.32 619.492L1316.31 618.5Z" fill="#F9E9FF"/>
<path d="M705.749 559C705.749 547.698 702.308 539.367 695.425 534.009L694.749 533.5C687.967 528.333 680.56 525.669 672.528 525.508L671.749 525.5C667.082 525.5 662.082 526.5 656.749 528.5L655.817 528.887C651.188 530.879 646.999 533.75 643.249 537.5C640.582 537.5 638.415 538.167 636.749 539.5C629.749 545.167 623.249 552.333 617.249 561L616.198 562.566C611.002 570.418 606.686 578.563 603.249 587L602.911 587.811C599.47 596.166 597.749 603.896 597.749 611L597.758 612.083C597.96 623.173 601.29 630.979 607.749 635.5C614.207 639.698 621.76 641.863 630.409 641.994L631.249 642C641.259 642 650.644 639.185 659.403 633.554L660.249 633C669.29 626.865 677.237 619.478 684.089 610.84L684.749 610C691.749 600.667 696.915 591.667 700.249 583C703.801 573.958 705.633 566.168 705.744 559.629L705.749 559ZM691.749 555C691.749 546.814 689.551 541.732 685.895 538.859L685.845 538.819L685.796 538.777C681.624 535.201 677.136 533.5 672.249 533.5C665.148 533.5 658.893 535.516 653.394 539.575C653.915 540.279 654.304 541.084 654.458 542.007C654.898 544.649 653.235 546.602 651.651 547.819C647.165 551.671 641.973 557.017 636.068 563.902C630.485 570.801 626.096 577.151 622.871 582.957L622.856 582.984L622.84 583.012C620.665 586.74 618.586 591.656 616.634 597.822C615.034 603.922 614.249 609.645 614.249 615C614.249 620.118 615.434 624.519 617.726 628.299C619.947 631.18 623.977 633 630.749 633V636L630.068 635.994C623.095 635.873 618.155 633.875 615.249 630C612.665 625.802 611.333 620.979 611.252 615.529L611.249 615C611.249 609.333 612.082 603.333 613.749 597C615.624 591.063 617.645 586.15 619.813 582.264L620.249 581.5C623.582 575.5 628.082 569 633.749 562C639.749 555 645.082 549.5 649.749 545.5C652.415 543.5 652.082 541.5 648.749 539.5C655.415 533.5 663.249 530.5 672.249 530.5L672.779 530.506C678.238 530.627 683.228 532.625 687.749 536.5C692.415 540.167 694.749 546.333 694.749 555L694.744 555.659C694.643 562.501 692.978 570.281 689.749 579L689.462 579.844C686.445 588.563 681.707 597.281 675.249 606C668.582 614.667 661.249 621.833 653.249 627.5C645.582 633.167 638.082 636 630.749 636V633C637.271 633 644.16 630.487 651.465 625.088L651.49 625.069L651.514 625.052C659.231 619.585 666.343 612.648 672.839 604.21C679.349 595.421 684.019 586.702 686.903 578.052L686.918 578.005L686.935 577.958C690.188 569.176 691.749 561.539 691.749 555ZM708.749 559C708.749 566.177 706.784 574.561 703.047 584.076L703.048 584.077C699.594 593.058 694.274 602.299 687.149 611.8L687.132 611.821L687.117 611.842C679.926 621.087 671.529 628.971 661.933 635.482L661.923 635.489L661.913 635.496C652.444 641.808 642.203 645 631.249 645C621.747 645 613.329 642.706 606.114 638.016L606.071 637.987L606.028 637.958C598.248 632.512 594.749 623.192 594.749 611C594.749 603.169 596.705 594.767 600.486 585.831C604.232 576.642 608.995 567.803 614.768 559.313L614.782 559.292C620.917 550.43 627.605 543.042 634.861 537.168L634.868 537.163L634.875 537.157C636.882 535.551 639.308 534.736 641.982 534.545C646.042 530.683 650.595 527.731 655.634 525.715L655.665 525.702L655.695 525.691C661.293 523.592 666.653 522.5 671.749 522.5C680.777 522.5 689.076 525.406 696.567 531.113H696.566C704.856 537.171 708.749 546.704 708.749 559Z" fill="#F9E9FF"/>
<path d="M489.827 612.5C489.827 602.833 492.327 593 497.327 583C502.014 585.187 507.141 586.35 512.708 586.486L513.827 586.5C523.16 586.5 531.493 584 538.827 579C545.16 575 550.16 569.833 553.827 563.5C557.702 557.041 559.7 550.739 559.821 544.594L559.827 544C559.827 538 558.16 532.833 554.827 528.5C551.92 524.302 547.607 522.137 541.885 522.006L541.327 522C533.993 522 526.993 524.5 520.327 529.5L519.704 529.973C513.275 534.897 507.316 541.073 501.827 548.5L500.774 549.939C495.559 557.146 491.077 564.5 487.327 572L486.651 573.488C483.331 580.871 480.889 587.375 479.327 593L477.327 602L477.209 603C476.954 605.333 476.827 607.667 476.827 610L476.836 610.963C477.028 620.852 480.191 628.865 486.327 635C492.462 640.812 502.039 643.81 515.056 643.991L516.327 644C527.952 644 538.325 641.185 547.448 635.554L548.327 635C557.66 629 565.993 621.5 573.327 612.5C580.514 604.063 586.969 595.479 592.692 586.748L593.827 585C594.764 583.438 595.262 581.875 595.321 580.312L595.327 580C595.327 578.333 594.827 577.5 593.827 577.5C593.493 577.5 592.827 578 591.827 579L590.51 580.93C583.909 590.539 577.014 599.563 569.827 608L569.137 608.839C561.993 617.457 554.222 624.51 545.827 630L545.01 630.492C536.534 635.497 526.806 638 515.827 638V635C526.655 635 536.087 632.462 544.221 627.465C552.586 621.989 560.349 614.881 567.5 606.104L567.522 606.079L567.542 606.055C575.134 597.143 582.402 587.565 589.343 577.317L589.503 577.081L589.706 576.879L590.109 576.483C590.51 576.1 590.903 575.755 591.277 575.475C591.525 575.289 591.829 575.082 592.172 574.91C592.467 574.763 593.064 574.5 593.827 574.5L594.109 574.509C595.512 574.594 596.763 575.314 597.524 576.581C598.189 577.689 598.327 578.965 598.327 580C598.327 582.295 597.632 584.49 596.399 586.544L596.375 586.583L596.35 586.622C590.273 596.075 583.359 605.35 575.611 614.445C568.332 623.368 560.078 630.872 550.847 636.939L549.949 637.523C540.092 643.86 528.853 647 516.327 647C502.311 647 491.397 643.937 484.263 637.178L484.234 637.15L484.206 637.121C477.222 630.138 473.827 620.996 473.827 610C473.827 607.208 474.001 604.417 474.35 601.628L474.368 601.487L474.398 601.35L476.398 592.35L476.416 592.272L476.436 592.197C478.159 585.996 480.891 578.84 484.599 570.75L484.621 570.704L484.643 570.658C488.725 562.494 493.652 554.513 499.415 546.717L500.511 545.257C506.028 538.035 512.03 531.973 518.527 527.1L519.195 526.607C526.115 521.596 533.51 519 541.327 519C548.125 519 553.603 521.508 557.248 526.729C560.995 531.626 562.827 537.432 562.827 544C562.827 550.975 560.623 557.988 556.422 565.002L556.423 565.003C552.52 571.745 547.195 577.248 540.492 581.495C532.64 586.842 523.72 589.5 513.827 589.5C508.487 589.5 503.47 588.631 498.799 586.871C494.791 595.631 492.827 604.167 492.827 612.5C492.827 618.886 494.635 624.208 498.169 628.626L498.477 628.997C501.729 632.78 507.249 635 515.827 635V638L514.959 637.992C506.366 637.846 500.116 635.502 496.209 630.961L495.827 630.5C491.952 625.656 489.954 619.874 489.833 613.153L489.827 612.5ZM546.827 540.5C546.827 536.949 546.155 534.829 545.29 533.658C544.549 532.657 543.411 532 541.327 532C538.808 532 535.355 533.531 530.868 537.698L530.854 537.712C527.03 541.217 522.996 545.723 518.754 551.264C514.816 556.846 511.379 562.248 508.441 567.471L508.42 567.508L508.399 567.544C506.362 570.939 504.831 573.651 503.771 575.708C505.153 576.216 506.82 576.5 508.827 576.5V579.5L508.147 579.49C504.788 579.393 502.014 578.562 499.827 577C500.702 574.958 502.342 571.896 504.749 567.812L505.827 566C508.827 560.667 512.327 555.167 516.327 549.5C520.389 544.188 524.305 539.754 528.075 536.199L528.827 535.5C533.493 531.167 537.66 529 541.327 529L541.85 529.011C547.168 529.243 549.827 533.073 549.827 540.5L549.821 541.006C549.762 543.564 549.264 546.563 548.327 550L548.129 550.688C547.094 554.125 545.327 557.562 542.827 561L542.321 561.682C539.762 565.061 536.764 568 533.327 570.5L532.607 571.054C525.149 576.685 517.223 579.5 508.827 579.5V576.5C516.741 576.5 524.271 573.778 531.478 568.138L531.519 568.104L531.562 568.074C534.975 565.592 537.919 562.648 540.401 559.235C542.894 555.808 544.544 552.466 545.432 549.211L545.606 548.56C546.442 545.343 546.827 542.669 546.827 540.5Z" fill="#F9E9FF"/>
<path d="M400.655 708.5C400.655 706.5 399.988 705.5 398.655 705.5C397.321 705.5 395.488 707.167 393.155 710.5L392.639 711.25C391.4 713 389.905 714.75 388.155 716.5L387.538 717.352C386.116 719.284 384.821 720.833 383.655 722C380.321 725 376.488 726.5 372.155 726.5V723.5C375.695 723.5 378.801 722.308 381.59 719.819C382.751 718.649 384.125 716.979 385.713 714.756L385.858 714.555L386.034 714.379C387.918 712.495 389.452 710.646 390.659 708.836L390.677 708.808L390.697 708.779L391.155 708.138C392.218 706.674 393.254 705.447 394.262 704.53C395.31 703.577 396.821 702.5 398.655 702.5L398.943 702.508C400.38 702.584 401.753 703.239 402.651 704.586C403.466 705.808 403.655 707.261 403.655 708.5C403.655 713.062 401.598 717.675 398.08 722.266C394.154 727.954 389.001 732.559 382.675 736.085L382.676 736.086C376.623 739.646 370.437 741.5 364.155 741.5C355.598 741.5 348.813 738.983 344.713 733.244L344.701 733.226L344.688 733.208C341.259 728.255 339.655 722.115 339.655 715C339.655 706.986 341.049 698.52 343.788 689.618C346.474 680.888 349.331 672.65 352.361 664.907L352.39 664.832L352.423 664.759C355.751 657.438 358.044 652.026 359.335 648.475L359.377 648.358L359.429 648.246C367.12 631.528 375.311 614.977 384.004 598.594L385.639 595.527C393.707 580.454 402.061 565.807 410.701 551.585C411.307 540.923 411.133 528.803 410.163 515.214L410.16 515.177L410.158 515.14C409.496 500.921 408.008 486.532 405.692 471.972L405.686 471.934L405.681 471.896C403.822 457.953 401.24 445.053 397.942 433.192L397.273 430.834C393.656 418.338 389.426 408.474 384.642 401.139L384.632 401.125L384.624 401.11C375.447 386.69 365.552 376.037 354.991 368.996L354.947 368.967L354.904 368.936C344.628 361.55 334.56 358 324.655 358C319.911 358 315.94 358.634 312.68 359.819L312.658 359.827L312.636 359.835C300.532 364.025 291.624 372.649 285.915 386.051C280.163 399.552 277.664 417.913 278.65 441.335C279.297 450.991 281.555 460.849 285.453 470.917C289.341 480.629 294.166 488.81 299.898 495.508C305.936 502.175 311.518 505 316.655 505V508L316.061 507.99C309.926 507.778 303.79 504.281 297.655 497.5C291.655 490.5 286.655 482 282.655 472C278.655 461.667 276.321 451.5 275.655 441.5C273.67 394.536 285.468 366.442 311.048 357.215L311.655 357C315.321 355.667 319.655 355 324.655 355L325.655 355.011C335.988 355.243 346.321 359.073 356.655 366.5C367.655 373.833 377.821 384.833 387.155 399.5C392.155 407.167 396.488 417.333 400.155 430C403.821 442.667 406.655 456.5 408.655 471.5C410.988 486.167 412.488 500.667 413.155 515C414.155 529 414.321 541.5 413.655 552.5C404.321 567.833 395.321 583.667 386.655 600L385.036 603.064C376.969 618.396 369.342 633.875 362.155 649.5L361.608 650.961C360.223 654.57 358.071 659.583 355.155 666L354.594 667.443C351.801 674.689 349.155 682.375 346.655 690.5L346.17 692.119C343.827 700.186 342.655 707.812 342.655 715L342.66 715.622C342.751 722.01 344.249 727.302 347.155 731.5C350.384 736.021 355.803 738.352 363.412 738.493L364.155 738.5C369.821 738.5 375.488 736.833 381.155 733.5C387.155 730.167 391.988 725.833 395.655 720.5C398.884 716.302 400.549 712.417 400.65 708.845L400.655 708.5ZM360.155 705C360.155 697.333 361.321 689 363.655 680C366.321 671 368.988 662.167 371.655 653.5C376.967 638.188 383.598 622.729 391.547 607.123L393.155 604C401.28 588.375 409.991 573.482 419.288 559.322L421.155 556.5C431.155 541.167 440.488 528 449.155 517C461.655 501.375 475.18 485.311 489.731 468.807L492.655 465.5C508.321 447.5 523.821 430.833 539.155 415.5C544.113 410.833 549.327 406.039 554.795 401.117L557.155 399C562.696 393.75 567.855 389.01 572.631 384.781L574.655 383C579.321 378.917 582.84 375.982 585.209 374.195L586.155 373.5C588.092 371.885 588.153 369.645 586.336 366.779L586.155 366.5C584.217 363.594 581.185 362.095 577.058 362.004L576.655 362C572.988 362 569.655 363.333 566.655 366C563.321 368.333 558.488 370 552.155 371C545.821 371.667 539.821 372 534.155 372V369C539.682 369 545.551 368.675 551.764 368.023C557.762 367.069 562.03 365.534 564.826 363.613C568.28 360.602 572.251 359 576.655 359C581.759 359 585.977 360.825 588.651 364.836L588.865 365.165C589.915 366.82 590.655 368.625 590.655 370.5C590.655 372.532 589.789 374.248 588.367 375.55L588.076 375.805L587.99 375.876L587.899 375.941C585.974 377.316 582.875 379.843 578.556 383.581L576.63 385.258C571.333 389.893 565.529 395.199 559.218 401.178L559.187 401.207L559.155 401.235C552.851 406.876 546.881 412.348 541.244 417.652C525.974 432.923 510.532 449.529 494.917 467.47L494.909 467.48L494.899 467.49C479.263 485.123 464.796 502.251 451.498 518.874C442.904 529.783 433.627 542.867 423.667 558.139L423.66 558.151L423.651 558.164C414.335 572.138 405.597 586.845 397.44 602.286L395.817 605.384C387.22 621.916 380.118 638.266 374.505 654.435C371.854 663.052 369.203 671.834 366.551 680.782C364.274 689.575 363.155 697.643 363.155 705C363.155 712.688 364.284 717.228 365.868 719.45L366.023 719.658L366.069 719.718L366.113 719.779C368.025 722.511 370.022 723.5 372.155 723.5V726.5L371.844 726.495C368.748 726.398 366.092 724.835 363.876 721.808L363.655 721.5C361.467 718.688 360.305 713.678 360.168 706.471L360.155 705ZM328.655 346C340.907 346 353.551 349.503 366.552 356.346L367.786 357.01C380.473 363.995 391.42 374.835 400.672 389.368C408.226 400.378 414.16 414.35 418.543 431.191L418.981 432.77C423.463 449.097 426.681 465.894 428.635 483.156L428.998 486.413C430.308 498.667 430.944 510.185 430.902 520.963C431.156 520.584 431.41 520.209 431.659 519.836L431.677 519.808L431.697 519.779C434.047 516.422 436.4 513.228 438.756 510.197C447.782 497.498 458.463 483.313 470.797 467.645L470.802 467.638L473.188 464.632C485.144 449.604 497.539 434.577 510.374 419.552C521.878 405.804 533.163 393.453 544.225 382.5H540.155C534.347 382.5 528.993 381.99 524.108 380.95C522.525 380.731 520.928 380.225 519.679 379.133C518.273 377.903 517.655 376.241 517.655 374.5C517.655 372.484 518.593 370.739 520.361 369.678C521.885 368.763 523.786 368.5 525.655 368.5C526.867 368.5 528.317 368.687 529.94 369H534.155V372H529.655L529.045 371.883C527.858 371.664 526.858 371.539 526.045 371.508L525.655 371.5C522.321 371.5 520.655 372.5 520.655 374.5L520.659 374.685C520.739 376.572 522.071 377.677 524.655 378C529.03 378.938 533.844 379.436 539.098 379.494L540.155 379.5H546.155L547.874 379.25C549.561 379 551.155 378.75 552.655 378.5C539.655 390.833 526.321 405.167 512.655 421.5L510.098 424.5C497.344 439.5 485.03 454.5 473.155 469.5L470.862 472.42C459.495 486.932 449.592 500.125 441.155 512C438.821 515 436.488 518.167 434.155 521.5L432.624 523.781C431.061 526.094 429.405 528.5 427.655 531C428.321 516.667 427.655 500.833 425.655 483.5C423.655 465.833 420.321 448.667 415.655 432C411.321 415.333 405.488 401.667 398.155 391C389.113 376.792 378.507 366.337 366.337 359.637L365.155 359C352.884 352.542 341.083 349.212 329.751 349.01L328.655 349C321.655 349 315.155 350 309.155 352L308.532 352.223C295.473 356.986 284.514 367.078 275.655 382.5L275.252 383.222C266.87 398.449 263.17 417.875 264.155 441.5C264.488 449.167 266.321 457.333 269.655 466C272.988 474.333 277.155 482.167 282.155 489.5C287.488 496.833 293.155 502.833 299.155 507.5C305.155 511.833 311.155 513.667 317.155 513C318.717 513 319.547 512.268 319.645 510.803L319.655 510.5C319.655 508.938 318.922 508.107 317.458 508.01L317.155 508V505C318.451 505 319.973 505.326 321.151 506.504C322.329 507.682 322.655 509.204 322.655 510.5C322.655 511.796 322.329 513.318 321.151 514.496C320.024 515.623 318.581 515.969 317.324 515.997C310.482 516.712 303.808 514.561 297.398 509.932L297.355 509.9L297.313 509.868C291.053 504.999 285.197 498.783 279.729 491.265L279.702 491.228L279.676 491.19C274.552 483.675 270.283 475.648 266.87 467.114L266.862 467.096L266.855 467.077C263.429 458.169 261.508 449.681 261.158 441.63V441.625C260.143 417.262 264.018 396.991 273.043 381.023L273.053 381.006C282.309 364.893 293.978 354.133 308.164 349.168L308.207 349.154C314.543 347.042 321.367 346 328.655 346ZM317.155 505V508H316.655V505H317.155Z" fill="#F9E9FF"/>
</svg>
