<svg width="41" height="39" viewBox="0 0 41 39" fill="none" xmlns="http://www.w3.org/2000/svg">
<path d="M20.6436 8.42786C22.9976 8.42786 24.9058 6.55926 24.9058 4.25421C24.9058 1.94917 22.9976 0.0805664 20.6436 0.0805664C18.2896 0.0805664 16.3813 1.94917 16.3813 4.25421C16.3813 6.55926 18.2896 8.42786 20.6436 8.42786Z" fill="#BE7EC5"/>
<path d="M28.5182 15.5768C30.8722 15.5768 32.7805 13.7082 32.7805 11.4031C32.7805 9.0981 30.8722 7.22949 28.5182 7.22949C26.1643 7.22949 24.256 9.0981 24.256 11.4031C24.256 13.7082 26.1643 15.5768 28.5182 15.5768Z" fill="#BE7EC5"/>
<path d="M12.8528 15.5768C15.2068 15.5768 17.1151 13.7082 17.1151 11.4031C17.1151 9.0981 15.2068 7.22949 12.8528 7.22949C10.4988 7.22949 8.59058 9.0981 8.59058 11.4031C8.59058 13.7082 10.4988 15.5768 12.8528 15.5768Z" fill="#BE7EC5"/>
<path d="M4.9014 23.3712C7.25537 23.3712 9.16363 21.5026 9.16363 19.1976C9.16363 16.8925 7.25537 15.0239 4.9014 15.0239C2.54743 15.0239 0.63916 16.8925 0.63916 19.1976C0.63916 21.5026 2.54743 23.3712 4.9014 23.3712Z" fill="#BE7EC5"/>
<path d="M12.8528 31.2389C15.2068 31.2389 17.1151 29.3703 17.1151 27.0652C17.1151 24.7602 15.2068 22.8916 12.8528 22.8916C10.4988 22.8916 8.59058 24.7602 8.59058 27.0652C8.59058 29.3703 10.4988 31.2389 12.8528 31.2389Z" fill="#BE7EC5"/>
<path d="M20.6436 38.7858C22.9976 38.7858 24.9058 36.9172 24.9058 34.6121C24.9058 32.3071 22.9976 30.4385 20.6436 30.4385C18.2896 30.4385 16.3813 32.3071 16.3813 34.6121C16.3813 36.9172 18.2896 38.7858 20.6436 38.7858Z" fill="#BE7EC5"/>
<path d="M28.5182 31.2389C30.8722 31.2389 32.7805 29.3703 32.7805 27.0652C32.7805 24.7602 30.8722 22.8916 28.5182 22.8916C26.1643 22.8916 24.256 24.7602 24.256 27.0652C24.256 29.3703 26.1643 31.2389 28.5182 31.2389Z" fill="#BE7EC5"/>
<path d="M35.9878 23.3712C38.3418 23.3712 40.2501 21.5026 40.2501 19.1976C40.2501 16.8925 38.3418 15.0239 35.9878 15.0239C33.6339 15.0239 31.7256 16.8925 31.7256 19.1976C31.7256 21.5026 33.6339 23.3712 35.9878 23.3712Z" fill="#BE7EC5"/>
<path d="M11.5323 19.1294C9.40114 19.1294 7.05341 17.9594 6.92065 17.8978C6.66911 17.7678 6.57129 17.4667 6.69706 17.2204C6.82982 16.9741 7.13726 16.8783 7.3888 17.0015C8.43689 17.5283 11.4833 18.6983 12.9716 17.7952C13.4048 17.5352 13.7822 17.2067 14.1874 16.8646C15.5919 15.6604 17.178 14.292 20.9022 16.3583C21.1467 16.4952 21.2376 16.8031 21.0978 17.0425C20.9581 17.282 20.6437 17.3709 20.3991 17.2341C17.3107 15.5168 16.2277 16.4473 14.8652 17.6241C14.4459 17.9799 14.0197 18.3562 13.5166 18.6573C12.9437 19.0062 12.2519 19.1362 11.5392 19.1362L11.5323 19.1294Z" fill="#BE7EC5"/>
<path d="M14.9142 24.6854C14.8024 24.6854 14.6836 24.6512 14.5927 24.5691C14.5089 24.5007 12.5594 22.9202 12.3498 20.717C12.238 19.5539 12.6293 18.4523 13.5097 17.4328C13.6914 17.2207 14.0128 17.1934 14.2294 17.3713C14.446 17.5492 14.474 17.8639 14.2923 18.076C13.5936 18.8834 13.2861 19.7386 13.37 20.6212C13.5377 22.4139 15.2216 23.7754 15.2426 23.7891C15.4592 23.967 15.4941 24.2817 15.3124 24.4938C15.2146 24.617 15.0609 24.6786 14.9142 24.6786V24.6854Z" fill="#BE7EC5"/>
<path d="M18.8761 32.9365C18.7992 32.9365 18.7154 32.916 18.6455 32.8817C18.394 32.7586 18.2961 32.4507 18.4219 32.2044C18.9599 31.1781 20.1547 28.1949 19.2324 26.7376C18.9669 26.3134 18.6315 25.9439 18.2822 25.5539C17.0524 24.1787 15.6549 22.6255 17.7651 18.9787C17.9048 18.7392 18.2193 18.6503 18.4638 18.7871C18.7084 18.924 18.7992 19.2319 18.6595 19.4713C16.9057 22.4955 17.8559 23.556 19.0577 24.8902C19.4211 25.3008 19.8054 25.7181 20.1128 26.2107C21.5242 28.4549 19.4281 32.4917 19.3442 32.6628C19.2534 32.8338 19.0717 32.9365 18.89 32.9365H18.8761Z" fill="#BE7EC5"/>
<path d="M21.8314 27.3672C20.7833 27.3672 19.7911 26.9772 18.8618 26.2109C18.6452 26.033 18.6173 25.7182 18.7989 25.5061C18.9806 25.294 19.302 25.2667 19.5186 25.4446C20.3361 26.1219 21.2095 26.4298 22.1109 26.3477C23.9346 26.1835 25.339 24.5346 25.353 24.514C25.5347 24.3019 25.8561 24.2677 26.0727 24.4456C26.2893 24.6235 26.3242 24.9382 26.1426 25.1503C26.0727 25.2325 24.4586 27.1414 22.2087 27.3466C22.076 27.3603 21.9502 27.3672 21.8244 27.3672H21.8314Z" fill="#BE7EC5"/>
<path d="M24.0044 22.8304C23.1519 22.8304 22.1038 22.5841 20.7902 21.941C20.5387 21.8178 20.4339 21.5168 20.5596 21.2704C20.6854 21.0241 20.9929 20.9215 21.2444 21.0447C24.4306 22.591 25.4507 21.6057 26.7504 20.3605C27.1486 19.9773 27.5539 19.5873 28.043 19.2589C30.251 17.7536 34.4853 19.5805 34.667 19.6557C34.9255 19.772 35.0373 20.0662 34.9255 20.3194C34.8137 20.5726 34.5062 20.6889 34.2477 20.5726C33.1717 20.1005 30.0693 19.1015 28.6299 20.0799C28.2177 20.3605 27.8544 20.7094 27.4701 21.0789C26.5966 21.9204 25.6464 22.8373 24.0044 22.8373V22.8304Z" fill="#BE7EC5"/>
<path d="M27.7006 20.6689C27.5958 20.6689 27.484 20.6346 27.3932 20.5662C27.1696 20.402 27.1206 20.0873 27.2953 19.8615C27.9451 19.0199 28.2037 18.151 28.0779 17.2752C27.8124 15.5031 26.0516 14.2168 26.0306 14.21C25.8001 14.0458 25.7511 13.731 25.9188 13.5121C26.0865 13.2863 26.4079 13.2384 26.6315 13.4026C26.7154 13.4642 28.7557 14.9421 29.0841 17.1315C29.2588 18.2878 28.9304 19.4099 28.1059 20.4704C28.008 20.6004 27.8543 20.6689 27.6936 20.6689H27.7006Z" fill="#BE7EC5"/>
<path d="M23.159 19.7031C23.0821 19.7031 22.9983 19.6826 22.9284 19.6484C22.6769 19.5252 22.579 19.2173 22.7048 18.971C24.3189 15.8716 23.3267 14.8589 22.069 13.5726C21.6847 13.1826 21.2864 12.779 20.958 12.3C19.4487 10.1174 21.3563 5.99165 21.4401 5.8206C21.5589 5.56744 21.8593 5.45797 22.1179 5.57428C22.3764 5.6906 22.4882 5.98481 22.3694 6.23796C21.8803 7.28479 20.8182 10.3158 21.8034 11.7321C22.0899 12.1426 22.4393 12.4984 22.8096 12.8747C24.1023 14.1953 25.5696 15.6868 23.6201 19.4226C23.5293 19.5936 23.3476 19.6963 23.166 19.6963L23.159 19.7031Z" fill="#BE7EC5"/>
<path d="M15.3683 14.4136C15.2635 14.4136 15.1517 14.3794 15.0608 14.311C14.8372 14.1468 14.7883 13.8321 14.956 13.6131C15.0189 13.531 16.5491 11.5537 18.792 11.2526C19.9729 11.0952 21.1188 11.4305 22.1948 12.2447C22.4184 12.4158 22.4604 12.7305 22.2857 12.9494C22.111 13.1684 21.7896 13.2094 21.566 13.0384C20.7135 12.3952 19.8331 12.1284 18.9388 12.2447C17.1291 12.4842 15.7945 14.1947 15.7805 14.2152C15.6827 14.3452 15.529 14.4136 15.3683 14.4136Z" fill="#BE7EC5"/>
</svg>
