<svg width="112" height="29" viewBox="0 0 112 29" fill="none" xmlns="http://www.w3.org/2000/svg">
<path d="M14.8726 25.5507C14.3312 25.5507 13.8011 25.336 13.4177 24.9615L3.05865 14.8455C-0.189471 11.6736 -0.189471 6.51374 3.05865 3.34183C6.30677 0.169912 11.5906 0.169912 14.8387 3.34183L14.8726 3.37487L14.9064 3.34183C16.4741 1.81094 18.5662 0.962891 20.7936 0.962891C23.0211 0.962891 25.1132 1.80543 26.6865 3.34183C29.9346 6.51374 29.9346 11.6736 26.6865 14.8455L16.3274 24.9615C15.944 25.336 15.4139 25.5507 14.8726 25.5507ZM8.95151 2.58189C7.24286 2.58189 5.53421 3.21517 4.23158 4.48724C1.63196 7.02588 1.63196 11.1615 4.23158 13.7056L14.5906 23.8216C14.7372 23.9648 15.0079 23.9648 15.1545 23.8216L25.5135 13.7056C28.1132 11.167 28.1132 7.03138 25.5135 4.48724C24.256 3.25923 22.5812 2.58189 20.7936 2.58189C19.006 2.58189 17.3312 3.25923 16.0737 4.48724L15.4534 5.08748C15.132 5.40137 14.6075 5.40137 14.2805 5.08748L13.6658 4.48724C12.3632 3.21517 10.6545 2.58189 8.94587 2.58189H8.95151Z" fill="#C898CD"/>
<path d="M70.0723 25.5507C69.9632 25.5507 69.8484 25.5287 69.7393 25.4847L65.071 23.5683C62.9924 24.8679 60.5865 25.5507 58.0944 25.5507C51.026 25.5507 45.2725 20.0329 45.2725 13.2541C45.2725 6.47519 51.026 0.962891 58.1002 0.962891C65.1744 0.962891 70.9221 6.4807 70.9221 13.2596C70.9221 15.7872 70.1355 18.1937 68.6425 20.2532L70.8303 24.3778C70.991 24.6807 70.9394 25.0496 70.6924 25.2974C70.5317 25.4626 70.3077 25.5507 70.078 25.5507H70.0723ZM58.1002 2.58189C51.9619 2.58189 46.9664 7.3728 46.9664 13.2596C46.9664 19.1463 51.9619 23.9373 58.1002 23.9373C60.4027 23.9373 62.6191 23.2654 64.5025 21.9934C64.7437 21.8337 65.0538 21.8006 65.3179 21.9108L68.2693 23.1222L66.9027 20.5451C66.7591 20.2697 66.7879 19.9393 66.9831 19.6915C68.453 17.8247 69.234 15.6 69.234 13.2596C69.234 7.3728 64.2384 2.58189 58.1002 2.58189Z" fill="#C898CD"/>
<path d="M104.662 28.5928C104.328 28.5928 104.02 28.4168 103.859 28.1294L97.2408 16.1188L85.9858 10.0489C85.6647 9.87882 85.4857 9.53281 85.5351 9.1868C85.5845 8.84079 85.85 8.55342 86.2081 8.46545L110.632 2.43665C110.941 2.36041 111.268 2.44251 111.496 2.65364C111.725 2.86476 111.817 3.17559 111.743 3.46882L105.545 27.9359C105.458 28.2878 105.15 28.5458 104.773 28.5869C104.736 28.5869 104.699 28.5928 104.662 28.5928ZM88.8258 9.60319L98.3706 14.7523C98.5249 14.8344 98.6484 14.9576 98.7287 15.1042L104.353 25.3027L109.632 4.4658L88.8319 9.60905L88.8258 9.60319Z" fill="#C898CD"/>
<path d="M97.9199 16.3591C97.6853 16.3591 97.4569 16.277 97.2778 16.1069C96.9259 15.7726 96.9259 15.2272 97.2778 14.8871L110.224 2.6594C110.576 2.32512 111.151 2.32512 111.509 2.6594C111.861 2.99369 111.861 3.53909 111.509 3.87924L98.5682 16.1128C98.3892 16.2829 98.1607 16.365 97.9261 16.365L97.9199 16.3591Z" fill="#C898CD"/>
</svg>
