<svg width="80" height="33" viewBox="0 0 80 33" fill="none" xmlns="http://www.w3.org/2000/svg">
<g opacity="0.6">
<g clip-path="url(#clip0_1669_883)">
<path d="M16.1051 32.4735C24.8217 32.4735 31.8878 25.4073 31.8878 16.6908C31.8878 7.97433 24.8217 0.908203 16.1051 0.908203C7.38864 0.908203 0.32251 7.97433 0.32251 16.6908C0.32251 25.4073 7.38864 32.4735 16.1051 32.4735Z" fill="url(#paint0_radial_1669_883)"/>
<path d="M16.1658 8.55047C18.888 8.55047 19.2103 8.56164 20.2842 8.60951C21.2783 8.65418 21.8176 8.82013 22.1767 8.96055C22.6522 9.14565 22.992 9.36585 23.3495 9.72327C23.7069 10.0807 23.9271 10.419 24.1122 10.8961C24.251 11.2551 24.4186 11.7944 24.4632 12.7885C24.5127 13.864 24.5223 14.1863 24.5223 16.9069C24.5223 19.6275 24.5111 19.9514 24.4632 21.0253C24.4186 22.0194 24.251 22.5587 24.1122 22.9178C23.9271 23.3933 23.7069 23.7331 23.3495 24.0906C22.992 24.448 22.6538 24.6682 22.1767 24.8533C21.8176 24.9921 21.2783 25.1597 20.2842 25.2043C19.2087 25.2538 18.8864 25.2634 16.1658 25.2634C13.4452 25.2634 13.1213 25.2522 12.0474 25.2043C11.0533 25.1597 10.514 24.9937 10.155 24.8533C9.67949 24.6682 9.33961 24.448 8.98219 24.0906C8.62476 23.7331 8.40456 23.3949 8.21946 22.9178C8.08064 22.5587 7.9131 22.0194 7.86842 21.0253C7.81895 19.9498 7.80938 19.6275 7.80938 16.9069C7.80938 14.1863 7.81895 13.8624 7.86842 12.7885C7.9131 11.7944 8.07904 11.2551 8.21946 10.8961C8.40456 10.4206 8.62476 10.0807 8.98219 9.72327C9.33961 9.36585 9.67789 9.14565 10.155 8.96055C10.514 8.82173 11.0533 8.65418 12.0474 8.60951C13.1229 8.56004 13.4452 8.55047 16.1658 8.55047ZM16.1658 6.71387C13.3974 6.71387 13.0511 6.72504 11.9629 6.7745C10.8778 6.82397 10.1374 6.9963 9.48801 7.24841C8.81783 7.5085 8.24978 7.85795 7.68332 8.42441C7.11686 8.99087 6.76741 9.55892 6.50732 10.2291C6.25521 10.8769 6.08288 11.6189 6.03341 12.704C5.98395 13.7906 5.97278 14.1385 5.97278 16.9069C5.97278 19.6754 5.98395 20.0216 6.03341 21.1099C6.08288 22.1949 6.25521 22.9353 6.50732 23.5847C6.76741 24.2549 7.11686 24.823 7.68332 25.3894C8.24978 25.9559 8.81783 26.3053 9.48801 26.5654C10.1358 26.8175 10.8778 26.9899 11.9629 27.0393C13.0495 27.0888 13.3974 27.1 16.1658 27.1C18.9343 27.1 19.2806 27.0888 20.3688 27.0393C21.4538 26.9899 22.1942 26.8175 22.8437 26.5654C23.5138 26.3053 24.0819 25.9559 24.6483 25.3894C25.2148 24.823 25.5642 24.2549 25.8243 23.5847C26.0765 22.9369 26.2488 22.1949 26.2982 21.1099C26.3477 20.0232 26.3589 19.6754 26.3589 16.9069C26.3589 14.1385 26.3477 13.7922 26.2982 12.704C26.2488 11.6189 26.0765 10.8785 25.8243 10.2291C25.5642 9.55892 25.2148 8.99087 24.6483 8.42441C24.0819 7.85795 23.5138 7.5085 22.8437 7.24841C22.1958 6.9963 21.4538 6.82397 20.3688 6.7745C19.2821 6.72504 18.9343 6.71387 16.1658 6.71387ZM16.1658 11.6732C13.2745 11.6732 10.9321 14.0172 10.9321 16.9069C10.9321 19.7967 13.2761 22.1407 16.1658 22.1407C19.0556 22.1407 21.3996 19.7967 21.3996 16.9069C21.3996 14.0172 19.0556 11.6732 16.1658 11.6732ZM16.1658 20.3057C14.2893 20.3057 12.7687 18.785 12.7687 16.9085C12.7687 15.032 14.2893 13.5114 16.1658 13.5114C18.0423 13.5114 19.563 15.032 19.563 16.9085C19.563 18.785 18.0423 20.3057 16.1658 20.3057ZM21.607 10.2435C20.9321 10.2435 20.3832 10.7908 20.3832 11.4673C20.3832 12.1439 20.9305 12.6912 21.607 12.6912C22.2836 12.6912 22.8309 12.1439 22.8309 11.4673C22.8309 10.7908 22.2836 10.2435 21.607 10.2435Z" fill="white"/>
</g>
<g clip-path="url(#clip1_1669_883)">
<path d="M38.1275 32.4735C46.844 32.4735 53.9101 25.4073 53.9101 16.6908C53.9101 7.97433 46.844 0.908203 38.1275 0.908203C29.411 0.908203 22.3448 7.97433 22.3448 16.6908C22.3448 25.4073 29.411 32.4735 38.1275 32.4735Z" fill="#00549E"/>
<path d="M43.4139 10.2447H41.8549C40.3199 10.2447 39.8412 11.1973 39.8412 12.1738V14.4923H43.2687L42.7214 18.065H39.8412V26.7007C39.2125 26.7996 38.5679 26.8507 37.9105 26.8507C37.253 26.8507 36.6084 26.7996 35.9797 26.7007V18.065H32.8427V14.4923H35.9797V11.7701C35.9797 8.67295 37.8243 6.9624 40.647 6.9624C41.9985 6.9624 43.4139 7.20335 43.4139 7.20335V10.2447Z" fill="white"/>
</g>
<g clip-path="url(#clip2_1669_883)">
<path d="M63.453 32.4742C72.3722 32.4742 79.6027 25.2437 79.6027 16.3245C79.6027 7.40526 72.3722 0.174805 63.453 0.174805C54.5338 0.174805 47.3033 7.40526 47.3033 16.3245C47.3033 25.2437 54.5338 32.4742 63.453 32.4742Z" fill="black"/>
<path d="M73.1091 25.0958H67.8826L63.0969 18.132L57.1063 25.0958H55.5585L62.4112 17.1311L55.5585 7.1582H60.785L65.3159 13.7529L70.9897 7.1582H72.5376L66.0033 14.7538L73.1091 25.0958ZM68.6108 23.9838H70.9897L60.042 8.32563H57.6631L68.6108 23.9838Z" fill="white"/>
</g>
</g>
<defs>
<radialGradient id="paint0_radial_1669_883" cx="0" cy="0" r="1" gradientUnits="userSpaceOnUse" gradientTransform="translate(7.68646 29.2854) scale(37.316)">
<stop stop-color="#FFDB71"/>
<stop offset="0.26" stop-color="#FF9524"/>
<stop offset="0.49" stop-color="#FF2B70"/>
<stop offset="0.75" stop-color="#A628B2"/>
<stop offset="0.99" stop-color="#5351D6"/>
</radialGradient>
<clipPath id="clip0_1669_883">
<rect width="31.5653" height="31.5653" fill="white" transform="translate(0.32251 0.908203)"/>
</clipPath>
<clipPath id="clip1_1669_883">
<rect width="31.5653" height="31.5653" fill="white" transform="translate(22.3448 0.908203)"/>
</clipPath>
<clipPath id="clip2_1669_883">
<rect width="32.2993" height="32.2993" fill="white" transform="translate(47.3033 0.174805)"/>
</clipPath>
</defs>
</svg>
