<svg width="58" height="58" viewBox="0 0 58 58" fill="none" xmlns="http://www.w3.org/2000/svg">
<path d="M16 0.5H42C50.5604 0.500001 57.5 7.43959 57.5 16V57.5H16C7.43959 57.5 0.5 50.5604 0.5 42V16L0.504883 15.5996C0.713874 7.35729 7.35729 0.713873 15.5996 0.504883L16 0.5Z" stroke="#D6A6DB"/>
<path d="M11.1246 37L17.0196 20.71H18.3471L24.2309 37H22.9934L17.7171 22.2175H17.6271L12.3621 37H11.1246ZM21.6321 30.835V31.8925H13.7234V30.835H21.6321ZM29.1737 37H28.0487V20.71H29.1737V37ZM35.4215 37H34.2965V20.71H35.4215V37Z" fill="#D6A6DB"/>
<path d="M42.9608 33.6081L47.5688 29.0001L42.9608 24.3921" stroke="#D6A6DB" stroke-linecap="round" stroke-linejoin="round"/>
</svg>
